
<svg xmlns="http://www.w3.org/2000/svg" version="1.1" xmlns:xlink="http://www.w3.org/1999/xlink" x="0px" y="0px" viewBox="0 0 100 100">
<defs>
<g id="Layer1_0_FILL">
<path fill="#151515" stroke="none" d="
M 74.75 65.1
L 73.2 65.1 65.1 65.1 65.1 87.6
Q 72.4994140625 84.6505859375 78.6 78.55 84.669921875 72.480078125 87.6 65.1
L 74.75 65.1
M 34.95 65.1
L 26.8 65.1 25.25 65.1 12.35 65.1
Q 15.304296875 72.480078125 21.4 78.55 27.52109375 84.67109375 34.95 87.6
L 34.95 65.1
M 34.95 34.95
L 34.95 12.3
Q 27.52109375 15.27890625 21.4 21.4 15.27890625 27.52109375 12.3 34.95
L 34.95 34.95
M 78.6 21.4
Q 72.4994140625 15.2994140625 65.1 12.35
L 65.1 25.25 65.1 26.8 65.1 34.95 87.65 34.95
Q 84.6953125 27.52109375 78.6 21.4 Z"/>

<path fill="#242424" stroke="none" d="
M 91.85 34.95
L 87.65 34.95 65.1 34.95 65.1 26.8 65.1 25.25 65.1 12.35 65.1 8.15
Q 50.05 4.05 34.95 8.15
L 34.95 12.3 34.95 34.95 12.3 34.95 8.15 34.95
Q 4.05 50.05 8.15 65.1
L 12.35 65.1 25.25 65.1 26.8 65.1 34.95 65.1 34.95 87.6 34.95 91.85
Q 50.05 95.95 65.1 91.85
L 65.1 87.6 65.1 65.1 73.2 65.1 74.75 65.1 87.6 65.1 91.85 65.1
Q 95.95 50.05 91.85 34.95
M 85.8 42.45
Q 86.9927734375 50.032421875 85.8 57.6
L 65.1 57.6
Q 61.994921875 57.6015625 59.8 59.8 57.6015625 61.994921875 57.6 65.1
L 57.6 85.8
Q 50.032421875 86.9927734375 42.45 85.8
L 42.45 65.1
Q 42.4482421875 61.994921875 40.25 59.8 38.0548828125 57.6015625 34.95 57.6
L 14.2 57.6
Q 13.0072265625 50.032421875 14.2 42.45
L 34.95 42.45
Q 38.0548828125 42.4482421875 40.25 40.25 42.4482421875 38.0548828125 42.45 34.95
L 42.45 14.2
Q 50.032421875 13.0115234375 57.6 14.2
L 57.6 34.95
Q 57.6015625 38.0548828125 59.8 40.25 61.994921875 42.4482421875 65.1 42.45
L 85.8 42.45 Z"/>

<path fill="#3B3B3B" stroke="none" d="
M 85.8 57.6
Q 86.9927734375 50.032421875 85.8 42.45
L 65.1 42.45
Q 61.994921875 42.4482421875 59.8 40.25 57.6015625 38.0548828125 57.6 34.95
L 57.6 14.2
Q 50.032421875 13.0115234375 42.45 14.2
L 42.45 34.95
Q 42.4482421875 38.0548828125 40.25 40.25 38.0548828125 42.4482421875 34.95 42.45
L 14.2 42.45
Q 13.0072265625 50.032421875 14.2 57.6
L 34.95 57.6
Q 38.0548828125 57.6015625 40.25 59.8 42.4482421875 61.994921875 42.45 65.1
L 42.45 85.8
Q 50.032421875 86.9927734375 57.6 85.8
L 57.6 65.1
Q 57.6015625 61.994921875 59.8 59.8 61.994921875 57.6015625 65.1 57.6
L 85.8 57.6 Z"/>
</g>

<path id="Layer1_0_1_STROKES" stroke="#000000" stroke-width="5" stroke-linejoin="round" stroke-linecap="round" fill="none" d="
M 87.65 34.95
L 91.85 34.95
Q 95.95 50.05 91.85 65.1
L 87.625 65.1
Q 84.669921875 72.480078125 78.6 78.55 72.4994140625 84.6505859375 65.1 87.6
L 65.1 91.85
Q 50.05 95.95 34.95 91.85
L 34.95 87.625
Q 27.52109375 84.67109375 21.4 78.55 15.304296875 72.480078125 12.35 65.1
L 8.15 65.1
Q 4.05 50.05 8.15 34.95
L 12.325 34.95
Q 15.27890625 27.52109375 21.4 21.4 27.52109375 15.27890625 34.95 12.325
L 34.95 8.15
Q 50.05 4.05 65.1 8.15
L 65.1 12.35
Q 72.4994140625 15.2994140625 78.6 21.4 84.6953125 27.52109375 87.65 34.95
L 65.1 34.95 65.1 26.8
M 65.1 25.25
L 65.1 12.35
M 12.325 34.95
L 34.95 34.95 34.95 12.325
M 34.95 87.625
L 34.95 65.1 26.8 65.1
M 25.25 65.1
L 12.35 65.1
M 73.2 65.1
L 65.1 65.1 65.1 87.6
M 87.625 65.1
L 74.75 65.1"/>

<path id="Layer1_0_2_STROKES" stroke="#535353" stroke-width="4" stroke-linejoin="round" stroke-linecap="round" fill="none" d="
M 85.8 42.45
Q 86.9927734375 50.032421875 85.8 57.6
L 65.1 57.6
Q 61.994921875 57.6015625 59.8 59.8 57.6015625 61.994921875 57.6 65.1
L 57.6 85.8
Q 50.032421875 86.9927734375 42.45 85.8
L 42.45 65.1
Q 42.4482421875 61.994921875 40.25 59.8 38.0548828125 57.6015625 34.95 57.6
L 14.2 57.6
Q 13.0072265625 50.032421875 14.2 42.45
L 34.95 42.45
Q 38.0548828125 42.4482421875 40.25 40.25 42.4482421875 38.0548828125 42.45 34.95
L 42.45 14.2
Q 50.032421875 13.0115234375 57.6 14.2
L 57.6 34.95
Q 57.6015625 38.0548828125 59.8 40.25 61.994921875 42.4482421875 65.1 42.45
L 85.8 42.45 Z"/>

</defs>

<g transform="matrix( 1, 0, 0, 1, 0,0) ">
<use xlink:href="#Layer1_0_FILL"/>

<use xlink:href="#Layer1_0_1_STROKES"/>

<use xlink:href="#Layer1_0_2_STROKES"/>
</g>

<g transform="matrix( 1, 0, 0, 1, -3.4,-28) ">
<clipPath id="Mask_Mask_1">
<rect x="30.65" y="-2" width="45.5" height="20.8" fill="#FFFFFF" stroke="none"/>
</clipPath>

<text clip-path="url(#Mask_Mask_1)" writing-mode="lr"><tspan x="32.7" y="13.6" baseline-shift="0%" kerning="auto" font-family="Arial_Regular" font-size="15" fill="#999999" xml:space="preserve">OUYA</tspan></text>
</g>
</svg>
