
<svg xmlns="http://www.w3.org/2000/svg" version="1.1" xmlns:xlink="http://www.w3.org/1999/xlink" x="0px" y="0px" viewBox="0 0 100 100">
<defs>
<g id="Layer1_0_FILL">
<path fill="#D7D7D7" stroke="none" d="
M 84.95 77.8
Q 83.7 50.5 84.95 23.15 84.95 17.3 79.1 17.3
L 21.9 17.3
Q 16.05 17.3 16.05 23.15 17.3 50.5 16.05 77.8 16.05 83.65 21.9 83.65
L 79.1 83.65
Q 84.95 83.65 84.95 77.8
M 54.15 26.45
L 55.4 26.45 71.55 26.45
Q 75.8 26.45 75.8 30.7 74.65 50.5 75.8 70.25 75.8 74.45 71.55 74.45
L 55.4 74.45 54.15 74.45 29.45 74.45
Q 25.2 74.45 25.2 70.25 26.35 50.5 25.2 30.7 25.2 26.45 29.45 26.45
L 54.15 26.45 Z"/>

<path fill="#F5F5F5" stroke="none" d="
M 55.4 26.45
L 54.15 26.45 29.45 26.45
Q 25.2 26.45 25.2 30.7 26.35 50.5 25.2 70.25 25.2 74.45 29.45 74.45
L 54.15 74.45 55.4 74.45 71.55 74.45
Q 75.8 74.45 75.8 70.25 74.65 50.5 75.8 30.7 75.8 26.45 71.55 26.45
L 55.4 26.45
M 45.95 39.55
Q 47.75 38.4 50.5 38.4 53.3 38.4 55.05 39.55 56.85 40.75 57.85 42.6 58.9 44.45 59.3 46.75 59.7 49 59.7 51.2 59.7 53.4 59.3 55.7 58.9 57.95 57.85 59.8 56.85 61.7 55.05 62.85 53.3 64.05 50.5 64.05 47.75 64.05 45.95 62.85 44.2 61.7 43.15 59.8 42.1 57.95 41.7 55.7 41.3 53.4 41.3 51.2 41.3 49 41.7 46.75 42.1 44.45 43.15 42.6 44.2 40.75 45.95 39.55
M 50.5 43.25
Q 49.05 43.25 48.3 44.1 47.5 44.95 47.1 46.25 46.75 47.5 46.65 48.85 46.55 50.25 46.55 51.2 46.55 52.2 46.65 53.55 46.75 54.9 47.1 56.2 47.5 57.45 48.3 58.3 49.05 59.2 50.5 59.2 51.9 59.2 52.7 58.3 53.5 57.45 53.9 56.2 54.3 54.9 54.35 53.55 54.45 52.2 54.45 51.2 54.45 50.25 54.35 48.85 54.3 47.5 53.9 46.25 53.5 44.95 52.7 44.1 51.9 43.25 50.5 43.25 Z"/>

<path fill="#404040" stroke="none" d="
M 50.5 38.4
Q 47.75 38.4 45.95 39.55 44.2 40.75 43.15 42.6 42.1 44.45 41.7 46.75 41.3 49 41.3 51.2 41.3 53.4 41.7 55.7 42.1 57.95 43.15 59.8 44.2 61.7 45.95 62.85 47.75 64.05 50.5 64.05 53.3 64.05 55.05 62.85 56.85 61.7 57.85 59.8 58.9 57.95 59.3 55.7 59.7 53.4 59.7 51.2 59.7 49 59.3 46.75 58.9 44.45 57.85 42.6 56.85 40.75 55.05 39.55 53.3 38.4 50.5 38.4
M 48.3 44.1
Q 49.05 43.25 50.5 43.25 51.9 43.25 52.7 44.1 53.5 44.95 53.9 46.25 54.3 47.5 54.35 48.85 54.45 50.25 54.45 51.2 54.45 52.2 54.35 53.55 54.3 54.9 53.9 56.2 53.5 57.45 52.7 58.3 51.9 59.2 50.5 59.2 49.05 59.2 48.3 58.3 47.5 57.45 47.1 56.2 46.75 54.9 46.65 53.55 46.55 52.2 46.55 51.2 46.55 50.25 46.65 48.85 46.75 47.5 47.1 46.25 47.5 44.95 48.3 44.1 Z"/>
</g>

<path id="Layer1_0_1_STROKES" stroke="#404040" stroke-width="5" stroke-linejoin="round" stroke-linecap="round" fill="none" d="
M 84.95 23.15
Q 83.7 50.5 84.95 77.8 84.95 83.65 79.1 83.65
L 21.9 83.65
Q 16.05 83.65 16.05 77.8 17.3 50.5 16.05 23.15 16.05 17.3 21.9 17.3
L 79.1 17.3
Q 84.95 17.3 84.95 23.15 Z"/>

<path id="Layer1_0_2_STROKES" stroke="#FFFFFF" stroke-width="4" stroke-linejoin="round" stroke-linecap="round" fill="none" d="
M 54.15 26.45
L 29.45 26.45
Q 25.2 26.45 25.2 30.7 26.35 50.5 25.2 70.25 25.2 74.45 29.45 74.45
L 54.15 74.45
M 55.4 74.45
L 71.55 74.45
Q 75.8 74.45 75.8 70.25 74.65 50.5 75.8 30.7 75.8 26.45 71.55 26.45
L 55.4 26.45"/>

</defs>

<g transform="matrix( 1, 0, 0, 1, 0,0) ">
<use xlink:href="#Layer1_0_FILL"/>

<use xlink:href="#Layer1_0_1_STROKES"/>

<use xlink:href="#Layer1_0_2_STROKES"/>
</g>

<g transform="matrix( 1, 0, 0, 1, -3.4,-28) ">
<clipPath id="Mask_Mask_1">
<rect x="0.85" y="-2" width="105.1" height="20.8" fill="#FFFFFF" stroke="none"/>
</clipPath>

<text clip-path="url(#Mask_Mask_1)" writing-mode="lr"><tspan x="2.9" y="13.6" baseline-shift="0%" kerning="auto" font-family="Arial_Regular" font-size="15" fill="#999999" xml:space="preserve">Light Keyboard</tspan></text>
</g>
</svg>
