
<svg xmlns="http://www.w3.org/2000/svg" version="1.1" xmlns:xlink="http://www.w3.org/1999/xlink" x="0px" y="0px" viewBox="0 0 100 100">
<defs>
<g id="Layer1_0_FILL">
<path fill="#D7D7D7" stroke="none" d="
M 84.95 77.8
Q 83.7 50.5 84.95 23.15 84.95 17.3 79.1 17.3
L 21.9 17.3
Q 16.05 17.3 16.05 23.15 17.3 50.5 16.05 77.8 16.05 83.65 21.9 83.65
L 79.1 83.65
Q 84.95 83.65 84.95 77.8
M 54.15 26.45
L 55.4 26.45 71.55 26.45
Q 75.8 26.45 75.8 30.7 74.65 50.5 75.8 70.25 75.8 74.45 71.55 74.45
L 55.4 74.45 54.15 74.45 29.45 74.45
Q 25.2 74.45 25.2 70.25 26.35 50.5 25.2 30.7 25.2 26.45 29.45 26.45
L 54.15 26.45 Z"/>

<path fill="#F5F5F5" stroke="none" d="
M 55.4 26.45
L 54.15 26.45 29.45 26.45
Q 25.2 26.45 25.2 30.7 26.35 50.5 25.2 70.25 25.2 74.45 29.45 74.45
L 54.15 74.45 55.4 74.45 71.55 74.45
Q 75.8 74.45 75.8 70.25 74.65 50.5 75.8 30.7 75.8 26.45 71.55 26.45
L 55.4 26.45
M 44.15 47.3
L 49.6 38.8 56 38.8 50.2 47.65
Q 50.6 47.55 51 47.5 51.45 47.45 51.9 47.45 53.65 47.45 55.1 48.05 56.5 48.7 57.55 49.75 58.55 50.85 59.1 52.35 59.65 53.85 59.65 55.5 59.65 57.45 58.95 59 58.25 60.55 57 61.7 55.75 62.8 54.05 63.4 52.35 64.05 50.45 64.05 48.45 64.05 46.8 63.4 45.1 62.8 43.9 61.7 42.65 60.55 41.9 59 41.2 57.45 41.2 55.5 41.2 54.2 41.45 53.1 41.7 52 42.1 51 42.5 50.05 43 49.1 43.55 48.25 44.15 47.3
M 54.4 55.3
Q 54.4 53.6 53.3 52.55 52.2 51.4 50.45 51.4 48.65 51.4 47.55 52.55 46.45 53.6 46.45 55.3 46.45 57 47.55 58.1 48.65 59.2 50.45 59.2 52.2 59.2 53.3 58.1 54.4 57 54.4 55.3 Z"/>

<path fill="#404040" stroke="none" d="
M 49.6 38.8
L 44.15 47.3
Q 43.55 48.25 43 49.1 42.5 50.05 42.1 51 41.7 52 41.45 53.1 41.2 54.2 41.2 55.5 41.2 57.45 41.9 59 42.65 60.55 43.9 61.7 45.1 62.8 46.8 63.4 48.45 64.05 50.45 64.05 52.35 64.05 54.05 63.4 55.75 62.8 57 61.7 58.25 60.55 58.95 59 59.65 57.45 59.65 55.5 59.65 53.85 59.1 52.35 58.55 50.85 57.55 49.75 56.5 48.7 55.1 48.05 53.65 47.45 51.9 47.45 51.45 47.45 51 47.5 50.6 47.55 50.2 47.65
L 56 38.8 49.6 38.8
M 53.3 52.55
Q 54.4 53.6 54.4 55.3 54.4 57 53.3 58.1 52.2 59.2 50.45 59.2 48.65 59.2 47.55 58.1 46.45 57 46.45 55.3 46.45 53.6 47.55 52.55 48.65 51.4 50.45 51.4 52.2 51.4 53.3 52.55 Z"/>
</g>

<path id="Layer1_0_1_STROKES" stroke="#404040" stroke-width="5" stroke-linejoin="round" stroke-linecap="round" fill="none" d="
M 84.95 23.15
Q 83.7 50.5 84.95 77.8 84.95 83.65 79.1 83.65
L 21.9 83.65
Q 16.05 83.65 16.05 77.8 17.3 50.5 16.05 23.15 16.05 17.3 21.9 17.3
L 79.1 17.3
Q 84.95 17.3 84.95 23.15 Z"/>

<path id="Layer1_0_2_STROKES" stroke="#FFFFFF" stroke-width="4" stroke-linejoin="round" stroke-linecap="round" fill="none" d="
M 54.15 26.45
L 29.45 26.45
Q 25.2 26.45 25.2 30.7 26.35 50.5 25.2 70.25 25.2 74.45 29.45 74.45
L 54.15 74.45
M 55.4 74.45
L 71.55 74.45
Q 75.8 74.45 75.8 70.25 74.65 50.5 75.8 30.7 75.8 26.45 71.55 26.45
L 55.4 26.45"/>

</defs>

<g transform="matrix( 1, 0, 0, 1, 0,0) ">
<use xlink:href="#Layer1_0_FILL"/>

<use xlink:href="#Layer1_0_1_STROKES"/>

<use xlink:href="#Layer1_0_2_STROKES"/>
</g>

<g transform="matrix( 1, 0, 0, 1, -3.4,-28) ">
<clipPath id="Mask_Mask_1">
<rect x="0.85" y="-2" width="105.1" height="20.8" fill="#FFFFFF" stroke="none"/>
</clipPath>

<text clip-path="url(#Mask_Mask_1)" writing-mode="lr"><tspan x="2.9" y="13.6" baseline-shift="0%" kerning="auto" font-family="Arial_Regular" font-size="15" fill="#999999" xml:space="preserve">Light Keyboard</tspan></text>
</g>
</svg>
