
<svg xmlns="http://www.w3.org/2000/svg" version="1.1" xmlns:xlink="http://www.w3.org/1999/xlink" x="0px" y="0px" viewBox="0 0 100 100">
<defs>
<g id="Layer1_0_FILL">
<path fill="#D7D7D7" stroke="none" d="
M 84.95 77.8
Q 83.7 50.5 84.95 23.15 84.95 17.3 79.1 17.3
L 21.9 17.3
Q 16.05 17.3 16.05 23.15 17.3 50.5 16.05 77.8 16.05 83.65 21.9 83.65
L 79.1 83.65
Q 84.95 83.65 84.95 77.8
M 54.15 26.45
L 55.4 26.45 71.55 26.45
Q 75.8 26.45 75.8 30.7 74.65 50.5 75.8 70.25 75.8 74.45 71.55 74.45
L 55.4 74.45 54.15 74.45 29.45 74.45
Q 25.2 74.45 25.2 70.25 26.35 50.5 25.2 30.7 25.2 26.45 29.45 26.45
L 54.15 26.45 Z"/>

<path fill="#F5F5F5" stroke="none" d="
M 55.4 26.45
L 54.15 26.45 29.45 26.45
Q 25.2 26.45 25.2 30.7 26.35 50.5 25.2 70.25 25.2 74.45 29.45 74.45
L 54.15 74.45 55.4 74.45 71.55 74.45
Q 75.8 74.45 75.8 70.25 74.65 50.5 75.8 30.7 75.8 26.45 71.55 26.45
L 55.4 26.45
M 57.05 39.95
Q 58.35 40.65 59.15 41.85 59.95 43.1 59.95 45.15 59.95 47.25 58.8 48.6 57.6 50 55.7 50.6
L 55.7 50.65
Q 56.9 50.85 57.9 51.35 58.9 51.85 59.6 52.65 60.35 53.4 60.75 54.45 61.1 55.5 61.1 56.7 61.1 58.65 60.25 60 59.45 61.3 58.1 62.1 56.75 62.9 55.1 63.25 53.45 63.6 51.8 63.6
L 41.7 63.6 41.7 38.8 50.9 38.8
Q 52.5 38.8 54.15 39.05 55.8 39.3 57.05 39.95
M 52.7 53.45
Q 51.9 53.35 51.25 53.35
L 47.15 53.35 47.15 59 52 59
Q 52.65 59 53.3 58.85 53.95 58.7 54.45 58.35 55 58 55.35 57.45 55.65 56.9 55.65 56.1 55.65 55.2 55.2 54.65 54.8 54.1 54.1 53.85 53.45 53.55 52.7 53.45
M 47.15 43.45
L 47.15 48.75 51.1 48.75
Q 51.7 48.75 52.35 48.6 52.95 48.45 53.45 48.15 53.9 47.85 54.2 47.3 54.5 46.75 54.5 46.05 54.5 45.25 54.2 44.75 53.85 44.25 53.3 43.95 52.8 43.65 52.15 43.55 51.45 43.45 50.85 43.45
L 47.15 43.45 Z"/>

<path fill="#404040" stroke="none" d="
M 59.15 41.85
Q 58.35 40.65 57.05 39.95 55.8 39.3 54.15 39.05 52.5 38.8 50.9 38.8
L 41.7 38.8 41.7 63.6 51.8 63.6
Q 53.45 63.6 55.1 63.25 56.75 62.9 58.1 62.1 59.45 61.3 60.25 60 61.1 58.65 61.1 56.7 61.1 55.5 60.75 54.45 60.35 53.4 59.6 52.65 58.9 51.85 57.9 51.35 56.9 50.85 55.7 50.65
L 55.7 50.6
Q 57.6 50 58.8 48.6 59.95 47.25 59.95 45.15 59.95 43.1 59.15 41.85
M 47.15 48.75
L 47.15 43.45 50.85 43.45
Q 51.45 43.45 52.15 43.55 52.8 43.65 53.3 43.95 53.85 44.25 54.2 44.75 54.5 45.25 54.5 46.05 54.5 46.75 54.2 47.3 53.9 47.85 53.45 48.15 52.95 48.45 52.35 48.6 51.7 48.75 51.1 48.75
L 47.15 48.75
M 51.25 53.35
Q 51.9 53.35 52.7 53.45 53.45 53.55 54.1 53.85 54.8 54.1 55.2 54.65 55.65 55.2 55.65 56.1 55.65 56.9 55.35 57.45 55 58 54.45 58.35 53.95 58.7 53.3 58.85 52.65 59 52 59
L 47.15 59 47.15 53.35 51.25 53.35 Z"/>
</g>

<path id="Layer1_0_1_STROKES" stroke="#404040" stroke-width="5" stroke-linejoin="round" stroke-linecap="round" fill="none" d="
M 84.95 23.15
Q 83.7 50.5 84.95 77.8 84.95 83.65 79.1 83.65
L 21.9 83.65
Q 16.05 83.65 16.05 77.8 17.3 50.5 16.05 23.15 16.05 17.3 21.9 17.3
L 79.1 17.3
Q 84.95 17.3 84.95 23.15 Z"/>

<path id="Layer1_0_2_STROKES" stroke="#FFFFFF" stroke-width="4" stroke-linejoin="round" stroke-linecap="round" fill="none" d="
M 54.15 26.45
L 29.45 26.45
Q 25.2 26.45 25.2 30.7 26.35 50.5 25.2 70.25 25.2 74.45 29.45 74.45
L 54.15 74.45
M 55.4 74.45
L 71.55 74.45
Q 75.8 74.45 75.8 70.25 74.65 50.5 75.8 30.7 75.8 26.45 71.55 26.45
L 55.4 26.45"/>

</defs>

<g transform="matrix( 1, 0, 0, 1, 0,0) ">
<use xlink:href="#Layer1_0_FILL"/>

<use xlink:href="#Layer1_0_1_STROKES"/>

<use xlink:href="#Layer1_0_2_STROKES"/>
</g>

<g transform="matrix( 1, 0, 0, 1, -3.4,-28) ">
<clipPath id="Mask_Mask_1">
<rect x="0.85" y="-2" width="105.1" height="20.8" fill="#FFFFFF" stroke="none"/>
</clipPath>

<text clip-path="url(#Mask_Mask_1)" writing-mode="lr"><tspan x="2.9" y="13.6" baseline-shift="0%" kerning="auto" font-family="Arial_Regular" font-size="15" fill="#999999" xml:space="preserve">Light Keyboard</tspan></text>
</g>
</svg>
