<?xml version="1.0" encoding="utf-8"?>
<!-- Generator: Adobe Illustrator 24.1.2, SVG Export Plug-In . SVG Version: 6.00 Build 0)  -->
<svg version="1.1" id="Layer_1" xmlns="http://www.w3.org/2000/svg" xmlns:xlink="http://www.w3.org/1999/xlink" x="0px" y="0px"
	 viewBox="0 0 100 100" style="enable-background:new 0 0 100 100;" xml:space="preserve">
<g transform="matrix( 1, 0, 0, 1, 0,0) ">
	<g>
		<g id="Layer1_0_FILL">
			<path style="fill:#D7D7D7;" d="M46,66.7c-0.5-11.1-0.5-22.2,0-33.3c0-2.4-1.2-3.6-3.6-3.6H7.6C5.2,29.8,4,31,4,33.3
				c0.5,11.1,0.5,22.2,0,33.3c0,2.4,1.2,3.6,3.6,3.6h34.9C44.8,70.2,46,69,46,66.7 M28,35.4h9.8c1.7,0,2.6,0.9,2.6,2.6
				c-0.4,8-0.4,16,0,24.1c0,1.7-0.9,2.6-2.6,2.6H28h-0.8h-15c-1.7,0-2.6-0.9-2.6-2.6C10,54,10,46,9.6,37.9c0-1.7,0.9-2.6,2.6-2.6
				h15.1L28,35.4L28,35.4z"/>
			<path style="fill:#F5F5F5;" d="M37.8,35.4H28h-0.8h-15c-1.7,0-2.6,0.9-2.6,2.6c0.4,8,0.4,16,0,24.1c0,1.7,0.9,2.6,2.6,2.6h15.1
				H28h9.8c1.7,0,2.6-0.9,2.6-2.6C40,54,40,46,40.4,37.9C40.4,36.2,39.6,35.4,37.8,35.4 M25,46.5h9v6.9h-9v4L15.1,50l9.8-7.4
				L25,46.5L25,46.5z"/>
			<path style="fill:#404040;" d="M34,46.5h-9v-4L15.1,50l9.8,7.4v-4h9L34,46.5L34,46.5z"/>
		</g>
	</g>
	<g>
		<path id="Layer1_0_1_STROKES" style="fill:none;stroke:#404040;stroke-width:5;stroke-linecap:round;stroke-linejoin:round;" d="
			M46,33.3c-0.5,11.1-0.5,22.2,0,33.3c0,2.4-1.2,3.6-3.6,3.6H7.6C5.2,70.2,4,69,4,66.7c0.5-11.1,0.5-22.2,0-33.3
			c0-2.4,1.2-3.6,3.6-3.6h34.9C44.8,29.8,46,31,46,33.3z"/>
	</g>
	<g>
		<path id="Layer1_0_2_STROKES" style="fill:none;stroke:#FFFFFF;stroke-width:4;stroke-linecap:round;stroke-linejoin:round;" d="
			M28,64.6h9.8c1.7,0,2.6-0.9,2.6-2.6c-0.4-8-0.4-16,0-24.1c0-1.7-0.9-2.6-2.6-2.6H28 M27.2,35.4h-15c-1.7,0-2.6,0.9-2.6,2.6
			c0.4,8,0.4,16,0,24.1c0,1.7,0.9,2.6,2.6,2.6h15.1"/>
	</g>
</g>
<g transform="matrix( 1, 0, 0, 1, 0,0) ">
	<g>
		<g id="Layer1_0_FILL_1_">
			<path style="fill:#D7D7D7;" d="M96,66.7c-0.5-11.1-0.5-22.2,0-33.3c0-2.4-1.2-3.6-3.6-3.6H57.6c-2.4,0-3.6,1.2-3.6,3.6
				c0.5,11.1,0.5,22.2,0,33.3c0,2.4,1.2,3.6,3.6,3.6h34.9C94.8,70.2,96,69,96,66.7 M78,35.4h9.8c1.7,0,2.6,0.9,2.6,2.6
				c-0.4,8-0.4,16,0,24.1c0,1.7-0.9,2.6-2.6,2.6H78h-0.8h-15c-1.7,0-2.6-0.9-2.6-2.6c0.5-8,0.5-16.1,0-24.1c0-1.7,0.9-2.6,2.6-2.6
				h15.1H78z"/>
			<path style="fill:#F5F5F5;" d="M87.8,35.4H78h-0.8h-15c-1.7,0-2.6,0.9-2.6,2.6c0.5,8,0.5,16.1,0,24.1c0,1.7,0.9,2.6,2.6,2.6h15.1
				H78h9.8c1.7,0,2.6-0.9,2.6-2.6C90,54,90,46,90.4,37.9C90.4,36.2,89.6,35.4,87.8,35.4 M75.6,46.5v-4l9.8,7.4l-9.8,7.4v-4h-9v-6.9
				L75.6,46.5L75.6,46.5z"/>
			<path style="fill:#404040;" d="M75.6,42.5v4h-9v6.9h9v4l9.8-7.4L75.6,42.5z"/>
		</g>
	</g>
	<g>
		
			<path id="Layer1_0_1_STROKES_1_" style="fill:none;stroke:#404040;stroke-width:5;stroke-linecap:round;stroke-linejoin:round;" d="
			M96,33.3c-0.5,11.1-0.5,22.2,0,33.3c0,2.4-1.2,3.6-3.6,3.6H57.6c-2.4,0-3.6-1.2-3.6-3.6c0.5-11.1,0.5-22.2,0-33.3
			c0-2.4,1.2-3.6,3.6-3.6h34.9C94.8,29.8,96,31,96,33.3z"/>
	</g>
	<g>
		
			<path id="Layer1_0_2_STROKES_1_" style="fill:none;stroke:#FFFFFF;stroke-width:4;stroke-linecap:round;stroke-linejoin:round;" d="
			M78,64.6h9.8c1.7,0,2.6-0.9,2.6-2.6c-0.4-8-0.4-16,0-24.1c0-1.7-0.9-2.6-2.6-2.6H78 M77.2,35.4h-15c-1.7,0-2.6,0.9-2.6,2.6
			c0.5,8,0.5,16.1,0,24.1c0,1.7,0.9,2.6,2.6,2.6h15.1"/>
	</g>
</g>
</svg>
