
<svg xmlns="http://www.w3.org/2000/svg" version="1.1" xmlns:xlink="http://www.w3.org/1999/xlink" x="0px" y="0px" viewBox="0 0 100 100">
<defs>
<g id="Layer1_0_FILL">
<path fill="#D7D7D7" stroke="none" d="
M 84.95 77.8
Q 83.7 50.5 84.95 23.15 84.95 17.3 79.1 17.3
L 21.9 17.3
Q 16.05 17.3 16.05 23.15 17.3 50.5 16.05 77.8 16.05 83.65 21.9 83.65
L 79.1 83.65
Q 84.95 83.65 84.95 77.8
M 54.15 26.45
L 55.4 26.45 71.55 26.45
Q 75.8 26.45 75.8 30.7 74.65 50.5 75.8 70.25 75.8 74.45 71.55 74.45
L 55.4 74.45 54.15 74.45 29.45 74.45
Q 25.2 74.45 25.2 70.25 26.35 50.5 25.2 30.7 25.2 26.45 29.45 26.45
L 54.15 26.45 Z"/>

<path fill="#F5F5F5" stroke="none" d="
M 55.4 26.45
L 54.15 26.45 29.45 26.45
Q 25.2 26.45 25.2 30.7 26.35 50.5 25.2 70.25 25.2 74.45 29.45 74.45
L 54.15 74.45 55.4 74.45 71.55 74.45
Q 75.8 74.45 75.8 70.25 74.65 50.5 75.8 30.7 75.8 26.45 71.55 26.45
L 55.4 26.45
M 45.15 39.1
Q 47.6 38.2 50.5 38.2 53.4 38.2 55.85 39.1 58.3 40 60.1 41.7 61.9 43.4 62.9 45.85 63.85 48.25 63.85 51.2 63.85 54.2 62.9 56.6 61.9 59 60.1 60.7 58.3 62.4 55.85 63.35 53.4 64.25 50.5 64.25 47.6 64.25 45.15 63.35 42.7 62.4 40.9 60.7 39.15 59 38.15 56.6 37.15 54.2 37.15 51.2 37.15 48.25 38.15 45.85 39.15 43.4 40.9 41.7 42.7 40 45.15 39.1
M 50.5 43.25
Q 48.75 43.25 47.35 43.85 45.95 44.45 44.9 45.5 43.9 46.55 43.35 48.05 42.8 49.5 42.8 51.2 42.8 52.95 43.35 54.4 43.9 55.85 44.9 56.95 45.95 58 47.35 58.6 48.75 59.2 50.5 59.2 52.25 59.2 53.65 58.6 55.1 58 56.1 56.95 57.1 55.85 57.65 54.4 58.2 52.95 58.2 51.2 58.2 49.5 57.65 48.05 57.1 46.55 56.1 45.5 55.1 44.45 53.65 43.85 52.25 43.25 50.5 43.25 Z"/>

<path fill="#404040" stroke="none" d="
M 50.5 38.2
Q 47.6 38.2 45.15 39.1 42.7 40 40.9 41.7 39.15 43.4 38.15 45.85 37.15 48.25 37.15 51.2 37.15 54.2 38.15 56.6 39.15 59 40.9 60.7 42.7 62.4 45.15 63.35 47.6 64.25 50.5 64.25 53.4 64.25 55.85 63.35 58.3 62.4 60.1 60.7 61.9 59 62.9 56.6 63.85 54.2 63.85 51.2 63.85 48.25 62.9 45.85 61.9 43.4 60.1 41.7 58.3 40 55.85 39.1 53.4 38.2 50.5 38.2
M 47.35 43.85
Q 48.75 43.25 50.5 43.25 52.25 43.25 53.65 43.85 55.1 44.45 56.1 45.5 57.1 46.55 57.65 48.05 58.2 49.5 58.2 51.2 58.2 52.95 57.65 54.4 57.1 55.85 56.1 56.95 55.1 58 53.65 58.6 52.25 59.2 50.5 59.2 48.75 59.2 47.35 58.6 45.95 58 44.9 56.95 43.9 55.85 43.35 54.4 42.8 52.95 42.8 51.2 42.8 49.5 43.35 48.05 43.9 46.55 44.9 45.5 45.95 44.45 47.35 43.85 Z"/>
</g>

<path id="Layer1_0_1_STROKES" stroke="#404040" stroke-width="5" stroke-linejoin="round" stroke-linecap="round" fill="none" d="
M 84.95 23.15
Q 83.7 50.5 84.95 77.8 84.95 83.65 79.1 83.65
L 21.9 83.65
Q 16.05 83.65 16.05 77.8 17.3 50.5 16.05 23.15 16.05 17.3 21.9 17.3
L 79.1 17.3
Q 84.95 17.3 84.95 23.15 Z"/>

<path id="Layer1_0_2_STROKES" stroke="#FFFFFF" stroke-width="4" stroke-linejoin="round" stroke-linecap="round" fill="none" d="
M 54.15 26.45
L 29.45 26.45
Q 25.2 26.45 25.2 30.7 26.35 50.5 25.2 70.25 25.2 74.45 29.45 74.45
L 54.15 74.45
M 55.4 74.45
L 71.55 74.45
Q 75.8 74.45 75.8 70.25 74.65 50.5 75.8 30.7 75.8 26.45 71.55 26.45
L 55.4 26.45"/>

</defs>

<g transform="matrix( 1, 0, 0, 1, 0,0) ">
<use xlink:href="#Layer1_0_FILL"/>

<use xlink:href="#Layer1_0_1_STROKES"/>

<use xlink:href="#Layer1_0_2_STROKES"/>
</g>

<g transform="matrix( 1, 0, 0, 1, -3.4,-28) ">
<clipPath id="Mask_Mask_1">
<rect x="0.85" y="-2" width="105.1" height="20.8" fill="#FFFFFF" stroke="none"/>
</clipPath>

<text clip-path="url(#Mask_Mask_1)" writing-mode="lr"><tspan x="2.9" y="13.6" baseline-shift="0%" kerning="auto" font-family="Arial_Regular" font-size="15" fill="#999999" xml:space="preserve">Light Keyboard</tspan></text>
</g>
</svg>
