<?xml version="1.0" encoding="utf-8"?>
<!-- Generator: Adobe Illustrator 24.1.2, SVG Export Plug-In . SVG Version: 6.00 Build 0)  -->
<svg version="1.1" id="Layer_1" xmlns="http://www.w3.org/2000/svg" xmlns:xlink="http://www.w3.org/1999/xlink" x="0px" y="0px"
	 viewBox="0 0 100 100" style="enable-background:new 0 0 100 100;" xml:space="preserve">
<g transform="matrix( 1, 0, 0, 1, 0,0) ">
	<g>
		<g id="Layer1_0_FILL">
			<path style="fill:#D7D7D7;" d="M71,40.9c-0.5-11.1-0.5-22.2,0-33.3C71,5.2,69.8,4,67.4,4H32.6C30.2,4,29,5.2,29,7.6
				c0.5,11.1,0.5,22.2,0,33.3c0,2.4,1.2,3.6,3.6,3.6h34.9C69.8,44.4,71,43.3,71,40.9 M52.2,9.6H53h9.8c1.7,0,2.6,0.9,2.6,2.6
				c-0.5,8-0.5,16.1,0,24.1c0,1.7-0.9,2.6-2.6,2.6H53h-0.8h-15c-1.7,0-2.6-0.9-2.6-2.6c0.5-8,0.5-16.1,0-24.1c0-1.7,0.9-2.6,2.6-2.6
				C37.2,9.6,52.2,9.6,52.2,9.6z"/>
			<path style="fill:#F5F5F5;" d="M53,9.6h-0.8h-15c-1.7,0-2.6,0.9-2.6,2.6c0.5,8,0.5,16.1,0,24.1c0,1.7,0.9,2.6,2.6,2.6h15.1H53
				h9.8c1.7,0,2.6-0.9,2.6-2.6c-0.5-8-0.5-16.1,0-24.1c0-1.7-0.9-2.6-2.6-2.6L53,9.6 M46.6,22.6c0.2,0.1,0.4,0.2,0.6,0.4
				c0.2,0.2,0.3,0.4,0.3,0.7c0.1,0.3,0.1,0.6,0.1,1V27h-1.3v-0.5c-0.2,0.2-0.4,0.4-0.6,0.5c-0.3,0.1-0.5,0.2-0.8,0.2
				c-0.2,0-0.4,0-0.6-0.1c-0.2-0.1-0.4-0.2-0.5-0.3c-0.1-0.1-0.3-0.2-0.3-0.4c-0.1-0.2-0.1-0.4-0.1-0.6c0-0.3,0-0.5,0.1-0.7
				s0.2-0.3,0.4-0.4s0.3-0.2,0.5-0.3c0.2-0.1,0.4-0.1,0.6-0.2c0.2,0,0.4,0,0.7,0c0.2,0,0.4,0,0.6,0c0-0.2-0.1-0.4-0.2-0.6
				c-0.2-0.1-0.4-0.2-0.6-0.2s-0.4,0.1-0.6,0.2c-0.2,0.1-0.3,0.2-0.5,0.4l-0.7-0.8c0.3-0.2,0.6-0.4,0.9-0.5c0.3-0.1,0.7-0.2,1.1-0.2
				C46,22.4,46.4,22.5,46.6,22.6 M48.9,23.1c0.2-0.2,0.4-0.4,0.6-0.5c0.3-0.1,0.5-0.2,0.9-0.2c0.2,0,0.4,0,0.5,0.1
				c0.2,0,0.3,0.1,0.4,0.2c0.1,0.1,0.2,0.1,0.3,0.2s0.2,0.1,0.2,0.2v-0.6h1.3v4.1c0,0.8-0.2,1.5-0.6,1.9c-0.4,0.4-1.1,0.6-1.9,0.6
				c-0.4,0-0.8,0-1.2-0.1s-0.7-0.3-1.1-0.5l0.8-1.1c0.2,0.2,0.4,0.3,0.7,0.4c0.2,0.1,0.5,0.2,0.8,0.2c0.4,0,0.7-0.1,0.9-0.3
				c0.2-0.2,0.3-0.5,0.3-0.8v-0.4l0,0c-0.1,0.2-0.3,0.3-0.6,0.4C50.9,27,50.7,27,50.5,27c-0.3,0-0.6-0.1-0.9-0.2
				c-0.3-0.1-0.5-0.3-0.7-0.5s-0.3-0.4-0.4-0.7c-0.1-0.3-0.2-0.6-0.2-0.9s0-0.6,0.1-0.9C48.6,23.6,48.7,23.3,48.9,23.1 M54.8,23
				c0.2-0.2,0.5-0.4,0.8-0.5s0.6-0.2,0.9-0.2c0.3,0,0.6,0.1,0.9,0.2c0.2,0.1,0.5,0.3,0.6,0.5s0.3,0.5,0.4,0.8
				c0.1,0.3,0.2,0.6,0.2,0.9v0.4h-3.2c0.1,0.3,0.2,0.5,0.4,0.6C56,26,56.3,26,56.5,26s0.4-0.1,0.6-0.2c0.2-0.1,0.3-0.2,0.4-0.4
				l1,0.7c-0.2,0.3-0.5,0.5-0.8,0.6c-0.3,0.2-0.7,0.2-1.1,0.2c-0.3,0-0.6-0.1-0.9-0.2c-0.3-0.1-0.6-0.3-0.8-0.5s-0.4-0.4-0.5-0.7
				c-0.1-0.3-0.2-0.6-0.2-1c0-0.3,0.1-0.7,0.2-0.9C54.4,23.5,54.6,23.2,54.8,23 M38,20.5h2.4c0.3,0,0.7,0,1,0.1s0.5,0.2,0.8,0.3
				c0.2,0.1,0.4,0.3,0.5,0.6c0.1,0.2,0.2,0.6,0.2,0.9s-0.1,0.7-0.2,0.9c-0.1,0.3-0.3,0.5-0.5,0.6c-0.2,0.2-0.5,0.3-0.8,0.3
				c-0.3,0.1-0.6,0.1-0.9,0.1h-1.1V27H38V20.5 M38,29h1.4v3.9c0,0.2,0,0.4,0.1,0.6c0.1,0.2,0.1,0.3,0.2,0.4c0.1,0.1,0.3,0.2,0.4,0.3
				c0.2,0.1,0.3,0.1,0.5,0.1s0.4,0,0.5-0.1c0.2-0.1,0.3-0.2,0.4-0.3c0.1-0.1,0.2-0.3,0.3-0.4c0.1-0.2,0.1-0.4,0.1-0.6V29h1.4v4
				c0,0.4-0.1,0.7-0.2,1.1c-0.1,0.3-0.3,0.6-0.5,0.9c-0.2,0.2-0.5,0.4-0.9,0.5c-0.3,0.1-0.7,0.2-1.2,0.2c-0.4,0-0.8-0.1-1.2-0.2
				c-0.3-0.1-0.6-0.3-0.9-0.5c-0.2-0.2-0.4-0.5-0.5-0.9c-0.1-0.3-0.2-0.7-0.2-1.1v-4 M46.5,31.1c0.1-0.1,0.3-0.1,0.4-0.2
				c0.1,0,0.3-0.1,0.5-0.1c0.3,0,0.6,0.1,0.9,0.2c0.3,0.1,0.5,0.3,0.7,0.5s0.3,0.4,0.4,0.7c0.1,0.3,0.2,0.6,0.2,0.9
				c0,0.3,0,0.6-0.1,0.9c-0.1,0.3-0.2,0.5-0.4,0.8c-0.2,0.2-0.4,0.4-0.6,0.5c-0.3,0.1-0.5,0.2-0.9,0.2c-0.3,0-0.5-0.1-0.8-0.2
				c-0.3-0.1-0.5-0.2-0.6-0.5l0,0v2.6h-1.4V31H46v0.6c0.1-0.1,0.1-0.2,0.2-0.2S46.4,31.2,46.5,31.1 M47.9,34
				c0.2-0.2,0.3-0.5,0.3-0.8s-0.1-0.6-0.3-0.8s-0.4-0.3-0.8-0.3c-0.4,0-0.6,0.1-0.8,0.3S46,32.9,46,33.2s0.1,0.6,0.3,0.8
				s0.5,0.3,0.8,0.3S47.7,34.2,47.9,34 M39.4,21.7v1.6h1c0.1,0,0.2,0,0.4,0c0.1,0,0.2-0.1,0.3-0.2c0.1,0,0.2-0.1,0.2-0.2
				c0.1-0.1,0.1-0.2,0.1-0.4c0-0.2,0-0.3-0.1-0.4s-0.2-0.2-0.3-0.2s-0.3-0.1-0.4-0.1s-0.3,0-0.4,0L39.4,21.7 M56.5,23.4
				c-0.1,0-0.3,0-0.4,0.1c-0.1,0.1-0.2,0.1-0.3,0.2s-0.1,0.1-0.2,0.2c0,0.1-0.1,0.2-0.1,0.3h1.8c0-0.2-0.1-0.4-0.2-0.6
				C56.9,23.5,56.7,23.4,56.5,23.4 M51.9,24.7c0-0.1,0-0.3-0.1-0.4s-0.1-0.3-0.2-0.4c-0.1-0.1-0.2-0.2-0.3-0.2
				c-0.1-0.1-0.3-0.1-0.4-0.1c-0.2,0-0.3,0-0.5,0.1c-0.1,0.1-0.2,0.1-0.3,0.2s-0.2,0.2-0.2,0.4c0,0.1-0.1,0.3-0.1,0.4s0,0.3,0.1,0.4
				s0.1,0.2,0.2,0.3s0.2,0.2,0.3,0.2c0.1,0.1,0.3,0.1,0.5,0.1c0.1,0,0.3,0,0.4-0.1c0.1-0.1,0.2-0.1,0.3-0.2s0.2-0.2,0.2-0.3
				C51.9,25,51.9,24.8,51.9,24.7 M46.4,25H46c-0.1,0-0.2,0-0.4,0c-0.1,0-0.3,0-0.4,0.1c-0.1,0-0.3,0.1-0.4,0.2
				c-0.1,0.1-0.2,0.2-0.2,0.3c0,0.2,0.1,0.3,0.2,0.4s0.3,0.1,0.4,0.1c0.1,0,0.3,0,0.4-0.1c0.1,0,0.2-0.1,0.3-0.2s0.2-0.1,0.2-0.2
				s0.1-0.2,0.1-0.4V25H46.4z"/>
			<path style="fill:#404040;" d="M46.9,30.9c-0.1,0-0.3,0.1-0.4,0.2c-0.1,0.1-0.2,0.1-0.3,0.2S46,31.5,46,31.5V31h-1.3v6.5h1.4
				v-2.6l0,0c0.1,0.2,0.3,0.4,0.6,0.5c0.2,0.1,0.5,0.2,0.8,0.2s0.6-0.1,0.9-0.2c0.2-0.1,0.5-0.3,0.6-0.5c0.2-0.2,0.3-0.5,0.4-0.8
				c0.1-0.3,0.1-0.6,0.1-0.9c0-0.3-0.1-0.7-0.2-0.9c-0.1-0.3-0.2-0.5-0.4-0.7s-0.4-0.4-0.7-0.5s-0.6-0.2-0.9-0.2
				C47.2,30.9,47.1,30.9,46.9,30.9 M48.2,33.2c0,0.3-0.1,0.6-0.3,0.8s-0.4,0.3-0.8,0.3c-0.4,0-0.6-0.1-0.8-0.3S46,33.5,46,33.2
				s0.1-0.6,0.3-0.8s0.5-0.3,0.8-0.3s0.6,0.1,0.8,0.3C48.1,32.6,48.2,32.9,48.2,33.2 M39.4,29H38v4c0,0.4,0.1,0.7,0.2,1.1
				c0.1,0.3,0.3,0.6,0.5,0.9c0.2,0.2,0.5,0.4,0.9,0.5c0.3,0.1,0.7,0.2,1.2,0.2c0.4,0,0.8-0.1,1.2-0.2c0.3-0.1,0.6-0.3,0.9-0.5
				c0.2-0.2,0.4-0.5,0.5-0.9c0.1-0.3,0.2-0.7,0.2-1.1v-4H42v3.9c0,0.2,0,0.4-0.1,0.6c-0.1,0.2-0.2,0.3-0.3,0.4
				c-0.1,0.1-0.3,0.2-0.4,0.3c-0.1,0.1-0.3,0.1-0.5,0.1s-0.4,0-0.5-0.1c-0.2-0.1-0.3-0.2-0.4-0.3c-0.1-0.1-0.2-0.3-0.2-0.4
				c-0.1-0.2-0.1-0.4-0.1-0.6L39.4,29 M40.4,20.5H38V27h1.4v-2.5h1.1c0.3,0,0.6,0,0.9-0.1c0.3-0.1,0.5-0.2,0.8-0.3
				c0.2-0.1,0.4-0.3,0.5-0.6c0.1-0.2,0.2-0.6,0.2-0.9s-0.1-0.7-0.2-0.9c-0.1-0.3-0.3-0.5-0.5-0.6s-0.5-0.2-0.8-0.3
				C41.1,20.5,40.7,20.5,40.4,20.5 M39.4,23.2v-1.6h0.7c0.1,0,0.3,0,0.4,0s0.3,0.1,0.4,0.1c0.1,0.1,0.2,0.1,0.3,0.2s0.1,0.2,0.1,0.4
				c0,0.2,0,0.3-0.1,0.4s-0.1,0.2-0.2,0.2c-0.1,0.1-0.2,0.1-0.3,0.2c-0.1,0-0.2,0-0.4,0L39.4,23.2 M55.6,22.6
				c-0.3,0.1-0.6,0.3-0.8,0.5s-0.4,0.5-0.5,0.8s-0.2,0.6-0.2,0.9s0.1,0.7,0.2,1c0.1,0.3,0.3,0.5,0.5,0.7s0.5,0.4,0.8,0.5
				s0.6,0.2,0.9,0.2c0.4,0,0.7-0.1,1.1-0.2c0.3-0.1,0.6-0.4,0.8-0.6l-1-0.7c-0.1,0.2-0.2,0.3-0.4,0.4C56.9,26,56.7,26,56.5,26
				c-0.3,0-0.5-0.1-0.7-0.2c-0.2-0.2-0.3-0.4-0.4-0.6h3.2v-0.4c0-0.3-0.1-0.7-0.2-0.9c-0.1-0.3-0.2-0.6-0.4-0.8s-0.4-0.4-0.6-0.5
				c-0.3-0.1-0.6-0.2-0.9-0.2C56.3,22.4,55.9,22.5,55.6,22.6 M56.1,23.4c0.1,0,0.3-0.1,0.4-0.1c0.2,0,0.4,0.1,0.6,0.2
				c0.2,0.2,0.2,0.4,0.2,0.6h-1.8c0-0.1,0.1-0.2,0.1-0.3c0-0.1,0.1-0.2,0.2-0.2C55.8,23.6,55.9,23.5,56.1,23.4 M49.5,22.6
				c-0.2,0.1-0.5,0.3-0.6,0.5c-0.2,0.2-0.3,0.4-0.4,0.7c-0.1,0.3-0.1,0.6-0.1,0.9s0.1,0.7,0.2,0.9c0.1,0.3,0.2,0.5,0.4,0.7
				s0.4,0.4,0.7,0.5s0.6,0.2,0.9,0.2c0.2,0,0.4-0.1,0.7-0.2c0.2-0.1,0.4-0.2,0.6-0.4l0,0v0.4c0,0.3-0.1,0.6-0.3,0.8
				c-0.3,0.2-0.6,0.4-1,0.4c-0.3,0-0.5-0.1-0.8-0.2c-0.2-0.1-0.4-0.2-0.7-0.4l-0.8,1.1c0.3,0.2,0.7,0.4,1.1,0.5
				c0.4,0.1,0.8,0.1,1.2,0.1c0.9,0,1.5-0.2,1.9-0.6s0.6-1.1,0.6-1.9v-4.1h-1.3v0.6c-0.1-0.1-0.1-0.2-0.2-0.2
				c-0.1-0.1-0.2-0.2-0.3-0.2c-0.1-0.1-0.3-0.1-0.4-0.2c-0.2,0-0.3-0.1-0.5-0.1C50.1,22.4,49.8,22.5,49.5,22.6 M51.8,24.3
				c0,0.1,0.1,0.3,0.1,0.4s0,0.3-0.1,0.4s-0.1,0.2-0.2,0.3c-0.1,0.1-0.2,0.2-0.3,0.2c-0.1,0.1-0.3,0.1-0.4,0.1c-0.2,0-0.3,0-0.5-0.1
				c-0.1-0.1-0.2-0.1-0.3-0.2s-0.2-0.2-0.2-0.3c0-0.1-0.1-0.3-0.1-0.4s0-0.3,0.1-0.4s0.1-0.3,0.2-0.4c0.1-0.1,0.2-0.2,0.3-0.2
				c0.1-0.1,0.3-0.1,0.5-0.1c0.1,0,0.3,0,0.4,0.1c0.1,0.1,0.2,0.1,0.3,0.2C51.7,24,51.8,24.2,51.8,24.3 M47.2,23
				c-0.2-0.2-0.4-0.3-0.6-0.4c-0.3-0.1-0.6-0.2-1-0.2s-0.7,0.1-1.1,0.2c-0.3,0.1-0.6,0.3-0.9,0.5l0.7,0.8c0.1-0.2,0.3-0.3,0.5-0.4
				s0.4-0.2,0.6-0.2s0.4,0.1,0.6,0.2c0.2,0.1,0.2,0.3,0.2,0.6c-0.2,0-0.4,0-0.6,0c-0.2,0-0.4,0-0.7,0c-0.2,0-0.4,0.1-0.6,0.2
				c-0.2,0.1-0.4,0.2-0.5,0.3c-0.2,0.1-0.3,0.3-0.4,0.4c-0.1,0.2-0.1,0.4-0.1,0.7c0,0.2,0,0.4,0.1,0.6s0.2,0.3,0.3,0.4
				s0.3,0.2,0.5,0.3c0.2,0.1,0.4,0.1,0.6,0.1c0.3,0,0.5-0.1,0.8-0.2c0.2-0.1,0.4-0.3,0.6-0.5V27h1.3v-2.3c0-0.4,0-0.7-0.1-1
				C47.5,23.4,47.4,23.2,47.2,23 M46,25h0.3v0.3c0,0.1,0,0.3-0.1,0.4s-0.1,0.2-0.2,0.2c0,0.1-0.1,0.1-0.3,0.2
				c-0.1,0-0.3,0.1-0.4,0.1c-0.1,0-0.3,0-0.4-0.1s-0.2-0.2-0.2-0.4c0-0.1,0.1-0.3,0.2-0.3c0.1-0.1,0.2-0.2,0.4-0.2
				c0.1,0,0.3-0.1,0.4-0.1C45.8,25,45.9,25,46,25z"/>
		</g>
	</g>
	<g>
		<path id="Layer1_0_1_STROKES" style="fill:none;stroke:#404040;stroke-width:5;stroke-linecap:round;stroke-linejoin:round;" d="
			M71,7.6c-0.5,11.1-0.5,22.2,0,33.3c0,2.4-1.2,3.6-3.6,3.6H32.6c-2.4,0-3.6-1.2-3.6-3.6c0.5-11.1,0.5-22.2,0-33.3
			C29,5.2,30.2,4,32.6,4h34.9C69.8,4,71,5.2,71,7.6z"/>
	</g>
	<g>
		<path id="Layer1_0_2_STROKES" style="fill:none;stroke:#FFFFFF;stroke-width:4;stroke-linecap:round;stroke-linejoin:round;" d="
			M52.2,9.6h-15c-1.7,0-2.6,0.9-2.6,2.6c0.5,8,0.5,16.1,0,24.1c0,1.7,0.9,2.6,2.6,2.6h15.1 M53,38.8h9.8c1.7,0,2.6-0.9,2.6-2.6
			c-0.5-8-0.5-16.1,0-24.1c0-1.7-0.9-2.6-2.6-2.6H53"/>
	</g>
</g>
<g transform="matrix( 1, 0, 0, 1, 0,0) ">
	<g>
		<g id="Layer1_0_FILL_1_">
			<path style="fill:#D7D7D7;" d="M71,92.4c-0.5-11.1-0.5-22.2,0-33.3c0-2.4-1.2-3.6-3.6-3.6H32.6c-2.4,0-3.6,1.2-3.6,3.6
				c0.5,11.1,0.5,22.2,0,33.3c0,2.4,1.2,3.6,3.6,3.6h34.9C69.8,96,71,94.8,71,92.4 M52.2,61.1H53h9.8c1.7,0,2.6,0.9,2.6,2.6
				c-0.5,8-0.5,16.1,0,24.1c0,1.7-0.9,2.6-2.6,2.6H53h-0.8h-15c-1.7,0-2.6-0.9-2.6-2.6c0.5-8,0.5-16.1,0-24.1c0-1.7,0.9-2.6,2.6-2.6
				H52.2z"/>
			<path style="fill:#F5F5F5;" d="M53,61.1h-0.8h-15c-1.7,0-2.6,0.9-2.6,2.6c0.5,8,0.5,16.1,0,24.1c0,1.7,0.9,2.6,2.6,2.6h15.1H53
				h9.8c1.7,0,2.6-0.9,2.6-2.6c-0.5-8-0.5-16.1,0-24.1c0-1.7-0.9-2.6-2.6-2.6H53 M46.6,74.1c0.2,0.1,0.4,0.2,0.6,0.4
				c0.2,0.2,0.3,0.4,0.3,0.7s0.1,0.6,0.1,1v2.3h-1.3V78c-0.2,0.2-0.4,0.4-0.6,0.5c-0.3,0.1-0.5,0.2-0.8,0.2c-0.2,0-0.4,0-0.6-0.1
				c-0.2-0.1-0.4-0.2-0.5-0.3c-0.1-0.1-0.3-0.2-0.3-0.4c-0.1-0.2-0.1-0.4-0.1-0.6c0-0.3,0-0.5,0.1-0.7s0.2-0.3,0.4-0.4
				s0.3-0.2,0.5-0.3c0.2-0.1,0.4-0.1,0.6-0.2c0.2,0,0.4,0,0.7,0c0.2,0,0.4,0,0.6,0c0-0.2-0.1-0.4-0.2-0.6c-0.2-0.1-0.4-0.2-0.6-0.2
				s-0.4,0.1-0.6,0.2c-0.2,0.1-0.3,0.2-0.5,0.4l-0.7-0.8c0.3-0.2,0.6-0.4,0.9-0.5c0.3-0.1,0.7-0.2,1.1-0.2C46,74,46.4,74,46.6,74.1
				 M48.9,74.7c0.2-0.2,0.4-0.4,0.6-0.5c0.3-0.1,0.5-0.2,0.9-0.2c0.2,0,0.4,0,0.5,0.1c0.2,0,0.3,0.1,0.4,0.2
				c0.1,0.1,0.2,0.1,0.3,0.2s0.2,0.1,0.2,0.2v-0.6h1.3v4.1c0,0.8-0.2,1.5-0.6,1.9c-0.4,0.4-1.1,0.6-1.9,0.6c-0.4,0-0.8,0-1.2-0.1
				s-0.7-0.3-1.1-0.5l0.8-1.1c0.2,0.2,0.4,0.3,0.7,0.4c0.2,0.1,0.5,0.2,0.8,0.2c0.4,0,0.7-0.1,0.9-0.3c0.2-0.2,0.3-0.5,0.3-0.8V78
				l0,0c-0.1,0.2-0.3,0.3-0.6,0.4c-0.2,0.1-0.5,0.2-0.7,0.2c-0.3,0-0.6-0.1-0.9-0.2c-0.3-0.1-0.5-0.3-0.7-0.5s-0.3-0.4-0.4-0.7
				s-0.2-0.6-0.2-0.9s0-0.6,0.1-0.9C48.6,75.1,48.7,74.9,48.9,74.7 M54.8,74.6c0.2-0.2,0.5-0.4,0.8-0.5s0.6-0.2,0.9-0.2
				c0.3,0,0.6,0.1,0.9,0.2c0.2,0.1,0.5,0.3,0.6,0.5s0.3,0.5,0.4,0.8c0.1,0.3,0.2,0.6,0.2,0.9v0.4h-3.2c0.1,0.3,0.2,0.5,0.4,0.6
				c0.2,0.2,0.4,0.2,0.7,0.2c0.2,0,0.4-0.1,0.6-0.2c0.2-0.1,0.3-0.2,0.4-0.4l1,0.7c-0.2,0.3-0.5,0.5-0.8,0.6
				c-0.3,0.2-0.7,0.2-1.1,0.2c-0.3,0-0.6-0.1-0.9-0.2c-0.3-0.1-0.6-0.3-0.8-0.5s-0.4-0.4-0.5-0.7c-0.1-0.3-0.2-0.6-0.2-1
				s0.1-0.7,0.2-0.9C54.4,75,54.6,74.8,54.8,74.6 M38,72h2.4c0.3,0,0.7,0,1,0.1s0.5,0.2,0.8,0.3c0.2,0.1,0.4,0.3,0.5,0.6
				c0.1,0.2,0.2,0.6,0.2,0.9c0,0.4-0.1,0.7-0.2,0.9c-0.1,0.3-0.3,0.5-0.5,0.6c-0.2,0.2-0.5,0.3-0.8,0.3c-0.3,0.1-0.6,0.1-0.9,0.1
				h-1.1v2.5H38V72 M38,80.5h2.1c0.5,0,1,0.1,1.5,0.2s0.9,0.3,1.2,0.6c0.3,0.3,0.6,0.6,0.8,1s0.3,0.9,0.3,1.5c0,0.5-0.1,1-0.3,1.4
				s-0.5,0.7-0.8,1s-0.7,0.5-1.2,0.6c-0.4,0.1-0.9,0.2-1.4,0.2H38V80.5 M58,82.5h1.3v0.6l0,0c0-0.1,0.1-0.2,0.2-0.2
				c0.1-0.1,0.2-0.2,0.3-0.2c0.1-0.1,0.2-0.1,0.4-0.2c0.1,0,0.3-0.1,0.5-0.1c0.3,0,0.6,0.1,0.9,0.2c0.2,0.1,0.4,0.2,0.5,0.4
				c0.1,0.2,0.2,0.4,0.2,0.7c0,0.3,0.1,0.5,0.1,0.9V87H61v-2.2c0-0.1,0-0.3,0-0.4s-0.1-0.2-0.1-0.4c0-0.1-0.1-0.2-0.2-0.3
				c-0.1-0.1-0.2-0.1-0.4-0.1s-0.3,0-0.4,0.1c-0.1,0.1-0.2,0.2-0.2,0.3c-0.1,0.1-0.1,0.2-0.1,0.4c0,0.1,0,0.3,0,0.4V87H58V82.5
				 M53,82.5h1.5l0.8,2.8l0,0l0.8-2.8h1.4L56,87h-1.4l-0.9-3l0,0l-0.8,3h-1.4l-1.6-4.4h1.4l0.9,2.8l0,0L53,82.5 M47.1,82.4
				c0.3,0,0.6,0.1,0.9,0.2s0.6,0.3,0.8,0.5s0.4,0.5,0.5,0.8s0.2,0.6,0.2,0.9s-0.1,0.7-0.2,1c-0.1,0.3-0.3,0.5-0.5,0.7
				S48.3,86.9,48,87s-0.6,0.2-0.9,0.2c-0.3,0-0.7-0.1-1-0.2s-0.6-0.3-0.8-0.5s-0.4-0.4-0.5-0.7c-0.1-0.3-0.2-0.6-0.2-1
				c0-0.3,0.1-0.7,0.2-0.9c0.1-0.3,0.3-0.6,0.5-0.8s0.5-0.4,0.8-0.5C46.4,82.5,46.8,82.4,47.1,82.4 M47.9,85.6
				c0.2-0.2,0.3-0.5,0.3-0.8s-0.1-0.6-0.3-0.8c-0.2-0.2-0.4-0.3-0.8-0.3c-0.4,0-0.6,0.1-0.8,0.3c-0.2,0.2-0.3,0.5-0.3,0.8
				s0.1,0.6,0.3,0.8s0.5,0.3,0.8,0.3S47.7,85.8,47.9,85.6 M40.3,81.8h-0.9v3.8h0.8c0.3,0,0.6,0,0.9-0.1c0.3-0.1,0.5-0.2,0.7-0.3
				c0.2-0.2,0.4-0.4,0.5-0.6c0.1-0.3,0.2-0.6,0.2-0.9s-0.1-0.6-0.2-0.8c-0.1-0.2-0.3-0.4-0.5-0.6S41.4,82,41.1,82
				C40.9,81.9,40.6,81.8,40.3,81.8 M39.4,73.2v1.6h1c0.1,0,0.2,0,0.4,0c0.1,0,0.2-0.1,0.3-0.2c0.1,0,0.2-0.1,0.2-0.2
				c0.1-0.1,0.1-0.2,0.1-0.4c0-0.2,0-0.3-0.1-0.4s-0.2-0.2-0.3-0.2s-0.3-0.1-0.4-0.1c-0.1,0-0.3,0-0.4,0h-0.8 M56.5,74.9
				c-0.1,0-0.3,0-0.4,0.1c-0.1,0.1-0.2,0.1-0.3,0.2s-0.1,0.1-0.2,0.2c0,0.1-0.1,0.2-0.1,0.3h1.8c0-0.2-0.1-0.4-0.2-0.6
				C56.9,75,56.7,74.9,56.5,74.9 M51.9,76.2c0-0.1,0-0.3-0.1-0.4s-0.1-0.3-0.2-0.4c-0.1-0.1-0.2-0.2-0.3-0.2
				c-0.1-0.1-0.3-0.1-0.4-0.1c-0.2,0-0.3,0-0.5,0.1c-0.1,0.1-0.2,0.1-0.3,0.2s-0.2,0.2-0.2,0.4c0,0.1-0.1,0.3-0.1,0.4s0,0.3,0.1,0.4
				s0.1,0.2,0.2,0.3c0.1,0.1,0.2,0.2,0.3,0.2c0.1,0.1,0.3,0.1,0.5,0.1c0.1,0,0.3,0,0.4-0.1c0.1-0.1,0.2-0.1,0.3-0.2s0.2-0.2,0.2-0.3
				C51.9,76.5,51.9,76.4,51.9,76.2 M46.4,76.6H46c-0.1,0-0.2,0-0.4,0c-0.1,0-0.3,0-0.4,0.1c-0.1,0-0.3,0.1-0.4,0.2
				c-0.1,0.1-0.2,0.2-0.2,0.3c0,0.2,0.1,0.3,0.2,0.4s0.3,0.1,0.4,0.1c0.1,0,0.3,0,0.4-0.1c0.1,0,0.2-0.1,0.3-0.2s0.2-0.1,0.2-0.2
				s0.1-0.2,0.1-0.4v-0.2H46.4z"/>
			<path style="fill:#404040;" d="M48,82.6c-0.3-0.1-0.6-0.2-0.9-0.2c-0.3,0-0.7,0.1-1,0.2s-0.6,0.3-0.8,0.5s-0.4,0.5-0.5,0.8
				s-0.2,0.6-0.2,0.9s0.1,0.7,0.2,1c0.1,0.3,0.3,0.5,0.5,0.7s0.5,0.4,0.8,0.5s0.6,0.2,1,0.2c0.3,0,0.6-0.1,0.9-0.2
				c0.3-0.1,0.6-0.3,0.8-0.5s0.4-0.4,0.5-0.7c0.1-0.3,0.2-0.6,0.2-1c0-0.3-0.1-0.7-0.2-0.9c-0.1-0.3-0.3-0.6-0.5-0.8
				S48.4,82.7,48,82.6 M48.2,84.8c0,0.3-0.1,0.6-0.3,0.8c-0.2,0.2-0.4,0.3-0.8,0.3c-0.4,0-0.6-0.1-0.8-0.3S46,85.1,46,84.8
				c0-0.3,0.1-0.6,0.3-0.8c0.2-0.2,0.5-0.3,0.8-0.3s0.6,0.1,0.8,0.3C48.1,84.2,48.2,84.4,48.2,84.8 M54.5,82.5H53l-0.8,2.8l0,0
				l-0.9-2.8h-1.4l1.6,4.4h1.4l0.8-3l0,0l0.9,3H56l1.6-4.4h-1.4l-0.8,2.8l0,0L54.5,82.5 M59.3,82.5H58V87h1.4v-2.2
				c0-0.1,0-0.3,0-0.4s0.1-0.3,0.1-0.4s0.1-0.2,0.2-0.3c0.1-0.1,0.2-0.1,0.4-0.1s0.3,0,0.4,0.1c0.1,0.1,0.2,0.2,0.2,0.3
				c0,0.1,0.1,0.2,0.1,0.4c0,0.1,0,0.3,0,0.4V87h1.4v-2.4c0-0.3,0-0.6-0.1-0.9c0-0.2-0.1-0.5-0.2-0.7c-0.1-0.2-0.3-0.3-0.5-0.4
				s-0.5-0.2-0.9-0.2c-0.2,0-0.3,0-0.5,0.1c-0.1,0-0.3,0.1-0.4,0.2c-0.1,0.1-0.2,0.1-0.3,0.2s-0.1,0.2-0.2,0.2l0,0v-0.6 M40.2,80.5
				H38V87h2.3c0.5,0,0.9-0.1,1.4-0.2c0.4-0.1,0.8-0.3,1.2-0.6c0.3-0.3,0.6-0.6,0.8-1s0.3-0.9,0.3-1.4c0-0.6-0.1-1.1-0.3-1.5
				s-0.5-0.7-0.8-1s-0.8-0.5-1.2-0.6C41.2,80.6,40.7,80.5,40.2,80.5 M39.4,81.8h0.9c0.3,0,0.6,0,0.9,0.1c0.3,0.1,0.5,0.2,0.7,0.3
				c0.2,0.1,0.4,0.3,0.5,0.6c0.1,0.2,0.2,0.5,0.2,0.8c0,0.4-0.1,0.7-0.2,0.9c-0.1,0.2-0.3,0.4-0.5,0.6c-0.2,0.1-0.4,0.2-0.7,0.3
				c-0.3,0.1-0.6,0.1-0.9,0.1h-0.8v-3.7 M40.4,72H38v6.5h1.4V76h1.1c0.3,0,0.6,0,0.9-0.1c0.3-0.1,0.5-0.2,0.8-0.3
				c0.2-0.1,0.4-0.3,0.5-0.6c0.1-0.2,0.2-0.6,0.2-0.9c0-0.4-0.1-0.7-0.2-0.9c-0.1-0.3-0.3-0.5-0.5-0.6s-0.5-0.2-0.8-0.3
				C41.1,72.1,40.7,72,40.4,72 M39.4,74.8v-1.6h0.7c0.1,0,0.3,0,0.4,0c0.1,0,0.3,0.1,0.4,0.1c0.1,0.1,0.2,0.1,0.3,0.2
				s0.1,0.2,0.1,0.4c0,0.2,0,0.3-0.1,0.4s-0.1,0.2-0.2,0.2c-0.1,0.1-0.2,0.1-0.3,0.2c-0.1,0-0.2,0-0.4,0h-0.9 M55.6,74.1
				c-0.3,0.1-0.6,0.3-0.8,0.5s-0.4,0.5-0.5,0.8s-0.2,0.6-0.2,0.9s0.1,0.7,0.2,1c0.1,0.3,0.3,0.5,0.5,0.7s0.5,0.4,0.8,0.5
				s0.6,0.2,0.9,0.2c0.4,0,0.7-0.1,1.1-0.2c0.3-0.1,0.6-0.4,0.8-0.6l-1-0.7c-0.1,0.2-0.2,0.3-0.4,0.4s-0.4,0.2-0.6,0.2
				c-0.3,0-0.5-0.1-0.7-0.2c-0.2-0.2-0.3-0.4-0.4-0.6h3.2v-0.4c0-0.3-0.1-0.7-0.2-0.9c-0.1-0.3-0.2-0.6-0.4-0.8s-0.4-0.4-0.6-0.5
				C57.2,74,56.9,74,56.6,74C56.3,74,55.9,74,55.6,74.1 M56.1,75c0.1,0,0.3-0.1,0.4-0.1c0.2,0,0.4,0.1,0.6,0.2
				c0.2,0.2,0.2,0.4,0.2,0.6h-1.8c0-0.1,0.1-0.2,0.1-0.3c0-0.1,0.1-0.2,0.2-0.2C55.8,75.1,55.9,75.1,56.1,75 M49.5,74.1
				c-0.2,0.1-0.5,0.3-0.6,0.5c-0.2,0.2-0.3,0.4-0.4,0.7c-0.1,0.3-0.1,0.6-0.1,0.9s0.1,0.7,0.2,0.9s0.2,0.5,0.4,0.7s0.4,0.4,0.7,0.5
				s0.6,0.2,0.9,0.2c0.2,0,0.4-0.1,0.7-0.2c0.2-0.1,0.4-0.2,0.6-0.4l0,0v0.4c0,0.3-0.1,0.6-0.3,0.8c-0.2,0.2-0.5,0.3-0.9,0.3
				c-0.3,0-0.5-0.1-0.8-0.2c-0.2-0.1-0.4-0.2-0.7-0.4l-0.8,1.1c0.3,0.2,0.7,0.4,1.1,0.5c0.4,0.1,0.8,0.1,1.2,0.1
				c0.9,0,1.5-0.2,1.9-0.6s0.6-1.1,0.6-1.9v-4.1h-1.3v0.6c-0.1-0.1-0.1-0.2-0.2-0.2c-0.1-0.1-0.2-0.2-0.3-0.2
				C51.3,74,51.1,74,51,73.9c-0.2,0-0.3-0.1-0.5-0.1C50.1,74,49.8,74,49.5,74.1 M51.8,75.9c0,0.1,0.1,0.3,0.1,0.4s0,0.3-0.1,0.4
				s-0.1,0.2-0.2,0.3c-0.1,0.1-0.2,0.2-0.3,0.2c-0.1,0.1-0.3,0.1-0.4,0.1c-0.2,0-0.3,0-0.5-0.1c-0.1-0.1-0.2-0.1-0.3-0.2
				s-0.2-0.2-0.2-0.3c0-0.1-0.1-0.3-0.1-0.4s0-0.3,0.1-0.4s0.1-0.3,0.2-0.4c0.1-0.1,0.2-0.2,0.3-0.2c0.1-0.1,0.3-0.1,0.5-0.1
				c0.1,0,0.3,0,0.4,0.1c0.1,0.1,0.2,0.1,0.3,0.2C51.7,75.6,51.8,75.7,51.8,75.9 M47.2,74.5c-0.2-0.2-0.4-0.3-0.6-0.4
				C46.4,74,46,74,45.6,74s-0.7,0.1-1.1,0.2c-0.3,0.1-0.6,0.3-0.9,0.5l0.7,0.8c0.1-0.2,0.3-0.3,0.5-0.4s0.4-0.2,0.6-0.2
				s0.4,0.1,0.6,0.2c0.2,0.1,0.2,0.3,0.2,0.6c-0.2,0-0.4,0-0.6,0c-0.2,0-0.4,0-0.7,0c-0.2,0-0.4,0.1-0.6,0.2
				c-0.2,0.1-0.4,0.2-0.5,0.3c-0.2,0.1-0.3,0.3-0.4,0.4c-0.1,0.2-0.1,0.4-0.1,0.7c0,0.2,0,0.4,0.1,0.6s0.2,0.3,0.3,0.4
				s0.3,0.2,0.5,0.3c0.2,0.1,0.4,0.1,0.6,0.1c0.3,0,0.5-0.1,0.8-0.2c0.2-0.1,0.4-0.3,0.6-0.5v0.5h1.3v-2.3c0-0.4,0-0.7-0.1-1
				S47.4,74.7,47.2,74.5 M46,76.6h0.3v0.3c0,0.1,0,0.3-0.1,0.4s-0.1,0.2-0.2,0.2s-0.2,0.1-0.3,0.2c-0.1,0-0.3,0.1-0.4,0.1
				c-0.1,0-0.3,0-0.4-0.1s-0.2-0.2-0.2-0.4c0-0.1,0.1-0.3,0.2-0.3c0.1-0.1,0.2-0.2,0.4-0.2c0.1,0,0.3-0.1,0.4-0.1
				C45.8,76.6,45.9,76.6,46,76.6z"/>
		</g>
	</g>
	<g>
		
			<path id="Layer1_0_1_STROKES_1_" style="fill:none;stroke:#404040;stroke-width:5;stroke-linecap:round;stroke-linejoin:round;" d="
			M71,59.1c-0.5,11.1-0.5,22.2,0,33.3c0,2.4-1.2,3.6-3.6,3.6H32.6c-2.4,0-3.6-1.2-3.6-3.6c0.5-11.1,0.5-22.2,0-33.3
			c0-2.4,1.2-3.6,3.6-3.6h34.9C69.8,55.6,71,56.7,71,59.1z"/>
	</g>
	<g>
		
			<path id="Layer1_0_2_STROKES_1_" style="fill:none;stroke:#FFFFFF;stroke-width:4;stroke-linecap:round;stroke-linejoin:round;" d="
			M52.2,61.1h-15c-1.7,0-2.6,0.9-2.6,2.6c0.5,8,0.5,16.1,0,24.1c0,1.7,0.9,2.6,2.6,2.6h15.1 M53,90.4h9.8c1.7,0,2.6-0.9,2.6-2.6
			c-0.5-8-0.5-16.1,0-24.1c0-1.7-0.9-2.6-2.6-2.6H53"/>
	</g>
</g>
</svg>
