
<svg xmlns="http://www.w3.org/2000/svg" version="1.1" xmlns:xlink="http://www.w3.org/1999/xlink" x="0px" y="0px" viewBox="0 0 100 100">
<defs>
<g id="Layer1_0_FILL">
<path fill="#D7D7D7" stroke="none" d="
M 84.95 77.8
Q 83.7 50.5 84.95 23.15 84.95 17.3 79.1 17.3
L 21.9 17.3
Q 16.05 17.3 16.05 23.15 17.3 50.5 16.05 77.8 16.05 83.65 21.9 83.65
L 79.1 83.65
Q 84.95 83.65 84.95 77.8
M 54.15 26.45
L 55.4 26.45 71.55 26.45
Q 75.8 26.45 75.8 30.7 74.65 50.5 75.8 70.25 75.8 74.45 71.55 74.45
L 55.4 74.45 54.15 74.45 29.45 74.45
Q 25.2 74.45 25.2 70.25 26.35 50.5 25.2 30.7 25.2 26.45 29.45 26.45
L 54.15 26.45 Z"/>

<path fill="#F5F5F5" stroke="none" d="
M 55.4 26.45
L 54.15 26.45 29.45 26.45
Q 25.2 26.45 25.2 30.7 26.35 50.5 25.2 70.25 25.2 74.45 29.45 74.45
L 54.15 74.45 55.4 74.45 71.55 74.45
Q 75.8 74.45 75.8 70.25 74.65 50.5 75.8 30.7 75.8 26.45 71.55 26.45
L 55.4 26.45
M 40.75 33.1
Q 42 32.95 43.25 33.05 46.6 33.5 49.8 35.5
L 49.8 48.05
Q 46.55 46.25 43.25 45.8 42 45.7 40.75 45.8 39.6 46.05 38.4 46.5 37.05 47.2 35.7 48.2
L 35.7 35.65
Q 37.05 34.6 38.4 33.85 39.6 33.4 40.75 33.1
M 40.75 48.55
Q 42 48.4 43.25 48.5 46.6 48.95 49.8 50.95
L 49.8 63.45
Q 46.55 61.6 43.25 61.15 42 61.05 40.75 61.15 39.6 61.4 38.4 61.85 37.05 62.6 35.7 63.6
L 35.7 51.05
Q 37.05 50.05 38.4 49.3 39.6 48.85 40.75 48.55
M 56.2 37.8
Q 58.3 38.2 60.4 38.1 61.9 37.8 63.4 37.25 64.7 36.4 66 35.35
L 66 47.9
Q 64.7 48.95 63.4 49.8 61.9 50.35 60.4 50.65 58.25 50.8 56.2 50.4 54 49.8 51.85 48.65
L 51.85 36.15
Q 54.05 37.25 56.2 37.8
M 63.4 52.65
Q 64.7 51.8 66 50.75
L 66 63.3
Q 64.7 64.35 63.4 65.2 61.9 65.75 60.4 66.05 58.25 66.2 56.2 65.8 54 65.25 51.85 64.1
L 51.85 51.55
Q 54.05 52.65 56.2 53.2 58.3 53.6 60.4 53.5 61.9 53.2 63.4 52.65 Z"/>

<path fill="#404040" stroke="none" d="
M 66 50.75
Q 64.7 51.8 63.4 52.65 61.9 53.2 60.4 53.5 58.3 53.6 56.2 53.2 54.05 52.65 51.85 51.55
L 51.85 64.1
Q 54 65.25 56.2 65.8 58.25 66.2 60.4 66.05 61.9 65.75 63.4 65.2 64.7 64.35 66 63.3
L 66 50.75
M 60.4 38.1
Q 58.3 38.2 56.2 37.8 54.05 37.25 51.85 36.15
L 51.85 48.65
Q 54 49.8 56.2 50.4 58.25 50.8 60.4 50.65 61.9 50.35 63.4 49.8 64.7 48.95 66 47.9
L 66 35.35
Q 64.7 36.4 63.4 37.25 61.9 37.8 60.4 38.1
M 43.25 48.5
Q 42 48.4 40.75 48.55 39.6 48.85 38.4 49.3 37.05 50.05 35.7 51.05
L 35.7 63.6
Q 37.05 62.6 38.4 61.85 39.6 61.4 40.75 61.15 42 61.05 43.25 61.15 46.55 61.6 49.8 63.45
L 49.8 50.95
Q 46.6 48.95 43.25 48.5
M 43.25 33.05
Q 42 32.95 40.75 33.1 39.6 33.4 38.4 33.85 37.05 34.6 35.7 35.65
L 35.7 48.2
Q 37.05 47.2 38.4 46.5 39.6 46.05 40.75 45.8 42 45.7 43.25 45.8 46.55 46.25 49.8 48.05
L 49.8 35.5
Q 46.6 33.5 43.25 33.05 Z"/>
</g>

<path id="Layer1_0_1_STROKES" stroke="#404040" stroke-width="5" stroke-linejoin="round" stroke-linecap="round" fill="none" d="
M 84.95 23.15
Q 83.7 50.5 84.95 77.8 84.95 83.65 79.1 83.65
L 21.9 83.65
Q 16.05 83.65 16.05 77.8 17.3 50.5 16.05 23.15 16.05 17.3 21.9 17.3
L 79.1 17.3
Q 84.95 17.3 84.95 23.15 Z"/>

<path id="Layer1_0_2_STROKES" stroke="#FFFFFF" stroke-width="4" stroke-linejoin="round" stroke-linecap="round" fill="none" d="
M 54.15 26.45
L 29.45 26.45
Q 25.2 26.45 25.2 30.7 26.35 50.5 25.2 70.25 25.2 74.45 29.45 74.45
L 54.15 74.45
M 55.4 74.45
L 71.55 74.45
Q 75.8 74.45 75.8 70.25 74.65 50.5 75.8 30.7 75.8 26.45 71.55 26.45
L 55.4 26.45"/>

</defs>

<g transform="matrix( 1, 0, 0, 1, 0,0) ">
<use xlink:href="#Layer1_0_FILL"/>

<use xlink:href="#Layer1_0_1_STROKES"/>

<use xlink:href="#Layer1_0_2_STROKES"/>
</g>

<g transform="matrix( 1, 0, 0, 1, -3.4,-28) ">
<clipPath id="Mask_Mask_1">
<rect x="0.85" y="-2" width="105.1" height="20.8" fill="#FFFFFF" stroke="none"/>
</clipPath>

<text clip-path="url(#Mask_Mask_1)" writing-mode="lr"><tspan x="2.9" y="13.6" baseline-shift="0%" kerning="auto" font-family="Arial_Regular" font-size="15" fill="#999999" xml:space="preserve">Light Keyboard</tspan></text>
</g>
</svg>
