<?xml version="1.0" encoding="utf-8"?>
<!-- Generator: Adobe Illustrator 24.1.2, SVG Export Plug-In . SVG Version: 6.00 Build 0)  -->
<svg version="1.1" id="Layer_1" xmlns="http://www.w3.org/2000/svg" xmlns:xlink="http://www.w3.org/1999/xlink" x="0px" y="0px"
	 viewBox="0 0 100 100" style="enable-background:new 0 0 100 100;" xml:space="preserve">
<g transform="matrix( 1, 0, 0, 1, 0,0) ">
	<g>
		<g id="Layer1_0_FILL">
			<path style="fill:#D7D7D7;" d="M63.8,45.5c-0.3-7.4-0.3-14.8,0-22.2c0-1.6-0.8-2.4-2.4-2.4H38.2c-1.6,0-2.4,0.8-2.4,2.4
				c0.3,7.4,0.3,14.8,0,22.2c0,1.6,0.8,2.4,2.4,2.4h23.2C63,47.8,63.8,47,63.8,45.5 M51.8,24.6h6.6c1.2,0,1.7,0.6,1.7,1.7
				c-0.3,5.4-0.3,10.7,0,16.1c0,1.1-0.6,1.7-1.7,1.7h-6.6h-0.5h-10c-1.2,0-1.7-0.6-1.7-1.7c0.3-5.4,0.3-10.7,0-16.1
				c0-1.2,0.6-1.7,1.7-1.7h10H51.8z"/>
			<path style="fill:#F5F5F5;" d="M58.4,24.6h-6.6h-0.5h-10c-1.2,0-1.7,0.6-1.7,1.7c0.3,5.4,0.3,10.7,0,16.1c0,1.1,0.6,1.7,1.7,1.7
				h10h0.5h6.6c1.2,0,1.7-0.6,1.7-1.7c-0.3-5.4-0.3-10.7,0-16.1C60.1,25.2,59.5,24.6,58.4,24.6 M49.8,32.7L49.8,32.7l-2.3,7h-1.9
				l-3-10.1H45l1.6,6.5l0,0l2.1-6.5h2.1l2.1,6.6l0,0l1.7-6.6h2.2L54,39.7h-2L49.8,32.7z"/>
			<path style="fill:#404040;" d="M49.8,32.7L49.8,32.7l2.2,7h2l2.9-10.1h-2.2L53,36.2l0,0l-2.1-6.6h-2.1l-2.1,6.5l0,0l-1.6-6.5
				h-2.4l3,10.1h1.9L49.8,32.7z"/>
		</g>
	</g>
	<g>
		<path id="Layer1_0_1_STROKES" style="fill:none;stroke:#404040;stroke-width:5;stroke-linecap:round;stroke-linejoin:round;" d="
			M63.8,23.2c-0.3,7.4-0.3,14.8,0,22.2c0,1.6-0.8,2.4-2.4,2.4H38.2c-1.6,0-2.4-0.8-2.4-2.4c0.3-7.4,0.3-14.8,0-22.2
			c0-1.6,0.8-2.4,2.4-2.4h23.2C63,20.9,63.8,21.7,63.8,23.2z"/>
	</g>
	<g>
		<path id="Layer1_0_2_STROKES" style="fill:none;stroke:#FFFFFF;stroke-width:4;stroke-linecap:round;stroke-linejoin:round;" d="
			M51.8,44.1h6.6c1.2,0,1.7-0.6,1.7-1.7c-0.3-5.4-0.3-10.7,0-16.1c0-1.2-0.6-1.7-1.7-1.7h-6.6 M51.3,24.6h-10
			c-1.2,0-1.7,0.6-1.7,1.7c0.3,5.4,0.3,10.7,0,16.1c0,1.1,0.6,1.7,1.7,1.7h10"/>
	</g>
</g>
<g transform="matrix( 1, 0, 0, 1, 0,0) ">
	<g>
		<g id="Layer1_0_FILL_1_">
			<path style="fill:#D7D7D7;" d="M64,77.1c-0.3-7.4-0.3-14.8,0-22.2c0-1.6-0.8-2.4-2.4-2.4H38.4c-1.6,0-2.4,0.8-2.4,2.4
				c0.3,7.4,0.3,14.8,0,22.2c0,1.6,0.8,2.4,2.4,2.4h23.2C63.2,79.5,64,78.7,64,77.1 M51.5,56.2H52h6.6c1.2,0,1.7,0.6,1.7,1.7
				C60,63.3,60,68.7,60.3,74c0,1.1-0.6,1.7-1.7,1.7H52h-0.5h-10c-1.2,0-1.7-0.6-1.7-1.7c0.3-5.4,0.3-10.7,0-16.1
				c0-1.2,0.6-1.7,1.7-1.7H51.5z"/>
			<path style="fill:#F5F5F5;" d="M52,56.2h-0.5h-10c-1.2,0-1.7,0.6-1.7,1.7c0.3,5.4,0.3,10.7,0,16.1c0,1.1,0.6,1.7,1.7,1.7h10H52
				h6.6c1.2,0,1.7-0.6,1.7-1.7c-0.3-5.3-0.3-10.7,0-16c0-1.2-0.6-1.7-1.7-1.7L52,56.2 M49.3,63.3c-0.1,0.1-0.3,0.2-0.4,0.3
				c-0.1,0.1-0.1,0.3-0.1,0.5c0,0.3,0.1,0.5,0.3,0.7s0.5,0.3,0.9,0.4s0.7,0.2,1.1,0.3c0.4,0.1,0.8,0.3,1.1,0.5
				c0.4,0.2,0.6,0.5,0.9,0.8c0.2,0.4,0.3,0.8,0.3,1.4s-0.1,1-0.3,1.5c-0.2,0.4-0.5,0.8-0.9,1c-0.4,0.3-0.8,0.5-1.2,0.6
				c-0.5,0.1-1,0.2-1.5,0.2c-0.7,0-1.3-0.1-1.8-0.3c-0.6-0.2-1.1-0.5-1.6-1l1.6-1.7c0.2,0.3,0.5,0.5,0.9,0.7
				c0.3,0.2,0.7,0.2,1.1,0.2c0.2,0,0.4,0,0.5-0.1c0.2,0,0.3-0.1,0.5-0.2c0.1-0.1,0.3-0.2,0.4-0.3c0.1-0.1,0.1-0.3,0.1-0.5
				c0-0.3-0.1-0.5-0.3-0.7s-0.5-0.3-0.9-0.5c-0.4-0.1-0.7-0.2-1.1-0.4c-0.4-0.1-0.8-0.3-1.1-0.5c-0.4-0.2-0.7-0.5-0.9-0.8
				s-0.3-0.8-0.3-1.3s0.1-1,0.3-1.4s0.5-0.8,0.9-1c0.4-0.3,0.8-0.5,1.2-0.6c0.5-0.1,0.9-0.2,1.4-0.2c0.6,0,1.1,0.1,1.7,0.2
				c0.5,0.2,1,0.4,1.4,0.8L52,63.5c-0.2-0.2-0.4-0.4-0.8-0.5c-0.3-0.1-0.6-0.2-0.9-0.2c-0.2,0-0.3,0-0.5,0
				C49.6,63.1,49.5,63.2,49.3,63.3z"/>
			<path style="fill:#404040;" d="M49,63.6c0.1-0.1,0.2-0.2,0.4-0.3c0.1-0.1,0.3-0.1,0.5-0.2c0.2,0,0.3,0,0.5,0
				c0.3,0,0.6,0.1,0.9,0.2c0.3,0.1,0.6,0.3,0.8,0.5l1.5-1.6c-0.4-0.4-0.9-0.7-1.4-0.8c-0.5-0.2-1.1-0.2-1.7-0.2
				c-0.5,0-1,0.1-1.4,0.2c-0.5,0.1-0.9,0.3-1.2,0.6c-0.4,0.3-0.6,0.6-0.9,1c-0.2,0.4-0.3,0.9-0.3,1.4c0,0.6,0.1,1,0.3,1.3
				s0.5,0.6,0.9,0.8c0.4,0.2,0.7,0.4,1.1,0.5c0.4,0.1,0.8,0.3,1.1,0.4c0.4,0.1,0.6,0.3,0.9,0.5s0.3,0.4,0.3,0.7c0,0.2,0,0.3-0.1,0.5
				c-0.1,0.1-0.2,0.2-0.4,0.3c-0.1,0.1-0.3,0.2-0.5,0.2s-0.4,0.1-0.5,0.1c-0.4,0-0.7-0.1-1.1-0.2c-0.4-0.2-0.6-0.4-0.9-0.7l-1.6,1.7
				c0.5,0.4,1,0.8,1.6,1s1.2,0.3,1.8,0.3c0.5,0,1-0.1,1.5-0.2s0.9-0.3,1.2-0.6c0.4-0.3,0.6-0.6,0.9-1c0.2-0.4,0.3-0.9,0.3-1.5
				s-0.1-1.1-0.3-1.4c-0.2-0.4-0.5-0.6-0.9-0.8c-0.4-0.2-0.7-0.4-1.1-0.5c-0.4-0.1-0.8-0.2-1.1-0.3c-0.4-0.1-0.6-0.2-0.9-0.4
				c-0.2-0.2-0.3-0.4-0.3-0.7C48.8,63.9,48.9,63.7,49,63.6z"/>
		</g>
	</g>
	<g>
		
			<path id="Layer1_0_1_STROKES_1_" style="fill:none;stroke:#404040;stroke-width:5;stroke-linecap:round;stroke-linejoin:round;" d="
			M64,54.9c-0.3,7.4-0.3,14.8,0,22.2c0,1.6-0.8,2.4-2.4,2.4H38.4c-1.6,0-2.4-0.8-2.4-2.4c0.3-7.4,0.3-14.8,0-22.2
			c0-1.6,0.8-2.4,2.4-2.4h23.2C63.2,52.5,64,53.3,64,54.9z"/>
	</g>
	<g>
		
			<path id="Layer1_0_2_STROKES_1_" style="fill:none;stroke:#FFFFFF;stroke-width:4;stroke-linecap:round;stroke-linejoin:round;" d="
			M51.5,56.2h-10c-1.2,0-1.7,0.6-1.7,1.7c0.3,5.4,0.3,10.7,0,16.1c0,1.1,0.6,1.7,1.7,1.7h10 M52,75.7h6.6c1.2,0,1.7-0.6,1.7-1.7
			c-0.3-5.3-0.3-10.7,0-16c0-1.2-0.6-1.7-1.7-1.7H52"/>
	</g>
</g>
<g transform="matrix( 1, 0, 0, 1, 0,0) ">
	<g>
		<g id="Layer1_0_FILL_2_">
			<path style="fill:#D7D7D7;" d="M31,77.1c-0.3-7.4-0.3-14.8,0-22.2c0-1.6-0.8-2.4-2.4-2.4H5.4c-1.6,0-2.4,0.8-2.4,2.4
				c0.3,7.4,0.3,14.8,0,22.2c0,1.6,0.8,2.4,2.4,2.4h23.2C30.2,79.5,31,78.7,31,77.1 M19,56.2h6.6c1.2,0,1.7,0.6,1.7,1.7
				C27,63.3,27,68.7,27.3,74c0,1.1-0.6,1.7-1.7,1.7H19h-0.5h-10c-1.2,0-1.7-0.6-1.7-1.7C7,68.7,7,63.3,6.7,58c0-1.2,0.6-1.7,1.7-1.7
				h10L19,56.2L19,56.2z"/>
			<path style="fill:#F5F5F5;" d="M25.6,56.2H19h-0.5h-10c-1.2,0-1.7,0.6-1.7,1.7C7,63.3,7,68.7,6.7,74c0,1.1,0.6,1.7,1.7,1.7h10H19
				h6.6c1.2,0,1.7-0.6,1.7-1.7c-0.3-5.3-0.3-10.7,0-16C27.3,56.8,26.7,56.2,25.6,56.2 M16.1,61.3h1.8l4.4,10.1h-2.5l-0.9-2.1H15
				l-0.8,2.1h-2.5L16.1,61.3 M15.7,67.3h2.5L17,64.2L15.7,67.3z"/>
			<path style="fill:#404040;" d="M17.9,61.3h-1.8l-4.4,10.1h2.5l0.8-2.1h3.9l0.9,2.1h2.5L17.9,61.3 M18.2,67.3h-2.5l1.2-3.1
				L18.2,67.3z"/>
		</g>
	</g>
	<g>
		
			<path id="Layer1_0_1_STROKES_2_" style="fill:none;stroke:#404040;stroke-width:5;stroke-linecap:round;stroke-linejoin:round;" d="
			M31,54.9c-0.3,7.4-0.3,14.8,0,22.2c0,1.6-0.8,2.4-2.4,2.4H5.4c-1.6,0-2.4-0.8-2.4-2.4c0.3-7.4,0.3-14.8,0-22.2
			c0-1.6,0.8-2.4,2.4-2.4h23.2C30.2,52.5,31,53.3,31,54.9z"/>
	</g>
	<g>
		
			<path id="Layer1_0_2_STROKES_2_" style="fill:none;stroke:#FFFFFF;stroke-width:4;stroke-linecap:round;stroke-linejoin:round;" d="
			M19,75.7h6.6c1.2,0,1.7-0.6,1.7-1.7c-0.3-5.3-0.3-10.7,0-16c0-1.2-0.6-1.7-1.7-1.7H19 M18.5,56.2h-10c-1.2,0-1.7,0.6-1.7,1.7
			C7,63.3,7,68.7,6.7,74c0,1.1,0.6,1.7,1.7,1.7h10"/>
	</g>
</g>
<g transform="matrix( 1, 0, 0, 1, 0,0) ">
	<g>
		<g id="Layer1_0_FILL_3_">
			<path style="fill:#D7D7D7;" d="M97,77.1c-0.3-7.4-0.3-14.8,0-22.2c0-1.6-0.8-2.4-2.4-2.4H71.4c-1.6,0-2.4,0.8-2.4,2.4
				c0.3,7.4,0.3,14.8,0,22.2c0,1.6,0.8,2.4,2.4,2.4h23.2C96.2,79.5,97,78.7,97,77.1 M84.5,56.2H85h6.6c1.2,0,1.7,0.6,1.7,1.7
				C93,63.3,93,68.7,93.3,74c0,1.1-0.6,1.7-1.7,1.7H85h-0.5h-10c-1.2,0-1.7-0.6-1.7-1.7c0.3-5.4,0.3-10.7,0-16.1
				c0-1.2,0.6-1.7,1.7-1.7H84.5z"/>
			<path style="fill:#F5F5F5;" d="M85,56.2h-0.5h-10c-1.2,0-1.7,0.6-1.7,1.7c0.3,5.4,0.3,10.7,0,16.1c0,1.1,0.6,1.7,1.7,1.7h10H85
				h6.6c1.2,0,1.7-0.6,1.7-1.7c-0.3-5.3-0.3-10.7,0-16c0-1.2-0.6-1.7-1.7-1.7L85,56.2 M81.9,61.3c0.8,0,1.6,0.1,2.3,0.3
				c0.7,0.2,1.4,0.5,1.9,0.9s1,0.9,1.3,1.6s0.5,1.4,0.5,2.4c0,0.8-0.1,1.5-0.4,2.2c-0.3,0.6-0.7,1.1-1.3,1.6c-0.5,0.4-1.1,0.7-1.8,1
				c-0.7,0.2-1.4,0.3-2.2,0.3h-3.6V61.3H81.9 M85.3,64.9c-0.2-0.4-0.4-0.7-0.7-0.9c-0.3-0.2-0.7-0.4-1.1-0.5s-0.9-0.2-1.3-0.2h-1.3
				v6H82c0.5,0,1-0.1,1.4-0.2s0.8-0.3,1.2-0.5c0.3-0.2,0.6-0.6,0.8-1c0.2-0.4,0.3-0.9,0.3-1.4C85.6,65.7,85.5,65.3,85.3,64.9z"/>
			<path style="fill:#404040;" d="M84.2,61.5c-0.7-0.2-1.5-0.3-2.3-0.3h-3.3v10.1h3.6c0.7,0,1.5-0.1,2.2-0.3c0.7-0.2,1.3-0.5,1.8-1
				c0.5-0.4,0.9-0.9,1.3-1.6c0.3-0.6,0.4-1.3,0.4-2.2c0-0.9-0.2-1.7-0.5-2.4c-0.3-0.6-0.8-1.2-1.3-1.6C85.6,62,85,61.7,84.2,61.5
				 M84.6,64c0.3,0.2,0.5,0.5,0.7,0.9s0.3,0.8,0.3,1.3c0,0.6-0.1,1-0.3,1.4c-0.2,0.4-0.4,0.7-0.8,1c-0.3,0.2-0.7,0.4-1.2,0.5
				c-0.4,0.1-0.9,0.2-1.4,0.2h-1.1v-6h1.3c0.5,0,0.9,0.1,1.3,0.2S84.3,63.8,84.6,64z"/>
		</g>
	</g>
	<g>
		
			<path id="Layer1_0_1_STROKES_3_" style="fill:none;stroke:#404040;stroke-width:5;stroke-linecap:round;stroke-linejoin:round;" d="
			M97,54.9c-0.3,7.4-0.3,14.8,0,22.2c0,1.6-0.8,2.4-2.4,2.4H71.4c-1.6,0-2.4-0.8-2.4-2.4c0.3-7.4,0.3-14.8,0-22.2
			c0-1.6,0.8-2.4,2.4-2.4h23.2C96.2,52.5,97,53.3,97,54.9z"/>
	</g>
	<g>
		
			<path id="Layer1_0_2_STROKES_3_" style="fill:none;stroke:#FFFFFF;stroke-width:4;stroke-linecap:round;stroke-linejoin:round;" d="
			M84.5,56.2h-10c-1.2,0-1.7,0.6-1.7,1.7c0.3,5.4,0.3,10.7,0,16.1c0,1.1,0.6,1.7,1.7,1.7h10 M85,75.7h6.6c1.2,0,1.7-0.6,1.7-1.7
			c-0.3-5.3-0.3-10.7,0-16c0-1.2-0.6-1.7-1.7-1.7H85"/>
	</g>
</g>
</svg>
