
<svg xmlns="http://www.w3.org/2000/svg" version="1.1" xmlns:xlink="http://www.w3.org/1999/xlink" x="0px" y="0px" viewBox="0 0 100 100">
<defs>
<g id="Layer1_0_FILL">
<path fill="#404040" stroke="none" d="
M 97.05 45.9
Q 96.95 37 90.65 30.7 84.2 24.25 75.05 24.25 74.4 24.25 25.65 24.3
L 25.6 24.3
Q 25.55 24.3 25.5 24.3
L 25.45 24.3
Q 17.25 24.75 11.35 30.7 5 37 4.9 45.9 4.9 53.6 4.9 53.8 4.9 62.95 11.35 69.4 17.25 75.3 25.4 75.8 25.45 75.8 25.5 75.8 25.55 75.8 25.6 75.8
L 25.7 75.8
Q 74.4 75.8 75.05 75.8 84.2 75.8 90.65 69.4 97.05 62.95 97.05 53.8 97.05 53.6 97.05 45.9
M 93.05 45.9
L 93.05 45.95
Q 93.05 53.6 93.05 53.8 93.05 61.25 87.8 66.55 82.5 71.8 75.05 71.8 74.4 71.8 25.75 71.8 19.05 71.4 14.2 66.55 8.9 61.25 8.9 53.8 8.9 53.6 8.9 45.95
L 8.9 45.9
Q 9 38.7 14.2 33.55 19 28.65 25.7 28.3 74.4 28.25 75.05 28.25 82.5 28.25 87.8 33.55 92.95 38.7 93.05 45.9 Z"/>

<path fill="#D7D7D7" stroke="none" d="
M 93.05 45.95
L 93.05 45.9
Q 92.95 38.7 87.8 33.55 82.5 28.25 75.05 28.25 74.4 28.25 25.7 28.3 19 28.65 14.2 33.55 9 38.7 8.9 45.9
L 8.9 45.95
Q 8.9 53.6 8.9 53.8 8.9 61.25 14.2 66.55 19.05 71.4 25.75 71.8 74.4 71.8 75.05 71.8 82.5 71.8 87.8 66.55 93.05 61.25 93.05 53.8 93.05 53.6 93.05 45.95
M 89.55 45.85
L 89.55 45.9
Q 89.55 53.6 89.55 53.8 89.55 59.85 85.35 64.1 81.1 68.3 75.05 68.3 74.4 68.3 25.9 68.3 25.75 68.3 25.6 68.3
L 25.5 68.3
Q 20.35 67.8 16.65 64.1 12.4 59.85 12.4 53.8 12.4 53.6 12.4 45.9
L 12.4 45.85
Q 12.5 40.1 16.65 36 20.5 32.1 25.85 31.8
L 25.9 31.8
Q 25.95 31.8 26 31.8
L 26.05 31.8
Q 74.4 31.75 75.05 31.75 81.1 31.75 85.35 36 89.45 40.1 89.55 45.85 Z"/>

<path fill="#FFFFFF" stroke="none" d="
M 89.55 45.9
L 89.55 45.85
Q 89.45 40.1 85.35 36 81.1 31.75 75.05 31.75 74.4 31.75 26.05 31.8
L 26 31.8
Q 25.95 31.8 25.9 31.8
L 25.85 31.8
Q 20.5 32.1 16.65 36 12.5 40.1 12.4 45.85
L 12.4 45.9
Q 12.4 53.6 12.4 53.8 12.4 59.85 16.65 64.1 20.35 67.8 25.5 68.3
L 25.6 68.3
Q 25.75 68.3 25.9 68.3 74.4 68.3 75.05 68.3 81.1 68.3 85.35 64.1 89.55 59.85 89.55 53.8 89.55 53.6 89.55 45.9
M 85.55 45.9
L 85.55 45.95
Q 85.55 53.6 85.55 53.8 85.55 58.15 82.5 61.25 79.4 64.3 75.05 64.3 74.4 64.3 25.95 64.3 22.2 63.95 19.5 61.25 16.4 58.15 16.4 53.8 16.4 53.6 16.4 45.95 16.5 41.8 19.5 38.85 22.25 36.05 26 35.8 26.05 35.8 26.1 35.8 74.4 35.75 75.05 35.75 79.4 35.75 82.5 38.85 85.45 41.8 85.55 45.9 Z"/>

<path fill="#F5F5F5" stroke="none" d="
M 85.55 45.95
L 85.55 45.9
Q 85.45 41.8 82.5 38.85 79.4 35.75 75.05 35.75 74.4 35.75 26.1 35.8 26.05 35.8 26 35.8 22.25 36.05 19.5 38.85 16.5 41.8 16.4 45.95 16.4 53.6 16.4 53.8 16.4 58.15 19.5 61.25 22.2 63.95 25.95 64.3 74.4 64.3 75.05 64.3 79.4 64.3 82.5 61.25 85.55 58.15 85.55 53.8 85.55 53.6 85.55 45.95
M 59.25 45.3
Q 58.3 45.3 57.5 45.65 56.75 46 56.15 46.65 55.55 47.3 55.25 48.15 54.9 49.05 54.9 50.05 54.9 51.1 55.25 52 55.55 52.85 56.15 53.5 56.7 54.15 57.5 54.5 58.25 54.85 59.15 54.85 60.15 54.85 60.9 54.45 61.7 54 62.2 53.25
L 64.9 55.3
Q 64 56.6 62.5 57.25 61.05 57.9 59.55 57.9 57.8 57.9 56.35 57.35 54.85 56.8 53.8 55.75 52.7 54.75 52.1 53.3 51.5 51.85 51.5 50.05 51.5 48.3 52.1 46.85 52.7 45.4 53.8 44.35 54.85 43.35 56.35 42.8 57.8 42.25 59.55 42.25 60.15 42.25 60.85 42.35 61.55 42.5 62.2 42.75 62.85 43 63.45 43.4 64.1 43.85 64.55 44.45
L 62.05 46.5
Q 61.55 45.9 60.85 45.6 60.15 45.3 59.25 45.3
M 41.65 42.65
L 44.35 42.65 50.85 57.5 47.15 57.5 45.85 54.35 40.1 54.35 38.85 57.5 35.25 57.5 41.65 42.65
M 70.1 42.65
L 70.1 48.8 75.9 42.65 80.15 42.65 73.55 49.55 80.75 57.5 76.15 57.5 70.1 50.45 70.1 57.5 66.85 57.5 66.85 42.65 70.1 42.65
M 23.15 42.65
L 28.7 42.65
Q 29.65 42.65 30.65 42.75 31.65 42.9 32.4 43.3 33.2 43.75 33.65 44.45 34.15 45.2 34.15 46.4 34.15 47.7 33.45 48.5 32.75 49.35 31.6 49.7
L 31.6 49.75
Q 32.3 49.85 32.9 50.15 33.5 50.45 33.95 50.9 34.35 51.4 34.6 52 34.85 52.65 34.85 53.35 34.85 54.55 34.3 55.35 33.8 56.1 33 56.6 32.2 57.1 31.25 57.3 30.25 57.5 29.25 57.5
L 23.15 57.5 23.15 42.65
M 31.3 52.15
Q 31.05 51.8 30.65 51.65 30.25 51.45 29.75 51.4 29.3 51.35 28.9 51.35
L 26.45 51.35 26.45 54.75 29.35 54.75
Q 29.75 54.75 30.15 54.65 30.55 54.55 30.85 54.35 31.15 54.15 31.35 53.8 31.55 53.45 31.55 53 31.55 52.45 31.3 52.15
M 26.45 45.4
L 26.45 48.6 28.8 48.6
Q 29.2 48.6 29.55 48.5 29.9 48.4 30.2 48.2 30.5 48.05 30.7 47.7 30.85 47.4 30.85 46.95 30.85 46.5 30.65 46.2 30.45 45.9 30.15 45.7 29.85 45.55 29.45 45.45 29.05 45.4 28.65 45.4
L 26.45 45.4
M 41.1 51.6
L 44.75 51.6 42.9 46.95 41.1 51.6 Z"/>

<path fill="#999999" stroke="none" d="
M 28.7 42.65
L 23.15 42.65 23.15 57.5 29.25 57.5
Q 30.25 57.5 31.25 57.3 32.2 57.1 33 56.6 33.8 56.1 34.3 55.35 34.85 54.55 34.85 53.35 34.85 52.65 34.6 52 34.35 51.4 33.95 50.9 33.5 50.45 32.9 50.15 32.3 49.85 31.6 49.75
L 31.6 49.7
Q 32.75 49.35 33.45 48.5 34.15 47.7 34.15 46.4 34.15 45.2 33.65 44.45 33.2 43.75 32.4 43.3 31.65 42.9 30.65 42.75 29.65 42.65 28.7 42.65
M 26.45 48.6
L 26.45 45.4 28.65 45.4
Q 29.05 45.4 29.45 45.45 29.85 45.55 30.15 45.7 30.45 45.9 30.65 46.2 30.85 46.5 30.85 46.95 30.85 47.4 30.7 47.7 30.5 48.05 30.2 48.2 29.9 48.4 29.55 48.5 29.2 48.6 28.8 48.6
L 26.45 48.6
M 30.65 51.65
Q 31.05 51.8 31.3 52.15 31.55 52.45 31.55 53 31.55 53.45 31.35 53.8 31.15 54.15 30.85 54.35 30.55 54.55 30.15 54.65 29.75 54.75 29.35 54.75
L 26.45 54.75 26.45 51.35 28.9 51.35
Q 29.3 51.35 29.75 51.4 30.25 51.45 30.65 51.65
M 70.1 48.8
L 70.1 42.65 66.85 42.65 66.85 57.5 70.1 57.5 70.1 50.45 76.15 57.5 80.75 57.5 73.55 49.55 80.15 42.65 75.9 42.65 70.1 48.8
M 44.35 42.65
L 41.65 42.65 35.25 57.5 38.85 57.5 40.1 54.35 45.85 54.35 47.15 57.5 50.85 57.5 44.35 42.65
M 44.75 51.6
L 41.1 51.6 42.9 46.95 44.75 51.6
M 57.5 45.65
Q 58.3 45.3 59.25 45.3 60.15 45.3 60.85 45.6 61.55 45.9 62.05 46.5
L 64.55 44.45
Q 64.1 43.85 63.45 43.4 62.85 43 62.2 42.75 61.55 42.5 60.85 42.35 60.15 42.25 59.55 42.25 57.8 42.25 56.35 42.8 54.85 43.35 53.8 44.35 52.7 45.4 52.1 46.85 51.5 48.3 51.5 50.05 51.5 51.85 52.1 53.3 52.7 54.75 53.8 55.75 54.85 56.8 56.35 57.35 57.8 57.9 59.55 57.9 61.05 57.9 62.5 57.25 64 56.6 64.9 55.3
L 62.2 53.25
Q 61.7 54 60.9 54.45 60.15 54.85 59.15 54.85 58.25 54.85 57.5 54.5 56.7 54.15 56.15 53.5 55.55 52.85 55.25 52 54.9 51.1 54.9 50.05 54.9 49.05 55.25 48.15 55.55 47.3 56.15 46.65 56.75 46 57.5 45.65 Z"/>
</g>

</defs>

<g transform="matrix( 1, 0, 0, 1, 0,0) ">
<use xlink:href="#Layer1_0_FILL"/>
</g>

<g transform="matrix( 1, 0, 0, 1, -3.4,-28) ">
<clipPath id="Mask_Mask_1">
<rect x="19.6" y="-2" width="67.6" height="20.8" fill="#FFFFFF" stroke="none"/>
</clipPath>

<text clip-path="url(#Mask_Mask_1)" writing-mode="lr"><tspan x="21.7" y="13.6" baseline-shift="0%" kerning="auto" font-family="Arial_Regular" font-size="15" fill="#999999" xml:space="preserve">Xbox 360</tspan></text>
</g>
</svg>
