<?xml version="1.0" encoding="utf-8"?>
<!-- Generator: Adobe Illustrator 24.1.2, SVG Export Plug-In . SVG Version: 6.00 Build 0)  -->
<svg version="1.1" id="Layer_1" xmlns="http://www.w3.org/2000/svg" xmlns:xlink="http://www.w3.org/1999/xlink" x="0px" y="0px"
	 viewBox="0 0 100 100" style="enable-background:new 0 0 100 100;" xml:space="preserve">
<style type="text/css">
	.st0{fill:#D7D7D7;}
	.st1{fill:#353535;}
	.st2{fill:#4D4D4D;}
	.st3{fill:#6E6E6E;}
	.st4{fill:#F5F5F5;}
	.st5{fill:#888888;}
	.st6{fill:none;stroke:#1F1F1F;stroke-width:4;stroke-linecap:round;stroke-linejoin:round;}
	.st7{fill:none;stroke:#FFFFFF;stroke-width:4;stroke-linecap:round;stroke-linejoin:round;}
	.st8{fill:none;stroke:#404040;stroke-width:4;stroke-linecap:round;stroke-linejoin:round;}
	.st9{display:none;}
	.st10{display:inline;fill:none;stroke:#A0A0A0;stroke-width:4;stroke-linecap:round;stroke-linejoin:round;}
	.st11{fill:none;stroke:#FFFFFF;stroke-width:4;stroke-linejoin:round;}
</style>
<g transform="matrix( 1, 0, 0, 1, 0,0) ">
	<g>
		<g id="Layer1_0_FILL_1_">
			<path class="st0" d="M90.4,37.4c0.2,0.5,0.3,1.1,0.5,1.7C90.7,38.5,90.5,37.9,90.4,37.4C90.3,37.3,90.3,37.3,90.4,37.4
				C90.3,37.3,90.3,37.4,90.4,37.4L90.4,37.4 M67.3,67.3c0.1,0,22.9-4.6,23.1-4.5c2.7-8.2,2.5-17,0-25.4c0,0-23-4.6-23-4.6
				c-0.1,0.1-5,6.6-5.1,6.7c2.2,2.4,18.9,4.4,22,5.4c0.4,3.3,0.6,7.2,0.1,10.5c-3.5,1.1-19.9,2.9-22.4,5.7L67.3,67.3z"/>
			<path class="st1" d="M90.3,62.7c0,0-23,4.6-23,4.5l-4.6,23.1C75.2,86.7,86.6,75.2,90.3,62.7 M82.7,68.9L82.7,68.9
				c-3.1,5.5-8.3,10.7-13.8,13.9l2.3-11.7L82.7,68.9 M9.6,62.7L9.6,62.7c3.7,12.6,15.2,24.1,27.8,27.8l-4.5-23.2L9.6,62.7
				 M17.1,68.8L17.1,68.8L29,71.2L31.3,83C25.7,79.8,20.3,74.4,17.1,68.8 M62.7,9.7L62.7,9.7l4.6,23l0.1,0.1l23,4.6
				C86.6,24.9,75.2,13.4,62.7,9.7 M68.8,17.3L68.8,17.3c5.6,3.2,10.7,8.5,14,14l-11.7-2.3L68.8,17.3 M62.7,9.6L62.7,9.6
				c12.5,3.8,23.9,15.2,27.6,27.7h0.1C86.6,24.8,75.2,13.3,62.7,9.6 M37.3,9.6L37.3,9.6c-12.5,3.5-24.1,15-27.7,27.7
				C13.3,24.8,24.8,13.3,37.3,9.6 M37.4,9.6C24.8,13.2,13.3,24.8,9.6,37.3c0,0,0,0.1,0,0.1l23.3-4.6L37.4,9.6 M31.3,17.2L31.3,17.2
				L29,29l-11.9,2.4C20.3,25.7,25.7,20.4,31.3,17.2z"/>
			<path class="st2" d="M82.8,68.8c-0.1,0.1-11.5,2.3-11.6,2.3l-2.3,11.7C74.4,79.6,79.5,74.4,82.8,68.8 M17.2,68.8L17.2,68.8
				c3.1,5.5,8.5,10.9,14.1,14.2L29,71.2L17.2,68.8 M68.8,17.3L68.8,17.3l2.3,11.6l11.7,2.3C79.5,25.8,74.3,20.4,68.8,17.3
				 M31.3,17.1c-5.6,3.2-11,8.6-14.3,14.2L29,29L31.3,17.1z"/>
			<path class="st3" d="M9.6,37.4C9.6,37.4,9.6,37.3,9.6,37.4L9.6,37.4L9.6,37.4c-0.2,0.5-0.4,1.1-0.5,1.7
				C9.2,38.5,9.4,37.9,9.6,37.4L9.6,37.4 M55.3,15.8c-3.4-0.5-6.9-0.5-10.4,0c-5,27-2.3,23.9-29.1,28.9c-0.5,3.6-0.6,7.1-0.1,10.5
				c26.8,5,24.2,2,29.1,29c3.5,0.5,7,0.6,10.4,0.1c5.1-26.8,2.1-24,29-29.1c0.5-3.3,0.3-7.2-0.1-10.5C57.3,39.8,60.3,42.5,55.3,15.8
				 M45,17.1c3.4-0.5,6.8-0.5,10.1-0.1c4.8,25.8,2,23.2,27.8,27.9c0.4,3.2,0.5,6.9,0.1,10.1c-26,4.8-23,2.2-27.9,28
				c-3.3,0.5-6.7,0.4-10.1-0.1c-4.8-26.1-2.3-23.1-28.1-28c-0.2-1.9-0.3-8.3,0-10.1C42.9,40.2,40.2,43.1,45,17.1 M44.2,8.2
				c-1.7,0.3-5.2,0.9-6.8,1.4l-4.5,23.1c-0.1,0-23.3,4.6-23.3,4.6c-2.3,8-2.6,17.1,0,25.3h0l0,0l23.3,4.7l4.5,23.2
				c8.8,2.6,17.3,2.6,25.3,0c0.1,0,4.6-23.1,4.7-23.2h-0.1L61.9,61c-4,2.6-5.2,19.2-6.6,23.4c-3.4,0.5-6.9,0.5-10.4-0.1
				c-5-27-2.4-23.9-29.1-29c-0.5-3.4-0.5-6.9,0.1-10.5c26.9-5,24.1-2,29.1-28.9c3.5-0.5,7-0.5,10.4,0c1.5,4.5,2.4,20.8,7,23.6
				c0.1,0,5-6.6,5.1-6.7l-0.1-0.1c0-0.1-4.6-23.1-4.6-23.1C56.7,7.7,50.5,7.3,44.2,8.2 M39.9,9c7.6-1.7,15.5-1.8,22.8,0.7
				c0,0.1,0-0.1,0-0.1c-8-2.7-17.1-2.4-25.3,0l0,0.1C38.2,9.4,39,9.2,39.9,9z"/>
			<path class="st4" d="M38.2,39.9C38.2,39.9,38.2,39.9,38.2,39.9C36.1,42,19.9,44.1,17,45c-0.5,3.2-0.4,6.9,0.1,10.1
				c3,0.9,18.9,3,21,5.1C42.8,53.4,42.8,46.6,38.2,39.9z"/>
			<path class="st0" d="M9.6,62.7c-0.2-0.5-0.3-1.1-0.5-1.7C9.3,61.6,9.5,62.2,9.6,62.7C9.7,62.8,9.7,62.8,9.6,62.7
				C9.7,62.7,9.7,62.7,9.6,62.7L9.6,62.7 M32.7,32.8c-0.1,0-22.9,4.6-23.1,4.5c-2.7,8.2-2.5,17,0,25.4c0,0,23,4.6,23,4.6
				c0.1-0.1,5-6.6,5.1-6.7c-2.2-2.4-18.9-4.4-21.9-5.4c-0.4-3.3-0.6-7.2-0.1-10.5c3.5-1.1,19.9-2.9,22.4-5.7L32.7,32.8z"/>
			<path class="st4" d="M61.8,60.1C61.8,60.1,61.8,60.2,61.8,60.1c2.1-2.1,18.3-4.2,21.2-5c0.5-3.2,0.4-6.9-0.1-10.1
				c-3-0.9-18.9-3-21-5.1C57.2,46.7,57.2,53.4,61.8,60.1z"/>
			<path class="st5" d="M55.1,83.1c1.5-4.4,2.3-20.3,6.8-22.9c-4.7-6.7-4.7-13.5,0-20.3c-4.5-2.6-5.4-18.6-6.8-22.8
				c-3.3-0.5-6.7-0.5-10,0c-1.5,4.5-2.2,20.3-6.9,22.9c4.8,4.7,5.6,16,0,20.2c4.7,2.6,5.4,18.5,6.9,22.9
				C48.4,83.5,51.8,83.6,55.1,83.1z"/>
		</g>
	</g>
	<g>
		<path class="st6" d="M33.2,69c0.7,7,3.7,14,3.7,21c7,3,15,3,22,1c10-2,5-16,8.4-23.7"/>
		<path class="st6" d="M37.4,9.6c7.9-2.3,17.6-3,25.3,0.1C58.9,7,50.8,7.4,46.3,7.8C42.9,8,38.9,8,37.9,10c-4,7-3,15-5.1,22.7"/>
		<path class="st6" d="M67.3,32.8c0,0-4.6-23-4.7-23.1"/>
		<path class="st6" d="M10.2,35.3c4.3-12,14.9-22.3,27.2-25.8"/>
		<path class="st6" d="M10.2,35.3c4.3-11.9,14.9-22.2,27.1-25.7"/>
		<path class="st6" d="M37.4,90.5C25.9,87.1,16,77.9,11.2,67.1"/>
		<line class="st6" x1="90.3" y1="62.7" x2="90.4" y2="62.7"/>
		<line class="st6" x1="90.4" y1="37.4" x2="90.3" y2="37.4"/>
		<path class="st6" d="M90.3,62.7c-3.7,12.5-15.1,23.9-27.6,27.6"/>
		<path class="st6" d="M90.3,37.3C90.3,37.3,90.3,37.4,90.3,37.3"/>
		<path class="st6" d="M90.4,37.3L90.4,37.3c-3.7-12.5-15.2-24-27.7-27.7"/>
		<path class="st6" d="M90.3,37.3C86.6,24.8,75.1,13.4,62.7,9.7"/>
	</g>
	<g>
		<path id="Layer1_0_2_STROKES_1_" class="st7" d="M66.2,58.9l18-3.6c0.5-3.3,0.4-7.2-0.1-10.5l-17.9-3.6"/>
	</g>
	<g>
		<path id="Layer1_0_3_STROKES_1_" class="st8" d="M67.3,67.3c0,0,23-4.6,23-4.5 M90.4,62.7c2.6-8.2,2.5-16.9,0-25.3 M90.3,37.4
			l-23-4.6 M90.3,37.3L90.3,37.3 M90.8,39c-0.1-0.6-0.3-1.1-0.5-1.7"/>
	</g>
	<g class="st9">
		<path class="st10" d="M37.6,39.4C43.9,33,40.9,24,45.9,17c1-2,8-4,10,0c2,7,0,16,6.3,22.4"/>
		<path class="st10" d="M61.9,61c-5.9,6-2.9,16-6.9,23c-1,2-7,3-9,0c-5-7-3-16-8.4-23.2"/>
	</g>
	<g>
		<path id="Layer1_0_5_STROKES_1_" class="st11" d="M61.9,61c1.2-1.1,2.7-1.8,4.4-2.1 M66.2,41.2c-1.5-0.3-2.9-0.9-4-1.8"/>
	</g>
</g>
<g>
	<path id="Layer1_0_3_STROKES_2_" class="st8" d="M32.8,32.8c0,0-23,4.6-23,4.5 M9.8,37.4c-2.6,8.2-2.5,16.9,0,25.3 M9.8,62.7
		l23,4.6 M9.8,62.8L9.8,62.8 M9.3,61.1c0.1,0.6,0.3,1.1,0.5,1.7"/>
</g>
<g>
	<path id="Layer1_0_2_STROKES_2_" class="st7" d="M34.9,41l-18,3.6c-0.5,3.3-0.4,7.2,0.1,10.5l17.9,3.6"/>
</g>
</svg>
