<?xml version="1.0" encoding="utf-8"?>
<!-- Generator: Adobe Illustrator 24.1.2, SVG Export Plug-In . SVG Version: 6.00 Build 0)  -->
<svg version="1.1" id="Layer_1" xmlns="http://www.w3.org/2000/svg" xmlns:xlink="http://www.w3.org/1999/xlink" x="0px" y="0px"
	 viewBox="0 0 100 100" style="enable-background:new 0 0 100 100;" xml:space="preserve">
<style type="text/css">
	.st0{fill:url(#SVGID_1_);}
	.st1{fill:url(#SVGID_2_);}
	.st2{fill:url(#SVGID_3_);}
	.st3{fill:url(#SVGID_4_);}
	.st4{fill:none;stroke:#1B1B1B;stroke-width:5;stroke-linecap:round;stroke-linejoin:round;}
	.st5{fill:none;stroke:url(#Layer1_0_3_STROKES_2_);stroke-width:5;stroke-linecap:round;stroke-linejoin:round;}
	.st6{fill:none;stroke:url(#Layer1_0_3_STROKES_3_);stroke-width:5;stroke-linecap:round;stroke-linejoin:round;}
</style>
<g transform="matrix( 1, 0, 0, 1, 0,0) ">
	<g>
		<g id="Layer1_0_FILL">
			
				<linearGradient id="SVGID_1_" gradientUnits="userSpaceOnUse" x1="50" y1="72.5" x2="50" y2="62" gradientTransform="matrix(-6.123234e-17 -1 1 -6.123234e-17 0 100)">
				<stop  offset="0" style="stop-color:#D7D7D7"/>
				<stop  offset="1" style="stop-color:#313131"/>
			</linearGradient>
			<path class="st0" d="M40.2,7.2c-2.8,0.5-4.6,2.2-5.4,5.3v22.4H12.5c-3.1,0.7-4.9,2.5-5.3,5.4v19.6c0.4,2.9,2.2,4.7,5.3,5.4h22.3
				v22.3c0.7,3.1,2.5,4.9,5.4,5.3h19.6c2.9-0.4,4.7-2.2,5.4-5.3V65.2h22.3c3.2-0.7,5-2.5,5.3-5.4V40.2c-0.5-2.8-2.3-4.6-5.3-5.4
				H65.2V12.5c-0.7-3.2-2.5-5-5.4-5.3H40.2 M42.3,14.6h15.3v20.2c0,2.1,0.7,3.8,2.2,5.3s3.2,2.2,5.3,2.2h20.2v15.3H65.2
				c-2.1,0-3.8,0.7-5.3,2.2c-1.5,1.5-2.2,3.2-2.2,5.3v20.2H42.3V65.2c0-2.1-0.7-3.8-2.2-5.3c-1.5-1.5-3.2-2.2-5.3-2.2H14.6V42.3
				h20.2c2.1,0,3.8-0.7,5.3-2.2c1.5-1.5,2.2-3.2,2.2-5.3V14.6z"/>
			
				<linearGradient id="SVGID_2_" gradientUnits="userSpaceOnUse" x1="49.2971" y1="72.5" x2="49.2971" y2="62" gradientTransform="matrix(6.123234e-17 1 -1 6.123234e-17 100 0)">
				<stop  offset="0" style="stop-color:#D7D7D7"/>
				<stop  offset="1" style="stop-color:#313131"/>
			</linearGradient>
			<path class="st1" d="M42.3,82.7V65.2c0-2.1-0.7-3.8-2.2-5.3c-1.5-1.5-3.2-2.2-5.3-2.2H14.7V42.3h20.2c2.1,0,3.8-0.7,5.3-2.2
				c1.5-1.5,2.2-3.2,2.2-5.3V16.9c-1.4-0.6-2.6-1.5-4-2c-1.1-0.5-2.3-0.7-3.5-0.8v20.7H12.5c-3.2,0.7-5,2.5-5.3,5.4v19.6
				c0.5,2.8,2.2,4.6,5.3,5.4h22.3v19.3C37.3,83.6,39.8,83,42.3,82.7z"/>
			
				<linearGradient id="SVGID_3_" gradientUnits="userSpaceOnUse" x1="50" y1="59.5125" x2="50" y2="72.9875" gradientTransform="matrix(6.123234e-17 1 1 -6.123234e-17 -2 0)">
				<stop  offset="0" style="stop-color:#4F4F4F"/>
				<stop  offset="1" style="stop-color:#F5F5F5"/>
			</linearGradient>
			<path class="st2" d="M42.3,85.3h15.3V65.2c0-2.1,0.7-3.8,2.2-5.3c1.5-1.5,3.2-2.2,5.3-2.2h20.2V42.3H65.2c-2.1,0-3.8-0.7-5.3-2.2
				c-1.5-1.5-2.2-3.2-2.2-5.3V14.6H42.3v20.2c0,2.1-0.7,3.8-2.2,5.3c-1.5,1.5-3.2,2.2-5.3,2.2H14.6v15.3h20.2c2.1,0,3.8,0.7,5.3,2.2
				s2.2,3.2,2.2,5.3V85.3z"/>
			
				<linearGradient id="SVGID_4_" gradientUnits="userSpaceOnUse" x1="50" y1="59.5125" x2="50" y2="72.9875" gradientTransform="matrix(-6.123234e-17 -1 -1 6.123234e-17 102 100)">
				<stop  offset="0" style="stop-color:#4F4F4F"/>
				<stop  offset="1" style="stop-color:#F5F5F5"/>
			</linearGradient>
			<path class="st3" d="M48.3,71.5c0.2-6.8-0.1-13.7-0.2-20.5c-0.1-7.3,0.1-14.6,0.2-21.9c0-4.8-0.5-9.6-0.8-14.4h-5.2v20.2
				c0,2.1-0.7,3.8-2.2,5.3c-1.5,1.5-3.2,2.2-5.3,2.2H14.7v15.3h20.2c2.1,0,3.8,0.7,5.3,2.2c1.5,1.5,2.2,3.2,2.2,5.3v20.2h6.1
				C48,80.8,48.2,76.2,48.3,71.5z"/>
		</g>
	</g>
	<g>
		<path id="Layer1_0_1_STROKES" class="st4" d="M65.2,65.2v22.3c-0.7,3.1-2.5,4.9-5.4,5.3H40.2c-2.9-0.4-4.7-2.2-5.4-5.3
			c0,0,0-19.5,0-22.1"/>
		<path class="st4" d="M34.6,34.8c0.2,0,0.3,0,0.3,0V12.5c0.7-3.2,2.5-5,5.4-5.3h19.6c2.8,0.5,4.6,2.3,5.4,5.3v22.3"/>
	</g>
	<g>
		
			<linearGradient id="Layer1_0_3_STROKES_2_" gradientUnits="userSpaceOnUse" x1="50" y1="139.4875" x2="50" y2="127.5125" gradientTransform="matrix(-6.123234e-17 -1 -1 6.123234e-17 160 100)">
			<stop  offset="0" style="stop-color:#404040"/>
			<stop  offset="1" style="stop-color:#1B1B1B"/>
		</linearGradient>
		<path id="Layer1_0_3_STROKES_1_" class="st5" d="M34.8,65.2H12.5c-3.2-0.7-5-2.5-5.3-5.4V40.2c0.5-2.8,2.3-4.6,5.3-5.4h22.3"/>
	</g>
	<g>
		
			<linearGradient id="Layer1_0_3_STROKES_3_" gradientUnits="userSpaceOnUse" x1="50" y1="81.4875" x2="50" y2="69.5125" gradientTransform="matrix(6.123234e-17 1 1 -6.123234e-17 -2 0)">
			<stop  offset="0" style="stop-color:#404040"/>
			<stop  offset="1" style="stop-color:#1B1B1B"/>
		</linearGradient>
		<path id="Layer1_0_3_STROKES" class="st6" d="M65.2,34.8h22.3c3.2,0.7,4.9,2.5,5.3,5.4v19.6c-0.5,2.8-2.3,4.6-5.3,5.4H65.2"/>
	</g>
</g>
</svg>
