<?xml version="1.0" encoding="utf-8"?>
<!-- Generator: Adobe Illustrator 24.1.2, SVG Export Plug-In . SVG Version: 6.00 Build 0)  -->
<svg version="1.1" id="Layer_1" xmlns="http://www.w3.org/2000/svg" xmlns:xlink="http://www.w3.org/1999/xlink" x="0px" y="0px"
	 viewBox="0 0 100 100" style="enable-background:new 0 0 100 100;" xml:space="preserve">
<style type="text/css">
	.st0{fill:#6E6E6E;}
	.st1{fill:#353535;}
	.st2{fill:#4D4D4D;}
	.st3{fill:#D7D7D7;}
	.st4{fill:#F5F5F5;}
	.st5{fill:#888888;}
	.st6{fill:none;stroke:#1F1F1F;stroke-width:4;stroke-linecap:round;stroke-linejoin:round;}
	.st7{fill:none;stroke:#A0A0A0;stroke-width:4;stroke-linecap:round;stroke-linejoin:round;}
	.st8{fill:none;stroke:#404040;stroke-width:4;stroke-linecap:round;stroke-linejoin:round;}
	.st9{fill:none;stroke:#FFFFFF;stroke-width:4;stroke-linecap:round;stroke-linejoin:round;}
	.st10{fill:none;stroke:#FFFFFF;stroke-width:4;stroke-linejoin:round;}
</style>
<g transform="matrix( 1, 0, 0, 1, 0,0) ">
	<g>
		<g id="Layer1_0_FILL">
			<path class="st0" d="M90.3,62.9L90.3,62.9c2-6,2.4-12.1,1.5-18.5L91,40.1c-0.2-0.8-0.4-1.7-0.7-2.5h-0.2c0,0,0,0.1,0.1,0.1
				c0.2,0.8,0.5,1.7,0.7,2.5l0.8,4.3C92.7,50.8,92.2,56.9,90.3,62.9L90.3,62.9 M44.7,16L44.7,16L41,34.3c-0.2,1.3-0.8,2.5-1.5,3.6
				c-0.3,0.3-0.6,0.7-0.9,1L38.5,39c-0.3,0.3-0.7,0.6-1,0.9c-1.1,0.8-2.3,1.4-3.7,1.6l-18.1,3.7c-0.5,3.5-0.6,7-0.1,10.4l18.2,3.6
				c1.9,0.4,3.5,1.2,4.8,2.5c0.1,0.1,0.3,0.3,0.4,0.4c1.1,1.2,1.8,2.7,2.1,4.3l3.6,18c3.4,0.5,6.9,0.5,10.5-0.1l3.6-18
				c0.3-1.5,0.9-2.9,1.8-4c0.1-0.2,0.3-0.3,0.4-0.4c0.1-0.1,0.2-0.2,0.3-0.4l0.1-0.1c0.3-0.3,0.7-0.6,1-0.9c1.1-0.8,2.3-1.3,3.6-1.6
				l18.2-3.7l0,0c0.5-3.4,0.5-6.8,0-10.3l-18.1-3.6c-1.8-0.4-3.4-1.2-4.8-2.5c-1.3-1.3-2.2-2.9-2.5-4.7l-3.6-18.2
				C51.6,15.5,48.1,15.5,44.7,16 M44.9,17.2L44.9,17.2c3.3-0.5,6.7-0.4,10.1,0.1l3.5,17.5c0.3,1.8,1.1,3.3,2.4,4.6
				c1.3,1.3,2.8,2.1,4.6,2.5l17.4,3.4c0.5,3.4,0.5,6.7,0.1,10c0,0,0,0,0,0.1l-17.6,3.5c-1.3,0.3-2.4,0.8-3.4,1.5
				c-0.3,0.2-0.7,0.5-1,0.8l-0.1,0.1c-0.2,0.2-0.5,0.5-0.7,0.8v0.1c-0.8,1.1-1.4,2.3-1.7,3.8l-3.6,17.2c-3.4,0.5-6.8,0.5-10.1,0
				l-3.5-17.3c-0.3-1.4-0.8-2.7-1.7-3.8c-0.2-0.3-0.5-0.6-0.8-0.9c-1.3-1.3-2.8-2.1-4.6-2.4l-17.3-3.4c-0.5-3.3-0.5-6.7,0-10.1
				l17.5-3.4c1.3-0.3,2.5-0.8,3.5-1.6c0.4-0.3,0.7-0.5,1-0.8l0.1-0.1c0.3-0.3,0.6-0.6,0.9-0.9c0.8-1,1.3-2.2,1.5-3.5L44.9,17.2
				 M37.2,9.8L37.2,9.8l-4.6,23.3v0.1L9.5,37.7l0,0c-2.6,8.8-2.6,17.2,0,25.2h0.1l23.1,4.6l0.1-0.1l6.1-5.2
				c-0.1-0.1-0.3-0.3-0.4-0.4c-1.3-1.3-2.9-2.2-4.8-2.5l-18.2-3.7c-0.5-3.4-0.5-6.9,0.1-10.4l18.1-3.6c1.4-0.3,2.6-0.8,3.7-1.6
				c0.3-0.3,0.7-0.6,1-0.9l0.1-0.1c0.3-0.3,0.6-0.7,0.9-1c0.8-1.1,1.3-2.3,1.5-3.6l3.7-18.3l0,0c3.4-0.5,6.9-0.5,10.4,0l3.6,18.2
				c0.3,1.9,1.2,3.4,2.5,4.7s2.9,2.2,4.8,2.5l18.2,3.7c0.5,3.5,0.5,7,0,10.3l0,0l-18.2,3.7c-1.3,0.3-2.5,0.8-3.6,1.6
				c-0.3,0.2-0.7,0.5-1,0.9l-0.1,0.1c-0.1,0.1-0.2,0.2-0.3,0.4c-0.1,0.1-0.3,0.2-0.4,0.4l6.7,5.1h0.1l23-4.7h0.1v-0.1
				c1.9-5.9,2.4-12.1,1.4-18.4L91,40.2c-0.2-0.8-0.4-1.7-0.7-2.5l-23.2-4.5L62.5,9.9V9.8C53.7,7.2,45.3,7.2,37.2,9.8
				C37.3,9.8,37.3,9.8,37.2,9.8 M37.4,9.8L37.4,9.8c8-2.5,16.4-2.5,25.2,0v0.1h0.1V9.8V9.7C53.9,7.1,45.4,7.1,37.4,9.8L37.4,9.8z"/>
			<path class="st1" d="M90.3,62.9L90.3,62.9L90.3,62.9c-0.5,1.7-1.1,3.2-1.8,4.7C89.3,66,89.9,64.5,90.3,62.9L90.3,62.9 M67.2,67.6
				L67.2,67.6l-4.7,23l0,0c1.6-0.5,3.2-1.1,4.8-1.8c4.5-2.1,8.7-5,12.4-8.8l0.1-0.1c3.8-3.8,6.7-7.9,8.7-12.4c0.7-1.5,1.2-3,1.7-4.6
				L67.2,67.6 M71,71.4L71,71.4L82.7,69c-0.4,0.7-0.8,1.4-1.3,2c-1.3,2-2.9,3.9-4.8,5.7l-0.1,0.1c-1.8,1.8-3.7,3.4-5.8,4.8
				c-0.7,0.5-1.4,1-2.2,1.4L71,71.4 M37.2,90.6l-4.5-23L9.6,63c2,6.3,5.5,12,10.5,17.1C25.1,85.1,30.8,88.6,37.2,90.6 M23.2,76.9
				c-2.4-2.4-4.4-5-6-7.8l11.6,2.4l2.3,11.6C28.3,81.4,25.7,79.3,23.2,76.9 M62.7,9.8L62.7,9.8c6.4,2,12.1,5.5,17.1,10.6
				c5.1,5.1,8.6,10.8,10.5,17.2h0.2c-1.9-6.4-5.5-12.2-10.6-17.3S69.1,11.7,62.7,9.8 M62.7,9.9C62.6,9.9,62.6,9.9,62.7,9.9l4.5,23.2
				l23.2,4.5c0,0,0-0.1-0.1-0.1c-1.9-6.4-5.4-12.1-10.5-17.2C74.7,15.3,69,11.8,62.7,9.9 M68.6,17.4L68.6,17.4
				c2.9,1.7,5.5,3.7,7.9,6.2c2.5,2.5,4.5,5.1,6.2,8l0.1,0.1L71,29.4L68.6,17.4 M37.2,9.9c-1.6,0.5-3.1,1-4.6,1.7
				c-4.5,2-8.7,4.9-12.5,8.7L20,20.4c-3.8,3.8-6.7,8-8.8,12.5c-0.7,1.5-1.3,3.1-1.8,4.8h0.1l23.1-4.5v-0.1L37.2,9.9 M29.1,18.6
				c0.7-0.4,1.4-0.9,2-1.3l-2.3,11.9v0.1l-11.9,2.3c0.4-0.7,0.9-1.5,1.4-2.2c1.4-2,3-4,4.8-5.8l0.1-0.1C25.2,21.6,27.1,20,29.1,18.6
				 M37.4,9.8L37.4,9.8c-1.6,0.4-3.2,1-4.8,1.8c1.5-0.7,3.1-1.2,4.6-1.7V9.8C37.3,9.8,37.3,9.8,37.4,9.8z"/>
			<path class="st2" d="M71.1,71.4L71.1,71.4L68.7,83c0.7-0.4,1.5-0.9,2.2-1.4c2-1.4,3.9-3,5.8-4.8l0.1-0.1c1.8-1.8,3.4-3.7,4.8-5.7
				c0.4-0.7,0.9-1.4,1.3-2L71.1,71.4 M17.2,69.1c1.6,2.8,3.6,5.4,6,7.8c2.5,2.4,5.1,4.5,7.9,6.1l-2.3-11.6L17.2,69.1 M68.7,17.4
				L68.7,17.4L71,29.2l11.8,2.3l-0.1-0.1c-1.6-2.8-3.7-5.5-6.2-8C74.1,21.1,71.5,19.1,68.7,17.4 M31.2,17.4c-0.7,0.4-1.4,0.8-2,1.3
				c-2,1.4-3.9,3-5.8,4.8l-0.1,0.1c-1.8,1.9-3.5,3.8-4.8,5.8c-0.5,0.7-1,1.5-1.4,2.2l11.8-2.3v-0.1L31.2,17.4z"/>
			<path class="st3" d="M37.2,90.6L37.2,90.6c8.1,2.6,16.6,2.6,25.4,0v-0.1l0,0l4.6-23l-6.7-5.1c-0.9,1.1-1.5,2.5-1.8,4l-3.6,18
				c-3.6,0.5-7.1,0.6-10.5,0.1l-3.6-18c-0.3-1.7-1-3.1-2.1-4.3l-6.2,5.3l-0.1,0.1L37.2,90.6z"/>
			<path class="st3" d="M11,37.4L11,37.4C8.4,45.5,8.4,54,11,62.8h0.1l0,0l23,4.6l5.1-6.7c-1.1-0.9-2.5-1.5-4-1.8l-18-3.6
				c-0.5-3.6-0.6-7.1-0.1-10.5l18-3.6c1.7-0.3,3.1-1,4.3-2.1l-5.3-6.2L34,32.8L11,37.4z"/>
			<path class="st4" d="M38.1,40.2L38.1,40.2C38,40.1,38,40.1,38,40c-1.1,0.8-2.3,1.4-3.8,1.7l-17.3,3.5c-0.5,3.3-0.5,6.7,0,10.1
				l17.3,3.5c1.4,0.3,2.7,0.8,3.8,1.7c0,0,0.1-0.1,0.1-0.2C42.6,53.5,42.6,46.8,38.1,40.2z"/>
			<path class="st4" d="M39.9,62L39.9,62c-0.1,0.1-0.1,0.1-0.2,0.1c0.8,1.1,1.4,2.3,1.7,3.8l3.5,17.3c3.3,0.5,6.7,0.5,10.1,0
				l3.5-17.3c0.3-1.4,0.8-2.7,1.7-3.8c0,0-0.1-0.1-0.2-0.1C53.2,57.5,46.5,57.5,39.9,62z"/>
			<path class="st5" d="M44.9,17.2c-1,3.2-2.8,19.5-5.4,21.6c1.5,2.9,1.9,7.2,1.7,11.4c-0.2,6.1-1.5,11.9-1.4,12l0.1-0.1
				c6.6-4.5,13.3-4.5,20,0c0.1,0,0.1,0.1,0.2,0.1v-0.1c2.5-4.4,18.6-5.3,22.8-6.7c0.5-3.3,0.4-6.7-0.1-10.1
				c-26.1-4.7-23-2.3-27.9-28C51.5,16.8,48.2,16.7,44.9,17.2z"/>
		</g>
	</g>
	<g>
		<path id="Layer1_0_1_STROKES" class="st6" d="M37.2,9.9C37.2,9.8,37.3,9.8,37.2,9.9c-1.5,0.4-3.1,1-4.7,1.7
			C34.1,10.9,35.7,10.3,37.2,9.9l-4.6,23.2v0.1 M67.2,67.6L67.2,67.6l23.1-4.7h0.1v-0.1c1.9-5.9,2.4-12.1,1.4-18.4L91,40.1
			c-0.2-0.8-0.4-1.7-0.7-2.5l-23.2-4.5L62.5,9.8V9.7c-8.8-2.6-17.2-2.6-25.2,0 M37.4,9.8L37.4,9.8c8.1-2.6,16.5-2.6,25.3-0.1v0.1
			c6.4,1.9,12.1,5.4,17.2,10.5s8.6,10.9,10.6,17.3c0.2,0.8,0.5,1.7,0.7,2.5l0.8,4.3c0.9,6.4,0.5,12.5-1.4,18.5h-0.1
			c-0.5,1.6-1.1,3.2-1.8,4.7c-2,4.5-4.9,8.6-8.7,12.4l-0.1,0.1c-3.8,3.8-7.9,6.7-12.4,8.7c-1.5,0.7-3.1,1.3-4.8,1.8l0,0 M62.6,9.9
			L62.6,9.9L62.6,9.9 M62.7,9.9c6.4,1.9,12,5.4,17.1,10.5s8.6,10.8,10.5,17.2h0.2 M9.5,37.7c0.5-1.6,1.1-3.2,1.8-4.8
			c2.1-4.5,5-8.7,8.8-12.5l0.1-0.1c3.8-3.8,7.9-6.7,12.5-8.7 M90.3,62.9L90.3,62.9 M88.6,67.5c0.7-1.5,1.2-3,1.7-4.6 M90.2,37.5
			C90.2,37.5,90.2,37.6,90.2,37.5"/>
	</g>
	<g>
		<path id="Layer1_0_2_STROKES" class="st7" d="M39.4,37.9C39.4,37.9,39.4,37.9,39.4,37.9c0.8-1.1,1.3-2.3,1.5-3.6L44.6,16h0.1
			c3.4-0.5,6.8-0.5,10.4,0l3.6,18.2c0.3,1.9,1.2,3.4,2.5,4.7s2.9,2.2,4.8,2.5l18.1,3.8c0.5,3.5,0.5,6.9,0,10.3c0,0,0,0,0,0.1
			l-18.2,3.6c-1.3,0.3-2.5,0.8-3.6,1.6c-0.4,0.3-0.7,0.6-1,0.9l-0.1,0.1c-0.1,0.1-0.2,0.2-0.3,0.3s-0.3,0.3-0.4,0.4"/>
	</g>
	<g>
		<path id="Layer1_0_3_STROKES" class="st8" d="M62.6,90.6c-8.8,2.6-17.3,2.6-25.4,0 M32.7,67.6l4.5,23 M67.2,67.6l-4.6,23l0,0"/>
	</g>
	<g>
		<path id="Layer1_0_3_STROKES_1_" class="st8" d="M9.5,62.8c-2.6-8.8-2.6-17.3,0-25.4 M32.5,32.9l-23,4.5 M32.5,67.4l-23-4.6l0,0"
			/>
	</g>
	<g>
		<path id="Layer1_0_4_STROKES" class="st9" d="M58.7,66.5l-3.6,18c-3.6,0.5-7.1,0.6-10.5,0.1l-3.6-18"/>
	</g>
	<g>
		<path id="Layer1_0_4_STROKES_1_" class="st9" d="M35,59.1l-18-3.6c-0.5-3.6-0.6-7.1-0.1-10.5l18-3.6"/>
	</g>
	<g>
		<path id="Layer1_0_5_STROKES" class="st10" d="M41.1,66.5c-0.3-1.7-1-3.1-2.1-4.3 M60.5,62.5c-0.9,1.1-1.5,2.5-1.8,4"/>
	</g>
</g>
</svg>
