
<svg xmlns="http://www.w3.org/2000/svg" version="1.1" xmlns:xlink="http://www.w3.org/1999/xlink" x="0px" y="0px" viewBox="0 0 100 100">
<defs>
<g id="Layer1_0_FILL">
<path fill="#FFFFFF" stroke="none" d="
M 49.7 66.65
L 46.5 66.65 38.85 84.35 43.1 84.35 44.6 80.6 51.45 80.6 53 84.35 57.4 84.35 49.7 66.65
M 50.15 77.3
L 45.8 77.3 48 71.8 50.15 77.3
M 68.6 66.9
Q 67.4 66.65 66.05 66.65
L 59.2 66.65 59.2 84.35 63.1 84.35 63.1 77.25 65 77.25 68.7 84.35 73.4 84.35 68.9 76.85
Q 70.75 76.55 71.75 75.2 72.7 73.9 72.7 72 72.7 70.45 72.2 69.45 71.65 68.4 70.75 67.8 69.85 67.15 68.6 66.9
M 65.4 73.95
L 63.1 73.95 63.1 69.95 65.65 69.95
Q 66.2 69.95 66.75 70 67.25 70.1 67.7 70.3 68.1 70.5 68.4 70.9 68.65 71.35 68.65 72 68.65 72.75 68.35 73.1 68.05 73.5 67.55 73.7 67.1 73.9 66.5 73.95 65.9 73.95 65.4 73.95
M 26.95 66.65
L 26.95 70.1 32 70.1 32 84.35 35.9 84.35 35.9 70.1 40.95 70.1 40.95 66.65 26.95 66.65
M 23 70.95
L 25.7 68.05
Q 24.55 67.05 23.15 66.65 21.75 66.2 20.25 66.2 18.95 66.2 17.7 66.55 16.5 66.9 15.55 67.65 14.6 68.35 14.05 69.45 13.5 70.5 13.5 71.95 13.5 73.4 14.1 74.35 14.75 75.2 15.65 75.8 16.6 76.35 17.65 76.65 18.75 77 19.65 77.3 20.6 77.6 21.2 78.1 21.8 78.55 21.8 79.35 21.8 79.8 21.6 80.2 21.35 80.55 20.95 80.75 20.55 81 20.1 81.1 19.6 81.2 19.1 81.2 18.15 81.2 17.2 80.75 16.3 80.3 15.7 79.55
L 12.95 82.6
Q 14.2 83.75 15.7 84.3 17.15 84.8 18.9 84.8 20.25 84.8 21.5 84.45 22.75 84.1 23.65 83.35 24.6 82.65 25.15 81.55 25.7 80.45 25.7 79 25.7 77.45 25.1 76.5 24.5 75.55 23.6 75 22.7 74.45 21.65 74.15 20.6 73.9 19.65 73.55 18.75 73.3 18.15 72.85 17.55 72.4 17.55 71.65 17.55 71.15 17.8 70.8 18.05 70.4 18.45 70.2 18.85 70 19.3 69.9 19.75 69.8 20.2 69.8 20.9 69.8 21.7 70.1 22.55 70.35 23 70.95
M 82.25 84.35
L 82.25 70.1 87.3 70.1 87.3 66.65 73.3 66.65 73.3 70.1 78.35 70.1 78.35 84.35 82.25 84.35 Z"/>

<path fill="#D7D7D7" stroke="none" d="
M 58.95 19.35
Q 58.85 19.35 40.95 19.35 32.25 19.4 26.05 25.05 19.8 30.75 19.8 38.8 19.8 46.85 26.05 52.55 32.25 58.2 40.95 58.25 58.9 58.25 58.95 58.25 67.75 58.25 74 52.55 80.2 46.85 80.2 38.8 80.2 30.75 74 25.05 67.75 19.35 58.95 19.35
M 40.95 26.85
L 41 26.85
Q 58.85 26.85 58.95 26.85 64.8 26.8 68.95 30.6 72.65 34 72.7 38.8 72.65 43.6 68.95 47
L 68.95 47.05
Q 64.8 50.8 58.95 50.75 58.9 50.75 41 50.75
L 40.95 50.75
Q 35.2 50.75 31.1 47 27.35 43.6 27.3 38.8 27.35 34 31.1 30.6 35.2 26.85 40.95 26.85 Z"/>

<path fill="#F5F5F5" stroke="none" d="
M 41 26.85
L 40.95 26.85
Q 35.2 26.85 31.1 30.6 27.35 34 27.3 38.8 27.35 43.6 31.1 47 35.2 50.75 40.95 50.75
L 41 50.75
Q 58.9 50.75 58.95 50.75 64.8 50.8 68.95 47.05
L 68.95 47
Q 72.65 43.6 72.7 38.8 72.65 34 68.95 30.6 64.8 26.8 58.95 26.85 58.85 26.85 41 26.85
M 43.25 31.25
L 60.45 38.85 43.25 46.45 43.25 31.25 Z"/>

<path fill="#9A9A9A" stroke="none" d="
M 60.45 38.85
L 43.25 31.25 43.25 46.45 60.45 38.85 Z"/>
</g>

<path id="Layer1_0_1_STROKES" stroke="#FFFFFF" stroke-width="4" stroke-linejoin="round" stroke-linecap="round" fill="none" d="
M 40.95 26.85
L 41 26.85
Q 58.85 26.85 58.95 26.85 64.8 26.8 68.95 30.6 72.65 34 72.7 38.8 72.65 43.6 68.95 47
L 68.95 47.05
Q 64.8 50.8 58.95 50.75 58.9 50.75 41 50.75
L 40.95 50.75
Q 35.2 50.75 31.1 47 27.35 43.6 27.3 38.8 27.35 34 31.1 30.6 35.2 26.85 40.95 26.85 Z"/>

<path id="Layer1_0_2_STROKES" stroke="#404040" stroke-width="5" stroke-linejoin="round" stroke-linecap="round" fill="none" d="
M 40.95 19.35
Q 58.85 19.35 58.95 19.35 67.75 19.35 74 25.05 80.2 30.75 80.2 38.8 80.2 46.85 74 52.55 67.75 58.25 58.95 58.25 58.9 58.25 40.95 58.25 32.25 58.2 26.05 52.55 19.8 46.85 19.8 38.8 19.8 30.75 26.05 25.05 32.25 19.4 40.95 19.35 Z"/>

</defs>

<g transform="matrix( 1, 0, 0, 1, 0,0) ">
<use xlink:href="#Layer1_0_FILL"/>

<use xlink:href="#Layer1_0_1_STROKES"/>

<use xlink:href="#Layer1_0_2_STROKES"/>
</g>

<g transform="matrix( 1, 0, 0, 1, -3.4,-28) ">
<clipPath id="Mask_Mask_1">
<rect x="19.6" y="-2" width="67.6" height="20.8" fill="#FFFFFF" stroke="none"/>
</clipPath>

<text clip-path="url(#Mask_Mask_1)" writing-mode="lr"><tspan x="21.7" y="13.6" baseline-shift="0%" kerning="auto" font-family="Arial_Regular" font-size="15" fill="#999999" xml:space="preserve">Xbox 360</tspan></text>
</g>
</svg>
