<?xml version="1.0" encoding="utf-8"?>
<!-- Generator: Adobe Illustrator 24.1.2, SVG Export Plug-In . SVG Version: 6.00 Build 0)  -->
<svg version="1.1" id="Layer_1" xmlns="http://www.w3.org/2000/svg" xmlns:xlink="http://www.w3.org/1999/xlink" x="0px" y="0px"
	 viewBox="0 0 100 100" style="enable-background:new 0 0 100 100;" xml:space="preserve">
<g transform="matrix( 1, 0, 0, 1, 0,0) ">
	<g>
		<g id="Layer1_0_FILL">
			
				<linearGradient id="SVGID_1_" gradientUnits="userSpaceOnUse" x1="-1223.3497" y1="706.3786" x2="-1212.8497" y2="719.3786" gradientTransform="matrix(-1 0 0 1 -1164 -668)">
				<stop  offset="0" style="stop-color:#D7D7D7"/>
				<stop  offset="1" style="stop-color:#313131"/>
			</linearGradient>
			<path style="fill:url(#SVGID_1_);" d="M7.2,59.8c0.5,2.8,2.3,4.6,5.3,5.4h22.3v22.3c0.7,3.2,2.5,5,5.4,5.3h19.6
				c2.8-0.5,4.6-2.3,5.4-5.3V65.2h22.3c3.1-0.7,4.9-2.5,5.3-5.4V40.2c-0.4-2.9-2.2-4.7-5.3-5.4H65.2V12.5c-0.7-3.1-2.5-4.9-5.4-5.3
				H40.2c-2.9,0.4-4.7,2.2-5.4,5.3v22.3H12.5c-3.2,0.7-5,2.5-5.3,5.4V59.8 M14.7,57.7V42.4h20.1c2.1,0,3.8-0.7,5.3-2.2
				s2.2-3.2,2.2-5.3V14.7h15.4v20.1c0,2.1,0.7,3.8,2.2,5.3s3.2,2.2,5.3,2.2h20.2v15.4H65.2c-2.1,0-3.8,0.7-5.3,2.2s-2.2,3.2-2.2,5.3
				v20.2H42.4V65.2c0-2.1-0.7-3.8-2.2-5.3s-3.2-2.2-5.3-2.2C34.9,57.7,14.7,57.7,14.7,57.7z"/>
			
				<linearGradient id="SVGID_2_" gradientUnits="userSpaceOnUse" x1="-1210.1138" y1="56.1019" x2="-1222.5887" y2="43.1019" gradientTransform="matrix(-1 0 0 1 -1164 -2)">
				<stop  offset="0" style="stop-color:#4F4F4F"/>
				<stop  offset="1" style="stop-color:#F5F5F5"/>
			</linearGradient>
			<path style="fill:url(#SVGID_2_);" d="M14.7,42.3v15.4h20.1c2.1,0,3.8,0.7,5.3,2.2s2.2,3.2,2.2,5.3v20.2h15.4V65.2
				c0-2.1,0.7-3.8,2.2-5.3s3.2-2.2,5.3-2.2h20.2V42.4H65.2c-2.1,0-3.8-0.7-5.3-2.2s-2.2-3.2-2.2-5.3V14.7H42.4v20.1
				c0,2.1-0.7,3.8-2.2,5.3s-3.2,2.2-5.3,2.2H14.7z"/>
		</g>
	</g>
	<g>
		<path id="Layer1_0_1_STROKES" style="fill:none;stroke:#1B1B1B;stroke-width:5;stroke-linecap:round;stroke-linejoin:round;" d="
			M65.2,65.2v22.3c-0.7,3.1-2.5,4.9-5.4,5.3H40.2c-2.9-0.4-4.7-2.2-5.4-5.3V65.2H12.5c-3.1-0.7-4.9-2.5-5.3-5.4V40.2
			c0.4-2.9,2.2-4.7,5.3-5.4h22.3V12.5c0.7-3.2,2.5-5,5.4-5.3h19.6c2.8,0.5,4.6,2.3,5.4,5.3v22.3"/>
	</g>
	<g>
		
			<linearGradient id="Layer1_0_2_STROKES_1_" gradientUnits="userSpaceOnUse" x1="-1220.4053" y1="43.2841" x2="-1212.4303" y2="54.2841" gradientTransform="matrix(-1 0 0 1 -1164 -2)">
			<stop  offset="0" style="stop-color:#FFFFFF"/>
			<stop  offset="1" style="stop-color:#626262"/>
		</linearGradient>
		
			<path id="Layer1_0_2_STROKES" style="fill:none;stroke:url(#Layer1_0_2_STROKES_1_);stroke-width:4;stroke-linecap:round;stroke-linejoin:round;" d="
			M14.7,57.7V42.4h20.1c2.1,0,3.8-0.7,5.3-2.2s2.2-3.2,2.2-5.3V14.7h15.4v20.1c0,2.1,0.7,3.8,2.2,5.3s3.2,2.2,5.3,2.2h20.2v15.4
			H65.2c-2.1,0-3.8,0.7-5.3,2.2s-2.2,3.2-2.2,5.3v20.2H42.4V65.2c0-2.1-0.7-3.8-2.2-5.3s-3.2-2.2-5.3-2.2
			C34.9,57.7,14.7,57.7,14.7,57.7z"/>
	</g>
	<g>
		
			<linearGradient id="Layer1_0_3_STROKES_1_" gradientUnits="userSpaceOnUse" x1="-1243.4875" y1="52" x2="-1231.5125" y2="52" gradientTransform="matrix(-1 0 0 1 -1164 -2)">
			<stop  offset="0" style="stop-color:#404040"/>
			<stop  offset="1" style="stop-color:#1B1B1B"/>
		</linearGradient>
		
			<path id="Layer1_0_3_STROKES" style="fill:none;stroke:url(#Layer1_0_3_STROKES_1_);stroke-width:5;stroke-linecap:round;stroke-linejoin:round;" d="
			M65.2,34.8h22.3c3.2,0.7,5,2.5,5.3,5.4v19.6c-0.5,2.8-2.3,4.6-5.3,5.4H65.2"/>
	</g>
</g>
</svg>
