<?xml version="1.0" encoding="utf-8"?>
<!-- Generator: Adobe Illustrator 24.1.2, SVG Export Plug-In . SVG Version: 6.00 Build 0)  -->
<svg version="1.1" id="Layer_1" xmlns="http://www.w3.org/2000/svg" xmlns:xlink="http://www.w3.org/1999/xlink" x="0px" y="0px"
	 viewBox="0 0 100 100" style="enable-background:new 0 0 100 100;" xml:space="preserve">
<g transform="matrix( 1, 0, 0, 1, 0,0) ">
	<g>
		<g id="Layer1_0_FILL">
			<path style="fill:#6E6E6E;" d="M37.3,90.4L37.3,90.4c6,2,12.1,2.4,18.5,1.5l4.3-0.8c0.8-0.2,1.7-0.4,2.5-0.7v-0.2
				c0,0-0.1,0-0.1,0.1c-0.8,0.2-1.7,0.5-2.5,0.7l-4.3,0.8C49.4,92.8,43.3,92.3,37.3,90.4L37.3,90.4 M84.2,44.8L84.2,44.8l-18.3-3.7
				c-1.3-0.2-2.5-0.8-3.6-1.5c-0.3-0.3-0.7-0.6-1-0.9l-0.1-0.1c-0.3-0.3-0.6-0.7-0.9-1c-0.8-1.1-1.4-2.3-1.6-3.7L55,15.8
				c-3.5-0.5-7-0.6-10.4-0.1L41,33.9c-0.4,1.9-1.2,3.5-2.5,4.8c-0.1,0.1-0.3,0.3-0.4,0.4c-1.2,1.1-2.7,1.8-4.3,2.1l-18,3.6
				c-0.5,3.4-0.5,6.9,0.1,10.5l18,3.6c1.5,0.3,2.9,0.9,4,1.8c0.2,0.1,0.3,0.3,0.4,0.4c0.1,0.1,0.2,0.2,0.4,0.3l0.1,0.1
				c0.3,0.3,0.6,0.7,0.9,1c0.8,1.1,1.3,2.3,1.6,3.6L45,84.3l0,0c3.4,0.5,6.8,0.5,10.3,0l3.6-18.1c0.4-1.8,1.2-3.4,2.5-4.8
				c1.3-1.3,2.9-2.2,4.7-2.5l18.2-3.6C84.7,51.7,84.7,48.2,84.2,44.8 M83,45L83,45c0.5,3.3,0.4,6.7-0.1,10.1l-17.5,3.5
				c-1.8,0.3-3.3,1.1-4.6,2.4c-1.3,1.3-2.1,2.8-2.5,4.6L54.9,83c-3.4,0.5-6.7,0.5-10,0.1c0,0,0,0-0.1,0l-3.5-17.6
				c-0.3-1.3-0.8-2.4-1.5-3.4c-0.2-0.3-0.5-0.7-0.8-1L38.9,61c-0.2-0.2-0.5-0.5-0.8-0.7H38c-1.1-0.8-2.3-1.4-3.8-1.7L17,55
				c-0.5-3.4-0.5-6.8,0-10.1l17.3-3.5c1.4-0.3,2.7-0.8,3.8-1.7c0.3-0.2,0.6-0.5,0.9-0.8c1.3-1.3,2.1-2.8,2.4-4.6L44.8,17
				c3.3-0.5,6.7-0.5,10.1,0l3.4,17.5c0.3,1.3,0.8,2.5,1.6,3.5c0.3,0.4,0.5,0.7,0.8,1l0.1,0.1c0.3,0.3,0.6,0.6,0.9,0.9
				c1,0.8,2.2,1.3,3.5,1.5L83,45 M90.4,37.3L90.4,37.3l-23.3-4.6H67L62.5,9.6l0,0C53.7,7,45.3,7,37.3,9.6v0.1l-4.6,23.1l0.1,0.1
				L38,39c0.1-0.1,0.3-0.3,0.4-0.4c1.3-1.3,2.2-2.9,2.5-4.8l3.7-18.2c3.4-0.5,6.9-0.5,10.4,0.1l3.6,18.1c0.3,1.4,0.8,2.6,1.6,3.7
				c0.3,0.3,0.6,0.7,0.9,1l0.1,0.1c0.3,0.3,0.7,0.6,1,0.9c1.1,0.8,2.3,1.3,3.6,1.5l18.3,3.7l0,0c0.5,3.4,0.5,6.9,0,10.4l-18.2,3.6
				c-1.9,0.3-3.4,1.2-4.7,2.5S59,64.1,58.7,66L55,84.2c-3.5,0.5-7,0.5-10.3,0l0,0L41,66c-0.3-1.3-0.8-2.5-1.6-3.6
				c-0.2-0.3-0.5-0.7-0.9-1l-0.1-0.1c-0.1-0.1-0.2-0.2-0.4-0.3c-0.1-0.1-0.2-0.3-0.4-0.4l-5.1,6.7v0.1l4.7,23v0.1h0.1
				c5.9,1.9,12.1,2.4,18.4,1.4l4.3-0.8c0.8-0.2,1.7-0.4,2.5-0.7L67,67.2l23.3-4.6h0.1C93,53.8,93,45.4,90.4,37.3
				C90.4,37.4,90.4,37.4,90.4,37.3 M90.4,37.5L90.4,37.5c2.5,8,2.5,16.4,0,25.2h-0.1v0.1h0.1h0.1C93.1,54,93.1,45.5,90.4,37.5
				L90.4,37.5z"/>
			<path style="fill:#353535;" d="M37.3,90.4L37.3,90.4L37.3,90.4c-1.7-0.5-3.2-1.1-4.7-1.8C34.2,89.4,35.7,90,37.3,90.4L37.3,90.4
				 M32.6,67.3L32.6,67.3l-23-4.7l0,0c0.5,1.6,1.1,3.2,1.8,4.8c2.1,4.5,5,8.7,8.8,12.4l0.1,0.1c3.8,3.8,7.9,6.7,12.4,8.7
				c1.5,0.7,3,1.2,4.6,1.7L32.6,67.3 M28.8,71.1L28.8,71.1l2.4,11.7c-0.7-0.4-1.4-0.8-2-1.3c-2-1.3-3.9-2.9-5.7-4.8l-0.1-0.1
				c-1.8-1.8-3.4-3.7-4.8-5.8c-0.5-0.7-1-1.4-1.4-2.2L28.8,71.1 M9.6,37.3l23-4.5l4.6-23.1c-6.3,2-12,5.5-17.1,10.5
				C15.1,25.2,11.6,30.9,9.6,37.3 M23.3,23.3c2.4-2.4,5-4.4,7.8-6l-2.4,11.6l-11.6,2.3C18.8,28.4,20.9,25.8,23.3,23.3 M90.4,62.8
				L90.4,62.8c-2,6.4-5.5,12.1-10.6,17.1C74.7,85,69,88.5,62.6,90.4v0.2C69,88.7,74.8,85.1,79.9,80S88.5,69.2,90.4,62.8 M90.3,62.8
				C90.3,62.7,90.3,62.7,90.3,62.8l-23.2,4.5l-4.5,23.2c0,0,0.1,0,0.1-0.1c6.4-1.9,12.1-5.4,17.2-10.5
				C84.9,74.8,88.4,69.1,90.3,62.8 M82.8,68.7L82.8,68.7c-1.7,2.9-3.7,5.5-6.2,7.9c-2.5,2.5-5.1,4.5-8,6.2l-0.1,0.1l2.3-11.8
				L82.8,68.7 M90.3,37.3c-0.5-1.6-1-3.1-1.7-4.6c-2-4.5-4.9-8.7-8.7-12.5l-0.1-0.1c-3.8-3.8-8-6.7-12.5-8.8
				c-1.5-0.7-3.1-1.3-4.8-1.8v0.1L67,32.7h0.1L90.3,37.3 M81.6,29.2c0.4,0.7,0.9,1.4,1.3,2L71,28.9h-0.1L68.6,17
				c0.7,0.4,1.5,0.9,2.2,1.4c2,1.4,4,3,5.8,4.8l0.1,0.1C78.6,25.3,80.2,27.2,81.6,29.2 M90.4,37.5L90.4,37.5c-0.4-1.6-1-3.2-1.8-4.8
				c0.7,1.5,1.2,3.1,1.7,4.6h0.1C90.4,37.4,90.4,37.4,90.4,37.5z"/>
			<path style="fill:#4D4D4D;" d="M28.8,71.2L28.8,71.2l-11.6-2.4c0.4,0.7,0.9,1.5,1.4,2.2c1.4,2,3,3.9,4.8,5.8l0.1,0.1
				c1.8,1.8,3.7,3.4,5.7,4.8c0.7,0.4,1.4,0.9,2,1.3L28.8,71.2 M31.1,17.3c-2.8,1.6-5.4,3.6-7.8,6c-2.4,2.5-4.5,5.1-6.1,7.9l11.6-2.3
				L31.1,17.3 M82.8,68.8L82.8,68.8L71,71.1l-2.3,11.8l0.1-0.1c2.8-1.6,5.5-3.7,8-6.2C79.1,74.2,81.1,71.6,82.8,68.8 M82.8,31.3
				c-0.4-0.7-0.8-1.4-1.3-2c-1.4-2-3-3.9-4.8-5.8l-0.1-0.1c-1.9-1.8-3.8-3.5-5.8-4.8c-0.7-0.5-1.5-1-2.2-1.4L70.9,29H71L82.8,31.3z"
				/>
			<path style="fill:#D7D7D7;" d="M9.6,37.3L9.6,37.3C7,45.4,7,53.9,9.6,62.7h0.1l0,0l23,4.6l5.1-6.7c-1.1-0.9-2.5-1.5-4-1.8
				l-18-3.6c-0.5-3.6-0.6-7.1-0.1-10.5l18-3.6c1.7-0.3,3.1-1,4.3-2.1l-5.3-6.2l-0.1-0.1L9.6,37.3z"/>
			<path style="fill:#D7D7D7;" d="M62.7,11L62.7,11c-8.1-2.6-16.6-2.6-25.4,0v0.1l0,0l-4.6,23l6.7,5.1c0.9-1.1,1.5-2.5,1.8-4l3.6-18
				c3.6-0.5,7.1-0.6,10.5-0.1l3.6,18c0.3,1.7,1,3.1,2.1,4.3l6.2-5.3l0.1-0.1L62.7,11z"/>
			<path style="fill:#F5F5F5;" d="M60,38.2L60,38.2c0.1-0.1,0.1-0.1,0.2-0.1c-0.8-1.1-1.4-2.3-1.7-3.8L55,17
				c-3.3-0.5-6.7-0.5-10.1,0l-3.5,17.3c-0.3,1.4-0.8,2.7-1.7,3.8c0,0,0.1,0.1,0.2,0.1C46.7,42.7,53.4,42.7,60,38.2z"/>
			<path style="fill:#F5F5F5;" d="M38.2,40L38.2,40c-0.1-0.1-0.1-0.1-0.1-0.2c-1.1,0.8-2.3,1.4-3.8,1.7L17,45
				c-0.5,3.3-0.5,6.7,0,10.1l17.3,3.5c1.4,0.3,2.7,0.8,3.8,1.7c0,0,0.1-0.1,0.1-0.2C42.7,53.3,42.7,46.6,38.2,40z"/>
			<path style="fill:#888888;" d="M83,45c-3.2-1-19.5-2.8-21.6-5.4c-2.9,1.5-7.2,1.9-11.4,1.7c-6.1-0.2-11.9-1.5-12-1.4l0.1,0.1
				c4.5,6.6,4.5,13.3,0,20c0,0.1-0.1,0.1-0.1,0.2h0.1c4.4,2.5,5.3,18.6,6.7,22.8c3.3,0.5,6.7,0.4,10.1-0.1c4.7-26.1,2.3-23,28-27.9
				C83.4,51.6,83.5,48.3,83,45z"/>
		</g>
	</g>
	<g>
		<path id="Layer1_0_1_STROKES" style="fill:none;stroke:#1F1F1F;stroke-width:4;stroke-linecap:round;stroke-linejoin:round;" d="
			M90.3,37.3C90.4,37.3,90.4,37.4,90.3,37.3c-0.4-1.5-1-3.1-1.7-4.7C89.3,34.2,89.9,35.8,90.3,37.3l-23.2-4.6H67 M32.6,67.3
			L32.6,67.3l4.7,23.1v0.1h0.1c5.9,1.9,12.1,2.4,18.4,1.4l4.3-0.8c0.8-0.2,1.7-0.4,2.5-0.7l4.5-23.2l23.3-4.6h0.1
			c2.6-8.8,2.6-17.2,0-25.2 M90.4,37.5L90.4,37.5C93,45.6,93,54,90.5,62.8h-0.1C88.5,69.2,85,74.9,79.9,80S69,88.6,62.6,90.6
			c-0.8,0.2-1.7,0.5-2.5,0.7l-4.3,0.8c-6.4,0.9-12.5,0.5-18.5-1.4v-0.1c-1.6-0.5-3.2-1.1-4.7-1.8c-4.5-2-8.6-4.9-12.4-8.7L20.1,80
			c-3.8-3.8-6.7-7.9-8.7-12.4c-0.7-1.5-1.3-3.1-1.8-4.8l0,0 M90.3,62.7L90.3,62.7L90.3,62.7 M90.3,62.8c-1.9,6.4-5.4,12-10.5,17.1
			S69,88.5,62.6,90.4v0.2 M62.5,9.6c1.6,0.5,3.2,1.1,4.8,1.8c4.5,2.1,8.7,5,12.5,8.8l0.1,0.1c3.8,3.8,6.7,7.9,8.7,12.5 M37.3,90.4
			L37.3,90.4 M32.7,88.7c1.5,0.7,3,1.2,4.6,1.7 M62.7,90.3C62.7,90.3,62.6,90.3,62.7,90.3"/>
	</g>
	<g>
		<path id="Layer1_0_2_STROKES" style="fill:none;stroke:#A0A0A0;stroke-width:4;stroke-linecap:round;stroke-linejoin:round;" d="
			M62.3,39.5L62.3,39.5c1.1,0.8,2.3,1.3,3.6,1.5l18.3,3.7v0.1c0.5,3.4,0.5,6.8,0,10.4L66,58.8c-1.9,0.3-3.4,1.2-4.7,2.5
			s-2.2,2.9-2.5,4.8L55,84.2c-3.5,0.5-6.9,0.5-10.3,0c0,0,0,0-0.1,0L41,66c-0.3-1.3-0.8-2.5-1.6-3.6c-0.3-0.4-0.6-0.7-0.9-1
			l-0.1-0.1c-0.1-0.1-0.2-0.2-0.3-0.3s-0.3-0.3-0.4-0.4"/>
	</g>
	<g>
		<path id="Layer1_0_3_STROKES" style="fill:none;stroke:#404040;stroke-width:4;stroke-linecap:round;stroke-linejoin:round;" d="
			M9.6,62.7C7,53.9,7,45.4,9.6,37.3 M32.6,32.8l-23,4.5 M32.6,67.3l-23-4.6l0,0"/>
	</g>
	<g>
		
			<path id="Layer1_0_3_STROKES_1_" style="fill:none;stroke:#404040;stroke-width:4;stroke-linecap:round;stroke-linejoin:round;" d="
			M37.3,9.6C46.1,7,54.6,7,62.7,9.6 M67.2,32.6l-4.5-23 M32.7,32.6l4.6-23l0,0"/>
	</g>
	<g>
		<path id="Layer1_0_4_STROKES" style="fill:none;stroke:#FFFFFF;stroke-width:4;stroke-linecap:round;stroke-linejoin:round;" d="
			M33.7,58.8l-18-3.6c-0.5-3.6-0.6-7.1-0.1-10.5l18-3.6"/>
	</g>
	<g>
		
			<path id="Layer1_0_4_STROKES_1_" style="fill:none;stroke:#FFFFFF;stroke-width:4;stroke-linecap:round;stroke-linejoin:round;" d="
			M41.1,35.1l3.6-18c3.6-0.5,7.1-0.6,10.5-0.1l3.6,18"/>
	</g>
	<g>
		<path id="Layer1_0_5_STROKES" style="fill:none;stroke:#FFFFFF;stroke-width:4;stroke-linejoin:round;" d="M33.7,41.2
			c1.7-0.3,3.1-1,4.3-2.1 M37.7,60.6c-1.1-0.9-2.5-1.5-4-1.8"/>
	</g>
</g>
</svg>
