<?xml version="1.0" encoding="utf-8"?>
<!-- Generator: Adobe Illustrator 24.1.2, SVG Export Plug-In . SVG Version: 6.00 Build 0)  -->
<svg version="1.1" id="Layer_1" xmlns="http://www.w3.org/2000/svg" xmlns:xlink="http://www.w3.org/1999/xlink" x="0px" y="0px"
	 viewBox="0 0 100 100" style="enable-background:new 0 0 100 100;" xml:space="preserve">
<g transform="matrix( 1, 0, 0, 1, 0,0) ">
	<g>
		<g id="Layer1_0_FILL">
			<path style="fill:#1B1B1B;" d="M8.2,67.7c2.2,5.2,5.5,10,9.8,14.3c4.4,4.4,9.2,7.7,14.5,9.8V67.7H8.2 M29,86.2
				c-3-1.8-5.8-4-8.5-6.7c-2.6-2.6-4.8-5.4-6.6-8.3H29V86.2 M32.5,8.3c-5.3,2.2-10.1,5.5-14.5,9.9c-4.3,4.3-7.6,9.1-9.8,14.4h24.3
				V8.3 M20.5,20.5c2.7-2.6,5.5-4.8,8.5-6.6V29H13.9C15.7,26,17.9,23.2,20.5,20.5 M81.9,82c4.3-4.3,7.6-9.1,9.8-14.3H67.6v24.1
				C72.8,89.6,77.6,86.3,81.9,82 M71.1,86.1V71.2h15c-1.8,3-4,5.8-6.6,8.3C76.8,82.1,74.1,84.3,71.1,86.1 M91.7,32.5
				c-2.2-5.3-5.4-10.1-9.8-14.4c-4.3-4.3-9.1-7.6-14.3-9.8v24.2H91.7 M71.1,14c3,1.8,5.8,3.9,8.3,6.5c2.6,2.6,4.8,5.5,6.6,8.5h-15
				V14z"/>
			<path style="fill:#282828;" d="M20.5,79.5c2.7,2.7,5.5,4.9,8.5,6.7v-15H13.9C15.7,74.1,17.9,76.9,20.5,79.5 M29,13.9
				c-3,1.8-5.8,4-8.5,6.6c-2.6,2.6-4.8,5.5-6.6,8.5H29V13.9 M71.1,71.2v14.9c3-1.8,5.8-4,8.3-6.6c2.6-2.6,4.8-5.4,6.6-8.3H71.1
				 M79.4,20.5c-2.6-2.6-5.4-4.8-8.3-6.5v15h15C84.3,26,82.1,23.2,79.4,20.5z"/>
			
				<linearGradient id="SVGID_1_" gradientUnits="userSpaceOnUse" x1="46.8071" y1="55.096" x2="38.2321" y2="63.546" gradientTransform="matrix(1 0 0 -1 0 102)">
				<stop  offset="0" style="stop-color:#313131"/>
				<stop  offset="1" style="stop-color:#D7D7D7"/>
			</linearGradient>
			<path style="fill:url(#SVGID_1_);" d="M91.7,67.7c2.3-5.4,3.4-11.3,3.4-17.6S94,37.9,91.7,32.5H67.6V8.3C62.2,6,56.3,4.9,50,4.9
				c-6.3,0-12.1,1.1-17.5,3.3v24.3H8.2C6,37.9,4.8,43.7,4.8,50S6,62.3,8.2,67.7h24.3v24.2c5.4,2.2,11.2,3.3,17.5,3.3
				c6.4,0,12.3-1.2,17.6-3.4V67.7H91.7 M87.6,50c0,3.5-0.4,6.9-1.3,10.1H67.6c-2.1,0-3.8,0.7-5.3,2.2c-1.5,1.5-2.2,3.2-2.2,5.3v18.8
				c-3.2,0.8-6.6,1.2-10.1,1.3c-3.5,0-6.8-0.4-10-1.3V67.7c0-2.1-0.7-3.8-2.2-5.3c-1.5-1.5-3.2-2.2-5.3-2.2H13.6
				c-0.8-3.2-1.2-6.6-1.3-10.1c0-3.5,0.4-6.9,1.3-10h18.9c2.1,0,3.8-0.7,5.3-2.2s2.2-3.2,2.2-5.3V13.6c3.2-0.8,6.5-1.2,10-1.2
				c3.6,0,6.9,0.4,10.1,1.3v18.9c0,2.1,0.7,3.8,2.2,5.3s3.2,2.2,5.3,2.2h18.8C87.2,43.2,87.6,46.5,87.6,50z"/>
			
				<linearGradient id="SVGID_2_" gradientUnits="userSpaceOnUse" x1="50.038" y1="51.9371" x2="41.438" y2="60.4871" gradientTransform="matrix(1 0 0 -1 0 102)">
				<stop  offset="0" style="stop-color:#4F4F4F"/>
				<stop  offset="1" style="stop-color:#F5F5F5"/>
			</linearGradient>
			<path style="fill:url(#SVGID_2_);" d="M86.3,60.2c0.8-3.2,1.3-6.6,1.3-10.1s-0.4-6.9-1.3-10H67.6c-2.1,0-3.8-0.7-5.3-2.2
				s-2.2-3.2-2.2-5.3V13.6c-3.2-0.8-6.6-1.3-10.1-1.3c-3.5,0-6.8,0.4-10,1.2v18.9c0,2.1-0.7,3.8-2.2,5.3S34.5,40,32.5,40H13.6
				c-0.8,3.2-1.2,6.5-1.3,10c0,3.5,0.4,6.9,1.3,10.1h18.9c2.1,0,3.8,0.7,5.3,2.2c1.5,1.5,2.2,3.2,2.2,5.3v18.8
				c3.2,0.8,6.5,1.2,10,1.3c3.6,0,6.9-0.4,10.1-1.3V67.7c0-2.1,0.7-3.8,2.2-5.3c1.5-1.5,3.2-2.2,5.3-2.2H86.3z"/>
		</g>
	</g>
	<g>
		<path id="Layer1_0_1_STROKES" style="fill:none;stroke:#1B1B1B;stroke-width:5;stroke-linecap:round;stroke-linejoin:round;" d="
			M67.6,8.3c5.2,2.2,10,5.5,14.3,9.8c4.3,4.3,7.6,9.1,9.8,14.4c2.3,5.4,3.4,11.2,3.4,17.5S94,62.3,91.7,67.7
			c-2.2,5.2-5.4,10-9.8,14.3c-4.3,4.3-9.1,7.6-14.3,9.8C62.2,94,56.3,95.2,50,95.2c-6.3,0-12.1-1.1-17.5-3.3
			C27.2,89.7,22.4,86.4,18,82c-4.3-4.3-7.6-9.1-9.8-14.3 M8.2,32.5c2.2-5.3,5.5-10.1,9.8-14.4c4.4-4.4,9.2-7.7,14.5-9.9
			C37.8,6,43.6,4.9,50,4.9c6.4,0,12.3,1.1,17.6,3.4v24.2h24.1 M32.5,32.5V8.3 M32.5,91.8V67.7 M67.6,91.8V67.7h24.1"/>
	</g>
	<g>
		
			<linearGradient id="Layer1_0_2_STROKES_1_" gradientUnits="userSpaceOnUse" x1="43.9047" y1="57.4607" x2="37.6297" y2="63.1107" gradientTransform="matrix(1 0 0 -1 0 102)">
			<stop  offset="0" style="stop-color:#626262"/>
			<stop  offset="1" style="stop-color:#FFFFFF"/>
		</linearGradient>
		
			<path id="Layer1_0_2_STROKES" style="fill:none;stroke:url(#Layer1_0_2_STROKES_1_);stroke-width:4;stroke-linecap:round;stroke-linejoin:round;" d="
			M86.3,40c0.8,3.2,1.3,6.5,1.3,10s-0.4,6.9-1.3,10.1H67.6c-2.1,0-3.8,0.7-5.3,2.2c-1.5,1.5-2.2,3.2-2.2,5.3v18.8
			c-3.2,0.8-6.6,1.2-10.1,1.3c-3.5,0-6.8-0.4-10-1.3V67.7c0-2.1-0.7-3.8-2.2-5.3c-1.5-1.5-3.2-2.2-5.3-2.2H13.6
			c-0.8-3.2-1.2-6.6-1.3-10.1c0-3.5,0.4-6.9,1.3-10h18.9c2.1,0,3.8-0.7,5.3-2.2s2.2-3.2,2.2-5.3V13.6c3.2-0.8,6.5-1.2,10-1.2
			c3.6,0,6.9,0.4,10.1,1.3v18.9c0,2.1,0.7,3.8,2.2,5.3s3.2,2.2,5.3,2.2H86.3z"/>
	</g>
	<g>
		
			<linearGradient id="Layer1_0_3_STROKES_1_" gradientUnits="userSpaceOnUse" x1="29.9" y1="51.925" x2="12.3" y2="51.925" gradientTransform="matrix(1 0 0 -1 0 102)">
			<stop  offset="0" style="stop-color:#1B1B1B"/>
			<stop  offset="1" style="stop-color:#404040"/>
		</linearGradient>
		
			<path id="Layer1_0_3_STROKES" style="fill:none;stroke:url(#Layer1_0_3_STROKES_1_);stroke-width:5;stroke-linecap:round;stroke-linejoin:round;" d="
			M8.2,67.7C6,62.3,4.8,56.4,4.8,50S6,37.9,8.2,32.5h24.3 M8.2,67.7h24.3"/>
	</g>
</g>
</svg>
