
<svg xmlns="http://www.w3.org/2000/svg" version="1.1" xmlns:xlink="http://www.w3.org/1999/xlink" x="0px" y="0px" viewBox="0 0 100 100">
<defs>
<linearGradient id="Gradient_1" gradientUnits="userSpaceOnUse" x1="68" y1="65.16250000000001" x2="61" y2="73.7375" spreadMethod="pad">
<stop  offset="0%" stop-color="#313131"/>

<stop  offset="100%" stop-color="#D7D7D7"/>
</linearGradient>

<linearGradient id="Gradient_2" gradientUnits="userSpaceOnUse" x1="68" y1="58.400000000000006" x2="61" y2="67" spreadMethod="pad">
<stop  offset="0%" stop-color="#4F4F4F"/>

<stop  offset="100%" stop-color="#F5F5F5"/>
</linearGradient>

<linearGradient id="Gradient_3" gradientUnits="userSpaceOnUse" x1="68" y1="61.96249999999999" x2="61" y2="68.2375" spreadMethod="pad">
<stop  offset="0%" stop-color="#626262"/>

<stop  offset="100%" stop-color="#FFFFFF"/>
</linearGradient>

<linearGradient id="Gradient_4" gradientUnits="userSpaceOnUse" x1="45.65" y1="70.15" x2="45.65" y2="87.75" spreadMethod="pad">
<stop  offset="0%" stop-color="#1B1B1B"/>

<stop  offset="100%" stop-color="#404040"/>
</linearGradient>

<g id="Layer1_0_FILL">
<path fill="#1B1B1B" stroke="none" d="
M 8.2 67.6
Q 11.5 75.5 18.05 82.05 24.55 88.55 32.45 91.85
L 32.45 67.6 8.2 67.6
M 28.95 86.15
Q 24.45 83.5 20.5 79.6 16.55 75.6 13.85 71.1
L 28.95 71.1 28.95 86.15
M 32.45 8.35
Q 24.55 11.6 18.05 18.1 11.55 24.6 8.25 32.45
L 32.45 32.45 32.45 8.35
M 20.5 20.6
Q 24.45 16.65 28.95 14
L 28.95 28.95 13.95 28.95
Q 16.6 24.5 20.5 20.6
M 81.95 82.05
Q 88.5 75.5 91.8 67.6
L 67.6 67.6 67.6 91.85
Q 75.45 88.55 81.95 82.05
M 71.1 86.15
L 71.1 71.1 86.1 71.1
Q 83.45 75.6 79.45 79.6 75.55 83.5 71.1 86.15
M 91.7 32.45
Q 88.45 24.6 81.95 18.1 75.45 11.6 67.6 8.35
L 67.6 32.45 91.7 32.45
M 71.1 14
Q 75.55 16.65 79.45 20.6 83.4 24.5 86.05 28.95
L 71.1 28.95 71.1 14 Z"/>

<path fill="#282828" stroke="none" d="
M 20.5 79.6
Q 24.45 83.5 28.95 86.15
L 28.95 71.1 13.85 71.1
Q 16.55 75.6 20.5 79.6
M 28.95 14
Q 24.45 16.65 20.5 20.6 16.6 24.5 13.95 28.95
L 28.95 28.95 28.95 14
M 71.1 71.1
L 71.1 86.15
Q 75.55 83.5 79.45 79.6 83.45 75.6 86.1 71.1
L 71.1 71.1
M 79.45 20.6
Q 75.55 16.65 71.1 14
L 71.1 28.95 86.05 28.95
Q 83.4 24.5 79.45 20.6 Z"/>

<path fill="url(#Gradient_1)" stroke="none" d="
M 91.8 67.6
Q 95.15 59.55 95.15 50.1 95.15 40.55 91.7 32.45
L 67.6 32.45 67.6 8.35
Q 59.5 4.95 50 4.95 40.5 4.95 32.45 8.35
L 32.45 32.45 8.25 32.45
Q 4.85 40.55 4.85 50.1 4.85 59.55 8.2 67.6
L 32.45 67.6 32.45 91.85
Q 40.5 95.2 50 95.2 59.5 95.2 67.6 91.85
L 67.6 67.6 91.8 67.6
M 87.65 50.1
Q 87.65 55.35 86.4 60.1
L 67.6 60.1
Q 64.5 60.1 62.3 62.3 60.1 64.5 60.1 67.6
L 60.1 86.45
Q 55.3 87.7 50 87.7 44.7 87.7 39.95 86.45
L 39.95 67.6
Q 39.95 64.5 37.75 62.3 35.55 60.1 32.45 60.1
L 13.55 60.1
Q 12.35 55.35 12.35 50.1 12.35 44.75 13.6 39.95
L 32.45 39.95
Q 35.55 39.95 37.75 37.75 39.95 35.55 39.95 32.45
L 39.95 13.7
Q 44.7 12.45 50 12.45 55.3 12.45 60.1 13.7
L 60.1 32.45
Q 60.1 35.55 62.3 37.75 64.5 39.95 67.6 39.95
L 86.4 39.95
Q 87.65 44.75 87.65 50.1 Z"/>

<path fill="url(#Gradient_2)" stroke="none" d="
M 86.4 60.1
Q 87.65 55.35 87.65 50.1 87.65 44.75 86.4 39.95
L 67.6 39.95
Q 64.5 39.95 62.3 37.75 60.1 35.55 60.1 32.45
L 60.1 13.7
Q 55.3 12.45 50 12.45 44.7 12.45 39.95 13.7
L 39.95 32.45
Q 39.95 35.55 37.75 37.75 35.55 39.95 32.45 39.95
L 13.6 39.95
Q 12.35 44.75 12.35 50.1 12.35 55.35 13.55 60.1
L 32.45 60.1
Q 35.55 60.1 37.75 62.3 39.95 64.5 39.95 67.6
L 39.95 86.45
Q 44.7 87.7 50 87.7 55.3 87.7 60.1 86.45
L 60.1 67.6
Q 60.1 64.5 62.3 62.3 64.5 60.1 67.6 60.1
L 86.4 60.1 Z"/>
</g>

<path id="Layer1_0_1_STROKES" stroke="#1B1B1B" stroke-width="5" stroke-linejoin="round" stroke-linecap="round" fill="none" d="
M 67.6 8.35
Q 75.45 11.6 81.95 18.1 88.45 24.6 91.7 32.45 95.15 40.55 95.15 50.1 95.15 59.55 91.8 67.6 88.5 75.5 81.95 82.05 75.45 88.55 67.6 91.85
M 32.45 91.85
Q 24.55 88.55 18.05 82.05 11.5 75.5 8.2 67.6 4.85 59.55 4.85 50.1 4.85 40.55 8.25 32.45 11.55 24.6 18.05 18.1 24.55 11.6 32.45 8.35 40.5 4.95 50 4.95 59.5 4.95 67.6 8.35
L 67.6 32.45 91.7 32.45
M 32.45 8.35
L 32.45 32.45 8.25 32.45
M 32.45 67.6
L 8.2 67.6
M 91.8 67.6
L 67.6 67.6"/>

<path id="Layer1_0_2_STROKES" stroke="url(#Gradient_3)" stroke-width="4" stroke-linejoin="round" stroke-linecap="round" fill="none" d="
M 86.4 39.95
Q 87.65 44.75 87.65 50.1 87.65 55.35 86.4 60.1
L 67.6 60.1
Q 64.5 60.1 62.3 62.3 60.1 64.5 60.1 67.6
L 60.1 86.45
Q 55.3 87.7 50 87.7 44.7 87.7 39.95 86.45
L 39.95 67.6
Q 39.95 64.5 37.75 62.3 35.55 60.1 32.45 60.1
L 13.55 60.1
Q 12.35 55.35 12.35 50.1 12.35 44.75 13.6 39.95
L 32.45 39.95
Q 35.55 39.95 37.75 37.75 39.95 35.55 39.95 32.45
L 39.95 13.7
Q 44.7 12.45 50 12.45 55.3 12.45 60.1 13.7
L 60.1 32.45
Q 60.1 35.55 62.3 37.75 64.5 39.95 67.6 39.95
L 86.4 39.95 Z"/>

<path id="Layer1_0_3_STROKES" stroke="url(#Gradient_4)" stroke-width="5" stroke-linejoin="round" stroke-linecap="round" fill="none" d="
M 67.6 91.85
Q 59.5 95.2 50 95.2 40.5 95.2 32.45 91.85
L 32.45 67.6
M 67.6 91.85
L 67.6 67.6"/>

</defs>

<g transform="matrix( 1, 0, 0, 1, 0,0) ">
<use xlink:href="#Layer1_0_FILL"/>

<use xlink:href="#Layer1_0_1_STROKES"/>

<use xlink:href="#Layer1_0_2_STROKES"/>

<use xlink:href="#Layer1_0_3_STROKES"/>
</g>

<g transform="matrix( 1, 0, 0, 1, -3.4,-28) ">
<clipPath id="Mask_Mask_1">
<rect x="3.8" y="-2" width="99.2" height="20.8" fill="#FFFFFF" stroke="none"/>
</clipPath>

<text clip-path="url(#Mask_Mask_1)" writing-mode="lr"><tspan x="5.85" y="13.6" baseline-shift="0%" kerning="auto" font-family="Arial_Regular" font-size="15" fill="#999999" xml:space="preserve">Xbox Series X</tspan></text>
</g>
</svg>
