<?xml version="1.0" encoding="utf-8"?>
<!-- Generator: Adobe Illustrator 24.1.2, SVG Export Plug-In . SVG Version: 6.00 Build 0)  -->
<svg version="1.1" id="Layer_1" xmlns="http://www.w3.org/2000/svg" xmlns:xlink="http://www.w3.org/1999/xlink" x="0px" y="0px"
	 viewBox="0 0 100 100" style="enable-background:new 0 0 100 100;" xml:space="preserve">
<style type="text/css">
	.st0{fill:#D7D7D7;}
	.st1{fill:#353535;}
	.st2{fill:#4D4D4D;}
	.st3{fill:#6E6E6E;}
	.st4{fill:#F5F5F5;}
	.st5{fill:#888888;}
	.st6{fill:none;stroke:#1F1F1F;stroke-width:4;stroke-linecap:round;stroke-linejoin:round;}
	.st7{fill:none;stroke:#FFFFFF;stroke-width:4;stroke-linecap:round;stroke-linejoin:round;}
	.st8{fill:none;stroke:#404040;stroke-width:4;stroke-linecap:round;stroke-linejoin:round;}
	.st9{display:none;}
	.st10{display:inline;fill:none;stroke:#A0A0A0;stroke-width:4;stroke-linecap:round;stroke-linejoin:round;}
	.st11{fill:none;stroke:#FFFFFF;stroke-width:4;stroke-linejoin:round;}
</style>
<g transform="matrix( 1, 0, 0, 1, 0,0) ">
	<g>
		<g id="Layer1_0_FILL_1_">
			<path class="st0" d="M37.4,9.6c0.5-0.2,1.1-0.3,1.7-0.5C38.4,9.3,37.9,9.4,37.4,9.6C37.3,9.6,37.3,9.7,37.4,9.6
				C37.3,9.7,37.4,9.6,37.4,9.6L37.4,9.6 M67.3,32.7c0-0.1-4.6-22.9-4.6-23.1c-8.2-2.7-17-2.5-25.4,0c0,0-4.6,23-4.6,23
				c0.1,0.1,6.6,5,6.7,5.1c2.4-2.2,4.4-18.9,5.4-22c3.3-0.4,7.2-0.6,10.5-0.1c1.1,3.5,2.9,19.9,5.7,22.4L67.3,32.7z"/>
			<path class="st1" d="M62.7,9.6c0,0,4.6,23,4.6,23l23.1,4.6C86.7,24.7,75.2,13.3,62.7,9.6 M68.9,17.3L68.9,17.3
				c5.5,3.1,10.7,8.3,13.9,13.8l-11.7-2.3L68.9,17.3 M62.7,90.4L62.7,90.4c12.6-3.7,24.1-15.2,27.8-27.8l-23.2,4.5L62.7,90.4
				 M68.8,82.8L68.8,82.8L71.2,71L83,68.6C79.8,74.2,74.4,79.7,68.8,82.8 M9.7,37.3L9.7,37.3l23-4.6l0.1-0.1l4.6-23
				C24.9,13.3,13.4,24.7,9.7,37.3 M17.3,31.2L17.3,31.2c3.2-5.6,8.5-10.7,14-14l-2.3,11.7L17.3,31.2 M9.6,37.3L9.6,37.3
				c3.8-12.5,15.2-23.9,27.7-27.6V9.6C24.8,13.3,13.3,24.8,9.6,37.3 M9.6,62.6L9.6,62.6c3.5,12.5,15,24.1,27.7,27.7
				C24.7,86.7,13.3,75.2,9.6,62.6 M9.6,62.6c3.6,12.6,15.1,24.1,27.7,27.8c0,0,0.1,0,0.1,0l-4.6-23.3L9.6,62.6 M17.2,68.7L17.2,68.7
				L29,71l2.4,11.9C25.7,79.7,20.4,74.3,17.2,68.7z"/>
			<path class="st2" d="M68.8,17.2c0.1,0.1,2.3,11.5,2.3,11.6l11.7,2.3C79.6,25.6,74.4,20.4,68.8,17.2 M68.8,82.8L68.8,82.8
				c5.5-3.1,10.9-8.5,14.2-14.2L71.2,71L68.8,82.8 M17.3,31.2L17.3,31.2l11.6-2.3l2.3-11.7C25.8,20.5,20.4,25.6,17.3,31.2
				 M17.1,68.6c3.2,5.6,8.6,11,14.2,14.3L29,71L17.1,68.6z"/>
			<path class="st3" d="M37.4,90.4C37.4,90.4,37.3,90.4,37.4,90.4L37.4,90.4L37.4,90.4c0.5,0.2,1.1,0.4,1.7,0.5
				C38.5,90.7,37.9,90.6,37.4,90.4L37.4,90.4 M15.8,44.7c-0.5,3.4-0.5,6.9,0,10.4c27,5,23.9,2.3,29,29.1c3.6,0.5,7.1,0.5,10.5,0
				c5-26.8,2-24.2,29-29.1c0.5-3.5,0.5-7,0-10.4c-26.8-5.1-24-2.1-29-29c-3.3-0.5-7.2-0.3-10.5,0.1C39.8,42.7,42.5,39.6,15.8,44.7
				 M17.1,54.9c-0.5-3.4-0.5-6.8-0.1-10.1c25.8-4.8,23.2-2,28-27.9c3.2-0.4,6.9-0.5,10.1-0.1c4.8,26,2.2,23,28,27.9
				c0.5,3.3,0.5,6.7,0,10.1C57,59.7,59.9,57.2,55.1,83c-1.9,0.2-8.3,0.3-10.1-0.1C40.2,57,43.1,59.7,17.1,54.9 M8.2,55.8
				c0.3,1.7,0.9,5.2,1.4,6.8l23.2,4.5c0,0.1,4.6,23.3,4.6,23.3c8,2.3,17.1,2.6,25.3,0v-0.1l0,0l4.6-23.3l23.2-4.5
				c2.6-8.8,2.6-17.3,0-25.3c0-0.1-23.1-4.6-23.2-4.7v0.1L61,38.1c2.6,4,19.2,5.2,23.3,6.6c0.5,3.4,0.5,6.9,0,10.4
				c-27,5-23.9,2.4-29,29.1c-3.4,0.5-6.9,0.5-10.5,0c-5-26.9-2-24.1-29-29.1c-0.5-3.5-0.5-7,0-10.4c4.5-1.5,20.8-2.4,23.6-7
				c0-0.1-6.6-5-6.7-5.1l-0.1,0.1c-0.1,0-23.1,4.6-23.1,4.6C7.7,43.2,7.3,49.4,8.2,55.8 M9,60.1c-1.7-7.6-1.8-15.5,0.7-22.8
				c0.1,0-0.1,0-0.1,0c-2.7,8-2.4,17.1,0,25.3l0.1,0C9.4,61.8,9.2,60.9,9,60.1z"/>
			<path class="st4" d="M39.9,61.7C39.9,61.8,39.9,61.8,39.9,61.7c2.1,2.1,4.2,18.3,5,21.1c3.2,0.5,6.9,0.4,10.1-0.1
				c0.9-3,3-18.9,5.1-21C53.4,57.1,46.6,57.1,39.9,61.7z"/>
			<path class="st0" d="M62.7,90.3c-0.5,0.2-1.1,0.3-1.7,0.5C61.6,90.6,62.2,90.5,62.7,90.3C62.8,90.3,62.8,90.2,62.7,90.3
				C62.7,90.2,62.7,90.2,62.7,90.3L62.7,90.3 M32.8,67.2c0,0.1,4.6,22.9,4.5,23.1c8.2,2.7,17,2.5,25.4,0c0,0,4.6-23,4.6-23
				c-0.1-0.1-6.6-5-6.7-5.1c-2.4,2.2-4.4,18.9-5.4,22c-3.3,0.4-7.2,0.6-10.5,0.1c-1.1-3.5-2.9-19.9-5.7-22.4L32.8,67.2z"/>
			<path class="st4" d="M60.1,38.1C60.1,38.1,60.2,38.1,60.1,38.1C58.1,36,56,19.9,55.1,17c-3.2-0.5-6.9-0.4-10.1,0.1
				c-0.9,3-3,18.9-5.1,21.1C46.7,42.7,53.4,42.7,60.1,38.1z"/>
			<path class="st5" d="M83.1,44.9c-4.4-1.5-20.3-2.3-22.9-6.8c-6.7,4.7-13.5,4.7-20.3,0c-2.6,4.5-18.6,5.4-22.8,6.8
				c-0.5,3.3-0.5,6.7,0,10c4.5,1.5,20.3,2.2,22.9,6.9c4.7-4.8,16-5.6,20.2,0c2.6-4.7,18.5-5.4,22.9-6.9
				C83.5,51.5,83.6,48.2,83.1,44.9z"/>
		</g>
	</g>
	<g>
		<path class="st6" d="M69,66.7C76,66,83,63,90,63c3-7,3-15,1-22c-2-10-16-5-23.7-8.4"/>
		<path class="st6" d="M9.6,62.6c-2.3-7.9-3-17.6,0.1-25.3C7,41.1,7.4,49.1,7.8,53.6C8,57,8,61,10,62c7,4,15,3,22.7,5.1"/>
		<path class="st6" d="M32.8,32.6c0,0-23,4.6-23.1,4.7"/>
		<path class="st6" d="M35.3,89.7c-12-4.3-22.3-14.9-25.8-27.2"/>
		<path class="st6" d="M35.3,89.7C23.4,85.4,13.2,74.8,9.6,62.6"/>
		<path class="st6" d="M90.5,62.6C87.1,74,77.9,84,67.1,88.8"/>
		<line class="st6" x1="62.7" y1="9.6" x2="62.7" y2="9.6"/>
		<line class="st6" x1="37.4" y1="9.6" x2="37.4" y2="9.6"/>
		<path class="st6" d="M62.7,9.6c12.5,3.7,23.9,15.1,27.7,27.6"/>
		<path class="st6" d="M37.3,9.6C37.3,9.6,37.4,9.6,37.3,9.6"/>
		<path class="st6" d="M37.3,9.6L37.3,9.6c-12.5,3.7-24,15.2-27.7,27.7"/>
		<path class="st6" d="M37.3,9.6C24.8,13.4,13.4,24.8,9.7,37.3"/>
	</g>
	<g>
		<path id="Layer1_0_2_STROKES_1_" class="st7" d="M58.9,33.7l-3.6-18c-3.3-0.5-7.2-0.4-10.5,0.1l-3.6,17.9"/>
	</g>
	<g>
		<path id="Layer1_0_3_STROKES_1_" class="st8" d="M67.3,32.6c0,0-4.6-23-4.6-23 M62.7,9.6c-8.2-2.6-16.9-2.5-25.3,0 M37.4,9.6
			l-4.6,23 M37.3,9.6L37.3,9.6 M39,9.1c-0.6,0.1-1.1,0.3-1.7,0.5"/>
	</g>
	<g class="st9">
		<path class="st10" d="M39.4,62.3C33,56,24,59,17,54c-2-1-4-8,0-10c7-2,16,0,22.4-6.3"/>
		<path class="st10" d="M61,38.1C67,44,77,41,84,45c2,1,3,7,0,9c-7,5-16,3-23.2,8.4"/>
	</g>
	<g>
		<path id="Layer1_0_5_STROKES_1_" class="st11" d="M61,38.1c-1.1-1.2-1.8-2.7-2.1-4.4 M41.2,33.7c-0.3,1.5-0.9,2.9-1.8,4"/>
	</g>
</g>
<g>
	<path id="Layer1_0_3_STROKES_2_" class="st8" d="M32.8,67.1c0,0,4.6,23,4.5,23 M37.4,90.2c8.2,2.6,16.9,2.5,25.3,0 M62.7,90.1
		l4.6-23 M62.8,90.1L62.8,90.1 M61.1,90.6c0.6-0.1,1.1-0.3,1.7-0.5"/>
</g>
<g>
	<path id="Layer1_0_2_STROKES_2_" class="st7" d="M41,65.1l3.6,18c3.3,0.5,7.2,0.4,10.5-0.1l3.6-17.9"/>
</g>
</svg>
