<?xml version="1.0" encoding="utf-8"?>
<!-- Generator: Adobe Illustrator 24.1.2, SVG Export Plug-In . SVG Version: 6.00 Build 0)  -->
<svg version="1.1" id="Layer_1" xmlns="http://www.w3.org/2000/svg" xmlns:xlink="http://www.w3.org/1999/xlink" x="0px" y="0px"
	 viewBox="0 0 100 100" style="enable-background:new 0 0 100 100;" xml:space="preserve">
<g transform="matrix( 1, 0, 0, 1, 0,0) ">
	<g>
		<g id="Layer1_0_FILL">
			<path style="fill:#313131;" d="M45.9,45.8c0.1-1.5,0.2-3,0.1-4.6v-3.9c-0.4-6.7-4-10.5-11-11.3H8.4c-3.2,1-4.6,3.8-4.3,8.6
				c1.5,8.7,1.5,17.8,0,27.2c-0.5,2.8,0.3,5.6,2.4,8.5c2.1,1.9,4.8,3.1,8.1,3.7c4.3,0.7,8.1,0.3,11.4-1.1c3.3-1.5,5.7-4,7.1-7.4
				c0.2-0.4,0.4-0.9,0.6-1.3c2.1-4,4.4-6.7,6.9-8.2s4-3.2,4.4-4.9V51C45.5,49.1,45.7,47.5,45.9,45.8 M31.5,42.8
				c-0.2,1.4-0.4,2.7-0.6,4.1c-0.3,1.4-0.6,2.7-0.9,4.1c-0.5,1.9-1.1,3.7-1.8,5.5c-0.7,1.8-1.6,3.5-2.6,5.1
				c-0.7,1.1-1.5,2.3-2.2,3.4c-0.6,0.9-1.3,1.7-1.9,2.5c-0.7,0.8-1.5,1.3-2.5,1.6c-0.9,0.3-1.8,0.5-2.8,0.6
				c-1.8,0.1-3.6-0.3-5.2-1.3c-1.9-1.1-2.8-2.8-2.8-4.9c0-1.4,0.2-2.8,0.4-4.1c0.1-1.5,0.2-3,0.4-4.4c0.1-1.6,0.2-3.1,0.3-4.7
				c0.1-1.6,0.1-3.3,0.1-4.9c0-1-0.1-2.1-0.2-3.1c-0.2-2-0.4-4-0.6-6c-0.1-1.1-0.3-2.3-0.4-3.5c-0.1-0.7,0.1-1.3,0.5-1.9
				c0.3-0.4,1-0.8,2-1.1h18.4c1.6,0.4,2.6,0.9,2.9,1.7c0.3,0.7,0.4,1.7,0.3,2.8c-0.1,1.1-0.2,2.6-0.2,4.3
				C31.8,40,31.6,41.4,31.5,42.8z"/>
			<path style="fill:#4F4F4F;" d="M30.8,46.9c0.3-1.4,0.5-2.7,0.6-4.1c0.2-1.4,0.3-2.8,0.3-4.2c0.1-1.7,0.1-3.1,0.2-4.3
				s0-2.1-0.3-2.8s-1.2-1.3-2.9-1.7H10.5c-1,0.3-1.7,0.7-2,1.1C8.1,31.5,8,32.1,8,32.8c0.1,1.2,0.3,2.3,0.4,3.5c0.2,2,0.5,4,0.6,6
				c0.1,1,0.2,2.1,0.2,3.1c0,1.6,0,3.3-0.1,4.9c0.1,1.6,0,3.1-0.1,4.7c-0.1,1.5-0.3,2.9-0.5,4.4c-0.2,1.4-0.3,2.8-0.4,4.1
				c0,2.2,0.9,3.8,2.8,4.9c1.6,1,3.3,1.4,5.2,1.3c0.9-0.1,1.9-0.2,2.8-0.6c1-0.3,1.9-0.8,2.5-1.6c0.7-0.8,1.3-1.7,1.9-2.5
				c0.8-1.1,1.5-2.2,2.2-3.4c1-1.6,1.9-3.3,2.6-5.1s1.3-3.7,1.8-5.5C30.2,49.6,30.6,48.3,30.8,46.9 M27.3,34v1.8h-2.6v7.3h-2v-7.3
				h-2.6V34H27.3 M19.8,41.2V43h-5.7v-9h2v7.3L19.8,41.2L19.8,41.2z"/>
			<path style="fill:#999999;" d="M19.8,43.1v-1.8h-3.7V34h-2v9.1H19.8 M27.3,35.7V34h-7.2v1.8h2.6v7.3h2v-7.3L27.3,35.7L27.3,35.7z
				"/>
			<path style="fill:none;stroke:#626262;stroke-width:4;stroke-linecap:round;stroke-linejoin:round;" d="M28.9,29.8
				c1.6,0.4,2.6,0.9,2.9,1.7c0.3,0.7,0.4,1.7,0.3,2.8c-0.1,1.1-0.2,2.6-0.2,4.3c0,1.4-0.2,2.8-0.3,4.2c-0.2,1.4-0.4,2.7-0.6,4.1
				c-0.3,1.4-0.6,2.7-0.9,4.1c-0.5,1.9-1.1,3.7-1.8,5.5c-0.7,1.8-1.6,3.5-2.6,5.1c-0.7,1.1-1.5,2.3-2.2,3.4
				c-0.6,0.9-1.3,1.7-1.9,2.5c-0.7,0.8-1.5,1.3-2.5,1.6c-0.9,0.3-1.8,0.5-2.8,0.6c-1.8,0.1-3.6-0.3-5.2-1.3
				c-1.9-1.1-2.8-2.8-2.8-4.9c0-1.4,0.2-2.8,0.4-4.1c0-1.5,0.1-3,0.3-4.4c0.1-1.6,0.2-3.1,0.3-4.7c0.1-1.6,0.1-3.3,0.1-4.9
				c0-1-0.1-2.1-0.2-3.1c-0.2-2-0.4-4-0.6-6c-0.1-1.1-0.3-2.3-0.4-3.5c-0.1-0.7,0.1-1.3,0.5-1.9c0.3-0.4,1-0.8,2-1.1H28.9z"/>
			<path style="fill:none;stroke:#1B1B1B;stroke-width:5;stroke-linecap:round;stroke-linejoin:round;" d="M46,41.1v-3.9
				c-0.4-6.7-4-10.5-11-11.3H8.4c-3.2,1-4.6,3.8-4.3,8.6c1.5,8.7,1.5,17.8,0,27.2c-0.5,2.8,0.3,5.6,2.4,8.5c2.1,1.9,4.8,3.1,8.1,3.7
				c4.3,0.7,8.1,0.3,11.4-1.1c3.3-1.5,5.7-4,7.1-7.4c0.2-0.4,0.4-0.9,0.6-1.3c2.1-4,4.4-6.7,6.9-8.2s4-3.2,4.4-5v-0.1
				c0.4-1.6,0.7-3.3,0.8-5C46,44.3,46,42.7,46,41.1z"/>
		</g>
	</g>
</g>
<g transform="matrix( 1, 0, 0, 1, 0,0) ">
	<g>
		<g id="Layer1_0_FILL_1_">
			<path style="fill:#313131;" d="M95.9,61.7c-1.5-9.4-1.5-18.5,0-27.2c0.4-4.8-1.1-7.6-4.3-8.6H65c-7,0.8-10.7,4.6-11,11.3v3.9
				c0,1.6,0,3.1,0.1,4.6c0.1,1.7,0.4,3.4,0.8,5v0.1c0.4,1.8,1.9,3.4,4.4,5c2.6,1.5,4.9,4.2,6.9,8.2c0.2,0.4,0.4,0.9,0.6,1.3
				c1.4,3.4,3.8,5.9,7.1,7.4c3.4,1.4,7.2,1.7,11.4,1c3.3-0.5,6-1.7,8.1-3.7C95.6,67.3,96.4,64.5,95.9,61.7 M91.4,30.9
				c0.4,0.6,0.5,1.2,0.5,1.9c-0.1,1.2-0.3,2.3-0.4,3.5c-0.2,2-0.5,4-0.6,6c-0.1,1-0.2,2.1-0.2,3.1c0,1.6,0,3.3,0.1,4.9
				c0.1,1.6,0.2,3.1,0.3,4.7c0.1,1.5,0.3,2.9,0.5,4.4c0.2,1.4,0.3,2.8,0.4,4.1c0,2.2-0.9,3.8-2.8,4.9c-1.6,1-3.3,1.4-5.2,1.3
				c-0.9-0.1-1.9-0.2-2.8-0.6c-1-0.3-1.9-0.8-2.5-1.6c-0.7-0.8-1.3-1.7-1.9-2.5c-0.8-1.1-1.5-2.2-2.2-3.4c-1-1.6-1.9-3.3-2.6-5.1
				s-1.3-3.7-1.8-5.5c-0.3-1.4-0.7-2.7-0.9-4.1s-0.5-2.7-0.6-4.1c-0.2-1.4-0.3-2.8-0.3-4.2c-0.1-1.7-0.1-3.2-0.2-4.3s0-2.1,0.3-2.8
				s1.2-1.3,2.9-1.7h18.4C90.5,30.1,91.1,30.5,91.4,30.9z"/>
			<path style="fill:#4F4F4F;" d="M91.9,32.8c0.1-0.7-0.1-1.3-0.5-1.9c-0.3-0.4-1-0.8-2-1.1H71.1c-1.6,0.4-2.6,0.9-2.9,1.7
				c-0.3,0.7-0.4,1.7-0.3,2.8s0.2,2.6,0.2,4.3c0,1.4,0.2,2.8,0.3,4.2c0.2,1.4,0.4,2.7,0.6,4.1s0.6,2.7,0.9,4.1
				c0.5,1.9,1.1,3.7,1.8,5.5c0.7,1.8,1.6,3.5,2.6,5.1c0.7,1.1,1.5,2.3,2.2,3.4c0.6,0.9,1.3,1.7,1.9,2.5c0.7,0.8,1.5,1.3,2.5,1.6
				c0.9,0.3,1.8,0.5,2.8,0.6c1.8,0.1,3.6-0.3,5.2-1.3c1.9-1.1,2.8-2.8,2.8-4.9c0-1.4-0.2-2.8-0.4-4.1c-0.2-1.5-0.4-2.9-0.5-4.4
				c-0.1-1.6-0.2-3.1-0.3-4.7c-0.1-1.6-0.1-3.3-0.1-4.9c0-1,0.1-2.1,0.2-3.1c0.2-2,0.4-4,0.6-6C91.6,35.1,91.8,34,91.9,32.8
				 M80,35.4c0.2,0.4,0.3,0.8,0.3,1.4c0,0.6-0.2,1.2-0.5,1.6c-0.3,0.5-0.8,0.8-1.5,0.9l2.3,3.9h-2.4l-1.9-3.7h-1v3.7h-2V34h3.5
				c0.5,0,0.9,0,1.3,0.1s0.8,0.2,1.1,0.5C79.6,34.7,79.8,35,80,35.4 M80.6,35.7V34h7.2v1.8h-2.6v7.3h-2v-7.3L80.6,35.7 M77.2,35.7
				c-0.2,0-0.4,0-0.6,0h-1.3v2.1h1.2c0.2,0,0.4,0,0.6,0s0.4-0.1,0.6-0.1c0.2-0.1,0.3-0.2,0.4-0.3s0.2-0.3,0.2-0.6
				c0-0.2,0-0.4-0.1-0.6c-0.1-0.1-0.2-0.2-0.4-0.3S77.4,35.7,77.2,35.7z"/>
			<path style="fill:#999999;" d="M80.6,34v1.8h2.6v7.3h2v-7.3h2.6V34H80.6 M80.3,36.7c0-0.5-0.1-1-0.3-1.4
				c-0.2-0.3-0.4-0.6-0.7-0.8c-0.3-0.2-0.7-0.4-1.1-0.5c-0.5,0-0.9,0-1.4,0h-3.5v9.1h2v-3.7h1l1.9,3.7h2.4l-2.3-3.9
				c0.7-0.1,1.1-0.4,1.5-0.9C80.1,37.9,80.3,37.4,80.3,36.7 M76.6,35.6c0.2,0,0.3,0,0.6,0c0.2,0,0.3,0.1,0.5,0.2s0.3,0.2,0.4,0.3
				s0.1,0.3,0.1,0.6s-0.1,0.5-0.2,0.6s-0.2,0.2-0.4,0.3c-0.2,0.1-0.3,0.1-0.6,0.1c-0.2,0-0.4,0-0.6,0h-1.2v-2.1
				C75.2,35.6,76.6,35.6,76.6,35.6z"/>
			<path style="fill:none;stroke:#626262;stroke-width:4;stroke-linecap:round;stroke-linejoin:round;" d="M71.1,29.8
				c-1.6,0.4-2.6,0.9-2.9,1.7c-0.3,0.7-0.4,1.7-0.3,2.8s0.2,2.6,0.2,4.3c0,1.4,0.2,2.8,0.3,4.2c0.2,1.4,0.4,2.7,0.6,4.1
				s0.6,2.7,0.9,4.1c0.5,1.9,1.1,3.7,1.8,5.5c0.7,1.8,1.6,3.5,2.6,5.1c0.7,1.1,1.5,2.3,2.2,3.4c0.6,0.9,1.3,1.7,1.9,2.5
				c0.7,0.8,1.5,1.3,2.5,1.6c0.9,0.3,1.8,0.5,2.8,0.6c1.8,0.1,3.6-0.3,5.2-1.3c1.9-1.1,2.8-2.8,2.8-4.9c0-1.4-0.2-2.8-0.4-4.1
				c-0.2-1.5-0.4-2.9-0.5-4.4c-0.1-1.6-0.2-3.1-0.3-4.7c-0.1-1.6-0.1-3.3-0.1-4.9c0-1,0.1-2.1,0.2-3.1c0.2-2,0.4-4,0.6-6
				c0.1-1.1,0.3-2.3,0.4-3.5c0.1-0.7-0.1-1.3-0.5-1.9c-0.3-0.4-1-0.8-2-1.1L71.1,29.8L71.1,29.8z"/>
			<path style="fill:none;stroke:#1B1B1B;stroke-width:5;stroke-linecap:round;stroke-linejoin:round;" d="M95.9,34.5
				c-1.5,8.7-1.5,17.8,0,27.2c0.5,2.8-0.3,5.6-2.4,8.5c-2.1,1.9-4.8,3.1-8.1,3.7c-4.3,0.7-8.1,0.3-11.4-1c-3.3-1.5-5.7-4-7.1-7.4
				c-0.2-0.4-0.4-0.9-0.6-1.3c-2.1-4-4.4-6.7-6.9-8.2s-4-3.2-4.4-5v-0.1c-0.4-1.6-0.7-3.3-0.8-5c-0.1-1.5-0.2-3-0.1-4.6v-3.9
				c0.4-6.7,4-10.5,11-11.3h26.6C94.8,26.8,96.2,29.7,95.9,34.5z"/>
		</g>
	</g>
</g>
</svg>
