<?xml version="1.0" encoding="utf-8"?>
<!-- Generator: Adobe Illustrator 24.1.2, SVG Export Plug-In . SVG Version: 6.00 Build 0)  -->
<svg version="1.1" id="Layer_1" xmlns="http://www.w3.org/2000/svg" xmlns:xlink="http://www.w3.org/1999/xlink" x="0px" y="0px"
	 viewBox="0 0 100 100" style="enable-background:new 0 0 100 100;" xml:space="preserve">
<g transform="matrix( 1, 0, 0, 1, 0,0) ">
	<g>
		<g id="Layer1_0_FILL">
			<path style="fill:#1B1B1B;" d="M32.4,67.6H8.3c2.2,5.3,5.5,10.1,9.8,14.4c4.3,4.3,9.1,7.6,14.4,9.8V67.6 M28.9,86.1
				c-3-1.8-5.8-4-8.4-6.6c-2.6-2.6-4.8-5.4-6.6-8.4h14.9V86.1 M32.4,8.3c-5.2,2.2-10,5.5-14.4,9.8c-4.3,4.3-7.6,9.1-9.8,14.4h24.2
				V8.3 M20.5,20.5c2.6-2.6,5.4-4.8,8.4-6.5v15H13.9C15.7,26,17.9,23.2,20.5,20.5 M82,82c4.3-4.3,7.6-9.1,9.8-14.4H67.6v24.3
				C72.8,89.6,77.6,86.4,82,82 M71.1,86.2V71.1h15c-1.8,3-4,5.8-6.6,8.4C76.9,82.2,74.1,84.4,71.1,86.2 M91.8,32.5
				c-2.2-5.2-5.4-10-9.8-14.4c-4.4-4.4-9.2-7.6-14.4-9.9v24.2H91.8 M71.1,13.9c3,1.8,5.8,4,8.4,6.6c2.6,2.6,4.8,5.4,6.6,8.4h-15
				V13.9z"/>
			<path style="fill:#282828;" d="M20.5,79.5c2.6,2.6,5.4,4.8,8.4,6.6v-15H13.9C15.7,74.1,17.9,76.9,20.5,79.5 M28.9,14
				c-3,1.8-5.8,4-8.4,6.5c-2.6,2.6-4.8,5.4-6.6,8.4h14.9V14 M71.1,71.1v15.1c3-1.8,5.8-4,8.4-6.7c2.6-2.6,4.8-5.4,6.6-8.4H71.1
				 M79.5,20.5c-2.6-2.6-5.4-4.8-8.4-6.6V29h15C84.3,26,82.1,23.2,79.5,20.5z"/>
			
				<linearGradient id="SVGID_1_" gradientUnits="userSpaceOnUse" x1="52.9994" y1="55.1056" x2="61.5744" y2="64.0556" gradientTransform="matrix(1 0 0 -1 0 102)">
				<stop  offset="0" style="stop-color:#313131"/>
				<stop  offset="1" style="stop-color:#D7D7D7"/>
			</linearGradient>
			<path style="fill:url(#SVGID_1_);" d="M91.8,67.6c2.3-5.4,3.4-11.2,3.4-17.5c0-6.3-1.1-12.2-3.4-17.6H67.6V8.3
				C62.2,6,56.4,4.9,50,4.9c-6.4,0-12.2,1.1-17.6,3.4v24.2H8.3C6,37.8,4.9,43.7,4.9,50c0,6.3,1.1,12.2,3.3,17.5h24.2v24.2
				c5.4,2.3,11.3,3.4,17.6,3.4c6.3,0,12.1-1.1,17.5-3.3V67.6H91.8 M87.7,50c0,3.5-0.4,6.9-1.3,10H67.6c-2.1,0-3.8,0.7-5.3,2.2
				c-1.5,1.5-2.2,3.2-2.2,5.3v18.8c-3.2,0.8-6.5,1.3-10,1.3c-3.6,0-6.9-0.4-10.1-1.3V67.6c0-2.1-0.7-3.8-2.2-5.3
				c-1.5-1.5-3.2-2.2-5.3-2.2H13.6c-0.8-3.2-1.3-6.5-1.3-10c0-3.5,0.4-6.9,1.3-10.1h18.8c2.1,0,3.8-0.7,5.3-2.2
				c1.5-1.5,2.2-3.2,2.2-5.3V13.6c3.2-0.8,6.6-1.3,10.1-1.3c3.5,0,6.8,0.4,10,1.2v18.9c0,2.1,0.7,3.8,2.2,5.3
				c1.5,1.5,3.2,2.2,5.3,2.2h18.8C87.2,43.1,87.7,46.5,87.7,50z"/>
			
				<linearGradient id="SVGID_2_" gradientUnits="userSpaceOnUse" x1="49.9618" y1="51.9371" x2="58.5618" y2="60.3871" gradientTransform="matrix(1 0 0 -1 0 102)">
				<stop  offset="0" style="stop-color:#4F4F4F"/>
				<stop  offset="1" style="stop-color:#F5F5F5"/>
			</linearGradient>
			<path style="fill:url(#SVGID_2_);" d="M86.4,60.1c0.8-3.2,1.3-6.5,1.3-10c0-3.5-0.4-6.9-1.3-10.1H67.6c-2.1,0-3.8-0.7-5.3-2.2
				c-1.5-1.5-2.2-3.2-2.2-5.3V13.6c-3.2-0.8-6.5-1.2-10-1.2c-3.6,0-6.9,0.4-10.1,1.3v18.8c0,2.1-0.7,3.8-2.2,5.3
				c-1.5,1.5-3.2,2.2-5.3,2.2H13.6c-0.8,3.2-1.3,6.6-1.3,10.1c0,3.5,0.4,6.9,1.3,10h18.8c2.1,0,3.8,0.7,5.3,2.2
				c1.5,1.5,2.2,3.2,2.2,5.3v18.8c3.2,0.8,6.6,1.3,10.1,1.3c3.5,0,6.8-0.4,10-1.3V67.6c0-2.1,0.7-3.8,2.2-5.3
				c1.5-1.5,3.2-2.2,5.3-2.2H86.4z"/>
		</g>
	</g>
	<g>
		<path id="Layer1_0_1_STROKES" style="fill:none;stroke:#1B1B1B;stroke-width:5;stroke-linecap:round;stroke-linejoin:round;" d="
			M67.6,8.3c5.3,2.2,10.1,5.5,14.4,9.9c4.3,4.3,7.6,9.1,9.8,14.4 M91.8,67.6C89.6,72.9,86.3,77.7,82,82c-4.4,4.4-9.2,7.6-14.4,9.8
			c-5.4,2.2-11.2,3.3-17.5,3.3c-6.4,0-12.2-1.1-17.6-3.4c-5.2-2.2-10-5.5-14.4-9.8c-4.3-4.3-7.6-9.1-9.8-14.4
			C6,62.2,4.9,56.4,4.9,50c0-6.3,1.1-12.2,3.4-17.6c2.2-5.2,5.5-10,9.8-14.4c4.3-4.3,9.1-7.6,14.4-9.8C37.8,6,43.7,4.9,50,4.9
			c6.3,0,12.1,1.1,17.5,3.3v24.2 M32.4,8.3v24.1H8.3 M32.4,91.8V67.6H8.3 M67.6,67.6v24.3"/>
	</g>
	<g>
		
			<linearGradient id="Layer1_0_2_STROKES_1_" gradientUnits="userSpaceOnUse" x1="50.4989" y1="52.4593" x2="56.7739" y2="58.7093" gradientTransform="matrix(1 0 0 -1 0 102)">
			<stop  offset="0" style="stop-color:#626262"/>
			<stop  offset="1" style="stop-color:#FFFFFF"/>
		</linearGradient>
		
			<path id="Layer1_0_2_STROKES" style="fill:none;stroke:url(#Layer1_0_2_STROKES_1_);stroke-width:4;stroke-linecap:round;stroke-linejoin:round;" d="
			M86.4,40c0.8,3.2,1.3,6.6,1.3,10.1c0,3.5-0.4,6.9-1.3,10H67.6c-2.1,0-3.8,0.7-5.3,2.2c-1.5,1.5-2.2,3.2-2.2,5.3v18.9
			c-3.2,0.8-6.5,1.2-10,1.2c-3.6,0-6.9-0.4-10.1-1.3V67.6c0-2.1-0.7-3.8-2.2-5.3c-1.5-1.5-3.2-2.2-5.3-2.2H13.6
			c-0.8-3.2-1.3-6.5-1.3-10c0-3.5,0.4-6.9,1.3-10.1h18.8c2.1,0,3.8-0.7,5.3-2.2c1.5-1.5,2.2-3.2,2.2-5.3V13.6
			c3.2-0.8,6.6-1.3,10.1-1.3c3.5,0,6.8,0.4,10,1.2v18.8c0,2.1,0.7,3.8,2.2,5.3c1.5,1.5,3.2,2.2,5.3,2.2H86.4z"/>
	</g>
	<g>
		
			<linearGradient id="Layer1_0_3_STROKES_1_" gradientUnits="userSpaceOnUse" x1="70.1" y1="51.975" x2="87.7" y2="51.975" gradientTransform="matrix(1 0 0 -1 0 102)">
			<stop  offset="0" style="stop-color:#1B1B1B"/>
			<stop  offset="1" style="stop-color:#404040"/>
		</linearGradient>
		
			<path id="Layer1_0_3_STROKES" style="fill:none;stroke:url(#Layer1_0_3_STROKES_1_);stroke-width:5;stroke-linecap:round;stroke-linejoin:round;" d="
			M91.8,32.5c2.3,5.4,3.4,11.3,3.4,17.6c0,6.3-1.1,12.2-3.4,17.5 M91.8,32.5H67.6 M91.8,67.6H67.6"/>
	</g>
</g>
</svg>
