
<svg xmlns="http://www.w3.org/2000/svg" version="1.1" xmlns:xlink="http://www.w3.org/1999/xlink" x="0px" y="0px" viewBox="0 0 100 100">
<defs>
<g id="Layer1_0_FILL">
<path fill="#353535" stroke="none" d="
M 62.75 90.35
Q 72.278125 87.421875 79.85 79.85 87.464453125 72.235546875 90.35 62.65
L 67.4 67.25 62.75 90.35
M 76.65 76.65
Q 73.0345703125 80.31171875 68.9 82.75
L 71.2 71.05 82.8 68.75
Q 80.3685546875 72.9818359375 76.65 76.65
M 32.9 67.3
L 9.6 62.65
Q 12.53125 72.23125 20.15 79.85 27.80703125 87.50703125 37.45 90.4
L 32.9 67.3
M 31.35 82.9
Q 27.08359375 80.4326171875 23.3 76.65 19.6232421875 72.97265625 17.15 68.75
L 29.05 71.1 31.35 82.9
M 37.45 9.6
Q 38.696484375 9.237890625 39.9 8.9 28.7796875 11.5203125 20.15 20.15 12.5310546875 27.7689453125 9.6 37.35
L 32.9 32.75 37.45 9.6
M 23.3 23.3
Q 27.0859375 19.5666015625 31.35 17.1
L 29.05 28.9 17.15 31.25
Q 19.6150390625 27.035546875 23.3 23.3
M 79.85 20.15
Q 72.2736328125 12.5736328125 62.75 9.65
L 67.4 32.75 90.35 37.3
Q 87.464453125 27.764453125 79.85 20.15
M 68.85 17.2
Q 73.018359375 19.6728515625 76.65 23.3 80.3673828125 27.0169921875 82.8 31.2
L 71.2 28.9 68.85 17.2 Z"/>

<path fill="#4D4D4D" stroke="none" d="
M 68.9 82.75
Q 73.0345703125 80.31171875 76.65 76.65 80.3685546875 72.9818359375 82.8 68.75
L 71.2 71.05 68.9 82.75
M 23.3 76.65
Q 27.08359375 80.4326171875 31.35 82.9
L 29.05 71.1 17.15 68.75
Q 19.6232421875 72.97265625 23.3 76.65
M 31.35 17.1
Q 27.0859375 19.5666015625 23.3 23.3 19.6150390625 27.035546875 17.15 31.25
L 29.05 28.9 31.35 17.1
M 76.65 23.3
Q 73.018359375 19.6728515625 68.85 17.2
L 71.2 28.9 82.8 31.2
Q 80.3673828125 27.0169921875 76.65 23.3 Z"/>

<path fill="#6E6E6E" stroke="none" d="
M 62.75 9.65
L 62.75 9.6
Q 57.272265625 7.8498046875 51.55 7.7 47.9484375 7.5931640625 44.25 8.1
L 39.9 8.9
Q 38.696484375 9.237890625 37.45 9.6
L 32.9 32.75 9.6 37.35 9.6 37.35
Q 5.75 50.55 9.6 62.65
L 9.6 62.65 32.9 67.3 37.45 90.4 37.45 90.45
Q 50.7 94.3 62.75 90.45
L 62.75 90.35 67.4 67.25 61.95 60.95
Q 61.7490234375 61.1458984375 61.55 61.35 59.55 63.3 59 66.1
L 55.35 84.3
Q 50.25 85.05 44.95 84.25
L 41.35 66.15
Q 40.8 63.4 38.8 61.45 36.85 59.4 34.1 58.9
L 15.8 55.25
Q 15.05 50.15 15.85 44.8
L 34.05 41.2
Q 36.85 40.7 38.8 38.7 40.8 36.7 41.35 33.95
L 44.95 15.85
Q 48.28984375 15.3458984375 51.55 15.45 53.463671875 15.52265625 55.35 15.8
L 59 34
Q 59.55 36.7 61.55 38.7 61.91171875 39.07109375 62.3 39.4
L 67.4 32.75 62.75 9.65
M 84.3 55.25
Q 84.6884765625 52.60859375 84.65 49.9 84.6357421875 47.3791015625 84.25 44.8
L 66.3 41.2
Q 64.01953125 40.7927734375 62.3 39.4 61.91171875 39.07109375 61.55 38.7 59.55 36.7 59 34
L 55.35 15.8
Q 53.463671875 15.52265625 51.55 15.45 48.28984375 15.3458984375 44.95 15.85
L 41.35 33.95
Q 40.8 36.7 38.8 38.7 36.85 40.7 34.05 41.2
L 15.85 44.8
Q 15.05 50.15 15.8 55.25
L 34.1 58.9
Q 36.85 59.4 38.8 61.45 40.8 63.4 41.35 66.15
L 44.95 84.25
Q 50.25 85.05 55.35 84.3
L 59 66.1
Q 59.55 63.3 61.55 61.35 61.7490234375 61.1458984375 61.95 60.95 63.7857421875 59.2990234375 66.3 58.85
L 84.3 55.25
M 83.35 49.9
Q 83.4103515625 52.5015625 83.05 55.05
L 65.7 58.5
Q 63.5779296875 58.89296875 61.95 60.15 61.506640625 60.493359375 61.1 60.9 59.2 62.8 58.65 65.5
L 55.15 83.05
Q 50.2 83.75 45.1 83
L 41.65 65.55
Q 41.1 62.9 39.2 61 37.3 59.05 34.65 58.55
L 17 55.05
Q 16.3 50.1 17.05 44.95
L 34.6 41.5
Q 37.3 41 39.2 39.1 41.1 37.15 41.65 34.5
L 45.1 17.05
Q 48.3556640625 16.5712890625 51.55 16.65 53.359765625 16.746875 55.15 17
L 58.65 34.55
Q 59.2 37.15 61.1 39.1 61.5068359375 39.5068359375 61.95 39.85 63.5783203125 41.10703125 65.7 41.5
L 83 44.95
Q 83.3638671875 47.4486328125 83.35 49.9 Z"/>

<path fill="#888888" stroke="none" d="
M 55.15 17
Q 53.359765625 16.746875 51.55 16.65 48.3556640625 16.5712890625 45.1 17.05
L 41.65 34.5
Q 41.1 37.15 39.2 39.1 37.3 41 34.6 41.5
L 17.05 44.95
Q 16.3 50.1 17 55.05
L 34.65 58.55
Q 37.3 59.05 39.2 61 41.1 62.9 41.65 65.55
L 45.1 83
Q 50.2 83.75 55.15 83.05
L 58.65 65.5
Q 59.2 62.8 61.1 60.9 61.506640625 60.493359375 61.95 60.15 58.387109375 55.0544921875 58.45 49.9 58.4955078125 44.902734375 61.95 39.85 61.5068359375 39.5068359375 61.1 39.1 59.2 37.15 58.65 34.55
L 55.15 17 Z"/>

<path fill="#F5F5F5" stroke="none" d="
M 83.05 55.05
Q 83.4103515625 52.5015625 83.35 49.9 83.3638671875 47.4486328125 83 44.95
L 65.7 41.5
Q 63.5783203125 41.10703125 61.95 39.85 58.4955078125 44.902734375 58.45 49.9 58.387109375 55.0544921875 61.95 60.15 63.5779296875 58.89296875 65.7 58.5
L 83.05 55.05 Z"/>

<path fill="#D7D7D7" stroke="none" d="
M 90.45 37.35
L 90.35 37.3 67.4 32.75 62.3 39.4
Q 64.01953125 40.7927734375 66.3 41.2
L 84.25 44.8
Q 84.6357421875 47.3791015625 84.65 49.9 84.6884765625 52.60859375 84.3 55.25
L 66.3 58.85
Q 63.7857421875 59.2990234375 61.95 60.95
L 67.4 67.25 90.35 62.65 90.45 62.65
Q 92.43203125 56.4208984375 92.35 49.9 92.31796875 43.7546875 90.45 37.35 Z"/>
</g>

<path id="Layer1_0_1_STROKES" stroke="#1F1F1F" stroke-width="4" stroke-linejoin="round" stroke-linecap="round" fill="none" d="
M 90.375 37.325
L 90.45 37.35
M 90.45 62.65
L 90.375 62.675
Q 87.464453125 72.235546875 79.85 79.85 72.278125 87.421875 62.775 90.35
L 62.75 90.45
Q 50.7 94.3 37.45 90.45
L 37.45 90.425
Q 27.80703125 87.50703125 20.15 79.85 12.53125 72.23125 9.625 62.65
L 9.6 62.65
Q 5.75 50.55 9.6 37.35
L 9.625 37.35
Q 12.5310546875 27.7689453125 20.15 20.15 28.7796875 11.5203125 39.925 8.925
L 44.25 8.125
Q 47.9484375 7.5931640625 51.55 7.7 57.272265625 7.8498046875 62.75 9.6
L 62.75 9.65
Q 72.2736328125 12.5736328125 79.85 20.15 87.464453125 27.764453125 90.375 37.325
M 67.4 32.75
L 62.75 9.65
M 9.625 37.35
L 32.9 32.75 37.45 9.6
Q 38.696484375 9.237890625 39.925 8.925
M 37.45 90.425
L 32.9 67.3 9.625 62.65
M 67.4 67.25
L 62.775 90.35"/>

<path id="Layer1_0_2_STROKES" stroke="#A0A0A0" stroke-width="4" stroke-linejoin="round" stroke-linecap="round" fill="none" d="
M 61.95 60.95
Q 61.7490234375 61.1458984375 61.55 61.35 59.55 63.3 59 66.1
L 55.35 84.3
Q 50.25 85.05 44.95 84.25
L 41.35 66.15
Q 40.8 63.4 38.8 61.45 36.85 59.4 34.1 58.9
L 15.8 55.25
Q 15.05 50.15 15.85 44.8
L 34.05 41.2
Q 36.85 40.7 38.8 38.7 40.8 36.7 41.35 33.95
L 44.95 15.85
Q 48.28984375 15.3458984375 51.55 15.45 53.463671875 15.52265625 55.35 15.8
L 59 34
Q 59.55 36.7 61.55 38.7 61.91171875 39.07109375 62.3 39.4"/>

<path id="Layer1_0_3_STROKES" stroke="#FFFFFF" stroke-width="4" stroke-linejoin="round" stroke-linecap="round" fill="none" d="
M 66.3 41.2
L 84.25 44.8
Q 84.6357421875 47.3791015625 84.65 49.9 84.6884765625 52.60859375 84.3 55.25
L 66.3 58.85"/>

<path id="Layer1_0_4_STROKES" stroke="#404040" stroke-width="4" stroke-linejoin="round" stroke-linecap="round" fill="none" d="
M 90.45 37.35
Q 92.31796875 43.7546875 92.375 49.9 92.43203125 56.4208984375 90.45 62.65
M 90.375 37.325
L 67.4 32.75
M 67.4 67.25
L 90.375 62.675"/>

<path id="Layer1_0_5_STROKES" stroke="#FFFFFF" stroke-width="4" stroke-linejoin="round" stroke-linecap="butt" fill="none" d="
M 62.3 39.4
Q 64.01953125 40.7927734375 66.3 41.2
M 66.3 58.85
Q 63.7857421875 59.2990234375 61.95 60.95"/>

</defs>

<g transform="matrix( 1, 0, 0, 1, 0,0) ">
<use xlink:href="#Layer1_0_FILL"/>

<use xlink:href="#Layer1_0_1_STROKES"/>

<use xlink:href="#Layer1_0_2_STROKES"/>

<use xlink:href="#Layer1_0_3_STROKES"/>

<use xlink:href="#Layer1_0_4_STROKES"/>

<use xlink:href="#Layer1_0_5_STROKES"/>
</g>

<g transform="matrix( 1, 0, 0, 1, -3.4,-28) ">
<clipPath id="Mask_Mask_1">
<rect x="19.6" y="-2" width="67.6" height="20.8" fill="#FFFFFF" stroke="none"/>
</clipPath>

<text clip-path="url(#Mask_Mask_1)" writing-mode="lr"><tspan x="21.7" y="13.6" baseline-shift="0%" kerning="auto" font-family="Arial_Regular" font-size="15" fill="#999999" xml:space="preserve">Xbox 360</tspan></text>
</g>
</svg>
