<?xml version="1.0" encoding="utf-8"?>
<!-- Generator: Adobe Illustrator 24.1.2, SVG Export Plug-In . SVG Version: 6.00 Build 0)  -->
<svg version="1.1" id="Layer_1" xmlns="http://www.w3.org/2000/svg" xmlns:xlink="http://www.w3.org/1999/xlink" x="0px" y="0px"
	 viewBox="0 0 100 100" style="enable-background:new 0 0 100 100;" xml:space="preserve">
<style type="text/css">
	.st0{fill:#1B1B1B;}
	.st1{fill:#282828;}
	.st2{fill:none;stroke:url(#Layer1_0_2_STROKES_2_);stroke-width:4;stroke-linecap:round;stroke-linejoin:round;}
	.st3{fill:none;stroke:url(#Layer1_0_2_STROKES_3_);stroke-width:4;stroke-linecap:round;stroke-linejoin:round;}
	.st4{fill:url(#SVGID_1_);}
	.st5{fill:url(#SVGID_2_);}
	.st6{fill:url(#SVGID_3_);}
	.st7{fill:url(#SVGID_4_);}
	.st8{fill:none;stroke:#1B1B1B;stroke-width:5;stroke-linecap:round;stroke-linejoin:round;}
	.st9{fill:none;stroke:url(#Layer1_0_3_STROKES_2_);stroke-width:5;stroke-linecap:round;stroke-linejoin:round;}
	.st10{fill:none;stroke:url(#Layer1_0_3_STROKES_3_);stroke-width:5;stroke-linecap:round;stroke-linejoin:round;}
</style>
<g transform="matrix( 1, 0, 0, 1, 0,0) ">
	<g>
		<g id="Layer1_0_FILL">
			<path class="st0" d="M32.4,8.4c-5.2,2.2-10,5.4-14.3,9.7s-7.6,9.1-9.8,14.4h24.1V8.4 M14,28.9c1.8-3,4-5.8,6.6-8.4
				s5.4-4.8,8.3-6.6v14.9H14 M82.1,18c-4.4-4.4-9.2-7.6-14.5-9.8v24.2h24.2C89.7,27.3,86.4,22.4,82.1,18 M79.6,20.5
				c2.6,2.6,4.8,5.4,6.6,8.4H71.1v-15C74.1,15.8,76.9,17.9,79.6,20.5 M18.1,82c4.3,4.3,9.1,7.6,14.3,9.8V67.7H8.3
				C10.5,72.9,13.8,77.7,18.1,82 M14,71.2h14.9v15c-3-1.8-5.8-4-8.3-6.6C18,77,15.8,74.2,14,71.2 M67.6,91.9
				c5.3-2.2,10.1-5.5,14.5-9.9c4.3-4.3,7.6-9.1,9.8-14.4H67.6V91.9 M71.1,71.2h15.1c-1.8,3-3.9,5.8-6.6,8.4
				c-2.7,2.6-5.5,4.8-8.5,6.7V71.2z"/>
			<path class="st1" d="M20.6,20.5c-2.6,2.6-4.8,5.4-6.6,8.4h14.9v-15C26,15.8,23.2,17.9,20.6,20.5 M86.2,28.9
				c-1.8-3-3.9-5.8-6.6-8.4c-2.7-2.7-5.5-4.9-8.5-6.6v15H86.2 M28.9,71.2H14c1.8,3,4,5.8,6.6,8.4s5.4,4.8,8.3,6.6V71.2 M86.2,71.2
				H71.1v15.1c3-1.8,5.8-4,8.5-6.7C82.2,77,84.4,74.2,86.2,71.2z"/>
			<g>
				
					<linearGradient id="Layer1_0_2_STROKES_2_" gradientUnits="userSpaceOnUse" x1="-1214" y1="21.3101" x2="-1214" y2="18.8081" gradientTransform="matrix(-6.123234e-17 -1 1 -6.123234e-17 0 -1163.95)">
					<stop  offset="0" style="stop-color:#626262"/>
					<stop  offset="1" style="stop-color:#FFFFFF"/>
				</linearGradient>
				<path id="Layer1_0_2_STROKES_1_" class="st2" d="M39.9,67.5c0-2-0.8-3.7-2.2-5.1c-1.5-1.5-3.2-2.2-5.3-2.2H13.6
					c-0.8-3.2-1.3-6.6-1.3-10.1c0-3.5,0.4-6.9,1.3-10h18.8c2.1,0,3.8-0.7,5.3-2.2c1.4-1.4,2.2-3.2,2.2-5.2"/>
			</g>
			<g>
				
					<linearGradient id="Layer1_0_2_STROKES_3_" gradientUnits="userSpaceOnUse" x1="49.95" y1="695.1436" x2="49.95" y2="690.9033" gradientTransform="matrix(6.123234e-17 1 -1 6.123234e-17 766.05 4.999995e-02)">
					<stop  offset="0" style="stop-color:#626262"/>
					<stop  offset="1" style="stop-color:#FFFFFF"/>
				</linearGradient>
				<path id="Layer1_0_2_STROKES" class="st3" d="M39.9,32.6c0-0.1,0-0.1,0-0.2V13.7c3.2-0.8,6.6-1.2,10.2-1.3c3.5,0,6.8,0.4,10,1.3
					v18.8c0,2.1,0.7,3.8,2.2,5.3s3.2,2.2,5.3,2.2h18.9c0.8,3.2,1.3,6.6,1.3,10.1s-0.4,6.9-1.3,10H67.6c-2.1,0-3.8,0.7-5.3,2.2
					s-2.2,3.2-2.2,5.3v18.9c-3.2,0.8-6.5,1.2-10,1.2c-3.6,0-7-0.4-10.2-1.3V67.7c0-1.9-0.6-3.5-1.8-4.9"/>
			</g>
			
				<linearGradient id="SVGID_1_" gradientUnits="userSpaceOnUse" x1="50" y1="34.9375" x2="50" y2="26.3625" gradientTransform="matrix(6.123234e-17 1 -1 6.123234e-17 100.05 4.999995e-02)">
				<stop  offset="0" style="stop-color:#313131"/>
				<stop  offset="1" style="stop-color:#D7D7D7"/>
			</linearGradient>
			<path class="st4" d="M32.4,91.9c5.4,2.3,11.3,3.4,17.7,3.4c6.3,0,12.1-1.1,17.5-3.3V67.7h24.2c2.3-5.4,3.4-11.3,3.4-17.6
				s-1.1-12.2-3.4-17.6H67.5V8.3c-5.3-2.2-11.1-3.4-17.4-3.4c-6.4,0-12.3,1.2-17.7,3.5v24.1H8.3C6,37.9,4.9,43.8,4.9,50
				S6,62.3,8.3,67.7h24.1V91.9 M50.1,87.8c-3.6,0-7-0.4-10.2-1.3V67.7c0-2.1-0.7-3.8-2.2-5.3s-3.2-2.2-5.3-2.2H13.6
				c-0.8-3.2-1.3-6.5-1.3-10s0.4-6.9,1.3-10.1h18.8c2.1,0,3.8-0.7,5.3-2.2s2.2-3.2,2.2-5.3V13.7c3.2-0.8,6.6-1.2,10.2-1.3
				c3.5,0,6.8,0.4,10,1.3v18.8c0,2.1,0.7,3.8,2.2,5.3s3.2,2.2,5.3,2.2h18.9c0.8,3.2,1.3,6.6,1.3,10.1s-0.4,6.9-1.3,10H67.6
				c-2.1,0-3.8,0.7-5.3,2.2s-2.2,3.2-2.2,5.3v18.9C56.9,87.4,53.6,87.8,50.1,87.8z"/>
			
				<linearGradient id="SVGID_2_" gradientUnits="userSpaceOnUse" x1="50" y1="36.4347" x2="50" y2="27.989" gradientTransform="matrix(6.123234e-17 1 1 -6.123234e-17 -1.95 4.999995e-02)">
				<stop  offset="0" style="stop-color:#313131"/>
				<stop  offset="1" style="stop-color:#D7D7D7"/>
			</linearGradient>
			<path class="st5" d="M50,4.9c-6.3,0-12.1,1.2-17.5,3.4v24.1H8.4C6.1,37.9,5,43.8,5,50s1.1,12.2,3.4,17.5h24v24.2
				c5.4,2.3,11.3,3.4,17.7,3.4c0.6,0,1.2,0,1.8-0.1c0.2-2.5,0.1-5,0-7.5c-0.6,0-1.2,0.1-1.8,0.1c-3.6,0-7-0.4-10.2-1.3V67.6
				c0-2.1-0.7-3.8-2.2-5.3S34.5,60,32.4,60H13.6c-0.8-3.2-1.3-6.5-1.3-10s0.4-6.9,1.3-10.1h18.8c2.1,0,3.8-0.7,5.3-2.2
				s2.2-3.2,2.2-5.3V13.7c3.2-0.8,6.5-1.2,10-1.2"/>
			
				<linearGradient id="SVGID_3_" gradientUnits="userSpaceOnUse" x1="-1213.95" y1="41.7" x2="-1213.95" y2="33.1" gradientTransform="matrix(-6.123234e-17 -1 1 -6.123234e-17 0 -1163.95)">
				<stop  offset="0" style="stop-color:#4F4F4F"/>
				<stop  offset="1" style="stop-color:#F5F5F5"/>
			</linearGradient>
			<path class="st6" d="M60.2,13.7c-3.2-0.8-6.6-1.3-10.2-1.3c-3.5,0-6.8,0.4-10,1.2v18.9c0,2.1-0.7,3.8-2.2,5.3S34.6,40,32.4,40
				H13.6c-0.8,3.2-1.3,6.5-1.3,10s0.4,6.9,1.3,10.1h18.8c2.1,0,3.8,0.7,5.3,2.2s2.2,3.2,2.2,5.3v18.8c3.2,0.8,6.5,1.3,10,1.3
				c3.6,0,7-0.4,10.2-1.3V67.7c0-2.1,0.7-3.8,2.2-5.3s3.2-2.2,5.3-2.2h18.8c0.8-3.2,1.3-6.6,1.3-10.1s-0.4-6.9-1.3-10H67.7
				c-2.1,0-3.8-0.7-5.3-2.2s-2.2-3.2-2.2-5.3V13.7z"/>
			
				<linearGradient id="SVGID_4_" gradientUnits="userSpaceOnUse" x1="49.95" y1="707.7" x2="49.95" y2="699.1" gradientTransform="matrix(6.123234e-17 1 -1 6.123234e-17 766.05 4.999995e-02)">
				<stop  offset="0" style="stop-color:#4F4F4F"/>
				<stop  offset="1" style="stop-color:#F5F5F5"/>
			</linearGradient>
			<path class="st7" d="M48.8,15.7c0,11.8-0.8,23.6-0.9,35.4c-0.1,5.7,0.3,11.3,0.2,17c-0.2,5.5-0.3,10.8,1.6,16.1
				c0.5,1.4,0.4,2.6-0.1,3.5c0.2,0,0.4,0,0.6,0c3.5,0,6.8-0.4,10-1.2V67.6c0-2.1,0.7-3.8,2.2-5.3s3.1-2.2,5.2-2.2h18.8
				c0.8-3.2,1.3-6.5,1.3-10s-0.4-6.9-1.3-10.1H67.6c-2.1,0-3.8-0.7-5.3-2.2s-2.2-3.2-2.2-5.3V13.7c-3.2-0.8-6.5-1.3-10-1.3
				c-0.8,0-1.6,0-2.4,0.1C48.4,13.3,48.8,14.4,48.8,15.7z"/>
		</g>
	</g>
	<g>
		<path id="Layer1_0_1_STROKES" class="st8" d="M91.8,67.7C89.6,73,86.3,77.8,82,82.1c-4.4,4.4-9.2,7.7-14.5,9.9
			c-5.4,2.2-11.2,3.3-17.5,3.3c-6.4,0-12.3-1.1-17.7-3.4c-5.2-2.2-10-5.5-14.3-9.8S10.4,73,8.3,67.7 M8.2,32.8
			c0-0.1,0.1-0.2,0.1-0.3c2.2-5.2,5.4-10,9.8-14.4s9.1-7.6,14.3-9.7c5.4-2.3,11.3-3.5,17.7-3.5c6.3,0,12.1,1.1,17.5,3.3
			c5.3,2.2,10.1,5.5,14.5,9.8c4.3,4.3,7.6,9.1,9.8,14.4 M67.6,67.7v24.3 M67.6,8.3v24.2 M32.4,8.4c0,0,0,21.3,0,23.8 M32.4,91.9
			V67.7"/>
	</g>
	<g>
		
			<linearGradient id="Layer1_0_3_STROKES_2_" gradientUnits="userSpaceOnUse" x1="50" y1="695.95" x2="50" y2="678.35" gradientTransform="matrix(6.123234e-17 1 -1 6.123234e-17 766.05 4.999995e-02)">
			<stop  offset="0" style="stop-color:#1B1B1B"/>
			<stop  offset="1" style="stop-color:#404040"/>
		</linearGradient>
		<path id="Layer1_0_3_STROKES" class="st9" d="M91.8,32.5c2.3,5.4,3.4,11.3,3.4,17.6s-1.1,12.2-3.4,17.6H67.5 M91.8,32.5H67.5"/>
	</g>
</g>
<g>
	
		<linearGradient id="Layer1_0_3_STROKES_3_" gradientUnits="userSpaceOnUse" x1="-1214.05" y1="-32.8" x2="-1214.05" y2="-50.4" gradientTransform="matrix(-6.123234e-17 -1 1 -6.123234e-17 62.65 -1164)">
		<stop  offset="0" style="stop-color:#1B1B1B"/>
		<stop  offset="1" style="stop-color:#404040"/>
	</linearGradient>
	<path id="Layer1_0_3_STROKES_1_" class="st10" d="M8.2,67.7C6,62.2,4.9,56.3,4.9,50s1.1-12.2,3.3-17.6h24.2 M8.2,67.7h24.2"/>
</g>
</svg>
