<?xml version="1.0" encoding="utf-8"?>
<!-- Generator: Adobe Illustrator 24.1.2, SVG Export Plug-In . SVG Version: 6.00 Build 0)  -->
<svg version="1.1" id="Layer_1" xmlns="http://www.w3.org/2000/svg" xmlns:xlink="http://www.w3.org/1999/xlink" x="0px" y="0px"
	 viewBox="0 0 100 100" style="enable-background:new 0 0 100 100;" xml:space="preserve">
<style type="text/css">
	.st0{fill:url(#SVGID_1_);}
	.st1{fill:url(#SVGID_2_);}
	.st2{fill:none;stroke:#1B1B1B;stroke-width:5;stroke-linecap:round;stroke-linejoin:round;}
	.st3{fill:none;stroke:url(#Layer1_0_2_STROKES_1_);stroke-width:4;stroke-linecap:round;stroke-linejoin:round;}
	.st4{fill:none;stroke:url(#Layer1_0_3_STROKES_1_);stroke-width:5;stroke-linecap:round;stroke-linejoin:round;}
</style>
<g transform="matrix( 1, 0, 0, 1, 0,0) ">
	<g>
		<g id="Layer1_0_FILL">
			
				<linearGradient id="SVGID_1_" gradientUnits="userSpaceOnUse" x1="40.6547" y1="40.375" x2="51.1547" y2="53.375" gradientTransform="matrix(1 0 0 -1 0 102)">
				<stop  offset="0" style="stop-color:#D7D7D7"/>
				<stop  offset="1" style="stop-color:#313131"/>
			</linearGradient>
			<path class="st0" d="M92.8,40.2c-0.5-2.8-2.3-4.6-5.3-5.4H65.2V12.5c-0.7-3.2-2.5-5-5.4-5.3H40.2c-2.8,0.5-4.6,2.3-5.4,5.3v22.3
				H12.5c-3.1,0.7-4.9,2.5-5.3,5.4v19.6c0.4,2.9,2.2,4.7,5.3,5.4h22.3v22.3c0.7,3.1,2.5,4.9,5.4,5.3h19.6c2.9-0.4,4.7-2.2,5.4-5.3
				V65.2h22.3c3.2-0.7,5-2.5,5.3-5.4V40.2 M85.3,42.3v15.3H65.2c-2.1,0-3.8,0.7-5.3,2.2s-2.2,3.2-2.2,5.3v20.2H42.3V65.2
				c0-2.1-0.7-3.8-2.2-5.3c-1.5-1.5-3.2-2.2-5.3-2.2H14.6V42.3h20.2c2.1,0,3.8-0.7,5.3-2.2c1.5-1.5,2.2-3.2,2.2-5.3V14.6h15.3v20.2
				c0,2.1,0.7,3.8,2.2,5.3c1.5,1.5,3.2,2.2,5.3,2.2H85.3z"/>
			
				<linearGradient id="SVGID_2_" gradientUnits="userSpaceOnUse" x1="53.9123" y1="56.077" x2="41.4373" y2="43.077" gradientTransform="matrix(1 0 0 -1 0 102)">
				<stop  offset="0" style="stop-color:#4F4F4F"/>
				<stop  offset="1" style="stop-color:#F5F5F5"/>
			</linearGradient>
			<path class="st1" d="M85.3,57.7V42.3H65.2c-2.1,0-3.8-0.7-5.3-2.2c-1.5-1.5-2.2-3.2-2.2-5.3V14.6H42.3v20.2
				c0,2.1-0.7,3.8-2.2,5.3c-1.5,1.5-3.2,2.2-5.3,2.2H14.6v15.3h20.2c2.1,0,3.8,0.7,5.3,2.2c1.5,1.5,2.2,3.2,2.2,5.3v20.2h15.3V65.2
				c0-2.1,0.7-3.8,2.2-5.3s3.2-2.2,5.3-2.2H85.3z"/>
		</g>
	</g>
	<g>
		<path id="Layer1_0_1_STROKES" class="st2" d="M34.8,34.8V12.5c0.7-3.1,2.5-4.9,5.4-5.3h19.6c2.9,0.4,4.7,2.2,5.4,5.3v22.3h22.3
			c3.1,0.7,4.9,2.5,5.3,5.4v19.6c-0.4,2.9-2.2,4.7-5.3,5.4H65.2v22.3c-0.7,3.2-2.5,5-5.4,5.3H40.2c-2.8-0.5-4.6-2.3-5.4-5.3V65.2"/>
	</g>
	<g>
		
			<linearGradient id="Layer1_0_2_STROKES_1_" gradientUnits="userSpaceOnUse" x1="43.6513" y1="43.2431" x2="51.6263" y2="54.2431" gradientTransform="matrix(1 0 0 -1 0 102)">
			<stop  offset="0" style="stop-color:#FFFFFF"/>
			<stop  offset="1" style="stop-color:#626262"/>
		</linearGradient>
		<path id="Layer1_0_2_STROKES" class="st3" d="M85.3,42.3v15.3H65.2c-2.1,0-3.8,0.7-5.3,2.2s-2.2,3.2-2.2,5.3v20.2H42.3V65.2
			c0-2.1-0.7-3.8-2.2-5.3c-1.5-1.5-3.2-2.2-5.3-2.2H14.6V42.3h20.2c2.1,0,3.8-0.7,5.3-2.2c1.5-1.5,2.2-3.2,2.2-5.3V14.6h15.3v20.2
			c0,2.1,0.7,3.8,2.2,5.3c1.5,1.5,3.2,2.2,5.3,2.2H85.3z"/>
	</g>
	<g>
		
			<linearGradient id="Layer1_0_3_STROKES_1_" gradientUnits="userSpaceOnUse" x1="20.5125" y1="52" x2="32.4875" y2="52" gradientTransform="matrix(1 0 0 -1 0 102)">
			<stop  offset="0" style="stop-color:#404040"/>
			<stop  offset="1" style="stop-color:#1B1B1B"/>
		</linearGradient>
		<path id="Layer1_0_3_STROKES" class="st4" d="M34.8,65.2H12.5c-3.2-0.7-5-2.5-5.3-5.4V40.2c0.5-2.8,2.3-4.6,5.3-5.4h22.3"/>
	</g>
</g>
</svg>
