<?xml version="1.0" encoding="utf-8"?>
<!-- Generator: Adobe Illustrator 24.1.2, SVG Export Plug-In . SVG Version: 6.00 Build 0)  -->
<svg version="1.1" id="Layer_1" xmlns="http://www.w3.org/2000/svg" xmlns:xlink="http://www.w3.org/1999/xlink" x="0px" y="0px"
	 viewBox="0 0 100 100" style="enable-background:new 0 0 100 100;" xml:space="preserve">
<g transform="matrix( 1, 0, 0, 1, 0,0) ">
	<g>
		<g id="Layer1_0_FILL">
			<path style="fill:#000000;" d="M48.1,72.4c0-0.5,0.2-1,0.6-1.4c0.4-0.4,0.8-0.6,1.5-0.6c0.5,0,1,0.1,1.4,0.4s0.6,0.7,0.6,1.3
				c0,0.5-0.2,0.9-0.5,1.2c-0.3,0.4-0.6,0.7-0.9,0.9l-6.1,5.5v3.5h10.9v-2.9h-7l4.8-4.1c0.3-0.3,0.6-0.5,0.8-0.8
				c0.3-0.3,0.5-0.6,0.7-0.9s0.3-0.7,0.4-1.1c0.1-0.4,0.2-0.9,0.2-1.4c0-0.8-0.1-1.5-0.4-2.1c-0.3-0.6-0.6-1.1-1.1-1.5
				s-1-0.7-1.6-0.9c-0.6-0.2-1.3-0.3-2-0.3c-0.8,0-1.5,0.1-2.2,0.3c-0.7,0.2-1.2,0.5-1.7,0.9s-0.9,0.9-1.2,1.5s-0.5,1.3-0.5,2.1
				L48.1,72.4z"/>
		</g>
	</g>
	<g>
		<path id="Layer1_0_1_STROKES" style="fill:none;stroke:#000000;stroke-width:5;stroke-linecap:round;stroke-linejoin:round;" d="
			M71.8,57.7c-0.5,11.5-0.5,23.1,0,34.6c0,2.5-1.2,3.7-3.7,3.7H31.9c-2.5,0-3.7-1.2-3.7-3.7c0.5-11.5,0.5-23.1,0-34.6
			c0-2.5,1.2-3.7,3.7-3.7h36.2C70.6,54,71.8,55.2,71.8,57.7z"/>
	</g>
</g>
<g transform="matrix( 1, 0, 0, 1, 0,0) ">
	<g>
		<g id="Layer1_0_FILL_1_">
			<path style="fill:#000000;" d="M50,17.6c-0.7,0-1.3,0.1-2,0.2c-0.6,0.2-1.1,0.4-1.6,0.8C46,19,45.6,19.4,45.3,20
				c-0.3,0.5-0.4,1.1-0.4,1.8c0,0.8,0.2,1.5,0.7,2.1c0.4,0.6,1.1,1,1.9,1.2v0.1c-0.9,0.2-1.6,0.7-2.1,1.3c-0.5,0.6-0.7,1.4-0.7,2.3
				c0,0.7,0.1,1.4,0.4,1.9c0.3,0.6,0.7,1,1.2,1.4c0.5,0.4,1,0.6,1.7,0.8s1.3,0.3,2,0.3s1.4-0.1,2-0.3c0.7-0.2,1.2-0.5,1.7-0.8
				s0.9-0.8,1.2-1.4c0.3-0.5,0.4-1.2,0.4-1.9c0-0.9-0.2-1.7-0.7-2.3c-0.5-0.6-1.2-1.1-2.1-1.3v-0.1c0.8-0.2,1.4-0.7,1.9-1.2
				c0.4-0.6,0.7-1.3,0.7-2.1c0-0.7-0.1-1.3-0.4-1.8c-0.3-0.5-0.7-0.9-1.1-1.3c-0.5-0.3-1-0.6-1.6-0.8C51.3,17.7,50.7,17.6,50,17.6
				 M50,23.9c-0.5,0-1-0.2-1.3-0.5s-0.5-0.7-0.5-1.2c0-0.4,0.2-0.8,0.5-1.2c0.3-0.3,0.8-0.5,1.3-0.5s1,0.2,1.3,0.5s0.5,0.7,0.5,1.2
				s-0.2,0.9-0.5,1.2C51,23.8,50.5,23.9,50,23.9 M52.1,28.4c0,0.5-0.2,1-0.6,1.3c-0.4,0.4-0.9,0.5-1.6,0.5c-0.6,0-1.1-0.2-1.5-0.5
				c-0.4-0.4-0.6-0.8-0.6-1.3s0.2-1,0.6-1.4c0.4-0.4,0.9-0.5,1.5-0.5c0.7,0,1.2,0.2,1.6,0.5C51.9,27.4,52.1,27.9,52.1,28.4z"/>
		</g>
	</g>
	<g>
		
			<path id="Layer1_0_1_STROKES_1_" style="fill:none;stroke:#000000;stroke-width:5;stroke-linecap:round;stroke-linejoin:round;" d="
			M71,8.3c-0.5,11.1-0.5,22.2,0,33.3c0,2.4-1.2,3.6-3.6,3.6H32.6c-2.4,0-3.6-1.2-3.6-3.6c0.5-11.1,0.5-22.2,0-33.3
			c0-2.4,1.2-3.6,3.6-3.6h34.9C69.8,4.8,71,6,71,8.3z"/>
	</g>
</g>
</svg>
