<?xml version="1.0" encoding="utf-8"?>
<!-- Generator: Adobe Illustrator 24.1.2, SVG Export Plug-In . SVG Version: 6.00 Build 0)  -->
<svg version="1.1" id="Layer_1" xmlns="http://www.w3.org/2000/svg" xmlns:xlink="http://www.w3.org/1999/xlink" x="0px" y="0px"
	 viewBox="0 0 100 100" style="enable-background:new 0 0 100 100;" xml:space="preserve">
<g transform="matrix( 1, 0, 0, 1, 0,0) ">
	<g>
		<g id="Layer1_0_FILL">
			<path style="fill:#000000;" d="M26.3,42.9h-2.7L17,58h3.7l1.2-3.2h5.9l1.3,3.2h3.8L26.3,42.9 M26.7,52H23l1.9-4.7L26.7,52z"/>
		</g>
	</g>
	<g>
		<path id="Layer1_0_1_STROKES" style="fill:none;stroke:#000000;stroke-width:5;stroke-linecap:round;stroke-linejoin:round;" d="
			M46,33.3c-0.5,11.1-0.5,22.2,0,33.3c0,2.4-1.2,3.6-3.6,3.6H7.6C5.2,70.2,4,69,4,66.7c0.5-11.1,0.5-22.2,0-33.3
			c0-2.4,1.2-3.6,3.6-3.6h34.9C44.8,29.8,46,31,46,33.3z"/>
	</g>
</g>
<g transform="matrix( 1, 0, 0, 1, 0,0) ">
	<g>
		<g id="Layer1_0_FILL_1_">
			<path style="fill:#000000;" d="M76.9,43.3c-1.1-0.3-2.2-0.4-3.4-0.4h-5V58h5.4c1.1,0,2.2-0.2,3.2-0.5s1.9-0.8,2.7-1.4
				c0.8-0.6,1.4-1.4,1.9-2.3c0.4-0.9,0.7-2,0.7-3.2c0-1.4-0.2-2.6-0.7-3.5c-0.5-1-1.1-1.7-2-2.3C78.9,44,78,43.6,76.9,43.3 M77.4,47
				c0.4,0.4,0.8,0.8,1.1,1.4c0.3,0.5,0.4,1.2,0.4,1.9c0,0.9-0.1,1.6-0.4,2.2s-0.7,1.1-1.1,1.4c-0.5,0.4-1.1,0.6-1.7,0.8
				c-0.7,0.2-1.4,0.2-2.1,0.2h-1.7v-9h2c0.7,0,1.4,0.1,2,0.3C76.3,46.4,76.9,46.7,77.4,47z"/>
		</g>
	</g>
	<g>
		
			<path id="Layer1_0_1_STROKES_1_" style="fill:none;stroke:#000000;stroke-width:5;stroke-linecap:round;stroke-linejoin:round;" d="
			M96,33.3c-0.5,11.1-0.5,22.2,0,33.3c0,2.4-1.2,3.6-3.6,3.6H57.6c-2.4,0-3.6-1.2-3.6-3.6c0.5-11.1,0.5-22.2,0-33.3
			c0-2.4,1.2-3.6,3.6-3.6h34.9C94.8,29.8,96,31,96,33.3z"/>
	</g>
</g>
</svg>
