<?xml version="1.0" encoding="utf-8"?>
<!-- Generator: Adobe Illustrator 24.1.2, SVG Export Plug-In . SVG Version: 6.00 Build 0)  -->
<svg version="1.1" id="Layer_1" xmlns="http://www.w3.org/2000/svg" xmlns:xlink="http://www.w3.org/1999/xlink" x="0px" y="0px"
	 viewBox="0 0 100 100" style="enable-background:new 0 0 100 100;" xml:space="preserve">
<g transform="matrix( 1, 0, 0, 1, 0,0) ">
	<g>
		<g id="Layer1_0_FILL">
			<path style="fill:#000000;" d="M52.6,55c-0.4-0.4-0.8-0.6-1.3-0.8s-1-0.3-1.6-0.3c-0.3,0-0.5,0-0.8,0.2c-0.3,0.1-0.5,0.1-0.7,0.3
				c-0.2,0.1-0.4,0.2-0.5,0.4c-0.1,0.1-0.3,0.3-0.4,0.4v-1H45v11.6h2.5v-4.6h0c0.2,0.4,0.6,0.7,1,0.8c0.4,0.2,0.9,0.3,1.5,0.3
				c0.5,0,1-0.1,1.5-0.4c0.4-0.2,0.8-0.5,1.2-1c0.3-0.4,0.5-0.8,0.7-1.3c0.1-0.5,0.2-1,0.2-1.5c0-0.6-0.1-1.2-0.3-1.7
				C53.1,55.8,52.9,55.4,52.6,55 M50.7,56.5c0.3,0.4,0.5,0.8,0.5,1.5c0,0.6-0.2,1.1-0.5,1.5c-0.3,0.4-0.8,0.5-1.5,0.5
				s-1.1-0.2-1.5-0.5c-0.3-0.4-0.5-0.8-0.5-1.5s0.2-1.1,0.5-1.5c0.3-0.4,0.8-0.5,1.5-0.5S50.4,56.2,50.7,56.5 M62.3,58
				c0-0.7-0.1-1.3-0.2-1.8c-0.1-0.5-0.3-0.9-0.6-1.3c-0.3-0.3-0.6-0.6-1-0.8c-0.5-0.2-1.1-0.3-1.8-0.3c-0.6,0-1.3,0.1-1.9,0.3
				c-0.6,0.2-1.1,0.5-1.5,0.9l1.3,1.4c0.2-0.3,0.5-0.5,0.8-0.7c0.4-0.2,0.8-0.3,1.2-0.3s0.8,0.1,1,0.4c0.3,0.2,0.5,0.6,0.5,1
				c-0.3,0-0.7,0-1.1,0c-0.4,0-0.8,0-1.2,0c-0.4,0.1-0.8,0.2-1.2,0.3c-0.4,0.1-0.7,0.3-1,0.5c-0.3,0.2-0.5,0.5-0.7,0.8
				c-0.1,0.3-0.2,0.7-0.2,1.2c0,0.4,0.1,0.8,0.2,1c0.2,0.3,0.4,0.6,0.6,0.8c0.3,0.2,0.6,0.4,1,0.5c0.3,0.1,0.7,0.2,1,0.2
				c0.5,0,0.9-0.1,1.4-0.3c0.4-0.2,0.8-0.5,1.1-1v1h2.3V58 M58.7,58.5c0.3,0,0.5,0,0.7,0H60V59c0,0.3,0,0.5-0.1,0.7
				c-0.1,0.2-0.3,0.3-0.5,0.4c-0.2,0.1-0.4,0.2-0.6,0.3c-0.2,0.1-0.4,0.1-0.7,0.1c-0.2,0-0.5-0.1-0.8-0.3c-0.3-0.1-0.4-0.4-0.4-0.7
				c0-0.2,0.1-0.4,0.3-0.6c0.2-0.2,0.4-0.3,0.7-0.3C58.2,58.6,58.5,58.5,58.7,58.5 M69.4,54.1c-0.5-0.2-1-0.3-1.5-0.3
				c-0.6,0-1.1,0.1-1.7,0.3c-0.5,0.2-1,0.4-1.4,0.8c-0.4,0.4-0.7,0.8-0.9,1.3c-0.2,0.5-0.4,1.1-0.4,1.7c0,0.6,0.1,1.2,0.4,1.7
				c0.2,0.5,0.6,1,0.9,1.3c0.4,0.3,0.9,0.6,1.4,0.8s1.1,0.3,1.7,0.3c0.5,0,1-0.1,1.5-0.3c0.5-0.1,0.9-0.4,1.3-0.8l-1.6-1.7
				c-0.1,0.2-0.3,0.3-0.5,0.4C68.5,60,68.2,60,67.9,60c-0.6,0-1.1-0.2-1.4-0.5c-0.4-0.4-0.6-0.8-0.6-1.5s0.2-1.1,0.6-1.5
				c0.3-0.4,0.8-0.5,1.4-0.5c0.3,0,0.5,0,0.8,0.2c0.2,0.1,0.4,0.2,0.5,0.4l1.6-1.7C70.4,54.5,69.9,54.2,69.4,54.1 M78.5,55
				c-0.3-0.4-0.7-0.6-1.2-0.8c-0.5-0.2-1-0.3-1.5-0.3c-0.6,0-1.2,0.1-1.7,0.3c-0.5,0.2-1,0.4-1.4,0.8c-0.4,0.4-0.7,0.8-0.9,1.3
				c-0.2,0.5-0.3,1.1-0.3,1.7c0,0.6,0.1,1.2,0.3,1.7s0.5,1,0.9,1.3c0.4,0.3,0.9,0.6,1.4,0.8c0.5,0.2,1.1,0.3,1.7,0.3
				c0.6,0,1.3-0.1,1.9-0.4c0.6-0.3,1.1-0.7,1.5-1.2l-1.8-1.3c-0.2,0.3-0.4,0.5-0.7,0.7c-0.3,0.2-0.7,0.3-1,0.3
				c-0.5,0-0.9-0.1-1.2-0.4c-0.3-0.3-0.5-0.7-0.7-1.2h5.7V58c0-0.6-0.1-1.2-0.3-1.7C79.1,55.8,78.8,55.3,78.5,55 M74.3,56.1
				c0.2-0.1,0.3-0.3,0.5-0.4c0.2-0.1,0.5-0.1,0.7-0.1c0.4,0,0.8,0.2,1.1,0.5c0.3,0.3,0.4,0.6,0.4,1h-3.3c0-0.2,0.1-0.4,0.2-0.5
				C74.1,56.4,74.2,56.2,74.3,56.1 M39.8,50.2c-0.6,0-1.2,0.1-1.7,0.3c-0.5,0.1-1,0.4-1.4,0.7c-0.4,0.3-0.7,0.7-1,1.2
				c-0.2,0.5-0.3,1-0.3,1.6c0,0.7,0.1,1.2,0.4,1.6c0.3,0.4,0.6,0.7,1,0.9c0.4,0.3,0.9,0.5,1.3,0.6c0.4,0.2,0.9,0.3,1.3,0.4
				c0.4,0.1,0.7,0.3,1,0.6c0.2,0.2,0.4,0.4,0.4,0.8c0,0.2,0,0.4-0.1,0.5c-0.1,0.1-0.2,0.3-0.4,0.3c-0.2,0.1-0.4,0.2-0.6,0.3
				s-0.4,0.1-0.6,0.1c-0.4,0-0.8-0.1-1.2-0.3c-0.4-0.2-0.7-0.4-1-0.8l-1.8,2c0.6,0.5,1.2,0.9,1.8,1.1c0.7,0.2,1.4,0.3,2,0.3
				c0.6,0,1.2-0.1,1.8-0.2c0.5-0.1,1-0.4,1.4-0.7c0.4-0.3,0.7-0.7,1-1.2c0.2-0.5,0.3-1,0.3-1.6c0-0.7-0.1-1.3-0.3-1.7
				c-0.3-0.4-0.6-0.7-1-0.9c-0.4-0.3-0.8-0.5-1.3-0.6c-0.4-0.2-0.8-0.3-1.3-0.4c-0.4-0.1-0.7-0.3-1-0.5C38.1,54.3,38,54,38,53.7
				c0-0.2,0-0.4,0.1-0.6c0.1-0.1,0.3-0.2,0.5-0.3c0.2-0.1,0.3-0.2,0.5-0.2c0.2-0.1,0.4-0.1,0.6-0.1c0.3,0,0.6,0.1,1,0.3
				c0.4,0.1,0.6,0.3,0.8,0.5l1.8-1.9c-0.5-0.4-1-0.7-1.7-0.9C41,50.2,40.4,50.2,39.8,50.2 M38,43.2c-0.3,0-0.7,0-1.1,0
				c-0.4,0-0.8,0-1.2,0c-0.4,0.1-0.8,0.2-1.1,0.3c-0.4,0.1-0.7,0.3-1,0.5c-0.3,0.2-0.5,0.5-0.7,0.8c-0.1,0.3-0.2,0.7-0.2,1.2
				c0,0.4,0.1,0.8,0.2,1c0.1,0.3,0.3,0.6,0.6,0.8c0.2,0.2,0.5,0.4,0.9,0.5c0.3,0.1,0.7,0.2,1.1,0.2c0.5,0,0.9-0.1,1.4-0.3
				c0.4-0.2,0.8-0.6,1.1-1v1h2.3v-4c0-0.6-0.1-1.2-0.2-1.7s-0.3-0.9-0.6-1.3c-0.3-0.3-0.6-0.6-1-0.8c-0.5-0.2-1.1-0.3-1.8-0.3
				c-0.7,0-1.3,0.1-1.9,0.3c-0.6,0.2-1.1,0.5-1.6,1l1.3,1.3c0.3-0.3,0.6-0.5,0.9-0.7c0.4-0.2,0.8-0.3,1.2-0.3c0.4,0,0.7,0.1,1,0.4
				C37.8,42.4,38,42.8,38,43.2 M35,45.9c0-0.3,0.1-0.5,0.3-0.6c0.2-0.2,0.4-0.3,0.7-0.3c0.2-0.1,0.5-0.2,0.8-0.2c0.3,0,0.5,0,0.7,0
				H38v0.5c0,0.3,0,0.5-0.1,0.7c-0.1,0.2-0.3,0.3-0.4,0.5c-0.2,0.1-0.4,0.2-0.6,0.3c-0.2,0.1-0.4,0.1-0.7,0.1s-0.5-0.1-0.8-0.2
				C35.1,46.4,35,46.2,35,45.9 M27.1,36.8h-4.3v11.5h4.8c0.5,0,1-0.1,1.5-0.2c0.5-0.1,1-0.3,1.4-0.5c0.4-0.3,0.8-0.6,1.1-1
				c0.2-0.4,0.3-0.9,0.3-1.5c0-0.4,0-0.7-0.1-1c-0.1-0.3-0.3-0.6-0.5-0.8c-0.2-0.3-0.5-0.5-0.8-0.6c-0.3-0.2-0.7-0.3-1-0.3v0
				c0.6-0.2,1-0.5,1.4-0.9c0.4-0.4,0.5-1,0.5-1.6c0-0.6-0.1-1.1-0.3-1.5c-0.3-0.4-0.6-0.7-1-0.9c-0.4-0.2-0.9-0.3-1.5-0.4
				C28.1,36.8,27.6,36.8,27.1,36.8 M28.2,39.2c0.2,0.1,0.3,0.2,0.4,0.3c0.1,0.2,0.2,0.4,0.2,0.6c0,0.3-0.1,0.5-0.2,0.6
				c-0.1,0.2-0.2,0.3-0.4,0.3c-0.2,0.1-0.3,0.2-0.5,0.3c-0.2,0.1-0.4,0.1-0.6,0.1h-1.9v-2.5H27c0.2,0,0.4,0,0.6,0.1
				C27.9,38.9,28,39,28.2,39.2 M25.3,46v-2.6h2c0.2,0,0.4,0,0.6,0c0.3,0,0.5,0.1,0.6,0.2c0.2,0.1,0.4,0.2,0.6,0.3
				c0.2,0.2,0.3,0.4,0.3,0.7c0,0.2-0.1,0.4-0.2,0.6c-0.1,0.2-0.2,0.4-0.4,0.5S28.4,46,28.2,46c-0.2,0-0.4,0-0.6,0H25.3 M54.8,40.3
				L52,43.5V36h-2.5v12.3H52v-4h0l2.7,4h3l-3.2-4.3l3.2-3.6H54.8 M46.5,42.5c0.2,0.1,0.4,0.2,0.5,0.4l1.6-1.6
				c-0.4-0.4-0.8-0.7-1.3-0.9c-0.6-0.1-1.1-0.2-1.6-0.2c-0.6,0-1.1,0.1-1.6,0.3c-0.6,0.2-1.1,0.4-1.5,0.8s-0.7,0.8-0.9,1.3
				c-0.3,0.5-0.4,1.1-0.4,1.7c0,0.6,0.1,1.2,0.4,1.7c0.2,0.5,0.5,0.9,0.9,1.3c0.4,0.4,0.9,0.6,1.5,0.8c0.5,0.2,1.1,0.4,1.6,0.4
				c0.5,0,1-0.1,1.6-0.3c0.5-0.2,0.9-0.5,1.3-0.9l-1.6-1.6c-0.1,0.2-0.3,0.3-0.5,0.4c-0.2,0.1-0.4,0.2-0.7,0.2
				c-0.6,0-1.1-0.2-1.4-0.5c-0.4-0.4-0.5-0.9-0.5-1.5c0-0.6,0.2-1.1,0.5-1.5c0.3-0.4,0.8-0.5,1.4-0.5C46.1,42.3,46.4,42.3,46.5,42.5
				z"/>
		</g>
	</g>
	<g>
		<path id="Layer1_0_2_STROKES" style="fill:none;stroke:#000000;stroke-width:5;stroke-linecap:round;stroke-linejoin:round;" d="
			M87.9,22.1c3.3,0,5,1.7,5,5c-0.7,15.6-0.7,31.2,0,46.7c0,3.3-1.7,5-5,5H13.1c-3.3,0-5-1.7-5-5c0.7-15.5,0.7-31.1,0-46.7
			c0-3.3,1.7-5,5-5H87.9z"/>
	</g>
</g>
</svg>
