<?xml version="1.0" encoding="utf-8"?>
<!-- Generator: Adobe Illustrator 24.1.2, SVG Export Plug-In . SVG Version: 6.00 Build 0)  -->
<svg version="1.1" id="Layer_1" xmlns="http://www.w3.org/2000/svg" xmlns:xlink="http://www.w3.org/1999/xlink" x="0px" y="0px"
	 viewBox="0 0 100 100" style="enable-background:new 0 0 100 100;" xml:space="preserve">
<g transform="matrix( 1, 0, 0, 1, 0,0) ">
	<g>
		<g id="Layer1_0_FILL">
			<path style="fill:#000000;" d="M54,54.6c-0.7,0-1.3,0.1-1.9,0.3c-0.6,0.2-1.1,0.5-1.5,0.9c-0.4,0.4-0.8,0.9-1,1.5
				c-0.2,0.6-0.4,1.2-0.4,1.9c0,0.7,0.1,1.3,0.4,1.8c0.3,0.6,0.6,1.1,1,1.5s1,0.7,1.5,1c0.6,0.2,1.2,0.3,1.9,0.3
				c0.7,0,1.3-0.1,1.9-0.3c0.6-0.2,1.1-0.6,1.6-1c0.4-0.4,0.8-0.9,1-1.5c0.3-0.6,0.4-1.2,0.4-1.8c0-0.7-0.1-1.3-0.4-1.9
				c-0.2-0.6-0.6-1-1-1.5c-0.4-0.4-1-0.7-1.6-0.9C55.3,54.7,54.6,54.6,54,54.6 M54,61.4c-0.7,0-1.2-0.2-1.6-0.6
				c-0.4-0.4-0.5-1-0.5-1.6c0-0.7,0.2-1.2,0.5-1.7c0.4-0.4,0.9-0.6,1.6-0.6c0.7,0,1.2,0.2,1.6,0.6c0.4,0.4,0.5,1,0.5,1.7
				c0,0.6-0.2,1.2-0.5,1.6C55.1,61.2,54.6,61.4,54,61.4 M65,54.6c-0.7,0-1.3,0.1-1.9,0.3c-0.6,0.2-1.1,0.5-1.5,0.9
				c-0.4,0.4-0.8,0.9-1,1.5c-0.2,0.6-0.3,1.2-0.3,1.9c0,0.7,0.1,1.3,0.3,1.8c0.3,0.6,0.6,1.1,1,1.5c0.4,0.4,1,0.7,1.5,1
				c0.6,0.2,1.2,0.3,1.9,0.3c0.5,0,1-0.1,1.6-0.3s1.1-0.5,1.5-0.9l-1.8-1.8c-0.1,0.2-0.3,0.3-0.6,0.5c-0.2,0.1-0.5,0.2-0.8,0.2
				c-0.7,0-1.2-0.2-1.6-0.6c-0.4-0.4-0.6-1-0.6-1.6c0-0.7,0.2-1.2,0.6-1.7c0.4-0.4,0.9-0.6,1.6-0.6c0.3,0,0.5,0.1,0.8,0.2
				c0.3,0.1,0.5,0.3,0.6,0.5l1.8-1.9c-0.4-0.4-0.9-0.7-1.5-0.9C66,54.7,65.5,54.6,65,54.6 M71.8,58.3V50h-2.7v13.6h2.7v-4.5h0l3,4.5
				h3.4l-3.5-4.8l3.4-4h-3.3L71.8,58.3 M40.2,50.8v12.8h8V61H43V50.8H40.2 M32.5,36.5c-0.4-0.1-0.8-0.2-1.1-0.3
				C31,36.1,30.6,36,30.3,36c-1,0-1.9,0.2-2.8,0.5s-1.6,0.8-2.2,1.3c-0.6,0.6-1.1,1.3-1.4,2.1c-0.4,0.8-0.5,1.8-0.5,2.8
				c0,1,0.2,1.9,0.5,2.8c0.3,0.8,0.8,1.5,1.4,2.1c0.6,0.6,1.4,1,2.2,1.4c0.8,0.3,1.8,0.5,2.8,0.5c0.9,0,1.7-0.2,2.5-0.5
				c0.8-0.4,1.5-0.9,2-1.7l-2.3-1.8c-0.3,0.4-0.6,0.8-1.1,1c-0.4,0.3-0.9,0.4-1.5,0.4c-0.5,0-1-0.1-1.4-0.3
				c-0.4-0.2-0.8-0.5-1.1-0.8c-0.3-0.4-0.6-0.8-0.8-1.3c-0.2-0.5-0.3-1-0.3-1.6c0-0.6,0.1-1.2,0.3-1.7c0.2-0.5,0.5-0.9,0.8-1.3
				c0.3-0.4,0.7-0.7,1.1-0.8c0.5-0.2,1-0.4,1.5-0.4c0.5,0,1,0.1,1.4,0.3c0.4,0.2,0.8,0.4,1.1,0.8l2.1-1.8c-0.3-0.3-0.6-0.6-1-0.9
				C33.3,36.8,32.9,36.6,32.5,36.5 M59,40.3c-0.4,0.1-0.8,0.3-1.1,0.5c-0.3,0.2-0.6,0.5-0.9,0.9c-0.2,0.4-0.3,0.8-0.3,1.3
				s0.1,1,0.3,1.3c0.2,0.3,0.5,0.6,0.9,0.8c0.3,0.2,0.7,0.3,1.1,0.4c0.4,0.1,0.7,0.2,1.1,0.3c0.3,0.1,0.6,0.2,0.8,0.3
				c0.2,0.1,0.3,0.3,0.3,0.5c0,0.2-0.1,0.4-0.3,0.5c-0.3,0.1-0.6,0.1-0.9,0.1c-0.4,0-0.8-0.1-1.1-0.2c-0.3-0.2-0.6-0.4-0.8-0.8
				l-1.6,1.9c0.4,0.4,1,0.7,1.5,0.9c0.6,0.2,1.3,0.3,1.9,0.3c0.5,0,1,0,1.5-0.1c0.5-0.1,0.9-0.3,1.3-0.5c0.4-0.2,0.7-0.5,1-0.9
				c0.2-0.4,0.3-0.8,0.3-1.4c0-0.6-0.1-1-0.3-1.4c-0.2-0.3-0.5-0.6-0.9-0.8c-0.3-0.2-0.7-0.3-1-0.4c-0.4-0.1-0.8-0.2-1.1-0.3
				c-0.4-0.1-0.7-0.2-0.9-0.3c-0.2-0.1-0.3-0.3-0.3-0.5c0-0.3,0.1-0.5,0.3-0.6c0.2-0.1,0.5-0.1,0.7-0.1c0.6,0,1.2,0.2,1.5,0.7
				l1.7-1.6c-0.4-0.4-0.9-0.7-1.5-0.9c-0.6-0.2-1.2-0.3-1.8-0.3C60,40.2,59.5,40.2,59,40.3 M43.2,41.3c-0.3-0.4-0.7-0.7-1.2-0.8
				c-0.5-0.2-1.2-0.3-2-0.3c-0.7,0-1.4,0.1-2.1,0.3c-0.7,0.2-1.3,0.6-1.8,1l1.4,1.5c0.3-0.3,0.6-0.5,1-0.8C39,42,39.4,42,39.8,42
				c0.5,0,0.9,0.2,1.3,0.5c0.3,0.3,0.5,0.6,0.5,1.1c-0.4,0-0.8,0-1.2,0c-0.5,0-0.9,0-1.3,0.1c-0.4,0.1-0.9,0.2-1.3,0.3
				c-0.4,0.1-0.8,0.3-1.1,0.5c-0.3,0.2-0.5,0.5-0.8,0.8c-0.2,0.3-0.3,0.7-0.3,1.3c0,0.5,0.1,0.9,0.3,1.2c0.2,0.3,0.4,0.6,0.7,0.9
				c0.3,0.2,0.6,0.4,1,0.5c0.4,0.1,0.8,0.1,1.2,0.1c0.5,0,1-0.1,1.5-0.3s0.9-0.5,1.2-1h0v1.1H44v-4.4c0-0.7-0.1-1.4-0.2-2
				C43.7,42.2,43.5,41.7,43.2,41.3 M41.4,46.5c-0.1,0.2-0.3,0.4-0.5,0.5c-0.2,0.1-0.4,0.3-0.7,0.4c-0.2,0.1-0.5,0.1-0.8,0.1
				c-0.3,0-0.6-0.1-0.9-0.3c-0.3-0.2-0.4-0.4-0.4-0.8c0-0.3,0.1-0.5,0.3-0.7c0.2-0.2,0.5-0.3,0.8-0.4c0.3-0.1,0.5-0.2,0.8-0.2
				c0.3,0,0.5,0,0.8,0h0.7v0.6C41.5,46.1,41.5,46.4,41.4,46.5 M48.9,41c-0.2,0.2-0.3,0.3-0.4,0.5h0v-1.2H46v12.9h2.7v-5h0
				c0.3,0.4,0.7,0.7,1.2,0.9c0.5,0.2,1,0.3,1.5,0.3c0.6,0,1.2-0.1,1.7-0.3c0.5-0.3,0.9-0.6,1.3-1c0.3-0.4,0.6-0.9,0.8-1.5
				c0.2-0.5,0.3-1.1,0.3-1.8c0-0.7-0.1-1.3-0.3-1.8c-0.2-0.6-0.5-1-0.9-1.4c-0.4-0.4-0.9-0.7-1.4-1c-0.5-0.2-1.1-0.3-1.8-0.3
				c-0.3,0-0.6,0-0.9,0.1c-0.3,0.1-0.5,0.2-0.8,0.3C49.3,40.7,49.1,40.9,48.9,41 M49,43.1c0.4-0.4,0.9-0.6,1.6-0.6
				c0.7,0,1.2,0.2,1.6,0.6c0.4,0.4,0.5,1,0.5,1.7c0,0.6-0.2,1.2-0.5,1.6c-0.4,0.4-0.9,0.6-1.6,0.6c-0.7,0-1.2-0.2-1.6-0.6
				c-0.4-0.4-0.5-1-0.5-1.6C48.5,44.1,48.6,43.5,49,43.1z"/>
		</g>
	</g>
	<g>
		<path id="Layer1_0_2_STROKES" style="fill:none;stroke:#000000;stroke-width:5;stroke-linecap:round;stroke-linejoin:round;" d="
			M87.9,22.1c3.3,0,5,1.7,5,5c-0.7,15.6-0.7,31.2,0,46.7c0,3.3-1.7,5-5,5H13.1c-3.3,0-5-1.7-5-5c0.7-15.5,0.7-31.1,0-46.7
			c0-3.3,1.7-5,5-5H87.9z"/>
	</g>
</g>
</svg>
