<?xml version="1.0" encoding="utf-8"?>
<!-- Generator: Adobe Illustrator 24.1.2, SVG Export Plug-In . SVG Version: 6.00 Build 0)  -->
<svg version="1.1" id="Layer_1" xmlns="http://www.w3.org/2000/svg" xmlns:xlink="http://www.w3.org/1999/xlink" x="0px" y="0px"
	 viewBox="0 0 100 100" style="enable-background:new 0 0 100 100;" xml:space="preserve">
<g transform="matrix( 1, 0, 0, 1, 0,0) ">
	<path style="fill:none;stroke:#000000;stroke-width:5;" d="M84.9,23.1c-0.8,18.2-0.8,36.5,0,54.7
		c0,3.9-1.9,5.8-5.8,5.8H21.9c-3.9,0-5.9-1.9-5.9-5.8c0.8-18.2,0.8-36.4,0-54.7c0-3.9,2-5.9,5.9-5.9h57.2
		C83,17.3,84.9,19.3,84.9,23.1z"/>
	<path style="fill:none;stroke:#000000;stroke-width:5;" d="M55.8,45.2v-5.5c0-1.4,0.5-2.6,1.5-3.6
		c1-1.1,2.3-1.6,3.8-1.6s2.7,0.5,3.8,1.6c1.1,1,1.6,2.3,1.6,3.8c0,1.4-0.5,2.7-1.6,3.8c-1,1-2.3,1.5-3.8,1.5c-0.1,0-0.2,0-0.3,0
		H55.8v10.5h5c0.1,0,0.2,0,0.3,0c1.5,0,2.7,0.5,3.8,1.5c1.1,1,1.6,2.3,1.6,3.8s-0.5,2.7-1.6,3.8c-1,1.1-2.3,1.6-3.8,1.6
		s-2.7-0.5-3.8-1.6c-1-1-1.5-2.2-1.5-3.6v-5.5H45.3v5.5c0,1.4-0.5,2.6-1.5,3.6c-1.1,1.1-2.3,1.6-3.8,1.6s-2.7-0.5-3.8-1.6
		c-1.1-1-1.6-2.3-1.6-3.8s0.5-2.7,1.6-3.8c1-1,2.3-1.5,3.8-1.5c0.1,0,0.2,0,0.3,0h5V45.2h-5c-0.1,0-0.2,0-0.3,0
		c-1.5,0-2.7-0.5-3.8-1.5c-1.1-1.1-1.6-2.3-1.6-3.8s0.5-2.7,1.6-3.8c1-1.1,2.3-1.6,3.8-1.6c1.4,0,2.7,0.5,3.8,1.6
		c1,1,1.5,2.2,1.5,3.6v5.5H55.8z"/>
</g>
</svg>
