<?xml version="1.0" encoding="utf-8"?>
<!-- Generator: Adobe Illustrator 24.1.2, SVG Export Plug-In . SVG Version: 6.00 Build 0)  -->
<svg version="1.1" id="Layer_1" xmlns="http://www.w3.org/2000/svg" xmlns:xlink="http://www.w3.org/1999/xlink" x="0px" y="0px"
	 viewBox="0 0 100 100" style="enable-background:new 0 0 100 100;" xml:space="preserve">
<g transform="matrix( 1, 0, 0, 1, 0,0) ">
	<g>
		<g id="Layer1_0_FILL">
			<path style="fill:#000000;" d="M71.2,40.3h-3.8v18.9h3.8V40.3 M65.7,46.8c-0.2,0-0.4-0.1-0.6-0.1c-0.2,0-0.4,0-0.7,0
				c-0.9,0-1.6,0.2-2.1,0.5s-1,0.9-1.4,1.7h0v-2h-3.8v12.2h3.8V54c0-0.6,0-1.1,0.1-1.6c0-0.5,0.2-0.9,0.4-1.3c0.2-0.4,0.6-0.7,1-0.9
				c0.4-0.2,1-0.3,1.7-0.3c0.3,0,0.5,0,0.8,0c0.2,0,0.5,0.1,0.8,0.2V46.8 M41.8,46l3-2.5c-0.4-0.5-0.8-0.9-1.3-1.2
				c-0.5-0.3-1-0.6-1.5-0.9c-0.5-0.2-1-0.3-1.5-0.4C39.9,41,39.3,41,38.8,41c-1.4,0-2.6,0.2-3.8,0.7c-1.2,0.4-2.2,1-3,1.8
				c-0.8,0.8-1.5,1.8-2,3c-0.5,1.2-0.7,2.4-0.7,3.8c0,1.4,0.2,2.7,0.7,3.9c0.5,1.2,1.2,2.1,2,2.9c0.9,0.8,1.9,1.4,3,1.9
				c1.2,0.4,2.4,0.6,3.8,0.6c1.2,0,2.4-0.3,3.6-0.8c1.2-0.5,2.1-1.3,2.8-2.3L42,54.1c-0.4,0.6-0.9,1.1-1.5,1.4
				c-0.6,0.3-1.4,0.5-2.2,0.5c-0.7,0-1.3-0.1-1.9-0.5c-0.6-0.3-1.1-0.6-1.6-1.1c-0.4-0.5-0.8-1.1-1-1.8c-0.3-0.7-0.4-1.5-0.4-2.3
				c0-0.8,0.1-1.5,0.4-2.3c0.3-0.7,0.6-1.3,1-1.8c0.5-0.5,1-0.9,1.7-1.2c0.6-0.3,1.3-0.5,2-0.5c0.7,0,1.4,0.1,2,0.4
				C41,45.2,41.5,45.6,41.8,46 M48.2,47h-2.4v3h2.4v5.8c0,0.7,0.1,1.2,0.3,1.7c0.2,0.5,0.5,0.8,0.9,1.1c0.4,0.3,0.9,0.5,1.4,0.7
				c0.5,0.1,1.1,0.2,1.8,0.2c0.5,0,0.9,0,1.4,0c0.4-0.1,0.9-0.2,1.3-0.3V56c-0.2,0.2-0.4,0.3-0.8,0.3c-0.3,0-0.6,0-0.8,0
				c-0.4,0-0.7,0-1-0.1c-0.2-0.1-0.4-0.3-0.5-0.5C52.1,55.5,52,55.3,52,55c0-0.3,0-0.6,0-0.9v-4h3.3v-3h-3.3v-3.6h-3.8V47z"/>
		</g>
	</g>
	<g>
		<path id="Layer1_0_2_STROKES" style="fill:none;stroke:#000000;stroke-width:5;stroke-linecap:round;stroke-linejoin:round;" d="
			M87.9,22.1c3.3,0,5,1.7,5,5c-0.7,15.6-0.7,31.2,0,46.7c0,3.3-1.7,5-5,5H13.1c-3.3,0-5-1.7-5-5c0.7-15.5,0.7-31.1,0-46.7
			c0-3.3,1.7-5,5-5H87.9z"/>
	</g>
</g>
</svg>
