<?xml version="1.0" encoding="utf-8"?>
<!-- Generator: Adobe Illustrator 24.1.2, SVG Export Plug-In . SVG Version: 6.00 Build 0)  -->
<svg version="1.1" id="Layer_1" xmlns="http://www.w3.org/2000/svg" xmlns:xlink="http://www.w3.org/1999/xlink" x="0px" y="0px"
	 viewBox="0 0 100 100" style="enable-background:new 0 0 100 100;" xml:space="preserve">
<g transform="matrix( 1, 0, 0, 1, 0,0) ">
	<g>
		<g id="Layer1_0_FILL">
			<path style="fill:#000000;" d="M57.1,38.8h-5.5v15.9c0,0.5,0,1,0,1.5c0,0.5-0.1,1-0.3,1.5s-0.4,0.9-0.8,1.2
				c-0.4,0.3-0.9,0.5-1.5,0.5c-0.6,0-1.1-0.2-1.6-0.7c-0.5-0.4-0.8-0.9-0.9-1.5l-5,1.2c0.4,2,1.3,3.5,2.7,4.4c1.4,0.9,3,1.4,5,1.4
				c1.7,0,3.1-0.3,4.1-0.8s1.8-1.2,2.4-2c0.6-0.8,1-1.8,1.1-2.8c0.2-1.1,0.3-2.2,0.3-3.4V38.8z"/>
		</g>
	</g>
	<g>
		<path id="Layer1_0_1_STROKES" style="fill:none;stroke:#000000;stroke-width:5;stroke-linecap:round;stroke-linejoin:round;" d="
			M84.9,23.1c-0.8,18.2-0.8,36.5,0,54.7c0,3.9-1.9,5.8-5.8,5.8H21.9c-3.9,0-5.9-1.9-5.9-5.8c0.8-18.2,0.8-36.4,0-54.7
			c0-3.9,2-5.9,5.9-5.9h57.2C83,17.3,84.9,19.3,84.9,23.1z"/>
	</g>
</g>
</svg>
