<?xml version="1.0" encoding="utf-8"?>
<!-- Generator: Adobe Illustrator 24.1.2, SVG Export Plug-In . SVG Version: 6.00 Build 0)  -->
<svg version="1.1" id="Layer_1" xmlns="http://www.w3.org/2000/svg" xmlns:xlink="http://www.w3.org/1999/xlink" x="0px" y="0px"
	 viewBox="0 0 100 100" style="enable-background:new 0 0 100 100;" xml:space="preserve">
<g transform="matrix( 1, 0, 0, 1, 0,0) ">
	<g>
		<g id="Layer1_0_FILL">
			<path style="fill:#000000;" d="M47.3,61.7c-0.5-0.2-1-0.2-1.5-0.3c-0.6,0-1.1,0.1-1.6,0.3c-0.5,0.2-0.9,0.4-1.3,0.8
				c-0.4,0.3-0.6,0.8-0.8,1.3c-0.2,0.5-0.3,1-0.3,1.5c0,0.6,0.1,1.1,0.3,1.6c0.2,0.5,0.5,0.9,0.8,1.2s0.8,0.6,1.3,0.8
				c0.5,0.2,1,0.3,1.6,0.3c0.5,0,1-0.1,1.5-0.3c0.5-0.2,0.9-0.4,1.3-0.8s0.7-0.7,0.9-1.2c0.2-0.5,0.3-1,0.3-1.6
				c0-0.6-0.1-1.1-0.3-1.5c-0.2-0.5-0.5-0.9-0.9-1.3C48.2,62.1,47.8,61.8,47.3,61.7 M47.5,65.2c0,0.6-0.1,1-0.5,1.4
				c-0.3,0.3-0.7,0.5-1.3,0.5c-0.6,0-1-0.2-1.3-0.5S44,65.8,44,65.2c0-0.5,0.2-1,0.5-1.3c0.3-0.3,0.7-0.5,1.3-0.5
				c0.6,0,1,0.2,1.3,0.5C47.4,64.2,47.5,64.7,47.5,65.2 M57.8,61.5h-2.4l-1.3,4.6h-0.1l-1.5-4.6h-2.3l2.7,7.3h2.3l1.3-4.8h0l1.5,4.8
				h2.3l2.5-7.3h-2.3l-1.3,4.6h0L57.8,61.5 M65.8,61.5h-2.2v7.3h2.3v-3.7c0-0.2,0-0.4,0.1-0.6c0-0.2,0.1-0.4,0.2-0.6
				c0.1-0.2,0.2-0.3,0.4-0.5c0.2-0.1,0.4-0.2,0.7-0.2c0.3,0,0.5,0.1,0.7,0.2c0.2,0.1,0.3,0.3,0.3,0.5c0.1,0.2,0.1,0.4,0.2,0.6
				c0,0.2,0,0.5,0,0.7v3.5h2.3v-4c0-0.5,0-1-0.1-1.4c-0.1-0.4-0.2-0.8-0.4-1.1c-0.2-0.3-0.5-0.5-0.8-0.7c-0.4-0.2-0.8-0.2-1.4-0.3
				c-0.3,0-0.5,0-0.8,0.1c-0.2,0.1-0.4,0.1-0.6,0.3s-0.3,0.2-0.5,0.4c-0.1,0.1-0.2,0.3-0.3,0.4h-0.1V61.5 M34.3,58.3h-3.5v10.6h3.8
				c0.8,0,1.5-0.1,2.3-0.3c0.7-0.2,1.4-0.6,1.9-1c0.6-0.4,1-1,1.4-1.7c0.3-0.7,0.4-1.4,0.4-2.3c0-1-0.2-1.8-0.5-2.5
				c-0.3-0.7-0.8-1.2-1.3-1.6c-0.6-0.4-1.2-0.8-2-1C36,58.3,35.2,58.3,34.3,58.3 M33.2,60.4h1.4c0.5,0,1,0.1,1.4,0.2
				c0.4,0.1,0.8,0.3,1.1,0.6c0.3,0.2,0.6,0.5,0.8,0.9c0.2,0.4,0.3,0.8,0.3,1.4c0,0.6-0.1,1.1-0.3,1.5c-0.2,0.4-0.5,0.7-0.8,1
				c-0.3,0.2-0.7,0.4-1.2,0.5c-0.5,0.1-1,0.2-1.5,0.2h-1.3V60.4 M34.8,44.3h-3.9V55h2.3v-4.2h1.8c0.5,0,1,0,1.5-0.1
				c0.5-0.1,0.9-0.3,1.3-0.6c0.3-0.2,0.6-0.6,0.8-1c0.2-0.4,0.3-0.9,0.3-1.5c0-0.6-0.1-1.2-0.3-1.5c-0.2-0.4-0.5-0.8-0.9-1
				c-0.4-0.2-0.8-0.4-1.3-0.5C35.8,44.4,35.3,44.3,34.8,44.3 M33.2,48.8v-2.5h1.2c0.2,0,0.5,0,0.7,0c0.2,0,0.5,0.1,0.7,0.2
				c0.2,0.1,0.4,0.2,0.5,0.4c0.1,0.2,0.2,0.4,0.2,0.6c0,0.3,0,0.5-0.2,0.7c-0.1,0.2-0.2,0.3-0.4,0.3c-0.1,0.1-0.3,0.2-0.5,0.3
				c-0.2,0-0.4,0-0.6,0H33.2 M59.8,47.8c-0.5,0.2-0.9,0.4-1.3,0.8c-0.4,0.3-0.7,0.8-0.9,1.3c-0.2,0.5-0.3,1-0.3,1.5
				c0,0.6,0.1,1.1,0.3,1.6c0.2,0.5,0.5,0.9,0.9,1.2c0.4,0.3,0.8,0.6,1.3,0.8c0.5,0.2,1,0.3,1.5,0.3c0.6,0,1.2-0.1,1.8-0.4
				c0.5-0.2,1-0.6,1.4-1l-1.6-1.2c-0.2,0.3-0.4,0.5-0.6,0.7c-0.3,0.2-0.6,0.3-1,0.3c-0.4,0-0.8-0.1-1.1-0.4c-0.3-0.3-0.5-0.6-0.6-1
				h5.3v-0.7c0-0.6-0.1-1.1-0.3-1.5c-0.2-0.5-0.4-0.9-0.7-1.3s-0.7-0.6-1-0.8c-0.4-0.2-0.9-0.3-1.5-0.3S60.3,47.6,59.8,47.8
				 M60.5,49.2c0.2-0.1,0.4-0.1,0.6-0.1c0.4,0,0.7,0.1,1,0.4c0.3,0.3,0.4,0.6,0.4,1h-3c0-0.2,0.1-0.4,0.2-0.5
				c0.1-0.2,0.2-0.3,0.3-0.4C60.1,49.4,60.3,49.3,60.5,49.2 M49.7,47.8c-0.4,0.2-0.8,0.5-1,0.9c-0.3,0.3-0.5,0.7-0.7,1.2
				c-0.1,0.5-0.2,0.9-0.2,1.4c0,0.6,0.1,1.1,0.3,1.5c0.2,0.5,0.4,0.9,0.7,1.2c0.3,0.3,0.7,0.6,1.2,0.8c0.4,0.2,0.9,0.3,1.4,0.3
				c0.3,0,0.7-0.1,1.1-0.3c0.4-0.1,0.7-0.4,1-0.7h0v0.7c0,0.5-0.2,0.9-0.5,1.3c-0.3,0.4-0.8,0.5-1.5,0.5c-0.5,0-0.9-0.1-1.3-0.3
				c-0.4-0.2-0.7-0.4-1.1-0.6l-1.3,1.8c0.5,0.4,1.1,0.7,1.8,0.8c0.6,0.1,1.3,0.2,2,0.2c1.4,0,2.5-0.3,3.2-1c0.7-0.7,1-1.8,1-3.2
				v-6.7h-2.1v0.9c-0.1-0.1-0.2-0.2-0.3-0.3c-0.2-0.2-0.4-0.3-0.5-0.4c-0.2-0.1-0.4-0.2-0.7-0.3c-0.3-0.1-0.6-0.1-0.9-0.1
				C50.6,47.5,50.1,47.6,49.7,47.8 M53.5,50.6c0.1,0.2,0.1,0.4,0.1,0.7c0,0.2,0,0.5-0.1,0.7c-0.1,0.2-0.2,0.4-0.4,0.5
				c-0.2,0.2-0.3,0.3-0.5,0.4C52.3,53,52.1,53,51.8,53c-0.3,0-0.5,0-0.8-0.1c-0.2-0.1-0.4-0.2-0.5-0.4c-0.2-0.2-0.3-0.4-0.4-0.5
				c-0.1-0.2-0.1-0.5-0.1-0.7s0-0.5,0.1-0.7c0.1-0.2,0.2-0.4,0.4-0.6c0.2-0.2,0.3-0.3,0.5-0.4c0.2-0.1,0.5-0.1,0.8-0.1
				c0.2,0,0.5,0,0.7,0.1c0.2,0.1,0.4,0.2,0.5,0.4C53.3,50.2,53.4,50.4,53.5,50.6 M46,48.5c-0.3-0.3-0.6-0.5-1-0.7
				c-0.4-0.2-1-0.3-1.7-0.3c-0.6,0-1.2,0.1-1.8,0.3c-0.5,0.2-1,0.5-1.5,0.9l1.2,1.3c0.2-0.3,0.5-0.5,0.8-0.7
				c0.3-0.2,0.7-0.3,1.1-0.3s0.7,0.1,1,0.3c0.3,0.2,0.4,0.5,0.4,1c-0.3,0-0.6,0-1,0c-0.4,0-0.7,0-1.1,0.1c-0.4,0.1-0.7,0.1-1,0.3
				c-0.3,0.1-0.6,0.2-0.9,0.4s-0.5,0.4-0.7,0.7c-0.1,0.3-0.2,0.7-0.2,1.1c0,0.4,0.1,0.7,0.2,0.9c0.1,0.3,0.3,0.5,0.6,0.7
				c0.2,0.2,0.5,0.3,0.8,0.5c0.3,0.1,0.6,0.2,1,0.2c0.4,0,0.9-0.1,1.3-0.3c0.4-0.2,0.7-0.5,1-0.9V55h2.1v-3.7c0-0.6,0-1.1-0.2-1.6
				S46.2,48.8,46,48.5 M44,51.8h0.5v0.5c0,0.2,0,0.4-0.1,0.6c-0.1,0.2-0.2,0.3-0.4,0.4c-0.2,0.1-0.3,0.2-0.5,0.3s-0.4,0.1-0.7,0.1
				c-0.2,0-0.5-0.1-0.7-0.2s-0.4-0.3-0.4-0.6c0-0.2,0.1-0.4,0.3-0.5c0.2-0.2,0.4-0.3,0.6-0.3c0.2-0.1,0.5-0.1,0.7-0.1
				C43.6,51.8,43.8,51.8,44,51.8z"/>
		</g>
	</g>
	<g>
		<path id="Layer1_0_1_STROKES" style="fill:none;stroke:#000000;stroke-width:5;stroke-linecap:round;stroke-linejoin:round;" d="
			M84.9,23.1c-0.8,18.2-0.8,36.5,0,54.7c0,3.9-1.9,5.8-5.8,5.8H21.9c-3.9,0-5.9-1.9-5.9-5.8c0.8-18.2,0.8-36.4,0-54.7
			c0-3.9,2-5.9,5.9-5.9h57.2C83,17.3,84.9,19.3,84.9,23.1z"/>
	</g>
</g>
</svg>
