<?xml version="1.0" encoding="utf-8"?>
<!-- Generator: Adobe Illustrator 24.1.2, SVG Export Plug-In . SVG Version: 6.00 Build 0)  -->
<svg version="1.1" id="Layer_1" xmlns="http://www.w3.org/2000/svg" xmlns:xlink="http://www.w3.org/1999/xlink" x="0px" y="0px"
	 viewBox="0 0 100 100" style="enable-background:new 0 0 100 100;" xml:space="preserve">
<g transform="matrix( 1, 0, 0, 1, 0,0) ">
	<g>
		<g id="Layer1_0_FILL">
			<path style="fill:#000000;" d="M52.4,57.9c-0.4-0.2-0.9-0.3-1.4-0.3c-0.5,0-1,0.1-1.5,0.3s-0.9,0.5-1.2,0.8
				c-0.3,0.3-0.6,0.7-0.8,1.1c-0.2,0.5-0.3,1-0.3,1.5s0.1,1,0.3,1.5c0.2,0.4,0.5,0.8,0.8,1.2c0.3,0.3,0.7,0.5,1.2,0.7
				c0.5,0.2,1,0.3,1.5,0.3s1-0.1,1.4-0.3c0.5-0.2,0.9-0.4,1.2-0.7c0.3-0.4,0.6-0.8,0.8-1.2c0.2-0.5,0.3-1,0.3-1.5
				c0-0.5-0.1-1-0.3-1.5c-0.2-0.4-0.5-0.8-0.8-1.1C53.3,58.4,52.9,58.1,52.4,57.9 M55,36.2c-1.1-0.3-2.3-0.5-3.5-0.5
				c-2.8,0-5.1,0.8-6.9,2.3c-1.8,1.5-2.8,3.6-3.1,6.5l6.2,0.4c0.1-1,0.5-1.8,1.1-2.5c0.7-0.7,1.6-1,2.9-1c0.8,0,1.5,0.3,2,0.8
				c0.5,0.5,0.8,1.1,0.8,2c0,0.4-0.1,0.9-0.3,1.3c-0.3,0.4-0.6,0.8-1.1,1.3c-0.4,0.5-1,1-1.6,1.5c-0.6,0.5-1.3,1.2-2,1.9
				c-0.5,0.5-0.9,1-1.1,1.5c-0.2,0.6-0.3,1.3-0.3,2.1v1.8h6v-1.2c0-0.5,0.1-0.9,0.3-1.3c0.2-0.5,0.6-1,1.3-1.5c1-0.7,1.8-1.4,2.4-2
				c0.6-0.6,1.1-1.2,1.5-1.9c0.4-0.6,0.6-1.2,0.8-1.8c0.2-0.6,0.3-1.3,0.3-2.1c0-1.3-0.2-2.4-0.7-3.4c-0.5-1-1.2-1.8-2-2.5
				C57,37,56.1,36.5,55,36.2z"/>
		</g>
	</g>
	<g>
		<path id="Layer1_0_1_STROKES" style="fill:none;stroke:#000000;stroke-width:5;stroke-linecap:round;stroke-linejoin:round;" d="
			M84.9,23.1c-0.8,18.2-0.8,36.5,0,54.7c0,3.9-1.9,5.8-5.8,5.8H21.9c-3.9,0-5.9-1.9-5.9-5.8c0.8-18.2,0.8-36.4,0-54.7
			c0-3.9,2-5.9,5.9-5.9h57.2C83,17.3,84.9,19.3,84.9,23.1z"/>
	</g>
</g>
</svg>
