<?xml version="1.0" encoding="utf-8"?>
<!-- Generator: Adobe Illustrator 24.1.2, SVG Export Plug-In . SVG Version: 6.00 Build 0)  -->
<svg version="1.1" id="Layer_1" xmlns="http://www.w3.org/2000/svg" xmlns:xlink="http://www.w3.org/1999/xlink" x="0px" y="0px"
	 viewBox="0 0 100 100" style="enable-background:new 0 0 100 100;" xml:space="preserve">
<g transform="matrix( 1, 0, 0, 1, 0,0) ">
	<g>
		<g id="Layer1_0_FILL">
			<path style="fill:#000000;" d="M28.4,41.3c-0.8,0.2-1.5,0.6-2.1,1.1c-0.6,0.5-1.1,1.1-1.5,1.8c-0.4,0.7-0.5,1.5-0.5,2.5
				c0,1,0.2,1.8,0.6,2.4c0.4,0.6,1,1,1.6,1.4c0.6,0.4,1.3,0.7,2,0.9c0.7,0.2,1.4,0.4,2,0.6c0.6,0.2,1.1,0.5,1.5,0.8
				c0.4,0.3,0.6,0.7,0.6,1.3c0,0.3-0.1,0.6-0.2,0.8c-0.2,0.2-0.4,0.4-0.6,0.5c-0.3,0.2-0.5,0.3-0.9,0.4c-0.3,0.1-0.7,0.1-1,0.1
				c-0.6,0-1.3-0.1-1.9-0.5c-0.6-0.3-1.1-0.7-1.5-1.2l-2.8,3.1c0.8,0.8,1.8,1.3,2.8,1.7c1,0.3,2,0.5,3.2,0.5c0.9,0,1.8-0.1,2.6-0.3
				c0.8-0.2,1.5-0.6,2.1-1.1c0.6-0.5,1.1-1.1,1.5-1.8c0.4-0.7,0.6-1.6,0.6-2.5c0-1-0.2-1.9-0.6-2.5c-0.4-0.6-0.9-1.1-1.5-1.5
				c-0.6-0.4-1.3-0.7-2-0.8c-0.7-0.2-1.4-0.4-2-0.6c-0.6-0.2-1.1-0.4-1.5-0.7c-0.4-0.3-0.6-0.7-0.6-1.2c0-0.3,0.1-0.6,0.3-0.9
				c0.2-0.3,0.4-0.5,0.6-0.6s0.5-0.2,0.9-0.3c0.3-0.1,0.6-0.1,0.9-0.1c0.5,0,1,0.1,1.5,0.3c0.6,0.2,1,0.5,1.3,0.8l2.7-2.9
				c-0.8-0.7-1.6-1.1-2.6-1.4C32.9,41.1,32,41,31,41C30.1,41,29.2,41.1,28.4,41.3 M70.2,47h-2.4v3h2.4v5.8c0,0.7,0.1,1.2,0.3,1.7
				c0.2,0.5,0.5,0.8,0.9,1.1c0.4,0.3,0.9,0.5,1.4,0.7c0.5,0.1,1.1,0.2,1.8,0.2c0.5,0,0.9,0,1.3,0c0.4-0.1,0.9-0.2,1.3-0.3V56
				c-0.2,0.2-0.4,0.3-0.8,0.3s-0.6,0-0.8,0c-0.4,0-0.7,0-1-0.1c-0.2-0.1-0.4-0.3-0.5-0.5c-0.1-0.2-0.2-0.5-0.3-0.8
				c0-0.3,0-0.6,0-0.9v-4h3.3v-3h-3.3v-3.6h-3.8V47 M67.9,40.2c-0.3-0.1-0.7-0.1-1.1-0.2c-0.4,0-0.8,0-1.2,0c-1,0-1.8,0.1-2.4,0.4
				c-0.6,0.3-1.1,0.6-1.4,1.1c-0.3,0.4-0.6,1-0.7,1.5S61,44.2,61,44.8V47h-2.5v3H61v9.2h3.7V50h2.8v-3h-2.8v-1.9
				c0-0.8,0.2-1.3,0.5-1.6c0.3-0.3,0.8-0.4,1.3-0.4c0.2,0,0.5,0,0.7,0.1c0.2,0,0.4,0.1,0.6,0.2L67.9,40.2 M57,47h-3.8v12.2H57V47
				 M57.3,43.2c0-0.6-0.2-1.1-0.6-1.5c-0.4-0.4-1-0.7-1.6-0.7c-0.6,0-1.1,0.2-1.5,0.7c-0.4,0.4-0.6,0.9-0.6,1.5
				c0,0.6,0.2,1.1,0.6,1.5c0.4,0.4,1,0.6,1.5,0.6c0.6,0,1.1-0.2,1.6-0.6C57,44.3,57.3,43.8,57.3,43.2 M46,46.7c-0.4,0-0.8,0-1.2,0.1
				c-0.4,0.1-0.8,0.3-1,0.5c-0.3,0.2-0.5,0.4-0.7,0.7c-0.2,0.2-0.3,0.5-0.4,0.7h-0.1v-8.4h-3.8v18.9h3.8v-6.1c0-0.4,0-0.8,0.1-1.1
				c0-0.4,0.1-0.7,0.3-1c0.2-0.3,0.4-0.5,0.7-0.7s0.7-0.3,1.1-0.3c0.5,0,0.9,0.1,1.2,0.3c0.3,0.2,0.4,0.5,0.5,0.8
				c0.1,0.3,0.2,0.7,0.3,1s0,0.7,0,1.1v6h3.7v-6.7c0-0.8,0-1.6-0.2-2.3c-0.1-0.7-0.3-1.3-0.6-1.9c-0.3-0.5-0.8-0.9-1.4-1.2
				C47.8,46.9,47,46.7,46,46.7z"/>
		</g>
	</g>
	<g>
		<path id="Layer1_0_2_STROKES" style="fill:none;stroke:#000000;stroke-width:5;stroke-linecap:round;stroke-linejoin:round;" d="
			M87.9,22.1c3.3,0,5,1.7,5,5c-0.7,15.6-0.7,31.2,0,46.7c0,3.3-1.7,5-5,5H13.1c-3.3,0-5-1.7-5-5c0.7-15.5,0.7-31.1,0-46.7
			c0-3.3,1.7-5,5-5H87.9z"/>
	</g>
</g>
</svg>
