<?xml version="1.0" encoding="utf-8"?>
<!-- Generator: Adobe Illustrator 24.1.2, SVG Export Plug-In . SVG Version: 6.00 Build 0)  -->
<svg version="1.1" id="Layer_1" xmlns="http://www.w3.org/2000/svg" xmlns:xlink="http://www.w3.org/1999/xlink" x="0px" y="0px"
	 viewBox="0 0 100 100" style="enable-background:new 0 0 100 100;" xml:space="preserve">
<g transform="matrix( 1, 0, 0, 1, 0,0) ">
	<g>
		<g id="Layer1_0_FILL">
			<path style="fill:#000000;" d="M60.7,48.3L60.7,48.3l0-8h-3.8v18.9h3.5v-1.6h0c0.1,0.2,0.3,0.5,0.5,0.7c0.3,0.2,0.5,0.4,0.8,0.6
				c0.3,0.2,0.7,0.3,1.1,0.5c0.4,0.1,0.8,0.2,1.2,0.2c0.9,0,1.7-0.2,2.4-0.5c0.7-0.3,1.4-0.7,1.9-1.3c0.5-0.6,0.9-1.2,1.2-2
				c0.3-0.8,0.4-1.6,0.4-2.5c0-0.9-0.1-1.7-0.3-2.5c-0.3-0.8-0.6-1.5-1.1-2c-0.5-0.6-1.1-1.1-1.8-1.5c-0.7-0.4-1.5-0.5-2.3-0.5
				c-0.8,0-1.5,0.1-2.2,0.3C61.7,47.3,61.1,47.7,60.7,48.3 M61.2,50.8c0.5-0.6,1.3-0.8,2.3-0.8c0.9,0,1.7,0.3,2.2,0.8
				c0.5,0.6,0.8,1.3,0.8,2.3c0,0.9-0.3,1.6-0.8,2.2c-0.5,0.6-1.3,0.9-2.2,0.9c-1,0-1.7-0.3-2.3-0.9c-0.5-0.6-0.7-1.3-0.8-2.2
				C60.4,52.2,60.7,51.4,61.2,50.8 M44.1,44.9v-3.5h-14v3.5h5.1v14.3H39V44.9H44.1 M51.3,47.1c-0.7-0.3-1.6-0.4-2.7-0.4
				c-1,0-2,0.2-2.9,0.5c-0.9,0.3-1.8,0.8-2.5,1.5l2,2c0.4-0.4,0.9-0.8,1.4-1c0.5-0.3,1.1-0.4,1.7-0.4c0.6,0,1.2,0.2,1.7,0.6
				c0.5,0.4,0.7,0.9,0.7,1.6c-0.5,0-1.1,0-1.7,0c-0.6,0-1.2,0-1.8,0.1c-0.6,0.1-1.2,0.2-1.8,0.4c-0.6,0.2-1.1,0.4-1.5,0.8
				c-0.4,0.3-0.8,0.7-1,1.2c-0.3,0.5-0.4,1-0.4,1.8c0,0.6,0.1,1.1,0.3,1.6c0.2,0.5,0.6,0.9,1,1.2c0.4,0.3,0.8,0.6,1.4,0.7
				c0.5,0.2,1.1,0.3,1.6,0.3c0.8,0,1.5-0.1,2.2-0.4c0.7-0.3,1.3-0.8,1.7-1.5h0v1.6h3.5V53c0-1-0.1-1.9-0.3-2.7
				c-0.2-0.8-0.5-1.4-0.9-2C52.6,47.8,52,47.4,51.3,47.1 M50.8,53.8v0.8c0,0.4-0.1,0.7-0.3,1c-0.2,0.3-0.4,0.5-0.7,0.7
				c-0.2,0.2-0.5,0.3-0.9,0.4c-0.3,0.1-0.7,0.2-1,0.2c-0.4,0-0.8-0.1-1.2-0.4c-0.4-0.2-0.6-0.5-0.6-1c0-0.4,0.2-0.7,0.5-1
				c0.3-0.2,0.6-0.4,1-0.5c0.4-0.1,0.8-0.2,1.2-0.2c0.4,0,0.8,0,1,0H50.8z"/>
		</g>
	</g>
	<g>
		<path id="Layer1_0_2_STROKES" style="fill:none;stroke:#000000;stroke-width:5;stroke-linecap:round;stroke-linejoin:round;" d="
			M87.9,22.1c3.3,0,5,1.7,5,5c-0.7,15.6-0.7,31.2,0,46.7c0,3.3-1.7,5-5,5H13.1c-3.3,0-5-1.7-5-5c0.7-15.5,0.7-31.1,0-46.7
			c0-3.3,1.7-5,5-5H87.9z"/>
	</g>
</g>
</svg>
