<?xml version="1.0" encoding="utf-8"?>
<!-- Generator: Adobe Illustrator 24.1.2, SVG Export Plug-In . SVG Version: 6.00 Build 0)  -->
<svg version="1.1" id="Layer_1" xmlns="http://www.w3.org/2000/svg" xmlns:xlink="http://www.w3.org/1999/xlink" x="0px" y="0px"
	 viewBox="0 0 100 100" style="enable-background:new 0 0 100 100;" xml:space="preserve">
<g transform="matrix( 1, 0, 0, 1, 0,0) ">
	<g>
		<g id="Layer1_0_FILL_4_">
			<path style="fill:#000000;" d="M23,63.7h-6V61l-6.6,5l6.6,5v-2.7h6V63.7z"/>
		</g>
	</g>
	<g>
		
			<path id="Layer1_0_1_STROKES_4_" style="fill:none;stroke:#000000;stroke-width:5;stroke-linecap:round;stroke-linejoin:round;" d="
			M31,54.9c-0.3,7.4-0.3,14.8,0,22.2c0,1.6-0.8,2.4-2.4,2.4H5.4c-1.6,0-2.4-0.8-2.4-2.4c0.3-7.4,0.3-14.8,0-22.2
			c0-1.6,0.8-2.4,2.4-2.4h23.2C30.2,52.5,31,53.3,31,54.9z"/>
	</g>
</g>
<g transform="matrix( 1, 0, 0, 1, 0,0) ">
	<g>
		<g id="Layer1_0_FILL_5_">
			<path style="fill:#000000;" d="M52.3,59.7h-4.6v6H45l5,6.6l5-6.6h-2.7V59.7z"/>
		</g>
	</g>
	<g>
		
			<path id="Layer1_0_1_STROKES_5_" style="fill:none;stroke:#000000;stroke-width:5;stroke-linecap:round;stroke-linejoin:round;" d="
			M64,54.9c-0.3,7.4-0.3,14.8,0,22.2c0,1.6-0.8,2.4-2.4,2.4H38.4c-1.6,0-2.4-0.8-2.4-2.4c0.3-7.4,0.3-14.8,0-22.2
			c0-1.6,0.8-2.4,2.4-2.4h23.2C63.2,52.5,64,53.3,64,54.9z"/>
	</g>
</g>
<g transform="matrix( 1, 0, 0, 1, 0,0) ">
	<g>
		<g id="Layer1_0_FILL_6_">
			<path style="fill:#000000;" d="M47.5,40.6h4.6v-6h2.7l-5-6.6l-5,6.6h2.7V40.6z"/>
		</g>
	</g>
	<g>
		
			<path id="Layer1_0_1_STROKES_6_" style="fill:none;stroke:#000000;stroke-width:5;stroke-linecap:round;stroke-linejoin:round;" d="
			M63.8,23.2c-0.3,7.4-0.3,14.8,0,22.2c0,1.6-0.8,2.4-2.4,2.4H38.2c-1.6,0-2.4-0.8-2.4-2.4c0.3-7.4,0.3-14.8,0-22.2
			c0-1.6,0.8-2.4,2.4-2.4h23.2C63,20.9,63.8,21.7,63.8,23.2z"/>
	</g>
</g>
<g transform="matrix( 1, 0, 0, 1, 0,0) ">
	<g>
		<g id="Layer1_0_FILL_7_">
			<path style="fill:#000000;" d="M83.4,61v2.7h-6v4.6h6V71l6.6-5L83.4,61z"/>
		</g>
	</g>
	<g>
		
			<path id="Layer1_0_1_STROKES_7_" style="fill:none;stroke:#000000;stroke-width:5;stroke-linecap:round;stroke-linejoin:round;" d="
			M97,54.9c-0.3,7.4-0.3,14.8,0,22.2c0,1.6-0.8,2.4-2.4,2.4H71.4c-1.6,0-2.4-0.8-2.4-2.4c0.3-7.4,0.3-14.8,0-22.2
			c0-1.6,0.8-2.4,2.4-2.4h23.2C96.2,52.5,97,53.3,97,54.9z"/>
	</g>
</g>
</svg>
