
<svg xmlns="http://www.w3.org/2000/svg" version="1.1" xmlns:xlink="http://www.w3.org/1999/xlink" x="0px" y="0px" viewBox="0 0 100 100">
<defs>
<g id="Layer1_0_FILL">
<path fill="#313131" stroke="none" d="
M 75.25 24.7
Q 64.85 14.3 50 14.3 35.2 14.3 24.75 24.7 14.3 35.15 14.3 50 14.3 64.8 24.75 75.25 29.71015625 80.21015625 35.65 82.8 42.2248046875 85.7 50 85.7 57.8166015625 85.7 64.4 82.8 70.32421875 80.1994140625 75.25 75.25 85.7 64.8 85.7 50 85.7 35.15 75.25 24.7
M 50 22.8
Q 61.3 22.8 69.25 30.75 77.2 38.7 77.2 50 77.2 61.3 69.25 69.25 66.963671875 71.536328125 64.4 73.15 58.0501953125 77.2 50 77.2 42.004296875 77.2 35.65 73.15 33.0642578125 71.5498046875 30.75 69.25 22.8 61.3 22.8 50 22.8 38.7 30.75 30.75 38.75 22.8 50 22.8 Z"/>

<path fill="#4F4F4F" stroke="none" d="
M 69.25 30.75
Q 61.3 22.8 50 22.8 38.75 22.8 30.75 30.75 22.8 38.7 22.8 50 22.8 61.3 30.75 69.25 33.0642578125 71.5498046875 35.65 73.15 42.004296875 77.2 50 77.2 58.0501953125 77.2 64.4 73.15 66.963671875 71.536328125 69.25 69.25 77.2 61.3 77.2 50 77.2 38.7 69.25 30.75
M 62.7 37.35
L 62.7 43 62.7 37.35 57 37.35 62.7 37.35
M 37.35 43
L 37.35 37.35 43 37.35 37.35 37.35 37.35 43
M 37.35 62.7
L 37.35 57 37.35 62.7 43 62.7 37.35 62.7
M 62.7 57
L 62.7 62.7 57 62.7 62.7 62.7 62.7 57 Z"/>
</g>

<path id="Layer1_0_1_STROKES" stroke="#626262" stroke-width="4" stroke-linejoin="round" stroke-linecap="round" fill="none" d="
M 50 22.8
Q 61.3 22.8 69.25 30.75 77.2 38.7 77.2 50 77.2 61.3 69.25 69.25 66.963671875 71.536328125 64.4 73.175 58.0501953125 77.2 50 77.2 42.004296875 77.2 35.65 73.175 33.0642578125 71.5498046875 30.75 69.25 22.8 61.3 22.8 50 22.8 38.7 30.75 30.75 38.75 22.8 50 22.8 Z"/>

<path id="Layer1_0_2_STROKES" stroke="#1B1B1B" stroke-width="5" stroke-linejoin="round" stroke-linecap="round" fill="none" d="
M 50 14.3
Q 64.85 14.3 75.25 24.7 85.7 35.15 85.7 50 85.7 64.8 75.25 75.25 70.32421875 80.1994140625 64.4 82.8 57.8166015625 85.7 50 85.7 42.2248046875 85.7 35.65 82.825 29.71015625 80.21015625 24.75 75.25 14.3 64.8 14.3 50 14.3 35.15 24.75 24.7 35.2 14.3 50 14.3 Z"/>

<path id="Layer1_0_3_STROKES" stroke="#999999" stroke-width="5" stroke-linejoin="round" stroke-linecap="square" fill="none" d="
M 57 37.35
L 62.7 37.35 62.7 43
M 37.35 43
L 37.35 37.35 43 37.35
M 43 62.7
L 37.35 62.7 37.35 57
M 62.7 57
L 62.7 62.7 57 62.7"/>

</defs>

<g transform="matrix( 1, 0, 0, 1, 0,0) ">
<use xlink:href="#Layer1_0_FILL"/>

<use xlink:href="#Layer1_0_1_STROKES"/>

<use xlink:href="#Layer1_0_2_STROKES"/>

<use xlink:href="#Layer1_0_3_STROKES"/>
</g>

<g transform="matrix( 1, 0, 0, 1, -3.4,-28) ">
<clipPath id="Mask_Mask_1">
<rect x="30.05" y="-2" width="46.7" height="20.8" fill="#FFFFFF" stroke="none"/>
</clipPath>

<text clip-path="url(#Mask_Mask_1)" writing-mode="lr"><tspan x="32.1" y="13.6" baseline-shift="0%" kerning="auto" font-family="Arial_Regular" font-size="15" fill="#999999" xml:space="preserve">Stadia</tspan></text>
</g>
</svg>
