
<svg xmlns="http://www.w3.org/2000/svg" version="1.1" xmlns:xlink="http://www.w3.org/1999/xlink" x="0px" y="0px" viewBox="0 0 100 100">
<defs>
<g id="Layer1_0_FILL">
<path fill="#313131" stroke="none" d="
M 92.15 65.8
Q 91.85 47.7 89.05 29.7 48.85 28.65 8.9 34.15 7.15 51.95 9.25 70.45 50.75 69.15 92.15 65.8
M 82.8 36.75
Q 84.2 47.95 84.75 59.15 50.3 61.8 15.8 63 14.9 51.65 15.6 40.55 49.05 36.35 82.8 36.75 Z"/>

<path fill="#4F4F4F" stroke="none" d="
M 84.75 59.15
Q 84.2 47.95 82.8 36.75 49.05 36.35 15.6 40.55 14.9 51.65 15.8 63 50.3 61.8 84.75 59.15
M 52.15 42.35
L 55 42.25 55.8 56.5 52.9 56.65 52.3 45.8 49.5 48.5 47.7 46.55 52.15 42.35
M 48.3 54
L 48.45 56.9 39.45 57.45 38.65 43.2 41.8 43 42.45 54.35 48.3 54 Z"/>

<path fill="#8F8F8F" stroke="none" d="
M 48.45 56.9
L 48.3 54 42.45 54.35 41.8 43 38.65 43.2 39.45 57.45 48.45 56.9
M 55 42.25
L 52.15 42.35 47.7 46.55 49.5 48.5 52.3 45.8 52.9 56.65 55.8 56.5 55 42.25 Z"/>
</g>

<path id="Layer1_0_1_STROKES" stroke="#626262" stroke-width="4" stroke-linejoin="round" stroke-linecap="round" fill="none" d="
M 82.8 36.75
Q 84.2 47.95 84.75 59.15 50.3 61.8 15.8 63 14.9 51.65 15.6 40.55 49.05 36.35 82.8 36.75 Z"/>

<path id="Layer1_0_2_STROKES" stroke="#1B1B1B" stroke-width="5" stroke-linejoin="round" stroke-linecap="round" fill="none" d="
M 89.05 29.7
Q 91.85 47.7 92.15 65.8 50.75 69.15 9.25 70.45 7.15 51.95 8.9 34.15 48.85 28.65 89.05 29.7 Z"/>

</defs>

<g transform="matrix( 1, 0, 0, 1, 0,0) ">
<use xlink:href="#Layer1_0_FILL"/>

<use xlink:href="#Layer1_0_1_STROKES"/>

<use xlink:href="#Layer1_0_2_STROKES"/>
</g>

<g transform="matrix( 1, 0, 0, 1, -3.4,-28) ">
<clipPath id="Mask_Mask_1">
<rect x="30.05" y="-2" width="46.7" height="20.8" fill="#FFFFFF" stroke="none"/>
</clipPath>

<text clip-path="url(#Mask_Mask_1)" writing-mode="lr"><tspan x="32.1" y="13.6" baseline-shift="0%" kerning="auto" font-family="Arial_Regular" font-size="15" fill="#999999" xml:space="preserve">Stadia</tspan></text>
</g>
</svg>
