
<svg xmlns="http://www.w3.org/2000/svg" version="1.1" xmlns:xlink="http://www.w3.org/1999/xlink" x="0px" y="0px" viewBox="0 0 100 100">
<defs>
<g id="Layer1_0_FILL">
<path fill="#313131" stroke="none" d="
M 90.95 70.45
Q 93.05 51.95 91.3 34.15 51.35 28.65 11.15 29.7 8.35 47.7 8.05 65.8 49.45 69.15 90.95 70.45
M 84.6 40.55
Q 85.3 51.65 84.4 63 49.9 61.8 15.45 59.15 16 47.95 17.4 36.75 51.15 36.35 84.6 40.55 Z"/>

<path fill="#4F4F4F" stroke="none" d="
M 84.4 63
Q 85.3 51.65 84.6 40.55 51.15 36.35 17.4 36.75 16 47.95 15.45 59.15 49.9 61.8 84.4 63
M 46.85 42.05
Q 47.95 42.15 48.85 42.4 49.85 42.65 50.55 43.2 51.25 43.75 51.65 44.6 52 45.45 51.9 46.7 51.8 48.25 51 49.25 50.15 50.3 48.65 50.45
L 51.9 56.65 48.1 56.45 45.45 50.55 43.9 50.45 43.55 56.15 40.4 56 41.3 41.75 46.85 42.05
M 53.35 46.3
L 58.2 42.7 61 42.9 60.1 57.15 57.2 57 57.85 46.15 54.9 48.5 53.35 46.3
M 44.25 44.55
L 44.05 47.8 45.9 47.95
Q 46.3 47.95 46.8 48 47.3 47.95 47.7 47.85 48.1 47.7 48.35 47.4 48.65 47.1 48.65 46.5 48.7 46 48.5 45.6 48.3 45.25 47.95 45.1 47.6 44.9 47.2 44.8 46.75 44.7 46.3 44.7
L 44.25 44.55 Z"/>

<path fill="#8F8F8F" stroke="none" d="
M 58.2 42.7
L 53.35 46.3 54.9 48.5 57.85 46.15 57.2 57 60.1 57.15 61 42.9 58.2 42.7
M 48.85 42.4
Q 47.95 42.15 46.85 42.05
L 41.3 41.75 40.4 56 43.55 56.15 43.9 50.45 45.45 50.55 48.1 56.45 51.9 56.65 48.65 50.45
Q 50.15 50.3 51 49.25 51.8 48.25 51.9 46.7 52 45.45 51.65 44.6 51.25 43.75 50.55 43.2 49.85 42.65 48.85 42.4
M 44.05 47.8
L 44.25 44.55 46.3 44.7
Q 46.75 44.7 47.2 44.8 47.6 44.9 47.95 45.1 48.3 45.25 48.5 45.6 48.7 46 48.65 46.5 48.65 47.1 48.35 47.4 48.1 47.7 47.7 47.85 47.3 47.95 46.8 48 46.3 47.95 45.9 47.95
L 44.05 47.8 Z"/>
</g>

<path id="Layer1_0_1_STROKES" stroke="#1B1B1B" stroke-width="5" stroke-linejoin="round" stroke-linecap="round" fill="none" d="
M 90.95 70.45
Q 93.05 51.95 91.3 34.15 51.35 28.65 11.15 29.7 8.35 47.7 8.05 65.8 49.45 69.15 90.95 70.45 Z"/>

<path id="Layer1_0_2_STROKES" stroke="#626262" stroke-width="4" stroke-linejoin="round" stroke-linecap="round" fill="none" d="
M 84.4 63
Q 85.3 51.65 84.6 40.55 51.15 36.35 17.4 36.75 16 47.95 15.45 59.15 49.9 61.8 84.4 63 Z"/>

</defs>

<g transform="matrix( 1, 0, 0, 1, 0,0) ">
<use xlink:href="#Layer1_0_FILL"/>

<use xlink:href="#Layer1_0_1_STROKES"/>

<use xlink:href="#Layer1_0_2_STROKES"/>
</g>

<g transform="matrix( 1, 0, 0, 1, -3.4,-28) ">
<clipPath id="Mask_Mask_1">
<rect x="30.05" y="-2" width="46.7" height="20.8" fill="#FFFFFF" stroke="none"/>
</clipPath>

<text clip-path="url(#Mask_Mask_1)" writing-mode="lr"><tspan x="32.1" y="13.6" baseline-shift="0%" kerning="auto" font-family="Arial_Regular" font-size="15" fill="#999999" xml:space="preserve">Stadia</tspan></text>
</g>
</svg>
