
<svg xmlns="http://www.w3.org/2000/svg" version="1.1" xmlns:xlink="http://www.w3.org/1999/xlink" x="0px" y="0px" viewBox="0 0 100 100">
<defs>
<g id="Layer1_0_FILL">
<path fill="#313131" stroke="none" d="
M 92.8 39.95
Q 92.494140625 39.594140625 92.15 39.25 87.83515625 34.98359375 81.8 34.85
L 65.15 34.85 65.15 18.15
Q 64.95 12.15 60.65 7.85 60.3 7.5 59.95 7.15 55.75 3.4 49.95 3.4 44.2 3.4 39.95 7.2 39.6 7.5 39.25 7.85 35 12.15 34.85 18.15
L 34.85 34.85 18.15 34.85
Q 12.15 35.05 7.85 39.35 7.5 39.7 7.15 40.05 3.4 44.25 3.4 50.05 3.4 55.8 7.2 60.05 7.5 60.4 7.85 60.75 12.15 65 18.15 65.15
L 34.85 65.15 34.85 81.85
Q 35.05 87.85 39.35 92.15 39.7 92.5 40.05 92.85 44.25 96.6 50.05 96.6 55.8 96.6 60.05 92.8 60.4 92.5 60.75 92.15 65 87.85 65.15 81.85
L 65.15 65.15 81.8 65.15
Q 87.83515625 64.96484375 92.15 60.65 92.5015625 60.30234375 92.8 59.95 96.6 55.75234375 96.6 49.95 96.6 44.183203125 92.8 39.95
M 81.65 42.35
Q 84.6716796875 42.421484375 86.85 44.55
L 86.85 44.55
Q 86.9931640625 44.711328125 87.1 44.85 87.175 44.897265625 87.2 44.95 89.1162109375 47.0650390625 89.1 49.95 89.126953125 52.8048828125 87.3 54.85 87.2763671875 54.901171875 87.25 54.9 87.0705078125 55.1271484375 86.85 55.3
L 86.85 55.35
Q 84.653515625 57.544140625 81.6 57.65
L 65.15 57.65
Q 62.044921875 57.6515625 59.85 59.85 57.6515625 62.044921875 57.65 65.15
L 57.65 81.65
Q 57.57265625 84.6865234375 55.45 86.85
L 55.4 86.85
Q 55.2994140625 86.9953125 55.15 87.1 55.1265625 87.15234375 55.05 87.2 52.9263671875 89.1037109375 50.05 89.1 47.1451171875 89.1255859375 45.05 87.25 44.85 87.05 44.65 86.85 42.4611328125 84.6556640625 42.35 81.6
L 42.35 65.15
Q 42.3482421875 62.044921875 40.15 59.85 37.9548828125 57.6515625 34.85 57.65
L 18.35 57.65
Q 15.326171875 57.57265625 13.15 55.45
L 13.1 55.4
Q 13.0046875 55.2994140625 12.9 55.15 12.8474609375 55.1265625 12.8 55.05 10.8962890625 52.9263671875 10.9 50.05 10.8744140625 47.1451171875 12.75 45.05 12.95 44.85 13.15 44.65 15.3443359375 42.4611328125 18.4 42.35
L 34.85 42.35
Q 37.9548828125 42.3482421875 40.15 40.15 42.3482421875 37.9548828125 42.35 34.85
L 42.35 18.35
Q 42.4271484375 15.3259765625 44.55 13.15
L 44.55 13.1
Q 44.700390625 13.0046875 44.8 12.9 44.8732421875 12.8474609375 44.95 12.8 47.0734375 10.8962890625 49.95 10.9 52.8546875 10.8744140625 54.95 12.75 55.15 12.95 55.35 13.15 57.5388671875 15.3443359375 57.65 18.4
L 57.65 34.85
Q 57.6515625 37.9548828125 59.85 40.15 62.044921875 42.3482421875 65.15 42.35
L 81.65 42.35 Z"/>

<path fill="#4F4F4F" stroke="none" d="
M 86.85 44.55
Q 84.6716796875 42.421484375 81.65 42.35
L 65.15 42.35
Q 62.044921875 42.3482421875 59.85 40.15 57.6515625 37.9548828125 57.65 34.85
L 57.65 18.4
Q 57.5388671875 15.3443359375 55.35 13.15 55.15 12.95 54.95 12.75 52.8546875 10.8744140625 49.95 10.9 47.0734375 10.8962890625 44.95 12.8 44.8732421875 12.8474609375 44.8 12.9 44.700390625 13.0046875 44.55 13.1
L 44.55 13.15
Q 42.4271484375 15.3259765625 42.35 18.35
L 42.35 34.85
Q 42.3482421875 37.9548828125 40.15 40.15 37.9548828125 42.3482421875 34.85 42.35
L 18.4 42.35
Q 15.3443359375 42.4611328125 13.15 44.65 12.95 44.85 12.75 45.05 10.8744140625 47.1451171875 10.9 50.05 10.8962890625 52.9263671875 12.8 55.05 12.8474609375 55.1265625 12.9 55.15 13.0046875 55.2994140625 13.1 55.4
L 13.15 55.45
Q 15.326171875 57.57265625 18.35 57.65
L 34.85 57.65
Q 37.9548828125 57.6515625 40.15 59.85 42.3482421875 62.044921875 42.35 65.15
L 42.35 81.6
Q 42.4611328125 84.6556640625 44.65 86.85 44.85 87.05 45.05 87.25 47.1451171875 89.1255859375 50.05 89.1 52.9263671875 89.1037109375 55.05 87.2 55.1265625 87.15234375 55.15 87.1 55.2994140625 86.9953125 55.4 86.85
L 55.45 86.85
Q 57.57265625 84.6865234375 57.65 81.65
L 57.65 65.15
Q 57.6515625 62.044921875 59.85 59.85 62.044921875 57.6515625 65.15 57.65
L 81.6 57.65
Q 84.653515625 57.544140625 86.85 55.35
L 86.85 55.3
Q 87.0705078125 55.1271484375 87.25 54.9 87.2763671875 54.901171875 87.3 54.85 89.126953125 52.8048828125 89.1 49.95 89.1162109375 47.0650390625 87.2 44.95 87.175 44.897265625 87.1 44.85 86.9931640625 44.711328125 86.85 44.55
L 86.85 44.55 Z"/>
</g>

<path id="Layer1_0_1_STROKES" stroke="#1B1B1B" stroke-width="5" stroke-linejoin="round" stroke-linecap="round" fill="none" d="
M 81.825 34.85
Q 87.83515625 34.98359375 92.15 39.25 92.494140625 39.594140625 92.8 39.95 96.6 44.183203125 96.6 49.95 96.6 55.75234375 92.825 59.95 92.5015625 60.30234375 92.15 60.65 87.83515625 64.96484375 81.825 65.15
L 65.15 65.15 65.15 81.85
Q 65 87.85 60.75 92.15 60.4 92.5 60.05 92.8 55.8 96.6 50.05 96.6 44.25 96.6 40.05 92.85 39.7 92.5 39.35 92.15 35.05 87.85 34.85 81.85
L 34.85 65.15 18.15 65.15
Q 12.15 65 7.85 60.75 7.5 60.4 7.2 60.05 3.4 55.8 3.4 50.05 3.4 44.25 7.15 40.05 7.5 39.7 7.85 39.35 12.15 35.05 18.15 34.85
L 34.85 34.85 34.85 18.15
Q 35 12.15 39.25 7.85 39.6 7.5 39.95 7.2 44.2 3.4 49.95 3.4 55.75 3.4 59.95 7.15 60.3 7.5 60.65 7.85 64.95 12.15 65.15 18.15
L 65.15 34.85 81.825 34.85 Z"/>

<path id="Layer1_0_2_STROKES" stroke="#626262" stroke-width="4" stroke-linejoin="round" stroke-linecap="round" fill="none" d="
M 86.875 44.575
Q 86.9931640625 44.711328125 87.1 44.85 87.175 44.897265625 87.225 44.95 89.1162109375 47.0650390625 89.1 49.95 89.126953125 52.8048828125 87.3 54.875 87.2763671875 54.901171875 87.25 54.925 87.0705078125 55.1271484375 86.875 55.325
L 86.85 55.35
Q 84.653515625 57.544140625 81.6 57.65
L 65.15 57.65
Q 62.044921875 57.6515625 59.85 59.85 57.6515625 62.044921875 57.65 65.15
L 57.65 81.675
Q 57.57265625 84.6865234375 55.45 86.85
L 55.425 86.875
Q 55.2994140625 86.9953125 55.175 87.1 55.1265625 87.15234375 55.05 87.2 52.9263671875 89.1037109375 50.05 89.1 47.1451171875 89.1255859375 45.05 87.25 44.85 87.05 44.65 86.85 42.4611328125 84.6556640625 42.35 81.6
L 42.35 65.15
Q 42.3482421875 62.044921875 40.15 59.85 37.9548828125 57.6515625 34.85 57.65
L 18.35 57.65
Q 15.326171875 57.57265625 13.15 55.45
L 13.125 55.425
Q 13.0046875 55.2994140625 12.9 55.175 12.8474609375 55.1265625 12.8 55.05 10.8962890625 52.9263671875 10.9 50.05 10.8744140625 47.1451171875 12.75 45.05 12.95 44.85 13.15 44.65 15.3443359375 42.4611328125 18.4 42.35
L 34.85 42.35
Q 37.9548828125 42.3482421875 40.15 40.15 42.3482421875 37.9548828125 42.35 34.85
L 42.35 18.35
Q 42.4271484375 15.3259765625 44.55 13.15
L 44.575 13.125
Q 44.700390625 13.0046875 44.825 12.9 44.8732421875 12.8474609375 44.95 12.8 47.0734375 10.8962890625 49.95 10.9 52.8546875 10.8744140625 54.95 12.75 55.15 12.95 55.35 13.15 57.5388671875 15.3443359375 57.65 18.4
L 57.65 34.85
Q 57.6515625 37.9548828125 59.85 40.15 62.044921875 42.3482421875 65.15 42.35
L 81.65 42.35
Q 84.6716796875 42.421484375 86.85 44.55
L 86.875 44.575 Z"/>

</defs>

<g transform="matrix( 1, 0, 0, 1, 0,0) ">
<use xlink:href="#Layer1_0_FILL"/>

<use xlink:href="#Layer1_0_1_STROKES"/>

<use xlink:href="#Layer1_0_2_STROKES"/>
</g>

<g transform="matrix( 1, 0, 0, 1, -3.4,-28) ">
<clipPath id="Mask_Mask_1">
<rect x="30.05" y="-2" width="46.7" height="20.8" fill="#FFFFFF" stroke="none"/>
</clipPath>

<text clip-path="url(#Mask_Mask_1)" writing-mode="lr"><tspan x="32.1" y="13.6" baseline-shift="0%" kerning="auto" font-family="Arial_Regular" font-size="15" fill="#999999" xml:space="preserve">Stadia</tspan></text>
</g>
</svg>
