
<svg xmlns="http://www.w3.org/2000/svg" version="1.1" xmlns:xlink="http://www.w3.org/1999/xlink" x="0px" y="0px" viewBox="0 0 100 100">
<defs>
<linearGradient id="Gradient_1" gradientUnits="userSpaceOnUse" x1="50.15" y1="36.9" x2="50.15" y2="24.1" spreadMethod="pad">
<stop  offset="0%" stop-color="#313131"/>

<stop  offset="100%" stop-color="#D7D7D7"/>
</linearGradient>

<linearGradient id="Gradient_2" gradientUnits="userSpaceOnUse" x1="49.75" y1="40" x2="49.75" y2="29" spreadMethod="pad">
<stop  offset="0%" stop-color="#4F4F4F"/>

<stop  offset="100%" stop-color="#F5F5F5"/>
</linearGradient>

<linearGradient id="Gradient_3" gradientUnits="userSpaceOnUse" x1="49.25" y1="37" x2="49.25" y2="18.200000000000003" spreadMethod="pad">
<stop  offset="0%" stop-color="#626262"/>

<stop  offset="100%" stop-color="#FFFFFF"/>
</linearGradient>

<linearGradient id="Gradient_4" gradientUnits="userSpaceOnUse" x1="50.4" y1="32.2" x2="50.4" y2="7.5" spreadMethod="pad">
<stop  offset="0%" stop-color="#1B1B1B"/>

<stop  offset="100%" stop-color="#404040"/>
</linearGradient>

<g id="Layer1_0_FILL">
<path fill="url(#Gradient_1)" stroke="none" d="
M 92.8 39.95
Q 92.5 39.6 92.15 39.25 87.85 35 81.85 34.85
L 65.15 34.85 65.15 18.15
Q 64.95 12.15 60.65 7.85 60.3 7.5 59.95 7.15 55.75 3.4 49.95 3.4 44.2 3.4 39.95 7.2 39.6 7.5 39.25 7.85 35 12.15 34.85 18.15
L 34.85 34.85 18.15 34.85
Q 12.15 35.05 7.85 39.35 7.5 39.7 7.15 40.05 3.4 44.25 3.4 50.05 3.4 55.8 7.2 60.05 7.5 60.4 7.85 60.75 12.15 65 18.15 65.15
L 34.85 65.15 34.85 81.85
Q 35.05 87.85 39.35 92.15 39.7 92.5 40.05 92.85 44.25 96.6 50.05 96.6 55.8 96.6 60.05 92.8 60.4 92.5 60.75 92.15 65 87.85 65.15 81.85
L 65.15 65.15 81.85 65.15
Q 87.85 64.95 92.15 60.65 92.5 60.3 92.85 59.95 96.6 55.75 96.6 49.95 96.6 44.2 92.8 39.95
M 81.7 42.35
Q 84.7 42.45 86.85 44.55
L 86.9 44.55
Q 87 44.7 87.1 44.8 87.15 44.85 87.2 44.95 89.1 47.05 89.1 49.95 89.15 52.85 87.25 54.95 87.05 55.15 86.85 55.35 84.65 57.55 81.6 57.65
L 65.15 57.65
Q 62.05 57.65 59.85 59.85 57.65 62.05 57.65 65.15
L 57.65 81.65
Q 57.55 84.65 55.45 86.85 55.3 87 55.2 87.1 55.15 87.15 55.05 87.2 52.95 89.1 50.05 89.1 47.15 89.15 45.05 87.25 44.85 87.05 44.65 86.85 42.45 84.65 42.35 81.6
L 42.35 65.15
Q 42.35 62.05 40.15 59.85 37.95 57.65 34.85 57.65
L 18.35 57.65
Q 15.35 57.55 13.15 55.45
L 13.15 55.4
Q 13 55.3 12.9 55.15 12.85 55.15 12.8 55.05 10.9 52.95 10.9 50.05 10.85 47.15 12.75 45.05 12.95 44.85 13.15 44.65 15.35 42.45 18.4 42.35
L 34.85 42.35
Q 37.95 42.35 40.15 40.15 42.35 37.95 42.35 34.85
L 42.35 18.35
Q 42.4 15.35 44.55 13.15
L 44.6 13.1
Q 44.7 13 44.85 12.9 44.9 12.8 44.95 12.75 47.05 10.9 49.95 10.9 52.8 10.85 54.9 12.7
L 54.95 12.75
Q 55.15 12.95 55.35 13.1
L 55.35 13.15
Q 57.55 15.35 57.65 18.4
L 57.65 34.85
Q 57.65 37.95 59.85 40.15 62.05 42.35 65.15 42.35
L 81.7 42.35 Z"/>

<path fill="url(#Gradient_2)" stroke="none" d="
M 86.85 44.55
Q 84.7 42.45 81.7 42.35
L 65.15 42.35
Q 62.05 42.35 59.85 40.15 57.65 37.95 57.65 34.85
L 57.65 18.4
Q 57.55 15.35 55.35 13.15
L 55.35 13.1
Q 55.15 12.95 54.95 12.75
L 54.9 12.7
Q 52.8 10.85 49.95 10.9 47.05 10.9 44.95 12.75 44.9 12.8 44.85 12.9 44.7 13 44.6 13.1
L 44.55 13.15
Q 42.4 15.35 42.35 18.35
L 42.35 34.85
Q 42.35 37.95 40.15 40.15 37.95 42.35 34.85 42.35
L 18.4 42.35
Q 15.35 42.45 13.15 44.65 12.95 44.85 12.75 45.05 10.85 47.15 10.9 50.05 10.9 52.95 12.8 55.05 12.85 55.15 12.9 55.15 13 55.3 13.15 55.4
L 13.15 55.45
Q 15.35 57.55 18.35 57.65
L 34.85 57.65
Q 37.95 57.65 40.15 59.85 42.35 62.05 42.35 65.15
L 42.35 81.6
Q 42.45 84.65 44.65 86.85 44.85 87.05 45.05 87.25 47.15 89.15 50.05 89.1 52.95 89.1 55.05 87.2 55.15 87.15 55.2 87.1 55.3 87 55.45 86.85 57.55 84.65 57.65 81.65
L 57.65 65.15
Q 57.65 62.05 59.85 59.85 62.05 57.65 65.15 57.65
L 81.6 57.65
Q 84.65 57.55 86.85 55.35 87.05 55.15 87.25 54.95 89.15 52.85 89.1 49.95 89.1 47.05 87.2 44.95 87.15 44.85 87.1 44.8 87 44.7 86.9 44.55
L 86.85 44.55 Z"/>
</g>

<path id="Layer1_0_1_STROKES" stroke="url(#Gradient_3)" stroke-width="4" stroke-linejoin="round" stroke-linecap="round" fill="none" d="
M 86.9 44.55
Q 87 44.7 87.1 44.8 87.15 44.85 87.2 44.95 89.1 47.05 89.1 49.95 89.15 52.85 87.25 54.95 87.05 55.15 86.85 55.35 84.65 57.55 81.6 57.65
L 65.15 57.65
Q 62.05 57.65 59.85 59.85 57.65 62.05 57.65 65.15
L 57.65 81.65
Q 57.55 84.65 55.45 86.85 55.3 87 55.2 87.1 55.15 87.15 55.05 87.2 52.95 89.1 50.05 89.1 47.15 89.15 45.05 87.25 44.85 87.05 44.65 86.85 42.45 84.65 42.35 81.6
L 42.35 65.15
Q 42.35 62.05 40.15 59.85 37.95 57.65 34.85 57.65
L 18.35 57.65
Q 15.35 57.55 13.15 55.45
L 13.15 55.4
Q 13 55.3 12.9 55.15 12.85 55.15 12.8 55.05 10.9 52.95 10.9 50.05 10.85 47.15 12.75 45.05 12.95 44.85 13.15 44.65 15.35 42.45 18.4 42.35
L 34.85 42.35
Q 37.95 42.35 40.15 40.15 42.35 37.95 42.35 34.85
L 42.35 18.35
Q 42.4 15.35 44.55 13.15
L 44.6 13.1
Q 44.7 13 44.85 12.9 44.9 12.8 44.95 12.75 47.05 10.9 49.95 10.9 52.8 10.85 54.9 12.7
L 54.95 12.75
Q 55.15 12.95 55.35 13.1
L 55.35 13.15
Q 57.55 15.35 57.65 18.4
L 57.65 34.85
Q 57.65 37.95 59.85 40.15 62.05 42.35 65.15 42.35
L 81.7 42.35
Q 84.7 42.45 86.85 44.55
L 86.9 44.55 Z"/>

<path id="Layer1_0_2_STROKES" stroke="#1B1B1B" stroke-width="5" stroke-linejoin="round" stroke-linecap="round" fill="none" d="
M 65.15 34.85
L 81.85 34.85
Q 87.85 35 92.15 39.25 92.5 39.6 92.8 39.95 96.6 44.2 96.6 49.95 96.6 55.75 92.85 59.95 92.5 60.3 92.15 60.65 87.85 64.95 81.85 65.15
L 65.15 65.15 65.15 81.85
Q 65 87.85 60.75 92.15 60.4 92.5 60.05 92.8 55.8 96.6 50.05 96.6 44.25 96.6 40.05 92.85 39.7 92.5 39.35 92.15 35.05 87.85 34.85 81.85
L 34.85 65.15 18.15 65.15
Q 12.15 65 7.85 60.75 7.5 60.4 7.2 60.05 3.4 55.8 3.4 50.05 3.4 44.25 7.15 40.05 7.5 39.7 7.85 39.35 12.15 35.05 18.15 34.85
L 34.85 34.85"/>

<path id="Layer1_0_3_STROKES" stroke="url(#Gradient_4)" stroke-width="5" stroke-linejoin="round" stroke-linecap="round" fill="none" d="
M 34.85 34.85
L 34.85 18.15
Q 35 12.15 39.25 7.85 39.6 7.5 39.95 7.2 44.2 3.4 49.95 3.4 55.75 3.4 59.95 7.15 60.3 7.5 60.65 7.85 64.95 12.15 65.15 18.15
L 65.15 34.85"/>

</defs>

<g transform="matrix( 1, 0, 0, 1, 0,0) ">
<use xlink:href="#Layer1_0_FILL"/>

<use xlink:href="#Layer1_0_1_STROKES"/>

<use xlink:href="#Layer1_0_2_STROKES"/>

<use xlink:href="#Layer1_0_3_STROKES"/>
</g>

<g transform="matrix( 1, 0, 0, 1, -3.4,-28) ">
<clipPath id="Mask_Mask_1">
<rect x="30.05" y="-2" width="46.7" height="20.8" fill="#FFFFFF" stroke="none"/>
</clipPath>

<text clip-path="url(#Mask_Mask_1)" writing-mode="lr"><tspan x="32.1" y="13.6" baseline-shift="0%" kerning="auto" font-family="Arial_Regular" font-size="15" fill="#999999" xml:space="preserve">Stadia</tspan></text>
</g>
</svg>
