<?xml version="1.0" encoding="utf-8"?>
<!-- Generator: Adobe Illustrator 24.1.2, SVG Export Plug-In . SVG Version: 6.00 Build 0)  -->
<svg version="1.1" id="Layer_1" xmlns="http://www.w3.org/2000/svg" xmlns:xlink="http://www.w3.org/1999/xlink" x="0px" y="0px"
	 viewBox="0 0 100 100" style="enable-background:new 0 0 100 100;" xml:space="preserve">
<g transform="matrix( 1, 0, 0, 1, 0,0) ">
	<g>
		<g id="Layer1_0_FILL">
			<path style="fill:#353535;" d="M46,66.7c-0.5-11.1-0.5-22.2,0-33.3c0-2.4-1.2-3.6-3.6-3.6H7.6C5.2,29.8,4,31,4,33.3
				c0.5,11.1,0.5,22.2,0,33.3c0,2.4,1.2,3.6,3.6,3.6h34.9C44.8,70.2,46,69,46,66.7 M27.2,35.4H28h9.8c1.7,0,2.6,0.9,2.6,2.6
				c-0.4,8-0.4,16,0,24.1c0,1.7-0.9,2.6-2.6,2.6H28h-0.8h-15c-1.7,0-2.6-0.9-2.6-2.6C10,54,10,46,9.6,37.9c0-1.7,0.9-2.6,2.6-2.6
				L27.2,35.4L27.2,35.4z"/>
			<path style="fill:#595959;" d="M28,35.4h-0.8h-15c-1.7,0-2.6,0.9-2.6,2.6c0.4,8,0.4,16,0,24.1c0,1.7,0.9,2.6,2.6,2.6h15.1H28h9.8
				c1.7,0,2.6-0.9,2.6-2.6C40,54,40,46,40.4,37.9c0-1.7-0.9-2.6-2.6-2.6L28,35.4 M25.4,42.9h3.5v9.4h2V55h-2v3h-3.1v-3h-6.6v-2.7
				L25.4,42.9 M25.8,47.1L25.8,47.1l-3.4,5.2h3.4V47.1z"/>
			<path style="fill:#CDCDCD;" d="M28.9,42.9h-3.5l-6.2,9.4V55h6.6v3h3.1v-3h2v-2.7h-2L28.9,42.9 M25.8,47.1L25.8,47.1v5.2h-3.4
				L25.8,47.1z"/>
		</g>
	</g>
	<g>
		<path id="Layer1_0_1_STROKES" style="fill:none;stroke:#1D1D1D;stroke-width:5;stroke-linecap:round;stroke-linejoin:round;" d="
			M46,33.3c-0.5,11.1-0.5,22.2,0,33.3c0,2.4-1.2,3.6-3.6,3.6H7.6C5.2,70.2,4,69,4,66.7c0.5-11.1,0.5-22.2,0-33.3
			c0-2.4,1.2-3.6,3.6-3.6h34.9C44.8,29.8,46,31,46,33.3z"/>
	</g>
	<g>
		<path id="Layer1_0_2_STROKES" style="fill:none;stroke:#696969;stroke-width:4;stroke-linecap:round;stroke-linejoin:round;" d="
			M27.2,35.4h-15c-1.7,0-2.6,0.9-2.6,2.6c0.4,8,0.4,16,0,24.1c0,1.7,0.9,2.6,2.6,2.6h15.1 M28,64.6h9.8c1.7,0,2.6-0.9,2.6-2.6
			c-0.4-8-0.4-16,0-24.1c0-1.7-0.9-2.6-2.6-2.6H28"/>
	</g>
</g>
<g transform="matrix( 1, 0, 0, 1, 0,0) ">
	<g>
		<g id="Layer1_0_FILL_1_">
			<path style="fill:#353535;" d="M96,66.7c-0.5-11.1-0.5-22.2,0-33.3c0-2.4-1.2-3.6-3.6-3.6H57.6c-2.4,0-3.6,1.2-3.6,3.6
				c0.5,11.1,0.5,22.2,0,33.3c0,2.4,1.2,3.6,3.6,3.6h34.9C94.8,70.2,96,69,96,66.7 M77.2,35.4H78h9.8c1.7,0,2.6,0.9,2.6,2.6
				c-0.4,8-0.4,16,0,24.1c0,1.7-0.9,2.6-2.6,2.6H78h-0.8h-15c-1.7,0-2.6-0.9-2.6-2.6c0.5-8,0.5-16.1,0-24.1c0-1.7,0.9-2.6,2.6-2.6
				H77.2z"/>
			<path style="fill:#595959;" d="M78,35.4h-0.8h-15c-1.7,0-2.6,0.9-2.6,2.6c0.5,8,0.5,16.1,0,24.1c0,1.7,0.9,2.6,2.6,2.6h15.1H78
				h9.8c1.7,0,2.6-0.9,2.6-2.6C90,54,90,46,90.4,37.9c0-1.7-0.9-2.6-2.6-2.6L78,35.4 M71.1,48.1l3.3-5.2h3.9l-3.5,5.4
				c0.2,0,0.3-0.1,0.5-0.1s0.4,0,0.5,0c0.7,0,1.4,0.1,2,0.4c0.6,0.3,1.1,0.6,1.5,1s0.7,1,0.9,1.6c0.2,0.6,0.3,1.2,0.3,1.9
				c0,0.8-0.1,1.5-0.4,2.1s-0.7,1.2-1.2,1.6c-0.5,0.4-1.1,0.8-1.8,1c-0.7,0.3-1.4,0.4-2.2,0.4c-0.8,0-1.6-0.1-2.2-0.4
				c-0.7-0.2-1.3-0.6-1.8-1c-0.5-0.5-0.9-1-1.2-1.6c-0.3-0.6-0.4-1.3-0.4-2.1c0-0.5,0.1-1,0.2-1.5c0.1-0.4,0.2-0.9,0.4-1.3
				c0.2-0.4,0.3-0.8,0.5-1.2C70.7,48.8,70.9,48.5,71.1,48.1 M77.4,52.9c0-0.7-0.2-1.2-0.7-1.7c-0.4-0.5-1-0.7-1.7-0.7
				s-1.3,0.2-1.8,0.7c-0.4,0.4-0.7,1-0.7,1.7s0.2,1.3,0.7,1.7s1,0.7,1.8,0.7c0.7,0,1.3-0.2,1.7-0.7C77.2,54.2,77.4,53.6,77.4,52.9z"
				/>
			<path style="fill:#CDCDCD;" d="M74.5,42.9l-3.3,5.2c-0.2,0.4-0.5,0.8-0.7,1.1c-0.2,0.4-0.4,0.8-0.5,1.2c-0.2,0.4-0.3,0.8-0.4,1.3
				c-0.1,0.4-0.2,0.9-0.2,1.5c0,0.8,0.1,1.5,0.4,2.1s0.7,1.2,1.2,1.6c0.5,0.4,1.1,0.8,1.8,1c0.7,0.3,1.4,0.4,2.2,0.4
				c0.8,0,1.5-0.1,2.2-0.4c0.7-0.2,1.3-0.6,1.8-1c0.5-0.5,0.9-1,1.2-1.6c0.3-0.6,0.4-1.3,0.4-2.1c0-0.7-0.1-1.3-0.3-1.9
				c-0.2-0.6-0.5-1.1-0.9-1.6c-0.4-0.4-0.9-0.8-1.5-1s-1.2-0.4-2-0.4c-0.2,0-0.4,0-0.5,0c-0.2,0-0.3,0.1-0.5,0.1l3.5-5.4L74.5,42.9
				 M76.7,51.3c0.4,0.4,0.7,1,0.7,1.7s-0.2,1.3-0.7,1.7c-0.4,0.4-1,0.7-1.7,0.7s-1.3-0.2-1.8-0.7s-0.7-1-0.7-1.7s0.2-1.2,0.7-1.7
				c0.4-0.5,1-0.7,1.8-0.7C75.7,50.6,76.3,50.8,76.7,51.3z"/>
		</g>
	</g>
	<g>
		
			<path id="Layer1_0_1_STROKES_1_" style="fill:none;stroke:#1D1D1D;stroke-width:5;stroke-linecap:round;stroke-linejoin:round;" d="
			M96,33.3c-0.5,11.1-0.5,22.2,0,33.3c0,2.4-1.2,3.6-3.6,3.6H57.6c-2.4,0-3.6-1.2-3.6-3.6c0.5-11.1,0.5-22.2,0-33.3
			c0-2.4,1.2-3.6,3.6-3.6h34.9C94.8,29.8,96,31,96,33.3z"/>
	</g>
	<g>
		
			<path id="Layer1_0_2_STROKES_1_" style="fill:none;stroke:#696969;stroke-width:4;stroke-linecap:round;stroke-linejoin:round;" d="
			M77.2,35.4h-15c-1.7,0-2.6,0.9-2.6,2.6c0.5,8,0.5,16.1,0,24.1c0,1.7,0.9,2.6,2.6,2.6h15.1 M78,64.6h9.8c1.7,0,2.6-0.9,2.6-2.6
			c-0.4-8-0.4-16,0-24.1c0-1.7-0.9-2.6-2.6-2.6H78"/>
	</g>
</g>
</svg>
