
<svg xmlns="http://www.w3.org/2000/svg" version="1.1" xmlns:xlink="http://www.w3.org/1999/xlink" x="0px" y="0px" viewBox="0 0 100 100">
<defs>
<g id="Layer1_0_FILL">
<path fill="#353535" stroke="none" d="
M 92.95 27.1
Q 92.95 22.1 87.95 22.1
L 13.05 22.1
Q 8.05 22.1 8.05 27.1 9.1 50.5 8.05 73.8 8.05 78.8 13.05 78.8
L 87.95 78.8
Q 92.95 78.8 92.95 73.8 91.85 50.5 92.95 27.1
M 81.5 29.95
Q 85.1 29.95 85.1 33.55 84.15 50.5 85.1 67.35 85.1 70.95 81.5 70.95
L 67.7 70.95 66.6 70.95 19.5 70.95
Q 15.85 70.95 15.85 67.35 16.85 50.5 15.85 33.55 15.85 29.95 19.5 29.95
L 66.6 29.95 67.7 29.95 81.5 29.95 Z"/>

<path fill="#595959" stroke="none" d="
M 85.1 33.55
Q 85.1 29.95 81.5 29.95
L 67.7 29.95 66.6 29.95 19.5 29.95
Q 15.85 29.95 15.85 33.55 16.85 50.5 15.85 67.35 15.85 70.95 19.5 70.95
L 66.6 70.95 67.7 70.95 81.5 70.95
Q 85.1 70.95 85.1 67.35 84.15 50.5 85.1 33.55
M 40.5 41.45
L 43.7 41.45 51.4 59.15 47 59.15 45.45 55.4 38.6 55.4 37.1 59.15 32.85 59.15 40.5 41.45
M 60.45 43.4
L 64.2 43.4 64.2 47 67.5 47 67.5 50 64.2 50 64.2 54.05
Q 64.2 54.55 64.25 54.95 64.3 55.4 64.5 55.7 64.65 56 65 56.15 65.35 56.3 65.95 56.3 66.25 56.3 66.75 56.25 67.25 56.2 67.5 55.95
L 67.5 59.1
Q 66.85 59.3 66.2 59.4 65.55 59.45 64.85 59.45 63.9 59.45 63.1 59.25 62.35 59.05 61.7 58.6 61.1 58.2 60.8 57.5 60.45 56.8 60.45 55.8
L 60.45 50 58.05 50 58.05 47 60.45 47 60.45 43.4
M 52.8 40.25
L 56.55 40.25 56.55 59.15 52.8 59.15 52.8 40.25
M 44.15 52.1
L 42 46.6 39.8 52.1 44.15 52.1 Z"/>

<path fill="#CDCDCD" stroke="none" d="
M 56.55 40.25
L 52.8 40.25 52.8 59.15 56.55 59.15 56.55 40.25
M 64.2 43.4
L 60.45 43.4 60.45 47 58.05 47 58.05 50 60.45 50 60.45 55.8
Q 60.45 56.8 60.8 57.5 61.1 58.2 61.7 58.6 62.35 59.05 63.1 59.25 63.9 59.45 64.85 59.45 65.55 59.45 66.2 59.4 66.85 59.3 67.5 59.1
L 67.5 55.95
Q 67.25 56.2 66.75 56.25 66.25 56.3 65.95 56.3 65.35 56.3 65 56.15 64.65 56 64.5 55.7 64.3 55.4 64.25 54.95 64.2 54.55 64.2 54.05
L 64.2 50 67.5 50 67.5 47 64.2 47 64.2 43.4
M 43.7 41.45
L 40.5 41.45 32.85 59.15 37.1 59.15 38.6 55.4 45.45 55.4 47 59.15 51.4 59.15 43.7 41.45
M 42 46.6
L 44.15 52.1 39.8 52.1 42 46.6 Z"/>
</g>

<path id="Layer1_0_1_STROKES" stroke="#696969" stroke-width="4" stroke-linejoin="round" stroke-linecap="round" fill="none" d="
M 67.7 70.95
L 81.5 70.95
Q 85.1 70.95 85.1 67.35 84.15 50.5 85.1 33.55 85.1 29.95 81.5 29.95
L 67.7 29.95
M 66.6 29.95
L 19.5 29.95
Q 15.85 29.95 15.85 33.55 16.85 50.5 15.85 67.35 15.85 70.95 19.5 70.95
L 66.6 70.95"/>

<path id="Layer1_0_2_STROKES" stroke="#1D1D1D" stroke-width="5" stroke-linejoin="round" stroke-linecap="round" fill="none" d="
M 87.95 22.1
Q 92.95 22.1 92.95 27.1 91.85 50.5 92.95 73.8 92.95 78.8 87.95 78.8
L 13.05 78.8
Q 8.05 78.8 8.05 73.8 9.1 50.5 8.05 27.1 8.05 22.1 13.05 22.1
L 87.95 22.1 Z"/>

</defs>

<g transform="matrix( 1, 0, 0, 1, 0,0) ">
<use xlink:href="#Layer1_0_FILL"/>

<use xlink:href="#Layer1_0_1_STROKES"/>

<use xlink:href="#Layer1_0_2_STROKES"/>
</g>

<g transform="matrix( 1, 0, 0, 1, -3.4,-28) ">
<clipPath id="Mask_Mask_1">
<rect x="1.25" y="-2" width="104.3" height="20.8" fill="#FFFFFF" stroke="none"/>
</clipPath>

<text clip-path="url(#Mask_Mask_1)" writing-mode="lr"><tspan x="3.35" y="13.6" baseline-shift="0%" kerning="auto" font-family="Arial_Regular" font-size="15" fill="#999999" xml:space="preserve">Dark Keyboard</tspan></text>
</g>
</svg>
