
<svg xmlns="http://www.w3.org/2000/svg" version="1.1" xmlns:xlink="http://www.w3.org/1999/xlink" x="0px" y="0px" viewBox="0 0 100 100">
<defs>
<g id="Layer1_0_FILL">
<path fill="#353535" stroke="none" d="
M 84.95 77.8
Q 83.7 50.5 84.95 23.15 84.95 17.3 79.1 17.3
L 21.9 17.3
Q 16.05 17.3 16.05 23.15 17.3 50.5 16.05 77.8 16.05 83.65 21.9 83.65
L 79.1 83.65
Q 84.95 83.65 84.95 77.8
M 54.15 26.45
L 55.4 26.45 71.55 26.45
Q 75.8 26.45 75.8 30.7 74.65 50.5 75.8 70.25 75.8 74.45 71.55 74.45
L 55.4 74.45 54.15 74.45 29.45 74.45
Q 25.2 74.45 25.2 70.25 26.35 50.5 25.2 30.7 25.2 26.45 29.45 26.45
L 54.15 26.45 Z"/>

<path fill="#595959" stroke="none" d="
M 55.4 26.45
L 54.15 26.45 29.45 26.45
Q 25.2 26.45 25.2 30.7 26.35 50.5 25.2 70.25 25.2 74.45 29.45 74.45
L 54.15 74.45 55.4 74.45 71.55 74.45
Q 75.8 74.45 75.8 70.25 74.65 50.5 75.8 30.7 75.8 26.45 71.55 26.45
L 55.4 26.45
M 41.8 41.7
Q 43.6 40 46.05 39.1 48.5 38.2 51.45 38.2 54.4 38.2 56.9 38.9 59.4 39.6 61.3 41.35
L 57.45 45.55
Q 56.3 44.45 54.9 43.85 53.5 43.25 51.45 43.25 49.65 43.25 48.25 43.85 46.85 44.45 45.8 45.5 44.8 46.55 44.25 48.05 43.7 49.5 43.7 51.2 43.7 52.95 44.25 54.4 44.8 55.85 45.8 56.95 46.85 58 48.25 58.6 49.65 59.2 51.4 59.2 53.2 59.2 54.5 58.8 55.8 58.4 56.55 57.95
L 56.55 53.95 52.1 53.95 52.1 48.9 61.8 48.9 61.8 61.85
Q 59.4 63.1 56.75 63.65 54.15 64.25 51.4 64.25 48.5 64.25 46.05 63.35 43.6 62.4 41.8 60.7 40.05 59 39.05 56.6 38.05 54.2 38.05 51.2 38.05 48.25 39.05 45.85 40.05 43.4 41.8 41.7 Z"/>

<path fill="#CDCDCD" stroke="none" d="
M 46.05 39.1
Q 43.6 40 41.8 41.7 40.05 43.4 39.05 45.85 38.05 48.25 38.05 51.2 38.05 54.2 39.05 56.6 40.05 59 41.8 60.7 43.6 62.4 46.05 63.35 48.5 64.25 51.4 64.25 54.15 64.25 56.75 63.65 59.4 63.1 61.8 61.85
L 61.8 48.9 52.1 48.9 52.1 53.95 56.55 53.95 56.55 57.95
Q 55.8 58.4 54.5 58.8 53.2 59.2 51.4 59.2 49.65 59.2 48.25 58.6 46.85 58 45.8 56.95 44.8 55.85 44.25 54.4 43.7 52.95 43.7 51.2 43.7 49.5 44.25 48.05 44.8 46.55 45.8 45.5 46.85 44.45 48.25 43.85 49.65 43.25 51.45 43.25 53.5 43.25 54.9 43.85 56.3 44.45 57.45 45.55
L 61.3 41.35
Q 59.4 39.6 56.9 38.9 54.4 38.2 51.45 38.2 48.5 38.2 46.05 39.1 Z"/>
</g>

<path id="Layer1_0_1_STROKES" stroke="#1D1D1D" stroke-width="5" stroke-linejoin="round" stroke-linecap="round" fill="none" d="
M 84.95 23.15
Q 83.7 50.5 84.95 77.8 84.95 83.65 79.1 83.65
L 21.9 83.65
Q 16.05 83.65 16.05 77.8 17.3 50.5 16.05 23.15 16.05 17.3 21.9 17.3
L 79.1 17.3
Q 84.95 17.3 84.95 23.15 Z"/>

<path id="Layer1_0_2_STROKES" stroke="#696969" stroke-width="4" stroke-linejoin="round" stroke-linecap="round" fill="none" d="
M 54.15 26.45
L 29.45 26.45
Q 25.2 26.45 25.2 30.7 26.35 50.5 25.2 70.25 25.2 74.45 29.45 74.45
L 54.15 74.45
M 55.4 74.45
L 71.55 74.45
Q 75.8 74.45 75.8 70.25 74.65 50.5 75.8 30.7 75.8 26.45 71.55 26.45
L 55.4 26.45"/>

</defs>

<g transform="matrix( 1, 0, 0, 1, 0,0) ">
<use xlink:href="#Layer1_0_FILL"/>

<use xlink:href="#Layer1_0_1_STROKES"/>

<use xlink:href="#Layer1_0_2_STROKES"/>
</g>

<g transform="matrix( 1, 0, 0, 1, -3.4,-28) ">
<clipPath id="Mask_Mask_1">
<rect x="1.25" y="-2" width="104.3" height="20.8" fill="#FFFFFF" stroke="none"/>
</clipPath>

<text clip-path="url(#Mask_Mask_1)" writing-mode="lr"><tspan x="3.35" y="13.6" baseline-shift="0%" kerning="auto" font-family="Arial_Regular" font-size="15" fill="#999999" xml:space="preserve">Dark Keyboard</tspan></text>
</g>
</svg>
