
<svg xmlns="http://www.w3.org/2000/svg" version="1.1" xmlns:xlink="http://www.w3.org/1999/xlink" x="0px" y="0px" viewBox="0 0 100 100">
<defs>
<g id="Layer1_0_FILL">
<path fill="#353535" stroke="none" d="
M 84.95 77.8
Q 83.7 50.5 84.95 23.15 84.95 17.3 79.1 17.3
L 21.9 17.3
Q 16.05 17.3 16.05 23.15 17.3 50.5 16.05 77.8 16.05 83.65 21.9 83.65
L 79.1 83.65
Q 84.95 83.65 84.95 77.8
M 54.15 26.45
L 55.4 26.45 71.55 26.45
Q 75.8 26.45 75.8 30.7 74.65 50.5 75.8 70.25 75.8 74.45 71.55 74.45
L 55.4 74.45 54.15 74.45 29.45 74.45
Q 25.2 74.45 25.2 70.25 26.35 50.5 25.2 30.7 25.2 26.45 29.45 26.45
L 54.15 26.45 Z"/>

<path fill="#595959" stroke="none" d="
M 55.4 26.45
L 54.15 26.45 29.45 26.45
Q 25.2 26.45 25.2 30.7 26.35 50.5 25.2 70.25 25.2 74.45 29.45 74.45
L 54.15 74.45 55.4 74.45 71.55 74.45
Q 75.8 74.45 75.8 70.25 74.65 50.5 75.8 30.7 75.8 26.45 71.55 26.45
L 55.4 26.45
M 40.65 41.75
Q 42.45 40.05 44.85 39.1 47.25 38.2 50 38.2 52.8 38.2 55.2 39.15 57.6 40.1 59.4 41.75 61.2 43.45 62.25 45.75 63.25 48.1 63.25 50.9 63.25 52.2 62.95 53.5 62.65 54.75 62.05 55.85 61.45 57 60.5 57.85 59.6 58.75 58.3 59.35
L 58.3 59.4 65.25 59.4 65.25 63.6 50.25 63.6
Q 47.3 63.6 44.85 62.75 42.4 61.9 40.6 60.25 38.85 58.6 37.8 56.25 36.8 53.9 36.8 50.9 36.8 48.1 37.8 45.75 38.85 43.4 40.65 41.75
M 50 43.25
Q 48.45 43.25 47.1 43.85 45.7 44.45 44.7 45.45 43.65 46.5 43.05 47.9 42.45 49.3 42.45 50.9 42.45 52.5 43.05 53.9 43.65 55.3 44.7 56.35 45.7 57.35 47.1 57.95 48.45 58.55 50 58.55 51.6 58.55 52.95 57.95 54.35 57.35 55.35 56.35 56.4 55.3 57 53.9 57.6 52.5 57.6 50.9 57.6 49.3 57 47.9 56.4 46.5 55.35 45.45 54.35 44.45 52.95 43.85 51.6 43.25 50 43.25 Z"/>

<path fill="#CDCDCD" stroke="none" d="
M 44.85 39.1
Q 42.45 40.05 40.65 41.75 38.85 43.4 37.8 45.75 36.8 48.1 36.8 50.9 36.8 53.9 37.8 56.25 38.85 58.6 40.6 60.25 42.4 61.9 44.85 62.75 47.3 63.6 50.25 63.6
L 65.25 63.6 65.25 59.4 58.3 59.4 58.3 59.35
Q 59.6 58.75 60.5 57.85 61.45 57 62.05 55.85 62.65 54.75 62.95 53.5 63.25 52.2 63.25 50.9 63.25 48.1 62.25 45.75 61.2 43.45 59.4 41.75 57.6 40.1 55.2 39.15 52.8 38.2 50 38.2 47.25 38.2 44.85 39.1
M 47.1 43.85
Q 48.45 43.25 50 43.25 51.6 43.25 52.95 43.85 54.35 44.45 55.35 45.45 56.4 46.5 57 47.9 57.6 49.3 57.6 50.9 57.6 52.5 57 53.9 56.4 55.3 55.35 56.35 54.35 57.35 52.95 57.95 51.6 58.55 50 58.55 48.45 58.55 47.1 57.95 45.7 57.35 44.7 56.35 43.65 55.3 43.05 53.9 42.45 52.5 42.45 50.9 42.45 49.3 43.05 47.9 43.65 46.5 44.7 45.45 45.7 44.45 47.1 43.85 Z"/>
</g>

<path id="Layer1_0_1_STROKES" stroke="#1D1D1D" stroke-width="5" stroke-linejoin="round" stroke-linecap="round" fill="none" d="
M 84.95 23.15
Q 83.7 50.5 84.95 77.8 84.95 83.65 79.1 83.65
L 21.9 83.65
Q 16.05 83.65 16.05 77.8 17.3 50.5 16.05 23.15 16.05 17.3 21.9 17.3
L 79.1 17.3
Q 84.95 17.3 84.95 23.15 Z"/>

<path id="Layer1_0_2_STROKES" stroke="#696969" stroke-width="4" stroke-linejoin="round" stroke-linecap="round" fill="none" d="
M 54.15 26.45
L 29.45 26.45
Q 25.2 26.45 25.2 30.7 26.35 50.5 25.2 70.25 25.2 74.45 29.45 74.45
L 54.15 74.45
M 55.4 74.45
L 71.55 74.45
Q 75.8 74.45 75.8 70.25 74.65 50.5 75.8 30.7 75.8 26.45 71.55 26.45
L 55.4 26.45"/>

</defs>

<g transform="matrix( 1, 0, 0, 1, 0,0) ">
<use xlink:href="#Layer1_0_FILL"/>

<use xlink:href="#Layer1_0_1_STROKES"/>

<use xlink:href="#Layer1_0_2_STROKES"/>
</g>

<g transform="matrix( 1, 0, 0, 1, -3.4,-28) ">
<clipPath id="Mask_Mask_1">
<rect x="1.25" y="-2" width="104.3" height="20.8" fill="#FFFFFF" stroke="none"/>
</clipPath>

<text clip-path="url(#Mask_Mask_1)" writing-mode="lr"><tspan x="3.35" y="13.6" baseline-shift="0%" kerning="auto" font-family="Arial_Regular" font-size="15" fill="#999999" xml:space="preserve">Dark Keyboard</tspan></text>
</g>
</svg>
