
<svg xmlns="http://www.w3.org/2000/svg" version="1.1" xmlns:xlink="http://www.w3.org/1999/xlink" x="0px" y="0px" viewBox="0 0 100 100">
<defs>
<g id="Layer1_0_FILL">
<path fill="#353535" stroke="none" d="
M 84.95 77.8
Q 83.7 50.5 84.95 23.15 84.95 17.3 79.1 17.3
L 21.9 17.3
Q 16.05 17.3 16.05 23.15 17.3 50.5 16.05 77.8 16.05 83.65 21.9 83.65
L 79.1 83.65
Q 84.95 83.65 84.95 77.8
M 54.15 26.45
L 55.4 26.45 71.55 26.45
Q 75.8 26.45 75.8 30.7 74.65 50.5 75.8 70.25 75.8 74.45 71.55 74.45
L 55.4 74.45 54.15 74.45 29.45 74.45
Q 25.2 74.45 25.2 70.25 26.35 50.5 25.2 30.7 25.2 26.45 29.45 26.45
L 54.15 26.45 Z"/>

<path fill="#595959" stroke="none" d="
M 55.4 26.45
L 54.15 26.45 29.45 26.45
Q 25.2 26.45 25.2 30.7 26.35 50.5 25.2 70.25 25.2 74.45 29.45 74.45
L 54.15 74.45 55.4 74.45 71.55 74.45
Q 75.8 74.45 75.8 70.25 74.65 50.5 75.8 30.7 75.8 26.45 71.55 26.45
L 55.4 26.45
M 48.85 43.8
Q 48.3 44.1 47.95 44.6 47.6 45.1 47.6 45.8 47.6 46.9 48.45 47.5 49.25 48.1 50.55 48.5 51.85 48.95 53.3 49.35 54.75 49.75 56.05 50.55 57.35 51.3 58.15 52.6 59 53.9 59 56.1 59 58.15 58.25 59.7 57.45 61.2 56.15 62.25 54.85 63.25 53.1 63.75 51.4 64.25 49.45 64.25 47.05 64.25 45 63.5 42.9 62.75 41.15 61.1
L 45 56.85
Q 45.85 57.95 47.15 58.6 48.4 59.2 49.8 59.2 50.45 59.2 51.15 59.05 51.8 58.9 52.35 58.55 52.9 58.25 53.25 57.75 53.55 57.25 53.55 56.6 53.55 55.5 52.7 54.85 51.85 54.2 50.55 53.7 49.25 53.3 47.75 52.8 46.25 52.35 44.95 51.6 43.65 50.8 42.75 49.55 41.9 48.3 41.9 46.25 41.9 44.25 42.7 42.75 43.5 41.25 44.8 40.2 46.1 39.2 47.85 38.7 49.55 38.2 51.35 38.2 53.45 38.2 55.45 38.8 57.4 39.4 59 40.8
L 55.25 44.85
Q 54.55 44.05 53.4 43.65 52.3 43.25 51.25 43.25 50.65 43.25 50.05 43.35 49.4 43.5 48.85 43.8 Z"/>

<path fill="#CDCDCD" stroke="none" d="
M 47.95 44.6
Q 48.3 44.1 48.85 43.8 49.4 43.5 50.05 43.35 50.65 43.25 51.25 43.25 52.3 43.25 53.4 43.65 54.55 44.05 55.25 44.85
L 59 40.8
Q 57.4 39.4 55.45 38.8 53.45 38.2 51.35 38.2 49.55 38.2 47.85 38.7 46.1 39.2 44.8 40.2 43.5 41.25 42.7 42.75 41.9 44.25 41.9 46.25 41.9 48.3 42.75 49.55 43.65 50.8 44.95 51.6 46.25 52.35 47.75 52.8 49.25 53.3 50.55 53.7 51.85 54.2 52.7 54.85 53.55 55.5 53.55 56.6 53.55 57.25 53.25 57.75 52.9 58.25 52.35 58.55 51.8 58.9 51.15 59.05 50.45 59.2 49.8 59.2 48.4 59.2 47.15 58.6 45.85 57.95 45 56.85
L 41.15 61.1
Q 42.9 62.75 45 63.5 47.05 64.25 49.45 64.25 51.4 64.25 53.1 63.75 54.85 63.25 56.15 62.25 57.45 61.2 58.25 59.7 59 58.15 59 56.1 59 53.9 58.15 52.6 57.35 51.3 56.05 50.55 54.75 49.75 53.3 49.35 51.85 48.95 50.55 48.5 49.25 48.1 48.45 47.5 47.6 46.9 47.6 45.8 47.6 45.1 47.95 44.6 Z"/>
</g>

<path id="Layer1_0_1_STROKES" stroke="#1D1D1D" stroke-width="5" stroke-linejoin="round" stroke-linecap="round" fill="none" d="
M 84.95 23.15
Q 83.7 50.5 84.95 77.8 84.95 83.65 79.1 83.65
L 21.9 83.65
Q 16.05 83.65 16.05 77.8 17.3 50.5 16.05 23.15 16.05 17.3 21.9 17.3
L 79.1 17.3
Q 84.95 17.3 84.95 23.15 Z"/>

<path id="Layer1_0_2_STROKES" stroke="#696969" stroke-width="4" stroke-linejoin="round" stroke-linecap="round" fill="none" d="
M 54.15 26.45
L 29.45 26.45
Q 25.2 26.45 25.2 30.7 26.35 50.5 25.2 70.25 25.2 74.45 29.45 74.45
L 54.15 74.45
M 55.4 74.45
L 71.55 74.45
Q 75.8 74.45 75.8 70.25 74.65 50.5 75.8 30.7 75.8 26.45 71.55 26.45
L 55.4 26.45"/>

</defs>

<g transform="matrix( 1, 0, 0, 1, 0,0) ">
<use xlink:href="#Layer1_0_FILL"/>

<use xlink:href="#Layer1_0_1_STROKES"/>

<use xlink:href="#Layer1_0_2_STROKES"/>
</g>

<g transform="matrix( 1, 0, 0, 1, -3.4,-28) ">
<clipPath id="Mask_Mask_1">
<rect x="1.25" y="-2" width="104.3" height="20.8" fill="#FFFFFF" stroke="none"/>
</clipPath>

<text clip-path="url(#Mask_Mask_1)" writing-mode="lr"><tspan x="3.35" y="13.6" baseline-shift="0%" kerning="auto" font-family="Arial_Regular" font-size="15" fill="#999999" xml:space="preserve">Dark Keyboard</tspan></text>
</g>
</svg>
