
<svg xmlns="http://www.w3.org/2000/svg" version="1.1" xmlns:xlink="http://www.w3.org/1999/xlink" x="0px" y="0px" viewBox="0 0 100 100">
<defs>
<g id="Layer1_0_FILL">
<path fill="#353535" stroke="none" d="
M 84.95 77.8
Q 83.7 50.5 84.95 23.15 84.95 17.3 79.1 17.3
L 21.9 17.3
Q 16.05 17.3 16.05 23.15 17.3 50.5 16.05 77.8 16.05 83.65 21.9 83.65
L 79.1 83.65
Q 84.95 83.65 84.95 77.8
M 54.15 26.45
L 55.4 26.45 71.55 26.45
Q 75.8 26.45 75.8 30.7 74.65 50.5 75.8 70.25 75.8 74.45 71.55 74.45
L 55.4 74.45 54.15 74.45 29.45 74.45
Q 25.2 74.45 25.2 70.25 26.35 50.5 25.2 30.7 25.2 26.45 29.45 26.45
L 54.15 26.45 Z"/>

<path fill="#595959" stroke="none" d="
M 55.4 26.45
L 54.15 26.45 29.45 26.45
Q 25.2 26.45 25.2 30.7 26.35 50.5 25.2 70.25 25.2 74.45 29.45 74.45
L 54.15 74.45 55.4 74.45 71.55 74.45
Q 75.8 74.45 75.8 70.25 74.65 50.5 75.8 30.7 75.8 26.45 71.55 26.45
L 55.4 26.45
M 55.45 38.8
L 60.9 38.8 60.9 54.05
Q 60.9 56.25 60.25 58.1 59.6 59.95 58.25 61.35 56.95 62.7 55 63.45 53.05 64.25 50.5 64.25 47.9 64.25 45.95 63.45 44 62.7 42.7 61.35 41.35 59.95 40.7 58.1 40.05 56.25 40.05 54.05
L 40.05 38.8 45.5 38.8 45.5 53.85
Q 45.5 55 45.85 56 46.2 56.95 46.9 57.65 47.55 58.4 48.45 58.8 49.4 59.2 50.5 59.2 51.6 59.2 52.5 58.8 53.4 58.4 54.05 57.65 54.75 56.95 55.1 56 55.45 55 55.45 53.85
L 55.45 38.8 Z"/>

<path fill="#CDCDCD" stroke="none" d="
M 60.9 38.8
L 55.45 38.8 55.45 53.85
Q 55.45 55 55.1 56 54.75 56.95 54.05 57.65 53.4 58.4 52.5 58.8 51.6 59.2 50.5 59.2 49.4 59.2 48.45 58.8 47.55 58.4 46.9 57.65 46.2 56.95 45.85 56 45.5 55 45.5 53.85
L 45.5 38.8 40.05 38.8 40.05 54.05
Q 40.05 56.25 40.7 58.1 41.35 59.95 42.7 61.35 44 62.7 45.95 63.45 47.9 64.25 50.5 64.25 53.05 64.25 55 63.45 56.95 62.7 58.25 61.35 59.6 59.95 60.25 58.1 60.9 56.25 60.9 54.05
L 60.9 38.8 Z"/>
</g>

<path id="Layer1_0_1_STROKES" stroke="#1D1D1D" stroke-width="5" stroke-linejoin="round" stroke-linecap="round" fill="none" d="
M 84.95 23.15
Q 83.7 50.5 84.95 77.8 84.95 83.65 79.1 83.65
L 21.9 83.65
Q 16.05 83.65 16.05 77.8 17.3 50.5 16.05 23.15 16.05 17.3 21.9 17.3
L 79.1 17.3
Q 84.95 17.3 84.95 23.15 Z"/>

<path id="Layer1_0_2_STROKES" stroke="#696969" stroke-width="4" stroke-linejoin="round" stroke-linecap="round" fill="none" d="
M 54.15 26.45
L 29.45 26.45
Q 25.2 26.45 25.2 30.7 26.35 50.5 25.2 70.25 25.2 74.45 29.45 74.45
L 54.15 74.45
M 55.4 74.45
L 71.55 74.45
Q 75.8 74.45 75.8 70.25 74.65 50.5 75.8 30.7 75.8 26.45 71.55 26.45
L 55.4 26.45"/>

</defs>

<g transform="matrix( 1, 0, 0, 1, 0,0) ">
<use xlink:href="#Layer1_0_FILL"/>

<use xlink:href="#Layer1_0_1_STROKES"/>

<use xlink:href="#Layer1_0_2_STROKES"/>
</g>

<g transform="matrix( 1, 0, 0, 1, -3.4,-28) ">
<clipPath id="Mask_Mask_1">
<rect x="1.25" y="-2" width="104.3" height="20.8" fill="#FFFFFF" stroke="none"/>
</clipPath>

<text clip-path="url(#Mask_Mask_1)" writing-mode="lr"><tspan x="3.35" y="13.6" baseline-shift="0%" kerning="auto" font-family="Arial_Regular" font-size="15" fill="#999999" xml:space="preserve">Dark Keyboard</tspan></text>
</g>
</svg>
