<?xml version="1.0" encoding="utf-8"?>
<!-- Generator: Adobe Illustrator 24.1.2, SVG Export Plug-In . SVG Version: 6.00 Build 0)  -->
<svg version="1.1" id="Layer_1" xmlns="http://www.w3.org/2000/svg" xmlns:xlink="http://www.w3.org/1999/xlink" x="0px" y="0px"
	 viewBox="0 0 100 100" style="enable-background:new 0 0 100 100;" xml:space="preserve">
<style type="text/css">
	.st0{fill:#353535;}
	.st1{fill:#595959;}
	.st2{fill:#CDCDCD;}
	.st3{fill:none;stroke:#1D1D1D;stroke-width:5;stroke-linecap:round;stroke-linejoin:round;}
	.st4{fill:none;stroke:#696969;stroke-width:4;stroke-linecap:round;stroke-linejoin:round;}
</style>
<g id="S" transform="matrix( 1, 0, 0, 1, 0,0) ">
	<g>
		<g id="Layer1_0_FILL">
			<path class="st0" d="M70.9,92.4c-0.5-11.1-0.5-22.2,0-33.3c0-2.4-1.2-3.6-3.6-3.6H32.5c-2.4,0-3.6,1.2-3.6,3.6
				c0.5,11.1,0.5,22.2,0,33.3c0,2.4,1.2,3.6,3.6,3.6h34.9C69.7,95.9,70.9,94.7,70.9,92.4 M52.1,61.1h0.8h9.8c1.7,0,2.6,0.9,2.6,2.6
				c-0.5,8-0.5,16.1,0,24.1c0,1.7-0.9,2.6-2.6,2.6h-9.8h-0.8H37.1c-1.7,0-2.6-0.9-2.6-2.6c0.5-8,0.5-16.1,0-24.1
				c0-1.7,0.9-2.6,2.6-2.6H52.1z"/>
			<path class="st1" d="M52.9,61.1h-0.8H37.1c-1.7,0-2.6,0.9-2.6,2.6c0.5,8,0.5,16.1,0,24.1c0,1.7,0.9,2.6,2.6,2.6h15.1h0.8h9.8
				c1.7,0,2.6-0.9,2.6-2.6c-0.5-8-0.5-16.1,0-24.1c0-1.7-0.9-2.6-2.6-2.6H52.9 M48.9,71.6c-0.2,0.1-0.4,0.3-0.5,0.5
				c-0.1,0.2-0.2,0.4-0.2,0.7c0,0.4,0.2,0.8,0.5,1c0.3,0.2,0.8,0.4,1.3,0.6c0.5,0.2,1.1,0.4,1.7,0.5c0.6,0.2,1.1,0.4,1.7,0.7
				c0.5,0.3,1,0.7,1.3,1.2c0.3,0.5,0.5,1.2,0.5,2.1c0,0.8-0.2,1.6-0.5,2.2c-0.3,0.6-0.8,1.1-1.3,1.6c-0.5,0.4-1.1,0.7-1.9,0.9
				c-0.7,0.2-1.4,0.3-2.2,0.3c-1,0-1.9-0.2-2.7-0.5c-0.9-0.3-1.6-0.8-2.3-1.5l2.3-2.6c0.3,0.4,0.8,0.8,1.3,1.1
				c0.5,0.2,1,0.4,1.6,0.4c0.3,0,0.5,0,0.8-0.1c0.3-0.1,0.5-0.2,0.7-0.3c0.2-0.1,0.4-0.3,0.5-0.5c0.1-0.2,0.2-0.4,0.2-0.7
				c0-0.4-0.2-0.8-0.5-1.1s-0.8-0.5-1.3-0.7c-0.5-0.2-1.1-0.3-1.7-0.5c-0.6-0.2-1.2-0.4-1.7-0.7c-0.5-0.3-1-0.7-1.3-1.2
				c-0.3-0.5-0.5-1.2-0.5-2c0-0.8,0.2-1.5,0.5-2.1s0.8-1.1,1.3-1.6c0.5-0.4,1.1-0.7,1.9-0.9c0.7-0.2,1.4-0.3,2.1-0.3
				c0.9,0,1.7,0.1,2.5,0.4c0.8,0.2,1.5,0.7,2.2,1.2l-2.3,2.5c-0.3-0.3-0.7-0.6-1.1-0.7c-0.4-0.2-0.9-0.2-1.3-0.2
				c-0.2,0-0.5,0-0.7,0.1C49.4,71.4,49.1,71.5,48.9,71.6z"/>
			<path class="st2" d="M48.3,72.1c0.1-0.2,0.3-0.4,0.5-0.5s0.5-0.2,0.7-0.3c0.2,0,0.5-0.1,0.7-0.1c0.4,0,0.9,0.1,1.3,0.2
				c0.5,0.2,0.8,0.4,1.1,0.7l2.3-2.5c-0.7-0.6-1.4-1-2.2-1.2c-0.8-0.2-1.6-0.4-2.5-0.4c-0.7,0-1.4,0.1-2.1,0.3
				c-0.7,0.2-1.3,0.5-1.9,0.9c-0.5,0.4-1,0.9-1.3,1.6s-0.5,1.3-0.5,2.1c0,0.8,0.2,1.5,0.5,2c0.4,0.5,0.8,0.9,1.3,1.2
				c0.5,0.3,1.1,0.5,1.7,0.7c0.6,0.2,1.2,0.4,1.7,0.5c0.5,0.2,1,0.4,1.3,0.7s0.5,0.6,0.5,1.1c0,0.3-0.1,0.5-0.2,0.7
				c-0.1,0.2-0.3,0.4-0.5,0.5c-0.2,0.1-0.5,0.2-0.7,0.3C50,81,49.7,81,49.5,81c-0.6,0-1.1-0.1-1.6-0.4c-0.5-0.3-1-0.6-1.3-1.1
				l-2.3,2.6c0.7,0.7,1.5,1.2,2.3,1.5c0.8,0.3,1.7,0.5,2.7,0.5c0.8,0,1.5-0.1,2.2-0.3c0.7-0.2,1.3-0.5,1.9-0.9
				c0.5-0.4,1-0.9,1.3-1.6c0.3-0.6,0.5-1.4,0.5-2.2c0-0.9-0.2-1.6-0.5-2.1c-0.3-0.5-0.8-0.9-1.3-1.2c-0.5-0.3-1.1-0.6-1.7-0.7
				c-0.6-0.2-1.1-0.3-1.7-0.5c-0.5-0.2-1-0.4-1.3-0.6c-0.3-0.2-0.5-0.6-0.5-1C48.1,72.6,48.2,72.3,48.3,72.1z"/>
		</g>
	</g>
	<g>
		<path id="Layer1_0_1_STROKES" class="st3" d="M70.9,59c-0.5,11.1-0.5,22.2,0,33.3c0,2.4-1.2,3.6-3.6,3.6H32.5
			c-2.4,0-3.6-1.2-3.6-3.6c0.5-11.1,0.5-22.2,0-33.3c0-2.4,1.2-3.6,3.6-3.6h34.9C69.7,55.5,70.9,56.7,70.9,59z"/>
	</g>
	<g>
		<path id="Layer1_0_2_STROKES" class="st4" d="M52.1,61.1H37.1c-1.7,0-2.6,0.9-2.6,2.6c0.5,8,0.5,16.1,0,24.1
			c0,1.7,0.9,2.6,2.6,2.6h15.1 M52.9,90.3h9.8c1.7,0,2.6-0.9,2.6-2.6c-0.5-8-0.5-16.1,0-24.1c0-1.7-0.9-2.6-2.6-2.6h-9.8"/>
	</g>
</g>
<g id="W" transform="matrix( 1, 0, 0, 1, 0,0) ">
	<g>
		<g id="Layer1_0_FILL_2_">
			<path class="st0" d="M70.9,40.8c-0.5-11.1-0.5-22.2,0-33.3c0-2.4-1.2-3.6-3.6-3.6H32.5c-2.4,0-3.6,1.2-3.6,3.6
				c0.5,11.1,0.5,22.2,0,33.3c0,2.4,1.2,3.6,3.6,3.6h34.9C69.7,44.4,70.9,43.2,70.9,40.8 M52.1,9.5h0.8h9.8c1.7,0,2.6,0.9,2.6,2.6
				c-0.5,8-0.5,16.1,0,24.1c0,1.7-0.9,2.6-2.6,2.6h-9.8h-0.8H37.1c-1.7,0-2.6-0.9-2.6-2.6c0.5-8,0.5-16.1,0-24.1
				c0-1.7,0.9-2.6,2.6-2.6H52.1z"/>
			<path class="st1" d="M52.9,9.5h-0.8H37.1c-1.7,0-2.6,0.9-2.6,2.6c0.5,8,0.5,16.1,0,24.1c0,1.7,0.9,2.6,2.6,2.6h15.1h0.8h9.8
				c1.7,0,2.6-0.9,2.6-2.6c-0.5-8-0.5-16.1,0-24.1c0-1.7-0.9-2.6-2.6-2.6H52.9 M49.9,21.7L49.9,21.7l-3.4,10.5h-2.8L39.2,17h3.6
				l2.4,9.7h0l3.2-9.7h3.1l3.1,9.9h0.1l2.5-9.9h3.4l-4.4,15.1h-3L49.9,21.7z"/>
			<path class="st2" d="M49.9,21.7L49.9,21.7l3.4,10.5h3L60.6,17h-3.4L54.7,27h-0.1L51.5,17h-3.1l-3.2,9.7h0L42.8,17h-3.6l4.5,15.1
				h2.8L49.9,21.7z"/>
		</g>
	</g>
	<g>
		<path id="Layer1_0_1_STROKES_2_" class="st3" d="M70.9,7.5c-0.5,11.1-0.5,22.2,0,33.3c0,2.4-1.2,3.6-3.6,3.6H32.5
			c-2.4,0-3.6-1.2-3.6-3.6c0.5-11.1,0.5-22.2,0-33.3c0-2.4,1.2-3.6,3.6-3.6h34.9C69.7,3.9,70.9,5.1,70.9,7.5z"/>
	</g>
	<g>
		<path id="Layer1_0_2_STROKES_2_" class="st4" d="M52.1,9.5H37.1c-1.7,0-2.6,0.9-2.6,2.6c0.5,8,0.5,16.1,0,24.1
			c0,1.7,0.9,2.6,2.6,2.6h15.1 M52.9,38.8h9.8c1.7,0,2.6-0.9,2.6-2.6c-0.5-8-0.5-16.1,0-24.1c0-1.7-0.9-2.6-2.6-2.6h-9.8"/>
	</g>
</g>
</svg>
