<?xml version="1.0" encoding="utf-8"?>
<!-- Generator: Adobe Illustrator 24.1.2, SVG Export Plug-In . SVG Version: 6.00 Build 0)  -->
<svg version="1.1" id="Layer_1" xmlns="http://www.w3.org/2000/svg" xmlns:xlink="http://www.w3.org/1999/xlink" x="0px" y="0px"
	 viewBox="0 0 100 100" style="enable-background:new 0 0 100 100;" xml:space="preserve">
<g transform="matrix( 1, 0, 0, 1, 0,0) ">
	<g>
		<g id="Layer1_0_FILL">
			<path style="fill:#FFFFFF;" d="M58.3,43.5v-4.7h-15L43,52.5c0.8-0.3,1.6-0.5,2.5-0.7c0.9-0.2,1.7-0.3,2.6-0.3c0.7,0,1.3,0,2,0.2
				c0.7,0.1,1.3,0.4,1.8,0.7c0.6,0.3,1,0.8,1.3,1.3c0.3,0.5,0.5,1.2,0.5,2c0,1.1-0.3,1.9-1,2.6c-0.7,0.7-1.6,1.1-2.7,1.1
				c-0.9,0-1.7-0.3-2.3-0.8c-0.6-0.6-1-1.3-1.2-2.1l-5.5,1.3c0.5,2.1,1.5,3.7,3,4.8c1.4,1.1,3.2,1.6,5.4,1.6c1.3,0,2.6-0.2,3.8-0.6
				c1.2-0.4,2.2-1,3-1.8c0.8-0.8,1.5-1.7,1.9-2.8c0.5-1.1,0.7-2.4,0.8-3.8c0-1.2-0.2-2.4-0.6-3.4c-0.4-1-1-1.9-1.8-2.6
				c-0.8-0.7-1.7-1.2-2.7-1.6c-1.1-0.4-2.2-0.6-3.5-0.6c-0.9,0-1.7,0.1-2.2,0.3l0.1-3.8H58.3z"/>
		</g>
	</g>
	<g>
		<path id="Layer1_0_1_STROKES" style="fill:none;stroke:#FFFFFF;stroke-width:5;stroke-linecap:round;stroke-linejoin:round;" d="
			M84.9,23.1c-0.8,18.2-0.8,36.5,0,54.7c0,3.9-1.9,5.8-5.8,5.8H21.9c-3.9,0-5.9-1.9-5.9-5.8c0.8-18.2,0.8-36.4,0-54.7
			c0-3.9,2-5.9,5.9-5.9h57.2C83,17.3,84.9,19.3,84.9,23.1z"/>
	</g>
</g>
</svg>
