<?xml version="1.0" encoding="utf-8"?>
<!-- Generator: Adobe Illustrator 24.1.2, SVG Export Plug-In . SVG Version: 6.00 Build 0)  -->
<svg version="1.1" id="Layer_1" xmlns="http://www.w3.org/2000/svg" xmlns:xlink="http://www.w3.org/1999/xlink" x="0px" y="0px"
	 viewBox="0 0 100 100" style="enable-background:new 0 0 100 100;" xml:space="preserve">
<g>
	<g transform="matrix( 1, 0, 0, 1, 0,0) ">
		<g>
			<g id="Layer1_0_FILL">
				<path style="fill:#FFFFFF;" d="M50,13.4c-0.5,0-0.9,0.1-1.3,0.2c-0.4,0.1-0.8,0.3-1.1,0.5S47,14.6,46.9,15
					c-0.2,0.4-0.3,0.8-0.3,1.2c0,0.6,0.1,1,0.4,1.4c0.3,0.4,0.7,0.7,1.3,0.8l0,0c-0.6,0.2-1.1,0.5-1.4,0.9c-0.3,0.4-0.5,0.9-0.5,1.6
					c0,0.5,0.1,0.9,0.3,1.3s0.5,0.7,0.8,0.9c0.3,0.2,0.7,0.4,1.1,0.5c0.4,0.1,0.9,0.2,1.3,0.2c0.5,0,0.9-0.1,1.3-0.2
					c0.4-0.1,0.8-0.3,1.1-0.5s0.6-0.5,0.8-0.9s0.3-0.8,0.3-1.3c0-0.6-0.2-1.1-0.5-1.6c-0.3-0.4-0.8-0.7-1.4-0.9l0,0
					c0.5-0.2,1-0.4,1.3-0.8s0.4-0.9,0.4-1.4s-0.1-0.9-0.3-1.2s-0.4-0.6-0.7-0.9c-0.3-0.2-0.7-0.4-1.1-0.5
					C50.9,13.5,50.5,13.4,50,13.4 M50,17.6c-0.4,0-0.7-0.1-0.9-0.3c-0.2-0.2-0.3-0.5-0.3-0.8s0.1-0.6,0.3-0.8s0.5-0.3,0.9-0.3
					s0.7,0.1,0.9,0.3s0.3,0.5,0.3,0.8c0,0.3-0.1,0.6-0.3,0.8S50.4,17.6,50,17.6 M51.4,20.6c0,0.3-0.1,0.6-0.4,0.9
					c-0.3,0.2-0.6,0.4-1,0.4s-0.8-0.1-1-0.4c-0.3-0.3-0.4-0.6-0.4-0.9c0-0.4,0.1-0.7,0.4-0.9c0.3-0.2,0.6-0.4,1-0.4s0.8,0.1,1,0.4
					C51.3,20,51.4,20.3,51.4,20.6z"/>
			</g>
		</g>
		<g>
			<path id="Layer1_0_1_STROKES" style="fill:none;stroke:#FFFFFF;stroke-width:5;stroke-linecap:round;stroke-linejoin:round;" d="
				M64,7.2c-0.3,7.4-0.3,14.8,0,22.2c0,1.6-0.8,2.4-2.4,2.4H38.4c-1.6,0-2.4-0.8-2.4-2.4c0.3-7.4,0.3-14.8,0-22.2
				c0-1.6,0.8-2.4,2.4-2.4h23.2C63.2,4.9,64,5.7,64,7.2z"/>
		</g>
	</g>
	<g transform="matrix( 1, 0, 0, 1, 0,0) ">
		<g>
			<g id="Layer1_0_FILL_1_">
				<path style="fill:#FFFFFF;" d="M19.6,45.3h-2.3l-4.1,6.3v1.8h4.4v2h2.1v-2H21v-1.8h-1.3v-6.3 M17.5,48L17.5,48v3.5h-2.3L17.5,48
					z"/>
			</g>
		</g>
		<g>
			
				<path id="Layer1_0_1_STROKES_1_" style="fill:none;stroke:#FFFFFF;stroke-width:5;stroke-linecap:round;stroke-linejoin:round;" d="
				M31,38.9c-0.3,7.4-0.3,14.8,0,22.2c0,1.6-0.8,2.4-2.4,2.4H5.4c-1.6,0-2.4-0.8-2.4-2.4c0.3-7.4,0.3-14.8,0-22.2
				c0-1.6,0.8-2.4,2.4-2.4h23.2C30.2,36.5,31,37.3,31,38.9z"/>
		</g>
	</g>
	<g transform="matrix( 1, 0, 0, 1, 0,0) ">
		<g>
			<g id="Layer1_0_FILL_2_">
				<path style="fill:#FFFFFF;" d="M82.6,45.3l-2.2,3.5c-0.2,0.3-0.3,0.5-0.5,0.7c-0.1,0.3-0.3,0.5-0.4,0.8s-0.2,0.6-0.3,0.9
					c-0.1,0.3-0.1,0.6-0.1,1c0,0.5,0.1,1,0.3,1.4c0.2,0.4,0.5,0.8,0.8,1.1s0.7,0.5,1.2,0.7c0.4,0.2,0.9,0.3,1.5,0.3
					c0.5,0,1-0.1,1.5-0.3s0.9-0.4,1.2-0.7c0.3-0.3,0.6-0.7,0.8-1.1c0.2-0.4,0.3-0.9,0.3-1.4c0-0.4-0.1-0.9-0.2-1.3
					c-0.1-0.4-0.4-0.8-0.6-1.1c-0.3-0.3-0.6-0.5-1-0.7s-0.8-0.2-1.3-0.2c-0.1,0-0.2,0-0.4,0c-0.1,0-0.2,0-0.3,0.1l2.4-3.6h-2.7
					 M84.1,50.8c0.3,0.3,0.4,0.7,0.4,1.1s-0.1,0.8-0.4,1.1s-0.7,0.4-1.2,0.4S82,53.3,81.7,53s-0.4-0.7-0.4-1.1s0.1-0.8,0.4-1.1
					s0.7-0.5,1.2-0.5C83.5,50.4,83.8,50.5,84.1,50.8z"/>
			</g>
		</g>
		<g>
			
				<path id="Layer1_0_1_STROKES_2_" style="fill:none;stroke:#FFFFFF;stroke-width:5;stroke-linecap:round;stroke-linejoin:round;" d="
				M97,38.9c-0.3,7.4-0.3,14.8,0,22.2c0,1.6-0.8,2.4-2.4,2.4H71.4c-1.6,0-2.4-0.8-2.4-2.4c0.3-7.4,0.3-14.8,0-22.2
				c0-1.6,0.8-2.4,2.4-2.4h23.2C96.2,36.5,97,37.3,97,38.9z"/>
		</g>
	</g>
	<g transform="matrix( 1, 0, 0, 1, 0,0) ">
		<g>
			<g id="Layer1_0_FILL_3_">
				<path style="fill:#FFFFFF;" d="M48.8,80c0-0.4,0.1-0.7,0.4-0.9c0.2-0.2,0.5-0.4,0.9-0.4c0.3,0,0.6,0.1,0.9,0.3s0.4,0.5,0.4,0.8
					s-0.1,0.6-0.3,0.8c-0.2,0.2-0.4,0.4-0.6,0.6l-3.9,3.5V87h7v-1.9H49l3.1-2.6c0.2-0.2,0.4-0.3,0.5-0.5c0.2-0.2,0.3-0.4,0.4-0.6
					c0.1-0.2,0.2-0.5,0.3-0.7c0.1-0.3,0.1-0.5,0.1-0.9c0-0.5-0.1-0.9-0.2-1.3c-0.2-0.4-0.4-0.7-0.7-1c-0.3-0.2-0.6-0.4-1-0.6
					c-0.4-0.1-0.8-0.2-1.3-0.2s-1,0.1-1.4,0.2s-0.8,0.3-1.1,0.6c-0.3,0.3-0.6,0.6-0.8,1s-0.3,0.8-0.3,1.4L48.8,80z"/>
			</g>
		</g>
		<g>
			
				<path id="Layer1_0_1_STROKES_3_" style="fill:none;stroke:#FFFFFF;stroke-width:5;stroke-linecap:round;stroke-linejoin:round;" d="
				M64,70.5c-0.3,7.4-0.3,14.8,0,22.2c0,1.6-0.8,2.4-2.4,2.4H38.4c-1.6,0-2.4-0.8-2.4-2.4c0.3-7.4,0.3-14.8,0-22.2
				c0-1.6,0.8-2.4,2.4-2.4h23.2C63.2,68.2,64,69,64,70.5z"/>
		</g>
	</g>
</g>
</svg>
