<?xml version="1.0" encoding="utf-8"?>
<!-- Generator: Adobe Illustrator 24.1.2, SVG Export Plug-In . SVG Version: 6.00 Build 0)  -->
<svg version="1.1" id="Layer_1" xmlns="http://www.w3.org/2000/svg" xmlns:xlink="http://www.w3.org/1999/xlink" x="0px" y="0px"
	 viewBox="0 0 100 100" style="enable-background:new 0 0 100 100;" xml:space="preserve">
<g transform="matrix( 1, 0, 0, 1, 0,0) ">
	<g>
		<g id="Layer1_0_FILL">
			<path style="fill:#FFFFFF;" d="M62.6,61.8c0-1-0.1-1.8-0.4-2.6c-0.3-0.8-0.7-1.5-1.2-2c-0.5-0.6-1.1-1-1.8-1.3s-1.5-0.4-2.3-0.4
				c-0.9,0-1.8,0.1-2.7,0.4s-1.5,0.7-2.2,1.3c-0.6,0.5-1.1,1.2-1.4,2c-0.4,0.8-0.5,1.7-0.5,2.6c0,0.9,0.2,1.8,0.5,2.6
				c0.3,0.8,0.8,1.5,1.4,2c0.6,0.6,1.3,1,2.2,1.3c0.8,0.3,1.7,0.5,2.7,0.5c1,0,2-0.2,2.8-0.6c0.9-0.4,1.7-1,2.3-1.8l-2.6-1.9
				c-0.3,0.4-0.7,0.8-1.1,1.1c-0.4,0.3-1,0.4-1.6,0.4c-0.7,0-1.3-0.2-1.8-0.6c-0.5-0.4-0.9-1-1-1.7h8.7V61.8 M54.1,59.5
				c0.1-0.3,0.3-0.5,0.6-0.8c0.2-0.2,0.5-0.4,0.8-0.5c0.3-0.1,0.7-0.2,1.1-0.2c0.7,0,1.2,0.2,1.7,0.7c0.5,0.5,0.7,1,0.6,1.7h-4.9
				C53.9,60.1,54,59.8,54.1,59.5 M37.8,50.2H32v17.7h6.4c1.3,0,2.5-0.2,3.8-0.5c1.2-0.4,2.2-1,3.1-1.7c0.9-0.7,1.7-1.6,2.2-2.8
				c0.5-1.1,0.8-2.4,0.8-3.8c0-1.6-0.3-3-0.8-4.1c-0.5-1.1-1.3-2-2.3-2.8c-0.9-0.7-2-1.2-3.3-1.5C40.6,50.3,39.3,50.2,37.8,50.2
				 M38,64.3h-2V53.8h2.3c0.8,0,1.6,0.1,2.3,0.3c0.7,0.2,1.4,0.5,1.9,1c0.6,0.4,1,1,1.3,1.6c0.3,0.6,0.5,1.4,0.5,2.3
				c0,1-0.2,1.9-0.5,2.6c-0.3,0.7-0.7,1.2-1.3,1.6c-0.6,0.4-1.2,0.7-2,0.9C39.6,64.2,38.8,64.3,38,64.3 M68.7,49h-3.8v18.9h3.8V49z"
				/>
		</g>
	</g>
	<g>
		<path id="Layer1_0_1_STROKES" style="fill:none;stroke:#FFFFFF;stroke-width:5;stroke-linecap:round;stroke-linejoin:round;" d="
			M84.9,23.1c-0.8,18.2-0.8,36.5,0,54.7c0,3.9-1.9,5.8-5.8,5.8H21.9c-3.9,0-5.9-1.9-5.9-5.8c0.8-18.2,0.8-36.4,0-54.7
			c0-3.9,2-5.9,5.9-5.9h57.2C83,17.3,84.9,19.3,84.9,23.1z"/>
	</g>
</g>
</svg>
