<?xml version="1.0" encoding="utf-8"?>
<!-- Generator: Adobe Illustrator 24.1.2, SVG Export Plug-In . SVG Version: 6.00 Build 0)  -->
<svg version="1.1" id="Layer_1" xmlns="http://www.w3.org/2000/svg" xmlns:xlink="http://www.w3.org/1999/xlink" x="0px" y="0px"
	 viewBox="0 0 100 100" style="enable-background:new 0 0 100 100;" xml:space="preserve">
<g transform="matrix( 1, 0, 0, 1, 0,0) ">
	<g>
		<g id="Layer1_0_FILL">
			<path style="fill:#FFFFFF;" d="M52.8,36.6L42.3,63.9c-0.1,0.2-0.1,0.3,0,0.5c0,0.2,0.1,0.3,0.3,0.5c0.1,0.1,0.3,0.2,0.5,0.3
				l4,1.2c0.2,0.1,0.5,0.1,0.7-0.1c0.3-0.1,0.4-0.3,0.5-0.5l10.5-27.3c0.1-0.2,0.1-0.3,0-0.5c0-0.2-0.1-0.4-0.2-0.5
				c-0.1-0.1-0.3-0.2-0.5-0.3L54,36c-0.2-0.1-0.5,0-0.8,0C53.1,36.2,52.9,36.4,52.8,36.6z"/>
		</g>
	</g>
	<g>
		<path id="Layer1_0_1_STROKES" style="fill:none;stroke:#FFFFFF;stroke-width:5;stroke-linecap:round;stroke-linejoin:round;" d="
			M21.9,17.3h57.2c3.9,0,5.8,2,5.8,5.9c-0.8,18.2-0.8,36.5,0,54.7c0,3.9-2,5.8-5.8,5.8H21.9c-3.9,0-5.8-1.9-5.8-5.8
			c0.8-18.2,0.8-36.4,0-54.7C16,19.3,18,17.3,21.9,17.3z"/>
	</g>
</g>
</svg>
