<?xml version="1.0" encoding="utf-8"?>
<!-- Generator: Adobe Illustrator 24.1.2, SVG Export Plug-In . SVG Version: 6.00 Build 0)  -->
<svg version="1.1" id="Layer_1" xmlns="http://www.w3.org/2000/svg" xmlns:xlink="http://www.w3.org/1999/xlink" x="0px" y="0px"
	 viewBox="0 0 100 100" style="enable-background:new 0 0 100 100;" xml:space="preserve">
<g transform="matrix( 1, 0, 0, 1, 0,0) ">
	<g>
		<g id="Layer1_0_FILL">
			<path style="fill:#FFFFFF;" d="M52.7,59.8c-0.1-0.5-0.3-1-0.6-1.5c-0.3-0.4-0.6-0.7-1.1-1c-0.5-0.2-1.1-0.3-1.8-0.3
				c-0.4,0-0.7,0-1,0.2c-0.3,0.1-0.6,0.2-0.8,0.3c-0.2,0.1-0.4,0.3-0.6,0.5c-0.2,0.2-0.3,0.4-0.4,0.5h0v-1.3h-2.9v9.7h3v-4.8
				c0-0.3,0-0.6,0-0.9c0.1-0.3,0.2-0.6,0.3-0.8c0.1-0.2,0.3-0.4,0.5-0.6c0.3-0.1,0.6-0.2,1-0.2c0.4,0,0.7,0.1,0.9,0.2
				c0.2,0.2,0.4,0.4,0.5,0.7c0.1,0.2,0.2,0.5,0.2,0.8c0,0.3,0,0.6,0,0.9v4.7h3v-5.3C52.8,60.9,52.7,60.3,52.7,59.8 M62,58.3
				c-0.3-0.5-0.8-0.8-1.3-1C60.2,57.1,59.6,57,59,57c-0.7,0-1.3,0.1-1.8,0.4c-0.6,0.3-1,0.7-1.4,1.1c-0.4,0.5-0.7,1.1-0.9,1.7
				c-0.2,0.6-0.3,1.3-0.3,2c0,0.7,0.1,1.4,0.4,2c0.2,0.6,0.5,1.1,0.9,1.6c0.4,0.4,1,0.8,1.6,1c0.6,0.3,1.2,0.4,1.9,0.4
				c0.3,0,0.7,0,1-0.1c0.3-0.1,0.6-0.2,0.9-0.4c0.3-0.2,0.5-0.3,0.7-0.5s0.4-0.3,0.5-0.5h0v1.3h2.8V51.8h-3L62,58.3L62,58.3
				 M62.3,62.1c0,0.7-0.2,1.3-0.6,1.8c-0.4,0.5-1,0.7-1.8,0.7c-0.8,0-1.3-0.2-1.8-0.7c-0.4-0.4-0.7-1-0.7-1.8c0-0.7,0.2-1.3,0.7-1.8
				c0.4-0.4,1-0.6,1.8-0.6c0.8,0,1.3,0.2,1.8,0.6C62.1,60.8,62.3,61.4,62.3,62.1 M34.5,64.1v-2.9h6.1v-2.9h-6.1v-2.6H41v-2.9h-9.7
				v14.1h10v-2.9H34.5z"/>
		</g>
	</g>
	<g>
		<path id="Layer1_0_1_STROKES" style="fill:none;stroke:#FFFFFF;stroke-width:5;stroke-linecap:round;stroke-linejoin:round;" d="
			M84.9,23.1c-0.8,18.2-0.8,36.5,0,54.7c0,3.9-1.9,5.8-5.8,5.8H21.9c-3.9,0-5.9-1.9-5.9-5.8c0.8-18.2,0.8-36.4,0-54.7
			c0-3.9,2-5.9,5.9-5.9h57.2C83,17.3,84.9,19.3,84.9,23.1z"/>
	</g>
</g>
</svg>
