<?xml version="1.0" encoding="utf-8"?>
<!-- Generator: Adobe Illustrator 24.1.2, SVG Export Plug-In . SVG Version: 6.00 Build 0)  -->
<svg version="1.1" id="Layer_1" xmlns="http://www.w3.org/2000/svg" xmlns:xlink="http://www.w3.org/1999/xlink" x="0px" y="0px"
	 viewBox="0 0 100 100" style="enable-background:new 0 0 100 100;" xml:space="preserve">
<g transform="matrix( 1, 0, 0, 1, 0,0) ">
	<g>
		<g id="Layer1_0_FILL">
			<path style="fill:#FFFFFF;" d="M54,52.7h-3.3v3.1h-2.1v2.7h2.1v5.1c0,0.6,0.1,1.1,0.3,1.5c0.2,0.4,0.5,0.7,0.8,1
				c0.4,0.2,0.8,0.4,1.3,0.5c0.5,0.1,1,0.2,1.5,0.2c0.4,0,0.8,0,1.2-0.1s0.8-0.1,1.2-0.3v-2.7c-0.1,0.1-0.4,0.2-0.7,0.3
				s-0.5,0-0.7,0c-0.4,0-0.7,0-0.8-0.2c-0.2-0.1-0.3-0.2-0.5-0.4c-0.1-0.2-0.2-0.4-0.2-0.7c0-0.2,0-0.5,0-0.8v-3.5h2.9v-2.7H54V52.7
				 M67.8,57c-0.4-0.5-1-0.8-1.6-1.1c-0.6-0.3-1.3-0.4-2.1-0.4c-0.8,0-1.6,0.1-2.3,0.4c-0.7,0.3-1.4,0.6-1.9,1.1
				c-0.5,0.5-1,1.1-1.3,1.8c-0.3,0.7-0.5,1.5-0.5,2.3c0,0.9,0.1,1.6,0.5,2.3c0.3,0.7,0.7,1.3,1.3,1.8c0.5,0.5,1.2,0.8,1.9,1.1
				c0.7,0.3,1.5,0.4,2.3,0.4c0.9,0,1.7-0.2,2.5-0.6c0.8-0.4,1.5-0.9,2-1.5L66.4,63c-0.3,0.4-0.6,0.7-1,1c-0.4,0.2-0.8,0.3-1.4,0.3
				c-0.6,0-1.2-0.2-1.6-0.5c-0.4-0.4-0.7-0.9-0.9-1.5h7.6v-1c0-0.8-0.1-1.6-0.3-2.3C68.6,58.1,68.3,57.5,67.8,57 M63.8,57.9
				c0.6,0,1.1,0.2,1.5,0.6c0.4,0.4,0.6,0.9,0.6,1.5h-4.4c0-0.3,0.1-0.5,0.2-0.8c0.1-0.3,0.3-0.5,0.5-0.7c0.2-0.2,0.4-0.3,0.7-0.5
				C63.2,58,63.5,57.9,63.8,57.9 M78.2,55.5c-0.2,0-0.4,0-0.5,0c-0.7,0-1.3,0.2-1.8,0.5c-0.5,0.3-0.9,0.8-1.3,1.5h-0.1v-1.7h-3.3
				v10.7h3.3V62c0-0.5,0-1,0.1-1.5c0.1-0.5,0.2-0.8,0.4-1.1c0.2-0.3,0.5-0.6,0.8-0.8c0.4-0.2,0.9-0.3,1.5-0.3c0.2,0,0.5,0,0.7,0
				c0.2,0,0.5,0.1,0.7,0.2v-3C78.6,55.6,78.4,55.6,78.2,55.5 M34.3,54.1v-3.2H23.6v15.6h11v-3.2h-7.6v-3.2h6.7V57h-6.7v-2.9H34.3
				 M40.3,61.2c0-0.3,0-0.7,0.1-1c0-0.3,0.1-0.6,0.3-0.9c0.1-0.3,0.3-0.5,0.6-0.6c0.3-0.2,0.6-0.3,1-0.3s0.8,0.1,1,0.3
				c0.2,0.2,0.4,0.4,0.5,0.7c0.1,0.3,0.2,0.6,0.2,0.9c0,0.3,0,0.7,0,1v5.3h3.3v-5.9c0-0.7,0-1.4-0.2-2C47,58,46.8,57.5,46.5,57
				c-0.3-0.5-0.7-0.8-1.2-1c-0.5-0.3-1.2-0.4-2-0.4c-0.4,0-0.8,0.1-1.1,0.2c-0.3,0.1-0.6,0.2-0.9,0.4c-0.3,0.2-0.5,0.4-0.7,0.6
				c-0.2,0.2-0.3,0.4-0.4,0.6h0v-1.5H37v10.7h3.3V61.2z"/>
		</g>
	</g>
	<g>
		<path id="Layer1_0_1_STROKES" style="fill:none;stroke:#FFFFFF;stroke-width:5;stroke-linecap:round;stroke-linejoin:round;" d="
			M87.9,9.6c3.3,0,5,1.7,5,5c-0.4,7.5-0.5,22.4-0.5,44.7c0,8.1,0.2,16.2,0.5,24.3c0,3.3-1.7,5-5,5H13.1c-3.3,0-5-1.7-5-5
			c0.7-15.5,0.7-31.1,0-46.7c0-3.3,1.7-5,5-5h34.7c2.7-0.1,4.2-1.3,4.6-3.6V12.9c0.5-2.1,2-3.1,4.5-3.2H87.9z"/>
	</g>
</g>
</svg>
