<?xml version="1.0" encoding="utf-8"?>
<!-- Generator: Adobe Illustrator 24.1.2, SVG Export Plug-In . SVG Version: 6.00 Build 0)  -->
<svg version="1.1" id="Layer_1" xmlns="http://www.w3.org/2000/svg" xmlns:xlink="http://www.w3.org/1999/xlink" x="0px" y="0px"
	 viewBox="0 0 100 100" style="enable-background:new 0 0 100 100;" xml:space="preserve">
<g transform="matrix( 1, 0, 0, 1, 0,0) ">
	<g>
		<g id="Layer1_0_FILL">
			<path style="fill:#FFFFFF;" d="M54.3,54.8c-0.8-0.2-1.6-0.3-2.4-0.3c-0.6,0-1.3,0.1-1.9,0.3c-0.6,0.1-1.2,0.4-1.6,0.8
				c-0.5,0.3-0.8,0.8-1.2,1.3c-0.3,0.5-0.5,1.1-0.5,1.8c0,0.8,0.2,1.4,0.5,1.9c0.3,0.5,0.7,0.8,1.2,1c0.5,0.3,1,0.5,1.5,0.5
				c0.6,0.1,1.1,0.3,1.5,0.4c0.5,0.1,0.8,0.3,1.2,0.4c0.3,0.2,0.5,0.4,0.5,0.8s-0.2,0.6-0.5,0.7c-0.3,0.1-0.7,0.2-1.2,0.2
				c-0.6,0-1.1-0.1-1.5-0.3c-0.4-0.2-0.8-0.5-1.2-1l-2.3,2.5c0.6,0.6,1.3,1.1,2.2,1.3c0.9,0.2,1.7,0.3,2.5,0.3c0.7,0,1.3-0.1,2-0.2
				c0.7-0.1,1.3-0.3,1.8-0.7c0.5-0.3,1-0.7,1.3-1.2c0.3-0.5,0.5-1.2,0.5-1.9c0-0.8-0.2-1.4-0.5-1.8c-0.3-0.5-0.7-0.8-1.2-1.1
				c-0.5-0.3-1-0.4-1.5-0.5c-0.5-0.1-1-0.3-1.5-0.3c-0.5-0.1-0.9-0.3-1.2-0.4c-0.3-0.1-0.5-0.4-0.5-0.7c0-0.4,0.2-0.6,0.5-0.8
				c0.3-0.1,0.6-0.2,1-0.2c0.9,0,1.6,0.3,2.2,1l2.3-2.3C55.9,55.5,55.2,55.1,54.3,54.8 M62.3,60.9c0-0.9,0.3-1.7,0.8-2.3
				c0.5-0.6,1.2-0.9,2.2-0.9c0.4,0,0.8,0.1,1.1,0.3c0.3,0.2,0.6,0.4,0.8,0.7l2.5-2.6c-0.6-0.6-1.3-1-2.1-1.3
				c-0.8-0.2-1.5-0.3-2.3-0.3c-0.9,0-1.8,0.1-2.7,0.5c-0.8,0.3-1.5,0.7-2.1,1.3c-0.6,0.5-1.1,1.2-1.4,2c-0.4,0.8-0.5,1.7-0.5,2.7
				c0,0.9,0.2,1.8,0.5,2.6c0.3,0.8,0.8,1.5,1.4,2c0.6,0.6,1.3,1,2.1,1.3c0.8,0.3,1.7,0.4,2.7,0.4c0.7,0,1.5-0.1,2.3-0.3
				c0.8-0.2,1.5-0.7,2.1-1.3L67.1,63c-0.2,0.2-0.4,0.5-0.8,0.7C66,63.9,65.7,64,65.3,64c-1,0-1.7-0.3-2.2-0.9
				C62.5,62.5,62.3,61.8,62.3,60.9 M36,63.3v-3.6h7.7v-3.6H36v-3.3h8.2v-3.6h-12v17.7h12.4v-3.6H36z"/>
		</g>
	</g>
	<g>
		<path id="Layer1_0_1_STROKES" style="fill:none;stroke:#FFFFFF;stroke-width:5;stroke-linecap:round;stroke-linejoin:round;" d="
			M84.9,23.1c-0.8,18.2-0.8,36.5,0,54.7c0,3.9-1.9,5.8-5.8,5.8H21.9c-3.9,0-5.9-1.9-5.9-5.8c0.8-18.2,0.8-36.4,0-54.7
			c0-3.9,2-5.9,5.9-5.9h57.2C83,17.3,84.9,19.3,84.9,23.1z"/>
	</g>
</g>
</svg>
