<?xml version="1.0" encoding="utf-8"?>
<!-- Generator: Adobe Illustrator 24.1.2, SVG Export Plug-In . SVG Version: 6.00 Build 0)  -->
<svg version="1.1" id="Layer_1" xmlns="http://www.w3.org/2000/svg" xmlns:xlink="http://www.w3.org/1999/xlink" x="0px" y="0px"
	 viewBox="0 0 100 100" style="enable-background:new 0 0 100 100;" xml:space="preserve">
<g transform="matrix( 1, 0, 0, 1, 0,0) ">
	<g>
		<g id="Layer1_0_FILL">
			<path style="fill:#FFFFFF;" d="M44.3,60.8c-0.5,0.2-0.9,0.4-1.3,0.8c-0.4,0.3-0.6,0.8-0.8,1.3c-0.2,0.5-0.3,1-0.3,1.6
				s0.1,1.1,0.3,1.6c0.2,0.5,0.5,0.9,0.8,1.2c0.4,0.3,0.8,0.6,1.3,0.8c0.5,0.2,1,0.3,1.6,0.3c0.5,0,1-0.1,1.5-0.3
				c0.5-0.2,0.9-0.4,1.3-0.8c0.4-0.3,0.6-0.7,0.8-1.2c0.2-0.5,0.3-1,0.3-1.6c0-0.6-0.1-1.1-0.3-1.6c-0.2-0.5-0.5-0.9-0.8-1.3
				s-0.8-0.6-1.3-0.8s-1-0.3-1.5-0.3C45.3,60.5,44.8,60.6,44.3,60.8 M47.7,64.3c0,0.6-0.2,1-0.5,1.3c-0.3,0.3-0.7,0.5-1.3,0.5
				c-0.6,0-1-0.2-1.4-0.5c-0.3-0.3-0.5-0.8-0.5-1.3c0-0.5,0.2-1,0.5-1.4c0.3-0.3,0.8-0.5,1.4-0.5c0.6,0,1,0.2,1.3,0.5
				C47.5,63.3,47.7,63.8,47.7,64.3 M61.7,61.4c-0.2-0.3-0.5-0.5-0.8-0.7c-0.3-0.2-0.7-0.3-1.2-0.3c-0.6,0-1,0.1-1.4,0.3
				c-0.4,0.2-0.7,0.5-1,1c-0.2-0.5-0.5-0.8-0.9-1c-0.4-0.2-0.8-0.3-1.4-0.3c-0.3,0-0.5,0-0.8,0.1c-0.2,0.1-0.4,0.2-0.6,0.3
				c-0.2,0.1-0.3,0.2-0.5,0.4c-0.1,0.1-0.2,0.3-0.3,0.4h0v-1h-2.2v7.3H53v-3.6c0-0.2,0-0.5,0-0.7c0-0.2,0.1-0.4,0.2-0.6
				c0.1-0.2,0.2-0.3,0.4-0.5c0.2-0.1,0.4-0.1,0.7-0.1c0.3,0,0.5,0.1,0.6,0.2c0.1,0.1,0.2,0.2,0.3,0.4c0.1,0.2,0.1,0.4,0.1,0.5
				c0,0.2,0,0.4,0,0.5v3.8h2.3v-3.8c0-0.2,0-0.5,0.1-0.6c0.1-0.2,0.1-0.4,0.3-0.5c0.1-0.2,0.2-0.3,0.4-0.4c0.2-0.1,0.4-0.1,0.7-0.1
				c0.4,0,0.7,0.1,0.8,0.3c0.1,0.3,0.2,0.6,0.2,0.9v4.2h2.3v-4.3c0-0.4,0-0.9-0.1-1.3C62,62,61.9,61.7,61.7,61.4 M67.1,60.5
				c-0.5,0-1,0.1-1.5,0.3s-0.9,0.4-1.3,0.8s-0.6,0.8-0.8,1.3c-0.2,0.5-0.4,1-0.4,1.6s0.1,1.1,0.4,1.6c0.2,0.5,0.5,0.9,0.8,1.2
				c0.4,0.3,0.8,0.6,1.3,0.8c0.5,0.2,1,0.3,1.5,0.3c0.6,0,1.2-0.1,1.8-0.4c0.5-0.2,1-0.6,1.3-1.1l-1.6-1.1c-0.2,0.3-0.4,0.5-0.7,0.6
				c-0.3,0.2-0.6,0.3-0.9,0.3c-0.4,0-0.8-0.1-1.1-0.4c-0.3-0.3-0.5-0.6-0.6-1.1h5.3v-0.7c0-0.6-0.1-1.1-0.3-1.6
				c-0.2-0.5-0.4-0.9-0.7-1.3s-0.6-0.6-1-0.8C68.1,60.6,67.6,60.5,67.1,60.5 M66.3,62.2c0.2-0.1,0.4-0.1,0.7-0.1
				c0.4,0,0.7,0.1,1,0.4c0.3,0.3,0.4,0.6,0.4,1h-3c0-0.2,0.1-0.4,0.1-0.5c0.1-0.2,0.2-0.3,0.3-0.4C65.9,62.4,66,62.3,66.3,62.2
				 M38.3,57.3v4h-4.5v-4h-2.3v10.6h2.3v-4.6h4.5v4.6h2.4V57.3H38.3z"/>
		</g>
	</g>
	<g>
		<path id="Layer1_0_1_STROKES" style="fill:none;stroke:#FFFFFF;stroke-width:5;stroke-linecap:round;stroke-linejoin:round;" d="
			M84.9,23.1c-0.8,18.2-0.8,36.5,0,54.7c0,3.9-1.9,5.8-5.8,5.8H21.9c-3.9,0-5.9-1.9-5.9-5.8c0.8-18.2,0.8-36.4,0-54.7
			c0-3.9,2-5.9,5.9-5.9h57.2C83,17.3,84.9,19.3,84.9,23.1z"/>
	</g>
</g>
</svg>
