<?xml version="1.0" encoding="utf-8"?>
<!-- Generator: Adobe Illustrator 24.1.2, SVG Export Plug-In . SVG Version: 6.00 Build 0)  -->
<svg version="1.1" id="Layer_1" xmlns="http://www.w3.org/2000/svg" xmlns:xlink="http://www.w3.org/1999/xlink" x="0px" y="0px"
	 viewBox="0 0 100 100" style="enable-background:new 0 0 100 100;" xml:space="preserve">
<g transform="matrix( 1, 0, 0, 1, 0,0) ">
	<g>
		<g id="Layer1_0_FILL">
			<path style="fill:#FFFFFF;" d="M52.7,42.8h-4.4v7.4h-7.4v4.4h7.4V62h4.4v-7.4h7.4v-4.4h-7.4V42.8z"/>
		</g>
	</g>
	<g>
		<path id="Layer1_0_1_STROKES" style="fill:none;stroke:#FFFFFF;stroke-width:5;stroke-linecap:round;stroke-linejoin:round;" d="
			M70.3,6.7c2.7,0,4.1,1.6,4.1,4.8c-0.3,7.4-0.5,25.7-0.5,54.9c0,7.7,0.1,15.3,0.5,23c0,3.2-1.4,4.9-4.1,4.9H30.6
			c-2.7,0-4-1.6-4-4.9c0.3-7.7,0.4-15.3,0.4-23c0-29.3-0.2-47.6-0.4-54.9c0-3.2,1.3-4.8,4-4.8H70.3z"/>
	</g>
</g>
</svg>
