<?xml version="1.0" encoding="utf-8"?>
<!-- Generator: Adobe Illustrator 24.1.2, SVG Export Plug-In . SVG Version: 6.00 Build 0)  -->
<svg version="1.1" id="Layer_1" xmlns="http://www.w3.org/2000/svg" xmlns:xlink="http://www.w3.org/1999/xlink" x="0px" y="0px"
	 viewBox="0 0 100 100" style="enable-background:new 0 0 100 100;" xml:space="preserve">
<g transform="matrix( 1, 0, 0, 1, 0,0) ">
	<g>
		<g id="Layer1_0_FILL">
			<path style="fill:#FFFFFF;" d="M50,21.8L50,21.8l3.4,10.5h3l4.4-15.1h-3.4L54.8,27h-0.1l-3.1-9.9h-3.1l-3.2,9.7l0,0l-2.4-9.7
				h-3.6l4.5,15.1h2.8L50,21.8z"/>
		</g>
	</g>
	<g>
		<path id="Layer1_0_1_STROKES" style="fill:none;stroke:#FFFFFF;stroke-width:5;stroke-linecap:round;stroke-linejoin:round;" d="
			M71,7.6c-0.5,11.1-0.5,22.2,0,33.3c0,2.4-1.2,3.6-3.6,3.6H32.6c-2.4,0-3.6-1.2-3.6-3.6c0.5-11.1,0.5-22.2,0-33.3
			C29,5.2,30.2,4,32.6,4h34.9C69.8,4,71,5.2,71,7.6z"/>
	</g>
</g>
<g transform="matrix( 1, 0, 0, 1, 0,0) ">
	<g>
		<g id="Layer1_0_FILL_1_">
			<path style="fill:#FFFFFF;" d="M48.4,72.2c0.1-0.2,0.3-0.4,0.5-0.5s0.5-0.2,0.7-0.3c0.2,0,0.5-0.1,0.7-0.1c0.4,0,0.9,0.1,1.3,0.2
				c0.5,0.2,0.8,0.4,1.1,0.7l2.3-2.5c-0.7-0.6-1.4-1-2.2-1.2s-1.6-0.4-2.5-0.4c-0.7,0-1.4,0.1-2.1,0.3c-0.7,0.2-1.3,0.5-1.9,0.9
				c-0.5,0.4-1,0.9-1.3,1.6s-0.5,1.3-0.5,2.1c0,0.8,0.2,1.5,0.5,2c0.4,0.5,0.8,0.9,1.3,1.2c0.5,0.3,1.1,0.5,1.7,0.7
				c0.6,0.2,1.2,0.4,1.7,0.5c0.5,0.2,1,0.4,1.3,0.7s0.5,0.6,0.5,1.1c0,0.3-0.1,0.5-0.2,0.7c-0.1,0.2-0.3,0.4-0.5,0.5
				s-0.5,0.2-0.7,0.3c-0.3,0.1-0.6,0.1-0.8,0.1c-0.6,0-1.1-0.1-1.6-0.4s-1-0.6-1.3-1.1l-2.3,2.6c0.7,0.7,1.5,1.2,2.3,1.5
				s1.7,0.5,2.7,0.5c0.8,0,1.5-0.1,2.2-0.3c0.7-0.2,1.3-0.5,1.9-0.9c0.5-0.4,1-0.9,1.3-1.6c0.3-0.6,0.5-1.4,0.5-2.2
				c0-0.9-0.2-1.6-0.5-2.1s-0.8-0.9-1.3-1.2c-0.5-0.3-1.1-0.6-1.7-0.7c-0.6-0.2-1.1-0.3-1.7-0.5c-0.5-0.2-1-0.4-1.3-0.6
				s-0.5-0.6-0.5-1C48.2,72.6,48.3,72.4,48.4,72.2z"/>
		</g>
	</g>
	<g>
		
			<path id="Layer1_0_1_STROKES_1_" style="fill:none;stroke:#FFFFFF;stroke-width:5;stroke-linecap:round;stroke-linejoin:round;" d="
			M71,59.1c-0.5,11.1-0.5,22.2,0,33.3c0,2.4-1.2,3.6-3.6,3.6H32.6c-2.4,0-3.6-1.2-3.6-3.6c0.5-11.1,0.5-22.2,0-33.3
			c0-2.4,1.2-3.6,3.6-3.6h34.9C69.8,55.6,71,56.7,71,59.1z"/>
	</g>
</g>
</svg>
