<?xml version="1.0" encoding="utf-8"?>
<!-- Generator: Adobe Illustrator 24.1.2, SVG Export Plug-In . SVG Version: 6.00 Build 0)  -->
<svg version="1.1" id="Layer_1" xmlns="http://www.w3.org/2000/svg" xmlns:xlink="http://www.w3.org/1999/xlink" x="0px" y="0px"
	 viewBox="0 0 100 100" style="enable-background:new 0 0 100 100;" xml:space="preserve">
<g transform="matrix( 1, 0, 0, 1, 0,0) ">
	<g>
		<g id="Layer1_0_FILL">
			<path style="fill:#FFFFFF;" d="M60.5,48c-0.5,0.4-1,0.7-1.5,1c-0.5,0.3-1.1,0.4-1.7,0.4c-0.8,0-1.8-0.3-3-0.8
				c-1.1-0.5-2.3-1-3.5-1.5c-1.2-0.5-2.4-1-3.5-1.4c-1.2-0.4-2.3-0.6-3.4-0.6c-1,0-2,0.2-2.8,0.5c-0.8,0.3-1.6,0.7-2.2,1.2
				c-0.6,0.5-1.2,1.1-1.6,1.8c-0.5,0.6-0.9,1.3-1.3,2l2.3,6.8c0.4-0.5,0.7-1,1.1-1.6c0.4-0.5,0.8-0.9,1.3-1.3c0.4-0.4,0.9-0.7,1.5-1
				c0.5-0.3,1.1-0.4,1.8-0.4c0.8,0,1.8,0.2,3,0.8c1.1,0.5,2.3,1,3.5,1.6c1.2,0.5,2.4,1,3.5,1.4c1.2,0.4,2.4,0.6,3.5,0.6
				c1,0,2-0.2,2.8-0.5c0.8-0.3,1.5-0.7,2.2-1.2c0.6-0.5,1.2-1.1,1.6-1.8c0.5-0.6,0.9-1.3,1.3-2l-2.3-6.8c-0.4,0.5-0.8,1-1.1,1.5
				C61.3,47.2,60.9,47.6,60.5,48z"/>
		</g>
	</g>
	<g>
		<path id="Layer1_0_1_STROKES" style="fill:none;stroke:#FFFFFF;stroke-width:5;stroke-linecap:round;stroke-linejoin:round;" d="
			M84.9,23.1c-0.8,18.2-0.8,36.5,0,54.7c0,3.9-1.9,5.8-5.8,5.8H21.9c-3.9,0-5.9-1.9-5.9-5.8c0.8-18.2,0.8-36.4,0-54.7
			c0-3.9,2-5.9,5.9-5.9h57.2C83,17.3,84.9,19.3,84.9,23.1z"/>
	</g>
</g>
</svg>
