<?xml version="1.0" encoding="utf-8"?>
<!-- Generator: Adobe Illustrator 24.1.2, SVG Export Plug-In . SVG Version: 6.00 Build 0)  -->
<svg version="1.1" id="Layer_1" xmlns="http://www.w3.org/2000/svg" xmlns:xlink="http://www.w3.org/1999/xlink" x="0px" y="0px"
	 viewBox="0 0 100 100" style="enable-background:new 0 0 100 100;" xml:space="preserve">
<g transform="matrix( 1, 0, 0, 1, 0,0) ">
	<g>
		<g id="Layer1_0_FILL">
			<path style="fill:#000000;" d="M50.5,38.4c-1.8,0-3.4,0.4-4.5,1.1c-1.2,0.8-2.1,1.8-2.8,3s-1.2,2.6-1.5,4.2
				c-0.3,1.5-0.4,3-0.4,4.5s0.1,3,0.4,4.5c0.3,1.5,0.8,2.9,1.5,4.1c0.7,1.3,1.6,2.3,2.8,3c1.2,0.8,2.7,1.2,4.5,1.2
				c1.9,0,3.4-0.4,4.5-1.2c1.2-0.8,2.1-1.8,2.8-3c0.7-1.2,1.2-2.6,1.5-4.1c0.3-1.5,0.4-3,0.4-4.5s-0.1-3-0.4-4.5
				c-0.3-1.5-0.8-2.9-1.5-4.2c-0.7-1.2-1.6-2.2-2.8-3C53.9,38.8,52.4,38.4,50.5,38.4 M48.3,44.1c0.5-0.6,1.2-0.8,2.2-0.8
				c0.9,0,1.7,0.3,2.2,0.8c0.5,0.6,0.9,1.3,1.2,2.2c0.3,0.8,0.4,1.7,0.4,2.6c0.1,0.9,0.1,1.7,0.1,2.4c0,0.7,0,1.4-0.1,2.3
				c0,0.9-0.2,1.8-0.4,2.7c-0.3,0.8-0.7,1.5-1.2,2.1c-0.5,0.6-1.3,0.9-2.2,0.9c-1,0-1.7-0.3-2.2-0.9c-0.5-0.6-0.9-1.3-1.2-2.1
				c-0.2-0.9-0.4-1.8-0.4-2.7c-0.1-0.9-0.1-1.7-0.1-2.3c0-0.6,0-1.4,0.1-2.4c0.1-0.9,0.2-1.8,0.4-2.6C47.4,45.4,47.8,44.7,48.3,44.1
				z"/>
		</g>
	</g>
	<g>
		<path id="Layer1_0_1_STROKES" style="fill:none;stroke:#000000;stroke-width:5;stroke-linecap:round;stroke-linejoin:round;" d="
			M84.9,23.1c-0.8,18.2-0.8,36.5,0,54.7c0,3.9-1.9,5.8-5.8,5.8H21.9c-3.9,0-5.9-1.9-5.9-5.8c0.8-18.2,0.8-36.4,0-54.7
			c0-3.9,2-5.9,5.9-5.9h57.2C83,17.3,84.9,19.3,84.9,23.1z"/>
	</g>
</g>
</svg>
