<?xml version="1.0" encoding="utf-8"?>
<!-- Generator: Adobe Illustrator 24.1.2, SVG Export Plug-In . SVG Version: 6.00 Build 0)  -->
<svg version="1.1" id="Layer_1" xmlns="http://www.w3.org/2000/svg" xmlns:xlink="http://www.w3.org/1999/xlink" x="0px" y="0px"
	 viewBox="0 0 100 100" style="enable-background:new 0 0 100 100;" xml:space="preserve">
<g transform="matrix( 1, 0, 0, 1, 0,0) ">
	<g>
		<g id="Layer1_0_FILL">
			<path style="fill:#000000;" d="M41.5,44.3l5.8,1.2c0.2-0.7,0.5-1.2,1-1.6c0.5-0.4,1.2-0.7,2-0.7c0.9,0,1.6,0.2,2.2,0.7
				c0.6,0.5,0.9,1.1,0.9,1.9c0,0.6-0.1,1-0.4,1.4c-0.2,0.4-0.5,0.6-0.9,0.8c-0.4,0.2-0.8,0.3-1.3,0.4s-0.9,0.1-1.4,0.1h-1.8v4.6H49
				c0.6,0,1.2,0,1.8,0c0.6,0,1.1,0.2,1.5,0.3c0.5,0.2,0.9,0.5,1.2,0.9c0.3,0.4,0.4,0.9,0.4,1.6c0,0.9-0.3,1.7-0.8,2.3
				c-0.5,0.6-1.4,0.9-2.5,0.9c-1.1,0-1.9-0.3-2.5-0.8c-0.6-0.5-1-1.2-1.2-2.1l-5.5,1.3c0.5,2.2,1.6,3.9,3.2,4.9s3.5,1.6,5.7,1.6
				c1.2,0,2.4-0.2,3.4-0.5c1.1-0.3,2-0.8,2.9-1.3c0.8-0.6,1.4-1.4,1.9-2.4c0.5-0.9,0.7-2,0.8-3.3c0-0.7-0.1-1.4-0.3-2
				c-0.2-0.7-0.5-1.3-1-1.8c-0.4-0.5-0.9-0.9-1.4-1.3c-0.6-0.4-1.2-0.6-2-0.7v-0.1c1.4-0.3,2.5-0.9,3.2-1.9c0.7-1,1.1-2.2,1.1-3.5
				c0-1.2-0.2-2.2-0.7-3.1c-0.4-0.9-1-1.6-1.8-2.2c-0.8-0.6-1.7-1-2.7-1.3c-1-0.3-2.1-0.4-3.2-0.4c-1,0-2,0.1-3,0.3
				c-0.9,0.2-1.8,0.6-2.5,1s-1.4,1.1-2,1.8S41.8,43.3,41.5,44.3z"/>
		</g>
	</g>
	<g>
		<path id="Layer1_0_1_STROKES" style="fill:none;stroke:#000000;stroke-width:5;stroke-linecap:round;stroke-linejoin:round;" d="
			M84.9,23.1c-0.8,18.2-0.8,36.5,0,54.7c0,3.9-1.9,5.8-5.8,5.8H21.9c-3.9,0-5.9-1.9-5.9-5.8c0.8-18.2,0.8-36.4,0-54.7
			c0-3.9,2-5.9,5.9-5.9h57.2C83,17.3,84.9,19.3,84.9,23.1z"/>
	</g>
</g>
</svg>
