<?xml version="1.0" encoding="utf-8"?>
<!-- Generator: Adobe Illustrator 24.1.2, SVG Export Plug-In . SVG Version: 6.00 Build 0)  -->
<svg version="1.1" id="Layer_1" xmlns="http://www.w3.org/2000/svg" xmlns:xlink="http://www.w3.org/1999/xlink" x="0px" y="0px"
	 viewBox="0 0 100 100" style="enable-background:new 0 0 100 100;" xml:space="preserve">
<g transform="matrix( 1, 0, 0, 1, 0,0) ">
	<g>
		<g id="Layer1_0_FILL">
			<path style="fill:#000000;" d="M50.6,38.4c-1.3,0-2.5,0.2-3.6,0.6c-1.1,0.4-2.1,1-2.9,1.8c-0.8,0.7-1.5,1.6-2,2.7
				c-0.5,1-0.7,2.2-0.7,3.5c0,1.1,0.2,2.2,0.6,3.1c0.4,1,0.9,1.9,1.6,2.6c0.7,0.7,1.5,1.3,2.5,1.7c0.9,0.4,2,0.7,3.1,0.7
				c0.3,0,0.6,0,0.9-0.1c0.3,0,0.5-0.1,0.8-0.2L45,63.6h6.5l5.4-8.5c0.4-0.6,0.8-1.2,1.2-1.8c0.3-0.6,0.6-1.2,1-1.9
				c0.2-0.6,0.4-1.3,0.6-2.1c0.1-0.7,0.2-1.5,0.2-2.4c0-1.3-0.2-2.5-0.7-3.5c-0.5-1-1.1-1.9-1.9-2.7c-0.8-0.8-1.8-1.4-3-1.8
				C53.1,38.6,51.9,38.4,50.6,38.4 M47.7,44.3c0.7-0.7,1.7-1.1,2.9-1.1c1.2,0,2.1,0.4,2.9,1.1c0.7,0.7,1.1,1.7,1.1,2.8
				c0,1.1-0.4,2-1.1,2.8c-0.7,0.7-1.7,1.1-2.9,1.1c-1.2,0-2.2-0.4-2.9-1.1c-0.7-0.7-1.1-1.7-1.1-2.8C46.6,46,47,45.1,47.7,44.3z"/>
		</g>
	</g>
	<g>
		<path id="Layer1_0_1_STROKES" style="fill:none;stroke:#000000;stroke-width:5;stroke-linecap:round;stroke-linejoin:round;" d="
			M84.9,23.1c-0.8,18.2-0.8,36.5,0,54.7c0,3.9-1.9,5.8-5.8,5.8H21.9c-3.9,0-5.9-1.9-5.9-5.8c0.8-18.2,0.8-36.4,0-54.7
			c0-3.9,2-5.9,5.9-5.9h57.2C83,17.3,84.9,19.3,84.9,23.1z"/>
	</g>
</g>
</svg>
