<?xml version="1.0" encoding="utf-8"?>
<!-- Generator: Adobe Illustrator 24.1.2, SVG Export Plug-In . SVG Version: 6.00 Build 0)  -->
<svg version="1.1" id="Layer_1" xmlns="http://www.w3.org/2000/svg" xmlns:xlink="http://www.w3.org/1999/xlink" x="0px" y="0px"
	 viewBox="0 0 100 100" style="enable-background:new 0 0 100 100;" xml:space="preserve">
<g transform="matrix( 1, 0, 0, 1, 0,0) ">
	<g>
		<g id="Layer1_0_FILL">
			<path style="fill:#000000;" d="M56.5,40.3h-3.8v18.9h3.8V40.3 M64.2,43.4h-3.7V47H58v3h2.4v5.8c0,0.7,0.1,1.2,0.3,1.7
				c0.2,0.5,0.5,0.8,0.9,1.1c0.4,0.3,0.9,0.5,1.4,0.7c0.5,0.1,1.1,0.2,1.8,0.2c0.5,0,0.9,0,1.3,0c0.4-0.1,0.9-0.2,1.3-0.3V56
				c-0.2,0.2-0.4,0.3-0.8,0.3s-0.6,0-0.8,0c-0.4,0-0.7,0-0.9-0.1c-0.2-0.1-0.4-0.3-0.5-0.5c-0.1-0.2-0.2-0.5-0.3-0.8
				c0-0.3-0.1-0.6-0.1-0.9v-4h3.3v-3h-3.3V43.4 M43.7,41.5h-3.2l-7.7,17.7h4.3l1.5-3.8h6.9l1.5,3.8h4.4L43.7,41.5 M42,46.6l2.2,5.5
				h-4.4L42,46.6z"/>
		</g>
	</g>
	<g>
		<path id="Layer1_0_2_STROKES" style="fill:none;stroke:#000000;stroke-width:5;stroke-linecap:round;stroke-linejoin:round;" d="
			M87.9,22.1c3.3,0,5,1.7,5,5c-0.7,15.6-0.7,31.2,0,46.7c0,3.3-1.7,5-5,5H13.1c-3.3,0-5-1.7-5-5c0.7-15.5,0.7-31.1,0-46.7
			c0-3.3,1.7-5,5-5H87.9z"/>
	</g>
</g>
</svg>
