<?xml version="1.0" encoding="utf-8"?>
<!-- Generator: Adobe Illustrator 24.1.2, SVG Export Plug-In . SVG Version: 6.00 Build 0)  -->
<svg version="1.1" id="Layer_1" xmlns="http://www.w3.org/2000/svg" xmlns:xlink="http://www.w3.org/1999/xlink" x="0px" y="0px"
	 viewBox="0 0 100 100" style="enable-background:new 0 0 100 100;" xml:space="preserve">
<g transform="matrix( 1, 0, 0, 1, 0,0) ">
	<g>
		<g id="Layer1_0_FILL">
			<path style="fill:#000000;" d="M47.4,58.8c-0.7,0-1.4,0.1-2.1,0.4c-0.7,0.2-1.2,0.6-1.7,1c-0.5,0.4-0.9,1-1.1,1.6
				C42.1,62.5,42,63.2,42,64s0.1,1.5,0.5,2.1c0.3,0.6,0.6,1.2,1.1,1.6c0.5,0.4,1,0.8,1.7,1c0.7,0.2,1.4,0.4,2.1,0.4
				c0.6,0,1.2-0.1,1.8-0.3c0.6-0.2,1.2-0.5,1.6-1l-1.9-2.1c-0.2,0.2-0.4,0.4-0.7,0.5c-0.2,0.1-0.5,0.2-0.8,0.2
				c-0.8,0-1.4-0.2-1.8-0.7c-0.4-0.4-0.7-1-0.7-1.7c0-0.7,0.2-1.3,0.7-1.8c0.4-0.4,1-0.7,1.8-0.7c0.3,0,0.6,0.1,0.8,0.2
				c0.3,0.1,0.5,0.3,0.7,0.5l1.9-2c-0.5-0.5-1-0.8-1.6-1C48.6,59,48,58.8,47.4,58.8 M55,60.7L55,60.7l0-1.6h-3v9.7h3v-4.1
				c0-0.5,0-1,0.1-1.3c0-0.4,0.2-0.7,0.4-1c0.2-0.3,0.4-0.5,0.8-0.7c0.3-0.1,0.8-0.2,1.3-0.2c0.2,0,0.5,0,0.7,0
				c0.2,0,0.4,0.1,0.6,0.2V59c-0.1,0-0.3-0.1-0.5-0.1c-0.2,0-0.3,0-0.5,0c-0.7,0-1.2,0.2-1.6,0.5C55.7,59.6,55.3,60,55,60.7
				 M63.4,60.4L63.4,60.4l-0.1-1.3h-2.9v9.7h3V64c0-0.3,0-0.6,0-0.9c0.1-0.3,0.2-0.6,0.3-0.8c0.1-0.2,0.3-0.4,0.5-0.5
				c0.3-0.1,0.6-0.2,0.9-0.2c0.4,0,0.7,0.1,0.9,0.2c0.2,0.2,0.3,0.4,0.4,0.6c0.1,0.2,0.2,0.5,0.2,0.8c0,0.3,0,0.6,0,0.9v4.8h3v-5.4
				c0-0.7,0-1.3-0.1-1.9c-0.1-0.5-0.3-1-0.5-1.4c-0.3-0.4-0.6-0.7-1.1-1c-0.5-0.2-1.1-0.4-1.8-0.4c-0.4,0-0.7,0-1.1,0.2
				c-0.3,0.1-0.6,0.2-0.8,0.3c-0.2,0.1-0.4,0.3-0.6,0.5C63.6,60,63.5,60.2,63.4,60.4 M38.3,54.6c-0.7-0.2-1.5-0.3-2.3-0.3
				c-0.7,0-1.4,0.1-2,0.3c-0.6,0.2-1.2,0.5-1.7,0.9c-0.5,0.4-0.9,0.8-1.2,1.5c-0.3,0.6-0.4,1.2-0.4,2c0,0.8,0.2,1.4,0.5,1.9
				c0.3,0.5,0.7,0.8,1.2,1.2c0.5,0.3,1,0.5,1.6,0.7c0.6,0.2,1.1,0.3,1.6,0.5c0.5,0.2,0.9,0.4,1.3,0.6c0.3,0.2,0.5,0.6,0.5,1
				c0,0.3-0.1,0.5-0.2,0.6c-0.1,0.2-0.3,0.3-0.5,0.5c-0.2,0.1-0.4,0.2-0.7,0.3c-0.3,0.1-0.5,0.1-0.8,0.1c-0.5,0-1-0.1-1.5-0.4
				c-0.5-0.2-0.9-0.6-1.2-1l-2.2,2.5c0.7,0.6,1.4,1.1,2.2,1.3c0.8,0.3,1.6,0.4,2.6,0.4c0.7,0,1.4-0.1,2.1-0.3
				c0.7-0.2,1.2-0.5,1.7-0.9c0.5-0.4,0.9-0.8,1.2-1.4c0.3-0.6,0.4-1.3,0.4-2.1c0-0.8-0.1-1.5-0.4-2c-0.3-0.5-0.8-0.9-1.3-1.2
				c-0.5-0.3-1-0.5-1.6-0.7c-0.6-0.2-1.1-0.3-1.6-0.5c-0.5-0.2-0.9-0.4-1.2-0.6c-0.3-0.2-0.5-0.6-0.5-1c0-0.3,0.1-0.5,0.2-0.6
				c0.1-0.2,0.3-0.3,0.5-0.5c0.2-0.1,0.5-0.2,0.7-0.3c0.2-0.1,0.5-0.1,0.7-0.1c0.4,0,0.8,0.1,1.2,0.3c0.4,0.1,0.8,0.4,1,0.7l2.1-2.3
				C39.8,55.2,39.1,54.8,38.3,54.6 M41.5,41.2c0.3-0.6,0.4-1.3,0.4-2.1s-0.1-1.5-0.4-2.1s-0.7-1-1.2-1.3c-0.5-0.3-1.1-0.6-1.7-0.7
				c-0.7-0.1-1.4-0.2-2.1-0.2h-5.3V49h3.1v-5.5h2.3c0.7,0,1.4-0.1,2.1-0.3c0.7-0.1,1.2-0.4,1.7-0.7C40.8,42.2,41.2,41.7,41.5,41.2
				 M38.6,39.1c0,0.3-0.1,0.6-0.2,0.9c-0.1,0.2-0.3,0.4-0.5,0.5c-0.2,0.1-0.4,0.2-0.7,0.3c-0.3,0.1-0.5,0.1-0.8,0.1h-2.1v-3.3h1.6
				c0.3,0,0.6,0,0.9,0c0.3,0,0.6,0.1,0.9,0.2c0.3,0.1,0.5,0.3,0.6,0.5C38.5,38.4,38.6,38.7,38.6,39.1 M49.8,39c-0.2,0-0.3,0-0.5,0
				c-0.7,0-1.2,0.1-1.7,0.5c-0.4,0.3-0.8,0.8-1.1,1.3h0v-1.5h-3V49h3v-4c0-0.5,0-1,0.1-1.4c0-0.4,0.1-0.7,0.3-1
				c0.2-0.3,0.4-0.5,0.8-0.7c0.3-0.1,0.8-0.2,1.4-0.2c0.2,0,0.5,0,0.7,0c0.2,0,0.4,0.1,0.6,0.2v-2.8C50.1,39.1,50,39,49.8,39
				 M55.5,36.3h-3v2.9h-2v2.4h2v4.6c0,0.5,0.1,1,0.3,1.3c0.2,0.4,0.5,0.7,0.8,0.9c0.3,0.2,0.7,0.4,1.2,0.5c0.4,0.1,0.9,0.2,1.4,0.2
				c0.3,0,0.7,0,1.1,0s0.7-0.1,1-0.3v-2.5c-0.1,0.1-0.3,0.2-0.6,0.3c-0.3,0-0.5,0-0.6,0c-0.3,0-0.6,0-0.8-0.1
				c-0.2-0.1-0.3-0.2-0.5-0.3c-0.1-0.2-0.2-0.4-0.2-0.6c0-0.2,0-0.4,0-0.7v-3.3h2.7v-2.4h-2.7V36.3z"/>
		</g>
	</g>
	<g>
		<path id="Layer1_0_1_STROKES" style="fill:none;stroke:#000000;stroke-width:5;stroke-linecap:round;stroke-linejoin:round;" d="
			M84.9,23.1c-0.8,18.2-0.8,36.5,0,54.7c0,3.9-1.9,5.8-5.8,5.8H21.9c-3.9,0-5.9-1.9-5.9-5.8c0.8-18.2,0.8-36.4,0-54.7
			c0-3.9,2-5.9,5.9-5.9h57.2C83,17.3,84.9,19.3,84.9,23.1z"/>
	</g>
</g>
</svg>
