<?xml version="1.0" encoding="utf-8"?>
<!-- Generator: Adobe Illustrator 24.1.2, SVG Export Plug-In . SVG Version: 6.00 Build 0)  -->
<svg version="1.1" id="Layer_1" xmlns="http://www.w3.org/2000/svg" xmlns:xlink="http://www.w3.org/1999/xlink" x="0px" y="0px"
	 viewBox="0 0 100 100" style="enable-background:new 0 0 100 100;" xml:space="preserve">
<g transform="matrix( 1, 0, 0, 1, 0,0) ">
	<g>
		<g id="Layer1_0_FILL">
			<path style="fill:#000000;" d="M67.1,44.7h-3v9.7h3V44.7 M70.7,41.4c-0.1,0.5-0.1,1-0.1,1.5v1.8h-2V47h2v7.3h3V47h2.2v-2.4h-2.2
				v-1.6c0-0.6,0.1-1.1,0.3-1.3c0.2-0.2,0.6-0.3,1.1-0.3c0.2,0,0.3,0,0.5,0c0.1,0,0.3,0.1,0.4,0.2l0.2-2.5c-0.3-0.1-0.6-0.1-0.8-0.1
				c-0.3,0-0.6,0-0.9,0c-0.8,0-1.4,0.1-1.9,0.3c-0.5,0.2-0.9,0.5-1.2,0.9C71,40.5,70.8,40.9,70.7,41.4 M66.8,42.8
				c0.3-0.3,0.5-0.8,0.5-1.3c0-0.5-0.2-0.9-0.5-1.2c-0.4-0.3-0.8-0.5-1.3-0.5s-0.9,0.2-1.3,0.5c-0.3,0.3-0.5,0.7-0.5,1.2
				c0,0.5,0.2,0.9,0.5,1.3c0.4,0.3,0.8,0.5,1.3,0.5S66.4,43.1,66.8,42.8 M55.2,39.3h-3v15.1h3v-4.8c0-0.3,0-0.6,0-0.9
				c0.1-0.3,0.2-0.6,0.3-0.8c0.1-0.2,0.3-0.4,0.5-0.5c0.3-0.1,0.6-0.2,1-0.2c0.4,0,0.7,0.1,0.9,0.2c0.2,0.2,0.3,0.4,0.4,0.7
				c0.1,0.2,0.2,0.5,0.2,0.8c0,0.3,0,0.6,0,0.9v4.8h3V49c0-0.7,0-1.3-0.1-1.8c-0.1-0.5-0.3-1-0.5-1.5c-0.3-0.4-0.6-0.7-1.1-1
				s-1.1-0.3-1.8-0.3c-0.3,0-0.7,0-1,0.1c-0.3,0.1-0.6,0.2-0.8,0.4c-0.2,0.1-0.4,0.3-0.6,0.5c-0.2,0.2-0.3,0.3-0.3,0.5h0V39.3
				 M50,41.3c-0.6-0.5-1.3-0.9-2-1.1c-0.7-0.2-1.5-0.3-2.3-0.3c-0.7,0-1.4,0.1-2,0.3c-0.6,0.2-1.2,0.5-1.7,0.9
				c-0.5,0.4-0.9,0.9-1.2,1.5c-0.3,0.6-0.5,1.2-0.5,2c0,0.8,0.2,1.4,0.5,1.9c0.3,0.5,0.7,0.9,1.2,1.2c0.5,0.3,1,0.5,1.6,0.7
				c0.6,0.2,1.1,0.3,1.6,0.5c0.5,0.2,0.9,0.4,1.3,0.6c0.3,0.2,0.5,0.6,0.5,1c0,0.3-0.1,0.5-0.2,0.7c-0.1,0.2-0.3,0.4-0.5,0.5
				c-0.2,0.1-0.4,0.2-0.7,0.3c-0.3,0.1-0.5,0.1-0.8,0.1c-0.5,0-1-0.1-1.5-0.3c-0.5-0.2-0.9-0.6-1.2-1L39.8,53c0.7,0.6,1.4,1,2.2,1.3
				c0.8,0.3,1.6,0.4,2.5,0.4c0.7,0,1.4-0.1,2.1-0.3c0.7-0.2,1.2-0.5,1.7-0.9c0.5-0.4,0.9-0.8,1.2-1.5c0.3-0.6,0.5-1.2,0.5-2
				c0-0.8-0.2-1.5-0.5-2c-0.3-0.5-0.8-0.8-1.3-1.1c-0.5-0.3-1-0.5-1.5-0.7c-0.6-0.2-1.1-0.3-1.6-0.5c-0.5-0.2-0.9-0.4-1.2-0.6
				c-0.3-0.2-0.5-0.6-0.5-1c0-0.3,0.1-0.5,0.2-0.7c0.1-0.2,0.3-0.4,0.5-0.5c0.2-0.1,0.5-0.2,0.7-0.3c0.2-0.1,0.5-0.1,0.7-0.1
				c0.4,0,0.8,0.1,1.2,0.3c0.4,0.1,0.8,0.4,1,0.7L50,41.3 M81.2,44.7v-2.9h-3v2.9h-1.9V47h1.9v4.6c0,0.5,0.1,1,0.3,1.3
				c0.2,0.4,0.5,0.7,0.8,0.9c0.3,0.2,0.7,0.4,1.2,0.5c0.4,0.1,0.9,0.1,1.4,0.1c0.3,0,0.7,0,1.1,0c0.4,0,0.7-0.1,1-0.3v-2.5
				c-0.1,0.1-0.3,0.2-0.6,0.3c-0.3,0-0.5,0-0.7,0c-0.3,0-0.6,0-0.8-0.1c-0.2-0.1-0.3-0.2-0.4-0.4c-0.1-0.2-0.2-0.4-0.2-0.6
				c0-0.2-0.1-0.4-0.1-0.7V47h2.7v-2.4H81.2z"/>
		</g>
	</g>
	<g>
		<path id="Layer1_0_2_STROKES" style="fill:none;stroke:#000000;stroke-width:5;stroke-linecap:round;stroke-linejoin:round;" d="
			M91.6,28.9c2.5,0,3.8,1.3,3.8,3.8c-0.6,11.8-0.6,23.7,0,35.5c0,2.5-1.3,3.8-3.8,3.8H9.4c-2.5,0-3.8-1.3-3.8-3.8
			c0.5-11.8,0.5-23.6,0-35.5c0-2.5,1.3-3.8,3.8-3.8H91.6z"/>
	</g>
</g>
</svg>
