<?xml version="1.0" encoding="utf-8"?>
<!-- Generator: Adobe Illustrator 24.1.2, SVG Export Plug-In . SVG Version: 6.00 Build 0)  -->
<svg version="1.1" id="Layer_1" xmlns="http://www.w3.org/2000/svg" xmlns:xlink="http://www.w3.org/1999/xlink" x="0px" y="0px"
	 viewBox="0 0 100 100" style="enable-background:new 0 0 100 100;" xml:space="preserve">
<g transform="matrix( 1, 0, 0, 1, 0,0) ">
	<g>
		<g id="Layer1_0_FILL">
			<path style="fill:#000000;" d="M48,44.6c0.2-0.3,0.5-0.6,0.9-0.8c0.4-0.2,0.8-0.3,1.2-0.5c0.4-0.1,0.8-0.1,1.2-0.1
				c0.7,0,1.4,0.1,2.2,0.4c0.8,0.3,1.4,0.7,1.8,1.2l3.8-4c-1.1-0.9-2.3-1.6-3.5-2c-1.3-0.4-2.7-0.6-4.1-0.6c-1.2,0-2.4,0.2-3.5,0.5
				c-1.2,0.3-2.2,0.8-3,1.5c-0.9,0.7-1.6,1.5-2.1,2.5s-0.8,2.2-0.8,3.5c0,1.4,0.3,2.5,0.8,3.3c0.6,0.8,1.3,1.5,2.2,2
				c0.9,0.5,1.8,0.9,2.8,1.2c1,0.3,1.9,0.6,2.8,0.9c0.9,0.3,1.6,0.7,2.2,1.1c0.6,0.4,0.8,1,0.8,1.8c0,0.4-0.1,0.8-0.3,1.2
				c-0.2,0.3-0.5,0.6-0.9,0.8C52,58.8,51.6,59,51.2,59c-0.5,0.1-0.9,0.2-1.4,0.2c-0.9,0-1.8-0.2-2.6-0.6c-0.9-0.4-1.6-1-2.2-1.8
				l-3.8,4.3c1.2,1.1,2.5,1.9,3.8,2.4c1.4,0.5,2.9,0.8,4.5,0.8c1.3,0,2.5-0.2,3.6-0.5c1.2-0.3,2.2-0.8,3.1-1.5
				c0.9-0.7,1.6-1.5,2.1-2.5c0.5-1,0.8-2.2,0.8-3.6c0-1.5-0.3-2.6-0.8-3.5c-0.5-0.9-1.2-1.5-2.1-2c-0.9-0.5-1.8-0.9-2.8-1.2
				c-1-0.3-1.9-0.5-2.8-0.8c-0.9-0.3-1.6-0.6-2.1-1c-0.6-0.4-0.9-1-0.9-1.7C47.6,45.3,47.7,44.9,48,44.6z"/>
		</g>
	</g>
	<g>
		<path id="Layer1_0_1_STROKES" style="fill:none;stroke:#000000;stroke-width:5;stroke-linecap:round;stroke-linejoin:round;" d="
			M84.9,23.1c-0.8,18.2-0.8,36.5,0,54.7c0,3.9-1.9,5.8-5.8,5.8H21.9c-3.9,0-5.9-1.9-5.9-5.8c0.8-18.2,0.8-36.4,0-54.7
			c0-3.9,2-5.9,5.9-5.9h57.2C83,17.3,84.9,19.3,84.9,23.1z"/>
	</g>
</g>
</svg>
