<?xml version="1.0" encoding="utf-8"?>
<!-- Generator: Adobe Illustrator 24.1.2, SVG Export Plug-In . SVG Version: 6.00 Build 0)  -->
<svg version="1.1" id="Layer_1" xmlns="http://www.w3.org/2000/svg" xmlns:xlink="http://www.w3.org/1999/xlink" x="0px" y="0px"
	 viewBox="0 0 100 100" style="enable-background:new 0 0 100 100;" xml:space="preserve">
<g transform="matrix( 1, 0, 0, 1, 0,0) ">
	<g>
		<g id="Layer1_0_FILL">
			<path style="fill:#000000;" d="M60.9,38.8h-5.5v15c0,0.8-0.1,1.5-0.4,2.2c-0.2,0.6-0.6,1.2-1,1.7c-0.4,0.5-0.9,0.9-1.5,1.1
				c-0.6,0.3-1.3,0.4-2,0.4s-1.4-0.1-2-0.4c-0.6-0.3-1.1-0.6-1.5-1.1c-0.5-0.5-0.8-1-1.1-1.7c-0.2-0.7-0.3-1.4-0.3-2.2v-15H40V54
				c0,1.5,0.2,2.8,0.7,4c0.4,1.2,1.1,2.3,2,3.3c0.9,0.9,1.9,1.6,3.3,2.1c1.3,0.5,2.8,0.8,4.5,0.8c1.7,0,3.2-0.3,4.5-0.8
				c1.3-0.5,2.4-1.2,3.3-2.1c0.9-0.9,1.6-2,2-3.3c0.4-1.2,0.7-2.6,0.7-4V38.8z"/>
		</g>
	</g>
	<g>
		<path id="Layer1_0_1_STROKES" style="fill:none;stroke:#000000;stroke-width:5;stroke-linecap:round;stroke-linejoin:round;" d="
			M84.9,23.1c-0.8,18.2-0.8,36.5,0,54.7c0,3.9-1.9,5.8-5.8,5.8H21.9c-3.9,0-5.9-1.9-5.9-5.8c0.8-18.2,0.8-36.4,0-54.7
			c0-3.9,2-5.9,5.9-5.9h57.2C83,17.3,84.9,19.3,84.9,23.1z"/>
	</g>
</g>
</svg>
