<?xml version="1.0" encoding="utf-8"?>
<!-- Generator: Adobe Illustrator 24.1.2, SVG Export Plug-In . SVG Version: 6.00 Build 0)  -->
<svg version="1.1" id="Layer_1" xmlns="http://www.w3.org/2000/svg" xmlns:xlink="http://www.w3.org/1999/xlink" x="0px" y="0px"
	 viewBox="0 0 100 100" style="enable-background:new 0 0 100 100;" xml:space="preserve">
<g transform="matrix( 1, 0, 0, 1, 0,0) ">
	<g>
		<g id="Layer1_0_FILL">
			<path style="fill:#000000;" d="M66,50.8c-0.9,0.7-1.7,1.3-2.6,1.9c-1,0.4-2,0.6-3,0.8c-1.4,0.1-2.8,0-4.2-0.3
				c-1.4-0.4-2.9-0.9-4.4-1.7v12.5c1.4,0.8,2.9,1.3,4.4,1.7c1.4,0.3,2.8,0.3,4.2,0.3c1-0.2,2-0.5,3-0.9c0.9-0.6,1.7-1.2,2.6-1.9
				V50.8 M60.4,38.1c-1.4,0.1-2.8,0-4.2-0.3c-1.4-0.4-2.9-0.9-4.4-1.6v12.5c1.4,0.8,2.9,1.3,4.4,1.8c1.4,0.3,2.8,0.3,4.2,0.3
				c1-0.2,2-0.5,3-0.9c0.9-0.6,1.7-1.2,2.6-1.9V35.3c-0.9,0.7-1.7,1.3-2.6,1.9C62.4,37.6,61.4,37.9,60.4,38.1 M43.3,48.5
				c-0.8-0.1-1.7,0-2.5,0c-0.8,0.2-1.5,0.5-2.3,0.8c-0.9,0.5-1.8,1.1-2.7,1.8v12.5c0.9-0.7,1.8-1.3,2.7-1.8c0.8-0.3,1.6-0.5,2.3-0.7
				c0.8-0.1,1.7-0.1,2.5,0c2.2,0.3,4.4,1.1,6.5,2.3V51C47.7,49.6,45.5,48.8,43.3,48.5 M43.3,33c-0.8-0.1-1.7,0-2.5,0
				c-0.8,0.2-1.5,0.5-2.3,0.8c-0.9,0.5-1.8,1.1-2.7,1.8v12.5c0.9-0.7,1.8-1.2,2.7-1.7c0.8-0.3,1.6-0.5,2.3-0.7
				c0.8-0.1,1.7-0.1,2.5,0c2.2,0.3,4.4,1.1,6.5,2.3V35.5C47.7,34.2,45.5,33.4,43.3,33z"/>
		</g>
	</g>
	<g>
		<path id="Layer1_0_1_STROKES" style="fill:none;stroke:#000000;stroke-width:5;stroke-linecap:round;stroke-linejoin:round;" d="
			M84.9,23.1c-0.8,18.2-0.8,36.5,0,54.7c0,3.9-1.9,5.8-5.8,5.8H21.9c-3.9,0-5.9-1.9-5.9-5.8c0.8-18.2,0.8-36.4,0-54.7
			c0-3.9,2-5.9,5.9-5.9h57.2C83,17.3,84.9,19.3,84.9,23.1z"/>
	</g>
</g>
</svg>
