<?xml version="1.0" encoding="utf-8"?>
<!-- Generator: Adobe Illustrator 24.1.2, SVG Export Plug-In . SVG Version: 6.00 Build 0)  -->
<svg version="1.1" id="Layer_1" xmlns="http://www.w3.org/2000/svg" xmlns:xlink="http://www.w3.org/1999/xlink" x="0px" y="0px"
	 viewBox="0 0 100 100" style="enable-background:new 0 0 100 100;" xml:space="preserve">
<g transform="matrix( 1, 0, 0, 1, 0,0) ">
	<g>
		<g id="Layer1_0_FILL">
			<path style="fill:#000000;" d="M49.8,32.7L49.8,32.7l2.2,7h2l2.9-10.1h-2.2L53,36.2l0,0l-2.1-6.6h-2.1l-2.1,6.5l0,0l-1.6-6.5
				h-2.4l3,10.1h1.9L49.8,32.7z"/>
		</g>
	</g>
	<g>
		<path id="Layer1_0_1_STROKES" style="fill:none;stroke:#000000;stroke-width:5;stroke-linecap:round;stroke-linejoin:round;" d="
			M63.8,23.2c-0.3,7.4-0.3,14.8,0,22.2c0,1.6-0.8,2.4-2.4,2.4H38.2c-1.6,0-2.4-0.8-2.4-2.4c0.3-7.4,0.3-14.8,0-22.2
			c0-1.6,0.8-2.4,2.4-2.4h23.2C63,20.9,63.8,21.7,63.8,23.2z"/>
	</g>
</g>
<g transform="matrix( 1, 0, 0, 1, 0,0) ">
	<g>
		<g id="Layer1_0_FILL_1_">
			<path style="fill:#000000;" d="M49,63.6c0.1-0.1,0.2-0.2,0.4-0.3c0.1-0.1,0.3-0.1,0.5-0.2c0.2,0,0.3,0,0.5,0
				c0.3,0,0.6,0.1,0.9,0.2c0.3,0.1,0.6,0.3,0.8,0.5l1.5-1.6c-0.4-0.4-0.9-0.7-1.4-0.8c-0.5-0.2-1.1-0.2-1.7-0.2
				c-0.5,0-1,0.1-1.4,0.2c-0.5,0.1-0.9,0.3-1.2,0.6c-0.4,0.3-0.6,0.6-0.9,1c-0.2,0.4-0.3,0.9-0.3,1.4c0,0.6,0.1,1,0.3,1.3
				s0.5,0.6,0.9,0.8c0.4,0.2,0.7,0.4,1.1,0.5c0.4,0.1,0.8,0.3,1.1,0.4c0.4,0.1,0.6,0.3,0.9,0.5s0.3,0.4,0.3,0.7c0,0.2,0,0.3-0.1,0.5
				c-0.1,0.1-0.2,0.2-0.4,0.3c-0.1,0.1-0.3,0.2-0.5,0.2s-0.4,0.1-0.5,0.1c-0.4,0-0.7-0.1-1.1-0.2c-0.4-0.2-0.6-0.4-0.9-0.7l-1.6,1.7
				c0.5,0.4,1,0.8,1.6,1s1.2,0.3,1.8,0.3c0.5,0,1-0.1,1.5-0.2s0.9-0.3,1.2-0.6c0.4-0.3,0.6-0.6,0.9-1c0.2-0.4,0.3-0.9,0.3-1.5
				s-0.1-1.1-0.3-1.4c-0.2-0.4-0.5-0.6-0.9-0.8c-0.4-0.2-0.7-0.4-1.1-0.5c-0.4-0.1-0.8-0.2-1.1-0.3c-0.4-0.1-0.6-0.2-0.9-0.4
				c-0.2-0.2-0.3-0.4-0.3-0.7C48.8,63.9,48.9,63.7,49,63.6z"/>
		</g>
	</g>
	<g>
		
			<path id="Layer1_0_1_STROKES_1_" style="fill:none;stroke:#000000;stroke-width:5;stroke-linecap:round;stroke-linejoin:round;" d="
			M64,54.9c-0.3,7.4-0.3,14.8,0,22.2c0,1.6-0.8,2.4-2.4,2.4H38.4c-1.6,0-2.4-0.8-2.4-2.4c0.3-7.4,0.3-14.8,0-22.2
			c0-1.6,0.8-2.4,2.4-2.4h23.2C63.2,52.5,64,53.3,64,54.9z"/>
	</g>
</g>
<g transform="matrix( 1, 0, 0, 1, 0,0) ">
	<g>
		<g id="Layer1_0_FILL_2_">
			<path style="fill:#000000;" d="M17.9,61.3h-1.8l-4.4,10.1h2.5l0.8-2.1h3.9l0.9,2.1h2.5L17.9,61.3 M18.2,67.3h-2.5l1.2-3.1
				L18.2,67.3z"/>
		</g>
	</g>
	<g>
		
			<path id="Layer1_0_1_STROKES_2_" style="fill:none;stroke:#000000;stroke-width:5;stroke-linecap:round;stroke-linejoin:round;" d="
			M31,54.9c-0.3,7.4-0.3,14.8,0,22.2c0,1.6-0.8,2.4-2.4,2.4H5.4c-1.6,0-2.4-0.8-2.4-2.4c0.3-7.4,0.3-14.8,0-22.2
			c0-1.6,0.8-2.4,2.4-2.4h23.2C30.2,52.5,31,53.3,31,54.9z"/>
	</g>
</g>
<g transform="matrix( 1, 0, 0, 1, 0,0) ">
	<g>
		<g id="Layer1_0_FILL_3_">
			<path style="fill:#000000;" d="M84.2,61.5c-0.7-0.2-1.5-0.3-2.3-0.3h-3.3v10.1h3.6c0.7,0,1.5-0.1,2.2-0.3c0.7-0.2,1.3-0.5,1.8-1
				c0.5-0.4,0.9-0.9,1.3-1.6c0.3-0.6,0.4-1.3,0.4-2.2c0-0.9-0.2-1.7-0.5-2.4c-0.3-0.6-0.8-1.2-1.3-1.6C85.6,62,85,61.7,84.2,61.5
				 M84.6,64c0.3,0.2,0.5,0.5,0.7,0.9s0.3,0.8,0.3,1.3c0,0.6-0.1,1-0.3,1.4c-0.2,0.4-0.4,0.7-0.8,1c-0.3,0.2-0.7,0.4-1.2,0.5
				c-0.4,0.1-0.9,0.2-1.4,0.2h-1.1v-6h1.3c0.5,0,0.9,0.1,1.3,0.2S84.3,63.8,84.6,64z"/>
		</g>
	</g>
	<g>
		
			<path id="Layer1_0_1_STROKES_3_" style="fill:none;stroke:#000000;stroke-width:5;stroke-linecap:round;stroke-linejoin:round;" d="
			M97,54.9c-0.3,7.4-0.3,14.8,0,22.2c0,1.6-0.8,2.4-2.4,2.4H71.4c-1.6,0-2.4-0.8-2.4-2.4c0.3-7.4,0.3-14.8,0-22.2
			c0-1.6,0.8-2.4,2.4-2.4h23.2C96.2,52.5,97,53.3,97,54.9z"/>
	</g>
</g>
</svg>
