
<svg xmlns="http://www.w3.org/2000/svg" version="1.1" xmlns:xlink="http://www.w3.org/1999/xlink" x="0px" y="0px" viewBox="0 0 100 100">
<defs>
<g id="Layer1_0_FILL">
<path fill="#FFFFFF" stroke="none" d="
M -169.7 -78.7
Q -167.15 -80.65 -164.65 -81.9 -161.5 -83.45 -157.85 -84.9 -157.35 -85.1 -156.85 -85.3 -152.05 -87.1 -146.4 -88.7 -139.35 -90.6 -131.7 -91.6 -125.35 -92.4 -115.75 -92.85 -97.6 -93.7 -95.2 -93.9 -86.25 -94.6 -84.05 -96.2 -82.5 -97.15 -80.65 -107.75 -82.35 -103.05 -82.6 -102.55
L -82.55 -102.6
Q -84.2 -99.7 -85.7 -98.7 -87.65 -97.5 -95.45 -96.9 -97.8 -96.7 -115.9 -95.85 -125.65 -95.4 -132.05 -94.6 -139.95 -93.6 -147.2 -91.6 -152.95 -90 -157.85 -88.1
L -157.9 -88.1
Q -162.25 -86.45 -166 -84.6
L -166 -84.55
Q -168.9 -83.1 -171.35 -80.9 -172.5 -79.9 -173.55 -78.7 -176.75 -75.1 -179.1 -69.95
L -179.65 -68.65
Q -175.5 -73.85 -171.35 -77.35 -170.5 -78.05 -169.7 -78.7
M -93.05 23.75
Q -94.85 17 -100.55 11.7 -108.5 4.4 -119.6 4.1
L -120.35 4.05
Q -120.45 4.05 -120.55 4.05 -120.6 4.05 -120.7 4.05 -121.35 4.05 -122 4.1 -123.2 4.1 -124.35 4.25 -133.75 5.3 -140.7 11.7 -146.4 17 -148.2 23.75 -148.75 25.95 -148.9 28.25 -148.95 29.3 -148.9 30.35 -148.8 32.25 -148.5 34.05 -148.05 36.05 -147.3 37.9 -146.4 39.7 -145.2 41.45 -145.95 39.7 -146.5 37.9 -146.9 36 -147.1 34.05 -147.25 31.25 -147 28.25 -146.95 28.1 -146.95 27.95 -146.7 25.85 -145.95 23.75 -143.9 18.7 -138.65 13.9 -132.55 8.3 -124.35 7.3 -123.2 7.1 -122 7.1 -121.7 7.05 -121.4 7.05
L -120.55 7.05
Q -120.4 7.05 -120.2 7.05
L -119.95 7.05
Q -119.6 7.05 -119.25 7.1 -109.6 7.5 -102.6 13.9 -97.35 18.7 -95.3 23.75 -94.55 25.85 -94.3 27.95 -94.3 28.1 -94.25 28.25 -94 31.25 -94.15 34.05 -94.35 36 -94.75 37.9 -95.3 39.7 -96.05 41.45 -94.85 39.7 -93.95 37.9 -93.2 36.05 -92.75 34.05 -92.45 32.25 -92.35 30.35 -92.3 29.3 -92.35 28.25 -92.5 25.95 -93.05 23.75
M 2.45 113.9
Q 3.05 114.35 3.2 115.2
L 3.2 115.25
Q 4.3 118.8 4.9 124.25 5.25 117.95 4.75 114.6 4.6 113.35 3.7 112.55 3.5 112.45 3.4 112.3 2.4 111.6 1.15 111.5
L -20.4 110.3
Q -20.45 110.3 -20.5 110.3 -20.65 110.25 -20.8 110.2 -20.85 110.2 -20.9 110.2 -22.75 109.85 -24 108.35 -24.05 108.3 -24.05 108.25 -25.55 106.6 -25.8 104.45
L -25.8 104.4
Q -25.85 104.15 -25.85 103.85
L -25.85 89.4
Q -25.85 88 -26.6 86.85
L -26.65 86.8
Q -27.5 85.7 -28.7 85.25
L -28.75 85.2 -28.8 85.2
Q -29 85.15 -29.2 85.1 -33.4 83.65 -37.9 83.55 -43.55 83.35 -49.05 85.3 -50.35 85.75 -51.1 86.85 -51.9 88 -51.9 89.4
L -51.9 103.95
Q -51.9 104.2 -51.9 104.35 -51.95 104.4 -51.95 104.45 -52.2 106.6 -53.7 108.3
L -53.75 108.3
Q -53.8 108.3 -53.8 108.35
L -53.75 108.35
Q -55 109.85 -56.8 110.2
L -56.8 110.15
Q -56.85 110.15 -56.9 110.2 -57.1 110.25 -57.3 110.3 -57.35 110.3 -57.4 110.3 -57.45 110.3 -57.5 110.3
L -78.9 111.5
Q -80.2 111.6 -81.2 112.3 -81.3 112.45 -81.5 112.55 -82.4 113.35 -82.55 114.6 -83 117.95 -82.7 124.3 -82.65 124.25 -82.6 124.2 -82.05 118.8 -81 115.25 -81 115.2 -80.95 115.15 -80.8 114.35 -80.2 113.9 -79.65 113.45 -78.8 113.35
L -57.3 112.3
Q -57.2 112.3 -57.05 112.3 -57.05 112.25 -57 112.25 -56.95 112.25 -56.9 112.25 -56.7 112.2 -56.5 112.15
L -56.45 112.15
Q -53.9 111.65 -52.2 109.6 -50.3 107.45 -49.95 104.7
L -49.95 104.65
Q -49.9 104.35 -49.9 103.95
L -49.9 89.4
Q -49.9 88.65 -49.5 88
L -49.45 88
Q -49.3 87.75 -49.05 87.55 -44.4 85.5 -38.95 85.55 -34 85.6 -29.2 87.2 -28.7 87.45 -28.35 87.85
L -28.3 87.9
Q -28.25 87.95 -28.2 88.05 -27.85 88.65 -27.85 89.4
L -27.85 103.85
Q -27.85 104.35 -27.75 104.7 -27.75 104.8 -27.75 104.9 -27.4 107.45 -25.65 109.5 -25.6 109.5 -25.55 109.6 -23.9 111.6 -21.45 112.1
L -21.4 112.1
Q -21.35 112.1 -21.3 112.15
L -21.2 112.15
Q -20.9 112.25 -20.55 112.3
L 1.05 113.35 1.1 113.35
Q 1.85 113.5 2.45 113.9
M 3.45 84.6
Q 3.35 84.5 3.3 84.45 -12.6 70.05 -34.4 68.75
L -34.4 68.7 -35.95 68.65
Q -37.35 68.6 -38.75 68.6 -38.85 68.6 -38.95 68.6 -40.3 68.6 -41.75 68.65
L -43.25 68.7 -43.25 68.75
Q -65.1 70.05 -80.9 84.45 -81 84.5 -81.1 84.6 -82.4 85.8 -83.65 87.05 -97 100.6 -98.55 118.6 -98.75 120.95 -98.75 123.35 -98.75 125.75 -98.55 128.15 -96.85 147.8 -81.1 162.2
L -81.15 162.2
Q -76.75 166.25 -71.9 169.25 -75.9 166 -82 159.75 -94.8 146.5 -95.3 124.25 -95.65 105.3 -83.65 91.5 -81.55 89.05 -79.1 86.8 -77.75 85.6 -76.35 84.45 -61.8 72.7 -42.4 71.75
L -41.65 71.7
Q -40.25 71.65 -38.95 71.65 -38.85 71.65 -38.75 71.65 -37.35 71.65 -36.05 71.7
L -35.3 71.75
Q -15.85 72.7 -1.35 84.45 0.05 85.6 1.4 86.8 7.05 91.95 10.75 97.95 17.85 109.55 17.6 124.25 17.15 146.5 4.3 159.75 -1.8 166 -5.8 169.25 -0.9 166.25 3.5 162.2
L 3.45 162.2
Q 21.05 146.1 21.05 123.35 21.05 109.4 14.4 97.95 10.25 90.8 3.45 84.6
M 53.55 48.7
Q 53.55 47.4 52.6 46.45 51.7 45.55 50.4 45.55 49.1 45.55 48.15 46.45 47.2 47.4 47.2 48.7
L 47.2 53.8
Q 47.2 55.1 48.15 56 49.1 56.95 50.4 56.95 51.7 56.95 52.65 56 53.55 55.1 53.55 53.8
L 53.55 48.7
M 215.6 54.65
Q 215.45 54.5 215.25 54.5
L 211.75 54.5
Q 211.6 54.5 211.5 54.55 211.35 54.6 211.3 54.7 211.15 54.75 211.1 54.85 211 54.95 210.95 55
L 203.55 74.25
Q 203.45 74.55 203.6 74.65 203.8 74.8 204.05 74.8
L 208.1 74.8
Q 208.6 74.8 208.8 74.3 209.05 73.65 209.3 72.9 209.6 72.2 209.8 71.55
L 217.1 71.55
Q 217.35 72.2 217.65 72.9 217.85 73.65 218.15 74.3 218.2 74.6 218.4 74.65 218.6 74.8 218.9 74.8
L 222.8 74.8
Q 223.2 74.8 223.35 74.65 223.5 74.45 223.4 74.15
L 215.85 54.9
Q 215.75 54.8 215.6 54.65
M 211.35 67.15
Q 211.65 66.45 211.85 65.65 212.15 64.8 212.4 64 212.7 63.2 212.95 62.4 213.25 61.6 213.45 60.85
L 215.55 67.15 211.35 67.15
M 164.9 134.3
Q 164.75 132 164.2 129.8 162.4 123.05 156.7 117.75 148.75 110.45 137.65 110.15
L 136.9 110.1
Q 136.8 110.1 136.7 110.1 136.65 110.1 136.55 110.1 135.9 110.1 135.25 110.15 134.05 110.15 132.9 110.3 123.5 111.35 116.55 117.75 110.85 123.05 109.05 129.8 108.5 132 108.35 134.3 108.3 135.35 108.35 136.4 108.45 138.3 108.75 140.1 109.2 142.1 109.95 143.95 110.85 145.75 112.05 147.5 111.3 145.75 110.75 143.95 110.35 142.05 110.15 140.1 110 137.3 110.25 134.3 110.3 134.15 110.3 134 110.55 131.9 111.3 129.8 113.35 124.75 118.6 119.95 124.7 114.35 132.9 113.35 134.05 113.15 135.25 113.15 135.55 113.1 135.85 113.1
L 136.7 113.1
Q 136.85 113.1 137.05 113.1
L 137.3 113.1
Q 137.65 113.1 138 113.15 147.65 113.55 154.65 119.95 159.9 124.75 161.95 129.8 162.7 131.9 162.95 134 162.95 134.15 163 134.3 163.25 137.3 163.1 140.1 162.9 142.05 162.5 143.95 161.95 145.75 161.2 147.5 162.4 145.75 163.3 143.95 164.05 142.1 164.5 140.1 164.8 138.3 164.9 136.4 164.95 135.35 164.9 134.3
M 162.15 17.75
Q 163.75 20.15 165.3 22.5 166.8 24.85 168.35 27.25
L 162.25 36.3
Q 162.05 36.5 161.95 36.7 161.85 36.95 161.75 37.1 161.7 37.15 161.7 37.25 161.7 37.35 161.8 37.45 161.85 37.5 161.95 37.5
L 166.85 37.6
Q 167.15 37.6 167.3 37.5 167.5 37.35 167.6 37.1
L 171.25 31.65 175 37.3
Q 175.15 37.55 175.3 37.65 175.5 37.8 175.7 37.85
L 180.65 37.95
Q 180.85 37.95 180.85 37.75 180.9 37.6 180.8 37.5 180.7 37.3 180.65 37.1
L 174.2 27.4 180.5 18.15
Q 180.6 18.05 180.65 17.95 180.65 17.85 180.65 17.8 180.65 17.75 180.55 17.7 180.45 17.65 180.3 17.65 180.15 17.6 180.05 17.6 179.85 17.6 179.75 17.6
L 175.5 17.45
Q 174.95 17.45 174.7 18
L 171.25 22.95 167.9 17.8
Q 167.65 17.3 167.15 17.3
L 162.35 17.2
Q 162.25 17.25 162.15 17.25 162 17.25 161.95 17.3 161.95 17.45 162 17.55 162.05 17.65 162.15 17.75
M 266.1 23.6
Q 266.65 22.95 267 22.05 267.35 21.25 267.35 20.2 267.35 19 266.9 17.95 266.85 17.9 266.85 17.85 266.4 16.75 265.65 16 264.8 15.15 263.7 14.65 262.7 14.2 261.45 14.15
L 252.35 13.9
Q 252.1 13.85 251.95 14.05 251.8 14.2 251.8 14.5
L 251.8 33.6
Q 251.8 33.9 251.95 34.05 252.15 34.15 252.35 34.2
L 262.25 34.45
Q 263.5 34.5 264.6 34 265.65 33.6 266.45 32.75 267.25 31.95 267.75 30.8 268.25 29.7 268.25 28.5 268.25 27.1 267.65 25.8 267.1 24.55 266.1 23.6
M 260 18.15
Q 260.45 18.15 260.85 18.3 261.25 18.45 261.5 18.75 261.75 19.05 261.95 19.35 262.1 19.75 262.1 20.15 262.1 20.6 261.9 20.95 261.75 21.3 261.5 21.6 261.25 21.8 260.8 22 260.45 22.1 260 22.1
L 257.1 22 257.1 18.05 260 18.15
M 262.8 28.1
Q 262.8 28.55 262.65 29 262.5 29.4 262.2 29.65 261.9 30 261.55 30.15 261.15 30.35 260.7 30.4
L 257.1 30.25 257.1 25.7 260.7 25.8
Q 261.15 25.75 261.55 26 261.9 26.2 262.2 26.55 262.5 26.9 262.65 27.3 262.8 27.7 262.8 28.1
M 219.5 -22.95
Q 219.45 -22.95 219.35 -22.9 219.3 -22.9 219.25 -22.9 219.2 -22.85 219.15 -22.75 219.1 -22.75 219 -22.55
L 215.75 -15.45 212.35 -22.55
Q 212.3 -22.75 212.25 -22.75 212.2 -22.85 212.1 -22.9 212.05 -22.9 212 -22.9 211.95 -22.95 211.85 -22.95
L 206.6 -22.95
Q 206.5 -22.95 206.4 -22.9 206.35 -22.85 206.35 -22.75 206.35 -22.6 206.55 -22.4
L 213.05 -10.95 213.05 -3.3
Q 213.05 -3 213.2 -2.85 213.3 -2.65 213.6 -2.65
L 217.7 -2.65
Q 218.3 -2.65 218.3 -3.3
L 218.3 -10.95 224.8 -22.4
Q 225 -22.6 225 -22.75 225 -22.85 224.95 -22.9 224.9 -22.95 224.75 -22.95
L 219.5 -22.95
M 55.3 -18.65
Q 55 -21.05 53.05 -22.35 51.1 -23.7 48.75 -23.1 46.95 -22.65 45.85 -21.15 44.75 -19.6 44.9 -17.8 45.1 -15.15 45 -13.85 44.85 -11.75 43.95 -10.2
L 38.25 -0.45
Q 37.05 1.55 34.95 2.65 34.05 3.15 33.55 4.2 33.05 5.3 33.25 6.3 33.55 8 34.95 8.85 36.35 9.7 38 9.15
L 41.7 8.05
Q 43.35 7.65 45.9 7.55 49.3 7.4 51.9 7.85 55.55 8.45 58.45 10.55 60.45 12.05 63 11.65 65.55 11.35 67.2 9.5 68.7 7.8 68.85 5.5 69 3.15 67.75 1.3 66.45 -0.6 64.25 -1.3 60.85 -2.4 58.95 -5.5
L 56.25 -10.25
Q 55.85 -10.9 55.7 -11.5 55.05 -13.2 55.15 -15.7
L 55.3 -18.65
M 41.95 -0.55
Q 44.15 -5.4 47 -9.4
L 47.65 -10.2
Q 48.55 -11.2 50.2 -11.15 51.75 -11.1 52.55 -10.1 54 -8.2 54.4 -7.55 56.7 -3.95 57.95 -1.1 58.4 -0.25 58.45 0.5 58.65 1.85 57.75 3.05 56.8 4.2 55.45 4.35
L 50 4.6 50 4.7
Q 46.75 4.55 45.15 4.4 42.3 4.15 41.75 1.5 41.5 0.4 41.95 -0.55
M 182.85 -102.6
L 182.9 -102.55
Q 182.65 -103.05 180.95 -107.75 182.8 -97.15 184.35 -96.2 186.55 -94.6 195.5 -93.9 197.9 -93.7 216.05 -92.85 225.65 -92.4 232 -91.6 239.65 -90.6 246.7 -88.7 252.35 -87.1 257.15 -85.3 257.65 -85.1 258.15 -84.9 261.8 -83.45 264.95 -81.9 267.45 -80.65 270 -78.7 270.8 -78.05 271.65 -77.35 275.8 -73.85 279.95 -68.65
L 279.4 -69.95
Q 277.05 -75.1 273.85 -78.7 272.8 -79.9 271.65 -80.9 269.2 -83.1 266.3 -84.55
L 266.3 -84.6
Q 262.55 -86.45 258.2 -88.1
L 258.15 -88.1
Q 253.25 -90 247.5 -91.6 240.25 -93.6 232.35 -94.6 225.95 -95.4 216.2 -95.85 198.1 -96.7 195.75 -96.9 187.95 -97.5 186 -98.7 184.5 -99.7 182.85 -102.6 Z"/>
</g>

<path id="Layer1_0_1_STROKES" stroke="#FFFFFF" stroke-width="3" stroke-linejoin="round" stroke-linecap="round" fill="none" d="
M -77.6 -128.2
Q -77 -126.35 -76.55 -124.3 -74 -113.5 -74.35 -99.2
M 174.65 -99.2
Q 174.3 -113.5 176.85 -124.3 177.3 -126.35 177.9 -128.2 178.35 -129.65 178.85 -130.95
L 179.8 -133.1
Q 180.3 -134.45 180.85 -135.5 183.5 -140.35 186.95 -143.05 192.55 -147.35 201.45 -147.9 208.4 -148.3 215.15 -145.05 219.35 -143.05 229.5 -135.95 236.45 -131.05 247.3 -119.3 252.55 -113.65 256.45 -108.85
L 256.65 -108.6
Q 256.7 -108.55 256.75 -108.5 257.4 -107.6 257.65 -107.2 258.3 -105.9 258.6 -103.85 264.15 -100.8 269.2 -96.7 270.45 -95.7 271.65 -94.6 273.1 -93.3 274.55 -91.9 277.35 -89.15 279.4 -86.7 280.05 -85.85 280.65 -85.05 283.3 -81.55 284.15 -78.7 284.5 -77.35 284.5 -76.2 284.5 -73.85 284.25 -71.5
M -183.95 -71.5
Q -184.2 -73.85 -184.2 -76.2 -184.2 -77.35 -183.85 -78.7 -183 -81.55 -180.35 -85.05 -179.75 -85.85 -179.1 -86.7 -177.05 -89.15 -174.25 -91.9 -172.8 -93.3 -171.35 -94.6 -170.15 -95.7 -168.9 -96.7 -163.85 -100.8 -158.3 -103.85 -158 -105.9 -157.35 -107.2 -157.1 -107.6 -156.45 -108.5 -156.4 -108.55 -156.35 -108.6
L -156.15 -108.85
Q -152.25 -113.65 -147 -119.3 -136.15 -131.05 -129.2 -135.95 -119.05 -143.05 -114.85 -145.05 -108.1 -148.3 -101.15 -147.9 -92.25 -147.35 -86.65 -143.05 -83.2 -140.35 -80.55 -135.5 -80 -134.45 -79.5 -133.1
L -78.55 -130.95
Q -78.05 -129.65 -77.6 -128.2
M 50 -33.75
Q 62.55 -33.75 71.45 -24.85 80.3 -16 80.3 -3.45 80.3 9.1 71.45 18 62.55 26.85 50 26.85 37.45 26.85 28.6 18 19.7 9.1 19.7 -3.45 19.7 -15.95 28.6 -24.85 37.5 -33.75 50 -33.75 Z
M 123.55 0.7
Q 123.55 -5.2 119.4 -9.35 115.2 -13.55 109.3 -13.55 103.4 -13.55 99.25 -9.35 95.05 -5.2 95.05 0.7 95.05 6.6 99.25 10.8 103.4 14.95 109.3 14.95 115.2 14.95 119.4 10.8 123.55 6.6 123.55 0.7 Z
M 258.6 -103.85
Q 254.55 -106.1 250.2 -107.8 238 -112.55 213.65 -114.1 204 -114.7 184.3 -114.8 179.75 -114.8 178.5 -113.25 175.15 -110.25 174.75 -100.25 174.75 -99.75 174.75 -99.2 174.7 -97.95 174.7 -96.75 174.7 -96.35 174.75 -95.9 174.9 -90.25 176.25 -86.7 176.35 -86.4 176.5 -86.1 177.15 -84.6 177.85 -84.05 179 -83.2 181.85 -82.7 187.6 -81.65 210.25 -80.95 220.95 -80.6 231.35 -78.7 240.6 -77 249.6 -74.05 254.4 -72.5 258.15 -70.95 261.9 -69.45 264.65 -67.95
L 276.2 -61.1 277.5 -60.05
Q 279.05 -59 280.1 -58.95 280.4 -58.95 280.65 -58.95 281.6 -59.2 281.9 -60.45 281.95 -60.55 281.95 -60.7 282.55 -62.2 283.15 -64.8 283.95 -68.1 284.25 -71.5
M 179.8 -133.1
Q 179.1 -131.05 178.6 -128.3 177.7 -123.45 177.75 -122.5 178 -119.25 181.75 -119.3 189.2 -120.65 201.5 -120.7 215.6 -120.8 226.95 -118.9 247.5 -115.5 254.85 -110.35 255.6 -109.8 256.45 -108.85
M 174.65 -99.2
Q 174.65 -98 174.7 -96.75
M 278.05 24
Q 278.05 20.8 277.2 17.95 275.8 13.45 272.2 9.85 266.3 3.95 258 3.95 253.2 3.95 249.2 5.95 246.3 7.4 243.85 9.85 240.2 13.4 238.85 17.95 238.4 19.25 238.2 20.65 237.95 22.25 237.95 24 237.95 25.35 238.1 26.7 238.9 33.25 243.85 38.15 247.2 41.5 251.35 43 254.45 44 258 44 266.3 44 272.2 38.15 278.05 32.3 278.05 24 Z
M 191.35 27.3
Q 191.35 27 191.35 26.7 191.25 23.45 190.25 20.65 189.8 19.25 189.1 17.95 187.85 15.65 185.95 13.7 185.7 13.4 185.5 13.2 182.25 9.95 178.35 8.55 175.2 7.4 171.65 7.35 171.5 7.35 171.3 7.35 163 7.35 157.15 13.2 151.3 19.05 151.3 27.3 151.3 35.6 157.15 41.45 163 47.3 171.3 47.3 171.5 47.3 171.65 47.3 172.7 47.3 173.7 47.2 176.45 46.9 178.9 45.9 182.5 44.4 185.5 41.45 185.7 41.2 185.95 41 191.35 35.25 191.35 27.3 Z
M 100.15 142.25
Q 94.85 133.1 94.85 121.75 94.85 104.5 107.05 92.3 119.2 80.1 136.45 80.1 141.25 80.1 145.65 81.05 157.1 83.5 165.9 92.3 167.75 94.15 169.3 96.1 178.1 107.1 178.1 121.75 178.1 127.45 176.55 133.05 175.2 137.9 172.85 142.1 170.5 151.75 162.95 159.25 152 170.25 136.45 170.25 120.95 170.25 109.95 159.25 102.5 151.8 100.15 142.25 99 137.75 99 132.75 99 117.25 109.95 106.25 120.95 95.3 136.45 95.3 152 95.3 162.95 106.25 173.95 117.25 173.95 132.75 173.95 137.65 172.85 142.1
M 233.55 65.5
Q 233.55 57.2 227.7 51.35 221.85 45.45 213.55 45.45 206.3 45.45 200.9 49.9 200.15 50.55 199.4 51.35 197.1 53.6 195.7 56.3 195.5 56.6 195.4 56.95 194.7 58.35 194.25 59.9 193.5 62.55 193.5 65.5 193.5 73.8 199.4 79.65 202.45 82.75 206.25 84.2 209.6 85.5 213.55 85.5 217.5 85.5 220.9 84.2 224.65 82.75 227.7 79.65 233.55 73.8 233.55 65.5 Z
M 64.55 53.55
Q 64.55 47.65 60.4 43.5 56.2 39.3 50.3 39.3 44.4 39.3 40.25 43.5 36.05 47.65 36.05 53.55 36.05 59.45 40.25 63.65 44.4 67.8 50.3 67.8 56.2 67.8 60.4 63.65 64.55 59.45 64.55 53.55 Z
M 8.55 0.7
Q 8.55 -5.2 4.4 -9.35 0.2 -13.55 -5.7 -13.55 -11.6 -13.55 -15.75 -9.35 -19.95 -5.2 -19.95 0.7 -19.95 6.6 -15.75 10.8 -11.6 14.95 -5.7 14.95 0.2 14.95 4.4 10.8 8.55 6.6 8.55 0.7 Z
M -36.35 77.95
Q -29.7 78.2 -23.25 80.1 -22.5 80.3 -22 80.95 -21.55 81.6 -21.55 82.4
L -21.55 102.9
Q -21.55 103.8 -20.9 104.55 -20.3 105.2 -19.35 105.25
L 6.1 106.7
Q 7.6 106.8 8.2 108.15 11 115.5 11 123.25 11 131.1 8.15 138.45 7.6 139.8 6.05 139.9
L -19.35 141.35
Q -20.3 141.45 -20.9 142.1 -21.55 142.75 -21.55 143.7
L -21.55 164.15
Q -21.55 164.95 -22 165.6 -22.5 166.2 -23.25 166.4 -29.75 168.4 -36.8 168.65 -37.35 168.65 -37.8 168.65
L -39.9 168.65
Q -40.45 168.65 -40.95 168.65 -48 168.4 -54.5 166.4 -55.3 166.2 -55.75 165.6 -56.25 164.95 -56.25 164.15
L -56.25 143.7
Q -56.25 142.75 -56.85 142.1 -57.5 141.45 -58.45 141.35
L -83.85 139.9
Q -85.4 139.8 -85.9 138.45 -88.8 131.1 -88.8 123.25 -88.8 115.5 -85.95 108.15 -85.4 106.8 -83.9 106.7
L -58.45 105.25
Q -57.5 105.2 -56.85 104.55 -56.25 103.8 -56.25 102.9
L -56.25 82.4
Q -56.25 81.6 -55.75 80.95 -55.3 80.3 -54.5 80.1 -48.05 78.2 -41.45 77.95 -40.85 77.9 -40.15 77.9
L -38.85 77.85
Q -38.75 77.85 -38.65 77.85
L -36.75 77.9
Q -36.5 77.9 -36.35 77.95 Z
M -74.35 -99.2
Q -74.35 -98 -74.4 -96.75 -74.4 -96.35 -74.45 -95.9 -74.6 -90.25 -75.95 -86.7 -76.05 -86.4 -76.2 -86.1 -76.85 -84.6 -77.55 -84.05 -78.7 -83.2 -81.55 -82.7 -87.3 -81.65 -109.95 -80.95 -120.65 -80.6 -131.05 -78.7 -140.3 -77 -149.3 -74.05 -154.1 -72.5 -157.85 -70.95 -161.6 -69.45 -164.35 -67.95
L -175.9 -61.1 -177.2 -60.05
Q -178.75 -59 -179.8 -58.95 -180.1 -58.95 -180.35 -58.95 -181.3 -59.2 -181.6 -60.45 -181.65 -60.55 -181.65 -60.7 -182.25 -62.2 -182.85 -64.8 -183.65 -68.1 -183.95 -71.5
M -79.5 -133.1
Q -78.8 -131.05 -78.3 -128.3 -77.4 -123.45 -77.45 -122.5 -77.7 -119.25 -81.45 -119.3 -88.9 -120.65 -101.2 -120.7 -115.3 -120.8 -126.65 -118.9 -147.2 -115.5 -154.55 -110.35 -155.3 -109.8 -156.15 -108.85
M -158.3 -103.85
Q -154.25 -106.1 -149.9 -107.8 -137.7 -112.55 -113.35 -114.1 -103.7 -114.7 -84 -114.8 -79.45 -114.8 -78.2 -113.25 -74.85 -110.25 -74.45 -100.25 -74.45 -99.75 -74.45 -99.2
M -157.1 36.2
Q -162.4 27.05 -162.4 15.7 -162.4 -1.55 -150.2 -13.75 -138.05 -25.95 -120.8 -25.95 -116 -25.95 -111.6 -25 -100.15 -22.55 -91.35 -13.75 -89.5 -11.9 -87.95 -9.95 -79.15 1.05 -79.15 15.7 -79.15 21.4 -80.7 27 -82.05 31.85 -84.4 36.05 -86.75 45.7 -94.3 53.2 -105.25 64.2 -120.8 64.2 -136.3 64.2 -147.3 53.2 -154.75 45.75 -157.1 36.2 -158.25 31.7 -158.25 26.7 -158.25 11.2 -147.3 0.2 -136.3 -10.75 -120.8 -10.75 -105.25 -10.75 -94.3 0.2 -83.3 11.2 -83.3 26.7 -83.3 31.6 -84.4 36.05
M -74.45 -99.2
Q -74.4 -97.95 -74.4 -96.75"/>

<path id="Layer1_0_2_STROKES" stroke="#FFFFFF" stroke-width="3" stroke-linejoin="miter" stroke-linecap="butt" stroke-miterlimit="10" fill="none" d="
M 177.9 -128.2
Q 176.8 -127.5 175.35 -126.1 172.45 -123.3 170.65 -119.7 167.85 -114.15 161 -108.75 152.6 -102.15 144.65 -102.15
L -44.35 -102.15
Q -52.3 -102.15 -60.7 -108.75 -67.55 -114.15 -70.35 -119.7 -72.15 -123.3 -75.05 -126.1 -76.5 -127.5 -77.6 -128.2
M -74.35 -99.2
L -70.95 -97.9
Q -65.1 -95.6 -58.95 -95.6
L 159.25 -95.6
Q 165.4 -95.6 171.25 -97.9
L 174.65 -99.2
M 284.25 -71.5
Q 290.65 -63.9 297.05 -55.1 297.4 -54.65 297.7 -54.2 305.8 -42.85 308.85 -36.75 320.05 -14.15 330.25 17.95 341.8 54.4 352.1 103.15 354.6 115.05 356.8 126.3 363 158.35 366.65 185.05
L 367.9 198.55
Q 368.65 207.85 368.95 216.6 369.15 223.3 369.15 229.7 369.2 245.6 364.75 262.9 360.3 280.25 353.95 288.75 341.65 305.25 326.85 311.05 321.5 313.15 316.15 313.8 308.3 314.7 300.4 312.45 290.1 309.5 266.7 282.3 259.35 273.85 251.6 263.95
L 213.3 215.8
Q 209.55 209.9 200.2 204 190.75 198 178.9 195.05 177.7 194.75 176.5 194.5 166 192.2 153.75 192.2
L -53.75 192.2
Q -66.35 192.2 -77.05 194.65 -90 197.55 -100.2 204 -109.5 209.9 -113.3 215.8
L -151.6 263.95
Q -159.35 273.85 -166.7 282.35 -190.1 309.5 -200.4 312.45 -213.65 316.3 -226.85 311.1 -241.6 305.25 -253.95 288.75 -260.3 280.25 -264.75 262.9 -269.2 245.6 -269.15 229.7 -269.2 215 -267.9 198.55
L -266.65 185.05
Q -261.75 148.95 -252.05 103.15 -232.7 11.55 -208.85 -36.75 -205.8 -42.9 -196.75 -55.1 -190.35 -63.9 -183.95 -71.5
M 174.75 -99.2
L 174.65 -99.2
M -77.05 194.65
Q -87 194.95 -99.5 183.8 -103.45 180.3 -107.15 176.05
L -110.05 172.5
Q -129.15 147.35 -149.2 120.35 -189.35 66.4 -194.05 57.35 -202.7 40.75 -203.7 27.4 -205.45 4.2 -190.05 -24 -175.35 -50.9 -135.2 -59.85 -115.15 -64.3 -98.05 -63.4
L 208.5 -63.3
Q 222.1 -62.65 234.6 -59.85 274.75 -50.9 289.45 -24 301.8 -1.4 303.15 17.95 303.45 22.75 303.1 27.4 302.1 40.75 293.45 57.35 288.75 66.4 248.6 120.35 228.55 147.35 209.45 172.5 205.2 178.2 198.9 183.8 187.9 193.6 178.9 194.45 177.7 194.55 176.5 194.5
M -74.35 -99.2
L -74.45 -99.2"/>

<path id="Layer1_0_3_STROKES" stroke="#FFFFFF" stroke-width="2" stroke-linejoin="round" stroke-linecap="round" fill="none" d="
M 1.2 1.75
Q 1.2 -1.05 -0.8 -3.05 -2.8 -5.1 -5.65 -5.1 -8.5 -5.1 -10.5 -3.05 -12.5 -1.05 -12.5 1.75 -12.5 4.6 -10.5 6.65 -8.5 8.65 -5.65 8.65 -2.8 8.65 -0.8 6.65 1.2 4.6 1.2 1.75 Z"/>

<path id="Layer1_0_4_STROKES" stroke="#FFFFFF" stroke-width="2" stroke-linejoin="round" stroke-linecap="butt" fill="none" d="
M 102.9 -2.7
L 116.45 -2.7
M 102.9 1.75
L 116.45 1.75
M 102.9 6.2
L 116.45 6.2"/>

<path id="Layer1_0_5_STROKES" stroke="#FFFFFF" stroke-width="3" stroke-linejoin="bevel" stroke-linecap="square" fill="none" d="
M 202.75 1
Q 203.9 1.95 205.1 2.75 205.35 2.95 205.65 3.1 211.45 6.55 218.55 5.7 226.15 4.5 230.75 -1 231.55 -2 232.3 -3.15 237.4 -10.95 234.65 -19.95 231.95 -28.9 223.3 -32.45 214.75 -36 206.5 -31.7 198.2 -27.3 196.35 -18.1 194.95 -11.15 197.95 -5.25 198.1 -4.9 198.3 -4.5 199.2 -2.95 200.4 -1.4 200.55 -1.2 200.75 -1 200.85 -0.95 200.9 -0.8 201.4 -0.3 201.85 0.2"/>

<path id="Layer1_0_6_STROKES" stroke="#FFFFFF" stroke-width="1" stroke-linejoin="bevel" stroke-linecap="square" fill="none" d="
M 201.85 0.2
Q 201.9 0.3 202 0.4 202.35 0.7 202.75 1"/>

<path id="Layer1_0_7_STROKES" stroke="#FFFFFF" stroke-width="2" stroke-linejoin="miter" stroke-linecap="round" stroke-miterlimit="10" fill="none" d="
M 45 53.85
Q 45 56.1 46.6 57.7 48.2 59.3 50.45 59.3 52.65 59.3 54.2 57.7 55.8 56.1 55.8 53.85
M 47.3 62.1
L 50.45 62.1 50.45 59.3
M 50.45 62.1
L 53.55 62.1"/>

<path id="Layer1_0_8_STROKES" stroke="#FFFFFF" stroke-width="5" stroke-linejoin="round" stroke-linecap="round" fill="none" d="
M -11.3 124.8
L -2.35 124.8
M -75.5 124.8
L -66.55 124.8
M -39.05 148.8
L -39.05 157.75
M -39.05 93.8
L -39.05 102.75"/>

</defs>

<g transform="matrix( 1, 0, 0, 1, 0,0) ">
<use xlink:href="#Layer1_0_FILL"/>

<use xlink:href="#Layer1_0_1_STROKES"/>

<use xlink:href="#Layer1_0_2_STROKES"/>

<use xlink:href="#Layer1_0_3_STROKES"/>

<use xlink:href="#Layer1_0_4_STROKES"/>

<use xlink:href="#Layer1_0_5_STROKES"/>

<use xlink:href="#Layer1_0_6_STROKES"/>

<use xlink:href="#Layer1_0_7_STROKES"/>

<use xlink:href="#Layer1_0_8_STROKES"/>
</g>

<g transform="matrix( 1, 0, 0, 1, -3.4,-28) ">
<clipPath id="Mask_Mask_1">
<rect x="34.6" y="-2" width="37.6" height="20.8" fill="#FFFFFF" stroke="none"/>
</clipPath>

<text clip-path="url(#Mask_Mask_1)" writing-mode="lr"><tspan x="36.7" y="13.6" baseline-shift="0%" kerning="auto" font-family="Arial_Regular" font-size="15" fill="#999999" xml:space="preserve">Luna</tspan></text>
</g>
</svg>
