
<svg xmlns="http://www.w3.org/2000/svg" version="1.1" xmlns:xlink="http://www.w3.org/1999/xlink" x="0px" y="0px" viewBox="0 0 100 100">
<defs>
<g id="Layer1_0_FILL">
<path fill="#313131" stroke="none" d="
M 84.8 30.8
Q 83 29 81.05 27.6 74.3 22.85 65.55 22.85 65.5 22.85 65.45 22.85
L 34.4 22.85
Q 23.2 22.9 15.3 30.8 12.45 33.6 10.65 36.85 7.3 42.7 7.3 50 7.3 57.3 10.65 63.15 12.45 66.4 15.3 69.25 23.2 77.15 34.4 77.2
L 65.45 77.2
Q 65.5 77.2 65.55 77.2 74.3 77.2 81.05 72.45 83 71.05 84.8 69.25 92.7 61.3 92.7 50 92.7 38.75 84.8 30.8
M 86.25 50
Q 86.25 58 81.05 63.75 80.6 64.2 80.2 64.65 74.15 70.7 65.55 70.7 65.5 70.7 65.45 70.7
L 34.4 70.7
Q 25.9 70.7 19.85 64.65 13.8 58.6 13.8 50 13.8 41.45 19.85 35.4 25.9 29.35 34.4 29.35
L 65.45 29.35
Q 65.5 29.35 65.55 29.35 74.15 29.35 80.2 35.4 80.6 35.85 81.05 36.3 86.25 42.05 86.25 50 Z"/>

<path fill="#4F4F4F" stroke="none" d="
M 81.05 63.75
Q 86.25 58 86.25 50 86.25 42.05 81.05 36.3 80.6 35.85 80.2 35.4 74.15 29.35 65.55 29.35 65.5 29.35 65.45 29.35
L 34.4 29.35
Q 25.9 29.35 19.85 35.4 13.8 41.45 13.8 50 13.8 58.6 19.85 64.65 25.9 70.7 34.4 70.7
L 65.45 70.7
Q 65.5 70.7 65.55 70.7 74.15 70.7 80.2 64.65 80.6 64.2 81.05 63.75
M 62.25 50.15
L 37.9 50.15 62.25 50.15
M 62.25 40.65
L 37.9 40.65 62.25 40.65
M 62.25 59.85
L 37.9 59.85 62.25 59.85 Z"/>
</g>

<path id="Layer1_0_1_STROKES" stroke="#1B1B1B" stroke-width="5" stroke-linejoin="round" stroke-linecap="round" fill="none" d="
M 65.55 22.85
Q 74.3 22.85 81.05 27.6 83 29 84.8 30.8 92.7 38.75 92.7 50 92.7 61.3 84.8 69.25 83 71.05 81.05 72.45 74.3 77.2 65.55 77.2
M 65.45 77.2
L 34.4 77.2
Q 23.2 77.15 15.3 69.25 12.45 66.4 10.65 63.15 7.3 57.3 7.3 50 7.3 42.7 10.65 36.85 12.45 33.6 15.3 30.8 23.2 22.9 34.4 22.85
L 65.45 22.85"/>

<path id="Layer1_0_2_STROKES" stroke="#626262" stroke-width="4" stroke-linejoin="round" stroke-linecap="round" fill="none" d="
M 65.45 29.35
Q 65.5 29.35 65.55 29.35 74.15 29.35 80.2 35.4 80.6 35.85 81.05 36.3 86.25 42.05 86.25 50 86.25 58 81.05 63.75 80.6 64.2 80.2 64.65 74.15 70.7 65.55 70.7 65.5 70.7 65.45 70.7
L 34.4 70.7
Q 25.9 70.7 19.85 64.65 13.8 58.6 13.8 50 13.8 41.45 19.85 35.4 25.9 29.35 34.4 29.35
L 65.45 29.35 Z"/>

<path id="Layer1_0_3_STROKES" stroke="#999999" stroke-width="5" stroke-linejoin="round" stroke-linecap="square" fill="none" d="
M 62.25 50.15
L 37.9 50.15
M 62.25 40.65
L 37.9 40.65
M 62.25 59.85
L 37.9 59.85"/>

</defs>

<g transform="matrix( 1, 0, 0, 1, 0,0) ">
<use xlink:href="#Layer1_0_FILL"/>

<use xlink:href="#Layer1_0_1_STROKES"/>

<use xlink:href="#Layer1_0_2_STROKES"/>

<use xlink:href="#Layer1_0_3_STROKES"/>
</g>

<g transform="matrix( 1, 0, 0, 1, -3.4,-28) ">
<clipPath id="Mask_Mask_1">
<rect x="30.05" y="-2" width="46.7" height="20.8" fill="#FFFFFF" stroke="none"/>
</clipPath>

<text clip-path="url(#Mask_Mask_1)" writing-mode="lr"><tspan x="32.1" y="13.6" baseline-shift="0%" kerning="auto" font-family="Arial_Regular" font-size="15" fill="#999999" xml:space="preserve">Stadia</tspan></text>
</g>
</svg>
