
<svg xmlns="http://www.w3.org/2000/svg" version="1.1" xmlns:xlink="http://www.w3.org/1999/xlink" x="0px" y="0px" viewBox="0 0 100 100">
<defs>
<g id="Layer1_0_FILL">
<path fill="#313131" stroke="none" d="
M 75.25 24.7
Q 64.85 14.3 50 14.3 35.2 14.3 24.75 24.7 14.3 35.15 14.3 50 14.3 64.8 24.75 75.25 35.2 85.7 50 85.7 64.85 85.7 75.25 75.25 85.7 64.8 85.7 50 85.7 35.15 75.25 24.7
M 50 22.8
Q 61.3 22.8 69.25 30.75 77.2 38.7 77.2 50 77.2 61.3 69.25 69.25 61.3 77.2 50 77.2 38.75 77.2 30.75 69.25 22.8 61.3 22.8 50 22.8 38.7 30.75 30.75 38.75 22.8 50 22.8 Z"/>

<path fill="#4F4F4F" stroke="none" d="
M 69.25 30.75
Q 61.3 22.8 50 22.8 38.75 22.8 30.75 30.75 22.8 38.7 22.8 50 22.8 61.3 30.75 69.25 38.75 77.2 50 77.2 61.3 77.2 69.25 69.25 77.2 61.3 77.2 50 77.2 38.7 69.25 30.75
M 42.85 32.9
Q 47.5 32.9 50.8 36.2 54.05 39.5 54.05 44.1 54.05 48.75 50.8 52.05 47.5 55.35 42.85 55.35 38.2 55.35 34.95 52.05 31.65 48.75 31.65 44.1 31.65 39.5 34.95 36.2 38.2 32.9 42.85 32.9
M 56.4 47.9
Q 57.65 46.65 59.45 46.65 61.25 46.65 62.55 47.9 63.8 49.15 63.8 50.95 63.8 52.75 62.55 54.05 61.25 55.3 59.45 55.3 57.65 55.3 56.4 54.05 55.1 52.75 55.1 50.95 55.1 49.15 56.4 47.9
M 67.05 43.5
Q 67.65 44.1 67.65 45 67.65 45.85 67.05 46.5 66.4 47.1 65.5 47.1 64.65 47.1 64 46.5 63.4 45.85 63.4 45 63.4 44.1 64 43.5 64.65 42.85 65.5 42.85 66.4 42.85 67.05 43.5
M 63.1 58.1
Q 64.6 59.6 64.6 61.7 64.6 63.85 63.1 65.35 61.6 66.85 59.45 66.85 57.35 66.85 55.85 65.35 54.3 63.85 54.3 61.7 54.3 59.6 55.85 58.1 57.35 56.55 59.45 56.55 61.6 56.55 63.1 58.1 Z"/>

<path fill="#999999" stroke="none" d="
M 64.6 61.7
Q 64.6 59.6 63.1 58.1 61.6 56.55 59.45 56.55 57.35 56.55 55.85 58.1 54.3 59.6 54.3 61.7 54.3 63.85 55.85 65.35 57.35 66.85 59.45 66.85 61.6 66.85 63.1 65.35 64.6 63.85 64.6 61.7
M 67.65 45
Q 67.65 44.1 67.05 43.5 66.4 42.85 65.5 42.85 64.65 42.85 64 43.5 63.4 44.1 63.4 45 63.4 45.85 64 46.5 64.65 47.1 65.5 47.1 66.4 47.1 67.05 46.5 67.65 45.85 67.65 45
M 59.45 46.65
Q 57.65 46.65 56.4 47.9 55.1 49.15 55.1 50.95 55.1 52.75 56.4 54.05 57.65 55.3 59.45 55.3 61.25 55.3 62.55 54.05 63.8 52.75 63.8 50.95 63.8 49.15 62.55 47.9 61.25 46.65 59.45 46.65
M 50.8 36.2
Q 47.5 32.9 42.85 32.9 38.2 32.9 34.95 36.2 31.65 39.5 31.65 44.1 31.65 48.75 34.95 52.05 38.2 55.35 42.85 55.35 47.5 55.35 50.8 52.05 54.05 48.75 54.05 44.1 54.05 39.5 50.8 36.2 Z"/>
</g>

<path id="Layer1_0_1_STROKES" stroke="#626262" stroke-width="4" stroke-linejoin="round" stroke-linecap="round" fill="none" d="
M 50 22.8
Q 61.3 22.8 69.25 30.75 77.2 38.7 77.2 50 77.2 61.3 69.25 69.25 61.3 77.2 50 77.2 38.75 77.2 30.75 69.25 22.8 61.3 22.8 50 22.8 38.7 30.75 30.75 38.75 22.8 50 22.8 Z"/>

<path id="Layer1_0_2_STROKES" stroke="#1B1B1B" stroke-width="5" stroke-linejoin="round" stroke-linecap="round" fill="none" d="
M 50 14.3
Q 64.85 14.3 75.25 24.7 85.7 35.15 85.7 50 85.7 64.8 75.25 75.25 64.85 85.7 50 85.7 35.2 85.7 24.75 75.25 14.3 64.8 14.3 50 14.3 35.15 24.75 24.7 35.2 14.3 50 14.3 Z"/>

</defs>

<g transform="matrix( 1, 0, 0, 1, 0,0) ">
<use xlink:href="#Layer1_0_FILL"/>

<use xlink:href="#Layer1_0_1_STROKES"/>

<use xlink:href="#Layer1_0_2_STROKES"/>
</g>

<g transform="matrix( 1, 0, 0, 1, -3.4,-28) ">
<clipPath id="Mask_Mask_1">
<rect x="30.05" y="-2" width="46.7" height="20.8" fill="#FFFFFF" stroke="none"/>
</clipPath>

<text clip-path="url(#Mask_Mask_1)" writing-mode="lr"><tspan x="32.1" y="13.6" baseline-shift="0%" kerning="auto" font-family="Arial_Regular" font-size="15" fill="#999999" xml:space="preserve">Stadia</tspan></text>
</g>
</svg>
