
<svg xmlns="http://www.w3.org/2000/svg" version="1.1" xmlns:xlink="http://www.w3.org/1999/xlink" x="0px" y="0px" viewBox="0 0 100 100">
<defs>
<g id="Layer1_0_FILL">
<path fill="#313131" stroke="none" d="
M 86.5 61.85
L 86.5 19.7
Q 85.6 14.55 79.05 12.5
L 22.8 12.5
Q 18.75 16.6 18.35 26.5 21.9 47.75 18.35 70.8 17.15 77.65 22.25 84.65 27.35 89.35 35.4 90.6 51.3 93.1 62.05 83.95
L 68.6 70.35
Q 75.9 61.45 86.5 61.85
M 60.25 18.9
Q 64.45 21.3 63.75 26.25 63.9 40.25 60.4 53.4 57.95 62.65 53.15 70.75 50.15 76.5 45.05 81.65 39.35 84.9 33 83.5 24.55 80.65 24.35 73.85 26.9 60.65 26.9 44.3 26.45 34.1 24.65 24.7 24.45 21 27.1 18.9
L 60.25 18.9 Z"/>

<path fill="#4F4F4F" stroke="none" d="
M 63.75 26.25
Q 64.45 21.3 60.25 18.9
L 27.1 18.9
Q 24.45 21 24.65 24.7 26.45 34.1 26.9 44.3 26.9 60.65 24.35 73.85 24.55 80.65 33 83.5 39.35 84.9 45.05 81.65 50.15 76.5 53.15 70.75 57.95 62.65 60.4 53.4 63.9 40.25 63.75 26.25
M 56.65 27.8
Q 57 28.7 57 29.85 57 30.6 56.85 31.2 56.7 31.8 56.45 32.3 56.15 32.8 55.8 33.2 55.4 33.65 55 34.05
L 50.25 38.1 57.15 38.1 57.15 41 46.3 41 46.3 37.5 52.35 32.05
Q 52.8 31.65 53.25 31.1 53.7 30.6 53.7 29.9 53.7 29.1 53.15 28.65 52.6 28.2 51.8 28.2 50.9 28.2 50.35 28.75 49.85 29.35 49.8 30.15
L 46.5 29.95
Q 46.55 28.7 47 27.85 47.4 26.95 48.15 26.35 48.85 25.75 49.85 25.45 50.85 25.15 52 25.15 53.05 25.15 53.95 25.45 54.9 25.75 55.55 26.35 56.25 26.9 56.65 27.8
M 42.9 37.85
L 42.9 41 33.1 41 33.1 25.4 36.55 25.4 36.55 37.85 42.9 37.85 Z"/>

<path fill="#8C8C8C" stroke="none" d="
M 42.9 41
L 42.9 37.85 36.55 37.85 36.55 25.4 33.1 25.4 33.1 41 42.9 41
M 57 29.85
Q 57 28.7 56.65 27.8 56.25 26.9 55.55 26.35 54.9 25.75 53.95 25.45 53.05 25.15 52 25.15 50.85 25.15 49.85 25.45 48.85 25.75 48.15 26.35 47.4 26.95 47 27.85 46.55 28.7 46.5 29.95
L 49.8 30.15
Q 49.85 29.35 50.35 28.75 50.9 28.2 51.8 28.2 52.6 28.2 53.15 28.65 53.7 29.1 53.7 29.9 53.7 30.6 53.25 31.1 52.8 31.65 52.35 32.05
L 46.3 37.5 46.3 41 57.15 41 57.15 38.1 50.25 38.1 55 34.05
Q 55.4 33.65 55.8 33.2 56.15 32.8 56.45 32.3 56.7 31.8 56.85 31.2 57 30.6 57 29.85 Z"/>
</g>

<path id="Layer1_0_1_STROKES" stroke="#202020" stroke-width="5" stroke-linejoin="round" stroke-linecap="round" fill="none" d="
M 86.5 61.85
L 86.5 19.7
Q 85.6 14.55 79.05 12.5
L 22.8 12.5
Q 18.75 16.6 18.35 26.5 21.9 47.75 18.35 70.8 17.15 77.65 22.25 84.65 27.35 89.35 35.4 90.6 51.3 93.1 62.05 83.95
L 68.6 70.35
Q 75.9 61.45 86.5 61.85 Z"/>

<path id="Layer1_0_2_STROKES" stroke="#626262" stroke-width="4" stroke-linejoin="round" stroke-linecap="round" fill="none" d="
M 60.25 18.9
Q 64.45 21.3 63.75 26.25 63.9 40.25 60.4 53.4 57.95 62.65 53.15 70.75 50.15 76.5 45.05 81.65 39.35 84.9 33 83.5 24.55 80.65 24.35 73.85 26.9 60.65 26.9 44.3 26.45 34.1 24.65 24.7 24.45 21 27.1 18.9
L 60.25 18.9 Z"/>

</defs>

<g transform="matrix( 1, 0, 0, 1, 0,0) ">
<use xlink:href="#Layer1_0_FILL"/>

<use xlink:href="#Layer1_0_1_STROKES"/>

<use xlink:href="#Layer1_0_2_STROKES"/>
</g>

<g transform="matrix( 1, 0, 0, 1, -3.4,-28) ">
<clipPath id="Mask_Mask_1">
<rect x="30.05" y="-2" width="46.7" height="20.8" fill="#FFFFFF" stroke="none"/>
</clipPath>

<text clip-path="url(#Mask_Mask_1)" writing-mode="lr"><tspan x="32.1" y="13.6" baseline-shift="0%" kerning="auto" font-family="Arial_Regular" font-size="15" fill="#999999" xml:space="preserve">Stadia</tspan></text>
</g>
</svg>
