
<svg xmlns="http://www.w3.org/2000/svg" version="1.1" xmlns:xlink="http://www.w3.org/1999/xlink" x="0px" y="0px" viewBox="0 0 100 100">
<defs>
<g id="Layer1_0_FILL">
<path fill="#FFFFFF" stroke="none" d="
M 32.15 49.15
Q 31.1 49.15 30 49.4 26.4 50.25 24.35 53.5 22.35 56.7 23.25 60.4 24.1 64.05 27.3 66 30.55 68 34.15 67.15 35.25 66.9 36.15 66.45 38.45 65.35 39.85 63.05 41.8 59.9 40.95 56.25 40.05 52.55 36.9 50.55 34.65 49.2 32.15 49.15
M 58.05 42.6
Q 56.45 43 55.45 44.45 54.6 45.85 55 47.5 55.15 48.15 55.4 48.65 54.8 48.65 54.25 48.8 52.55 49.15 51.7 50.6 50.85 52.1 51.2 53.7 51.3 54.15 51.55 54.6 52.05 55.65 53 56.25 54.45 57.15 56.15 56.8 56.7 56.65 57.2 56.35 57.2 56.9 57.35 57.5 57.7 59.15 59.15 60.05 60.65 60.95 62.25 60.55 62.75 60.45 63.15 60.25 64.2 59.75 64.8 58.7 65.7 57.25 65.35 55.6 65.2 55 64.9 54.5 65.45 54.6 66.1 54.45 67.75 54.05 68.65 52.55 69.3 51.55 69.3 50.4 69.25 49.95 69.15 49.5 68.8 47.9 67.35 46.9 65.85 46.05 64.2 46.45 63.55 46.6 63.05 46.85 63.15 46.25 63 45.6 62.6 43.95 61.1 43.1 60.1 42.45 58.95 42.5 58.55 42.5 58.05 42.6 Z"/>
</g>

<path id="Layer1_0_1_STROKES" stroke="#FFFFFF" stroke-width="5" stroke-linejoin="round" stroke-linecap="round" fill="none" d="
M 88.75 31.4
Q 89.05 32.6 89.3 33.75 90.15 37.3 90.85 40.85 92.15 48.35 88.1 54.95
L 88.1 55
Q 83.55 62.2 75.2 64.15 74.95 64.25 35.1 73.6 26.95 75.35 19.95 71.05 13.25 66.9 10.95 59.65 10.15 56.1 9.3 52.55 9.05 51.4 8.75 50.2 8.45 49 8.25 48.1
L 88.25 29.3
Q 88.45 30.2 88.75 31.4 Z"/>

</defs>

<g transform="matrix( 1, 0, 0, 1, 0,0) ">
<use xlink:href="#Layer1_0_FILL"/>

<use xlink:href="#Layer1_0_1_STROKES"/>
</g>

<g transform="matrix( 1, 0, 0, 1, -3.4,-28) ">
<clipPath id="Mask_Mask_1">
<rect x="-2.9" y="-2" width="112.6" height="20.8" fill="#FFFFFF" stroke="none"/>
</clipPath>

<text clip-path="url(#Mask_Mask_1)" writing-mode="lr"><tspan x="-0.85" y="13.6" baseline-shift="0%" kerning="auto" font-family="Arial_Regular" font-size="15" fill="#999999" xml:space="preserve">Nintendo Switch</tspan></text>
</g>
</svg>
