
<svg xmlns="http://www.w3.org/2000/svg" version="1.1" xmlns:xlink="http://www.w3.org/1999/xlink" x="0px" y="0px" viewBox="0 0 100 100">
<defs>
<g id="Layer1_0_FILL">
<path fill="#FFFFFF" stroke="none" d="
M 90.7 70.25
Q 93.4 62.5 90.3 54.7 87.05 46.4 78.85 42.7 41.35 26.4 41.1 26.3 32.6 22.6 24.1 26 16.35 29.1 12.7 36.4 11.15 39.65 9.65 43.05 9.2 44.15 8.7 45.3 7.8 47.35 7.25 48.65
L 85.35 82.55
Q 85.9 81.25 86.8 79.2 87.3 78.05 87.75 76.95 89.25 73.55 90.7 70.25
M 42.85 43.05
Q 43.3 44.15 43.1 45.25 43 45.7 42.8 46.15 42.1 47.7 40.55 48.4 38.95 49 37.4 48.35 36.85 48.1 36.4 47.7 36.35 48.3 36.1 48.9 35.4 50.45 33.85 51.05 32.2 51.65 30.7 51 30.2 50.8 29.85 50.5 28.95 49.9 28.5 48.75 27.85 47.15 28.55 45.6 28.8 45 29.2 44.6 28.6 44.5 28 44.25 26.45 43.55 25.85 42 25.2 40.35 25.9 38.8 26.1 38.35 26.35 38 27 37.1 28.15 36.65 29.7 36 31.25 36.7 31.85 36.95 32.3 37.4 32.35 36.75 32.6 36.2 33.3 34.65 34.85 34.05 36 33.6 37.1 33.8 37.55 33.9 38.05 34.1 39.55 34.75 40.2 36.35 40.85 37.95 40.15 39.5 39.9 40.05 39.55 40.45 40.1 40.55 40.65 40.8 42.2 41.45 42.85 43.05
M 62.45 44.95
Q 63.5 45.15 64.5 45.6 67.9 47.05 69.3 50.6 70.7 54.1 69.2 57.55 67.7 61 64.2 62.4 60.65 63.75 57.25 62.3 56.25 61.85 55.35 61.25 53.35 59.7 52.4 57.25 51 53.75 52.5 50.3 54 46.85 57.5 45.45 59.95 44.45 62.45 44.95 Z"/>
</g>

</defs>

<g transform="matrix( 1, 0, 0, 1, 0,0) ">
<use xlink:href="#Layer1_0_FILL"/>
</g>

<g transform="matrix( 1, 0, 0, 1, -3.4,-28) ">
<clipPath id="Mask_Mask_1">
<rect x="-2.9" y="-2" width="112.6" height="20.8" fill="#FFFFFF" stroke="none"/>
</clipPath>

<text clip-path="url(#Mask_Mask_1)" writing-mode="lr"><tspan x="-0.85" y="13.6" baseline-shift="0%" kerning="auto" font-family="Arial_Regular" font-size="15" fill="#999999" xml:space="preserve">Nintendo Switch</tspan></text>
</g>
</svg>
