
<svg xmlns="http://www.w3.org/2000/svg" version="1.1" xmlns:xlink="http://www.w3.org/1999/xlink" x="0px" y="0px" viewBox="0 0 100 100">
<defs>
<g id="Layer1_0_FILL">
<path fill="#4F4F4F" stroke="none" d="
M 93.9 41.5
Q 91.5451171875 28.371484375 81.6 18.35 68.5 5.3 50 5.3 31.5 5.3 18.4 18.35
L 18.35 18.35
Q 5.3 31.5 5.3 50 5.3 68.5 18.35 81.55
L 18.4 81.6
Q 31.5 94.7 50 94.7 68.55 94.7 81.6 81.55
L 81.6 81.6
Q 87.1521484375 76.0478515625 90.35 69.5 94.65 60.6580078125 94.65 50 94.65 45.5986328125 93.9 41.5
M 90.25 50
Q 90.25 60.7818359375 85.3 69.5 82.6318359375 74.2859375 78.45 78.45 66.7 90.3 50 90.3 33.3 90.3 21.5 78.45 9.7 66.7 9.7 50 9.7 33.3 21.5 21.5
L 21.5 21.45
Q 33.3 9.7 50 9.7 66.7 9.7 78.45 21.45
L 78.5 21.5
Q 87.1388671875 30.17578125 89.4 41.5 90.25 45.5783203125 90.25 50
M 71.15 28.9
L 71.1 28.85
Q 62.4 20.15 50 20.15 37.65 20.15 28.9 28.9 20.15 37.65 20.15 50 20.15 62.35 28.9 71.1 37.7 79.85 50 79.85 62.4 79.85 71.1 71.1 71.8892578125 70.315234375 72.6 69.5 79.85 61.2814453125 79.85 50 79.85 45.5123046875 78.7 41.5 76.688671875 34.4705078125 71.15 28.9
M 46.7 29.25
Q 50.5 27.1 53.35 29.25
L 69.5 41
Q 73.25 43.65 69.45 46.4
L 67.6 47.7 67.6 62.05
Q 67.6 67.35 62.25 67.35
L 37.8 67.35
Q 32.45 67.35 32.45 62.05
L 32.45 47.7 30.6 46.4
Q 26.8 43.65 30.55 41
L 46.7 29.25
M 44.25 43.6
Q 41.15 43.6 41.15 46.7
L 41.15 54.8
Q 41.15 57.9 44.25 57.9
L 55.75 57.9
Q 58.8 57.9 58.8 54.8
L 58.8 46.7
Q 58.8 43.6 55.75 43.6
L 44.25 43.6 Z"/>

<path fill="#9A9A9A" stroke="none" d="
M 85.3 69.5
Q 90.25 60.7818359375 90.25 50 90.25 45.5783203125 89.4 41.5 87.1388671875 30.17578125 78.5 21.5
L 78.45 21.45
Q 66.7 9.7 50 9.7 33.3 9.7 21.5 21.45
L 21.5 21.5
Q 9.7 33.3 9.7 50 9.7 66.7 21.5 78.45 33.3 90.3 50 90.3 66.7 90.3 78.45 78.45 82.6318359375 74.2859375 85.3 69.5
M 83.25 41.5
Q 84.25 45.5458984375 84.25 50 84.25 60.9857421875 78.2 69.5 76.4861328125 71.952734375 74.25 74.2
L 74.25 74.25
Q 64.25 84.25 50 84.25 35.8 84.25 25.75 74.25 15.75 64.2 15.75 50 15.75 35.75 25.75 25.75
L 25.8 25.75
Q 35.85 15.75 50 15.75 64.2 15.75 74.25 25.75 81.11328125 32.64765625 83.25 41.5 Z"/>

<path fill="#1B1B1B" stroke="none" d="
M 84.25 50
Q 84.25 45.5458984375 83.25 41.5 81.11328125 32.64765625 74.25 25.75 64.2 15.75 50 15.75 35.85 15.75 25.8 25.75
L 25.75 25.75
Q 15.75 35.75 15.75 50 15.75 64.2 25.75 74.25 35.8 84.25 50 84.25 64.25 84.25 74.25 74.25
L 74.25 74.2
Q 76.4861328125 71.952734375 78.2 69.5 84.25 60.9857421875 84.25 50
M 71.1 28.85
L 71.15 28.9
Q 76.688671875 34.4705078125 78.7 41.5 79.85 45.5123046875 79.85 50 79.85 61.2814453125 72.6 69.5 71.8892578125 70.315234375 71.1 71.1 62.4 79.85 50 79.85 37.7 79.85 28.9 71.1 20.15 62.35 20.15 50 20.15 37.65 28.9 28.9 37.65 20.15 50 20.15 62.4 20.15 71.1 28.85
M 53.35 29.25
Q 50.5 27.1 46.7 29.25
L 30.55 41
Q 26.8 43.65 30.6 46.4
L 32.45 47.7 32.45 62.05
Q 32.45 67.35 37.8 67.35
L 62.25 67.35
Q 67.6 67.35 67.6 62.05
L 67.6 47.7 69.45 46.4
Q 73.25 43.65 69.5 41
L 53.35 29.25
M 41.15 46.7
Q 41.15 43.6 44.25 43.6
L 55.75 43.6
Q 58.8 43.6 58.8 46.7
L 58.8 54.8
Q 58.8 57.9 55.75 57.9
L 44.25 57.9
Q 41.15 57.9 41.15 54.8
L 41.15 46.7 Z"/>
</g>

</defs>

<g transform="matrix( 1, 0, 0, 1, 0,0) ">
<use xlink:href="#Layer1_0_FILL"/>
</g>

<g transform="matrix( 1, 0, 0, 1, -3.4,-28) ">
<clipPath id="Mask_Mask_1">
<rect x="-2.9" y="-2" width="112.6" height="20.8" fill="#FFFFFF" stroke="none"/>
</clipPath>

<text clip-path="url(#Mask_Mask_1)" writing-mode="lr"><tspan x="-0.85" y="13.6" baseline-shift="0%" kerning="auto" font-family="Arial_Regular" font-size="15" fill="#999999" xml:space="preserve">Nintendo Switch</tspan></text>
</g>
</svg>
