
<svg xmlns="http://www.w3.org/2000/svg" version="1.1" xmlns:xlink="http://www.w3.org/1999/xlink" x="0px" y="0px" viewBox="0 0 100 100">
<defs>
<g id="Layer1_0_FILL">
<path fill="#FFFFFF" stroke="none" d="
M 28.15 48.5
Q 27.65 48.5 27.2 48.6 26.1 48.85 25.25 49.7 24 50.85 24 52.55 24 53.15 24.15 53.65 23.6 53.5 23 53.5 21.3 53.5 20.05 54.7 18.85 55.95 18.85 57.55 18.85 58.05 18.95 58.5 19.2 59.55 20.05 60.4 21.3 61.6 23 61.6 23.6 61.6 24.2 61.45 24 61.95 24 62.6 24 64.3 25.25 65.45 26.1 66.3 27.2 66.55 27.65 66.65 28.15 66.65 29.85 66.65 31.1 65.45 32.3 64.3 32.3 62.6 32.3 61.95 32.15 61.4 32.75 61.6 33.4 61.6 35.1 61.6 36.35 60.4 37.2 59.55 37.45 58.5 37.55 58.05 37.55 57.55 37.55 55.95 36.35 54.7 35.1 53.5 33.4 53.5 32.75 53.5 32.15 53.65 32.3 53.15 32.3 52.55 32.3 50.85 31.1 49.7 29.85 48.5 28.15 48.5
M 28.05 20.25
Q 24.25 20.25 21.6 22.85 18.85 25.55 18.85 29.2 18.85 30.3 19.1 31.25 19.65 33.7 21.6 35.55 24.25 38.15 28.05 38.15 31.9 38.15 34.6 35.55 36.5 33.7 37.1 31.3 37.3 30.3 37.3 29.2 37.3 25.55 34.6 22.85 31.9 20.25 28.05 20.25
M 88.75 29.05
Q 88.75 20 82.25 13.6 76.2 7.8 67.95 7.35 64.25 7.25 60.5 7.25 59.3 7.25 58 7.25 55.8 7.25 54.3 7.25
L 54.3 90.9
Q 55.8 90.9 58 90.9 59.3 90.9 60.5 90.9 64.25 90.9 67.95 90.9 76.2 90.3 82.25 84.45 88.6 78.35 88.75 69.5 88.75 29.3 88.75 29.05
M 66.85 24.25
Q 66.85 22.6 68.05 21.4 69.3 20.2 71 20.2 71.5 20.2 71.95 20.3 73.05 20.55 73.9 21.4 75.15 22.6 75.15 24.25 75.15 24.9 74.95 25.45 75.55 25.3 76.15 25.3 77.85 25.3 79.1 26.45 79.95 27.3 80.2 28.35 80.3 28.8 80.3 29.3 80.3 30.95 79.1 32.15 77.85 33.35 76.15 33.35 75.55 33.35 75 33.2 75.15 33.75 75.15 34.3 75.15 36 73.9 37.15 73.05 38 71.95 38.25 71.5 38.35 71 38.35 69.3 38.35 68.05 37.15 66.85 36 66.85 34.3 66.85 33.75 67 33.2 66.4 33.35 65.75 33.35 64.05 33.35 62.8 32.15 61.6 30.95 61.6 29.3 61.6 28.8 61.7 28.35 61.95 27.3 62.8 26.45 64.05 25.3 65.75 25.3 66.4 25.3 67 25.5 66.85 24.9 66.85 24.25
M 77.55 51.3
Q 79.5 53.2 80.05 55.6 80.3 56.55 80.3 57.65 80.3 61.3 77.55 64 74.9 66.6 71.1 66.6 67.25 66.6 64.55 64 61.85 61.3 61.85 57.65 61.85 56.55 62.05 55.55 62.65 53.2 64.55 51.3 67.25 48.7 71.1 48.7 74.9 48.7 77.55 51.3 Z"/>
</g>

<path id="Layer1_0_1_STROKES" stroke="#FFFFFF" stroke-width="5" stroke-linejoin="round" stroke-linecap="round" fill="none" d="
M 41.5 8.75
Q 42.7 8.75 43.65 8.75
L 43.65 89.45
Q 42.7 89.45 41.5 89.45 40.25 89.45 39 89.45 35.3 89.45 31.65 89.35 23.95 88.9 18.4 83.55
L 18.35 83.5
Q 12.25 77.55 12.25 69.1 12.25 68.85 12.25 28.65 12.4 20.45 18.35 14.7 23.95 9.25 31.65 8.75 35.3 8.75 39 8.75 40.25 8.75 41.5 8.75 Z"/>

</defs>

<g transform="matrix( 1, 0, 0, 1, 0,0) ">
<use xlink:href="#Layer1_0_FILL"/>

<use xlink:href="#Layer1_0_1_STROKES"/>
</g>

<g transform="matrix( 1, 0, 0, 1, -3.4,-28) ">
<clipPath id="Mask_Mask_1">
<rect x="-2.9" y="-2" width="112.6" height="20.8" fill="#FFFFFF" stroke="none"/>
</clipPath>

<text clip-path="url(#Mask_Mask_1)" writing-mode="lr"><tspan x="-0.85" y="13.6" baseline-shift="0%" kerning="auto" font-family="Arial_Regular" font-size="15" fill="#999999" xml:space="preserve">Nintendo Switch</tspan></text>
</g>
</svg>
