
<svg xmlns="http://www.w3.org/2000/svg" version="1.1" xmlns:xlink="http://www.w3.org/1999/xlink" x="0px" y="0px" viewBox="0 0 100 100">
<defs>
<linearGradient id="Gradient_1" gradientUnits="userSpaceOnUse" x1="50" y1="8.5" x2="50" y2="33" spreadMethod="pad">
<stop  offset="0%" stop-color="#404040"/>

<stop  offset="100%" stop-color="#1B1B1B"/>
</linearGradient>

<g id="Layer1_0_FILL">
<path fill="#F5F5F5" stroke="none" d="
M 41.25 13.6
Q 40.853125 14.03828125 40.85 14.65
L 40.85 34.85
Q 40.852734375 36.8091796875 39.75 38.3 44.534375 40 50 40 55.4654296875 40 60.2 38.3 59.146875 36.8091796875 59.15 34.85
L 59.15 14.65
Q 59.1466796875 14.0384765625 58.7 13.6
L 58.7 13.55
Q 58.26171875 13.153125 57.65 13.15
L 42.35 13.15
Q 41.73828125 13.153125 41.3 13.55
L 41.25 13.6
M 55.05 25.95
L 44.9 25.95 50 17 55.05 25.95 Z"/>

<path fill="#1B1B1B" stroke="none" d="
M 44.9 25.95
L 55.05 25.95 50 17 44.9 25.95
M 87.9 32.35
Q 87.57109375 32.3228515625 87.25 32.35
L 70.1 32.35
Q 67.097265625 35.09609375 63.65 36.85 64.29296875 37.3529296875 65.15 37.35
L 87.2 37.35
Q 89.8697265625 38.004296875 90.35 40.4
L 90.35 59.5
Q 89.82890625 61.9138671875 87.2 62.65
L 65.15 62.65
Q 64.1107421875 62.6462890625 63.35 63.35 62.6462890625 64.1107421875 62.65 65.15
L 62.65 87.2
Q 61.913671875 89.8287109375 59.5 90.35
L 40.4 90.35
Q 38.004296875 89.8701171875 37.35 87.2
L 37.35 65.15
Q 37.353515625 64.1107421875 36.6 63.35 35.8890625 62.6462890625 34.85 62.65
L 12.75 62.65
Q 10.1720703125 61.9140625 9.65 59.5
L 9.65 40.4
Q 10.130859375 38.0041015625 12.8 37.35
L 34.85 37.35
Q 35.7068359375 37.3529296875 36.35 36.85 32.9025390625 35.0958984375 29.85 32.35
L 12.75 32.35
Q 12.4279296875 32.3154296875 12.05 32.35 12.02421875 32.3896484375 11.95 32.4 11.8716796875 32.416796875 11.75 32.45 5.4810546875 33.8580078125 4.7 39.7
L 4.65 39.85
Q 4.6654296875 39.916796875 4.65 39.95 4.63046875 40.206640625 4.65 40.4
L 4.65 59.55
Q 4.62421875 59.88046875 4.65 60.2 4.6841796875 60.261328125 4.7 60.3 5.60859375 65.9333984375 11.6 67.5 12.0111328125 67.6515625 12.5 67.65
L 32.35 67.65 32.35 87.2
Q 32.315234375 87.5712890625 32.35 87.9 32.3896484375 87.976171875 32.4 88 32.416796875 88.128125 32.45 88.2 33.853125 94.498828125 39.65 95.3 39.7677734375 95.31484375 39.85 95.3 40.028125 95.350390625 40.2 95.35 40.2318359375 95.3505859375 40.25 95.35
L 59.55 95.35
Q 59.8837890625 95.375390625 60.2 95.3
L 60.3 95.3
Q 65.933203125 94.3912109375 67.5 88.4 67.6515625 87.9888671875 67.65 87.5
L 67.65 67.65 87.5 67.65
Q 87.98828125 67.6515625 88.4 67.5 94.3912109375 65.93359375 95.3 60.3
L 95.3 60.2
Q 95.375390625 59.8837890625 95.35 59.55
L 95.35 40.25
Q 95.3505859375 40.2318359375 95.35 40.2 95.350390625 40.028125 95.3 39.85
L 95.3 39.7
Q 94.5166015625 33.841796875 88.2 32.45 88.1513671875 32.4357421875 88.1 32.4 88.05859375 32.40703125 88 32.4
L 87.9 32.35 Z"/>

<path fill="#D7D7D7" stroke="none" d="
M 40.85 14.65
Q 40.853125 14.03828125 41.25 13.6
L 41.3 13.55
Q 41.73828125 13.153125 42.35 13.15
L 57.65 13.15
Q 58.26171875 13.153125 58.7 13.55
L 58.7 13.6
Q 59.1466796875 14.0384765625 59.15 14.65
L 59.15 34.85
Q 59.146875 36.8091796875 60.2 38.3 61.9890625 37.69765625 63.65 36.85 63.5041015625 36.752734375 63.35 36.6 62.6462890625 35.8890625 62.65 34.85
L 62.65 12.75
Q 61.9140625 10.1720703125 59.5 9.65
L 40.4 9.65
Q 38.0041015625 10.130859375 37.35 12.8
L 37.35 34.85
Q 37.353515625 35.8890625 36.6 36.6 36.4958984375 36.752734375 36.35 36.85 38.0109375 37.69765625 39.75 38.3 40.852734375 36.8091796875 40.85 34.85
L 40.85 14.65 Z"/>

<path fill="url(#Gradient_1)" stroke="none" d="
M 67.65 12.5
Q 67.6515625 12.0111328125 67.5 11.6 65.9333984375 5.60859375 60.3 4.7 60.261328125 4.6841796875 60.2 4.65 59.88046875 4.62421875 59.55 4.65
L 40.3 4.65
Q 40.2447265625 4.64921875 40.2 4.65 40.028125 4.649609375 39.85 4.65
L 39.7 4.7
Q 33.8359375 5.4841796875 32.45 11.8
L 32.4 11.9
Q 32.4072265625 11.9375 32.4 11.95
L 32.35 12.1
Q 32.3228515625 12.4291015625 32.35 12.75
L 32.35 32.35 29.85 32.35
Q 32.9025390625 35.0958984375 36.35 36.85 36.4958984375 36.752734375 36.6 36.6 37.353515625 35.8890625 37.35 34.85
L 37.35 12.8
Q 38.0041015625 10.130859375 40.4 9.65
L 59.5 9.65
Q 61.9140625 10.1720703125 62.65 12.75
L 62.65 34.85
Q 62.6462890625 35.8890625 63.35 36.6 63.5041015625 36.752734375 63.65 36.85 67.097265625 35.09609375 70.1 32.35
L 67.65 32.35 67.65 12.5 Z"/>

<path fill="#4F4F4F" stroke="none" d="
M 86.85 42.35
Q 86.8466796875 41.7384765625 86.4 41.3
L 86.4 41.25
Q 85.96171875 40.853125 85.35 40.85
L 65.15 40.85
Q 62.6609375 40.8533203125 60.9 39.1 60.5267578125 38.7251953125 60.2 38.3 55.4654296875 40 50 40 44.534375 40 39.75 38.3 39.473046875 38.7251953125 39.1 39.1 37.338671875 40.853515625 34.85 40.85
L 14.65 40.85
Q 14.03828125 40.853125 13.6 41.25
L 13.55 41.3
Q 13.153125 41.73828125 13.15 42.35
L 13.15 57.65
Q 13.153125 58.26171875 13.55 58.7
L 13.6 58.7
Q 14.0384765625 59.1466796875 14.65 59.15
L 34.85 59.15
Q 37.338671875 59.14609375 39.1 60.9 40.8533203125 62.6609375 40.85 65.15
L 40.85 85.35
Q 40.853125 85.96171875 41.25 86.4
L 41.3 86.4
Q 41.7384765625 86.8466796875 42.35 86.85
L 57.65 86.85
Q 58.26171875 86.8466796875 58.7 86.4
L 58.7 86.4
Q 59.1466796875 85.96171875 59.15 85.35
L 59.15 65.15
Q 59.1462890625 62.6607421875 60.9 60.9 62.6607421875 59.1462890625 65.15 59.15
L 85.35 59.15
Q 85.96171875 59.1466796875 86.4 58.7
L 86.4 58.7
Q 86.8466796875 58.26171875 86.85 57.65
L 86.85 42.35
M 25.95 55.1
L 17 50 25.95 44.95 25.95 55.1
M 44.9 74.05
L 55.05 74.05 50 83 44.9 74.05
M 74.05 55.1
L 74.05 44.95 83 50 74.05 55.1 Z"/>

<path fill="#9A9A9A" stroke="none" d="
M 74.05 44.95
L 74.05 55.1 83 50 74.05 44.95
M 55.05 74.05
L 44.9 74.05 50 83 55.05 74.05
M 17 50
L 25.95 55.1 25.95 44.95 17 50 Z"/>

<path fill="#313131" stroke="none" d="
M 86.4 41.3
Q 86.8466796875 41.7384765625 86.85 42.35
L 86.85 57.65
Q 86.8466796875 58.26171875 86.4 58.7
L 86.4 58.7
Q 85.96171875 59.1466796875 85.35 59.15
L 65.15 59.15
Q 62.6607421875 59.1462890625 60.9 60.9 59.1462890625 62.6607421875 59.15 65.15
L 59.15 85.35
Q 59.1466796875 85.96171875 58.7 86.4
L 58.7 86.4
Q 58.26171875 86.8466796875 57.65 86.85
L 42.35 86.85
Q 41.7384765625 86.8466796875 41.3 86.4
L 41.25 86.4
Q 40.853125 85.96171875 40.85 85.35
L 40.85 65.15
Q 40.8533203125 62.6609375 39.1 60.9 37.338671875 59.14609375 34.85 59.15
L 14.65 59.15
Q 14.0384765625 59.1466796875 13.6 58.7
L 13.55 58.7
Q 13.153125 58.26171875 13.15 57.65
L 13.15 42.35
Q 13.153125 41.73828125 13.55 41.3
L 13.6 41.25
Q 14.03828125 40.853125 14.65 40.85
L 34.85 40.85
Q 37.338671875 40.853515625 39.1 39.1 39.473046875 38.7251953125 39.75 38.3 38.0109375 37.69765625 36.35 36.85 35.7068359375 37.3529296875 34.85 37.35
L 12.8 37.35
Q 10.130859375 38.0041015625 9.65 40.4
L 9.65 59.5
Q 10.1720703125 61.9140625 12.75 62.65
L 34.85 62.65
Q 35.8890625 62.6462890625 36.6 63.35 37.353515625 64.1107421875 37.35 65.15
L 37.35 87.2
Q 38.004296875 89.8701171875 40.4 90.35
L 59.5 90.35
Q 61.913671875 89.8287109375 62.65 87.2
L 62.65 65.15
Q 62.6462890625 64.1107421875 63.35 63.35 64.1107421875 62.6462890625 65.15 62.65
L 87.2 62.65
Q 89.82890625 61.9138671875 90.35 59.5
L 90.35 40.4
Q 89.8697265625 38.004296875 87.2 37.35
L 65.15 37.35
Q 64.29296875 37.3529296875 63.65 36.85 61.9890625 37.69765625 60.2 38.3 60.5267578125 38.7251953125 60.9 39.1 62.6609375 40.8533203125 65.15 40.85
L 85.35 40.85
Q 85.96171875 40.853125 86.4 41.25
L 86.4 41.3 Z"/>
</g>

</defs>

<g transform="matrix( 1, 0, 0, 1, 0,0) ">
<use xlink:href="#Layer1_0_FILL"/>
</g>

<g transform="matrix( 1, 0, 0, 1, -3.4,-28) ">
<clipPath id="Mask_Mask_1">
<rect x="-2.9" y="-2" width="112.6" height="20.8" fill="#FFFFFF" stroke="none"/>
</clipPath>

<text clip-path="url(#Mask_Mask_1)" writing-mode="lr"><tspan x="-0.85" y="13.6" baseline-shift="0%" kerning="auto" font-family="Arial_Regular" font-size="15" fill="#999999" xml:space="preserve">Nintendo Switch</tspan></text>
</g>
</svg>
