
<svg xmlns="http://www.w3.org/2000/svg" version="1.1" xmlns:xlink="http://www.w3.org/1999/xlink" x="0px" y="0px" viewBox="0 0 100 100">
<defs>
<linearGradient id="Gradient_1" gradientUnits="userSpaceOnUse" x1="49.95" y1="-1.9625000000000021" x2="49.95" y2="58.962500000000006" spreadMethod="pad">
<stop  offset="36.07843137254902%" stop-color="#FFFFFF" stop-opacity="0"/>

<stop  offset="68.23529411764706%" stop-color="#FFFFFF"/>
</linearGradient>

<g id="Layer1_0_FILL">
<path fill="url(#Gradient_1)" stroke="none" d="
M 58.4 35.35
L 58.4 11 41.45 11 41.45 35.25 32.3 35.35 32.25 37.35 49.9 58.95 67.5 37.35 67.6 35.35 58.4 35.35 Z"/>

<path fill="#FFFFFF" stroke="none" d="
M 91.65 69.8
L 91.65 54.7
Q 91.65 41 77.95 41
L 72.25 41
Q 72.21015625 41.0755859375 72.15 41.15
L 65.1 49.8 76.15 49.8 76.15 76.4 23.95 76.4 23.95 49.8 34.65 49.8 27.6 41.15
Q 27.5404296875 41.0755859375 27.45 41
L 22.1 41
Q 8.4 41 8.4 54.7
L 8.4 69.8
Q 8.4 83.5 22.1 83.5
L 77.95 83.5
Q 91.65 83.5 91.65 69.8 Z"/>
</g>

</defs>

<g transform="matrix( 1, 0, 0, 1, 0,0) ">
<use xlink:href="#Layer1_0_FILL"/>
</g>

<g transform="matrix( 1, 0, 0, 1, -3.4,-28) ">
<clipPath id="Mask_Mask_1">
<rect x="13.8" y="-2" width="79.2" height="20.8" fill="#FFFFFF" stroke="none"/>
</clipPath>

<text clip-path="url(#Mask_Mask_1)" writing-mode="lr"><tspan x="15.9" y="13.6" baseline-shift="0%" kerning="auto" font-family="Arial_Regular" font-size="15" fill="#999999" xml:space="preserve">Wii &amp; Wii U</tspan></text>
</g>
</svg>
