
<svg xmlns="http://www.w3.org/2000/svg" version="1.1" xmlns:xlink="http://www.w3.org/1999/xlink" x="0px" y="0px" viewBox="0 0 100 100">
<defs>
<g id="Layer1_0_FILL">
<path fill="#D7D7D7" stroke="none" d="
M 79.85 39.85
Q 79.85 28.1 68.1 28.1
L 31.95 28.1
Q 20.2 28.1 20.2 39.85
L 20.2 60.15
Q 20.2 71.9 31.95 71.9
L 68.1 71.9
Q 79.85 71.9 79.85 60.15
L 79.85 39.85
M 68.1 35.6
Q 72.35 35.6 72.35 39.85
L 72.35 60.15
Q 72.35 64.4 68.1 64.4
L 31.95 64.4
Q 27.7 64.4 27.7 60.15
L 27.7 39.85
Q 27.7 35.6 31.95 35.6
L 68.1 35.6 Z"/>

<path fill="#F5F5F5" stroke="none" d="
M 72.35 39.85
Q 72.35 35.6 68.1 35.6
L 31.95 35.6
Q 27.7 35.6 27.7 39.85
L 27.7 60.15
Q 27.7 64.4 31.95 64.4
L 68.1 64.4
Q 72.35 64.4 72.35 60.15
L 72.35 39.85
M 48.25 44.95
L 43.4 44.95 43.4 58.6 39.65 58.6 39.65 44.95 34.8 44.95 34.8 41.65 48.25 41.65 48.25 44.95
M 61.25 41.65
L 65.25 41.65 58.25 58.6 55.25 58.6 48.45 41.65 52.7 41.65 56.9 52.75 56.95 52.75 61.25 41.65 Z"/>

<path fill="#4196F3" stroke="none" d="
M 65.25 41.65
L 61.25 41.65 56.95 52.75 56.9 52.75 52.7 41.65 48.45 41.65 55.25 58.6 58.25 58.6 65.25 41.65
M 43.4 44.95
L 48.25 44.95 48.25 41.65 34.8 41.65 34.8 44.95 39.65 44.95 39.65 58.6 43.4 58.6 43.4 44.95 Z"/>
</g>

<path id="Layer1_0_1_STROKES" stroke="#FFFFFF" stroke-width="4" stroke-linejoin="round" stroke-linecap="round" fill="none" d="
M 68.1 35.6
Q 72.35 35.6 72.35 39.85
L 72.35 60.15
Q 72.35 64.4 68.1 64.4
L 31.95 64.4
Q 27.7 64.4 27.7 60.15
L 27.7 39.85
Q 27.7 35.6 31.95 35.6
L 68.1 35.6 Z"/>

<path id="Layer1_0_2_STROKES" stroke="#404040" stroke-width="4" stroke-linejoin="round" stroke-linecap="round" fill="none" d="
M 79.85 39.85
Q 79.85 28.1 68.1 28.1
L 31.95 28.1
Q 20.2 28.1 20.2 39.85
L 20.2 60.15
Q 20.2 71.9 31.95 71.9
L 68.1 71.9
Q 79.85 71.9 79.85 60.15
L 79.85 39.85 Z"/>

</defs>

<g transform="matrix( 1, 0, 0, 1, 0,0) ">
<use xlink:href="#Layer1_0_FILL"/>

<use xlink:href="#Layer1_0_1_STROKES"/>

<use xlink:href="#Layer1_0_2_STROKES"/>
</g>

<g transform="matrix( 1, 0, 0, 1, -3.4,-28) ">
<clipPath id="Mask_Mask_1">
<rect x="13.8" y="-2" width="79.2" height="20.8" fill="#FFFFFF" stroke="none"/>
</clipPath>

<text clip-path="url(#Mask_Mask_1)" writing-mode="lr"><tspan x="15.9" y="13.6" baseline-shift="0%" kerning="auto" font-family="Arial_Regular" font-size="15" fill="#999999" xml:space="preserve">Wii &amp; Wii U</tspan></text>
</g>
</svg>
