
<svg xmlns="http://www.w3.org/2000/svg" version="1.1" xmlns:xlink="http://www.w3.org/1999/xlink" x="0px" y="0px" viewBox="0 0 100 100">
<defs>
<g id="Layer1_0_FILL">
<path fill="#D7D7D7" stroke="none" d="
M 91.5 59.15
L 91.5 39.45
Q 91.2 27.75 71.3 28.95 56.406640625 29.810546875 30.45 34.45 28.38515625 34.8541015625 26.25 35.25 19.3646484375 36.5232421875 11.75 38.05 8.7 39 8.5 42.8
L 8.5 65.65
Q 8.7 69.45 11.75 70.05
L 77.8 71.2
Q 90.9 70.95 91.5 59.15
M 82.85 37.65
Q 83.95 38.2 84 39.45
L 84 58.8
Q 83.45 63.55 77.8 63.7
L 16 62.65 16 44.85
Q 21.3123046875 43.7990234375 26.25 42.85 28.3853515625 42.476171875 30.45 42.1 56.7873046875 37.323046875 71.75 36.45 79.1 36 82.85 37.65 Z"/>

<path fill="#F5F5F5" stroke="none" d="
M 84 39.45
Q 83.95 38.2 82.85 37.65 79.1 36 71.75 36.45 56.7873046875 37.323046875 30.45 42.1 28.3853515625 42.476171875 26.25 42.85 21.3123046875 43.7990234375 16 44.85
L 16 62.65 77.8 63.7
Q 83.45 63.55 84 58.8
L 84 39.45
M 53.75 45.55
L 53.75 42.65 65 42.65 65 45.55 57.6 54.5 65.25 54.5 65.25 57.5 53.5 57.5 53.5 54.5 61 45.55 53.75 45.55
M 73.25 42.65
Q 74.4 42.65 75.4 42.85 76.45 43.05 77.2 43.6 77.95 44.1 78.4 44.95 78.85 45.85 78.85 47.15 78.85 48.7 78.05 49.8 77.25 50.95 75.65 51.2
L 79.45 57.5 75.5 57.5 72.4 51.55 70.8 51.55 70.8 57.5 67.5 57.5 67.5 42.65 73.25 42.65
M 70.8 45.4
L 70.8 48.8 72.7 48.8
Q 73.15 48.8 73.65 48.75 74.15 48.7 74.55 48.55 74.95 48.4 75.2 48.05 75.45 47.75 75.45 47.1 75.45 46.55 75.25 46.2 75 45.9 74.65 45.7 74.3 45.5 73.85 45.45 73.35 45.4 72.95 45.4
L 70.8 45.4 Z"/>

<path fill="#999999" stroke="none" d="
M 75.4 42.85
Q 74.4 42.65 73.25 42.65
L 67.5 42.65 67.5 57.5 70.8 57.5 70.8 51.55 72.4 51.55 75.5 57.5 79.45 57.5 75.65 51.2
Q 77.25 50.95 78.05 49.8 78.85 48.7 78.85 47.15 78.85 45.85 78.4 44.95 77.95 44.1 77.2 43.6 76.45 43.05 75.4 42.85
M 70.8 48.8
L 70.8 45.4 72.95 45.4
Q 73.35 45.4 73.85 45.45 74.3 45.5 74.65 45.7 75 45.9 75.25 46.2 75.45 46.55 75.45 47.1 75.45 47.75 75.2 48.05 74.95 48.4 74.55 48.55 74.15 48.7 73.65 48.75 73.15 48.8 72.7 48.8
L 70.8 48.8
M 53.75 42.65
L 53.75 45.55 61 45.55 53.5 54.5 53.5 57.5 65.25 57.5 65.25 54.5 57.6 54.5 65 45.55 65 42.65 53.75 42.65 Z"/>
</g>

<path id="Layer1_0_1_STROKES" stroke="#FFFFFF" stroke-width="4" stroke-linejoin="round" stroke-linecap="round" fill="none" d="
M 82.85 37.65
Q 83.95 38.2 84 39.45
L 84 58.8
Q 83.45 63.55 77.8 63.7
L 16 62.65 16 44.85
Q 21.3123046875 43.7990234375 26.25 42.875 28.3853515625 42.476171875 30.45 42.1 56.7873046875 37.323046875 71.75 36.45 79.1 36 82.85 37.65 Z"/>

<path id="Layer1_0_2_STROKES" stroke="#404040" stroke-width="4" stroke-linejoin="round" stroke-linecap="round" fill="none" d="
M 91.5 59.15
L 91.5 39.45
Q 91.2 27.75 71.3 28.95 56.406640625 29.810546875 30.45 34.475 28.38515625 34.8541015625 26.25 35.25 19.3646484375 36.5232421875 11.75 38.05 8.7 39 8.5 42.8
L 8.5 65.65
Q 8.7 69.45 11.75 70.05
L 77.8 71.2
Q 90.9 70.95 91.5 59.15 Z"/>

</defs>

<g transform="matrix( 1, 0, 0, 1, 0,0) ">
<use xlink:href="#Layer1_0_FILL"/>

<use xlink:href="#Layer1_0_1_STROKES"/>

<use xlink:href="#Layer1_0_2_STROKES"/>
</g>

<g transform="matrix( 1, 0, 0, 1, -3.4,-28) ">
<clipPath id="Mask_Mask_1">
<rect x="13.8" y="-2" width="79.2" height="20.8" fill="#FFFFFF" stroke="none"/>
</clipPath>

<text clip-path="url(#Mask_Mask_1)" writing-mode="lr"><tspan x="15.9" y="13.6" baseline-shift="0%" kerning="auto" font-family="Arial_Regular" font-size="15" fill="#999999" xml:space="preserve">Wii &amp; Wii U</tspan></text>
</g>
</svg>
