
<svg xmlns="http://www.w3.org/2000/svg" version="1.1" xmlns:xlink="http://www.w3.org/1999/xlink" x="0px" y="0px" viewBox="0 0 100 100">
<defs>
<g id="Layer1_0_FILL">
<path fill="#D7D7D7" stroke="none" d="
M 88.75 77.8
L 86.55 24.85
Q 81.45 14.1 71.5 12.35
L 18.45 16.25
Q 15.15 18.2 14.95 21.85 17.15 50.95 11.2 78.1 12.7 87.95 21.15 87.7
L 71.5 87.7
Q 81.8 86.45 88.75 77.8
M 65.65 20.8
Q 69.45 21.5 69.95 24.55 71.85 46.75 70.45 68.95 68.75 73.65 63.95 75.05 43.35 76.6 23.85 75.5 19.35 74.55 18.8 70.45 23.25 51.8 22 23.7
L 65.65 20.8 Z"/>

<path fill="#F5F5F5" stroke="none" d="
M 69.95 24.55
Q 69.45 21.5 65.65 20.8
L 22 23.7
Q 23.25 51.8 18.8 70.45 19.35 74.55 23.85 75.5 43.35 76.6 63.95 75.05 68.75 73.65 70.45 68.95 71.85 46.75 69.95 24.55
M 54.4 47.05
L 64.5 47.05 64.5 52.1 48.95 52.1 48.95 27.3 54.4 27.3 54.4 47.05 Z"/>

<path fill="#9A9A9A" stroke="none" d="
M 64.5 47.05
L 54.4 47.05 54.4 27.3 48.95 27.3 48.95 52.1 64.5 52.1 64.5 47.05 Z"/>
</g>

<path id="Layer1_0_1_STROKES" stroke="#404040" stroke-width="5" stroke-linejoin="round" stroke-linecap="round" fill="none" d="
M 88.75 77.8
L 86.55 24.85
Q 81.45 14.1 71.5 12.35
L 18.45 16.25
Q 15.15 18.2 14.95 21.85 17.15 50.95 11.2 78.1 12.7 87.95 21.15 87.7
L 71.5 87.7
Q 81.8 86.45 88.75 77.8 Z"/>

<path id="Layer1_0_2_STROKES" stroke="#FFFFFF" stroke-width="4" stroke-linejoin="round" stroke-linecap="round" fill="none" d="
M 65.65 20.8
Q 69.45 21.5 69.95 24.55 71.85 46.75 70.45 68.95 68.75 73.65 63.95 75.05 43.35 76.6 23.85 75.5 19.35 74.55 18.8 70.45 23.25 51.8 22 23.7
L 65.65 20.8 Z"/>

</defs>

<g transform="matrix( 1, 0, 0, 1, 0,0) ">
<use xlink:href="#Layer1_0_FILL"/>

<use xlink:href="#Layer1_0_1_STROKES"/>

<use xlink:href="#Layer1_0_2_STROKES"/>
</g>

<g transform="matrix( 1, 0, 0, 1, -3.4,-28) ">
<clipPath id="Mask_Mask_1">
<rect x="13.8" y="-2" width="79.2" height="20.8" fill="#FFFFFF" stroke="none"/>
</clipPath>

<text clip-path="url(#Mask_Mask_1)" writing-mode="lr"><tspan x="15.9" y="13.6" baseline-shift="0%" kerning="auto" font-family="Arial_Regular" font-size="15" fill="#999999" xml:space="preserve">Wii &amp; Wii U</tspan></text>
</g>
</svg>
