
<svg xmlns="http://www.w3.org/2000/svg" version="1.1" xmlns:xlink="http://www.w3.org/1999/xlink" x="0px" y="0px" viewBox="0 0 100 100">
<defs>
<g id="Layer1_0_FILL">
<path fill="#404040" stroke="none" d="
M 82.45 39.85
Q 81.92109375 38.1166015625 81.2 36.45 79.71875 33.0673828125 77.4 30 75.8546875 27.894921875 73.9 25.95
L 73.95 25.95
Q 64.1 16.1 50 16.1 35.9 16.1 25.9 25.95 23.973828125 27.895703125 22.4 30 19.0693359375 34.553515625 17.45 39.85 17.1078125 41.080078125 16.8 42.35 16.05 46.0087890625 16.05 50 16.05 64.05 25.9 73.95
L 25.9 74
Q 35.9 83.9 50 83.9 64.05 83.9 73.9 74
L 73.95 73.95
Q 83.9 64.05 83.9 50 83.9 44.6232421875 82.45 39.85
M 77.65 39.85
Q 78.1232421875 41.0759765625 78.45 42.35 79.4 45.9796875 79.4 50 79.4 62.15 70.75 70.8 62.15 79.4 50 79.4 37.8 79.4 29.15 70.8 20.6 62.15 20.6 50 20.6 45.9796875 21.5 42.35 21.858203125 41.0759765625 22.3 39.85 24.2318359375 34.459375 28.35 30 28.755859375 29.5962890625 29.15 29.2
L 29.15 29.15
Q 37.8 20.6 50 20.6 62.15 20.6 70.75 29.2 71.1486328125 29.5962890625 71.5 30 75.725390625 34.459375 77.65 39.85 Z"/>

<path fill="#D7D7D7" stroke="none" d="
M 78.45 42.35
Q 78.1232421875 41.0759765625 77.65 39.85 75.725390625 34.459375 71.5 30 71.1486328125 29.5962890625 70.75 29.2 62.15 20.6 50 20.6 37.8 20.6 29.15 29.15
L 29.15 29.2
Q 28.755859375 29.5962890625 28.35 30 24.2318359375 34.459375 22.3 39.85 21.858203125 41.0759765625 21.5 42.35 20.6 45.9796875 20.6 50 20.6 62.15 29.15 70.8 37.8 79.4 50 79.4 62.15 79.4 70.75 70.8 79.4 62.15 79.4 50 79.4 45.9796875 78.45 42.35
M 65 30
Q 66.3830078125 31.0416015625 67.65 32.3
L 67.7 32.3
Q 71.132421875 35.732421875 72.95 39.85 73.4890625 41.0701171875 73.85 42.35 75 45.938671875 75 50 75 60.35 67.7 67.7 60.35 75 50 75 39.6 75 32.3 67.7
L 32.3 67.65
Q 25 60.3 25 50 25 45.938671875 26.1 42.35 26.5109375 41.0701171875 27.05 39.85 28.867578125 35.732421875 32.3 32.3 33.5583984375 31.0416015625 34.9 30 41.3927734375 25 50 25 58.5244140625 25 65 30 Z"/>

<path fill="#FFFFFF" stroke="none" d="
M 67.65 32.3
Q 66.3830078125 31.0416015625 65 30 58.5244140625 25 50 25 41.3927734375 25 34.9 30 33.5583984375 31.0416015625 32.3 32.3 28.867578125 35.732421875 27.05 39.85 26.5109375 41.0701171875 26.1 42.35 25 45.938671875 25 50 25 60.3 32.3 67.65
L 32.3 67.7
Q 39.6 75 50 75 60.35 75 67.7 67.7 75 60.35 75 50 75 45.938671875 73.85 42.35 73.4890625 41.0701171875 72.95 39.85 71.132421875 35.732421875 67.7 32.3
L 67.65 32.3
M 42.45 30
Q 45.947265625 28.7 50 28.7 54.013671875 28.7 57.5 30 61.6505859375 31.5505859375 65.05 34.95 67.3220703125 37.2220703125 68.75 39.85 69.4169921875 41.0623046875 69.9 42.35 71.25 45.8892578125 71.25 50 71.25 58.8 65.05 65.05 58.8 71.25 50 71.25 41.15 71.25 34.95 65.05 28.7 58.8 28.7 50 28.7 45.8892578125 30.05 42.35 30.5330078125 41.0623046875 31.2 39.85 32.6279296875 37.2220703125 34.9 34.95
L 34.95 34.9
Q 38.3107421875 31.5392578125 42.45 30 Z"/>

<path fill="#F5F5F5" stroke="none" d="
M 50 28.7
Q 45.947265625 28.7 42.45 30 38.3107421875 31.5392578125 34.95 34.9
L 34.9 34.95
Q 32.6279296875 37.2220703125 31.2 39.85 30.5330078125 41.0623046875 30.05 42.35 28.7 45.8892578125 28.7 50 28.7 58.8 34.95 65.05 41.15 71.25 50 71.25 58.8 71.25 65.05 65.05 71.25 58.8 71.25 50 71.25 45.8892578125 69.9 42.35 69.4169921875 41.0623046875 68.75 39.85 67.3220703125 37.2220703125 65.05 34.95 61.6505859375 31.5505859375 57.5 30 54.013671875 28.7 50 28.7
M 50 36.9
L 50 49.4 50 36.9
M 58.45 58.45
Q 54.95 61.95 50 61.95 45.05 61.95 41.55 58.45 38.05 54.95 38.05 50 38.05 45.6029296875 40.8 42.35 38.05 45.6029296875 38.05 50 38.05 54.95 41.55 58.45 45.05 61.95 50 61.95 54.95 61.95 58.45 58.45 61.95 54.95 61.95 50 61.95 45.6029296875 59.2 42.35 61.95 45.6029296875 61.95 50 61.95 54.95 58.45 58.45 Z"/>
</g>

<path id="Layer1_0_1_STROKES" stroke="#A91818" stroke-width="5" stroke-linejoin="round" stroke-linecap="round" fill="none" d="
M 50 36.9
L 50 49.4
M 59.2 42.35
Q 61.95 45.6029296875 61.95 50 61.95 54.95 58.45 58.45 54.95 61.95 50 61.95 45.05 61.95 41.55 58.45 38.05 54.95 38.05 50 38.05 45.6029296875 40.8 42.35"/>

</defs>

<g transform="matrix( 1, 0, 0, 1, 0,0) ">
<use xlink:href="#Layer1_0_FILL"/>

<use xlink:href="#Layer1_0_1_STROKES"/>
</g>

<g transform="matrix( 1, 0, 0, 1, -3.4,-28) ">
<clipPath id="Mask_Mask_1">
<rect x="13.8" y="-2" width="79.2" height="20.8" fill="#FFFFFF" stroke="none"/>
</clipPath>

<text clip-path="url(#Mask_Mask_1)" writing-mode="lr"><tspan x="15.9" y="13.6" baseline-shift="0%" kerning="auto" font-family="Arial_Regular" font-size="15" fill="#999999" xml:space="preserve">Wii &amp; Wii U</tspan></text>
</g>
</svg>
