
<svg xmlns="http://www.w3.org/2000/svg" version="1.1" xmlns:xlink="http://www.w3.org/1999/xlink" x="0px" y="0px" viewBox="0 0 100 100">
<defs>
<g id="Layer1_0_FILL">
<path fill="#D7D7D7" stroke="none" d="
M 72.75 32.8
Q 63.3 25.7 49.95 25.7 36.6 25.7 27.1 32.8 17.65 39.95 17.65 50 17.65 60.1 27.1 67.2 36.6 74.35 49.95 74.35 63.3 74.35 72.75 67.2 82.25 60.1 82.25 50 82.25 39.95 72.75 32.8
M 49.95 32.85
Q 60.8 32.85 68.5 38.5 74.85 43.35 75.1 50 74.85 56.7 68.5 61.45
L 68.5 61.5
Q 60.8 67.2 49.95 67.2 39.15 67.2 31.45 61.45
L 31.4 61.45
Q 25.05 56.7 24.8 50 25.05 43.35 31.4 38.5
L 31.45 38.5
Q 39.15 32.85 49.95 32.85 Z"/>

<path fill="#F5F5F5" stroke="none" d="
M 68.5 38.5
Q 60.8 32.85 49.95 32.85 39.15 32.85 31.45 38.5
L 31.4 38.5
Q 25.05 43.35 24.8 50 25.05 56.7 31.4 61.45
L 31.45 61.45
Q 39.15 67.2 49.95 67.2 60.8 67.2 68.5 61.5
L 68.5 61.45
Q 74.85 56.7 75.1 50 74.85 43.35 68.5 38.5
M 43.1 42.35
Q 44.6 40.95 46.6 40.2 48.6 39.45 50.95 39.45 51.85 39.45 52.75 39.6 53.7 39.8 54.6 40.1 55.5 40.45 56.35 41.05 57.15 41.6 57.8 42.45
L 54.35 45.25
Q 53.7 44.45 52.75 44 51.8 43.6 50.55 43.6 49.3 43.6 48.2 44.1 47.15 44.55 46.35 45.45 45.55 46.3 45.1 47.5 44.65 48.7 44.65 50.1 44.65 51.55 45.1 52.75 45.55 53.9 46.35 54.8 47.1 55.65 48.15 56.15 49.2 56.65 50.4 56.65 51.75 56.65 52.85 56.05 53.9 55.5 54.6 54.45
L 58.3 57.25
Q 57 59.05 55.05 59.9 53.05 60.75 50.95 60.75 48.6 60.75 46.6 60.05 44.6 59.25 43.1 57.9 41.65 56.5 40.85 54.5 40.05 52.55 40.05 50.1 40.05 47.7 40.85 45.7 41.65 43.75 43.1 42.35 Z"/>

<path fill="#9A9A9A" stroke="none" d="
M 46.6 40.2
Q 44.6 40.95 43.1 42.35 41.65 43.75 40.85 45.7 40.05 47.7 40.05 50.1 40.05 52.55 40.85 54.5 41.65 56.5 43.1 57.9 44.6 59.25 46.6 60.05 48.6 60.75 50.95 60.75 53.05 60.75 55.05 59.9 57 59.05 58.3 57.25
L 54.6 54.45
Q 53.9 55.5 52.85 56.05 51.75 56.65 50.4 56.65 49.2 56.65 48.15 56.15 47.1 55.65 46.35 54.8 45.55 53.9 45.1 52.75 44.65 51.55 44.65 50.1 44.65 48.7 45.1 47.5 45.55 46.3 46.35 45.45 47.15 44.55 48.2 44.1 49.3 43.6 50.55 43.6 51.8 43.6 52.75 44 53.7 44.45 54.35 45.25
L 57.8 42.45
Q 57.15 41.6 56.35 41.05 55.5 40.45 54.6 40.1 53.7 39.8 52.75 39.6 51.85 39.45 50.95 39.45 48.6 39.45 46.6 40.2 Z"/>
</g>

<path id="Layer1_0_1_STROKES" stroke="#404040" stroke-width="5" stroke-linejoin="round" stroke-linecap="round" fill="none" d="
M 49.95 25.7
Q 63.3 25.7 72.75 32.8 82.25 39.95 82.25 50 82.25 60.1 72.75 67.2 63.3 74.35 49.95 74.35 36.6 74.35 27.1 67.2 17.65 60.1 17.65 50 17.65 39.95 27.1 32.8 36.6 25.7 49.95 25.7 Z"/>

<path id="Layer1_0_2_STROKES" stroke="#FFFFFF" stroke-width="4" stroke-linejoin="round" stroke-linecap="round" fill="none" d="
M 49.95 32.85
Q 60.8 32.85 68.5 38.5 74.85 43.35 75.1 50 74.85 56.7 68.5 61.45
L 68.5 61.5
Q 60.8 67.2 49.95 67.2 39.15 67.2 31.45 61.45
L 31.4 61.45
Q 25.05 56.7 24.8 50 25.05 43.35 31.4 38.5
L 31.45 38.5
Q 39.15 32.85 49.95 32.85 Z"/>

</defs>

<g transform="matrix( 1, 0, 0, 1, 0,0) ">
<use xlink:href="#Layer1_0_FILL"/>

<use xlink:href="#Layer1_0_1_STROKES"/>

<use xlink:href="#Layer1_0_2_STROKES"/>
</g>

<g transform="matrix( 1, 0, 0, 1, -3.4,-28) ">
<clipPath id="Mask_Mask_1">
<rect x="13.8" y="-2" width="79.2" height="20.8" fill="#FFFFFF" stroke="none"/>
</clipPath>

<text clip-path="url(#Mask_Mask_1)" writing-mode="lr"><tspan x="15.9" y="13.6" baseline-shift="0%" kerning="auto" font-family="Arial_Regular" font-size="15" fill="#999999" xml:space="preserve">Wii &amp; Wii U</tspan></text>
</g>
</svg>
