
<svg xmlns="http://www.w3.org/2000/svg" version="1.1" xmlns:xlink="http://www.w3.org/1999/xlink" x="0px" y="0px" viewBox="0 0 100 100">
<defs>
<g id="Layer1_0_FILL">
<path fill="#404040" stroke="none" d="
M 79.6 20.2
Q 79.4958984375 20.0982421875 79.45 19.95 67.325390625 8.046875 50 8.05 32.5546875 8.0458984375 20.15 20.2 7.9466796875 32.5548828125 7.95 50 7.947265625 67.394921875 20.15 79.7 20.223046875 79.772265625 20.25 79.85 32.632421875 92.0029296875 50 92 67.394140625 92.0015625 79.6 79.75 79.655078125 79.68984375 79.7 79.65
L 79.75 79.6
Q 92.0017578125 67.3421875 92 50 92.0009765625 32.5552734375 79.6 20.2
M 50 12.65
Q 65.4556640625 12.6515625 76.35 23.6 87.348828125 34.5447265625 87.35 50 87.348828125 65.4546875 76.35 76.45 65.4556640625 87.3478515625 50 87.35 34.5453125 87.3474609375 23.55 76.45 12.65234375 65.4546875 12.65 50 12.65234375 34.6255859375 23.4 23.7 23.4736328125 23.62421875 23.55 23.55 34.5453125 12.65234375 50 12.65 Z"/>

<path fill="#D7D7D7" stroke="none" d="
M 76.35 23.6
Q 65.4556640625 12.6515625 50 12.65 34.5453125 12.65234375 23.55 23.55 23.4736328125 23.62421875 23.4 23.7 12.65234375 34.6255859375 12.65 50 12.65234375 65.4546875 23.55 76.45 34.5453125 87.3474609375 50 87.35 65.4556640625 87.3478515625 76.35 76.45 87.348828125 65.4546875 87.35 50 87.348828125 34.5447265625 76.35 23.6
M 71.8 28.2
Q 71.873046875 28.273828125 71.95 28.3 80.8521484375 37.284765625 80.85 50 80.85234375 62.7947265625 71.85 71.85 62.7947265625 80.85234375 50 80.85 37.284765625 80.8521484375 28.3 71.95 28.273828125 71.873046875 28.2 71.8 19.19765625 62.695703125 19.2 50 19.1978515625 37.2056640625 28.2 28.2 37.2056640625 19.1978515625 50 19.2 62.695703125 19.19765625 71.8 28.2 Z"/>

<path fill="#FFFFFF" stroke="none" d="
M 71.95 28.3
Q 71.873046875 28.273828125 71.8 28.2 62.695703125 19.19765625 50 19.2 37.2056640625 19.1978515625 28.2 28.2 19.1978515625 37.2056640625 19.2 50 19.19765625 62.695703125 28.2 71.8 28.273828125 71.873046875 28.3 71.95 37.284765625 80.8521484375 50 80.85 62.7947265625 80.85234375 71.85 71.85 80.85234375 62.7947265625 80.85 50 80.8521484375 37.284765625 71.95 28.3
M 50 22.8
Q 61.2548828125 22.8013671875 69.25 30.8 77.147265625 38.69375 77.15 50 77.146875 61.2546875 69.25 69.25 61.2546875 77.146875 50 77.15 38.69375 77.147265625 30.8 69.25 22.8013671875 61.2548828125 22.8 50 22.801953125 38.6935546875 30.75 30.8
L 30.8 30.75
Q 38.6935546875 22.801953125 50 22.8 Z"/>

<path fill="#F5F5F5" stroke="none" d="
M 69.25 30.8
Q 61.2548828125 22.8013671875 50 22.8 38.6935546875 22.801953125 30.8 30.75
L 30.75 30.8
Q 22.801953125 38.6935546875 22.8 50 22.8013671875 61.2548828125 30.8 69.25 38.69375 77.147265625 50 77.15 61.2546875 77.146875 69.25 69.25 77.146875 61.2546875 77.15 50 77.147265625 38.69375 69.25 30.8
M 54.55 33.75
Q 56.45 34.35 57.85 35.55 59.25 36.75 60.05 38.55 60.8 40.35 60.8 42.75 60.8 44.25 60.5 45.5 60.2 46.75 59.65 47.75 59.05 48.75 58.3 49.6 57.5 50.5 56.65 51.3
L 46.95 59.6 61.1 59.6 61.1 65.55 38.85 65.55 38.85 58.4 51.25 47.25
Q 52.2 46.45 53.15 45.35 54.05 44.25 54.05 42.85 54.05 41.2 52.9 40.3 51.75 39.35 50.15 39.35 48.25 39.35 47.2 40.5 46.15 41.7 46 43.4
L 39.25 42.9
Q 39.4 40.45 40.3 38.6 41.2 36.8 42.7 35.6 44.15 34.35 46.2 33.75 48.2 33.15 50.5 33.15 52.7 33.15 54.55 33.75 Z"/>

<path fill="#9A9A9A" stroke="none" d="
M 57.85 35.55
Q 56.45 34.35 54.55 33.75 52.7 33.15 50.5 33.15 48.2 33.15 46.2 33.75 44.15 34.35 42.7 35.6 41.2 36.8 40.3 38.6 39.4 40.45 39.25 42.9
L 46 43.4
Q 46.15 41.7 47.2 40.5 48.25 39.35 50.15 39.35 51.75 39.35 52.9 40.3 54.05 41.2 54.05 42.85 54.05 44.25 53.15 45.35 52.2 46.45 51.25 47.25
L 38.85 58.4 38.85 65.55 61.1 65.55 61.1 59.6 46.95 59.6 56.65 51.3
Q 57.5 50.5 58.3 49.6 59.05 48.75 59.65 47.75 60.2 46.75 60.5 45.5 60.8 44.25 60.8 42.75 60.8 40.35 60.05 38.55 59.25 36.75 57.85 35.55 Z"/>
</g>

</defs>

<g transform="matrix( 1, 0, 0, 1, 0,0) ">
<use xlink:href="#Layer1_0_FILL"/>
</g>

<g transform="matrix( 1, 0, 0, 1, -3.4,-28) ">
<clipPath id="Mask_Mask_1">
<rect x="13.8" y="-2" width="79.2" height="20.8" fill="#FFFFFF" stroke="none"/>
</clipPath>

<text clip-path="url(#Mask_Mask_1)" writing-mode="lr"><tspan x="15.9" y="13.6" baseline-shift="0%" kerning="auto" font-family="Arial_Regular" font-size="15" fill="#999999" xml:space="preserve">Wii &amp; Wii U</tspan></text>
</g>
</svg>
