
<svg xmlns="http://www.w3.org/2000/svg" version="1.1" xmlns:xlink="http://www.w3.org/1999/xlink" x="0px" y="0px" viewBox="0 0 100 100">
<defs>
<g id="Layer1_0_FILL">
<path fill="#FFFFFF" stroke="none" d="
M 42.35 18.75
Q 43.66640625 17.7482421875 45 16.8 45.1619140625 16.6966796875 45.25 16.6 47.924609375 14.596484375 50.95 13.25 51.146875 13.185546875 51.3 13.1 53.6990234375 12.2251953125 56.1 12.7 57.000390625 12.840234375 57.9 13.15 59.3689453125 13.619921875 60.8 14.1 59.6833984375 13.121875 58.45 12.2 47.8 4.1 34.4 5.8
L 34.25 5.8
Q 22.7 7.35 15.05 15.85 14.95 16 14.75 16.2
L 9.6 12.4 8.45 34.95 29.95 27.9 25.1 24.1
Q 29.55 19.5 36.05 18.65 39.35390625 18.2013671875 42.35 18.75
M 84.45 83.6
Q 84.65 83.35 84.9 83.1
L 89.95 86.95 90.95 64.25 69.55 71.45 74.5 75.25
Q 70 79.65 63.6 80.6
L 63.55 80.6
Q 60.9150390625 80.9251953125 58.45 80.65 58.605078125 81.482421875 58.65 82.15 58.6744140625 82.2529296875 58.65 82.3 59.5109375 89.05 53.35 92.95 58.9912109375 94.29453125 65.25 93.55
L 65.35 93.5
Q 76.75 91.8 84.45 83.6
M 88.05 40.55
Q 85.4 37.15 82.05 34.55 76 29.5 70.65 25.95 70.15 25.5 69.55 25.2 69.3 25 69 24.8 62.9 20.9 55.8 18.8 55.4 18.65 55 18.6 54.2 18.45 53.4 18.75 50.9 19.85 48.75 21.5 46.65 22.95 44.7 24.6 42.95 26.05 41.25 27.55 38 30.3 34.35 33.85 30.6 37.35 27.65 40.4 26 42.1 24.45 43.7 22.7 45.6 21.1 47.65 19.35 49.7 18.15 52.05 17.8 52.85 17.85 53.6 17.95 54.05 18.05 54.55 19.75 61.65 23.4 67.95 23.55 68.3 23.65 68.5 24 69.15 24.35 69.75 27.65 75.25 32.35 81.65 34.7 85.05 38 87.9 40.35 89.45 43.55 89.8 46.15 89.8 48.95 88.6 53 86.55 52.7 82.8 52.3 79 49.65 70.15 48.95 68.1 50.6 66.15 56.55 60.15 58.05 58.9 59.35 57.5 65.6 51.95 67.7 50.4 69.65 51.15 78.4 54.35 82.2 54.9 85.9 55.45 88.15 51.6 89.5 48.85 89.65 46.25 89.55 43.05 88.05 40.55
M 49.75 38.8
Q 47.25 36.15 47.3 32.5 47.45 28.8 50.15 26.35 52.8 23.8 56.45 23.85 60.05 24 62.65 26.65 65.15 29.3 65 32.9 64.9 36.65 62.25 39.15 59.6 41.65 55.9 41.55 52.3 41.45 49.75 38.8
M 25.9 49.2
Q 28.55 46.75 32.2 46.8 35.85 46.9 38.4 49.6 40.9 52.25 40.75 55.9 40.7 59.55 38 62.05 35.35 64.6 31.7 64.45 28.05 64.4 25.55 61.7 23 59.1 23.1 55.4 23.25 51.75 25.9 49.2 Z"/>
</g>

</defs>

<g transform="matrix( 1, 0, 0, 1, 0,0) ">
<use xlink:href="#Layer1_0_FILL"/>
</g>

<g transform="matrix( 1, 0, 0, 1, -3.4,-28) ">
<clipPath id="Mask_Mask_1">
<rect x="-5" y="-2" width="116.8" height="20.8" fill="#FFFFFF" stroke="none"/>
</clipPath>

<text clip-path="url(#Mask_Mask_1)" writing-mode="lr"><tspan x="-2.9" y="13.6" baseline-shift="0%" kerning="auto" font-family="Arial_Regular" font-size="15" fill="#999999" xml:space="preserve">Steam Controller</tspan></text>
</g>
</svg>
