
<svg xmlns="http://www.w3.org/2000/svg" version="1.1" xmlns:xlink="http://www.w3.org/1999/xlink" x="0px" y="0px" viewBox="0 0 100 100">
<defs>
<g id="Layer1_0_FILL">
<path fill="#1B1B1B" stroke="none" d="
M 82.05 17.85
L 82.15 17.85
Q 68.85 4.6 50 4.6 31.15 4.6 17.8 17.85 4.55 31.15 4.55 50 4.55 68.8 17.8 82.15
L 17.8 82.2
Q 31.15 95.45 50 95.45 68.8 95.45 82.05 82.2
L 82.15 82.15
Q 95.45 68.8 95.45 50 95.45 31.1 82.05 17.85
M 50 9.1
Q 66.95 9.1 78.95 21.05 90.95 33 90.95 50 90.95 66.95 78.95 79 66.95 90.95 50 90.95 33 90.95 21 79
L 20.95 79
Q 9.05 66.95 9.05 50 9.05 33 20.95 21.05
L 21 21
Q 33 9.1 50 9.1 Z"/>

<path fill="#313131" stroke="none" d="
M 78.95 21.05
Q 66.95 9.1 50 9.1 33 9.1 21 21
L 20.95 21.05
Q 9.05 33 9.05 50 9.05 66.95 20.95 79
L 21 79
Q 33 90.95 50 90.95 66.95 90.95 78.95 79 90.95 66.95 90.95 50 90.95 33 78.95 21.05
M 76.7 23.2
L 76.8 23.2
Q 87.8 34.25 87.8 50 87.8 65.7 76.8 76.8 65.7 87.8 50 87.8 34.25 87.8 23.2 76.8
L 23.2 76.7
Q 12.15 65.6 12.15 50 12.15 34.3 23.2 23.2 34.3 12.15 50 12.15 65.6 12.15 76.7 23.2 Z"/>

<path fill="#626262" stroke="none" d="
M 76.8 23.2
L 76.7 23.2
Q 65.6 12.15 50 12.15 34.3 12.15 23.2 23.2 12.15 34.3 12.15 50 12.15 65.6 23.2 76.7
L 23.2 76.8
Q 34.25 87.8 50 87.8 65.7 87.8 76.8 76.8 87.8 65.7 87.8 50 87.8 34.25 76.8 23.2
M 50 17.05
Q 63.65 17.05 73.3 26.65 82.95 36.3 82.95 50 82.95 63.6 73.3 73.3 63.6 82.95 50 82.95 36.3 82.95 26.65 73.3 17.05 63.65 17.05 50 17.05 36.3 26.6 26.65
L 26.65 26.6
Q 36.3 17.05 50 17.05 Z"/>

<path fill="#4F4F4F" stroke="none" d="
M 73.3 26.65
Q 63.65 17.05 50 17.05 36.3 17.05 26.65 26.6
L 26.6 26.65
Q 17.05 36.3 17.05 50 17.05 63.65 26.65 73.3 36.3 82.95 50 82.95 63.6 82.95 73.3 73.3 82.95 63.6 82.95 50 82.95 36.3 73.3 26.65
M 50.75 28.75
Q 54.75 24.9 60.35 24.9 66 24.9 69.85 28.75 73.85 32.75 73.85 38.35 73.85 44 69.85 47.85 66.821875 50.99609375 62.65 51.65 62.5427734375 51.6802734375 62.4 51.7
L 52.5 61.85
Q 52.95 63.2744140625 52.95 64.9 52.95 69.1 49.95 72.05 47.05 75.05 42.8 75.05 38.6 75.05 35.6 72.05 34.0818359375 70.5056640625 33.35 68.6
L 28.55 67.8
Q 24.458203125 63.5921875 22.85 55.5
L 35.25 58.05
Q 35.4224609375 57.88046875 35.6 57.7 37.9828125 55.3568359375 41.1 54.85 41.18203125 54.8595703125 41.25 54.85
L 47.25 41.55
Q 46.9 40.044921875 46.9 38.35 46.9 32.75 50.75 28.75
M 36.55 69.15
Q 36.9609375 69.7109375 37.45 70.2 39.65 72.4 42.8 72.4 45.9 72.4 48.05 70.2 50.3 68.05 50.3 64.95 50.3 61.8 48.05 59.6 45.9 57.45 42.8 57.45 40.3658203125 57.45 38.5 58.7
L 43.55 59.8
Q 43.91015625 59.8513671875 44.25 59.95 45.48046875 60.28046875 46.45 61.25 48 62.8 48 64.95 48 67.1 46.45 68.6 44.95 70.15 42.8 70.15 42.362109375 70.15 41.95 70.1 41.887890625 70.090234375 41.8 70.05 41.7759765625 70.06640625 41.7 70.05
L 36.55 69.15
M 60.35 29.15
Q 56.5 29.15 53.75 31.85 51.1 34.55 51.1 38.4 51.1 42.25 53.75 44.95 56.5 47.65 60.35 47.65 64.2 47.65 66.85 44.95 69.6 42.25 69.6 38.4 69.6 34.55 66.85 31.85 64.2 29.15 60.35 29.15
M 55.7 33.8
Q 57.65 31.9 60.35 31.9 63.05 31.9 64.95 33.8 66.85 35.7 66.85 38.4 66.85 41.1 64.95 43 63.05 44.9 60.35 44.9 57.65 44.9 55.7 43 53.85 41.1 53.85 38.4 53.85 35.7 55.7 33.8 Z"/>

<path fill="#CCCCCC" stroke="none" d="
M 60.35 24.9
Q 54.75 24.9 50.75 28.75 46.9 32.75 46.9 38.35 46.9 40.044921875 47.25 41.55
L 41.25 54.85
Q 41.18203125 54.8595703125 41.1 54.85 37.9828125 55.3568359375 35.6 57.7 35.4224609375 57.88046875 35.25 58.05
L 22.85 55.5
Q 24.458203125 63.5921875 28.55 67.8
L 33.35 68.6
Q 34.0818359375 70.5056640625 35.6 72.05 38.6 75.05 42.8 75.05 47.05 75.05 49.95 72.05 52.95 69.1 52.95 64.9 52.95 63.2744140625 52.5 61.85
L 62.4 51.7
Q 62.5427734375 51.6802734375 62.65 51.65 66.821875 50.99609375 69.85 47.85 73.85 44 73.85 38.35 73.85 32.75 69.85 28.75 66 24.9 60.35 24.9
M 53.75 31.85
Q 56.5 29.15 60.35 29.15 64.2 29.15 66.85 31.85 69.6 34.55 69.6 38.4 69.6 42.25 66.85 44.95 64.2 47.65 60.35 47.65 56.5 47.65 53.75 44.95 51.1 42.25 51.1 38.4 51.1 34.55 53.75 31.85
M 37.45 70.2
Q 36.9609375 69.7109375 36.55 69.15
L 41.7 70.05
Q 41.7759765625 70.06640625 41.8 70.05 41.887890625 70.090234375 41.95 70.1 42.362109375 70.15 42.8 70.15 44.95 70.15 46.45 68.6 48 67.1 48 64.95 48 62.8 46.45 61.25 45.48046875 60.28046875 44.25 59.95 43.91015625 59.8513671875 43.55 59.8
L 38.5 58.7
Q 40.3658203125 57.45 42.8 57.45 45.9 57.45 48.05 59.6 50.3 61.8 50.3 64.95 50.3 68.05 48.05 70.2 45.9 72.4 42.8 72.4 39.65 72.4 37.45 70.2
M 60.35 31.9
Q 57.65 31.9 55.7 33.8 53.85 35.7 53.85 38.4 53.85 41.1 55.7 43 57.65 44.9 60.35 44.9 63.05 44.9 64.95 43 66.85 41.1 66.85 38.4 66.85 35.7 64.95 33.8 63.05 31.9 60.35 31.9 Z"/>
</g>

</defs>

<g transform="matrix( 1, 0, 0, 1, 0,0) ">
<use xlink:href="#Layer1_0_FILL"/>
</g>

<g transform="matrix( 1, 0, 0, 1, -3.4,-28) ">
<clipPath id="Mask_Mask_1">
<rect x="-5" y="-2" width="116.8" height="20.8" fill="#FFFFFF" stroke="none"/>
</clipPath>

<text clip-path="url(#Mask_Mask_1)" writing-mode="lr"><tspan x="-2.9" y="13.6" baseline-shift="0%" kerning="auto" font-family="Arial_Regular" font-size="15" fill="#999999" xml:space="preserve">Steam Controller</tspan></text>
</g>
</svg>
