
<svg xmlns="http://www.w3.org/2000/svg" version="1.1" xmlns:xlink="http://www.w3.org/1999/xlink" x="0px" y="0px" viewBox="0 0 100 100">
<defs>
<linearGradient id="Gradient_1" gradientUnits="userSpaceOnUse" x1="50" y1="10.412499999999994" x2="50" y2="89.5875" spreadMethod="pad">
<stop  offset="0%" stop-color="#373737"/>

<stop  offset="100%" stop-color="#575757"/>
</linearGradient>

<radialGradient id="Gradient_2" gradientUnits="userSpaceOnUse" cx="0" cy="0" r="21.875" fx="0" fy="0" gradientTransform="matrix( 1, 0, 0, 1, 50.05,50) " spreadMethod="pad">
<stop  offset="0%" stop-color="#000000" stop-opacity="0.2"/>

<stop  offset="100%" stop-color="#FFFFFF" stop-opacity="0.10196078431372549"/>
</radialGradient>

<g id="Layer1_0_FILL">
<path fill="#2A2A2A" stroke="none" d="
M 83.8 83.8
Q 97.7 69.8 97.7 50 97.7 30.2 83.8 16.3 69.8 2.3 50 2.3 30.2 2.3 16.3 16.3 2.3 30.2 2.3 50 2.3 69.8 16.3 83.8 30.2 97.7 50 97.7 69.8 97.7 83.8 83.8
M 50 7.65
Q 67.55 7.65 80 20.05 92.35 32.45 92.35 50 92.35 67.55 80 80 67.55 92.35 50 92.35 32.45 92.35 20.05 80 7.65 67.55 7.65 50 7.65 32.45 20.05 20.05 32.45 7.65 50 7.65 Z"/>

<path fill="#464646" stroke="none" d="
M 80 20.05
Q 67.55 7.65 50 7.65 32.45 7.65 20.05 20.05 7.65 32.45 7.65 50 7.65 67.55 20.05 80 32.45 92.35 50 92.35 67.55 92.35 80 80 92.35 67.55 92.35 50 92.35 32.45 80 20.05
M 89.6 50.1
L 89.6 50.9
Q 89.25 66.7 78 78 66.4 89.6 50 89.6 33.7 89.6 22.1 78 10.75 66.7 10.4 50.9 10.4 50.7 10.4 50.5
L 10.4 50.1
Q 10.4 50.05 10.4 50 10.4 33.65 22.1 22.05 33.7 10.4 50 10.4 66.4 10.4 78 22.05 89.6 33.65 89.6 50 89.6 50.05 89.6 50.1 Z"/>

<path fill="url(#Gradient_1)" stroke="none" d="
M 89.6 50.9
L 89.6 50.1
Q 89.6 50.05 89.6 50 89.6 33.65 78 22.05 66.4 10.4 50 10.4 33.7 10.4 22.1 22.05 10.4 33.65 10.4 50 10.4 50.05 10.4 50.1
L 10.4 50.5
Q 10.4 50.7 10.4 50.9 10.75 66.7 22.1 78 33.7 89.6 50 89.6 66.4 89.6 78 78 89.25 66.7 89.6 50.9
M 44.9 20.7
Q 47 18.6 50 18.6 53 18.6 55.15 20.7 57.25 22.85 57.25 25.85
L 57.25 29.3
Q 61.80234375 30.8810546875 65.5 34.55 69.116796875 38.1953125 70.65 42.7
L 74.15 42.7
Q 77.15 42.7 79.25 44.8 81.4 46.95 81.4 49.95 81.4 52.95 79.25 55.05 77.15 57.2 74.15 57.2
L 70.7 57.2
Q 69.1603515625 61.78203125 65.5 65.5 61.80234375 69.140234375 57.25 70.7
L 57.25 74.1
Q 57.25 77.1 55.15 79.2 53 81.35 50 81.35 47 81.35 44.9 79.2 42.75 77.1 42.75 74.1
L 42.75 70.7
Q 38.2154296875 69.13671875 34.55 65.5 30.8609375 61.78203125 29.3 57.2
L 25.9 57.2
Q 23.3 57.2 21.35 55.6 21 55.3 20.75 55.05 18.65 52.95 18.65 49.95 18.65 46.95 20.75 44.8 21 44.55 21.3 44.3 23.25 42.7 25.9 42.7
L 29.3 42.7
Q 30.9048828125 38.1953125 34.55 34.55 38.2154296875 30.8845703125 42.75 29.3
L 42.75 25.85
Q 42.75 22.85 44.9 20.7
M 50 71.85
Q 46.133203125 71.85 42.75 70.7
L 42.75 74.1
Q 42.75 77.1 44.9 79.2 47 81.35 50 81.35 53 81.35 55.15 79.2 57.25 77.1 57.25 74.1
L 57.25 70.7
Q 53.8619140625 71.85 50 71.85
M 21.3 44.3
Q 21 44.55 20.75 44.8 18.65 46.95 18.65 49.95 18.65 52.95 20.75 55.05 21 55.3 21.35 55.6 23.3 57.2 25.9 57.2
L 29.3 57.2
Q 28.15 53.833203125 28.15 50 28.15 46.1044921875 29.3 42.7
L 25.9 42.7
Q 23.25 42.7 21.3 44.3
M 74.15 42.7
L 70.65 42.7
Q 71.85 46.1044921875 71.85 50 71.85 53.833203125 70.7 57.2
L 74.15 57.2
Q 77.15 57.2 79.25 55.05 81.4 52.95 81.4 49.95 81.4 46.95 79.25 44.8 77.15 42.7 74.15 42.7
M 50 18.6
Q 47 18.6 44.9 20.7 42.75 22.85 42.75 25.85
L 42.75 29.3
Q 46.133203125 28.15 50 28.15 53.8619140625 28.15 57.25 29.3
L 57.25 25.85
Q 57.25 22.85 55.15 20.7 53 18.6 50 18.6 Z"/>

<path fill="#FFFFFF" stroke="none" d="
M 50 68.85
Q 46.0927734375 68.85 42.75 67.45
L 42.75 70.7
Q 46.133203125 71.85 50 71.85 53.8619140625 71.85 57.25 70.7
L 57.25 67.45
Q 53.9072265625 68.85 50 68.85
M 70.7 57.2
L 67.5 57.2
Q 66.1154296875 60.559375 63.35 63.35 60.580078125 66.094921875 57.25 67.45
L 57.25 70.7
Q 61.80234375 69.140234375 65.5 65.5 69.1603515625 61.78203125 70.7 57.2
M 32.5 57.2
L 29.3 57.2
Q 30.8609375 61.78203125 34.55 65.5 38.2154296875 69.13671875 42.75 70.7
L 42.75 67.45
Q 39.419921875 66.094921875 36.65 63.35 33.8845703125 60.559375 32.5 57.2
M 32.55 42.7
L 29.3 42.7
Q 28.15 46.1044921875 28.15 50 28.15 53.833203125 29.3 57.2
L 32.5 57.2
Q 31.15 53.878125 31.15 50 31.15 46.0634765625 32.55 42.7
M 70.65 42.7
L 67.45 42.7
Q 68.85 46.0634765625 68.85 50 68.85 53.878125 67.5 57.2
L 70.7 57.2
Q 71.85 53.833203125 71.85 50 71.85 46.1044921875 70.65 42.7
M 42.75 32.5
L 42.75 29.3
Q 38.2154296875 30.8845703125 34.55 34.55 30.9048828125 38.1953125 29.3 42.7
L 32.55 42.7
Q 33.92578125 39.3990234375 36.65 36.65 39.419921875 33.905078125 42.75 32.5
M 57.25 32.5
L 57.25 29.3
Q 53.8619140625 28.15 50 28.15 46.133203125 28.15 42.75 29.3
L 42.75 32.5
Q 46.0927734375 31.15 50 31.15 53.907421875 31.15 57.25 32.5
M 57.25 29.3
L 57.25 32.5
Q 60.5802734375 33.9052734375 63.35 36.65 66.07421875 39.3990234375 67.45 42.7
L 70.65 42.7
Q 69.116796875 38.1953125 65.5 34.55 61.80234375 30.8810546875 57.25 29.3 Z"/>

<path fill="#F5F5F5" stroke="none" d="
M 63.35 63.35
Q 66.1154296875 60.559375 67.5 57.2
L 57.25 57.2 57.25 67.45
Q 60.580078125 66.094921875 63.35 63.35
M 32.5 57.2
Q 33.8845703125 60.559375 36.65 63.35 39.419921875 66.094921875 42.75 67.45
L 42.75 57.2 32.5 57.2
M 42.75 42.7
L 42.75 32.5
Q 39.419921875 33.905078125 36.65 36.65 33.92578125 39.3990234375 32.55 42.7
L 42.75 42.7
M 57.25 32.5
L 57.25 42.7 67.45 42.7
Q 66.07421875 39.3990234375 63.35 36.65 60.5802734375 33.9052734375 57.25 32.5
M 50 31.15
Q 46.0927734375 31.15 42.75 32.5
L 42.75 42.7 32.55 42.7
Q 31.15 46.0634765625 31.15 50 31.15 53.878125 32.5 57.2
L 42.75 57.2 42.75 67.45
Q 46.0927734375 68.85 50 68.85 53.9072265625 68.85 57.25 67.45
L 57.25 57.2 67.5 57.2
Q 68.85 53.878125 68.85 50 68.85 46.0634765625 67.45 42.7
L 57.25 42.7 57.25 32.5
Q 53.907421875 31.15 50 31.15 Z"/>
</g>

<path id="Layer1_0_1_STROKES" stroke="url(#Gradient_2)" stroke-width="3" stroke-linejoin="round" stroke-linecap="round" fill="none" d="
M 42.75 29.325
L 42.75 25.85
Q 42.75 22.85 44.9 20.7 47 18.6 50 18.6 53 18.6 55.15 20.7 57.25 22.85 57.25 25.85
L 57.25 29.325
M 70.675 42.7
L 74.15 42.7
Q 77.15 42.7 79.25 44.8 81.4 46.95 81.4 49.95 81.4 52.95 79.25 55.05 77.15 57.2 74.15 57.2
L 70.7 57.2
M 57.25 70.7
L 57.25 74.1
Q 57.25 77.1 55.15 79.2 53 81.35 50 81.35 47 81.35 44.9 79.2 42.75 77.1 42.75 74.1
L 42.75 70.7
M 29.3 57.2
L 25.9 57.2
Q 23.3 57.2 21.35 55.6 21 55.3 20.75 55.05 18.65 52.95 18.65 49.95 18.65 46.95 20.75 44.8 21 44.55 21.3 44.3 23.25 42.7 25.9 42.7
L 29.325 42.7
M 57.25 29.325
L 57.25 32.525
M 67.45 42.7
L 70.675 42.7
M 67.5 57.2
L 70.7 57.2
M 57.25 70.7
L 57.25 67.475
M 42.75 67.475
L 42.75 70.7
M 32.5 57.2
L 29.3 57.2
M 29.325 42.7
L 32.55 42.7
M 42.75 29.325
L 42.75 32.525 42.75 42.7 32.55 42.7
M 32.5 57.2
L 42.75 57.2 42.75 67.475
M 57.25 67.475
L 57.25 57.2 67.5 57.2
M 67.45 42.7
L 57.25 42.7 57.25 32.525"/>

</defs>

<g transform="matrix( 1, 0, 0, 1, 0,0) ">
<use xlink:href="#Layer1_0_FILL"/>

<use xlink:href="#Layer1_0_1_STROKES"/>
</g>

<g transform="matrix( 1, 0, 0, 1, -3.4,-28) ">
<clipPath id="Mask_Mask_1">
<rect x="-5" y="-2" width="116.8" height="20.8" fill="#FFFFFF" stroke="none"/>
</clipPath>

<text clip-path="url(#Mask_Mask_1)" writing-mode="lr"><tspan x="-2.9" y="13.6" baseline-shift="0%" kerning="auto" font-family="Arial_Regular" font-size="15" fill="#999999" xml:space="preserve">Steam Controller</tspan></text>
</g>
</svg>
