
<svg xmlns="http://www.w3.org/2000/svg" version="1.1" xmlns:xlink="http://www.w3.org/1999/xlink" x="0px" y="0px" viewBox="0 0 100 100">
<defs>
<g id="Layer1_0_FILL">
<path fill="#313131" stroke="none" d="
M 93.05 46.85
Q 93.05 36.45 85.7 29.15 78.4 21.8 67.95 21.8
L 32 21.8
Q 21.6 21.8 14.3 29.15 6.95 36.45 6.95 46.85 6.95 46.9 6.95 53.2 7 63.55 14.3 70.85 21.6 78.2 32 78.2
L 67.95 78.2
Q 76.05 78.2 82.35 73.7 84.1 72.45 85.7 70.85 93 63.55 93.05 53.2 93.05 46.9 93.05 46.85
M 82.55 46.85
Q 82.55 46.9 82.55 53.2 82.5 59.25 78.3 63.45 74.05 67.7 67.95 67.7
L 32 67.7
Q 25.95 67.7 21.7 63.45 17.5 59.25 17.45 53.2 17.45 46.9 17.45 46.85 17.45 40.8 21.7 36.55 25.95 32.3 32 32.3
L 67.95 32.3
Q 74.05 32.3 78.3 36.55 82.55 40.8 82.55 46.85 Z"/>

<path fill="#4F4F4F" stroke="none" d="
M 82.55 53.2
Q 82.55 46.9 82.55 46.85 82.55 40.8 78.3 36.55 74.05 32.3 67.95 32.3
L 32 32.3
Q 25.95 32.3 21.7 36.55 17.45 40.8 17.45 46.85 17.45 46.9 17.45 53.2 17.5 59.25 21.7 63.45 25.95 67.7 32 67.7
L 67.95 67.7
Q 74.05 67.7 78.3 63.45 82.5 59.25 82.55 53.2
M 39.6 61
L 39.6 39 63.85 50 39.6 61 Z"/>

<path fill="#9A9A9A" stroke="none" d="
M 39.6 39
L 39.6 61 63.85 50 39.6 39 Z"/>
</g>

<path id="Layer1_0_1_STROKES" stroke="#626262" stroke-width="4" stroke-linejoin="round" stroke-linecap="round" fill="none" d="
M 82.55 46.85
Q 82.55 46.9 82.55 53.2 82.5 59.25 78.3 63.45 74.05 67.7 67.95 67.7
L 32 67.7
Q 25.95 67.7 21.7 63.45 17.5 59.25 17.45 53.2 17.45 46.9 17.45 46.85 17.45 40.8 21.7 36.55 25.95 32.3 32 32.3
L 67.95 32.3
Q 74.05 32.3 78.3 36.55 82.55 40.8 82.55 46.85 Z"/>

<path id="Layer1_0_2_STROKES" stroke="#202020" stroke-width="4" stroke-linejoin="round" stroke-linecap="round" fill="none" d="
M 85.7 29.15
Q 93.05 36.45 93.05 46.85 93.05 46.9 93.05 53.2 93 63.55 85.7 70.85 84.1 72.45 82.35 73.7 76.05 78.2 67.95 78.2
L 32 78.2
Q 21.6 78.2 14.3 70.85 7 63.55 6.95 53.2 6.95 46.9 6.95 46.85 6.95 36.45 14.3 29.15 21.6 21.8 32 21.8
L 67.95 21.8
Q 78.4 21.8 85.7 29.15 Z"/>

</defs>

<g transform="matrix( 1, 0, 0, 1, 0,0) ">
<use xlink:href="#Layer1_0_FILL"/>

<use xlink:href="#Layer1_0_1_STROKES"/>

<use xlink:href="#Layer1_0_2_STROKES"/>
</g>

<g transform="matrix( 1, 0, 0, 1, -3.4,-28) ">
<clipPath id="Mask_Mask_1">
<rect x="-5" y="-2" width="116.8" height="20.8" fill="#FFFFFF" stroke="none"/>
</clipPath>

<text clip-path="url(#Mask_Mask_1)" writing-mode="lr"><tspan x="-2.9" y="13.6" baseline-shift="0%" kerning="auto" font-family="Arial_Regular" font-size="15" fill="#999999" xml:space="preserve">Steam Controller</tspan></text>
</g>
</svg>
