
<svg xmlns="http://www.w3.org/2000/svg" version="1.1" xmlns:xlink="http://www.w3.org/1999/xlink" x="0px" y="0px" viewBox="0 0 100 100">
<defs>
<linearGradient id="Gradient_1" gradientUnits="userSpaceOnUse" x1="50" y1="10.412499999999994" x2="50" y2="89.5875" spreadMethod="pad">
<stop  offset="0%" stop-color="#373737"/>

<stop  offset="100%" stop-color="#575757"/>
</linearGradient>

<g id="Layer1_0_FILL">
<path fill="#2A2A2A" stroke="none" d="
M 83.8 83.8
Q 97.7 69.8 97.7 50 97.7 30.2 83.8 16.3 69.8 2.3 50 2.3 30.2 2.3 16.3 16.3 2.3 30.2 2.3 50 2.3 69.8 16.3 83.8 30.2 97.7 50 97.7 69.8 97.7 83.8 83.8
M 89.95 35.5
Q 90.219921875 36.300390625 90.45 37.1
L 90.55 37.3
Q 90.5958984375 37.4787109375 90.65 37.65 90.7546875 38.007421875 90.85 38.35 92.0146484375 42.6263671875 92.3 47.25 92.3166015625 47.4259765625 92.3 47.55 92.319140625 47.6828125 92.3 47.8 92.337890625 48.153515625 92.35 48.5 92.3462890625 48.6197265625 92.35 48.75 92.3470703125 48.8689453125 92.35 49 92.3482421875 49.09609375 92.35 49.2 92.3484375 49.455078125 92.35 49.7 92.35 49.85390625 92.35 50 92.35 50.928125 92.3 51.85 91.819140625 64.109375 84.45 74.8 82.4732421875 77.5068359375 80 80 67.55 92.35 50 92.35 32.45 92.35 20.05 80 7.65 67.55 7.65 50 7.65 32.45 20.05 20.05 32.45 7.65 50 7.65 67.55 7.65 80 20.05 86.9033203125 26.98125 89.95 35.5 Z"/>

<path fill="url(#Gradient_1)" stroke="none" d="
M 79.65 23.9
Q 79.6994140625 23.9 79.75 23.9 78.910546875 22.960546875 78 22.05 66.4 10.4 50 10.4 33.7 10.4 22.1 22.05 10.4 33.65 10.4 50 10.4 50.05 10.4 50.1
L 10.4 50.5
Q 10.4 50.7 10.4 50.9 10.75 66.7 22.1 78 33.7 89.6 50 89.6 66.4 89.6 78 78 78.93046875 77.0654296875 79.75 76.1
L 79.75 76.1
Q 75.45 76 71.6 74.65 71.5 74.55 71.35 74.55 69.5 73.85 67.7 72.85 64.75 71.1 62.05 68.4 59.1 65.5 57.3 62.1 54.8 57.35 54.45 51.75 54.4 50.85 54.4 50 54.4 49.05 54.45 48.1 54.5 47.2 54.65 46.3 54.75 45.7 54.85 45.1 55.5 41.3 57.3 37.9 57.55 37.4 57.9 36.9 59.15 34.75 60.85 32.85 61.4 32.2 62.05 31.55 64.95 28.65 68.25 26.9 69.35 26.25 70.55 25.8 71.2 25.5 71.9 25.25 75.55 24 79.65 23.9 Z"/>

<path fill="#464646" stroke="none" d="
M 85.75 27.2
Q 87.9 30.45 89.35 34 89.649609375 34.748828125 89.95 35.5 86.9033203125 26.98125 80 20.05 67.55 7.65 50 7.65 32.45 7.65 20.05 20.05 7.65 32.45 7.65 50 7.65 67.55 20.05 80 32.45 92.35 50 92.35 67.55 92.35 80 80 82.4732421875 77.5068359375 84.45 74.8 84.0009765625 75.3759765625 83.55 75.95 82.05 76.1 80.45 76.1 80.11796875 76.1 79.75 76.1 78.93046875 77.0654296875 78 78 66.4 89.6 50 89.6 33.7 89.6 22.1 78 10.75 66.7 10.4 50.9 10.4 50.7 10.4 50.5
L 10.4 50.1
Q 10.4 50.05 10.4 50 10.4 33.65 22.1 22.05 33.7 10.4 50 10.4 66.4 10.4 78 22.05 78.910546875 22.960546875 79.75 23.9 80.0994140625 23.9 80.45 23.9 82.05 23.9 83.55 24.15 84.75 25.65 85.75 27.2 Z"/>

<path fill="#F5F5F5" stroke="none" d="
M 87.2 36.15
Q 87.0375 35.7125 86.85 35.25 86.35546875 33.990625 85.75 32.75 84.9126953125 31.0701171875 83.9 29.45 82.875 27.875 81.7 26.35 80.75 25.1 79.65 23.9 75.55 24 71.9 25.25 71.2 25.5 70.55 25.8 69.35 26.25 68.25 26.9 64.95 28.65 62.05 31.55 61.4 32.2 60.85 32.85 59.15 34.75 57.9 36.9 57.55 37.4 57.3 37.9 55.5 41.3 54.85 45.1 54.75 45.7 54.65 46.3 54.5 47.2 54.45 48.1 54.4 49.05 54.4 50 54.4 50.85 54.45 51.75 54.8 57.35 57.3 62.1 59.1 65.5 62.05 68.4 64.75 71.1 67.7 72.85 69.5 73.85 71.35 74.55 71.5 74.55 71.6 74.65 75.45 76 79.75 76.1 80.2353515625 75.5578125 80.7 75
L 83.2 71.65
Q 88.324609375 64.0080078125 89.35 54.7 89.5572265625 52.82734375 89.6 50.9
L 89.6 50.1
Q 89.6 50.05 89.6 50 89.6 49.05703125 89.55 48.1 89.5318359375 47.674609375 89.5 47.2 89.4875 47.01953125 89.45 46.8 89.4376953125 46.2958984375 89.4 45.75 88.9576171875 41.270703125 87.55 37.15 87.3859375 36.65 87.2 36.15 Z"/>

<path fill="#FFFFFF" stroke="none" d="
M 86.85 35.25
Q 87.0375 35.7125 87.2 36.15 87.3859375 36.65 87.55 37.15 88.9576171875 41.270703125 89.4 45.75 89.4376953125 46.2958984375 89.45 46.8 89.4875 47.01953125 89.5 47.2 89.5318359375 47.674609375 89.55 48.1 89.6 49.05703125 89.6 50 89.6 50.05 89.6 50.1
L 89.6 50.9
Q 89.5572265625 52.82734375 89.35 54.7 88.324609375 64.0080078125 83.2 71.65
L 80.7 75
Q 80.2353515625 75.5578125 79.75 76.1
L 79.75 76.1
Q 80.11796875 76.1 80.45 76.1 82.05 76.1 83.55 75.95 84.0009765625 75.3759765625 84.45 74.8 91.819140625 64.109375 92.3 51.85 92.35 50.928125 92.35 50 92.35 49.85390625 92.35 49.7 92.3484375 49.455078125 92.35 49.2 92.3482421875 49.09609375 92.35 49 92.3470703125 48.8689453125 92.35 48.75 92.3462890625 48.6197265625 92.35 48.5 92.337890625 48.153515625 92.3 47.8 92.319140625 47.6828125 92.3 47.55 92.3166015625 47.4259765625 92.3 47.25 92.0146484375 42.6263671875 90.85 38.35 90.7546875 38.007421875 90.65 37.65 90.5958984375 37.4787109375 90.55 37.3
L 90.45 37.1
Q 90.219921875 36.300390625 89.95 35.5 89.649609375 34.748828125 89.35 34 87.9 30.45 85.75 27.2 84.75 25.65 83.55 24.15 82.05 23.9 80.45 23.9 80.0994140625 23.9 79.75 23.9 79.6994140625 23.9 79.65 23.9 80.75 25.1 81.7 26.35 82.875 27.875 83.9 29.45 84.9126953125 31.0701171875 85.75 32.75 86.35546875 33.990625 86.85 35.25 Z"/>
</g>

</defs>

<g transform="matrix( 1, 0, 0, 1, 0,0) ">
<use xlink:href="#Layer1_0_FILL"/>
</g>

<g transform="matrix( 1, 0, 0, 1, -3.4,-28) ">
<clipPath id="Mask_Mask_1">
<rect x="-5" y="-2" width="116.8" height="20.8" fill="#FFFFFF" stroke="none"/>
</clipPath>

<text clip-path="url(#Mask_Mask_1)" writing-mode="lr"><tspan x="-2.9" y="13.6" baseline-shift="0%" kerning="auto" font-family="Arial_Regular" font-size="15" fill="#999999" xml:space="preserve">Steam Controller</tspan></text>
</g>
</svg>
