
<svg xmlns="http://www.w3.org/2000/svg" version="1.1" xmlns:xlink="http://www.w3.org/1999/xlink" x="0px" y="0px" viewBox="0 0 100 100">
<defs>
<g id="Layer1_0_FILL">
<path fill="#464646" stroke="none" d="
M 82.75 63.1
Q 86.35 45.95 86.9 21.75 85.7 17.25 80.8 16.45
L 22.2 26.55
Q 13 29.8 13.55 40.05 13.55 40.2 13.55 40.25 13.9 43.25 14.4 46.35 14.9 49.35 15.6 52.4 16.65 56.9 17.8 61.5 18.15 63 18.65 64.5 22.05 73.25 29.7 79.35 31.6 80.75 33.7 82.1 45.4 87.55 62.2 83.85 79.05 80.2 82.75 63.1
M 76.4 61.35
Q 75.05 71.4 66.8 75.4 58.5 79.35 46.4 70.45 32.95 56.65 30.8 32.9
L 80 24.15
Q 80.2 42.75 76.4 61.35 Z"/>

<path fill="#585858" stroke="none" d="
M 66.8 75.4
Q 75.05 71.4 76.4 61.35 80.2 42.75 80 24.15
L 30.8 32.9
Q 32.95 56.65 46.4 70.45 58.5 79.35 66.8 75.4
M 53.75 36.2
Q 55.1 36.25 56.05 36.7 57 37.2 57.6 38.2 58.1 39.15 58.1 40.8 58.1 42.85 57.1 44.4 56.05 46.05 54.05 46.75
L 58.85 53.8 53.85 54.8 49.9 47.9 47.9 48.3 47.9 55.85 43.75 56.6 43.75 37.75 51.05 36.4
Q 52.45 36.15 53.75 36.2
M 59.8 38.45
L 59.8 34.8 74.75 32.1 74.75 35.75 69.35 36.75 69.35 51.95 65.2 52.7 65.2 37.5 59.8 38.45
M 47.9 40.5
L 47.9 44.75 50.35 44.35
Q 50.85 44.25 51.5 44.1 52.15 43.95 52.65 43.65 53.15 43.3 53.5 42.85 53.8 42.4 53.8 41.6 53.8 40.9 53.55 40.5 53.2 40.1 52.8 39.95 52.3 39.85 51.8 39.85 51.2 39.9 50.6 40
L 47.9 40.5 Z"/>

<path fill="#9A9A9A" stroke="none" d="
M 59.8 34.8
L 59.8 38.45 65.2 37.5 65.2 52.7 69.35 51.95 69.35 36.75 74.75 35.75 74.75 32.1 59.8 34.8
M 56.05 36.7
Q 55.1 36.25 53.75 36.2 52.45 36.15 51.05 36.4
L 43.75 37.75 43.75 56.6 47.9 55.85 47.9 48.3 49.9 47.9 53.85 54.8 58.85 53.8 54.05 46.75
Q 56.05 46.05 57.1 44.4 58.1 42.85 58.1 40.8 58.1 39.15 57.6 38.2 57 37.2 56.05 36.7
M 47.9 44.75
L 47.9 40.5 50.6 40
Q 51.2 39.9 51.8 39.85 52.3 39.85 52.8 39.95 53.2 40.1 53.55 40.5 53.8 40.9 53.8 41.6 53.8 42.4 53.5 42.85 53.15 43.3 52.65 43.65 52.15 43.95 51.5 44.1 50.85 44.25 50.35 44.35
L 47.9 44.75 Z"/>
</g>

<path id="Layer1_0_1_STROKES" stroke="#2A2A2A" stroke-width="5" stroke-linejoin="round" stroke-linecap="round" fill="none" d="
M 86.9 21.75
Q 86.35 45.95 82.75 63.1 79.05 80.2 62.2 83.85 45.4 87.55 33.7 82.1 31.6 80.75 29.7 79.35 22.05 73.25 18.65 64.5 18.15 63 17.8 61.5 16.65 56.9 15.6 52.4 14.9 49.35 14.4 46.35 13.9 43.25 13.55 40.25 13.55 40.2 13.55 40.05 13 29.8 22.2 26.55
L 80.8 16.45
Q 85.7 17.25 86.9 21.75 Z"/>

<path id="Layer1_0_2_STROKES" stroke="#666666" stroke-width="4" stroke-linejoin="round" stroke-linecap="round" fill="none" d="
M 66.8 75.4
Q 58.5 79.35 46.4 70.45 32.95 56.65 30.8 32.9
L 80 24.15
Q 80.2 42.75 76.4 61.35 75.05 71.4 66.8 75.4 Z"/>

</defs>

<g transform="matrix( 1, 0, 0, 1, 0,0) ">
<use xlink:href="#Layer1_0_FILL"/>

<use xlink:href="#Layer1_0_1_STROKES"/>

<use xlink:href="#Layer1_0_2_STROKES"/>
</g>

<g transform="matrix( 1, 0, 0, 1, -3.4,-28) ">
<clipPath id="Mask_Mask_1">
<rect x="-5" y="-2" width="116.8" height="20.8" fill="#FFFFFF" stroke="none"/>
</clipPath>

<text clip-path="url(#Mask_Mask_1)" writing-mode="lr"><tspan x="-2.9" y="13.6" baseline-shift="0%" kerning="auto" font-family="Arial_Regular" font-size="15" fill="#999999" xml:space="preserve">Steam Controller</tspan></text>
</g>
</svg>
