
<svg xmlns="http://www.w3.org/2000/svg" version="1.1" xmlns:xlink="http://www.w3.org/1999/xlink" x="0px" y="0px" viewBox="0 0 100 100">
<defs>
<g id="Layer1_0_FILL">
<path fill="#464646" stroke="none" d="
M 86.85 40.25
Q 86.85 40.2 86.85 40.05 87.4 29.8 78.2 26.55
L 19.6 16.45
Q 14.7 17.25 13.5 21.75 14.05 45.95 17.65 63.1 21.35 80.2 38.2 83.85 55 87.55 66.7 82.1 68.8 80.75 70.7 79.35 78.35 73.25 81.75 64.5 82.25 63 82.6 61.5 83.75 56.9 84.8 52.4 85.5 49.35 86 46.35 86.5 43.25 86.85 40.25
M 33.6 75.4
Q 25.35 71.4 24 61.35 20.2 42.75 20.4 24.15
L 69.6 32.9
Q 67.45 56.65 54 70.45 41.9 79.35 33.6 75.4 Z"/>

<path fill="#585858" stroke="none" d="
M 24 61.35
Q 25.35 71.4 33.6 75.4 41.9 79.35 54 70.45 67.45 56.65 69.6 32.9
L 20.4 24.15
Q 20.2 42.75 24 61.35
M 47.05 39.65
L 41.7 38.85 41.7 35.2 56.55 37.45 56.55 41.1 51.2 40.25 51.2 55.35 47.05 54.75 47.05 39.65
M 33.8 33.9
L 33.8 48.85 41.45 50 41.45 53.85 29.65 52.05 29.65 33.25 33.8 33.9 Z"/>

<path fill="#9A9A9A" stroke="none" d="
M 33.8 48.85
L 33.8 33.9 29.65 33.25 29.65 52.05 41.45 53.85 41.45 50 33.8 48.85
M 41.7 38.85
L 47.05 39.65 47.05 54.75 51.2 55.35 51.2 40.25 56.55 41.1 56.55 37.45 41.7 35.2 41.7 38.85 Z"/>
</g>

<path id="Layer1_0_1_STROKES" stroke="#2A2A2A" stroke-width="5" stroke-linejoin="round" stroke-linecap="round" fill="none" d="
M 86 46.35
Q 86.5 43.25 86.85 40.25 86.85 40.2 86.85 40.05 87.4 29.8 78.2 26.55
L 19.6 16.45
Q 14.7 17.25 13.5 21.75 14.05 45.95 17.65 63.1 21.35 80.2 38.2 83.85 55 87.55 66.7 82.1 68.8 80.75 70.7 79.35 78.35 73.25 81.75 64.5 82.25 63 82.6 61.5 83.75 56.9 84.8 52.4 85.5 49.35 86 46.35 Z"/>

<path id="Layer1_0_2_STROKES" stroke="#666666" stroke-width="4" stroke-linejoin="round" stroke-linecap="round" fill="none" d="
M 24 61.35
Q 25.35 71.4 33.6 75.4 41.9 79.35 54 70.45 67.45 56.65 69.6 32.9
L 20.4 24.15
Q 20.2 42.75 24 61.35 Z"/>

</defs>

<g transform="matrix( 1, 0, 0, 1, 0,0) ">
<use xlink:href="#Layer1_0_FILL"/>

<use xlink:href="#Layer1_0_1_STROKES"/>

<use xlink:href="#Layer1_0_2_STROKES"/>
</g>

<g transform="matrix( 1, 0, 0, 1, -3.4,-28) ">
<clipPath id="Mask_Mask_1">
<rect x="-5" y="-2" width="116.8" height="20.8" fill="#FFFFFF" stroke="none"/>
</clipPath>

<text clip-path="url(#Mask_Mask_1)" writing-mode="lr"><tspan x="-2.9" y="13.6" baseline-shift="0%" kerning="auto" font-family="Arial_Regular" font-size="15" fill="#999999" xml:space="preserve">Steam Controller</tspan></text>
</g>
</svg>
