
<svg xmlns="http://www.w3.org/2000/svg" version="1.1" xmlns:xlink="http://www.w3.org/1999/xlink" x="0px" y="0px" viewBox="0 0 100 100">
<defs>
<g id="Layer1_0_FILL">
<path fill="#464646" stroke="none" d="
M 85.8 71.3
Q 91.4 68.3 92.95 61.85 93.5 44.05 88.95 26.65 86.35 20.45 80.2 21.65
L 26 35.6
Q 19.15 37.5 11.2 35.6 9.55 42.85 6.25 55.15
L 12.2 75.55
Q 19.1 79.3 26 78.75
L 85.8 71.3
M 85.45 60.7
Q 84.812109375 62.791796875 83.2 64.05
L 25.4 71.25 25.4 71.3 25.3 71.25
Q 25.3681640625 71.276953125 25.4 71.25 16.1978515625 61.238671875 21.65 44.3
L 77.45 32.4
Q 82.51015625 31.6044921875 83.5 36.7 85.7728515625 47.9783203125 85.45 60.7
M 25.4 71.25
Q 25.3681640625 71.276953125 25.3 71.25
L 25.4 71.3 25.4 71.25 Z"/>

<path fill="#585858" stroke="none" d="
M 83.2 64.05
Q 84.812109375 62.791796875 85.45 60.7 85.7728515625 47.9783203125 83.5 36.7 82.51015625 31.6044921875 77.45 32.4
L 21.65 44.3
Q 16.1978515625 61.238671875 25.4 71.25
L 83.2 64.05
M 48.6 44.65
L 55.45 43.6
Q 56.8 43.4 58 43.5 59.25 43.55 60.15 44.05 61.05 44.55 61.6 45.5 62.1 46.45 62.1 48 62.1 49.9 61.15 51.35 60.15 52.8 58.3 53.4
L 62.8 60.25 58.1 60.95 54.4 54.4 52.5 54.65 52.5 61.75 48.6 62.35 48.6 44.65
M 71.4 41.2
Q 72.55 41.05 73.7 41.05 74.9 41.05 75.8 41.35 76.7 41.75 77.3 42.5 77.85 43.3 77.85 44.75 77.85 46.25 77.05 47.35 76.2 48.5 74.85 49.1
L 74.85 49.15
Q 75.7 49.2 76.4 49.4 77.1 49.65 77.6 50.1 78.15 50.6 78.4 51.35 78.7 52.05 78.7 52.9 78.7 54.25 78.1 55.35 77.5 56.4 76.55 57.1 75.6 57.8 74.4 58.25 73.2 58.65 72.05 58.85
L 64.8 59.9 64.8 42.2 71.4 41.2
M 73.1 55.25
Q 73.55 55.1 73.95 54.8 74.3 54.5 74.55 54 74.8 53.6 74.8 53.05 74.8 52.4 74.45 52.1 74.15 51.75 73.7 51.65 73.2 51.45 72.65 51.5 72.1 51.55 71.65 51.55
L 68.7 52 68.7 56 72.2 55.45
Q 72.65 55.45 73.1 55.25
M 68.7 44.9
L 68.7 48.7 71.5 48.3
Q 71.95 48.25 72.4 48.05 72.85 47.9 73.2 47.6 73.55 47.35 73.75 46.9 73.95 46.5 73.95 45.95 73.95 45.4 73.75 45.1 73.5 44.75 73.1 44.6 72.75 44.5 72.3 44.45 71.8 44.45 71.35 44.55
L 68.7 44.9
M 58.05 48.6
Q 58.05 47.95 57.8 47.5 57.5 47.15 57.1 47.05 56.65 46.9 56.15 46.85 55.6 46.9 55.05 47
L 52.5 47.35 52.5 51.35 54.8 51
Q 55.3 50.95 55.9 50.9 56.5 50.75 56.95 50.45 57.45 50.2 57.75 49.7 58.05 49.35 58.05 48.6 Z"/>

<path fill="#9A9A9A" stroke="none" d="
M 73.7 41.05
Q 72.55 41.05 71.4 41.2
L 64.8 42.2 64.8 59.9 72.05 58.85
Q 73.2 58.65 74.4 58.25 75.6 57.8 76.55 57.1 77.5 56.4 78.1 55.35 78.7 54.25 78.7 52.9 78.7 52.05 78.4 51.35 78.15 50.6 77.6 50.1 77.1 49.65 76.4 49.4 75.7 49.2 74.85 49.15
L 74.85 49.1
Q 76.2 48.5 77.05 47.35 77.85 46.25 77.85 44.75 77.85 43.3 77.3 42.5 76.7 41.75 75.8 41.35 74.9 41.05 73.7 41.05
M 68.7 48.7
L 68.7 44.9 71.35 44.55
Q 71.8 44.45 72.3 44.45 72.75 44.5 73.1 44.6 73.5 44.75 73.75 45.1 73.95 45.4 73.95 45.95 73.95 46.5 73.75 46.9 73.55 47.35 73.2 47.6 72.85 47.9 72.4 48.05 71.95 48.25 71.5 48.3
L 68.7 48.7
M 73.95 54.8
Q 73.55 55.1 73.1 55.25 72.65 55.45 72.2 55.45
L 68.7 56 68.7 52 71.65 51.55
Q 72.1 51.55 72.65 51.5 73.2 51.45 73.7 51.65 74.15 51.75 74.45 52.1 74.8 52.4 74.8 53.05 74.8 53.6 74.55 54 74.3 54.5 73.95 54.8
M 55.45 43.6
L 48.6 44.65 48.6 62.35 52.5 61.75 52.5 54.65 54.4 54.4 58.1 60.95 62.8 60.25 58.3 53.4
Q 60.15 52.8 61.15 51.35 62.1 49.9 62.1 48 62.1 46.45 61.6 45.5 61.05 44.55 60.15 44.05 59.25 43.55 58 43.5 56.8 43.4 55.45 43.6
M 57.8 47.5
Q 58.05 47.95 58.05 48.6 58.05 49.35 57.75 49.7 57.45 50.2 56.95 50.45 56.5 50.75 55.9 50.9 55.3 50.95 54.8 51
L 52.5 51.35 52.5 47.35 55.05 47
Q 55.6 46.9 56.15 46.85 56.65 46.9 57.1 47.05 57.5 47.15 57.8 47.5 Z"/>
</g>

<path id="Layer1_0_1_STROKES" stroke="#2A2A2A" stroke-width="5" stroke-linejoin="round" stroke-linecap="round" fill="none" d="
M 92.95 61.85
Q 91.4 68.3 85.8 71.3
L 26 78.75
Q 19.1 79.3 12.2 75.55
L 6.25 55.15
Q 9.55 42.85 11.2 35.6 19.15 37.5 26 35.6
L 80.2 21.65
Q 86.35 20.45 88.95 26.65 93.5 44.05 92.95 61.85 Z"/>

<path id="Layer1_0_2_STROKES" stroke="#666666" stroke-width="4" stroke-linejoin="round" stroke-linecap="round" fill="none" d="
M 25.4 71.275
Q 16.1978515625 61.238671875 21.65 44.3
L 77.45 32.4
Q 82.51015625 31.6044921875 83.5 36.7 85.7728515625 47.9783203125 85.475 60.725 84.812109375 62.791796875 83.225 64.05
L 25.4 71.275 25.4 71.3 25.325 71.275
Q 25.3681640625 71.276953125 25.4 71.275 Z"/>

</defs>

<g transform="matrix( 1, 0, 0, 1, 0,0) ">
<use xlink:href="#Layer1_0_FILL"/>

<use xlink:href="#Layer1_0_1_STROKES"/>

<use xlink:href="#Layer1_0_2_STROKES"/>
</g>

<g transform="matrix( 1, 0, 0, 1, -3.4,-28) ">
<clipPath id="Mask_Mask_1">
<rect x="-5" y="-2" width="116.8" height="20.8" fill="#FFFFFF" stroke="none"/>
</clipPath>

<text clip-path="url(#Mask_Mask_1)" writing-mode="lr"><tspan x="-2.9" y="13.6" baseline-shift="0%" kerning="auto" font-family="Arial_Regular" font-size="15" fill="#999999" xml:space="preserve">Steam Controller</tspan></text>
</g>
</svg>
