
<svg xmlns="http://www.w3.org/2000/svg" version="1.1" xmlns:xlink="http://www.w3.org/1999/xlink" x="0px" y="0px" viewBox="0 0 100 100">
<defs>
<g id="Layer1_0_FILL">
<path fill="#FFFFFF" stroke="none" d="
M 40.3 77.25
Q 37.3130859375 80.313671875 33.15 81.55 32.9306640625 81.6611328125 32.7 81.7 39.696484375 87.4916015625 49.45 89.1
L 49.55 89.1
Q 61.65 90.7 71.95 84.7 72.25 84.4 72.55 84.25
L 76.6 89.7 84.35 66.9 60.4 67.9 64.35 73.2
Q 58.35 76.35 51.6 75.45
L 51.5 75.45
Q 46.87265625 74.6923828125 43.3 72.35 42.409375 74.8171875 40.55 76.95 40.418359375 77.1146484375 40.3 77.25
M 68.3 19.6
Q 68.4302734375 19.611328125 68.5 19.6 68.5345703125 19.59375 68.55 19.6 60.454296875 9.94921875 47.55 7.95
L 47.45 7.95
Q 35.2 6.1 24.9 12.45 24.7 12.5 24.45 12.8
L 20.35 7.3 12.5 29.95 36.5 29.15 32.65 23.85
Q 38.5 20.45 45.45 21.6 49.2107421875 22.165234375 52.25 23.8 54.57890625 23.0728515625 56.9 22.45
L 56.65 22.55
Q 59.223828125 21.78515625 61.85 21.1
L 61.95 21.05
Q 65.1375 20.2984375 68.3 19.6
M 88.95 30.25
Q 88.4 27.9 87.1 26.35 84.85 24.1 81.6 23.85 78.35 24 75.1 24.5 72.35 25 69.55 25.5 66.45 26.15 63.35 26.9 60.85 27.55 58.4 28.3 55.85 28.95 53.35 29.75 50.85 30.65 48.35 31.55 47.85 31.75 47.3 31.95 45.25 32.75 43.25 33.55 43.1 33.6 43 33.65 40.55 34.65 38.1 35.65 35.8 36.75 33.45 38 31.1 39.1 28.8 40.35 26 41.85 23.3 43.45 20.9 45 18.5 46.5 15.75 48.3 13.35 50.35 11.1 52.75 10.9 55.95 11 57.95 12.15 60.05
L 14.3 63.8
Q 15.45 65.85 16.75 67.9 17.5 69 18.55 70 19.8 71.25 21.25 72.2 22.95 73.3 24.55 74.65 26.2 76.05 28.4 76.25 29.85 76.4 31.05 75.95 33.95 75.15 36 73.05 37.25 71.6 37.8 69.95 38.1 68.15 37.8 66.1 37.35 62.1 38.15 59.65 39.45 56.9 41.95 55.45 46.7 53.15 50.35 51.75 52.4 50.95 54.4 50.15 58.3 48.65 63.9 46.95 66.7 46.3 69.5 47.45 71.75 48.75 74.15 52 75.3 53.7 76.7 54.85 78.25 55.7 80.15 55.9 83.05 56.05 85.8 54.7 87 54.2 87.95 53.1 89.45 51.5 89.7 49.35 90 47.25 90.5 45.3 90.85 43.65 91 41.85 91.05 40.45 90.85 39.1 90.5 36.7 89.95 34.4
L 88.95 30.25 Z"/>
</g>

</defs>

<g transform="matrix( 1, 0, 0, 1, 0,0) ">
<use xlink:href="#Layer1_0_FILL"/>
</g>

<g transform="matrix( 1, 0, 0, 1, -3.4,-28) ">
<clipPath id="Mask_Mask_1">
<rect x="-5" y="-2" width="116.8" height="20.8" fill="#FFFFFF" stroke="none"/>
</clipPath>

<text clip-path="url(#Mask_Mask_1)" writing-mode="lr"><tspan x="-2.9" y="13.6" baseline-shift="0%" kerning="auto" font-family="Arial_Regular" font-size="15" fill="#999999" xml:space="preserve">Steam Controller</tspan></text>
</g>
</svg>
