
<svg xmlns="http://www.w3.org/2000/svg" version="1.1" xmlns:xlink="http://www.w3.org/1999/xlink" x="0px" y="0px" viewBox="0 0 100 100">
<defs>
<g id="Layer1_0_FILL">
<path fill="#FFFFFF" stroke="none" d="
M 41 166.6
Q 41 169.6 43.05 171.7 45.2 173.8 48.15 173.8 51.1 173.8 53.2 171.7 55.3 169.6 55.3 166.6 55.3 163.7 53.2 161.55 51.1 159.45 48.15 159.45 45.2 159.45 43.05 161.55 41 163.7 41 166.6
M 38.35 191.75
Q 34.25 187.75 30.3 182.9 29.85 182.35 29.5 181.85 29.3 185.5 29.7 188.85 31 199.75 36.7 202.25 37 202.4 37.45 202.5 42.25 204.05 47.85 199.75 44.45 197.3 41.2 194.4 39.5 193.55 38.35 191.75
M 7.65 150.15
Q 4.1 158.3 4.1 167.9 4.1 185 15.3 197.5
L 13.55 199.25
Q 13.25 199.45 13.1 199.8 12.25 199.5 11.3 199.5 8.8 199.5 7.05 201.25 5.4 202.95 5.4 205.4 5.4 207.9 7.05 209.6 8.8 211.35 11.3 211.35 13.75 211.35 15.45 209.65 17.2 207.9 17.2 205.4 17.2 204.45 17 203.65 17.2 203.5 17.45 203.3
L 19.3 201.4
Q 31.85 212.55 48.75 212.55 53.45 212.55 57.85 211.7 56 210.95 54.15 210.05 51.3 208.65 48.55 206.95 32.55 206.9 21.15 195.4 9.7 183.95 9.7 167.9 9.7 163.9 10.45 160.2 9.3 157.15 8.6 154.25 8 152.1 7.65 150.15
M 57.45 146.5
Q 57.4 146.5 57.35 146.5 55.9 146.4 54.2 147.55 57.55 150.45 60.85 154.25 60.8 153.9 60.8 153.55 60.4 150.35 59.45 148.55 58.4 147.5 57.45 146.5
M 41.15 139.3
Q 41.85 138.45 42.6 137.7 43.4 136.8 44.25 136 42.3 134.8 40.4 133.8 40 133.55 39.6 133.4 39.1 133.2 38.6 132.95 26 127.1 19.6 132.35 19.15 132.65 18.85 133 13.2 138.6 16.75 152.1 20.45 166.4 32.45 181.1 44.55 195.9 57.85 202.45 70.4 208.65 77 204.25 77.4 203.95 77.85 203.6 84.5 198.15 80.7 183.75 78.8 176.5 74.7 169.05 73.85 167.55 72.9 165.95 71.95 164.35 70.85 162.75 70.7 163.55 70.5 164.35 70.3 165.65 69.95 167 70.25 167.55 70.5 168.1 70.8 168.55 71.05 169.05
L 71.1 169.05
Q 73.45 173.8 74.65 178.4 77.55 189.2 72.5 193.3 72.2 193.55 71.85 193.8 66.85 197.15 57.35 192.45 47.45 187.5 38.3 176.35 29.25 165.2 26.3 154.5 23.7 144.25 27.95 140.1 28.25 139.75 28.5 139.55 32.25 136.55 38.6 138.4 39.5 138.7 40.4 139.05 40.75 139.15 41.15 139.3
M 44.35 126.3
Q 46.5 127.45 48.7 128.8 48.75 128.85 48.85 128.9 64.9 128.95 76.2 140.35 87.75 151.8 87.75 167.9 87.75 171.95 87 175.7 88.1 178.6 88.9 181.6 89.45 183.7 89.85 185.65 93.4 177.5 93.4 167.9 93.4 150.9 82.25 138.4
L 84 136.65
Q 84.2 136.4 84.45 136.15 85.25 136.4 86.25 136.4 88.7 136.4 90.4 134.7 92.1 133 92.1 130.55 92.1 128.05 90.35 126.3 88.65 124.6 86.2 124.6 83.7 124.6 82 126.3 80.3 128 80.3 130.5 80.3 131.45 80.55 132.2 80.3 132.4 80.1 132.6
L 78.25 134.45
Q 65.85 123.25 48.75 123.25 44 123.25 39.6 124.15 40.8 124.6 42.1 125.25 42.15 125.25 42.15 125.3 42.7 125.5 43.35 125.85
L 43.4 125.85
Q 43.8 126.05 44.25 126.25
L 44.35 126.3
M 59.9 133.85
Q 59.8 133.8 59.75 133.8 59.3 133.7 59 133.65 54.75 132.65 49.85 136.35 47.7 137.9 45.45 140.35 44.15 141.75 43 143.3 37.8 150.05 34.25 159.7 34 160.3 33.75 161 33.35 162.05 33 163.15 32.95 163.25 32.95 163.4 34.7 166.75 37.2 170.15 37.75 167.65 38.6 164.95 39.25 162.9 40 161 40.1 160.65 40.3 160.3 43.45 152.7 48 147.7 48.4 147.25 48.85 146.85 53.8 141.9 57.9 142.6 57.95 142.6 58.1 142.65 58.15 142.65 58.2 142.65 58.55 142.7 58.8 142.8 60.45 143.3 61.7 144.65 63.15 146.35 64 149.35 64.45 151.05 64.65 153.1 65.05 156.55 64.7 160.3 64.6 161.8 64.4 163.35
L 63.1 169.35
Q 62.7 170.9 62.15 172.55 60.75 177 58.85 180.7 56.95 184.55 54.6 187.65 55.75 188.4 57 189.1 57.95 187.5 58.85 185.8 61.9 180.2 64.15 173.2 64.65 171.7 65.1 170.15 65.7 168.1 66.2 166.05 66.8 163.15 67.25 160.3 67.7 157 67.8 153.9 67.9 150.6 67.55 147.5
L 67.55 147.4
Q 67.35 145.95 67.15 144.65 65.6 136.9 61.3 134.45 61.25 134.4 61.2 134.4
L 61.1 134.35
Q 61.05 134.3 61 134.3 60.75 134.15 60.4 134 60.35 134 60.2 133.95 60.05 133.9 59.95 133.85
L 59.9 133.85
M 9.5 68.45
Q 7.4 69.9 6.8 72.55 6.3 75.1 7.65 77.35 9.1 79.65 11.8 80.15 14.4 80.7 16.55 79.35 18.85 77.85 19.4 75.25 19.65 74.2 19.6 73.25 19.9 73.15 20.05 72.9
L 25.15 66.05 16.85 67.85
Q 16.65 67.85 16.3 68.3 15.5 67.8 14.4 67.55 11.8 67 9.5 68.45
M 32.5 68.6
Q 31.95 68.05 31.45 67.6 31.85 71.55 32.75 75.15 35.75 86.65 42.2 88.5 42.65 88.6 43.15 88.65 48.5 89.65 53.9 84.15 49.9 82.05 45.95 79.35 44 78.7 42.5 76.9 37.5 73.25 32.5 68.6
M 56.4 25.45
Q 56.35 25.45 56.3 25.45 54.65 25.5 53.05 26.95 57.1 29.65 61.15 33.25 61.05 32.85 61 32.55 60.1 29.15 58.85 27.35 57.55 26.3 56.4 25.45
M 43.1 43.7
Q 41.2 46.35 41.65 49.45 42.1 52.7 44.6 54.6 47.2 56.6 50.4 56.15 53.55 55.7 55.5 53.1 57.5 50.6 57.05 47.35 56.6 44.25 54 42.2 51.45 40.3 48.3 40.75 45.1 41.2 43.1 43.7
M 57.7 11.55
Q 57.65 11.55 57.55 11.55 57.25 11.5 57.15 11.35
L 57.1 11.4
Q 57.05 11.35 57 11.35 56.5 11.3 56.15 11.3 51.45 10.95 46.7 15.55 44.6 17.6 42.5 20.55 41.4 22.25 40.3 24.05 35.75 32.15 33.4 43 33.1 43.7 33 44.55 32.7 45.7 32.55 46.95 32.5 47.05 32.5 47.2 34.85 50.6 38 53.9 38.3 51.1 38.75 48.1 39.25 45.75 39.7 43.6 39.8 43.2 39.9 42.75 42.2 34.15 46.35 28.1 46.75 27.55 47.2 27.05 51.8 20.95 56.3 21.1 56.35 21.1 56.45 21.15 56.5 21.15 56.6 21.15 56.95 21.15 57.35 21.25 59.1 21.5 60.65 22.8 62.45 24.4 63.85 27.45 64.55 29.25 65.15 31.45 66 35.05 66.25 39.15 66.35 40.85 66.3 42.5
L 65.8 49.15
Q 65.65 50.9 65.25 52.75 64.45 57.75 63 62.05 61.5 66.45 59.35 70.1 60.75 70.8 62.2 71.35 63 69.5 63.75 67.55 66.15 61 67.55 53.2 67.9 51.4 68.15 49.75 68.4 47.45 68.65 45.2 68.9 41.95 68.95 38.8 69 35.15 68.65 31.8 68.25 28.25 67.35 24.95
L 67.35 24.9
Q 67 23.35 66.55 22 63.75 13.85 58.7 11.85 58.65 11.85 58.6 11.85
L 58.55 11.8
Q 58.45 11.7 58.4 11.7 58.1 11.6 57.7 11.55
M 86.75 83.9
Q 93.1 77 86.95 62.1 83.8 54.55 78.3 47.15 77.15 45.6 75.9 44.05 74.6 42.5 73.25 40.9 73.15 41.85 73.05 42.7 73.05 44.15 72.85 45.65 73.3 46.15 73.6 46.75 74.05 47.1 74.35 47.7
L 74.4 47.65
Q 77.65 52.4 79.6 57.2 84.35 68.4 79.5 73.6 79.25 73.85 78.85 74.25 73.95 78.55 63.05 74.9 51.7 71.05 40.2 60.4 28.8 49.7 24 38.65 19.7 27.95 23.7 22.85 23.95 22.45 24.15 22.15 27.7 18.4 34.85 19.5 35.85 19.65 36.9 19.9 37.3 19.95 37.75 20.05 38.45 19.1 39.1 18.15 39.8 17 40.55 16.05 38.35 15.05 36.1 14.2 35.65 14.05 35.25 13.9 34.65 13.75 34 13.6 19.6 9.2 13.55 15.7 13.15 16.2 12.8 16.6 7.55 23.4 13.35 37.4 19.5 52.3 34.6 66.35 49.8 80.55 65.1 85.55 79.5 90.35 85.95 84.7 86.35 84.35 86.75 83.9
M 93.4 26.95
Q 94 24.3 92.55 22.05 91.15 19.75 88.5 19.25 85.85 18.75 83.65 20.1 81.4 21.6 80.8 24.25 80.6 25.2 80.65 26.25 80.45 26.25 80.15 26.55
L 75.05 33.4 83.35 31.55
Q 83.7 31.5 83.95 31.1 84.8 31.6 85.85 31.9 88.4 32.45 90.7 30.95 92.85 29.55 93.4 26.95 Z"/>
</g>

</defs>

<g transform="matrix( 1, 0, 0, 1, 0,0) ">
<use xlink:href="#Layer1_0_FILL"/>
</g>

<g transform="matrix( 1, 0, 0, 1, -3.4,-28) ">
<clipPath id="Mask_Mask_1">
<rect x="-5" y="-2" width="116.8" height="20.8" fill="#FFFFFF" stroke="none"/>
</clipPath>

<text clip-path="url(#Mask_Mask_1)" writing-mode="lr"><tspan x="-2.9" y="13.6" baseline-shift="0%" kerning="auto" font-family="Arial_Regular" font-size="15" fill="#999999" xml:space="preserve">Steam Controller</tspan></text>
</g>
</svg>
