
<svg xmlns="http://www.w3.org/2000/svg" version="1.1" xmlns:xlink="http://www.w3.org/1999/xlink" x="0px" y="0px" viewBox="0 0 100 100">
<defs>
<g id="Layer1_0_FILL">
<path fill="#272727" stroke="none" d="
M 79.85 20.15
Q 67.5 7.8 50 7.8 32.5 7.8 20.15 20.15 7.8 32.5 7.8 50 7.8 67.5 20.15 79.85 32.5 92.2 50 92.2 67.5 92.2 79.85 79.85 92.2 67.5 92.2 50 92.2 32.5 79.85 20.15
M 50 15.95
Q 64.2 15.95 74.1 25.95 84.1 35.9 84.1 50 84.1 64.2 74.1 74.1 64.2 84.1 50 84.1 35.9 84.1 25.95 74.1 15.95 64.2 15.95 50 15.95 35.9 25.95 25.95 35.9 15.95 50 15.95
M 58.2 77.3
Q 57.6 78.55 58.1 79.85 58.65 81.1 59.9 81.65 61.1 82.2 62.35 81.7 63.65 81.15 64.25 79.95 64.75 78.7 64.3 77.45 63.8 76.15 62.55 75.6 61.25 75.05 59.95 75.5 58.7 76 58.2 77.3
M 53.35 80.7
Q 53.35 79.35 52.35 78.3 51.4 77.4 50.05 77.4 48.65 77.4 47.7 78.3 46.7 79.35 46.7 80.7 46.7 82.1 47.7 83 48.65 84 50.05 84 51.4 84 52.35 83 53.35 82.1 53.35 80.7
M 69.35 69.35
Q 68.4 70.35 68.5 71.7 68.45 73.05 69.4 74 70.4 75.05 71.75 75.05 73.05 75.05 74 74 75.05 73.05 75.1 71.7 75.05 70.4 74 69.4 73.05 68.45 71.75 68.45 70.35 68.4 69.35 69.35
M 36.4 81.1
Q 37.6 81.7 38.9 81.1 40.15 80.7 40.75 79.45 41.25 78.15 40.8 76.85 40.25 75.6 39.05 75.1 37.75 74.55 36.5 75 35.2 75.5 34.65 76.75 34.15 78.05 34.6 79.3 35.1 80.6 36.4 81.1
M 28.3 68.45
Q 27 68.5 26 69.45 25.05 70.4 25 71.7 25 73.1 26 74.05 27 75.1 28.3 75.05 29.7 75.05 30.65 74.05 31.6 73.1 31.6 71.7 31.65 70.4 30.65 69.4 29.7 68.45 28.3 68.45
M 24.45 60
Q 23.95 58.75 22.75 58.1 21.5 57.55 20.25 58.05 18.95 58.6 18.4 59.8 17.8 61.15 18.3 62.4 18.8 63.7 20.1 64.15 21.35 64.75 22.65 64.25 23.9 63.75 24.4 62.45 24.95 61.3 24.45 60
M 30.65 30.65
Q 31.65 29.7 31.65 28.3 31.6 27 30.6 26 29.65 25 28.35 25 27 25 26 26 25 27 25.05 28.3 25 29.65 26 30.6 27 31.6 28.35 31.6 29.7 31.65 30.65 30.65
M 18.9 36.35
Q 18.35 37.6 18.85 38.85 19.3 40.05 20.55 40.7 21.85 41.2 23.15 40.75 24.4 40.2 24.95 38.95 25.5 37.65 25.05 36.45 24.5 35.2 23.25 34.65 21.95 34.1 20.75 34.55 19.4 35.05 18.9 36.35
M 19.3 46.65
Q 17.95 46.65 17 47.65 16.05 48.6 16.05 50 16.05 51.35 17 52.3 17.95 53.3 19.3 53.3 20.7 53.3 21.7 52.3 22.65 51.35 22.65 50 22.65 48.6 21.7 47.65 20.7 46.65 19.3 46.65
M 75.05 28.3
Q 75.05 27.05 74 26 73.05 25.05 71.7 25 70.4 25.05 69.4 26 68.45 27.05 68.45 28.3 68.4 29.75 69.35 30.7 70.35 31.7 71.7 31.6 73.05 31.65 74 30.65 75.05 29.7 75.05 28.3
M 47.7 16.95
Q 46.7 17.95 46.7 19.3 46.7 20.7 47.7 21.65 48.65 22.65 50.05 22.65 51.4 22.65 52.35 21.65 53.35 20.7 53.35 19.3 53.35 17.95 52.35 16.95 51.4 16.05 50.05 16.05 48.65 16.05 47.7 16.95
M 41.9 22.8
Q 42.4 21.5 41.9 20.25 41.4 18.95 40.15 18.45 38.9 17.85 37.6 18.35 36.35 18.85 35.8 20.15 35.25 21.35 35.7 22.65 36.25 23.9 37.55 24.45 38.75 25 40 24.5 41.3 24 41.9 22.8
M 65.4 23.25
Q 65.95 21.95 65.5 20.65 64.9 19.4 63.7 18.9 62.4 18.35 61.2 18.8 59.9 19.3 59.3 20.55 58.8 21.85 59.25 23.1 59.75 24.4 61.05 24.95 62.25 25.5 63.55 24.95 64.8 24.5 65.4 23.25
M 81.1 63.65
Q 81.7 62.35 81.25 61.1 80.7 59.85 79.45 59.3 78.15 58.8 76.95 59.2 75.6 59.7 75.1 61 74.55 62.25 75.05 63.5 75.5 64.75 76.75 65.3 78.05 65.85 79.35 65.35 80.6 64.9 81.1 63.65
M 83.05 52.3
Q 84 51.35 84 50 84 48.6 83.05 47.65 82.1 46.65 80.7 46.65 79.35 46.65 78.35 47.65 77.4 48.6 77.4 50 77.4 51.35 78.35 52.3 79.35 53.3 80.7 53.3 82.1 53.3 83.05 52.3
M 81.6 40.15
Q 82.15 39 81.65 37.7 81.1 36.45 79.9 35.8 78.65 35.3 77.4 35.75 76.1 36.3 75.55 37.5 75 38.85 75.45 40.1 75.95 41.4 77.25 41.85 78.5 42.45 79.8 41.95 81.05 41.45 81.6 40.15 Z"/>

<path fill="#373737" stroke="none" d="
M 74.1 25.95
Q 64.2 15.95 50 15.95 35.9 15.95 25.95 25.95 15.95 35.9 15.95 50 15.95 64.2 25.95 74.1 35.9 84.1 50 84.1 64.2 84.1 74.1 74.1 84.1 64.2 84.1 50 84.1 35.9 74.1 25.95
M 81.65 37.7
Q 82.15 39 81.6 40.15 81.05 41.45 79.8 41.95 78.5 42.45 77.25 41.85 75.95 41.4 75.45 40.1 75 38.85 75.55 37.5 76.1 36.3 77.4 35.75 78.65 35.3 79.9 35.8 81.1 36.45 81.65 37.7
M 84 50
Q 84 51.35 83.05 52.3 82.1 53.3 80.7 53.3 79.35 53.3 78.35 52.3 77.4 51.35 77.4 50 77.4 48.6 78.35 47.65 79.35 46.65 80.7 46.65 82.1 46.65 83.05 47.65 84 48.6 84 50
M 81.25 61.1
Q 81.7 62.35 81.1 63.65 80.6 64.9 79.35 65.35 78.05 65.85 76.75 65.3 75.5 64.75 75.05 63.5 74.55 62.25 75.1 61 75.6 59.7 76.95 59.2 78.15 58.8 79.45 59.3 80.7 59.85 81.25 61.1
M 65.5 20.65
Q 65.95 21.95 65.4 23.25 64.8 24.5 63.55 24.95 62.25 25.5 61.05 24.95 59.75 24.4 59.25 23.1 58.8 21.85 59.3 20.55 59.9 19.3 61.2 18.8 62.4 18.35 63.7 18.9 64.9 19.4 65.5 20.65
M 41.9 20.25
Q 42.4 21.5 41.9 22.8 41.3 24 40 24.5 38.75 25 37.55 24.45 36.25 23.9 35.7 22.65 35.25 21.35 35.8 20.15 36.35 18.85 37.6 18.35 38.9 17.85 40.15 18.45 41.4 18.95 41.9 20.25
M 44.45 22.7
Q 45.65 22.45 46.7 23.15 47.7 23.8 47.95 25.05 48.0814453125 25.6810546875 47.95 26.25 48.119140625 26.259375 48.25 26.25 49.1146484375 26.2015625 50 26.2 50.8853515625 26.2015625 51.7 26.25 52.287890625 26.2822265625 52.85 26.35 52.746484375 25.7638671875 52.9 25.15
L 52.9 25.1
Q 53.15 23.9 54.2 23.3 55.3 22.65 56.55 22.95 57.7 23.25 58.35 24.25
L 58.35 24.3
Q 59 25.35 58.75 26.55
L 58.8 26.55
Q 58.6333984375 27.121484375 58.3 27.55 59.6056640625 28.0693359375 60.85 28.7
L 60.85 28.65
Q 61.0005859375 28.751953125 61.15 28.8 61.268359375 28.323828125 61.6 27.85
L 61.65 27.85
Q 62.3 26.8 63.55 26.55 64.75 26.35 65.75 27.05
L 65.8 27.1
Q 66.8 27.75 67 29 67.25 30.2 66.6 31.25 66.224609375 31.7505859375 65.7 32.05 66.3306640625 32.573046875 66.9 33.15 67.525390625 33.7646484375 68.1 34.4
L 68.15 34.4
Q 68.4619140625 34.0021484375 68.95 33.7
L 68.95 33.65
Q 69.95 32.95 71.15 33.2
L 71.2 33.2
Q 72.4 33.4 73.1 34.45 73.75 35.45 73.5 36.7 73.3 37.9 72.3 38.65 71.8380859375 38.9359375 71.35 39.05 71.45859375 39.27265625 71.55 39.5
L 71.55 39.45
Q 72.2435546875 40.9068359375 72.75 42.5 73.22421875 42.215234375 73.8 42.1 75 41.85 76.05 42.55 77.05 43.2 77.3 44.45 77.55 45.65 76.9 46.7 76.2 47.7 75 47.95 74.3875 48.0724609375 73.8 47.95 73.8431640625 48.0892578125 73.85 48.2 73.8986328125 49.1 73.9 50 73.8986328125 50.9224609375 73.85 51.8 73.8123046875 52.323046875 73.75 52.8 74.327734375 52.7505859375 74.95 52.9 76.15 53.15 76.85 54.25
L 76.85 54.2
Q 77.45 55.3 77.15 56.55 76.85 57.7 75.85 58.35 74.7 59 73.5 58.75
L 73.55 58.8
Q 72.961328125 58.63515625 72.5 58.3 72.016015625 59.7060546875 71.35 61.05
L 71.4 61
Q 71.353125 61.0865234375 71.3 61.15 71.7962890625 61.2974609375 72.25 61.6 73.25 62.3 73.45 63.55 73.65 64.75 73 65.8 72.25 66.8 71.05 67
L 71 67
Q 69.85 67.25 68.85 66.55 68.3669921875 66.2279296875 68.05 65.8 67.501953125 66.3576171875 66.9 66.9 66.2517578125 67.608984375 65.6 68.2 66.1029296875 68.529296875 66.45 69.05 67.1 70.05 66.85 71.25
L 66.85 71.3
Q 66.65 72.5 65.65 73.2 64.6 73.85 63.35 73.6 62.15 73.4 61.5 72.4 61.1642578125 71.896484375 61 71.35 60.84375 71.4501953125 60.65 71.55 60.6248046875 71.5619140625 60.6 71.55 59.1037109375 72.26953125 57.5 72.8 57.787890625 73.239453125 57.9 73.8 58.15 75 57.5 76.05 56.8 77.05 55.6 77.3 54.35 77.55 53.35 76.9 52.3 76.2 52.05 75 51.927734375 74.3888671875 52 73.85 51.9416015625 73.8443359375 51.85 73.85 50.9486328125 73.8986328125 50 73.9 49.1248046875 73.8986328125 48.25 73.85 47.7349609375 73.812890625 47.2 73.75 47.323046875 74.3349609375 47.2 74.95 46.85 76.15 45.8 76.8 44.75 77.45 43.6 77.2 42.35 76.85 41.7 75.8 41 74.7 41.3 73.55 41.4427734375 72.9552734375 41.75 72.5 40.3814453125 71.992578125 39.1 71.35
L 39.1 71.35
Q 38.9416015625 71.2798828125 38.75 71.15 38.651953125 71.712109375 38.35 72.2 37.6 73.2 36.4 73.4
L 36.35 73.4
Q 35.15 73.6 34.15 72.95 33.1 72.2 32.9 71
L 32.9 70.95
Q 32.65 69.8 33.35 68.8
L 33.4 68.8
Q 33.7228515625 68.278515625 34.2 67.95 33.6744140625 67.4337890625 33.15 66.9 32.5771484375 66.3353515625 32 65.7 31.99765625 65.6767578125 31.95 65.65 31.9197265625 65.5888671875 31.85 65.5 31.5431640625 66.0697265625 31 66.45 29.95 67.1 28.75 66.85 27.5 66.65 26.85 65.65 26.15 64.6 26.4 63.35 26.6 62.15 27.65 61.5 28.16484375 61.1396484375 28.75 61 28.619921875 60.773046875 28.5 60.5 27.7765625 59.02265625 27.3 57.45
L 27.3 57.45
Q 26.8275390625 57.7744140625 26.2 57.9 25 58.15 24 57.5 22.95 56.8 22.7 55.6 22.45 54.35 23.15 53.35 23.8 52.3 25 52.05 25.66328125 51.9173828125 26.25 52.05 26.259375 51.9015625 26.25 51.75 26.2015625 50.8984375 26.2 50 26.2015625 49.127734375 26.25 48.3 26.2892578125 47.7556640625 26.35 47.2 25.762890625 47.327734375 25.15 47.2 23.9 46.85 23.3 45.8 22.6 44.75 22.9 43.6 23.2 42.35 24.25 41.7
L 24.3 41.7
Q 25.35 41 26.55 41.3 27.1349609375 41.4462890625 27.6 41.75 28.0640625 40.4833984375 28.7 39.25 28.73515625 39.224609375 28.75 39.2 28.8439453125 39.0109375 28.95 38.8 28.375390625 38.7177734375 27.85 38.35 26.8 37.65 26.55 36.4 26.35 35.2 27.05 34.2
L 27.1 34.2
Q 27.75 33.15 29 32.95 30.2 32.7 31.25 33.4 31.793359375 33.7802734375 32.1 34.3
L 32.1 34.3
Q 32.62734375 33.71484375 33.15 33.15 33.7001953125 32.6306640625 34.2 32.15 34.258203125 32.1501953125 34.3 32.1 34.395703125 32.03828125 34.5 31.95 34.0265625 31.65234375 33.7 31.15
L 33.65 31.1
Q 32.95 30.1 33.2 28.85 33.4 27.65 34.45 27 35.45 26.3 36.7 26.5 37.9 26.75 38.65 27.8 38.95546875 28.269921875 39.05 28.75 39.2923828125 28.6642578125 39.5 28.55
L 39.55 28.55
Q 40.981640625 27.823828125 42.55 27.3 42.2240234375 26.8453125 42.1 26.25 41.85 25 42.55 24 43.2 22.95 44.45 22.7
M 46.7 19.3
Q 46.7 17.95 47.7 16.95 48.65 16.05 50.05 16.05 51.4 16.05 52.35 16.95 53.35 17.95 53.35 19.3 53.35 20.7 52.35 21.65 51.4 22.65 50.05 22.65 48.65 22.65 47.7 21.65 46.7 20.7 46.7 19.3
M 74 26
Q 75.05 27.05 75.05 28.3 75.05 29.7 74 30.65 73.05 31.65 71.7 31.6 70.35 31.7 69.35 30.7 68.4 29.75 68.45 28.3 68.45 27.05 69.4 26 70.4 25.05 71.7 25 73.05 25.05 74 26
M 17 47.65
Q 17.95 46.65 19.3 46.65 20.7 46.65 21.7 47.65 22.65 48.6 22.65 50 22.65 51.35 21.7 52.3 20.7 53.3 19.3 53.3 17.95 53.3 17 52.3 16.05 51.35 16.05 50 16.05 48.6 17 47.65
M 18.85 38.85
Q 18.35 37.6 18.9 36.35 19.4 35.05 20.75 34.55 21.95 34.1 23.25 34.65 24.5 35.2 25.05 36.45 25.5 37.65 24.95 38.95 24.4 40.2 23.15 40.75 21.85 41.2 20.55 40.7 19.3 40.05 18.85 38.85
M 31.65 28.3
Q 31.65 29.7 30.65 30.65 29.7 31.65 28.35 31.6 27 31.6 26 30.6 25 29.65 25.05 28.3 25 27 26 26 27 25 28.35 25 29.65 25 30.6 26 31.6 27 31.65 28.3
M 22.75 58.1
Q 23.95 58.75 24.45 60 24.95 61.3 24.4 62.45 23.9 63.75 22.65 64.25 21.35 64.75 20.1 64.15 18.8 63.7 18.3 62.4 17.8 61.15 18.4 59.8 18.95 58.6 20.25 58.05 21.5 57.55 22.75 58.1
M 26 69.45
Q 27 68.5 28.3 68.45 29.7 68.45 30.65 69.4 31.65 70.4 31.6 71.7 31.6 73.1 30.65 74.05 29.7 75.05 28.3 75.05 27 75.1 26 74.05 25 73.1 25 71.7 25.05 70.4 26 69.45
M 38.9 81.1
Q 37.6 81.7 36.4 81.1 35.1 80.6 34.6 79.3 34.15 78.05 34.65 76.75 35.2 75.5 36.5 75 37.75 74.55 39.05 75.1 40.25 75.6 40.8 76.85 41.25 78.15 40.75 79.45 40.15 80.7 38.9 81.1
M 68.5 71.7
Q 68.4 70.35 69.35 69.35 70.35 68.4 71.75 68.45 73.05 68.45 74 69.4 75.05 70.4 75.1 71.7 75.05 73.05 74 74 73.05 75.05 71.75 75.05 70.4 75.05 69.4 74 68.45 73.05 68.5 71.7
M 52.35 78.3
Q 53.35 79.35 53.35 80.7 53.35 82.1 52.35 83 51.4 84 50.05 84 48.65 84 47.7 83 46.7 82.1 46.7 80.7 46.7 79.35 47.7 78.3 48.65 77.4 50.05 77.4 51.4 77.4 52.35 78.3
M 58.1 79.85
Q 57.6 78.55 58.2 77.3 58.7 76 59.95 75.5 61.25 75.05 62.55 75.6 63.8 76.15 64.3 77.45 64.75 78.7 64.25 79.95 63.65 81.15 62.35 81.7 61.1 82.2 59.9 81.65 58.65 81.1 58.1 79.85 Z"/>

<path fill="#4D4D4D" stroke="none" d="
M 57.5 72.8
Q 57.2015625 72.25859375 56.65 71.9 55.6 71.2 54.4 71.45 53.15 71.7 52.5 72.75 52.1421875 73.2611328125 52 73.85 51.927734375 74.3888671875 52.05 75 52.3 76.2 53.35 76.9 54.35 77.55 55.6 77.3 56.8 77.05 57.5 76.05 58.15 75 57.9 73.8 57.787890625 73.239453125 57.5 72.8
M 44.95 71.35
Q 43.7 71.05 42.65 71.65
L 42.7 71.65
Q 42.1232421875 71.9908203125 41.75 72.5 41.4427734375 72.9552734375 41.3 73.55 41 74.7 41.7 75.8 42.35 76.85 43.6 77.2 44.75 77.45 45.8 76.8 46.85 76.15 47.2 74.95 47.323046875 74.3349609375 47.2 73.75 47.130078125 73.1587890625 46.8 72.6
L 46.8 72.65
Q 46.15 71.65 44.95 71.35
M 62.3 68.25
Q 61.25 68.9 61 70.1 60.8958984375 70.750390625 61 71.35 61.1642578125 71.896484375 61.5 72.4 62.15 73.4 63.35 73.6 64.6 73.85 65.65 73.2 66.65 72.5 66.85 71.3
L 66.85 71.25
Q 67.1 70.05 66.45 69.05 66.1029296875 68.529296875 65.6 68.2 65.130078125 67.8759765625 64.5 67.75 63.3 67.55 62.3 68.25
M 72.25 61.6
Q 71.7962890625 61.2974609375 71.3 61.15 70.6599609375 61.0080078125 69.95 61.15 68.75 61.35 68.1 62.4
L 68.05 62.4
Q 67.3 63.45 67.5 64.65
L 67.5 64.6
Q 67.6619140625 65.275 68.05 65.8 68.3669921875 66.2279296875 68.85 66.55 69.85 67.25 71 67
L 71.05 67
Q 72.25 66.8 73 65.8 73.65 64.75 73.45 63.55 73.25 62.3 72.25 61.6
M 76.85 54.2
L 76.85 54.25
Q 76.15 53.15 74.95 52.9 74.327734375 52.7505859375 73.75 52.8 73.17734375 52.9236328125 72.65 53.25 71.6 53.9 71.3 55.15 71 56.3 71.7 57.35 72.0173828125 57.93203125 72.5 58.3 72.961328125 58.63515625 73.55 58.8
L 73.5 58.75
Q 74.7 59 75.85 58.35 76.85 57.7 77.15 56.55 77.45 55.3 76.85 54.2
M 37.55 68.05
L 37.5 68
Q 36.45 67.25 35.3 67.45
L 35.35 67.45
Q 34.695703125 67.6009765625 34.2 67.95 33.7228515625 68.278515625 33.4 68.8
L 33.35 68.8
Q 32.65 69.8 32.9 70.95
L 32.9 71
Q 33.1 72.2 34.15 72.95 35.15 73.6 36.35 73.4
L 36.4 73.4
Q 37.6 73.2 38.35 72.2 38.651953125 71.712109375 38.75 71.15 38.8837890625 70.569140625 38.75 69.9 38.55 68.7 37.55 68.05
M 29.95 61
L 29.9 61
Q 29.2935546875 60.9029296875 28.75 61 28.16484375 61.1396484375 27.65 61.5 26.6 62.15 26.4 63.35 26.15 64.6 26.85 65.65 27.5 66.65 28.75 66.85 29.95 67.1 31 66.45 31.5431640625 66.0697265625 31.85 65.5 32.1357421875 65.07109375 32.25 64.5 32.45 63.3 31.8 62.3 31.1 61.25 29.95 61
M 27.3 52.5
Q 26.80703125 52.171484375 26.25 52.05 25.66328125 51.9173828125 25 52.05 23.8 52.3 23.15 53.35 22.45 54.35 22.7 55.6 22.95 56.8 24 57.5 25 58.15 26.2 57.9 26.8275390625 57.7744140625 27.3 57.45 27.8013671875 57.1478515625 28.15 56.65 28.8 55.6 28.55 54.4 28.3 53.15 27.3 52.5
M 27.6 41.75
Q 27.1349609375 41.4462890625 26.55 41.3 25.35 41 24.3 41.7
L 24.25 41.7
Q 23.2 42.35 22.9 43.6 22.6 44.75 23.3 45.8 23.9 46.85 25.15 47.2 25.762890625 47.327734375 26.35 47.2 26.9119140625 47.11796875 27.45 46.8 28.4 46.15 28.75 44.95 29 43.7 28.45 42.65
L 28.45 42.7
Q 28.0912109375 42.1361328125 27.6 41.75
M 32.45 35.35
Q 32.35859375 34.7791015625 32.1 34.3 31.793359375 33.7802734375 31.25 33.4 30.2 32.7 29 32.95 27.75 33.15 27.1 34.2
L 27.05 34.2
Q 26.35 35.2 26.55 36.4 26.8 37.65 27.85 38.35 28.375390625 38.7177734375 28.95 38.8 29.4541015625 38.91875 30 38.8
L 30.05 38.8
Q 31.3 38.6 32.05 37.6 32.7 36.55 32.45 35.35
M 39.05 30.05
L 39.05 30
Q 39.182421875 29.3640625 39.05 28.75 38.95546875 28.269921875 38.65 27.8 37.9 26.75 36.7 26.5 35.45 26.3 34.45 27 33.4 27.65 33.2 28.85 32.95 30.1 33.65 31.1
L 33.7 31.15
Q 34.0265625 31.65234375 34.5 31.95 34.952734375 32.250390625 35.55 32.35 36.8 32.6 37.85 31.95 38.85 31.25 39.05 30.05
M 73.8 42.1
Q 73.22421875 42.215234375 72.75 42.5 72.2505859375 42.83359375 71.9 43.4 71.2 44.4 71.45 45.65 71.7 46.85 72.75 47.55 73.2599609375 47.8814453125 73.8 47.95 74.3875 48.0724609375 75 47.95 76.2 47.7 76.9 46.7 77.55 45.65 77.3 44.45 77.05 43.2 76.05 42.55 75 41.85 73.8 42.1
M 65.8 27.1
L 65.75 27.05
Q 64.75 26.35 63.55 26.55 62.3 26.8 61.65 27.85
L 61.6 27.85
Q 61.268359375 28.323828125 61.15 28.8 61.0185546875 29.394921875 61.15 30
L 61.15 30.05
Q 61.35 31.25 62.4 32 63.4 32.65 64.6 32.45
L 64.65 32.45
Q 65.2494140625 32.3501953125 65.7 32.05 66.224609375 31.7505859375 66.6 31.25 67.25 30.2 67 29 66.8 27.75 65.8 27.1
M 71.2 33.2
L 71.15 33.2
Q 69.95 32.95 68.95 33.65
L 68.95 33.7
Q 68.4619140625 34.0021484375 68.15 34.4 67.7837890625 34.9080078125 67.65 35.55 67.45 36.8 68.15 37.85 68.8 38.85 70 39.05 70.7001953125 39.1900390625 71.35 39.05 71.8380859375 38.9359375 72.3 38.65 73.3 37.9 73.5 36.7 73.75 35.45 73.1 34.45 72.4 33.4 71.2 33.2
M 56.55 22.95
Q 55.3 22.65 54.2 23.3 53.15 23.9 52.9 25.1
L 52.9 25.15
Q 52.746484375 25.7638671875 52.85 26.35 52.932421875 26.887109375 53.25 27.4 53.9 28.45 55.15 28.8 56.3 29.05 57.35 28.4 57.926171875 28.0595703125 58.3 27.55 58.6333984375 27.121484375 58.8 26.55
L 58.75 26.55
Q 59 25.35 58.35 24.3
L 58.35 24.25
Q 57.7 23.25 56.55 22.95
M 46.7 23.15
Q 45.65 22.45 44.45 22.7 43.2 22.95 42.55 24 41.85 25 42.1 26.25 42.2240234375 26.8453125 42.55 27.3 42.8708984375 27.797265625 43.4 28.15 44.4 28.85 45.65 28.6 46.85 28.35 47.55 27.3 47.858203125 26.8021484375 47.95 26.25 48.0814453125 25.6810546875 47.95 25.05 47.7 23.8 46.7 23.15 Z"/>

<path fill="#3F3F3F" stroke="none" d="
M 58.3 27.55
Q 57.926171875 28.0595703125 57.35 28.4 56.3 29.05 55.15 28.8 53.9 28.45 53.25 27.4 52.932421875 26.887109375 52.85 26.35 52.287890625 26.2822265625 51.7 26.25 50.8853515625 26.2015625 50 26.2 49.1146484375 26.2015625 48.25 26.25 48.119140625 26.259375 47.95 26.25 47.858203125 26.8021484375 47.55 27.3 46.85 28.35 45.65 28.6 44.4 28.85 43.4 28.15 42.8708984375 27.797265625 42.55 27.3 40.981640625 27.823828125 39.55 28.55
L 39.5 28.55
Q 39.2923828125 28.6642578125 39.05 28.75 39.182421875 29.3640625 39.05 30
L 39.05 30.05
Q 38.85 31.25 37.85 31.95 36.8 32.6 35.55 32.35 34.952734375 32.250390625 34.5 31.95 34.395703125 32.03828125 34.3 32.1 34.258203125 32.1501953125 34.2 32.15 33.7001953125 32.6306640625 33.15 33.15 32.62734375 33.71484375 32.1 34.3
L 32.1 34.3
Q 32.35859375 34.7791015625 32.45 35.35 32.7 36.55 32.05 37.6 31.3 38.6 30.05 38.8
L 30 38.8
Q 29.4541015625 38.91875 28.95 38.8 28.8439453125 39.0109375 28.75 39.2 28.73515625 39.224609375 28.7 39.25 28.0640625 40.4833984375 27.6 41.75 28.0912109375 42.1361328125 28.45 42.7
L 28.45 42.65
Q 29 43.7 28.75 44.95 28.4 46.15 27.45 46.8 26.9119140625 47.11796875 26.35 47.2 26.2892578125 47.7556640625 26.25 48.3 26.2015625 49.127734375 26.2 50 26.2015625 50.8984375 26.25 51.75 26.259375 51.9015625 26.25 52.05 26.80703125 52.171484375 27.3 52.5 28.3 53.15 28.55 54.4 28.8 55.6 28.15 56.65 27.8013671875 57.1478515625 27.3 57.45
L 27.3 57.45
Q 27.7765625 59.02265625 28.5 60.5 28.619921875 60.773046875 28.75 61 29.2935546875 60.9029296875 29.9 61
L 29.95 61
Q 31.1 61.25 31.8 62.3 32.45 63.3 32.25 64.5 32.1357421875 65.07109375 31.85 65.5 31.9197265625 65.5888671875 31.95 65.65 31.99765625 65.6767578125 32 65.7 32.5771484375 66.3353515625 33.15 66.9 33.6744140625 67.4337890625 34.2 67.95 34.695703125 67.6009765625 35.35 67.45
L 35.3 67.45
Q 36.45 67.25 37.5 68
L 37.55 68.05
Q 38.55 68.7 38.75 69.9 38.8837890625 70.569140625 38.75 71.15 38.9416015625 71.2798828125 39.1 71.35
L 39.1 71.35
Q 40.3814453125 71.992578125 41.75 72.5 42.1232421875 71.9908203125 42.7 71.65
L 42.65 71.65
Q 43.7 71.05 44.95 71.35 46.15 71.65 46.8 72.65
L 46.8 72.6
Q 47.130078125 73.1587890625 47.2 73.75 47.7349609375 73.812890625 48.25 73.85 49.1248046875 73.8986328125 50 73.9 50.9486328125 73.8986328125 51.85 73.85 51.9416015625 73.8443359375 52 73.85 52.1421875 73.2611328125 52.5 72.75 53.15 71.7 54.4 71.45 55.6 71.2 56.65 71.9 57.2015625 72.25859375 57.5 72.8 59.1037109375 72.26953125 60.6 71.55 60.6248046875 71.5619140625 60.65 71.55 60.84375 71.4501953125 61 71.35 60.8958984375 70.750390625 61 70.1 61.25 68.9 62.3 68.25 63.3 67.55 64.5 67.75 65.130078125 67.8759765625 65.6 68.2 66.2517578125 67.608984375 66.9 66.9 67.501953125 66.3576171875 68.05 65.8 67.6619140625 65.275 67.5 64.6
L 67.5 64.65
Q 67.3 63.45 68.05 62.4
L 68.1 62.4
Q 68.75 61.35 69.95 61.15 70.6599609375 61.0080078125 71.3 61.15 71.353125 61.0865234375 71.4 61
L 71.35 61.05
Q 72.016015625 59.7060546875 72.5 58.3 72.0173828125 57.93203125 71.7 57.35 71 56.3 71.3 55.15 71.6 53.9 72.65 53.25 73.17734375 52.9236328125 73.75 52.8 73.8123046875 52.323046875 73.85 51.8 73.8986328125 50.9224609375 73.9 50 73.8986328125 49.1 73.85 48.2 73.8431640625 48.0892578125 73.8 47.95 73.2599609375 47.8814453125 72.75 47.55 71.7 46.85 71.45 45.65 71.2 44.4 71.9 43.4 72.2505859375 42.83359375 72.75 42.5 72.2435546875 40.9068359375 71.55 39.45
L 71.55 39.5
Q 71.45859375 39.27265625 71.35 39.05 70.7001953125 39.1900390625 70 39.05 68.8 38.85 68.15 37.85 67.45 36.8 67.65 35.55 67.7837890625 34.9080078125 68.15 34.4
L 68.1 34.4
Q 67.525390625 33.7646484375 66.9 33.15 66.3306640625 32.573046875 65.7 32.05 65.2494140625 32.3501953125 64.65 32.45
L 64.6 32.45
Q 63.4 32.65 62.4 32 61.35 31.25 61.15 30.05
L 61.15 30
Q 61.0185546875 29.394921875 61.15 28.8 61.0005859375 28.751953125 60.85 28.65
L 60.85 28.7
Q 59.6056640625 28.0693359375 58.3 27.55 Z"/>
</g>

<path id="Layer1_0_1_STROKES" stroke="#151515" stroke-width="4" stroke-linejoin="round" stroke-linecap="round" fill="none" d="
M 50 7.8
Q 67.5 7.8 79.85 20.15 92.2 32.5 92.2 50 92.2 67.5 79.85 79.85 67.5 92.2 50 92.2 32.5 92.2 20.15 79.85 7.8 67.5 7.8 50 7.8 32.5 20.15 20.15 32.5 7.8 50 7.8 Z
M 50 15.95
Q 64.2 15.95 74.1 25.95 84.1 35.9 84.1 50 84.1 64.2 74.1 74.1 64.2 84.1 50 84.1 35.9 84.1 25.95 74.1 15.95 64.2 15.95 50 15.95 35.9 25.95 25.95 35.9 15.95 50 15.95 Z"/>

</defs>

<g transform="matrix( 1, 0, 0, 1, 0,0) ">
<use xlink:href="#Layer1_0_FILL"/>

<use xlink:href="#Layer1_0_1_STROKES"/>
</g>

<g transform="matrix( 1, 0, 0, 1, -3.4,-28) ">
<clipPath id="Mask_Mask_1">
<rect x="-5" y="-2" width="116.8" height="20.8" fill="#FFFFFF" stroke="none"/>
</clipPath>

<text clip-path="url(#Mask_Mask_1)" writing-mode="lr"><tspan x="-2.9" y="13.6" baseline-shift="0%" kerning="auto" font-family="Arial_Regular" font-size="15" fill="#999999" xml:space="preserve">Steam Controller</tspan></text>
</g>
</svg>
