
<svg xmlns="http://www.w3.org/2000/svg" version="1.1" xmlns:xlink="http://www.w3.org/1999/xlink" x="0px" y="0px" viewBox="0 0 100 100">
<defs>
<linearGradient id="Gradient_1" gradientUnits="userSpaceOnUse" x1="-46.55" y1="55.6875" x2="-46.55" y2="2.8125" spreadMethod="pad">
<stop  offset="0%" stop-color="#616161"/>

<stop  offset="95.29411764705883%" stop-color="#353535"/>
</linearGradient>

<g id="Layer1_0_FILL">
<path fill="#353535" stroke="none" d="
M 87.8 25.1
Q 85.503125 22.7517578125 82.7 20.75 77.3974609375 16.9130859375 70.3 14.35 70.05 14.25 69.8 14.15 47.3 10.85 26.35 15.95 26.408984375 18.378515625 26.35 20.75 26.271875 28.69296875 25.15 36 24.342578125 41.2916015625 23 46.25 19.25 60.05 14.9 66.25 12.55 69.65 12.4 72.45 12.2 75.9 15.35 78.4 26.4 86 46.1 85.05 56.1 85.2 61.35 82.1 75.8 73.8 81.1 58.7 84.8318359375 48.2017578125 86.6 36 87.391796875 30.7103515625 87.8 25.1
M 68.65 21.85
Q 69.35 21.05 70.4 21 71.45 20.95 72.2 21.65 73 22.3 73.05 23.35 73.4279296875 29.5779296875 73.35 36 73.18203125 47.41796875 71.55 59.45 71.4 60.65 71.15 61.9 71.05 62.25 70.85 62.6 68.1 71.3 60.75 75.45
L 60.8 75.45
Q 53.75 79.45 45.4 77.05 45.15 76.95 44.9 76.85 46.75 76.8 48.45 76.65 49.7 76.45 50.85 76.25 51.05 76.2 51.15 76.15 55.4 75.25 58.05 73 63.95 68.1 66.2 61.35 66.2 61.05 66.25 60.85 66.5 59.8 66.6 58.8 68.19609375 47.083984375 68.35 36 68.4296875 29.7236328125 68.05 23.65 68 22.65 68.65 21.85
M 45.85 38.8
L 46.45 35.65 60.35 35.65 59.75 38.8 54.7 38.8 51.9 51.9 48.1 51.9 50.9 38.8 45.85 38.8
M 38.7 35.65
L 35.95 48.65 43.15 48.65 42.5 51.9 31.45 51.9 34.85 35.65 38.7 35.65 Z"/>

<path fill="#999999" stroke="none" d="
M 35.95 48.65
L 38.7 35.65 34.85 35.65 31.45 51.9 42.5 51.9 43.15 48.65 35.95 48.65
M 46.45 35.65
L 45.85 38.8 50.9 38.8 48.1 51.9 51.9 51.9 54.7 38.8 59.75 38.8 60.35 35.65 46.45 35.65 Z"/>

<path fill="url(#Gradient_1)" stroke="none" d="
M 70.4 21
Q 69.35 21.05 68.65 21.85 68 22.65 68.05 23.65 68.4296875 29.7236328125 68.35 36 68.19609375 47.083984375 66.6 58.8 66.5 59.8 66.25 60.85 66.2 61.05 66.2 61.35 63.95 68.1 58.05 73 55.4 75.25 51.15 76.15 51.05 76.2 50.85 76.25 49.7 76.45 48.45 76.65 46.75 76.8 44.9 76.85 45.15 76.95 45.4 77.05 53.75 79.45 60.8 75.45
L 60.75 75.45
Q 68.1 71.3 70.85 62.6 71.05 62.25 71.15 61.9 71.4 60.65 71.55 59.45 73.18203125 47.41796875 73.35 36 73.4279296875 29.5779296875 73.05 23.35 73 22.3 72.2 21.65 71.45 20.95 70.4 21 Z"/>
</g>

<path id="Layer1_0_1_STROKES" stroke="#2A2A2A" stroke-width="5" stroke-linejoin="round" stroke-linecap="round" fill="none" d="
M 86.625 36
Q 87.391796875 30.7103515625 87.8 25.1 85.503125 22.7517578125 82.725 20.75 77.3974609375 16.9130859375 70.3 14.35 70.05 14.25 69.8 14.15 47.3 10.85 26.35 15.95 26.408984375 18.378515625 26.375 20.75 26.271875 28.69296875 25.15 36 24.342578125 41.2916015625 23 46.25 19.25 60.05 14.9 66.25 12.55 69.65 12.4 72.45 12.2 75.9 15.35 78.4 26.4 86 46.1 85.05 56.1 85.2 61.35 82.1 75.8 73.8 81.1 58.7 84.8318359375 48.2017578125 86.625 36 Z"/>

</defs>

<g transform="matrix( 1, 0, 0, 1, 0,0) ">
<use xlink:href="#Layer1_0_FILL"/>

<use xlink:href="#Layer1_0_1_STROKES"/>
</g>

<g transform="matrix( 1, 0, 0, 1, -3.4,-28) ">
<clipPath id="Mask_Mask_1">
<rect x="-1.55" y="-2" width="109.9" height="20.8" fill="#FFFFFF" stroke="none"/>
</clipPath>

<text clip-path="url(#Mask_Mask_1)" writing-mode="lr"><tspan x="0.55" y="13.6" baseline-shift="0%" kerning="auto" font-family="Arial_Regular" font-size="15" fill="#999999" xml:space="preserve">Vive Controllers</tspan></text>
</g>
</svg>
