
<svg xmlns="http://www.w3.org/2000/svg" version="1.1" xmlns:xlink="http://www.w3.org/1999/xlink" x="0px" y="0px" viewBox="0 0 100 100">
<defs>
<g id="Layer1_0_FILL">
<path fill="#FFFFFF" stroke="none" d="
M 87.25 46.1
Q 88.05 43.6 86.35 41.95 84 40.15 80.35 41.95 76.7 43.7 73.5 47.35 70.8 50.35 69.95 53.9 66 56.8 65 49.45 64.85 47.2 64.8 44.75 64.7 30.8 63.8 21.5 63 12.1 61.45 10.8 59.85 9.55 57.9 9.75 55.95 9.85 54.85 11.3 53.65 12.75 53.9 14.75 55.45 27 54.25 39.55 50.7 26.5 48.15 12.5 47.75 10.5 46.15 9.3 44.55 8.05 42.7 8.4 40.75 8.6 39.6 10.15 38.4 11.75 38.9 13.65 41.55 28.65 44.4 43.75 39 31.5 35.9 18.5 35.35 16.5 33.65 15.5 32.05 14.4 30.1 14.75 28.25 15 27.15 16.7 26.15 18.3 26.55 20.2 30 33.85 33.35 47.65 27.9 37 23.9 25.9 23.2 24.1 21.5 23.1 19.7 22.15 17.85 22.7 16.1 23.25 15.15 25.05 14.4 26.7 15 28.5 19.3 40.55 23.6 52.6 24.4 55.35 28.5 66.35
L 34.4 84.25
Q 37.05 89.75 44.5 88.15
L 70.4 83.9
Q 78.4 81.75 79.05 73.8
L 79.15 73.85
Q 79.15 73.75 79.2 73.6 79.6 71.45 79.75 69.3 80.3 61.75 82.25 54.9 83.3 50.15 87.25 46.1 Z"/>
</g>

</defs>

<g transform="matrix( 1, 0, 0, 1, 0,0) ">
<use xlink:href="#Layer1_0_FILL"/>
</g>

<g transform="matrix( 1, 0, 0, 1, -3.4,-28) ">
<clipPath id="Mask_Mask_1">
<rect x="-1.55" y="-2" width="109.9" height="20.8" fill="#FFFFFF" stroke="none"/>
</clipPath>

<text clip-path="url(#Mask_Mask_1)" writing-mode="lr"><tspan x="0.55" y="13.6" baseline-shift="0%" kerning="auto" font-family="Arial_Regular" font-size="15" fill="#999999" xml:space="preserve">Vive Controllers</tspan></text>
</g>
</svg>
