
<svg xmlns="http://www.w3.org/2000/svg" version="1.1" xmlns:xlink="http://www.w3.org/1999/xlink" x="0px" y="0px" viewBox="0 0 100 100">
<defs>
<linearGradient id="Gradient_1" gradientUnits="userSpaceOnUse" x1="50" y1="76.4375" x2="50" y2="23.5625" spreadMethod="pad">
<stop  offset="0%" stop-color="#616161"/>

<stop  offset="95.29411764705883%" stop-color="#353535"/>
</linearGradient>

<g id="Layer1_0_FILL">
<path fill="#353535" stroke="none" d="
M 74.85 25.05
Q 64.55 14.75 50 14.75 35.4 14.75 25.05 25.05 14.75 35.4 14.75 50 14.75 64.55 25.05 74.85 35.4 85.25 50 85.25 64.55 85.25 74.85 74.85 85.25 64.55 85.25 50 85.25 35.4 74.85 25.05
M 50 20.75
Q 62.15 20.75 70.7 29.25 79.3 37.85 79.3 50 79.3 62.1 70.7 70.65
L 70.65 70.7
Q 62.1 79.3 50 79.3 37.85 79.3 29.25 70.7 20.75 62.15 20.75 50 20.75 37.9 29.25 29.25 37.9 20.75 50 20.75 Z"/>

<path fill="url(#Gradient_1)" stroke="none" d="
M 70.7 29.25
Q 62.15 20.75 50 20.75 37.9 20.75 29.25 29.25 20.75 37.9 20.75 50 20.75 62.15 29.25 70.7 37.85 79.3 50 79.3 62.1 79.3 70.65 70.7
L 70.7 70.65
Q 79.3 62.1 79.3 50 79.3 37.85 70.7 29.25
M 50 25.15
Q 60.3 25.15 67.55 32.4 74.85 39.75 74.85 50 74.85 60.3 67.55 67.55 60.3 74.85 50 74.85 39.75 74.85 32.4 67.55 25.15 60.3 25.15 50 25.15 39.75 32.35 32.4
L 32.4 32.35
Q 39.75 25.15 50 25.15 Z"/>

<path fill="#535353" stroke="none" d="
M 67.55 32.4
Q 60.3 25.15 50 25.15 39.75 25.15 32.4 32.35
L 32.35 32.4
Q 25.15 39.75 25.15 50 25.15 60.3 32.4 67.55 39.75 74.85 50 74.85 60.3 74.85 67.55 67.55 74.85 60.3 74.85 50 74.85 39.75 67.55 32.4
M 37.15 41
L 62.9 41 37.15 41
M 37.15 50
L 62.9 50 37.15 50
M 37.15 59
L 62.9 59 37.15 59 Z"/>
</g>

<path id="Layer1_0_1_STROKES" stroke="#202020" stroke-width="5" stroke-linejoin="round" stroke-linecap="butt" fill="none" d="
M 50 14.75
Q 64.55 14.75 74.85 25.05 85.25 35.4 85.25 50 85.25 64.55 74.85 74.85 64.55 85.25 50 85.25 35.4 85.25 25.05 74.85 14.75 64.55 14.75 50 14.75 35.4 25.05 25.05 35.4 14.75 50 14.75 Z"/>

<path id="Layer1_0_2_STROKES" stroke="#8C8C8C" stroke-width="5" stroke-linejoin="round" stroke-linecap="round" fill="none" d="
M 37.15 41
L 62.9 41
M 37.15 50
L 62.9 50
M 37.15 59
L 62.9 59"/>

</defs>

<g transform="matrix( 1, 0, 0, 1, 0,0) ">
<use xlink:href="#Layer1_0_FILL"/>

<use xlink:href="#Layer1_0_1_STROKES"/>

<use xlink:href="#Layer1_0_2_STROKES"/>
</g>

<g transform="matrix( 1, 0, 0, 1, -3.4,-28) ">
<clipPath id="Mask_Mask_1">
<rect x="-1.55" y="-2" width="109.9" height="20.8" fill="#FFFFFF" stroke="none"/>
</clipPath>

<text clip-path="url(#Mask_Mask_1)" writing-mode="lr"><tspan x="0.55" y="13.6" baseline-shift="0%" kerning="auto" font-family="Arial_Regular" font-size="15" fill="#999999" xml:space="preserve">Vive Controllers</tspan></text>
</g>
</svg>
