
<svg xmlns="http://www.w3.org/2000/svg" version="1.1" xmlns:xlink="http://www.w3.org/1999/xlink" x="0px" y="0px" viewBox="0 0 100 100">
<defs>
<linearGradient id="Gradient_1" gradientUnits="userSpaceOnUse" x1="50" y1="76.4375" x2="50" y2="23.5625" spreadMethod="pad">
<stop  offset="0%" stop-color="#616161"/>

<stop  offset="95.29411764705883%" stop-color="#353535"/>
</linearGradient>

<g id="Layer1_0_FILL">
<path fill="#353535" stroke="none" d="
M 74.85 25.05
Q 64.55 14.75 50 14.75 35.4 14.75 25.05 25.05 14.75 35.4 14.75 50 14.75 64.55 25.05 74.85 35.4 85.25 50 85.25 64.55 85.25 74.85 74.85 85.25 64.55 85.25 50 85.25 35.4 74.85 25.05
M 50 20.75
Q 62.15 20.75 70.7 29.25 79.3 37.85 79.3 50 79.3 62.1 70.7 70.65
L 70.65 70.7
Q 62.1 79.3 50 79.3 37.85 79.3 29.25 70.7 20.75 62.15 20.75 50 20.75 37.9 29.25 29.25 37.9 20.75 50 20.75 Z"/>

<path fill="url(#Gradient_1)" stroke="none" d="
M 70.7 29.25
Q 62.15 20.75 50 20.75 37.9 20.75 29.25 29.25 20.75 37.9 20.75 50 20.75 62.15 29.25 70.7 37.85 79.3 50 79.3 62.1 79.3 70.65 70.7
L 70.7 70.65
Q 79.3 62.1 79.3 50 79.3 37.85 70.7 29.25
M 50 25.15
Q 60.3 25.15 67.55 32.4 74.85 39.75 74.85 50 74.85 60.3 67.55 67.55 60.3 74.85 50 74.85 39.75 74.85 32.4 67.55 25.15 60.3 25.15 50 25.15 39.75 32.35 32.4
L 32.4 32.35
Q 39.75 25.15 50 25.15 Z"/>

<path fill="#535353" stroke="none" d="
M 67.55 32.4
Q 60.3 25.15 50 25.15 39.75 25.15 32.4 32.35
L 32.35 32.4
Q 25.15 39.75 25.15 50 25.15 60.3 32.4 67.55 39.75 74.85 50 74.85 60.3 74.85 67.55 67.55 74.85 60.3 74.85 50 74.85 39.75 67.55 32.4
M 48.7 33.7
Q 50.1 32.95 51.35 33.65 59.4 38.2 67.45 42.75 68.85 43.5 68.9 45.1 68.95 46.05 68.2 46.75 67.95 47.05 67.65 47.25 66.05 48.15 64.5 49.1 63.25 49.75 62.05 50.45
L 57 53.3
Q 54.15 54.9 51.25 56.5 50.3 57 49.5 56.8 49.15 56.65 48.9 56.45 46 54.9 43.15 53.3
L 38.15 50.45
Q 36.9 49.75 35.75 49.05 33.8 47.9 32 46.7 31.65 46.45 31.45 46.05 30.75 45 31.45 43.8 32 43 32.65 42.65 40.7 38.2 48.7 33.7
M 35.65 52.55
Q 36.8 53.25 38.05 53.95
L 40.65 55.45 38.65 56.55 49.95 63 61.35 56.55 59.35 55.45 61.95 53.95
Q 63.15 53.25 64.4 52.6
L 67.35 54.25
Q 67.4 54.3 67.5 54.35
L 67.55 54.35
Q 67.6 54.35 67.65 54.4 68 54.6 68.25 54.9 68.45 55.1 68.6 55.35
L 68.6 55.4 68.65 55.4
Q 68.9 55.95 68.9 56.6 68.9 56.9 68.8 57.25 68.75 57.45 68.6 57.7 68.6 57.75 68.6 57.8 68.4 58.1 68.2 58.35 67.95 58.55 67.65 58.75
L 67.55 58.75 51.3 68
Q 51.2 68 51.2 68.05 51.1 68.1 51 68.15 50.8 68.2 50.65 68.25 50.3 68.35 49.95 68.35 49.35 68.35 48.8 68.1
L 48.75 68.05 32.5 58.8 32.45 58.8 32.4 58.75 32.35 58.75
Q 32 58.55 31.8 58.35 31.45 58 31.3 57.6 31 57.05 31.05 56.5 31.05 56.2 31.15 55.9 31.2 55.75 31.25 55.65
L 31.35 55.4
Q 31.35 55.35 31.4 55.35 31.55 55 31.8 54.75 32.05 54.55 32.35 54.4
L 32.4 54.35
Q 32.45 54.35 32.5 54.35 32.55 54.3 32.6 54.25
L 35.65 52.55
M 61.45 45.05
L 50.05 38.65 38.75 45.05 50.05 51.5 61.45 45.05 Z"/>

<path fill="#8C8C8C" stroke="none" d="
M 38.05 53.95
Q 36.8 53.25 35.65 52.55
L 32.6 54.25
Q 32.55 54.3 32.5 54.35 32.45 54.35 32.4 54.35
L 32.35 54.4
Q 32.05 54.55 31.8 54.75 31.55 55 31.4 55.35 31.35 55.35 31.35 55.4
L 31.25 55.65
Q 31.2 55.75 31.15 55.9 31.05 56.2 31.05 56.5 31 57.05 31.3 57.6 31.45 58 31.8 58.35 32 58.55 32.35 58.75
L 32.4 58.75 32.45 58.8 32.5 58.8 48.75 68.05 48.8 68.1
Q 49.35 68.35 49.95 68.35 50.3 68.35 50.65 68.25 50.8 68.2 51 68.15 51.1 68.1 51.2 68.05 51.2 68 51.3 68
L 67.55 58.75 67.65 58.75
Q 67.95 58.55 68.2 58.35 68.4 58.1 68.6 57.8 68.6 57.75 68.6 57.7 68.75 57.45 68.8 57.25 68.9 56.9 68.9 56.6 68.9 55.95 68.65 55.4
L 68.6 55.4 68.6 55.35
Q 68.45 55.1 68.25 54.9 68 54.6 67.65 54.4 67.6 54.35 67.55 54.35
L 67.5 54.35
Q 67.4 54.3 67.35 54.25
L 64.4 52.6
Q 63.15 53.25 61.95 53.95
L 59.35 55.45 61.35 56.55 49.95 63 38.65 56.55 40.65 55.45 38.05 53.95
M 51.35 33.65
Q 50.1 32.95 48.7 33.7 40.7 38.2 32.65 42.65 32 43 31.45 43.8 30.75 45 31.45 46.05 31.65 46.45 32 46.7 33.8 47.9 35.75 49.05 36.9 49.75 38.15 50.45
L 43.15 53.3
Q 46 54.9 48.9 56.45 49.15 56.65 49.5 56.8 50.3 57 51.25 56.5 54.15 54.9 57 53.3
L 62.05 50.45
Q 63.25 49.75 64.5 49.1 66.05 48.15 67.65 47.25 67.95 47.05 68.2 46.75 68.95 46.05 68.9 45.1 68.85 43.5 67.45 42.75 59.4 38.2 51.35 33.65
M 50.05 38.65
L 61.45 45.05 50.05 51.5 38.75 45.05 50.05 38.65 Z"/>
</g>

<path id="Layer1_0_1_STROKES" stroke="#202020" stroke-width="5" stroke-linejoin="round" stroke-linecap="butt" fill="none" d="
M 50 14.75
Q 64.55 14.75 74.85 25.05 85.25 35.4 85.25 50 85.25 64.55 74.85 74.85 64.55 85.25 50 85.25 35.4 85.25 25.05 74.85 14.75 64.55 14.75 50 14.75 35.4 25.05 25.05 35.4 14.75 50 14.75 Z"/>

</defs>

<g transform="matrix( 1, 0, 0, 1, 0,0) ">
<use xlink:href="#Layer1_0_FILL"/>

<use xlink:href="#Layer1_0_1_STROKES"/>
</g>

<g transform="matrix( 1, 0, 0, 1, -3.4,-28) ">
<clipPath id="Mask_Mask_1">
<rect x="-1.55" y="-2" width="109.9" height="20.8" fill="#FFFFFF" stroke="none"/>
</clipPath>

<text clip-path="url(#Mask_Mask_1)" writing-mode="lr"><tspan x="0.55" y="13.6" baseline-shift="0%" kerning="auto" font-family="Arial_Regular" font-size="15" fill="#999999" xml:space="preserve">Vive Controllers</tspan></text>
</g>
</svg>
