
<svg xmlns="http://www.w3.org/2000/svg" version="1.1" xmlns:xlink="http://www.w3.org/1999/xlink" x="0px" y="0px" viewBox="0 0 100 100">
<defs>
<g id="Layer1_0_FILL">
<path fill="#FFFFFF" stroke="none" d="
M 59.2 7.95
L 59.2 7.9
Q 58.05 6.2 52.95 6.1 47.15 6 39.55 8.05 39.2 8.15 38.8 8.25 38.45 8.3 38.05 8.45 30.45 10.45 25.45 13.45 21.1 16.1 21 18.15
L 20.95 18.15
Q 20.5 23.15 18.25 29.15 20.15 33.35 24.35 35.85 28.95 34.05 32.35 41.15 32.5 41.6 32.75 42
L 50.85 87.15
Q 53.8 94.5 61.2 91.8 68.95 90.45 67.8 82.6
L 61 34.45
Q 60.9 34 60.95 33.5 60.2 25.7 65.2 24.9 67.55 20.65 67.1 16.1 62.1 12 59.2 7.95
M 42.15 20.75
Q 41.9 20.8 41.65 20.85 36.45 22.25 32.5 22.1 28.55 22.1 28.15 20.6 28.05 20.35 28.1 20.15 28.25 18.75 31.25 16.95 34.55 15 39.7 13.6 39.95 13.55 40.2 13.5 40.45 13.4 40.75 13.35 45.9 11.95 49.8 12 53.2 12.05 54 13.2 54.15 13.4 54.2 13.6 54.65 15.1 51.25 17.05 47.9 19.2 42.7 20.6 42.4 20.65 42.15 20.75
M 57.15 39.45
Q 58.15 43.3 56.15 46.75 54.2 50.2 50.35 51.25 46.5 52.25 43.05 50.3 39.6 48.25 38.6 44.4 37.55 40.5 39.5 37.05 41.5 33.6 45.35 32.6 49.2 31.55 52.6 33.5 56.1 35.55 57.15 39.45 Z"/>
</g>

</defs>

<g transform="matrix( 1, 0, 0, 1, 0,0) ">
<use xlink:href="#Layer1_0_FILL"/>
</g>

<g transform="matrix( 1, 0, 0, 1, -3.4,-28) ">
<clipPath id="Mask_Mask_1">
<rect x="-1.55" y="-2" width="109.9" height="20.8" fill="#FFFFFF" stroke="none"/>
</clipPath>

<text clip-path="url(#Mask_Mask_1)" writing-mode="lr"><tspan x="0.55" y="13.6" baseline-shift="0%" kerning="auto" font-family="Arial_Regular" font-size="15" fill="#999999" xml:space="preserve">Vive Controllers</tspan></text>
</g>
</svg>
