
<svg xmlns="http://www.w3.org/2000/svg" version="1.1" xmlns:xlink="http://www.w3.org/1999/xlink" x="0px" y="0px" viewBox="0 0 100 100">
<defs>
<linearGradient id="Gradient_1" gradientUnits="userSpaceOnUse" x1="49.7625" y1="52.537499999999994" x2="28.037499999999998" y2="15.2625" spreadMethod="pad">
<stop  offset="10.196078431372548%" stop-color="#313131"/>

<stop  offset="100%" stop-color="#4F4F4F"/>
</linearGradient>

<g id="Layer1_0_FILL">
<path fill="#313131" stroke="none" d="
M 59.55 22.2
L 59.45 22.15
Q 54.4 13.85 44.55 10.55 34.6 7.2 25.45 11.05 16.45 14.8 13.55 23.35 13.4 23.45 13.35 23.6 10.6 32.15 15.35 40.65
L 15.45 40.65
Q 20.9 49.9 26.35 59.15 27.05 60.35 27.65 61.4 28.8 63.25 34.65 73.35 35.9 75.3 36.75 76.85 41.85 85.3 51.7 88.65 61.8 91.95 70.9 88.15 80.05 84.3 82.9 75.6 85.7 66.95 80.8 58.4 80 56.85 78.75 54.85 72.9 44.75 71.75 42.95 71.1 41.85 70.45 40.65 65 31.45 59.55 22.2
M 43.5 12.15
Q 43.8 12.2 44 12.3 52.75 15.1 57.25 22.25
L 57.25 22.3
Q 57.35 22.35 57.35 22.4
L 57.4 22.5
Q 57.8 23.15 58.2 23.9
L 68.85 42
Q 69.25 42.65 69.7 43.4 70.65 44.95 71.5 46.45
L 69.6 47.25
Q 69.55 47.2 69.45 47.2 69.35 47.2 69.3 47.15
L 69.25 47.15
Q 68.95 47.25 68.8 47.3 68.7 47.35 68.6 47.35 68.75 47.6 68.9 47.95
L 43.95 78.35
Q 42.6 76.85 41.5 75.1
L 41.5 75.05
Q 41.45 74.95 41.35 74.85
L 65.9 45.05 65.85 45
Q 65.5 44.45 65.15 43.9 65.1 43.7 64.95 43.6
L 63.8 41.45 39.25 71.25
Q 37.95 69.15 37 67.4
L 61.55 37.6 59.35 34.1 34.85 63.85
Q 34.35 62.9 33.85 62.2
L 31.05 63.4
Q 30.2 61.85 29.25 60.3 28.85 59.6 28.4 58.9
L 17.8 40.85
Q 17.3 40.05 16.9 39.35
L 16.9 39.3
Q 12.65 31.95 15.35 24.35
L 15.45 24.25 15.4 24.1
Q 15.45 24.05 15.45 23.95 17.65 18.15 22.95 14.85 24.65 13.75 26.6 12.9 28.55 12.1 30.5 11.65 36.75 10.15 43.5 12.15
M 75.4 58.9
Q 75.9 59.7 76.35 60.45 77.05 61.7 77.5 63
L 58.95 85.55
Q 56.6 85.45 54.2 84.75
L 75.4 58.9
M 71.05 51.5
Q 72.05 53.2 73.3 55.4
L 50.4 83.25
Q 48.4 82.3 46.75 81
L 71.05 51.5
M 78.7 67.7
Q 79 70.9 77.95 74.15
L 78 74.1
Q 77.65 75.25 77.15 76.25
L 72.7 81.55
Q 70.85 83.05 68.45 84.05 66.35 84.95 64.25 85.3
L 78.7 67.7
M 38.1 15.05
Q 35.4 14.8 32.9 15.2
L 18.85 32.25
Q 19.15 34.45 20.25 36.65
L 38.1 15.05
M 20.65 23.45
L 24.2 19.05
Q 22 20.95 20.65 23.45
M 57.1 30.15
L 55 26.6 31.3 55.5 32.25 57.3
Q 32.7 57.95 33.15 58.7 33.25 58.95 33.35 59.05
L 57.1 30.15
M 52.65 22.85
Q 51.5 21.2 49.95 19.9
L 26.85 48.05 28.95 51.65 52.65 22.85
M 43.05 16.05
Q 42.8 16.05 42.7 15.95
L 22.5 40.6
Q 22.9 41.35 23.3 42.05
L 24.55 44.2 46.5 17.55
Q 44.9 16.65 43.05 16.05 Z"/>

<path fill="#4F4F4F" stroke="none" d="
M 77.95 74.15
Q 79 70.9 78.7 67.7
L 64.25 85.3
Q 66.35 84.95 68.45 84.05 70.85 83.05 72.7 81.55
L 77.15 76.25
Q 77.65 75.25 78 74.1
L 77.95 74.15
M 73.3 55.4
Q 72.05 53.2 71.05 51.5
L 46.75 81
Q 48.4 82.3 50.4 83.25
L 73.3 55.4
M 76.35 60.45
Q 75.9 59.7 75.4 58.9
L 54.2 84.75
Q 56.6 85.45 58.95 85.55
L 77.5 63
Q 77.05 61.7 76.35 60.45
M 24.2 19.05
L 20.65 23.45 18.35 26.1
Q 17.35 29.7 18.1 33.2
L 18.85 32.25 32.9 15.2 33.75 14.05
Q 30.9 14.45 28.15 15.6 27.25 16 26.4 16.45
L 24.2 19.05
M 67.3 45.1
Q 67 44.6 66.65 44.1
L 65.9 45.05 41.35 74.85
Q 41.45 74.95 41.5 75.05
L 41.5 75.1
Q 42.6 76.85 43.95 78.35
L 68.9 47.95
Q 68.75 47.6 68.6 47.35 67.7 45.75 67.3 45.1
M 63.8 41.45
L 64.55 40.5
Q 63.4 38.55 62.3 36.6
L 61.55 37.6 37 67.4
Q 37.95 69.15 39.25 71.25
L 63.8 41.45
M 59.35 34.1
L 60.2 33.05
Q 59.05 31.1 57.95 29.15
L 57.1 30.15 33.35 59.05 32.55 60
Q 33 60.65 33.85 62.2 34.35 62.9 34.85 63.85
L 59.35 34.1
M 55 24.3
Q 54.2 23 53.35 21.95
L 52.65 22.85 28.95 51.65 28.2 52.55
Q 29.35 54.45 30.45 56.4
L 31.3 55.5 55 26.6 55.8 25.65
Q 55.4 24.95 55 24.3
M 47.05 16.85
L 46.5 17.55 24.55 44.2 23.8 45.1
Q 24.95 47 26.1 48.95
L 26.85 48.05 49.95 19.9 50.6 19.2
Q 49 17.85 47.05 16.85
M 43.35 15.25
L 43.3 15.2
Q 40.95 14.45 38.8 14.15
L 38.1 15.05 20.25 36.65 19.5 37.55
Q 19.75 38.2 20.15 38.9
L 20.2 39
Q 20.9 40.25 21.7 41.5
L 22.5 40.6 42.7 15.95 43.35 15.25 Z"/>

<path fill="url(#Gradient_1)" stroke="none" d="
M 44 12.3
Q 43.8 12.2 43.5 12.15 36.75 10.15 30.5 11.65 28.55 12.1 26.6 12.9 24.65 13.75 22.95 14.85 17.65 18.15 15.45 23.95 15.45 24.05 15.4 24.1
L 15.45 24.25 15.35 24.35
Q 12.65 31.95 16.9 39.3
L 16.9 39.35
Q 17.3 40.05 17.8 40.85
L 28.4 58.9
Q 28.85 59.6 29.25 60.3 30.2 61.85 31.05 63.4
L 33.85 62.2
Q 33 60.65 32.55 60
L 33.35 59.05
Q 33.25 58.95 33.15 58.7 32.7 57.95 32.25 57.3
L 31.3 55.5 30.45 56.4
Q 29.35 54.45 28.2 52.55
L 28.95 51.65 26.85 48.05 26.1 48.95
Q 24.95 47 23.8 45.1
L 24.55 44.2 23.3 42.05
Q 22.9 41.35 22.5 40.6
L 21.7 41.5
Q 20.9 40.25 20.2 39
L 20.15 38.9
Q 19.75 38.2 19.5 37.55
L 20.25 36.65
Q 19.15 34.45 18.85 32.25
L 18.1 33.2
Q 17.35 29.7 18.35 26.1
L 20.65 23.45
Q 22 20.95 24.2 19.05
L 26.4 16.45
Q 27.25 16 28.15 15.6 30.9 14.45 33.75 14.05
L 32.9 15.2
Q 35.4 14.8 38.1 15.05
L 38.8 14.15
Q 40.95 14.45 43.3 15.2
L 43.35 15.25 42.7 15.95
Q 42.8 16.05 43.05 16.05 44.9 16.65 46.5 17.55
L 47.05 16.85
Q 49 17.85 50.6 19.2
L 49.95 19.9
Q 51.5 21.2 52.65 22.85
L 53.35 21.95
Q 54.2 23 55 24.3 55.4 24.95 55.8 25.65
L 55 26.6 57.1 30.15 57.95 29.15
Q 59.05 31.1 60.2 33.05
L 59.35 34.1 61.55 37.6 62.3 36.6
Q 63.4 38.55 64.55 40.5
L 63.8 41.45 64.95 43.6
Q 65.1 43.7 65.15 43.9 65.5 44.45 65.85 45
L 65.9 45.05 66.65 44.1
Q 67 44.6 67.3 45.1 67.7 45.75 68.6 47.35 68.7 47.35 68.8 47.3 68.95 47.25 69.25 47.15
L 69.3 47.15
Q 69.35 47.2 69.45 47.2 69.55 47.2 69.6 47.25
L 71.5 46.45
Q 70.65 44.95 69.7 43.4 69.25 42.65 68.85 42
L 58.2 23.9
Q 57.8 23.15 57.4 22.5
L 57.35 22.4
Q 57.35 22.35 57.25 22.3
L 57.25 22.25
Q 52.75 15.1 44 12.3 Z"/>
</g>

<path id="Layer1_0_1_STROKES" stroke="#1B1B1B" stroke-width="5" stroke-linejoin="round" stroke-linecap="round" fill="none" d="
M 59.55 22.2
L 59.45 22.15
Q 54.4 13.85 44.55 10.55 34.6 7.2 25.45 11.05 16.45 14.8 13.55 23.35 13.4 23.45 13.35 23.6 10.6 32.15 15.35 40.65
L 15.45 40.65
Q 20.9 49.9 26.35 59.15 27.05 60.35 27.65 61.4 28.8 63.25 34.65 73.35 35.9 75.3 36.75 76.85 41.85 85.3 51.7 88.65 61.8 91.95 70.9 88.15 80.05 84.3 82.9 75.6 85.7 66.95 80.8 58.4 80 56.85 78.75 54.85 72.9 44.75 71.75 42.95 71.1 41.85 70.45 40.65 65 31.45 59.55 22.2 Z"/>

</defs>

<g transform="matrix( 1, 0, 0, 1, 0,0) ">
<use xlink:href="#Layer1_0_FILL"/>

<use xlink:href="#Layer1_0_1_STROKES"/>
</g>

<g transform="matrix( 1, 0, 0, 1, -3.4,-28) ">
<clipPath id="Mask_Mask_1">
<rect x="-1.55" y="-2" width="109.9" height="20.8" fill="#FFFFFF" stroke="none"/>
</clipPath>

<text clip-path="url(#Mask_Mask_1)" writing-mode="lr"><tspan x="0.55" y="13.6" baseline-shift="0%" kerning="auto" font-family="Arial_Regular" font-size="15" fill="#999999" xml:space="preserve">Vive Controllers</tspan></text>
</g>
</svg>
