
<svg xmlns="http://www.w3.org/2000/svg" version="1.1" xmlns:xlink="http://www.w3.org/1999/xlink" x="0px" y="0px" viewBox="0 0 100 100">
<defs>
<linearGradient id="Gradient_1" gradientUnits="userSpaceOnUse" x1="50" y1="10.412499999999994" x2="50" y2="89.5875" spreadMethod="pad">
<stop  offset="0%" stop-color="#373737"/>

<stop  offset="100%" stop-color="#575757"/>
</linearGradient>

<g id="Layer1_0_FILL">
<path fill="#2A2A2A" stroke="none" d="
M 83.8 83.8
Q 97.7 69.8 97.7 50 97.7 30.2 83.8 16.3 69.8 2.3 50 2.3 30.2 2.3 16.3 16.3 2.3 30.2 2.3 50 2.3 69.8 16.3 83.8 30.2 97.7 50 97.7 69.8 97.7 83.8 83.8
M 50 7.65
Q 67.55 7.65 80 20.05 92.35 32.45 92.35 50 92.35 67.55 80 80 77.41328125 82.566015625 74.6 84.6 64.4896484375 91.3904296875 51.05 92.35 50.9671875 92.3478515625 50.85 92.35 50.723046875 92.3484375 50.6 92.35 50.4654296875 92.3490234375 50.3 92.35 50.1658203125 92.35 50 92.35 49.0748046875 92.35 48.15 92.3 36.2501953125 91.8662109375 26.75 85.5 23.23984375 83.176953125 20.05 80 7.65 67.55 7.65 50 7.65 32.45 20.05 20.05 32.45 7.65 50 7.65 Z"/>

<path fill="#FFFFFF" stroke="none" d="
M 23.9 79.65
L 23.9 79.7
Q 23.9 80.07734375 23.9 80.45 23.9 82.05 24.15 83.55 25.450390625 84.5810546875 26.75 85.5 36.2501953125 91.8662109375 48.15 92.3 49.0748046875 92.35 50 92.35 50.1658203125 92.35 50.3 92.35 50.4654296875 92.3490234375 50.6 92.35 50.723046875 92.3484375 50.85 92.35 50.9671875 92.3478515625 51.05 92.35 64.4896484375 91.3904296875 74.6 84.6 75.2759765625 84.0794921875 75.95 83.55 76.1 82.05 76.1 80.45 76.1 80.1216796875 76.1 79.8
L 76.1 79.75
Q 74.8705078125 80.85078125 73.6 81.85 65.6615234375 87.6263671875 53.35 89.45 53.2771484375 89.4677734375 53.15 89.45 53.0458984375 89.4921875 52.9 89.5 52.794921875 89.5177734375 52.65 89.5 51.8185546875 89.5810546875 50.95 89.6 50.7173828125 89.5974609375 50.45 89.6 50.2404296875 89.6 50 89.6 36.8234375 89.6 26.7 82 25.28125 80.89375 23.9 79.65 Z"/>

<path fill="#F5F5F5" stroke="none" d="
M 37.9 57.3
Q 34.5 59.1 31.55 62.05 28.65 64.95 26.9 68.25 25.9 70 25.25 71.9 24 75.55 23.9 79.65 25.28125 80.89375 26.7 82 36.8234375 89.6 50 89.6 50.2404296875 89.6 50.45 89.6 50.7173828125 89.5974609375 50.95 89.6 51.8185546875 89.5810546875 52.65 89.5 52.794921875 89.5177734375 52.9 89.5 53.0458984375 89.4921875 53.15 89.45 53.2771484375 89.4677734375 53.35 89.45 65.6615234375 87.6263671875 73.6 81.85 74.8705078125 80.85078125 76.1 79.75 76 75.45 74.65 71.6 74.55 71.5 74.55 71.35 73.85 69.5 72.85 67.7 71.1 64.75 68.4 62.05 65.5 59.1 62.1 57.3 57.35 54.8 51.75 54.45 50.85 54.4 50 54.4 49.05 54.4 48.1 54.45 47.2 54.5 46.3 54.65 45.7 54.75 45.1 54.85 41.3 55.5 37.9 57.3 Z"/>

<path fill="url(#Gradient_1)" stroke="none" d="
M 89.6 50.9
L 89.6 50.1
Q 89.6 50.05 89.6 50 89.6 33.65 78 22.05 66.4 10.4 50 10.4 33.7 10.4 22.1 22.05 10.4 33.65 10.4 50 10.4 50.05 10.4 50.1
L 10.4 50.5
Q 10.4 50.7 10.4 50.9 10.75 66.7 22.1 78 22.9865234375 78.8865234375 23.9 79.7
L 23.9 79.65
Q 24 75.55 25.25 71.9 25.9 70 26.9 68.25 28.65 64.95 31.55 62.05 34.5 59.1 37.9 57.3 41.3 55.5 45.1 54.85 45.7 54.75 46.3 54.65 47.2 54.5 48.1 54.45 49.05 54.4 50 54.4 50.85 54.4 51.75 54.45 57.35 54.8 62.1 57.3 65.5 59.1 68.4 62.05 71.1 64.75 72.85 67.7 73.85 69.5 74.55 71.35 74.55 71.5 74.65 71.6 76 75.45 76.1 79.75
L 76.1 79.8
Q 77.065625 78.934375 78 78 89.25 66.7 89.6 50.9 Z"/>

<path fill="#464646" stroke="none" d="
M 89.6 50.1
L 89.6 50.9
Q 89.25 66.7 78 78 77.065625 78.934375 76.1 79.8 76.1 80.1216796875 76.1 80.45 76.1 82.05 75.95 83.55 75.2759765625 84.0794921875 74.6 84.6 77.41328125 82.566015625 80 80 92.35 67.55 92.35 50 92.35 32.45 80 20.05 67.55 7.65 50 7.65 32.45 7.65 20.05 20.05 7.65 32.45 7.65 50 7.65 67.55 20.05 80 23.23984375 83.176953125 26.75 85.5 25.450390625 84.5810546875 24.15 83.55 23.9 82.05 23.9 80.45 23.9 80.07734375 23.9 79.7 22.9865234375 78.8865234375 22.1 78 10.75 66.7 10.4 50.9 10.4 50.7 10.4 50.5
L 10.4 50.1
Q 10.4 50.05 10.4 50 10.4 33.65 22.1 22.05 33.7 10.4 50 10.4 66.4 10.4 78 22.05 89.6 33.65 89.6 50 89.6 50.05 89.6 50.1 Z"/>
</g>

</defs>

<g transform="matrix( 1, 0, 0, 1, 0,0) ">
<use xlink:href="#Layer1_0_FILL"/>
</g>

<g transform="matrix( 1, 0, 0, 1, -3.4,-28) ">
<clipPath id="Mask_Mask_1">
<rect x="-1.55" y="-2" width="109.9" height="20.8" fill="#FFFFFF" stroke="none"/>
</clipPath>

<text clip-path="url(#Mask_Mask_1)" writing-mode="lr"><tspan x="0.55" y="13.6" baseline-shift="0%" kerning="auto" font-family="Arial_Regular" font-size="15" fill="#999999" xml:space="preserve">Vive Controllers</tspan></text>
</g>
</svg>
