
<svg xmlns="http://www.w3.org/2000/svg" version="1.1" xmlns:xlink="http://www.w3.org/1999/xlink" x="0px" y="0px" viewBox="0 0 100 100">
<defs>
<g id="Layer1_0_FILL">
<path fill="#FFFFFF" stroke="none" d="
M 62.4 8.25
Q 62 8.15 61.65 8.05 54.05 6 48.25 6.1 43.15 6.2 42 7.9
L 42 7.95
Q 39.1 12 34.1 16.1 33.65 20.65 36 24.9 41 25.7 40.25 33.5 40.3 34 40.2 34.45
L 33.4 82.6
Q 32.25 90.45 40 91.8 47.4 94.5 50.35 87.15
L 68.45 42
Q 68.7 41.6 68.85 41.15 72.25 34.05 76.85 35.85 81.05 33.35 82.95 29.15 80.7 23.15 80.25 18.15
L 80.2 18.15
Q 80.1 16.1 75.75 13.45 70.75 10.45 63.15 8.45 62.75 8.3 62.4 8.25
M 61 13.5
Q 61.25 13.55 61.5 13.6 66.65 15 69.95 16.95 72.95 18.75 73.1 20.15 73.15 20.35 73.05 20.6 72.65 22.1 68.7 22.1 64.75 22.25 59.55 20.85 59.3 20.8 59.05 20.75 58.8 20.65 58.5 20.6 53.3 19.2 49.95 17.05 46.55 15.1 47 13.6 47.05 13.4 47.2 13.2 48 12.05 51.4 12 55.3 11.95 60.45 13.35 60.75 13.4 61 13.5
M 45.05 46.75
Q 43.05 43.3 44.05 39.45 45.1 35.55 48.6 33.5 52 31.55 55.85 32.6 59.7 33.6 61.7 37.05 63.65 40.5 62.6 44.4 61.6 48.25 58.15 50.3 54.7 52.25 50.85 51.25 47 50.2 45.05 46.75 Z"/>
</g>

</defs>

<g transform="matrix( 1, 0, 0, 1, 0,0) ">
<use xlink:href="#Layer1_0_FILL"/>
</g>

<g transform="matrix( 1, 0, 0, 1, -3.4,-28) ">
<clipPath id="Mask_Mask_1">
<rect x="-1.55" y="-2" width="109.9" height="20.8" fill="#FFFFFF" stroke="none"/>
</clipPath>

<text clip-path="url(#Mask_Mask_1)" writing-mode="lr"><tspan x="0.55" y="13.6" baseline-shift="0%" kerning="auto" font-family="Arial_Regular" font-size="15" fill="#999999" xml:space="preserve">Vive Controllers</tspan></text>
</g>
</svg>
