
<svg xmlns="http://www.w3.org/2000/svg" version="1.1" xmlns:xlink="http://www.w3.org/1999/xlink" x="0px" y="0px" viewBox="0 0 100 100">
<defs>
<linearGradient id="Gradient_1" gradientUnits="userSpaceOnUse" x1="50" y1="10.412499999999994" x2="50" y2="89.5875" spreadMethod="pad">
<stop  offset="0%" stop-color="#373737"/>

<stop  offset="100%" stop-color="#575757"/>
</linearGradient>

<linearGradient id="Gradient_2" gradientUnits="userSpaceOnUse" x1="35.349999999999994" y1="59.1375" x2="73.45" y2="52.5625" spreadMethod="pad">
<stop  offset="0%" stop-color="#FFFFFF" stop-opacity="0"/>

<stop  offset="100%" stop-color="#FFFFFF"/>
</linearGradient>

<g id="Layer1_0_FILL">
<path fill="#2A2A2A" stroke="none" d="
M 83.8 83.8
Q 97.7 69.8 97.7 50 97.7 30.2 83.8 16.3 69.8 2.3 50 2.3 30.2 2.3 16.3 16.3 2.3 30.2 2.3 50 2.3 69.8 16.3 83.8 30.2 97.7 50 97.7 69.8 97.7 83.8 83.8
M 50 7.65
Q 67.55 7.65 80 20.05 92.35 32.45 92.35 50 92.35 67.55 80 80 67.55 92.35 50 92.35 32.45 92.35 20.05 80 7.65 67.55 7.65 50 7.65 32.45 20.05 20.05 32.45 7.65 50 7.65 Z"/>

<path fill="#464646" stroke="none" d="
M 80 20.05
Q 67.55 7.65 50 7.65 32.45 7.65 20.05 20.05 7.65 32.45 7.65 50 7.65 67.55 20.05 80 32.45 92.35 50 92.35 67.55 92.35 80 80 92.35 67.55 92.35 50 92.35 32.45 80 20.05
M 89.6 50.1
L 89.6 50.9
Q 89.25 66.7 78 78 66.4 89.6 50 89.6 33.7 89.6 22.1 78 10.75 66.7 10.4 50.9
L 10.4 50.85 8.9 48.8
Q 9.656640625 48.8193359375 10.4 48.85 10.81796875 33.235546875 22.1 22.05 33.7 10.4 50 10.4 66.4 10.4 78 22.05 89.6 33.65 89.6 50 89.6 50.05 89.6 50.1 Z"/>

<path fill="#FFFFFF" stroke="none" d="
M 12.8 48.9
Q 12.371484375 48.8890625 11.95 48.85 11.181640625 48.8568359375 10.4 48.85 9.656640625 48.8193359375 8.9 48.8
L 10.4 50.85 21.7 66.55 34.7 49.05 30.65 49
Q 30.496875 49.026953125 30.3 49
L 24.35 48.95
Q 24.1248046875 48.9517578125 23.8 48.95
L 21.75 48.95 19.8 48.95
Q 19.5 48.95 19.25 48.95
L 19.2 48.95
Q 18.8 48.95 18.5 48.95 15.6 48.9 12.8 48.9 Z"/>

<path fill="url(#Gradient_1)" stroke="none" d="
M 89.6 50.9
L 89.6 50.1
Q 89.6 50.05 89.6 50 89.6 33.65 78 22.05 66.4 10.4 50 10.4 33.7 10.4 22.1 22.05 10.81796875 33.235546875 10.4 48.85 11.181640625 48.8568359375 11.95 48.85
L 11.9 48.8
Q 13.4 48.85 14.9 48.9 17.0255859375 48.9 19.2 48.95
L 19.25 48.95
Q 19.5 48.95 19.8 48.95
L 21.75 48.95
Q 22.05 37.95 29.95 30 38.25 21.75 49.9 21.75 61.6 21.75 69.85 30 78.15 38.3 78.15 50 78.15 52.05 77.9 54.05 77.35 58.05 75.7 61.6 73.65 66.1 69.85 69.9 61.6 78.2 49.9 78.2 47.95 78.2 46.2 77.95 41.6 77.4 37.55 75.45 41.6 77.4 46.2 77.95 47.95 78.2 49.9 78.2 61.6 78.2 69.85 69.9 73.65 66.1 75.7 61.6 77.35 58.05 77.9 54.05 78.15 52.05 78.15 50 78.15 38.3 69.85 30 61.6 21.75 49.9 21.75 38.25 21.75 29.95 30 22.05 37.95 21.75 48.95
L 23.8 48.95
Q 24.1248046875 48.9517578125 24.35 48.95
L 30.3 49
Q 30.496875 49.026953125 30.65 49
L 34.7 49.05 21.7 66.55 10.4 50.85 10.4 50.9
Q 10.75 66.7 22.1 78 33.7 89.6 50 89.6 66.4 89.6 78 78 89.25 66.7 89.6 50.9 Z"/>
</g>

<path id="Layer1_0_1_STROKES" stroke="#FFFFFF" stroke-width="8" stroke-linejoin="round" stroke-linecap="round" fill="none" d="
M 21.75 48.95
Q 22.05 37.95 29.95 30 38.25 21.75 49.9 21.75 61.6 21.75 69.85 30 78.15 38.3 78.15 50 78.15 52.05 77.9 54.05"/>

<path id="Layer1_0_2_STROKES" stroke="url(#Gradient_2)" stroke-width="8" stroke-linejoin="round" stroke-linecap="round" fill="none" d="
M 77.9 54.05
Q 77.35 58.05 75.7 61.6 73.65 66.1 69.85 69.9 61.6 78.2 49.9 78.2 47.95 78.2 46.2 77.95 41.6 77.4 37.55 75.45"/>

</defs>

<g transform="matrix( 1, 0, 0, 1, 0,0) ">
<use xlink:href="#Layer1_0_FILL"/>

<use xlink:href="#Layer1_0_1_STROKES"/>

<use xlink:href="#Layer1_0_2_STROKES"/>
</g>

<g transform="matrix( 1, 0, 0, 1, -3.4,-28) ">
<clipPath id="Mask_Mask_1">
<rect x="-1.55" y="-2" width="109.9" height="20.8" fill="#FFFFFF" stroke="none"/>
</clipPath>

<text clip-path="url(#Mask_Mask_1)" writing-mode="lr"><tspan x="0.55" y="13.6" baseline-shift="0%" kerning="auto" font-family="Arial_Regular" font-size="15" fill="#999999" xml:space="preserve">Vive Controllers</tspan></text>
</g>
</svg>
