
<svg xmlns="http://www.w3.org/2000/svg" version="1.1" xmlns:xlink="http://www.w3.org/1999/xlink" x="0px" y="0px" viewBox="0 0 100 100">
<defs>
<g id="Layer1_0_FILL">
<path fill="#FFFFFF" stroke="none" d="
M 71.9 29.95
Q 71.85 21.05 65.5 14.7 59.1 8.3 50 8.3 40.95 8.3 34.55 14.7 28.5 20.7 28.15 29.05
L 28.15 71
Q 28.6 79.3 34.55 85.25 40.95 91.7 50 91.7 59.1 91.7 65.5 85.25 71.7 79.05 71.9 70.3 71.9 70.05 71.9 69.8
L 71.9 29.95
M 68.45 31.8
Q 68.45 39.4 63.05 44.85 57.6 50.3 49.95 50.3 42.25 50.3 36.8 44.85 31.45 39.4 31.45 31.8 31.45 24.1 36.8 18.7 42.25 13.25 49.95 13.25 57.6 13.25 63.05 18.7 68.45 24.1 68.45 31.8
M 40.75 67.7
Q 40.75 65.4 42.4 63.75 44.05 62.1 46.4 62.1
L 53.65 62.1
Q 56 62.1 57.6 63.75 59.25 65.4 59.25 67.7 59.25 70.05 57.6 71.7 55.95 73.35 53.65 73.35
L 46.4 73.35
Q 44.05 73.35 42.4 71.7 40.75 70.05 40.75 67.7
M 45 66.3
Q 44.4 66.9 44.4 67.7 44.4 68.55 45 69.15
L 44.95 69.15
Q 45.55 69.7 46.4 69.7
L 53.65 69.7
Q 54.45 69.7 55.05 69.15 55.6 68.55 55.6 67.7 55.6 66.9 55.05 66.3 54.45 65.75 53.65 65.75
L 46.4 65.75
Q 45.55 65.75 44.95 66.3
L 45 66.3
M 59.95 21.8
Q 55.8 17.65 49.95 17.65 44.05 17.65 39.9 21.8 35.85 25.95 35.85 31.8 35.85 37.7 39.9 41.8 44.05 45.9 49.95 45.9 55.8 45.9 59.95 41.8 64.05 37.7 64.05 31.8 64.05 25.95 59.95 21.8 Z"/>
</g>

</defs>

<g transform="matrix( 1, 0, 0, 1, 0,0) ">
<use xlink:href="#Layer1_0_FILL"/>
</g>

<g transform="matrix( 1, 0, 0, 1, -3.4,-28) ">
<clipPath id="Mask_Mask_1">
<rect x="-0.4" y="-2" width="107.6" height="20.8" fill="#FFFFFF" stroke="none"/>
</clipPath>

<text clip-path="url(#Mask_Mask_1)" writing-mode="lr"><tspan x="1.7" y="13.6" baseline-shift="0%" kerning="auto" font-family="Arial_Regular" font-size="15" fill="#999999" xml:space="preserve">Oculus Remote</tspan></text>
</g>
</svg>
