
<svg xmlns="http://www.w3.org/2000/svg" version="1.1" xmlns:xlink="http://www.w3.org/1999/xlink" x="0px" y="0px" viewBox="0 0 100 100">
<defs>
<g id="Layer1_0_FILL">
<path fill="#1B1B1B" stroke="none" d="
M 66.8 33.2
Q 66.65 33 66.45 32.85 66.35 32.75 66.25 32.7 66.25 32.65 66.15 32.65 59.4 26.2 50 26.2 40.1 26.2 33.1 33.2 26.2 40.2 26.2 50 26.2 59.85 33.1 66.85
L 33.15 66.9
Q 40.15 73.8 50 73.8 59.45 73.8 66.25 67.45 66.3 67.4 66.3 67.35
L 66.35 67.35
Q 66.45 67.25 66.5 67.2 66.65 67.05 66.8 66.9 73.8 59.9 73.8 50 73.8 40.15 66.8 33.2
M 63.8 35.6
Q 63.85 35.65 63.9 35.7 64.05 35.8 64.1 35.9 64.3 36.05 64.4 36.25 70 41.95 70 50 70 58.2 64.15 64.1
L 64.15 64.15 64.1 64.2
Q 63.95 64.3 63.85 64.45 58.1 69.95 50 69.95 41.75 69.95 35.85 64.2
L 35.8 64.15
Q 30.05 58.25 30.05 50 30.05 41.75 35.8 35.9 41.7 30 50 30 58.05 30 63.8 35.6
M 83.8 23.35
Q 84.1 23.7 84.35 24.05 85.2 24 86 24 86.2 24 86.4 24 87.8 24 89.1 24.2 88.5 23.35 87.9 22.5 85.75 19.6 83.05 16.95 69.4 3.25 50 3.25 30.6 3.25 16.9 16.95 3.25 30.6 3.25 50 3.25 69.4 16.9 83.1 30.6 96.75 50 96.75 69.4 96.75 83.05 83.1 85.75 80.4 87.9 77.5 88.5 76.7 89.05 75.9 87.75 76 86.4 76 86.2 76 86 76 85.2 76 84.35 76 84.1 76.3 83.8 76.65 82.25 78.6 80.4 80.45 67.8 93 50 93 32.2 93 19.55 80.45 7 67.8 7 50 7 32.2 19.55 19.6 32.2 7 50 7 67.8 7 80.4 19.6 82.25 21.4 83.8 23.35 Z"/>

<path fill="#3B3B3B" stroke="none" d="
M 63.9 35.7
Q 63.85 35.65 63.8 35.6 58.05 30 50 30 41.7 30 35.8 35.9 30.05 41.75 30.05 50 30.05 58.25 35.8 64.15
L 35.85 64.2
Q 41.75 69.95 50 69.95 58.1 69.95 63.85 64.45 63.95 64.3 64.1 64.2
L 64.15 64.15 64.15 64.1
Q 70 58.2 70 50 70 41.95 64.4 36.25 64.3 36.05 64.1 35.9 64.05 35.8 63.9 35.7
M 61.75 39.25
Q 61.95 39.4 62.1 39.6 66 43.95 66 50 66 56 62.05 60.5 61.95 60.65 61.75 60.85 61.55 61.05 61.3 61.3
L 61.25 61.35 61.3 61.35
Q 56.65 65.95 50 65.95 43.4 65.95 38.65 61.35 34.05 56.6 34.05 50 34.05 43.35 38.65 38.7
L 38.65 38.75
Q 43.4 34 50 34 56.4 34 61 38.45 61.1 38.6 61.25 38.8 61.35 38.85 61.45 38.95 61.6 39.1 61.75 39.25
M 81.95 24.3
Q 82.65 24.2 83.3 24.15 83.85 24.1 84.35 24.05 84.1 23.7 83.8 23.35 82.25 21.4 80.4 19.6 67.8 7 50 7 32.2 7 19.55 19.6 7 32.2 7 50 7 67.8 19.55 80.45 32.2 93 50 93 67.8 93 80.4 80.45 82.25 78.6 83.8 76.65 84.1 76.3 84.35 76 83.85 75.95 83.3 75.9 82.7 75.85 82.1 75.75 80.95 75.6 79.8 75.35 79.6 75.3 79.4 75.25 79.35 75.3 79.3 75.35 78.35 76.45 77.25 77.55
L 77.3 77.55
Q 66 88.75 49.9 88.75 33.9 88.75 22.45 77.55 11.25 66.1 11.25 50.1 11.25 34 22.45 22.7
L 22.45 22.75
Q 33.9 11.3 49.9 11.3 65.95 11.3 77.25 22.7
L 77.25 22.75
Q 78.25 23.7 79.15 24.75 79.25 24.8 79.25 24.85 79.45 24.8 79.65 24.75 80.8 24.45 81.95 24.3 Z"/>

<path fill="#2E2E2E" stroke="none" d="
M 62.1 39.6
Q 61.95 39.4 61.75 39.25 61.6 39.1 61.45 38.95 61.35 38.85 61.25 38.8 61.1 38.6 61 38.45 56.4 34 50 34 43.4 34 38.65 38.75
L 38.65 38.7
Q 34.05 43.35 34.05 50 34.05 56.6 38.65 61.35 43.4 65.95 50 65.95 56.65 65.95 61.3 61.35
L 61.25 61.35 61.3 61.3
Q 61.55 61.05 61.75 60.85 61.95 60.65 62.05 60.5 66 56 66 50 66 43.95 62.1 39.6
M 77.25 22.75
L 77.25 22.7
Q 65.95 11.3 49.9 11.3 33.9 11.3 22.45 22.75
L 22.45 22.7
Q 11.25 34 11.25 50.1 11.25 66.1 22.45 77.55 33.9 88.75 49.9 88.75 66 88.75 77.3 77.55
L 77.25 77.55
Q 78.35 76.45 79.3 75.35 79.35 75.3 79.4 75.25 72.8 73.55 67.65 68.35 67.2 67.9 66.75 67.45 66.65 67.3 66.5 67.2 66.45 67.25 66.35 67.35
L 66.3 67.35
Q 66.3 67.4 66.25 67.45 59.45 73.8 50 73.8 40.15 73.8 33.15 66.9
L 33.1 66.85
Q 26.2 59.85 26.2 50 26.2 40.2 33.1 33.2 40.1 26.2 50 26.2 59.4 26.2 66.15 32.65 66.25 32.65 66.25 32.7 66.35 32.75 66.45 32.85 66.55 32.75 66.65 32.65 67.15 32.1 67.65 31.6 72.75 26.5 79.25 24.85 79.25 24.8 79.15 24.75 78.25 23.7 77.25 22.75 Z"/>

<path fill="#D7D7D7" stroke="none" d="
M 79.9 25.6
Q 79.6 25.2 79.25 24.85 72.75 26.5 67.65 31.6 67.15 32.1 66.65 32.65 66.55 32.75 66.45 32.85 66.65 33 66.8 33.2 73.8 40.15 73.8 50 73.8 59.9 66.8 66.9 66.65 67.05 66.5 67.2 66.65 67.3 66.75 67.45 67.2 67.9 67.65 68.35 72.8 73.55 79.4 75.25 79.75 74.85 80.05 74.5 88.7 64 88.7 50.1 88.7 36 79.9 25.6 Z"/>

<path fill="#FFFFFF" stroke="none" d="
M 86 24
Q 85.2 24 84.35 24.05 84.65 24.4 84.9 24.75 93 35.7 93 50 93 64.3 84.9 75.25 84.65 75.6 84.35 76 85.2 76 86 76 86.2 76 86.4 76 87.75 76 89.05 75.9
L 89.1 75.8
Q 96.75 64.5 96.75 50 96.75 35.5 89.1 24.25
L 89.1 24.2
Q 87.8 24 86.4 24 86.2 24 86 24 Z"/>

<path fill="#F5F5F5" stroke="none" d="
M 83.3 24.15
Q 82.65 24.2 81.95 24.3 80.8 24.45 79.65 24.75 79.45 24.8 79.25 24.85 79.6 25.2 79.9 25.6 88.7 36 88.7 50.1 88.7 64 80.05 74.5 79.75 74.85 79.4 75.25 79.6 75.3 79.8 75.35 80.95 75.6 82.1 75.75 82.7 75.85 83.3 75.9 83.85 75.95 84.35 76 84.65 75.6 84.9 75.25 93 64.3 93 50 93 35.7 84.9 24.75 84.65 24.4 84.35 24.05 83.85 24.1 83.3 24.15 Z"/>
</g>

</defs>

<g transform="matrix( 1, 0, 0, 1, 0,0) ">
<use xlink:href="#Layer1_0_FILL"/>
</g>

<g transform="matrix( 1, 0, 0, 1, -3.4,-28) ">
<clipPath id="Mask_Mask_1">
<rect x="-0.4" y="-2" width="107.6" height="20.8" fill="#FFFFFF" stroke="none"/>
</clipPath>

<text clip-path="url(#Mask_Mask_1)" writing-mode="lr"><tspan x="1.7" y="13.6" baseline-shift="0%" kerning="auto" font-family="Arial_Regular" font-size="15" fill="#999999" xml:space="preserve">Oculus Remote</tspan></text>
</g>
</svg>
