
<svg xmlns="http://www.w3.org/2000/svg" version="1.1" xmlns:xlink="http://www.w3.org/1999/xlink" x="0px" y="0px" viewBox="0 0 100 100">
<defs>
<g id="Layer1_0_FILL">
<path fill="#FFFFFF" stroke="none" d="
M 82.15 40.15
L 82.35 39 77.4 36.65 76.65 37.55 70 34.5 71.4 32.85
Q 72.35 33 73.3 33.3 73.9 33 74.1 32.5 74.5 31.75 73.85 30.7
L 64.5 26.35
Q 63.2 26.5 62.8 27.25 62.6 27.75 62.8 28.4 63.6 28.95 64.3 29.55
L 64.05 31.7 60.2 29.9 55.15 19.1
Q 53.45 16.85 51.05 15.8 50.65 15.55 50.1 15.25
L 41.4 11.25
Q 38.7 10.2 36.45 11.2 21.1 17.05 14.05 32.1 6.95 47.3 12.6 63.2 18.45 79 33.75 86.1 48.9 93.15 64.75 87.45 80.55 81.65 87.65 66.45 92.35 56.4 91.4 46.15 91.05 44.3 88.8 43.25
L 82.15 40.15
M 81.5 52.2
Q 82.5 51.9 82.9 52.9 82.2 57.9 79.9 62.85 74.3 74.9 61.85 79.5 49.35 84.05 37.35 78.45 25.15 72.75 20.6 60.25 16 47.75 21.65 35.7 27.1 24.05 38.85 19.3 39.05 19.35 39.2 19.3 41.05 18.7 43.4 20.05 45.35 21.35 45.9 22.8 49.3 30.7 48.8 39.35 44.65 55.65 42.8 66.65 42.95 71.55 46.35 73.8 46.8 74.1 47.15 74.3 47.55 74.45 48 74.7 49.4 75.4 51.05 75.45 52.55 75.4 53.95 74.8 55.25 74.3 56.5 73.25 58.05 71.8 58.7 69.85
L 59.8 66.1
Q 62.6 65.9 64.05 64.3
L 66.8 58.35
Q 72.65 58.35 77.65 54.05
L 81.5 52.2 Z"/>
</g>

</defs>

<g transform="matrix( 1, 0, 0, 1, 0,0) ">
<use xlink:href="#Layer1_0_FILL"/>
</g>

<g transform="matrix( 1, 0, 0, 1, -3.4,-28) ">
<clipPath id="Mask_Mask_1">
<rect x="6" y="-2" width="94.8" height="20.8" fill="#FFFFFF" stroke="none"/>
</clipPath>

<text clip-path="url(#Mask_Mask_1)" writing-mode="lr"><tspan x="8.05" y="13.6" baseline-shift="0%" kerning="auto" font-family="Arial_Regular" font-size="15" fill="#999999" xml:space="preserve">Oculus Touch</tspan></text>
</g>
</svg>
