
<svg xmlns="http://www.w3.org/2000/svg" version="1.1" xmlns:xlink="http://www.w3.org/1999/xlink" x="0px" y="0px" viewBox="0 0 100 100">
<defs>
<g id="Layer1_0_FILL">
<path fill="#3F3F3F" stroke="none" d="
M 75.6 21
L 69.45 19.7
Q 53.2 36.55 57.4 53.7 61.75 72.45 77.2 77.85 65.9 68.2 62.3 52.55 58.8 36.75 75.6 21 Z"/>

<path fill="#1B1B1B" stroke="none" d="
M 75.6 21
L 72.95 17.85 72.25 17
Q 71.95 17.3 71.65 17.55 70.5 18.65 69.45 19.7
L 75.6 21 Z"/>

<path fill="#2E2E2E" stroke="none" d="
M 82.85 81.05
Q 85.55 78.75 85 73.95 76.2 58.6 74.45 47.75 72.3 34.55 78.45 27.35 79.05 21.55 74.6 18.3 73.75 18.05 72.95 17.85
L 75.6 21
Q 58.8 36.75 62.3 52.55 65.9 68.2 77.2 77.85 61.75 72.45 57.4 53.7 53.2 36.55 69.45 19.7 70.5 18.65 71.65 17.55 54.6 13.75 39.95 20.25 24 27.15 15.5 32.05 18.3 55.65 29.75 66.95 42.85 80.05 61.2 82.05 71.4 83.35 81.3 82.1 82.2 81.6 82.85 81.05
M 53.05 38.25
L 48.05 38.25 49.65 52.35 45.8 52.35 44.2 38.25 39.2 38.25 38.8 34.85 52.65 34.85 53.05 38.25
M 34.1 35.1
Q 35.4 35.3 36.35 35.95 37.35 36.55 37.95 37.55 38.6 38.6 38.8 40.15 39 42 38.2 43.3 37.4 44.65 35.55 44.95
L 40.9 52.35 36.25 52.35 31.8 45.35 29.9 45.35 30.7 52.35 26.8 52.35 24.8 34.85 31.6 34.85
Q 32.95 34.85 34.1 35.1 Z"/>

<path fill="#999999" stroke="none" d="
M 36.35 35.95
Q 35.4 35.3 34.1 35.1 32.95 34.85 31.6 34.85
L 24.8 34.85 26.8 52.35 30.7 52.35 29.9 45.35 31.8 45.35 36.25 52.35 40.9 52.35 35.55 44.95
Q 37.4 44.65 38.2 43.3 39 42 38.8 40.15 38.6 38.6 37.95 37.55 37.35 36.55 36.35 35.95
M 29.5 42.1
L 29.05 38.1 31.6 38.1
Q 32.05 38.1 32.65 38.15 33.15 38.2 33.65 38.45 34.1 38.7 34.4 39.05 34.7 39.45 34.8 40.1 34.9 40.85 34.6 41.2 34.35 41.65 33.9 41.8 33.45 42 32.85 42.05 32.25 42.1 31.75 42.1
L 29.5 42.1
M 48.05 38.25
L 53.05 38.25 52.65 34.85 38.8 34.85 39.2 38.25 44.2 38.25 45.8 52.35 49.65 52.35 48.05 38.25 Z"/>

<path fill="#313131" stroke="none" d="
M 29.05 38.1
L 29.5 42.1 31.75 42.1
Q 32.25 42.1 32.85 42.05 33.45 42 33.9 41.8 34.35 41.65 34.6 41.2 34.9 40.85 34.8 40.1 34.7 39.45 34.4 39.05 34.1 38.7 33.65 38.45 33.15 38.2 32.65 38.15 32.05 38.1 31.6 38.1
L 29.05 38.1 Z"/>
</g>

<path id="Layer1_0_1_STROKES" stroke="#1B1B1B" stroke-width="5" stroke-linejoin="round" stroke-linecap="round" fill="none" d="
M 72.95 17.85
Q 73.75 18.05 74.6 18.3 79.05 21.55 78.45 27.35 72.3 34.55 74.45 47.75 76.2 58.6 85 73.95 85.55 78.75 82.85 81.05 82.2 81.6 81.3 82.1 71.4 83.35 61.2 82.05 42.85 80.05 29.75 66.95 18.3 55.65 15.5 32.05 24 27.15 39.95 20.25 54.6 13.75 71.65 17.55"/>

</defs>

<g transform="matrix( 1, 0, 0, 1, 0,0) ">
<use xlink:href="#Layer1_0_FILL"/>

<use xlink:href="#Layer1_0_1_STROKES"/>
</g>

<g transform="matrix( 1, 0, 0, 1, -3.4,-28) ">
<clipPath id="Mask_Mask_1">
<rect x="6" y="-2" width="94.8" height="20.8" fill="#FFFFFF" stroke="none"/>
</clipPath>

<text clip-path="url(#Mask_Mask_1)" writing-mode="lr"><tspan x="8.05" y="13.6" baseline-shift="0%" kerning="auto" font-family="Arial_Regular" font-size="15" fill="#999999" xml:space="preserve">Oculus Touch</tspan></text>
</g>
</svg>
