
<svg xmlns="http://www.w3.org/2000/svg" version="1.1" xmlns:xlink="http://www.w3.org/1999/xlink" x="0px" y="0px" viewBox="0 0 100 100">
<defs>
<g id="Layer1_0_FILL">
<path fill="#2E2E2E" stroke="none" d="
M 84.9 67.35
Q 92.15 60.15 92.15 50 92.15 39.8 84.9 32.55 77.7 25.35 67.5 25.35
L 32.5 25.35
Q 22.25 25.35 15.05 32.55 7.9 39.8 7.9 50 7.9 60.15 15.05 67.35 22.25 74.6 32.5 74.6
L 67.5 74.6
Q 77.7 74.6 84.9 67.35
M 67.5 37.9
Q 72.5 37.9 76 41.45 79.55 45 79.55 50 79.55 55 76 58.55 72.5 62.1 67.5 62.1
L 32.5 62.1
Q 27.45 62.1 23.9 58.55 20.4 55 20.4 50 20.4 45 23.9 41.45 27.45 37.9 32.5 37.9
L 67.5 37.9 Z"/>

<path fill="#3B3B3B" stroke="none" d="
M 76 41.45
Q 72.5 37.9 67.5 37.9
L 32.5 37.9
Q 27.45 37.9 23.9 41.45 20.4 45 20.4 50 20.4 55 23.9 58.55 27.45 62.1 32.5 62.1
L 67.5 62.1
Q 72.5 62.1 76 58.55 79.55 55 79.55 50 79.55 45 76 41.45 Z"/>
</g>

<path id="Layer1_0_1_STROKES" stroke="#1B1B1B" stroke-width="5" stroke-linejoin="round" stroke-linecap="round" fill="none" d="
M 92.15 50
Q 92.15 60.15 84.9 67.35 77.7 74.6 67.5 74.6
L 32.5 74.6
Q 22.25 74.6 15.05 67.35 7.9 60.15 7.9 50 7.9 39.8 15.05 32.55 22.25 25.35 32.5 25.35
L 67.5 25.35
Q 77.7 25.35 84.9 32.55 92.15 39.8 92.15 50 Z
M 67.5 37.9
Q 72.5 37.9 76 41.45 79.55 45 79.55 50 79.55 55 76 58.55 72.5 62.1 67.5 62.1
L 32.5 62.1
Q 27.45 62.1 23.9 58.55 20.4 55 20.4 50 20.4 45 23.9 41.45 27.45 37.9 32.5 37.9
L 67.5 37.9 Z"/>

</defs>

<g transform="matrix( 1, 0, 0, 1, 0,0) ">
<use xlink:href="#Layer1_0_FILL"/>

<use xlink:href="#Layer1_0_1_STROKES"/>
</g>

<g transform="matrix( 1, 0, 0, 1, -3.4,-28) ">
<clipPath id="Mask_Mask_1">
<rect x="-0.4" y="-2" width="107.6" height="20.8" fill="#FFFFFF" stroke="none"/>
</clipPath>

<text clip-path="url(#Mask_Mask_1)" writing-mode="lr"><tspan x="1.7" y="13.6" baseline-shift="0%" kerning="auto" font-family="Arial_Regular" font-size="15" fill="#999999" xml:space="preserve">Oculus Remote</tspan></text>
</g>
</svg>
