
<svg xmlns="http://www.w3.org/2000/svg" version="1.1" xmlns:xlink="http://www.w3.org/1999/xlink" x="0px" y="0px" viewBox="0 0 100 100">
<defs>
<g id="Layer1_0_FILL">
<path fill="#D7D7D7" stroke="none" d="
M 33.5 32.8
Q 33.35 32.7 33.25 32.55 32.8 32.1 32.35 31.65 27.2 26.45 20.6 24.75 20.25 25.15 19.95 25.5 11.3 36 11.3 49.9 11.3 64 20.1 74.4 20.4 74.8 20.75 75.15 27.25 73.5 32.35 68.4 32.85 67.9 33.35 67.35 33.45 67.25 33.55 67.15 33.35 67 33.2 66.8 26.2 59.85 26.2 50 26.2 40.1 33.2 33.1 33.35 32.95 33.5 32.8 Z"/>

<path fill="#F5F5F5" stroke="none" d="
M 16.7 24.1
Q 16.15 24.05 15.65 24 15.35 24.4 15.1 24.75 7 35.7 7 50 7 64.3 15.1 75.25 15.35 75.6 15.65 75.95 16.15 75.9 16.7 75.85 17.35 75.8 18.05 75.7 19.2 75.55 20.35 75.25 20.55 75.2 20.75 75.15 20.4 74.8 20.1 74.4 11.3 64 11.3 49.9 11.3 36 19.95 25.5 20.25 25.15 20.6 24.75 20.4 24.7 20.2 24.65 19.05 24.4 17.9 24.25 17.3 24.15 16.7 24.1 Z"/>

<path fill="#FFFFFF" stroke="none" d="
M 14 24
Q 13.8 24 13.6 24 12.25 24 10.95 24.1
L 10.9 24.2
Q 3.25 35.5 3.25 50 3.25 64.5 10.9 75.75
L 10.9 75.8
Q 12.2 76 13.6 76 13.8 76 14 76 14.8 76 15.65 75.95 15.35 75.6 15.1 75.25 7 64.3 7 50 7 35.7 15.1 24.75 15.35 24.4 15.65 24 14.8 24 14 24 Z"/>

<path fill="#1B1B1B" stroke="none" d="
M 66.9 33.15
L 66.85 33.1
Q 59.85 26.2 50 26.2 40.55 26.2 33.75 32.55 33.7 32.6 33.7 32.65
L 33.65 32.65
Q 33.55 32.75 33.5 32.8 33.35 32.95 33.2 33.1 26.2 40.1 26.2 50 26.2 59.85 33.2 66.8 33.35 67 33.55 67.15 33.65 67.25 33.75 67.3 33.75 67.35 33.85 67.35 40.6 73.8 50 73.8 59.9 73.8 66.9 66.8 73.8 59.8 73.8 50 73.8 40.15 66.9 33.15
M 64.15 35.8
L 64.2 35.85
Q 69.95 41.75 69.95 50 69.95 58.25 64.2 64.1 58.3 70 50 70 41.95 70 36.2 64.4 36.15 64.35 36.1 64.3 35.95 64.2 35.9 64.1 35.7 63.95 35.6 63.75 30 58.05 30 50 30 41.8 35.85 35.9
L 35.85 35.85 35.9 35.8
Q 36.05 35.7 36.15 35.55 41.9 30.05 50 30.05 58.25 30.05 64.15 35.8
M 83.1 83.05
Q 96.75 69.4 96.75 50 96.75 30.6 83.1 16.9 69.4 3.25 50 3.25 30.6 3.25 16.95 16.9 14.25 19.6 12.1 22.5 11.5 23.3 10.95 24.1 12.25 24 13.6 24 13.8 24 14 24 14.8 24 15.65 24 15.9 23.7 16.2 23.35 17.75 21.4 19.6 19.55 32.2 7 50 7 67.8 7 80.45 19.55 93 32.2 93 50 93 67.8 80.45 80.4 67.8 93 50 93 32.2 93 19.6 80.4 17.75 78.6 16.2 76.65 15.9 76.3 15.65 75.95 14.8 76 14 76 13.8 76 13.6 76 12.2 76 10.9 75.8 11.5 76.65 12.1 77.5 14.25 80.4 16.95 83.05 30.6 96.75 50 96.75 69.4 96.75 83.1 83.05 Z"/>

<path fill="#3B3B3B" stroke="none" d="
M 64.2 35.85
L 64.15 35.8
Q 58.25 30.05 50 30.05 41.9 30.05 36.15 35.55 36.05 35.7 35.9 35.8
L 35.85 35.85 35.85 35.9
Q 30 41.8 30 50 30 58.05 35.6 63.75 35.7 63.95 35.9 64.1 35.95 64.2 36.1 64.3 36.15 64.35 36.2 64.4 41.95 70 50 70 58.3 70 64.2 64.1 69.95 58.25 69.95 50 69.95 41.75 64.2 35.85
M 50 34.05
Q 56.6 34.05 61.35 38.65 65.95 43.4 65.95 50 65.95 56.65 61.35 61.3
L 61.35 61.25
Q 56.6 66 50 66 43.6 66 39 61.55 38.9 61.4 38.75 61.2 38.65 61.15 38.55 61.05 38.4 60.9 38.25 60.75 38.05 60.6 37.9 60.4 34 56.05 34 50 34 44 37.95 39.5 38.05 39.35 38.25 39.15 38.45 38.95 38.7 38.7
L 38.75 38.65 38.7 38.65
Q 43.35 34.05 50 34.05
M 50.1 11.25
Q 66.1 11.25 77.55 22.45 88.75 33.9 88.75 49.9 88.75 66 77.55 77.3
L 77.55 77.25
Q 66.1 88.7 50.1 88.7 34.05 88.7 22.75 77.3
L 22.75 77.25
Q 21.75 76.3 20.85 75.25 20.75 75.2 20.75 75.15 20.55 75.2 20.35 75.25 19.2 75.55 18.05 75.7 17.35 75.8 16.7 75.85 16.15 75.9 15.65 75.95 15.9 76.3 16.2 76.65 17.75 78.6 19.6 80.4 32.2 93 50 93 67.8 93 80.45 80.4 93 67.8 93 50 93 32.2 80.45 19.55 67.8 7 50 7 32.2 7 19.6 19.55 17.75 21.4 16.2 23.35 15.9 23.7 15.65 24 16.15 24.05 16.7 24.1 17.3 24.15 17.9 24.25 19.05 24.4 20.2 24.65 20.4 24.7 20.6 24.75 20.65 24.7 20.7 24.65 21.65 23.55 22.75 22.45
L 22.7 22.45
Q 34 11.25 50.1 11.25 Z"/>

<path fill="#2E2E2E" stroke="none" d="
M 61.35 38.65
Q 56.6 34.05 50 34.05 43.35 34.05 38.7 38.65
L 38.75 38.65 38.7 38.7
Q 38.45 38.95 38.25 39.15 38.05 39.35 37.95 39.5 34 44 34 50 34 56.05 37.9 60.4 38.05 60.6 38.25 60.75 38.4 60.9 38.55 61.05 38.65 61.15 38.75 61.2 38.9 61.4 39 61.55 43.6 66 50 66 56.6 66 61.35 61.25
L 61.35 61.3
Q 65.95 56.65 65.95 50 65.95 43.4 61.35 38.65
M 77.55 22.45
Q 66.1 11.25 50.1 11.25 34 11.25 22.7 22.45
L 22.75 22.45
Q 21.65 23.55 20.7 24.65 20.65 24.7 20.6 24.75 27.2 26.45 32.35 31.65 32.8 32.1 33.25 32.55 33.35 32.7 33.5 32.8 33.55 32.75 33.65 32.65
L 33.7 32.65
Q 33.7 32.6 33.75 32.55 40.55 26.2 50 26.2 59.85 26.2 66.85 33.1
L 66.9 33.15
Q 73.8 40.15 73.8 50 73.8 59.8 66.9 66.8 59.9 73.8 50 73.8 40.6 73.8 33.85 67.35 33.75 67.35 33.75 67.3 33.65 67.25 33.55 67.15 33.45 67.25 33.35 67.35 32.85 67.9 32.35 68.4 27.25 73.5 20.75 75.15 20.75 75.2 20.85 75.25 21.75 76.3 22.75 77.25
L 22.75 77.3
Q 34.05 88.7 50.1 88.7 66.1 88.7 77.55 77.25
L 77.55 77.3
Q 88.75 66 88.75 49.9 88.75 33.9 77.55 22.45 Z"/>
</g>

</defs>

<g transform="matrix( 1, 0, 0, 1, 0,0) ">
<use xlink:href="#Layer1_0_FILL"/>
</g>

<g transform="matrix( 1, 0, 0, 1, -3.4,-28) ">
<clipPath id="Mask_Mask_1">
<rect x="-0.4" y="-2" width="107.6" height="20.8" fill="#FFFFFF" stroke="none"/>
</clipPath>

<text clip-path="url(#Mask_Mask_1)" writing-mode="lr"><tspan x="1.7" y="13.6" baseline-shift="0%" kerning="auto" font-family="Arial_Regular" font-size="15" fill="#999999" xml:space="preserve">Oculus Remote</tspan></text>
</g>
</svg>
