
<svg xmlns="http://www.w3.org/2000/svg" version="1.1" xmlns:xlink="http://www.w3.org/1999/xlink" x="0px" y="0px" viewBox="0 0 100 100">
<defs>
<g id="Layer1_0_FILL">
<path fill="#FFFFFF" stroke="none" d="
M 24.75 84.9
Q 24.4 84.65 24 84.35 24 85.2 24 86 24 86.2 24 86.4 24 87.75 24.1 89.05
L 24.2 89.1
Q 35.5 96.75 50 96.75 64.5 96.75 75.75 89.1
L 75.8 89.1
Q 76 87.8 76 86.4 76 86.2 76 86 76 85.2 75.95 84.35 75.6 84.65 75.25 84.9 64.3 93 50 93 35.7 93 24.75 84.9 Z"/>

<path fill="#F5F5F5" stroke="none" d="
M 24.75 79.4
Q 24.7 79.6 24.65 79.8 24.4 80.95 24.25 82.1 24.15 82.7 24.1 83.3 24.05 83.85 24 84.35 24.4 84.65 24.75 84.9 35.7 93 50 93 64.3 93 75.25 84.9 75.6 84.65 75.95 84.35 75.9 83.85 75.85 83.3 75.8 82.65 75.7 81.95 75.55 80.8 75.25 79.65 75.2 79.45 75.15 79.25 74.8 79.6 74.4 79.9 64 88.7 49.9 88.7 36 88.7 25.5 80.05 25.15 79.75 24.75 79.4 Z"/>

<path fill="#D7D7D7" stroke="none" d="
M 33.1 66.8
Q 32.95 66.65 32.8 66.5 32.7 66.65 32.55 66.75 32.1 67.2 31.65 67.65 26.45 72.8 24.75 79.4 25.15 79.75 25.5 80.05 36 88.7 49.9 88.7 64 88.7 74.4 79.9 74.8 79.6 75.15 79.25 73.5 72.75 68.4 67.65 67.9 67.15 67.35 66.65 67.25 66.55 67.15 66.45 67 66.65 66.8 66.8 59.85 73.8 50 73.8 40.1 73.8 33.1 66.8 Z"/>

<path fill="#3B3B3B" stroke="none" d="
M 77.3 22.45
L 77.25 22.45
Q 88.7 33.9 88.7 49.9 88.7 65.95 77.3 77.25
L 77.25 77.25
Q 76.3 78.25 75.25 79.15 75.2 79.25 75.15 79.25 75.2 79.45 75.25 79.65 75.55 80.8 75.7 81.95 75.8 82.65 75.85 83.3 75.9 83.85 75.95 84.35 76.3 84.1 76.65 83.8 78.6 82.25 80.4 80.4 93 67.8 93 50 93 32.2 80.4 19.55 67.8 7 50 7 32.2 7 19.55 19.55 7 32.2 7 50 7 67.8 19.55 80.4 21.4 82.25 23.35 83.8 23.7 84.1 24 84.35 24.05 83.85 24.1 83.3 24.15 82.7 24.25 82.1 24.4 80.95 24.65 79.8 24.7 79.6 24.75 79.4 24.7 79.35 24.65 79.3 23.55 78.35 22.45 77.25
L 22.45 77.3
Q 11.25 66 11.25 49.9 11.25 33.9 22.45 22.45 33.9 11.25 49.9 11.25 66 11.25 77.3 22.45
M 64.1 35.8
Q 58.25 30.05 50 30.05 41.75 30.05 35.85 35.8
L 35.8 35.85
Q 30.05 41.75 30.05 50 30.05 58.1 35.55 63.85 35.7 63.95 35.8 64.1
L 35.85 64.15 35.9 64.15
Q 41.8 70 50 70 58.05 70 63.75 64.4 63.95 64.3 64.1 64.1 64.2 64.05 64.3 63.9 64.35 63.85 64.4 63.8 70 58.05 70 50 70 41.7 64.1 35.8
M 61.3 38.65
L 61.25 38.65
Q 66 43.4 66 50 66 56.4 61.55 61 61.4 61.1 61.2 61.25 61.15 61.35 61.05 61.45 60.9 61.6 60.75 61.75 60.6 61.95 60.4 62.1 56.05 66 50 66 44 66 39.5 62.05 39.35 61.95 39.15 61.75 38.95 61.55 38.7 61.3
L 38.65 61.25 38.65 61.3
Q 34.05 56.65 34.05 50 34.05 43.4 38.65 38.65 43.4 34.05 50 34.05 56.65 34.05 61.3 38.65 Z"/>

<path fill="#1B1B1B" stroke="none" d="
M 66.8 33.1
Q 59.8 26.2 50 26.2 40.15 26.2 33.15 33.1
L 33.1 33.15
Q 26.2 40.15 26.2 50 26.2 59.45 32.55 66.25 32.6 66.3 32.65 66.3
L 32.65 66.35
Q 32.75 66.45 32.8 66.5 32.95 66.65 33.1 66.8 40.1 73.8 50 73.8 59.85 73.8 66.8 66.8 67 66.65 67.15 66.45 67.25 66.35 67.3 66.25 67.35 66.25 67.35 66.15 73.8 59.4 73.8 50 73.8 40.1 66.8 33.1
M 50 30.05
Q 58.25 30.05 64.1 35.8 70 41.7 70 50 70 58.05 64.4 63.8 64.35 63.85 64.3 63.9 64.2 64.05 64.1 64.1 63.95 64.3 63.75 64.4 58.05 70 50 70 41.8 70 35.9 64.15
L 35.85 64.15 35.8 64.1
Q 35.7 63.95 35.55 63.85 30.05 58.1 30.05 50 30.05 41.75 35.8 35.85
L 35.85 35.8
Q 41.75 30.05 50 30.05
M 83.05 83.05
Q 96.75 69.4 96.75 50 96.75 30.6 83.05 16.9 69.4 3.25 50 3.25 30.6 3.25 16.9 16.9 3.25 30.6 3.25 50 3.25 69.4 16.9 83.05 19.6 85.75 22.5 87.9 23.3 88.5 24.1 89.05 24 87.75 24 86.4 24 86.2 24 86 24 85.2 24 84.35 23.7 84.1 23.35 83.8 21.4 82.25 19.55 80.4 7 67.8 7 50 7 32.2 19.55 19.55 32.2 7 50 7 67.8 7 80.4 19.55 93 32.2 93 50 93 67.8 80.4 80.4 78.6 82.25 76.65 83.8 76.3 84.1 75.95 84.35 76 85.2 76 86 76 86.2 76 86.4 76 87.8 75.8 89.1 76.65 88.5 77.5 87.9 80.4 85.75 83.05 83.05 Z"/>

<path fill="#2E2E2E" stroke="none" d="
M 61.25 38.65
L 61.3 38.65
Q 56.65 34.05 50 34.05 43.4 34.05 38.65 38.65 34.05 43.4 34.05 50 34.05 56.65 38.65 61.3
L 38.65 61.25 38.7 61.3
Q 38.95 61.55 39.15 61.75 39.35 61.95 39.5 62.05 44 66 50 66 56.05 66 60.4 62.1 60.6 61.95 60.75 61.75 60.9 61.6 61.05 61.45 61.15 61.35 61.2 61.25 61.4 61.1 61.55 61 66 56.4 66 50 66 43.4 61.25 38.65
M 50 26.2
Q 59.8 26.2 66.8 33.1 73.8 40.1 73.8 50 73.8 59.4 67.35 66.15 67.35 66.25 67.3 66.25 67.25 66.35 67.15 66.45 67.25 66.55 67.35 66.65 67.9 67.15 68.4 67.65 73.5 72.75 75.15 79.25 75.2 79.25 75.25 79.15 76.3 78.25 77.25 77.25
L 77.3 77.25
Q 88.7 65.95 88.7 49.9 88.7 33.9 77.25 22.45
L 77.3 22.45
Q 66 11.25 49.9 11.25 33.9 11.25 22.45 22.45 11.25 33.9 11.25 49.9 11.25 66 22.45 77.3
L 22.45 77.25
Q 23.55 78.35 24.65 79.3 24.7 79.35 24.75 79.4 26.45 72.8 31.65 67.65 32.1 67.2 32.55 66.75 32.7 66.65 32.8 66.5 32.75 66.45 32.65 66.35
L 32.65 66.3
Q 32.6 66.3 32.55 66.25 26.2 59.45 26.2 50 26.2 40.15 33.1 33.15
L 33.15 33.1
Q 40.15 26.2 50 26.2 Z"/>
</g>

</defs>

<g transform="matrix( 1, 0, 0, 1, 0,0) ">
<use xlink:href="#Layer1_0_FILL"/>
</g>

<g transform="matrix( 1, 0, 0, 1, -3.4,-28) ">
<clipPath id="Mask_Mask_1">
<rect x="-0.4" y="-2" width="107.6" height="20.8" fill="#FFFFFF" stroke="none"/>
</clipPath>

<text clip-path="url(#Mask_Mask_1)" writing-mode="lr"><tspan x="1.7" y="13.6" baseline-shift="0%" kerning="auto" font-family="Arial_Regular" font-size="15" fill="#999999" xml:space="preserve">Oculus Remote</tspan></text>
</g>
</svg>
