
<svg xmlns="http://www.w3.org/2000/svg" version="1.1" xmlns:xlink="http://www.w3.org/1999/xlink" x="0px" y="0px" viewBox="0 0 100 100">
<defs>
<g id="Layer1_0_FILL">
<path fill="#D7D7D7" stroke="none" d="
M 81.3 81.3
Q 94.25 68.35 94.25 50 94.25 31.65 81.3 18.7 68.35 5.75 50 5.75 31.65 5.75 18.7 18.7 16.154296875 21.245703125 14.1 24 10.289453125 29.137109375 8.2 35 5.75 41.9849609375 5.75 50 5.75 54.8107421875 6.65 59.25 7.2669921875 62.3400390625 8.3 65.25 11.5078125 74.1078125 18.7 81.3 31.65 94.25 50 94.25 68.35 94.25 81.3 81.3
M 50.1 9.3
Q 66.95 9.3 78.95 21.3 90.75 33.2 90.75 50.1 90.75 66.95 78.95 78.95 66.95 90.75 50.1 90.75 33.2 90.75 21.3 78.95 15.098046875 72.748046875 12.1 65.25 10.9330078125 62.3474609375 10.25 59.25 9.3 54.8693359375 9.3 50.1 9.3 41.971875 12.05 35 14.4251953125 29.08359375 18.75 24 19.96953125 22.6193359375 21.3 21.3 33.2 9.3 50.1 9.3
M 78.95 21.3
Q 66.95 9.3 50.1 9.3 33.2 9.3 21.3 21.3 19.96953125 22.6193359375 18.75 24 14.4251953125 29.08359375 12.05 35 9.3 41.971875 9.3 50.1 9.3 54.8693359375 10.25 59.25 10.9330078125 62.3474609375 12.1 65.25 15.098046875 72.748046875 21.3 78.95 33.2 90.75 50.1 90.75 66.95 90.75 78.95 78.95 90.75 66.95 90.75 50.1 90.75 33.2 78.95 21.3
M 50 28.2
Q 59.05 28.2 65.45 34.6 71.8 41 71.8 50 71.8 59.05 65.45 65.45 59.05 71.8 50 71.8 41 71.8 34.6 65.45 28.2 59.05 28.2 50 28.2 41 34.6 34.6 41 28.2 50 28.2 Z"/>

<path fill="#2E2E2E" stroke="none" d="
M 65.45 34.6
Q 59.05 28.2 50 28.2 41 28.2 34.6 34.6 28.2 41 28.2 50 28.2 59.05 34.6 65.45 41 71.8 50 71.8 59.05 71.8 65.45 65.45 71.8 59.05 71.8 50 71.8 41 65.45 34.6
M 50 32
Q 57.45 32 62.75 37.3 67.95 42.55 67.95 50 67.95 57.45 62.75 62.75 57.45 67.95 50 67.95 42.55 67.95 37.3 62.75 32 57.45 32 50 32 42.55 37.3 37.3 42.55 32 50 32
M 62.75 37.3
Q 57.45 32 50 32 42.55 32 37.3 37.3 32 42.55 32 50 32 57.45 37.3 62.75 42.55 67.95 50 67.95 57.45 67.95 62.75 62.75 67.95 57.45 67.95 50 67.95 42.55 62.75 37.3 Z"/>
</g>

<path id="Layer1_0_1_STROKES" stroke="#3B3B3B" stroke-width="4" stroke-linejoin="round" stroke-linecap="round" fill="none" d="
M 50 32
Q 57.45 32 62.75 37.3 67.95 42.55 67.95 50 67.95 57.45 62.75 62.75 57.45 67.95 50 67.95 42.55 67.95 37.3 62.75 32 57.45 32 50 32 42.55 37.3 37.3 42.55 32 50 32 Z"/>

<path id="Layer1_0_2_STROKES" stroke="#1B1B1B" stroke-width="4" stroke-linejoin="round" stroke-linecap="round" fill="none" d="
M 50 28.2
Q 59.05 28.2 65.45 34.6 71.8 41 71.8 50 71.8 59.05 65.45 65.45 59.05 71.8 50 71.8 41 71.8 34.6 65.45 28.2 59.05 28.2 50 28.2 41 34.6 34.6 41 28.2 50 28.2 Z"/>

<path id="Layer1_0_3_STROKES" stroke="#FFFFFF" stroke-width="5" stroke-linejoin="round" stroke-linecap="round" fill="none" d="
M 94.25 50
Q 94.25 68.35 81.3 81.3 68.35 94.25 50 94.25 31.65 94.25 18.7 81.3 11.5078125 74.1078125 8.325 65.25 7.2669921875 62.3400390625 6.65 59.25 5.75 54.8107421875 5.75 50 5.75 41.9849609375 8.225 35 10.289453125 29.137109375 14.1 24 16.154296875 21.245703125 18.7 18.7 31.65 5.75 50 5.75 68.35 5.75 81.3 18.7 94.25 31.65 94.25 50 Z"/>

<path id="Layer1_0_4_STROKES" stroke="#F5F5F5" stroke-width="4" stroke-linejoin="round" stroke-linecap="round" fill="none" d="
M 50.1 9.3
Q 66.95 9.3 78.95 21.3 90.75 33.2 90.75 50.1 90.75 66.95 78.95 78.95 66.95 90.75 50.1 90.75 33.2 90.75 21.3 78.95 15.098046875 72.748046875 12.1 65.25 10.9330078125 62.3474609375 10.25 59.25 9.3 54.8693359375 9.3 50.1 9.3 41.971875 12.075 35 14.4251953125 29.08359375 18.775 24 19.96953125 22.6193359375 21.3 21.3 33.2 9.3 50.1 9.3 Z"/>

</defs>

<g transform="matrix( 1, 0, 0, 1, 0,0) ">
<use xlink:href="#Layer1_0_FILL"/>

<use xlink:href="#Layer1_0_1_STROKES"/>

<use xlink:href="#Layer1_0_2_STROKES"/>

<use xlink:href="#Layer1_0_3_STROKES"/>

<use xlink:href="#Layer1_0_4_STROKES"/>
</g>

<g transform="matrix( 1, 0, 0, 1, -3.4,-28) ">
<clipPath id="Mask_Mask_1">
<rect x="-0.4" y="-2" width="107.6" height="20.8" fill="#FFFFFF" stroke="none"/>
</clipPath>

<text clip-path="url(#Mask_Mask_1)" writing-mode="lr"><tspan x="1.7" y="13.6" baseline-shift="0%" kerning="auto" font-family="Arial_Regular" font-size="15" fill="#999999" xml:space="preserve">Oculus Remote</tspan></text>
</g>
</svg>
