
<svg xmlns="http://www.w3.org/2000/svg" version="1.1" xmlns:xlink="http://www.w3.org/1999/xlink" x="0px" y="0px" viewBox="0 0 100 100">
<defs>
<g id="Layer1_0_FILL">
<path fill="#1B1B1B" stroke="none" d="
M 81.55 19.3
Q 81.45 19.2 81.4 19.1 79.5 17.1 77.2 15.5 72.3 21.05 62.25 25.55 50.8 30.6 36.3 31.75 11.05 35.6 10 60 10 75.35 25.5 81.05 37.15 86.45 71.65 71.5 82.25 66.9 87.85 55.85 92.45 46.6 90 37.55 88.2 26.3 81.55 19.3
M 83.35 53.6
L 83.4 53.6
Q 78.65 63 69.65 66.9 38.05 80.65 27.35 76.4 15.15 72 15 60.1 15 60.05 15 60 16 40 36.7 36.75 52.1 35.5 64.3 30.1 72.75 26.3 76.1 22.5 79.4109375 22.9712890625 80.15 25.5 83.85 30.8 85.1 38.7 87.1 46.05 83.35 53.6 Z"/>

<path fill="#3F3F3F" stroke="none" d="
M 76.1 22.5
Q 73.4 27.9 69.5 32.35 59.35 43.4 36.35 46.25 27.85 47.3 24.55 52.8 21.15 57.95 22.8 67.2 23.3 59.7 27.55 55 31.2 51.95 36.95 51.2 62.2 48.1 73.2 35.7
L 73.25 35.65
Q 77.3 31.05 80.15 25.5 79.4109375 22.9712890625 76.1 22.5 Z"/>

<path fill="#2E2E2E" stroke="none" d="
M 83.4 53.6
L 83.35 53.6
Q 87.1 46.05 85.1 38.7 83.85 30.8 80.15 25.5 77.3 31.05 73.25 35.65
L 73.2 35.7
Q 62.2 48.1 36.95 51.2 31.2 51.95 27.55 55 23.3 59.7 22.8 67.2 21.15 57.95 24.55 52.8 27.85 47.3 36.35 46.25 59.35 43.4 69.5 32.35 73.4 27.9 76.1 22.5 72.75 26.3 64.3 30.1 52.1 35.5 36.7 36.75 16 40 15 60 15 60.05 15 60.1 15.15 72 27.35 76.4 38.05 80.65 69.65 66.9 78.65 63 83.4 53.6
M 40.35 55.15
L 40.35 69.25 46.65 67.6 46.65 71.2 36.95 73.75 36.95 56.05 40.35 55.15
M 61.15 51.9
Q 61.25 51.95 61.3 52.05 61.3 52.2 61.3 52.35 61.25 52.45 61.15 52.55
L 59.4 55.25
Q 59.25 55.45 59.05 55.5 58.9 55.5 58.8 55.45 58.2 54.9 57.4 54.7 56.5 54.5 55.55 54.75 54.55 55.05 53.8 55.7
L 53.8 55.65
Q 53 56.25 52.45 57.1 51.85 57.95 51.6 58.95
L 51.55 58.95
Q 51.25 59.95 51.25 61 51.25 62.15 51.6 63
L 51.6 63.05
Q 51.85 63.95 52.45 64.5 53 65.05 53.8 65.25 54.55 65.45 55.55 65.15 56.4 64.95 57.2 64.55 57.75 64.25 58.35 63.85
L 58.35 61.05 55.95 61.65
Q 55.75 61.7 55.7 61.55 55.6 61.45 55.6 61.25
L 55.6 58.55
Q 55.6 58.35 55.7 58.15 55.75 58.05 55.95 58
L 61.15 56.6
Q 61.3 56.6 61.45 56.65 61.55 56.75 61.55 56.95
L 61.55 65.1
Q 61.55 65.25 61.5 65.4 61.45 65.55 61.35 65.65 58.7 68 55.55 68.8 53.9 69.25 52.55 69 51.05 68.75 50.1 67.9
L 50.1 67.85
Q 49.1 67 48.5 65.5 47.95 64 47.95 62.1 47.95 60.1 48.5 58.25 49.1 56.45 50.1 55 51.05 53.55 52.55 52.6 53.9 51.55 55.55 51.1 57.15 50.7 58.55 50.85 60 51 61.15 51.9 Z"/>

<path fill="#8F8F8F" stroke="none" d="
M 61.3 52.05
Q 61.25 51.95 61.15 51.9 60 51 58.55 50.85 57.15 50.7 55.55 51.1 53.9 51.55 52.55 52.6 51.05 53.55 50.1 55 49.1 56.45 48.5 58.25 47.95 60.1 47.95 62.1 47.95 64 48.5 65.5 49.1 67 50.1 67.85
L 50.1 67.9
Q 51.05 68.75 52.55 69 53.9 69.25 55.55 68.8 58.7 68 61.35 65.65 61.45 65.55 61.5 65.4 61.55 65.25 61.55 65.1
L 61.55 56.95
Q 61.55 56.75 61.45 56.65 61.3 56.6 61.15 56.6
L 55.95 58
Q 55.75 58.05 55.7 58.15 55.6 58.35 55.6 58.55
L 55.6 61.25
Q 55.6 61.45 55.7 61.55 55.75 61.7 55.95 61.65
L 58.35 61.05 58.35 63.85
Q 57.75 64.25 57.2 64.55 56.4 64.95 55.55 65.15 54.55 65.45 53.8 65.25 53 65.05 52.45 64.5 51.85 63.95 51.6 63.05
L 51.6 63
Q 51.25 62.15 51.25 61 51.25 59.95 51.55 58.95
L 51.6 58.95
Q 51.85 57.95 52.45 57.1 53 56.25 53.8 55.65
L 53.8 55.7
Q 54.55 55.05 55.55 54.75 56.5 54.5 57.4 54.7 58.2 54.9 58.8 55.45 58.9 55.5 59.05 55.5 59.25 55.45 59.4 55.25
L 61.15 52.55
Q 61.25 52.45 61.3 52.35 61.3 52.2 61.3 52.05
M 40.35 69.25
L 40.35 55.15 36.95 56.05 36.95 73.75 46.65 71.2 46.65 67.6 40.35 69.25 Z"/>
</g>

</defs>

<g transform="matrix( 1, 0, 0, 1, 0,0) ">
<use xlink:href="#Layer1_0_FILL"/>
</g>

<g transform="matrix( 1, 0, 0, 1, -3.4,-28) ">
<clipPath id="Mask_Mask_1">
<rect x="6" y="-2" width="94.8" height="20.8" fill="#FFFFFF" stroke="none"/>
</clipPath>

<text clip-path="url(#Mask_Mask_1)" writing-mode="lr"><tspan x="8.05" y="13.6" baseline-shift="0%" kerning="auto" font-family="Arial_Regular" font-size="15" fill="#999999" xml:space="preserve">Oculus Touch</tspan></text>
</g>
</svg>
