
<svg xmlns="http://www.w3.org/2000/svg" version="1.1" xmlns:xlink="http://www.w3.org/1999/xlink" x="0px" y="0px" viewBox="0 0 100 100">
<defs>
<g id="Layer1_0_FILL">
<path fill="#FFFFFF" stroke="none" d="
M 89.1 63.2
Q 94.75 47.3 87.65 32.1 80.6 17.05 65.25 11.2 63 10.2 60.3 11.25
L 51.6 15.25
Q 51.05 15.55 50.65 15.8 48.25 16.85 46.55 19.1
L 41.5 29.9 37.65 31.7 37.4 29.55
Q 38.1 28.95 38.9 28.4 39.1 27.75 38.9 27.25 38.5 26.5 37.2 26.35
L 27.85 30.7
Q 27.2 31.75 27.6 32.5 27.8 33 28.4 33.3 29.35 33 30.3 32.85
L 31.7 34.5 25.05 37.55 24.3 36.65 19.35 39 19.55 40.15 12.9 43.25
Q 10.65 44.3 10.3 46.15 9.35 56.4 14.05 66.45 21.15 81.65 36.95 87.45 52.8 93.15 67.95 86.1 83.25 79 89.1 63.2
M 62.5 19.3
Q 62.65 19.35 62.85 19.3 74.6 24.05 80.05 35.7 85.7 47.75 81.1 60.25 76.55 72.75 64.35 78.45 52.35 84.05 39.85 79.5 27.4 74.9 21.8 62.85 19.5 57.9 18.8 52.9 19.2 51.9 20.2 52.2
L 24.05 54.05
Q 29.05 58.35 34.9 58.35
L 37.65 64.3
Q 39.1 65.9 41.9 66.1
L 43 69.85
Q 43.65 71.8 45.2 73.25 46.45 74.3 47.75 74.8 49.15 75.4 50.65 75.45 52.3 75.4 53.7 74.7 54.15 74.45 54.55 74.3 54.9 74.1 55.35 73.8 58.75 71.55 58.9 66.65 57.05 55.65 52.9 39.35 52.4 30.7 55.8 22.8 56.35 21.35 58.3 20.05 60.65 18.7 62.5 19.3 Z"/>
</g>

</defs>

<g transform="matrix( 1, 0, 0, 1, 0,0) ">
<use xlink:href="#Layer1_0_FILL"/>
</g>

<g transform="matrix( 1, 0, 0, 1, -3.4,-28) ">
<clipPath id="Mask_Mask_1">
<rect x="6" y="-2" width="94.8" height="20.8" fill="#FFFFFF" stroke="none"/>
</clipPath>

<text clip-path="url(#Mask_Mask_1)" writing-mode="lr"><tspan x="8.05" y="13.6" baseline-shift="0%" kerning="auto" font-family="Arial_Regular" font-size="15" fill="#999999" xml:space="preserve">Oculus Touch</tspan></text>
</g>
</svg>
