<?xml version="1.0" encoding="utf-8"?>
<!-- Generator: Adobe Illustrator 24.1.2, SVG Export Plug-In . SVG Version: 6.00 Build 0)  -->
<svg version="1.1" id="Layer_1" xmlns="http://www.w3.org/2000/svg" xmlns:xlink="http://www.w3.org/1999/xlink" x="0px" y="0px"
	 viewBox="0 0 100 100" style="enable-background:new 0 0 100 100;" xml:space="preserve">
<g transform="matrix( 1, 0, 0, 1, 0,0) ">
	<g>
		<g id="Layer1_0_FILL">
			<path style="fill:#FFFFFF;" d="M76.2,48.8h-6.3v11.5H57.3v-5.9l-12,9.1l12,9.1V67h18.9V48.8z"/>
		</g>
	</g>
	<g>
		<path id="Layer1_0_1_STROKES" style="fill:none;stroke:#FFFFFF;stroke-width:5;stroke-linecap:round;stroke-linejoin:round;" d="
			M87.9,9.6c3.3,0,5,1.7,5,5c-0.4,7.5-0.5,22.4-0.5,44.7c0,8.1,0.2,16.2,0.5,24.3c0,3.3-1.7,5-5,5H13.1c-3.3,0-5-1.7-5-5
			c0.7-15.5,0.7-31.1,0-46.7c0-3.3,1.7-5,5-5h34.7c2.7-0.1,4.2-1.3,4.6-3.6V12.9c0.5-2.1,2-3.1,4.5-3.2H87.9z"/>
	</g>
</g>
</svg>
