<?xml version="1.0" encoding="utf-8"?>
<!-- Generator: Adobe Illustrator 24.1.2, SVG Export Plug-In . SVG Version: 6.00 Build 0)  -->
<svg version="1.1" id="Layer_1" xmlns="http://www.w3.org/2000/svg" xmlns:xlink="http://www.w3.org/1999/xlink" x="0px" y="0px"
	 viewBox="0 0 100 100" style="enable-background:new 0 0 100 100;" xml:space="preserve">
<g transform="matrix( 1, 0, 0, 1, 0,0) ">
	<g>
		<g id="Layer1_0_FILL">
			<path style="fill:#FFFFFF;" d="M63,62.2c-0.3-0.5-0.7-0.8-1.2-1.1c-0.5-0.3-1-0.4-1.5-0.5c-0.5-0.1-1-0.3-1.5-0.3
				c-0.5-0.1-0.9-0.3-1.2-0.4c-0.3-0.1-0.4-0.4-0.4-0.7c0-0.4,0.1-0.6,0.4-0.8c0.3-0.1,0.6-0.2,1-0.2c0.9,0,1.6,0.3,2.2,1l2.3-2.3
				c-0.6-0.6-1.3-1-2.1-1.3c-0.8-0.2-1.6-0.3-2.4-0.3c-0.6,0-1.3,0.1-1.8,0.3c-0.6,0.1-1.2,0.4-1.7,0.8c-0.5,0.3-0.9,0.8-1.2,1.3
				c-0.3,0.5-0.4,1.1-0.4,1.8c0,0.8,0.1,1.4,0.4,1.9c0.3,0.5,0.7,0.8,1.2,1c0.5,0.3,1,0.5,1.5,0.5c0.6,0.1,1.1,0.3,1.5,0.4
				c0.5,0.1,0.9,0.3,1.2,0.4c0.3,0.2,0.5,0.4,0.5,0.8c0,0.3-0.2,0.6-0.5,0.7c-0.3,0.1-0.7,0.2-1.2,0.2c-0.6,0-1.1-0.1-1.5-0.3
				c-0.4-0.2-0.8-0.5-1.1-1l-2.3,2.5c0.6,0.6,1.3,1.1,2.2,1.3c0.9,0.2,1.7,0.3,2.5,0.3c0.7,0,1.3-0.1,2-0.2c0.7-0.1,1.3-0.3,1.8-0.7
				c0.5-0.3,1-0.7,1.3-1.2c0.3-0.5,0.5-1.2,0.5-1.9C63.5,63.2,63.3,62.6,63,62.2 M39.5,55.5v12.1h3.8v-6c0-0.4,0-0.8,0-1.2
				s0.1-0.7,0.3-1c0.2-0.3,0.4-0.5,0.7-0.7c0.3-0.2,0.7-0.3,1.2-0.3c0.5,0,0.9,0.1,1.1,0.3c0.3,0.2,0.5,0.5,0.6,0.8
				c0.1,0.3,0.2,0.7,0.3,1.1s0,0.7,0,1.1v5.9h3.7V61c0-0.8,0-1.5-0.2-2.3c-0.1-0.7-0.4-1.3-0.7-1.8C50,56.4,49.6,56,49,55.7
				c-0.6-0.3-1.4-0.5-2.3-0.5c-0.5,0-0.9,0-1.3,0.2c-0.4,0.1-0.8,0.3-1,0.4c-0.3,0.2-0.5,0.4-0.8,0.7c-0.2,0.2-0.4,0.5-0.5,0.7h-0.1
				v-1.7H39.5 M36.4,67.7V50h-3.9v17.7H36.4z"/>
		</g>
	</g>
	<g>
		<path id="Layer1_0_1_STROKES" style="fill:none;stroke:#FFFFFF;stroke-width:5;stroke-linecap:round;stroke-linejoin:round;" d="
			M84.9,23.1c-0.8,18.2-0.8,36.5,0,54.7c0,3.9-1.9,5.8-5.8,5.8H21.9c-3.9,0-5.9-1.9-5.9-5.8c0.8-18.2,0.8-36.4,0-54.7
			c0-3.9,2-5.9,5.9-5.9h57.2C83,17.3,84.9,19.3,84.9,23.1z"/>
	</g>
</g>
</svg>
