<?xml version="1.0" encoding="utf-8"?>
<!-- Generator: Adobe Illustrator 24.1.2, SVG Export Plug-In . SVG Version: 6.00 Build 0)  -->
<svg version="1.1" id="Layer_1" xmlns="http://www.w3.org/2000/svg" xmlns:xlink="http://www.w3.org/1999/xlink" x="0px" y="0px"
	 viewBox="0 0 100 100" style="enable-background:new 0 0 100 100;" xml:space="preserve">
<g transform="matrix( 1, 0, 0, 1, 0,0) ">
	<g>
		<g id="Layer1_0_FILL">
			<path style="fill:#FFFFFF;" d="M49.5,51c0-0.3-0.1-0.6-0.3-0.8c-0.1-0.2-0.3-0.4-0.6-0.5c-0.2-0.1-0.6-0.2-1-0.2
				c-0.2,0-0.4,0-0.6,0.1c-0.2,0.1-0.3,0.1-0.4,0.2c-0.1,0.1-0.3,0.2-0.4,0.3c-0.1,0.1-0.2,0.3-0.2,0.4h0v-0.8h-1.5V55h1.7v-2.7
				c0-0.2,0-0.4,0-0.5c0-0.2,0.1-0.3,0.1-0.4c0.1-0.1,0.2-0.2,0.3-0.3c0.1-0.1,0.3-0.1,0.5-0.1c0.2,0,0.4,0,0.5,0.1
				c0.1,0.1,0.2,0.2,0.3,0.4c0.1,0.1,0.1,0.3,0.1,0.5c0,0.2,0,0.3,0,0.5V55h1.7v-3C49.7,51.7,49.6,51.4,49.5,51 M59.6,52.3
				c0-0.4-0.1-0.8-0.2-1.2c-0.1-0.3-0.3-0.6-0.5-0.9c-0.2-0.3-0.5-0.5-0.8-0.6c-0.3-0.1-0.7-0.2-1.1-0.2c-0.4,0-0.8,0.1-1.1,0.2
				c-0.4,0.1-0.7,0.3-1,0.6c-0.3,0.2-0.5,0.5-0.7,0.9c-0.2,0.4-0.3,0.8-0.3,1.2c0,0.4,0.1,0.8,0.3,1.2c0.2,0.3,0.4,0.6,0.7,0.8
				c0.3,0.3,0.6,0.5,1,0.6c0.3,0.1,0.7,0.2,1.1,0.2c0.4,0,0.9-0.1,1.3-0.3c0.4-0.2,0.7-0.4,1-0.8l-1.1-0.8c-0.1,0.2-0.3,0.3-0.5,0.5
				c-0.2,0.1-0.4,0.2-0.7,0.2c-0.3,0-0.6-0.1-0.8-0.3c-0.2-0.2-0.4-0.5-0.5-0.8h3.8V52.3 M56.5,50.8c0.1-0.1,0.3-0.1,0.5-0.1
				c0.3,0,0.5,0.1,0.7,0.3c0.2,0.2,0.3,0.4,0.3,0.7h-2.2c0-0.1,0.1-0.3,0.1-0.4c0.1-0.1,0.2-0.2,0.3-0.3
				C56.2,51,56.3,50.9,56.5,50.8 M63.8,51.1v-1.5c-0.1,0-0.1,0-0.3,0c-0.1,0-0.2,0-0.3,0c-0.4,0-0.7,0.1-0.9,0.3
				c-0.3,0.2-0.5,0.4-0.7,0.8v-0.8h-1.7V55h1.7v-2.3c0-0.3,0-0.5,0-0.7c0-0.2,0.1-0.4,0.2-0.6c0.1-0.1,0.3-0.3,0.5-0.4
				c0.2-0.1,0.4-0.1,0.8-0.1c0.1,0,0.2,0,0.3,0S63.7,51.1,63.8,51.1 M52.5,48h-1.7v1.6h-1V51h1v2.5c0,0.3,0.1,0.5,0.2,0.8
				c0.1,0.2,0.3,0.4,0.5,0.5c0.2,0.1,0.4,0.2,0.6,0.3c0.2,0.1,0.5,0.1,0.8,0.1c0.2,0,0.4,0,0.6-0.1s0.4-0.1,0.6-0.1v-1.4
				c-0.1,0.1-0.2,0.1-0.3,0.1c-0.1,0-0.2,0-0.3,0c-0.2,0-0.3,0-0.4,0c-0.1-0.1-0.2-0.2-0.3-0.3c-0.1-0.1-0.1-0.2-0.1-0.3
				c0-0.1,0-0.2,0-0.4V51h1.5v-1.3h-1.5V48 M43.6,48.8v-1.6h-5.3V55h5.5v-1.6H40v-1.6h3.4v-1.6H40v-1.5H43.6z"/>
		</g>
	</g>
	<g>
		<path id="Layer1_0_1_STROKES" style="fill:none;stroke:#FFFFFF;stroke-width:5;stroke-linecap:round;stroke-linejoin:round;" d="
			M70.3,6.7c2.7,0,4.1,1.6,4.1,4.8c-0.3,7.4-0.5,25.7-0.5,54.9c0,7.7,0.1,15.3,0.5,23c0,3.2-1.4,4.9-4.1,4.9H30.6
			c-2.7,0-4-1.6-4-4.9c0.3-7.7,0.4-15.3,0.4-23c0-29.3-0.2-47.6-0.4-54.9c0-3.2,1.3-4.8,4-4.8H70.3z"/>
	</g>
</g>
</svg>
