<?xml version="1.0" encoding="utf-8"?>
<!-- Generator: Adobe Illustrator 24.1.2, SVG Export Plug-In . SVG Version: 6.00 Build 0)  -->
<svg version="1.1" id="Layer_1" xmlns="http://www.w3.org/2000/svg" xmlns:xlink="http://www.w3.org/1999/xlink" x="0px" y="0px"
	 viewBox="0 0 100 100" style="enable-background:new 0 0 100 100;" xml:space="preserve">
<g transform="matrix( 1, 0, 0, 1, 0,0) ">
	<g>
		<g id="Layer1_0_FILL">
			<path style="fill:#FFFFFF;" d="M45.5,59.3c-0.7,0-1.3,0.1-1.9,0.4c-0.6,0.2-1.1,0.5-1.5,0.9c-0.4,0.4-0.8,0.9-1,1.4
				c-0.3,0.6-0.4,1.2-0.4,1.8c0,0.7,0.1,1.3,0.4,1.9c0.2,0.6,0.6,1.1,1,1.4c0.4,0.4,0.9,0.7,1.5,0.9c0.6,0.2,1.2,0.3,1.9,0.3
				c0.6,0,1.3-0.1,1.8-0.3c0.6-0.2,1.1-0.5,1.5-0.9c0.4-0.4,0.8-0.9,1-1.4c0.3-0.5,0.4-1.2,0.4-1.9c0-0.7-0.1-1.3-0.4-1.8
				c-0.2-0.5-0.6-1-1-1.4c-0.4-0.4-0.9-0.7-1.5-0.9C46.8,59.4,46.1,59.3,45.5,59.3 M47.6,63.8c0,0.7-0.2,1.2-0.5,1.6
				c-0.4,0.4-0.9,0.6-1.5,0.6c-0.7,0-1.2-0.2-1.6-0.6c-0.4-0.4-0.6-0.9-0.6-1.6c0-0.6,0.2-1.2,0.6-1.5s0.9-0.6,1.6-0.6
				c0.7,0,1.2,0.2,1.5,0.6C47.4,62.6,47.6,63.2,47.6,63.8 M54.4,59.7c-0.6,0.2-1.1,0.5-1.5,0.9c-0.4,0.4-0.8,0.9-1,1.4
				c-0.3,0.6-0.4,1.2-0.4,1.8c0,0.7,0.1,1.3,0.4,1.9c0.2,0.6,0.6,1.1,1,1.4c0.4,0.4,0.9,0.7,1.5,0.9c0.6,0.2,1.2,0.3,1.9,0.3
				c0.5,0,1-0.1,1.5-0.3c0.6-0.2,1.1-0.5,1.5-0.9l-1.8-1.8c-0.2,0.2-0.3,0.3-0.5,0.5c-0.2,0.1-0.5,0.2-0.8,0.2
				c-0.7,0-1.2-0.2-1.6-0.6c-0.4-0.4-0.5-0.9-0.5-1.6c0-0.6,0.2-1.2,0.5-1.5c0.4-0.4,0.9-0.6,1.6-0.6c0.3,0,0.5,0.1,0.8,0.2
				c0.2,0.1,0.4,0.3,0.5,0.5l1.8-1.8c-0.4-0.4-0.9-0.7-1.5-0.9c-0.5-0.2-1-0.3-1.5-0.3C55.6,59.3,55,59.4,54.4,59.7 M69.1,59.5h-3.3
				L63,62.9v-8.1h-2.7v13.3H63v-4.3l2.9,4.3h3.3l-3.5-4.7L69.1,59.5 M34.7,55.6H32v12.5h7.8v-2.5h-5.1V55.6 M40.3,46.8L35,38h-3.8
				v12.5H34v-8.9h0l5.5,8.9H43V38h-2.8L40.3,46.8L40.3,46.8 M58,43.2V42h-2.5v8.5H58v-4.3c0-0.3,0-0.6,0-0.8c0-0.2,0.1-0.5,0.2-0.7
				c0.1-0.2,0.3-0.4,0.5-0.5c0.2-0.1,0.5-0.2,0.8-0.2c0.3,0,0.6,0.1,0.7,0.2c0.2,0.1,0.3,0.3,0.4,0.5c0.1,0.2,0.1,0.4,0.1,0.7
				c0,0.2,0,0.4,0,0.5v4.5h2.7V46c0-0.2,0-0.5,0-0.8c0.1-0.2,0.2-0.4,0.3-0.6c0.1-0.2,0.3-0.3,0.5-0.4c0.2-0.1,0.4-0.2,0.8-0.2
				c0.4,0,0.7,0.1,0.9,0.4c0.2,0.3,0.3,0.6,0.3,1v5h2.7v-5c0-0.5-0.1-1-0.2-1.5c-0.1-0.5-0.3-0.9-0.5-1.2c-0.2-0.3-0.5-0.6-0.9-0.8
				c-0.4-0.2-0.9-0.3-1.5-0.3c-0.7,0-1.2,0.1-1.7,0.3c-0.4,0.3-0.8,0.7-1.1,1.2c-0.2-0.5-0.6-0.9-1-1.1c-0.5-0.3-1-0.4-1.6-0.4
				c-0.3,0-0.6,0-0.9,0.2c-0.3,0.1-0.5,0.2-0.8,0.3c-0.2,0.1-0.4,0.3-0.5,0.5C58.2,42.8,58,43,58,43.2 M45.3,46.7
				c0,0.6,0,1.1,0.1,1.6c0.1,0.5,0.2,0.9,0.4,1.3c0.2,0.4,0.6,0.7,1,0.9c0.4,0.2,0.9,0.3,1.6,0.3c0.3,0,0.6,0,0.9-0.1
				c0.3-0.1,0.5-0.2,0.7-0.3c0.2-0.1,0.4-0.3,0.5-0.4c0.1-0.2,0.3-0.3,0.4-0.5h0v1.1h2.5V42h-2.6v4.3c0,0.3,0,0.6-0.1,0.8
				c0,0.3-0.1,0.5-0.3,0.7c-0.1,0.2-0.2,0.4-0.4,0.5c-0.2,0.1-0.5,0.2-0.9,0.2c-0.3,0-0.6-0.1-0.8-0.2c-0.2-0.2-0.3-0.4-0.4-0.5
				C48,47.5,48,47.2,48,47c0-0.3,0-0.5,0-0.8V42h-2.7V46.7z"/>
		</g>
	</g>
	<g>
		<path id="Layer1_0_1_STROKES" style="fill:none;stroke:#FFFFFF;stroke-width:5;stroke-linecap:round;stroke-linejoin:round;" d="
			M84.9,23.1c-0.8,18.2-0.8,36.5,0,54.7c0,3.9-1.9,5.8-5.8,5.8H21.9c-3.9,0-5.9-1.9-5.9-5.8c0.8-18.2,0.8-36.4,0-54.7
			c0-3.9,2-5.9,5.9-5.9h57.2C83,17.3,84.9,19.3,84.9,23.1z"/>
	</g>
</g>
</svg>
