<?xml version="1.0" encoding="utf-8"?>
<!-- Generator: Adobe Illustrator 24.1.2, SVG Export Plug-In . SVG Version: 6.00 Build 0)  -->
<svg version="1.1" id="Layer_1" xmlns="http://www.w3.org/2000/svg" xmlns:xlink="http://www.w3.org/1999/xlink" x="0px" y="0px"
	 viewBox="0 0 100 100" style="enable-background:new 0 0 100 100;" xml:space="preserve">
<g transform="matrix( 1, 0, 0, 1, 0,0) ">
	<g>
		<g id="Layer1_0_FILL">
			<path style="fill:#FFFFFF;" d="M50.5,38.2c-1.9,0-3.7,0.3-5.3,0.9c-1.6,0.6-3,1.5-4.3,2.6c-1.2,1.1-2.1,2.5-2.8,4.1
				c-0.7,1.6-1,3.4-1,5.4c0,2,0.3,3.8,1,5.4c0.7,1.6,1.6,3,2.8,4.1c1.2,1.1,2.6,2,4.3,2.6c1.6,0.6,3.4,0.9,5.3,0.9s3.7-0.3,5.3-0.9
				c1.6-0.6,3-1.5,4.3-2.6c1.2-1.1,2.1-2.5,2.8-4.1c0.6-1.6,0.9-3.4,0.9-5.4c0-2-0.3-3.8-0.9-5.4c-0.7-1.6-1.6-3-2.8-4.1
				c-1.2-1.1-2.6-2-4.3-2.6C54.2,38.5,52.4,38.2,50.5,38.2 M47.3,43.8c0.9-0.4,2-0.6,3.2-0.6s2.2,0.2,3.2,0.6c1,0.4,1.8,1,2.4,1.7
				c0.7,0.7,1.2,1.5,1.6,2.5c0.4,1,0.5,2,0.5,3.2c0,1.2-0.2,2.2-0.5,3.2s-0.9,1.8-1.6,2.5c-0.7,0.7-1.5,1.3-2.4,1.6
				c-0.9,0.4-2,0.6-3.2,0.6s-2.2-0.2-3.2-0.6c-0.9-0.4-1.7-1-2.4-1.6c-0.7-0.7-1.2-1.6-1.6-2.5s-0.5-2-0.5-3.2
				c0-1.1,0.2-2.2,0.5-3.2c0.4-1,0.9-1.8,1.6-2.5C45.6,44.8,46.4,44.3,47.3,43.8z"/>
		</g>
	</g>
	<g>
		<path id="Layer1_0_1_STROKES" style="fill:none;stroke:#FFFFFF;stroke-width:5;stroke-linecap:round;stroke-linejoin:round;" d="
			M84.9,23.1c-0.8,18.2-0.8,36.5,0,54.7c0,3.9-1.9,5.8-5.8,5.8H21.9c-3.9,0-5.9-1.9-5.9-5.8c0.8-18.2,0.8-36.4,0-54.7
			c0-3.9,2-5.9,5.9-5.9h57.2C83,17.3,84.9,19.3,84.9,23.1z"/>
	</g>
</g>
</svg>
