<?xml version="1.0" encoding="utf-8"?>
<!-- Generator: Adobe Illustrator 24.1.2, SVG Export Plug-In . SVG Version: 6.00 Build 0)  -->
<svg version="1.1" id="Layer_1" xmlns="http://www.w3.org/2000/svg" xmlns:xlink="http://www.w3.org/1999/xlink" x="0px" y="0px"
	 viewBox="0 0 100 100" style="enable-background:new 0 0 100 100;" xml:space="preserve">
<g transform="matrix( 1, 0, 0, 1, 0,0) ">
	<g>
		<g id="Layer1_0_FILL">
			<path style="fill:#FFFFFF;" d="M28.8,42.5c-0.7,0-1.4,0.1-2,0.3c-0.6,0.2-1.2,0.5-1.7,0.9c-0.5,0.4-0.9,0.8-1.2,1.4
				c-0.3,0.6-0.4,1.2-0.4,2c0,0.8,0.2,1.4,0.5,1.9c0.3,0.5,0.7,0.9,1.2,1.2c0.5,0.3,1,0.5,1.6,0.7c0.6,0.2,1.1,0.3,1.6,0.5
				c0.5,0.2,0.9,0.4,1.3,0.7c0.3,0.2,0.5,0.6,0.5,1c0,0.3-0.1,0.5-0.2,0.7c-0.1,0.2-0.3,0.3-0.5,0.4c-0.2,0.1-0.4,0.2-0.7,0.3
				c-0.3,0.1-0.5,0.1-0.8,0.1c-0.5,0-1.1-0.1-1.6-0.3c-0.5-0.2-0.9-0.6-1.2-1l-2.2,2.4c0.7,0.6,1.4,1,2.2,1.4
				c0.8,0.3,1.6,0.4,2.5,0.4c0.7,0,1.4-0.1,2.1-0.3c0.7-0.2,1.2-0.5,1.7-0.9c0.5-0.4,0.9-0.8,1.2-1.5c0.3-0.6,0.4-1.3,0.4-2
				c0-0.8-0.1-1.5-0.4-2c-0.3-0.5-0.8-0.8-1.3-1.2c-0.5-0.3-1-0.5-1.5-0.7c-0.6-0.2-1.1-0.3-1.6-0.4c-0.5-0.2-0.9-0.4-1.2-0.6
				c-0.3-0.2-0.4-0.6-0.4-1c0-0.3,0.1-0.5,0.2-0.6c0.1-0.2,0.3-0.4,0.5-0.5c0.2-0.1,0.5-0.2,0.7-0.3c0.2-0.1,0.5-0.1,0.7-0.1
				c0.4,0,0.8,0.1,1.2,0.3c0.4,0.1,0.8,0.4,1.1,0.7l2.1-2.3c-0.6-0.5-1.3-0.9-2-1.2C30.3,42.6,29.6,42.5,28.8,42.5 M73.2,47
				c-0.7,0-1.4,0.1-2.1,0.4c-0.7,0.2-1.2,0.6-1.7,1c-0.5,0.4-0.9,1-1.2,1.6c-0.3,0.6-0.4,1.3-0.4,2.1c0,0.8,0.2,1.5,0.4,2.1
				c0.3,0.6,0.7,1.2,1.2,1.6c0.5,0.4,1,0.8,1.7,1.1c0.7,0.2,1.4,0.3,2.1,0.3c0.8,0,1.6-0.2,2.3-0.5c0.7-0.3,1.3-0.8,1.8-1.4
				l-2.1-1.5c-0.2,0.3-0.5,0.6-0.9,0.9C73.9,54.9,73.5,55,73,55c-0.6,0-1-0.2-1.4-0.5c-0.4-0.3-0.7-0.8-0.8-1.4h6.9v-0.9
				c0-0.8-0.1-1.5-0.3-2.1c-0.2-0.6-0.5-1.2-0.9-1.6c-0.4-0.5-0.9-0.8-1.4-1C74.5,47.2,73.8,47,73.2,47 M72,49.3
				c0.3-0.1,0.6-0.1,0.9-0.1c0.5,0,1,0.2,1.3,0.5c0.4,0.4,0.5,0.8,0.5,1.3h-3.9c0-0.2,0.1-0.5,0.2-0.7c0.1-0.2,0.2-0.4,0.4-0.6
				C71.5,49.6,71.7,49.5,72,49.3 M66.9,48.3c-0.5-0.5-1-0.8-1.6-1c-0.6-0.2-1.2-0.3-1.8-0.3c-0.7,0-1.4,0.1-2.1,0.4
				c-0.7,0.2-1.2,0.6-1.7,1c-0.5,0.4-0.9,1-1.2,1.6c-0.3,0.6-0.5,1.3-0.5,2.1c0,0.8,0.2,1.5,0.5,2.1c0.3,0.6,0.7,1.2,1.2,1.6
				c0.5,0.4,1,0.8,1.7,1.1c0.7,0.2,1.4,0.3,2.1,0.3c0.6,0,1.2-0.1,1.8-0.3c0.6-0.2,1.2-0.5,1.6-1L65,53.8c-0.2,0.2-0.4,0.4-0.7,0.6
				c-0.2,0.1-0.5,0.2-0.8,0.2c-0.8,0-1.4-0.2-1.8-0.7c-0.4-0.4-0.7-1-0.7-1.8c0-0.7,0.2-1.3,0.7-1.8c0.4-0.4,1-0.6,1.8-0.6
				c0.3,0,0.6,0.1,0.8,0.2c0.3,0.1,0.5,0.3,0.7,0.5L66.9,48.3 M44.6,48.5c-0.4-0.4-1-0.8-1.5-1c-0.6-0.2-1.2-0.4-2-0.4
				c-0.3,0-0.6,0.1-0.9,0.2c-0.3,0.1-0.6,0.2-0.9,0.3c-0.3,0.1-0.5,0.3-0.7,0.5c-0.2,0.2-0.3,0.3-0.4,0.5h-0.1v-1.3h-2.8v14.3h3V56
				h0.1c0.3,0.5,0.8,0.8,1.3,1c0.5,0.2,1.1,0.3,1.8,0.3c0.7,0,1.3-0.1,1.8-0.5c0.6-0.3,1-0.6,1.4-1.1c0.4-0.5,0.7-1,0.9-1.7
				c0.2-0.6,0.3-1.3,0.3-2c0-0.7-0.1-1.4-0.4-2C45.3,49.4,45,48.9,44.6,48.5 M38.8,53.9c-0.4-0.4-0.7-1-0.7-1.8
				c0-0.7,0.2-1.3,0.7-1.8c0.4-0.4,1-0.6,1.8-0.6s1.4,0.2,1.8,0.6c0.4,0.5,0.7,1.1,0.7,1.8c0,0.7-0.2,1.3-0.7,1.8
				c-0.4,0.5-1,0.7-1.8,0.7C39.7,54.6,39.1,54.4,38.8,53.9 M50.5,49.4c0.4-0.2,0.8-0.3,1.3-0.3c0.5,0,1,0.2,1.4,0.5
				c0.4,0.3,0.5,0.7,0.5,1.3c-0.4,0-0.8,0-1.3,0c-0.5,0-1,0-1.5,0.1c-0.5,0.1-1,0.2-1.4,0.3c-0.5,0.2-0.9,0.4-1.2,0.6
				c-0.4,0.3-0.6,0.6-0.8,1c-0.2,0.4-0.3,0.9-0.3,1.5c0,0.5,0.1,0.9,0.3,1.3c0.2,0.4,0.4,0.7,0.8,1c0.3,0.2,0.7,0.4,1.1,0.5
				c0.4,0.1,0.9,0.2,1.4,0.2c0.6,0,1.2-0.1,1.8-0.3c0.5-0.2,1-0.6,1.3-1.1h0V57h2.8v-5c0-0.8-0.1-1.5-0.2-2.1
				c-0.1-0.6-0.4-1.1-0.7-1.6c-0.3-0.4-0.8-0.8-1.3-1C53.7,47.1,53,47,52.1,47c-0.8,0-1.6,0.1-2.3,0.4c-0.7,0.2-1.4,0.6-2,1.1
				l1.6,1.7C49.7,49.9,50.1,49.6,50.5,49.4 M53,54.8c-0.2,0.1-0.4,0.3-0.7,0.3c-0.3,0.1-0.6,0.1-0.9,0.1c-0.3,0-0.6-0.1-1-0.3
				c-0.3-0.2-0.5-0.4-0.5-0.8c0-0.3,0.1-0.6,0.4-0.8c0.2-0.2,0.5-0.3,0.8-0.4c0.3-0.1,0.6-0.2,1-0.2c0.3,0,0.6,0,0.8,0h0.8v0.7
				c0,0.3-0.1,0.6-0.2,0.8C53.5,54.4,53.3,54.6,53,54.8z"/>
		</g>
	</g>
	<g>
		<path id="Layer1_0_2_STROKES" style="fill:none;stroke:#FFFFFF;stroke-width:5;stroke-linecap:round;stroke-linejoin:round;" d="
			M91.6,28.9c2.5,0,3.8,1.3,3.8,3.8c-0.6,11.8-0.6,23.7,0,35.5c0,2.5-1.3,3.8-3.8,3.8H9.4c-2.5,0-3.8-1.3-3.8-3.8
			c0.5-11.8,0.5-23.6,0-35.5c0-2.5,1.3-3.8,3.8-3.8H91.6z"/>
	</g>
</g>
</svg>
