
<svg xmlns="http://www.w3.org/2000/svg" version="1.1" xmlns:xlink="http://www.w3.org/1999/xlink" x="0px" y="0px" viewBox="0 0 100 100">
<defs>
<linearGradient id="Gradient_1" gradientUnits="userSpaceOnUse" x1="49.5" y1="34.9375" x2="49.5" y2="26.362499999999997" spreadMethod="pad">
<stop  offset="0%" stop-color="#313131"/>

<stop  offset="100%" stop-color="#D7D7D7"/>
</linearGradient>

<linearGradient id="Gradient_2" gradientUnits="userSpaceOnUse" x1="50.1" y1="41.699999999999996" x2="50.1" y2="33.1" spreadMethod="pad">
<stop  offset="0%" stop-color="#4F4F4F"/>

<stop  offset="100%" stop-color="#F5F5F5"/>
</linearGradient>

<linearGradient id="Gradient_3" gradientUnits="userSpaceOnUse" x1="54.7" y1="38.1375" x2="54.7" y2="31.8625" spreadMethod="pad">
<stop  offset="0%" stop-color="#626262"/>

<stop  offset="100%" stop-color="#FFFFFF"/>
</linearGradient>

<linearGradient id="Gradient_4" gradientUnits="userSpaceOnUse" x1="54.35" y1="29.95" x2="54.35" y2="12.349999999999998" spreadMethod="pad">
<stop  offset="0%" stop-color="#1B1B1B"/>

<stop  offset="100%" stop-color="#404040"/>
</linearGradient>

<g id="Layer1_0_FILL">
<path fill="#1B1B1B" stroke="none" d="
M 8.3 67.65
Q 11.55 75.5 18.05 82 24.55 88.5 32.4 91.75
L 32.4 67.65 8.3 67.65
M 28.9 86.1
Q 24.45 83.45 20.55 79.5 16.6 75.6 13.95 71.15
L 28.9 71.15 28.9 86.1
M 18.05 18.05
Q 11.5 24.6 8.2 32.5
L 32.4 32.5 32.4 8.25
Q 24.55 11.55 18.05 18.05
M 20.55 20.5
Q 24.45 16.6 28.9 13.95
L 28.9 29 13.9 29
Q 16.55 24.5 20.55 20.5
M 81.95 82
Q 88.45 75.5 91.75 67.65
L 67.55 67.65 67.55 91.75
Q 75.45 88.5 81.95 82
M 71.05 86.1
L 71.05 71.15 86.05 71.15
Q 83.4 75.6 79.5 79.5 75.55 83.45 71.05 86.1
M 91.8 32.5
Q 88.5 24.6 81.95 18.05 75.45 11.55 67.55 8.25
L 67.55 32.5 91.8 32.5
M 71.05 29
L 71.05 13.95
Q 75.55 16.6 79.5 20.5 83.45 24.5 86.15 29
L 71.05 29 Z"/>

<path fill="#282828" stroke="none" d="
M 20.55 79.5
Q 24.45 83.45 28.9 86.1
L 28.9 71.15 13.95 71.15
Q 16.6 75.6 20.55 79.5
M 28.9 13.95
Q 24.45 16.6 20.55 20.5 16.55 24.5 13.9 29
L 28.9 29 28.9 13.95
M 71.05 71.15
L 71.05 86.1
Q 75.55 83.45 79.5 79.5 83.4 75.6 86.05 71.15
L 71.05 71.15
M 71.05 13.95
L 71.05 29 86.15 29
Q 83.45 24.5 79.5 20.5 75.55 16.6 71.05 13.95 Z"/>

<path fill="url(#Gradient_1)" stroke="none" d="
M 91.75 67.65
Q 95.15 59.55 95.15 50 95.15 40.55 91.8 32.5
L 67.55 32.5 67.55 8.25
Q 59.5 4.9 50 4.9 40.5 4.9 32.4 8.25
L 32.4 32.5 8.2 32.5
Q 4.85 40.55 4.85 50 4.85 59.55 8.3 67.65
L 32.4 67.65 32.4 91.75
Q 40.5 95.15 50 95.15 59.5 95.15 67.55 91.75
L 67.55 67.65 91.75 67.65
M 87.65 50
Q 87.65 55.35 86.4 60.15
L 67.55 60.15
Q 64.45 60.15 62.25 62.35 60.05 64.55 60.05 67.65
L 60.05 86.4
Q 55.3 87.65 50 87.65 44.7 87.65 39.9 86.4
L 39.9 67.65
Q 39.9 64.55 37.7 62.35 35.5 60.15 32.4 60.15
L 13.6 60.15
Q 12.35 55.35 12.35 50 12.35 44.75 13.6 40
L 32.4 40
Q 35.5 40 37.7 37.8 39.9 35.6 39.9 32.5
L 39.9 13.65
Q 44.7 12.4 50 12.4 55.3 12.4 60.05 13.65
L 60.05 32.5
Q 60.05 35.6 62.25 37.8 64.45 40 67.55 40
L 86.45 40
Q 87.65 44.75 87.65 50 Z"/>

<path fill="url(#Gradient_2)" stroke="none" d="
M 86.4 60.15
Q 87.65 55.35 87.65 50 87.65 44.75 86.45 40
L 67.55 40
Q 64.45 40 62.25 37.8 60.05 35.6 60.05 32.5
L 60.05 13.65
Q 55.3 12.4 50 12.4 44.7 12.4 39.9 13.65
L 39.9 32.5
Q 39.9 35.6 37.7 37.8 35.5 40 32.4 40
L 13.6 40
Q 12.35 44.75 12.35 50 12.35 55.35 13.6 60.15
L 32.4 60.15
Q 35.5 60.15 37.7 62.35 39.9 64.55 39.9 67.65
L 39.9 86.4
Q 44.7 87.65 50 87.65 55.3 87.65 60.05 86.4
L 60.05 67.65
Q 60.05 64.55 62.25 62.35 64.45 60.15 67.55 60.15
L 86.4 60.15 Z"/>
</g>

<path id="Layer1_0_1_STROKES" stroke="#1B1B1B" stroke-width="5" stroke-linejoin="round" stroke-linecap="round" fill="none" d="
M 67.55 8.25
Q 75.45 11.55 81.95 18.05 88.5 24.6 91.8 32.5 95.15 40.55 95.15 50 95.15 59.55 91.75 67.65 88.45 75.5 81.95 82 75.45 88.5 67.55 91.75 59.5 95.15 50 95.15 40.5 95.15 32.4 91.75 24.55 88.5 18.05 82 11.55 75.5 8.3 67.65 4.85 59.55 4.85 50 4.85 40.55 8.2 32.5 11.5 24.6 18.05 18.05 24.55 11.55 32.4 8.25
M 67.55 32.5
L 91.8 32.5
M 8.2 32.5
L 32.4 32.5
M 8.3 67.65
L 32.4 67.65 32.4 91.75
M 91.75 67.65
L 67.55 67.65 67.55 91.75"/>

<path id="Layer1_0_2_STROKES" stroke="url(#Gradient_3)" stroke-width="4" stroke-linejoin="round" stroke-linecap="round" fill="none" d="
M 87.65 50
Q 87.65 55.35 86.4 60.15
L 67.55 60.15
Q 64.45 60.15 62.25 62.35 60.05 64.55 60.05 67.65
L 60.05 86.4
Q 55.3 87.65 50 87.65 44.7 87.65 39.9 86.4
L 39.9 67.65
Q 39.9 64.55 37.7 62.35 35.5 60.15 32.4 60.15
L 13.6 60.15
Q 12.35 55.35 12.35 50 12.35 44.75 13.6 40
L 32.4 40
Q 35.5 40 37.7 37.8 39.9 35.6 39.9 32.5
L 39.9 13.65
Q 44.7 12.4 50 12.4 55.3 12.4 60.05 13.65
L 60.05 32.5
Q 60.05 35.6 62.25 37.8 64.45 40 67.55 40
L 86.45 40
Q 87.65 44.75 87.65 50 Z"/>

<path id="Layer1_0_3_STROKES" stroke="url(#Gradient_4)" stroke-width="5" stroke-linejoin="round" stroke-linecap="round" fill="none" d="
M 32.4 8.25
Q 40.5 4.9 50 4.9 59.5 4.9 67.55 8.25
L 67.55 32.5
M 32.4 8.25
L 32.4 32.5"/>

</defs>

<g transform="matrix( 1, 0, 0, 1, 0,0) ">
<use xlink:href="#Layer1_0_FILL"/>

<use xlink:href="#Layer1_0_1_STROKES"/>

<use xlink:href="#Layer1_0_2_STROKES"/>

<use xlink:href="#Layer1_0_3_STROKES"/>
</g>

<g transform="matrix( 1, 0, 0, 1, -3.4,-28) ">
<clipPath id="Mask_Mask_1">
<rect x="3.8" y="-2" width="99.2" height="20.8" fill="#FFFFFF" stroke="none"/>
</clipPath>

<text clip-path="url(#Mask_Mask_1)" writing-mode="lr"><tspan x="5.85" y="13.6" baseline-shift="0%" kerning="auto" font-family="Arial_Regular" font-size="15" fill="#999999" xml:space="preserve">Xbox Series X</tspan></text>
</g>
</svg>
