<?xml version="1.0" encoding="utf-8"?>
<!-- Generator: Adobe Illustrator 24.1.2, SVG Export Plug-In . SVG Version: 6.00 Build 0)  -->
<svg version="1.1" id="Layer_1" xmlns="http://www.w3.org/2000/svg" xmlns:xlink="http://www.w3.org/1999/xlink" x="0px" y="0px"
	 viewBox="0 0 100 100" style="enable-background:new 0 0 100 100;" xml:space="preserve">
<g transform="matrix( 1, 0, 0, 1, 0,0) ">
	<g>
		<g id="Layer1_0_FILL">
			<path style="fill:#6E6E6E;" d="M62.8,9.8L62.8,9.8c-6-2-12.1-2.4-18.5-1.5L40,9.1c-0.8,0.2-1.7,0.4-2.5,0.7V10c0,0,0.1,0,0.1-0.1
				c0.8-0.2,1.7-0.5,2.5-0.7l4.3-0.8C50.7,7.4,56.8,7.9,62.8,9.8L62.8,9.8 M15.9,55.4L15.9,55.4l18.3,3.7c1.3,0.2,2.5,0.8,3.6,1.5
				c0.3,0.3,0.7,0.6,1,0.9l0.1,0.1c0.3,0.3,0.6,0.7,0.9,1c0.8,1.1,1.4,2.3,1.6,3.7l3.7,18.1c3.5,0.5,7,0.6,10.4,0.1l3.6-18.2
				c0.4-1.9,1.2-3.5,2.5-4.8c0.1-0.1,0.3-0.3,0.4-0.4c1.2-1.1,2.7-1.8,4.3-2.1l18-3.6c0.5-3.4,0.5-6.9-0.1-10.5l-18-3.6
				c-1.5-0.3-2.9-0.9-4-1.8c-0.2-0.1-0.3-0.3-0.4-0.4c-0.1-0.1-0.2-0.2-0.4-0.3l-0.1-0.1c-0.3-0.3-0.6-0.7-0.9-1
				c-0.8-1.1-1.3-2.3-1.6-3.6l-3.7-18.2l0,0c-3.4-0.5-6.8-0.5-10.3,0L41.2,34c-0.4,1.8-1.2,3.4-2.5,4.8c-1.3,1.3-2.9,2.2-4.7,2.5
				l-18.2,3.6C15.4,48.5,15.4,52,15.9,55.4 M17.1,55.2L17.1,55.2c-0.5-3.3-0.4-6.7,0.1-10.1l17.5-3.5c1.8-0.3,3.3-1.1,4.6-2.4
				c1.3-1.3,2.1-2.8,2.5-4.6l3.4-17.4c3.4-0.5,6.7-0.5,10-0.1c0,0,0,0,0.1,0l3.5,17.6c0.3,1.3,0.8,2.4,1.5,3.4
				c0.2,0.3,0.5,0.7,0.8,1l0.1,0.1c0.2,0.2,0.5,0.5,0.8,0.7h0.1c1.1,0.8,2.3,1.4,3.8,1.7l17.2,3.6c0.5,3.4,0.5,6.8,0,10.1l-17.3,3.5
				c-1.4,0.3-2.7,0.8-3.8,1.7c-0.3,0.2-0.6,0.5-0.9,0.8c-1.3,1.3-2.1,2.8-2.4,4.6l-3.4,17.3c-3.3,0.5-6.7,0.5-10.1,0l-3.4-17.5
				c-0.3-1.3-0.8-2.5-1.6-3.5c-0.3-0.4-0.5-0.7-0.8-1l-0.1-0.1c-0.3-0.3-0.6-0.6-0.9-0.9c-1-0.8-2.2-1.3-3.5-1.5L17.1,55.2
				 M9.7,62.9L9.7,62.9L33,67.5h0.1l4.5,23.1l0,0c8.8,2.6,17.2,2.6,25.2,0v-0.1l4.6-23.1l-0.1-0.1l-5.2-6.1
				c-0.1,0.1-0.3,0.3-0.4,0.4c-1.3,1.3-2.2,2.9-2.5,4.8l-3.7,18.2c-3.4,0.5-6.9,0.5-10.4-0.1l-3.6-18.1c-0.3-1.4-0.8-2.6-1.6-3.7
				c-0.3-0.3-0.6-0.7-0.9-1l-0.1-0.1c-0.3-0.3-0.7-0.6-1-0.9c-1.1-0.8-2.3-1.3-3.6-1.5L16,55.5l0,0c-0.5-3.4-0.5-6.9,0-10.4
				l18.2-3.6c1.9-0.3,3.4-1.2,4.7-2.5s2.2-2.9,2.5-4.8L45.1,16c3.5-0.5,7-0.5,10.3,0l0,0l3.7,18.2c0.3,1.3,0.8,2.5,1.6,3.6
				c0.2,0.3,0.5,0.7,0.9,1l0.1,0.1c0.1,0.1,0.2,0.2,0.4,0.3c0.1,0.1,0.2,0.3,0.4,0.4l5.1-6.7v-0.1l-4.7-23V9.7h-0.1
				c-5.9-1.9-12.1-2.4-18.4-1.4l-4.3,0.8c-0.8,0.2-1.7,0.4-2.5,0.7L33.1,33L9.8,37.6H9.7C7.1,46.4,7.1,54.8,9.7,62.9
				C9.7,62.8,9.7,62.8,9.7,62.9 M9.7,62.7L9.7,62.7c-2.5-8-2.5-16.4,0-25.2h0.1v-0.1H9.7H9.6C7,46.2,7,54.7,9.7,62.7L9.7,62.7z"/>
			<path style="fill:#353535;" d="M62.8,9.8L62.8,9.8L62.8,9.8c1.7,0.5,3.2,1.1,4.7,1.8C65.9,10.8,64.4,10.2,62.8,9.8L62.8,9.8
				 M67.5,32.9L67.5,32.9l23,4.7l0,0c-0.5-1.6-1.1-3.2-1.8-4.8c-2.1-4.5-5-8.7-8.8-12.4l-0.1-0.1c-3.8-3.8-7.9-6.7-12.4-8.7
				c-1.5-0.7-3-1.2-4.6-1.7L67.5,32.9 M71.3,29.1L71.3,29.1l-2.4-11.7c0.7,0.4,1.4,0.8,2,1.3c2,1.3,3.9,2.9,5.7,4.8l0.1,0.1
				c1.8,1.8,3.4,3.7,4.8,5.8c0.5,0.7,1,1.4,1.4,2.2L71.3,29.1 M90.5,62.9l-23,4.5l-4.6,23.1c6.3-2,12-5.5,17.1-10.5
				C85,75,88.5,69.3,90.5,62.9 M76.8,76.9c-2.4,2.4-5,4.4-7.8,6l2.4-11.6L83,69C81.3,71.8,79.2,74.4,76.8,76.9 M9.7,37.4L9.7,37.4
				c2-6.4,5.5-12.1,10.6-17.1c5.1-5.1,10.8-8.6,17.2-10.5V9.6c-6.4,1.9-12.2,5.5-17.3,10.6S11.6,31,9.7,37.4 M9.8,37.4
				C9.8,37.5,9.8,37.5,9.8,37.4L33,32.9l4.5-23.2c0,0-0.1,0-0.1,0.1c-6.4,1.9-12.1,5.4-17.2,10.5C15.2,25.4,11.7,31.1,9.8,37.4
				 M17.3,31.5L17.3,31.5c1.7-2.9,3.7-5.5,6.2-7.9c2.5-2.5,5.1-4.5,8-6.2l0.1-0.1l-2.3,11.8L17.3,31.5 M9.8,62.9
				c0.5,1.6,1,3.1,1.7,4.6c2,4.5,4.9,8.7,8.7,12.5l0.1,0.1c3.8,3.8,8,6.7,12.5,8.8c1.5,0.7,3.1,1.3,4.8,1.8v-0.1l-4.5-23.1H33
				L9.8,62.9 M18.5,71c-0.4-0.7-0.9-1.4-1.3-2l11.9,2.3h0.1l2.3,11.9c-0.7-0.4-1.5-0.9-2.2-1.4c-2-1.4-4-3-5.8-4.8l-0.1-0.1
				C21.5,74.9,19.9,73,18.5,71 M9.7,62.7L9.7,62.7c0.4,1.6,1,3.2,1.8,4.8c-0.7-1.5-1.2-3.1-1.7-4.6H9.7C9.7,62.8,9.7,62.8,9.7,62.7z
				"/>
			<path style="fill:#4D4D4D;" d="M71.3,29L71.3,29l11.6,2.4c-0.4-0.7-0.9-1.5-1.4-2.2c-1.4-2-3-3.9-4.8-5.8l-0.1-0.1
				c-1.8-1.8-3.7-3.4-5.7-4.8c-0.7-0.4-1.4-0.9-2-1.3L71.3,29 M69,82.9c2.8-1.6,5.4-3.6,7.8-6c2.4-2.5,4.5-5.1,6.1-7.9l-11.6,2.3
				L69,82.9 M17.3,31.4L17.3,31.4l11.8-2.3l2.3-11.8l-0.1,0.1c-2.8,1.6-5.5,3.7-8,6.2C21,26,19,28.6,17.3,31.4 M17.3,68.9
				c0.4,0.7,0.8,1.4,1.3,2c1.4,2,3,3.9,4.8,5.8l0.1,0.1c1.9,1.8,3.8,3.5,5.8,4.8c0.7,0.5,1.5,1,2.2,1.4l-2.3-11.8h-0.1L17.3,68.9z"
				/>
			<path style="fill:#D7D7D7;" d="M90.5,62.9L90.5,62.9c2.6-8.1,2.6-16.6,0-25.4h-0.1l0,0l-23-4.6l-5.1,6.7c1.1,0.9,2.5,1.5,4,1.8
				l18,3.6c0.5,3.6,0.6,7.1,0.1,10.5l-18,3.6c-1.7,0.3-3.1,1-4.3,2.1l5.3,6.2l0.1,0.1L90.5,62.9z"/>
			<path style="fill:#D7D7D7;" d="M37.4,89.2L37.4,89.2c8.1,2.6,16.6,2.6,25.4,0v-0.1l0,0l4.6-23L60.7,61c-0.9,1.1-1.5,2.5-1.8,4
				l-3.6,18c-3.6,0.5-7.1,0.6-10.5,0.1l-3.6-18c-0.3-1.7-1-3.1-2.1-4.3l-6.2,5.3l-0.1,0.1L37.4,89.2z"/>
			<path style="fill:#F5F5F5;" d="M40.1,62L40.1,62c-0.1,0.1-0.1,0.1-0.2,0.1c0.8,1.1,1.4,2.3,1.7,3.8l3.5,17.3
				c3.3,0.5,6.7,0.5,10.1,0l3.5-17.3c0.3-1.4,0.8-2.7,1.7-3.8c0,0-0.1-0.1-0.2-0.1C53.4,57.5,46.7,57.5,40.1,62z"/>
			<path style="fill:#F5F5F5;" d="M61.9,60.2L61.9,60.2c0.1,0.1,0.1,0.1,0.1,0.2c1.1-0.8,2.3-1.4,3.8-1.7l17.3-3.5
				c0.5-3.3,0.5-6.7,0-10.1l-17.3-3.5c-1.4-0.3-2.7-0.8-3.8-1.7c0,0-0.1,0.1-0.1,0.2C57.4,46.9,57.4,53.6,61.9,60.2z"/>
			<path style="fill:#888888;" d="M17.1,55.2c3.2,1,19.5,2.8,21.6,5.4c2.9-1.5,7.2-1.9,11.4-1.7c6.1,0.2,11.9,1.5,12,1.4L62,60.2
				c-4.5-6.6-4.5-13.3,0-20c0-0.1,0.1-0.1,0.1-0.2H62c-4.4-2.5-5.3-18.6-6.7-22.8c-3.3-0.5-6.7-0.4-10.1,0.1
				c-4.7,26.1-2.3,23-28,27.9C16.7,48.6,16.6,51.9,17.1,55.2z"/>
		</g>
	</g>
	<g>
		<path id="Layer1_0_1_STROKES" style="fill:none;stroke:#1F1F1F;stroke-width:4;stroke-linecap:round;stroke-linejoin:round;" d="
			M9.8,62.9C9.7,62.9,9.7,62.8,9.8,62.9c0.4,1.5,1,3.1,1.7,4.7C10.8,66,10.2,64.4,9.8,62.9L33,67.5h0.1 M67.5,32.9L67.5,32.9
			L62.8,9.8V9.7h-0.1c-5.9-1.9-12.1-2.4-18.4-1.4L40,9.1c-0.8,0.2-1.7,0.4-2.5,0.7L33,33L9.7,37.6H9.6C7,46.4,7,54.8,9.6,62.8
			 M9.7,62.7L9.7,62.7c-2.6-8.1-2.6-16.5-0.1-25.3h0.1c1.9-6.4,5.4-12.1,10.5-17.2s10.9-8.6,17.3-10.6c0.8-0.2,1.7-0.5,2.5-0.7
			l4.3-0.8c6.4-0.9,12.5-0.5,18.5,1.4v0.1c1.6,0.5,3.2,1.1,4.7,1.8c4.5,2,8.6,4.9,12.4,8.7l0.1,0.1c3.8,3.8,6.7,7.9,8.7,12.4
			c0.7,1.5,1.3,3.1,1.8,4.8l0,0 M9.8,37.5L9.8,37.5L9.8,37.5 M9.8,37.4c1.9-6.4,5.4-12,10.5-17.1s10.8-8.6,17.2-10.5V9.6 M37.6,90.6
			c-1.6-0.5-3.2-1.1-4.8-1.8c-4.5-2.1-8.7-5-12.5-8.8l-0.1-0.1c-3.8-3.8-6.7-7.9-8.7-12.5 M62.8,9.8L62.8,9.8 M67.4,11.5
			c-1.5-0.7-3-1.2-4.6-1.7 M37.4,9.9C37.4,9.9,37.5,9.9,37.4,9.9"/>
	</g>
	<g>
		<path id="Layer1_0_2_STROKES" style="fill:none;stroke:#A0A0A0;stroke-width:4;stroke-linecap:round;stroke-linejoin:round;" d="
			M37.8,60.8C37.8,60.7,37.8,60.7,37.8,60.8c-1.1-0.8-2.3-1.3-3.6-1.5l-18.3-3.7v-0.1c-0.5-3.4-0.5-6.8,0-10.4l18.2-3.6
			c1.9-0.3,3.4-1.2,4.7-2.5s2.2-2.9,2.5-4.8L45.1,16c3.5-0.5,6.9-0.5,10.3,0c0,0,0,0,0.1,0l3.6,18.2c0.3,1.3,0.8,2.5,1.6,3.6
			c0.3,0.4,0.6,0.7,0.9,1l0.1,0.1c0.1,0.1,0.2,0.2,0.3,0.3s0.3,0.3,0.4,0.4"/>
	</g>
	<g>
		<path id="Layer1_0_3_STROKES" style="fill:none;stroke:#404040;stroke-width:4;stroke-linecap:round;stroke-linejoin:round;" d="
			M90.5,37.5c2.6,8.8,2.6,17.3,0,25.4 M67.5,67.4l23-4.5 M67.5,32.9l23,4.6l0,0"/>
	</g>
	<g>
		
			<path id="Layer1_0_3_STROKES_1_" style="fill:none;stroke:#404040;stroke-width:4;stroke-linecap:round;stroke-linejoin:round;" d="
			M62.8,90.6c-8.8,2.6-17.3,2.6-25.4,0 M32.9,67.6l4.5,23 M67.4,67.6l-4.6,23l0,0"/>
	</g>
	<g>
		<path id="Layer1_0_4_STROKES" style="fill:none;stroke:#FFFFFF;stroke-width:4;stroke-linecap:round;stroke-linejoin:round;" d="
			M66.4,41.4l18,3.6c0.5,3.6,0.6,7.1,0.1,10.5l-18,3.6"/>
	</g>
	<g>
		
			<path id="Layer1_0_4_STROKES_1_" style="fill:none;stroke:#FFFFFF;stroke-width:4;stroke-linecap:round;stroke-linejoin:round;" d="
			M59,65.2l-3.6,18c-3.6,0.5-7.1,0.6-10.5,0.1l-3.6-18"/>
	</g>
	<g>
		<path id="Layer1_0_5_STROKES" style="fill:none;stroke:#FFFFFF;stroke-width:4;stroke-linejoin:round;" d="M66.4,59
			c-1.7,0.3-3.1,1-4.3,2.1 M62.4,39.6c1.1,0.9,2.5,1.5,4,1.8"/>
	</g>
</g>
</svg>
