<?xml version="1.0" encoding="utf-8"?>
<!-- Generator: Adobe Illustrator 24.1.2, SVG Export Plug-In . SVG Version: 6.00 Build 0)  -->
<svg version="1.1" id="Layer_1" xmlns="http://www.w3.org/2000/svg" xmlns:xlink="http://www.w3.org/1999/xlink" x="0px" y="0px"
	 viewBox="0 0 148 148" enable-background="new 0 0 148 148" xml:space="preserve">
<g transform="matrix( 1, 0, 0, 1, 0,0) ">
	<g>
		<g transform="translate(24.5 24.5)">
<path fill="#272727" stroke="none" d="
M 79.85 20.15
Q 67.5 7.8 50 7.8 32.5 7.8 20.15 20.15 19.5611328125 20.7388671875 19 21.35 7.8 33.334375 7.8 50 7.8 66.665625 19 78.65 19.5611328125 79.2611328125 20.15 79.85 32.5 92.2 50 92.2 67.5 92.2 79.85 79.85 92.2 67.5 92.2 50 92.2 32.5 79.85 20.15
M 50 17.45
Q 63.55 17.45 73.05 27 82.6 36.5 82.6 50 82.6 63.55 73.05 73.05 63.55 82.6 50 82.6 36.5 82.6 27 73.05 21.2974609375 67.37734375 19 60.25 17.45 55.458984375 17.45 50 17.45 44.5611328125 19 39.75 21.2974609375 32.67265625 27 27 36.5 17.45 50 17.45 Z"/>

<path fill="#4E4E4E" stroke="none" d="
M 73.05 27
Q 63.55 17.45 50 17.45 36.5 17.45 27 27 21.2974609375 32.67265625 19 39.75 17.45 44.5611328125 17.45 50 17.45 55.458984375 19 60.25 21.2974609375 67.37734375 27 73.05 36.5 82.6 50 82.6 63.55 82.6 73.05 73.05 82.6 63.55 82.6 50 82.6 36.5 73.05 27
M 50 23.75
Q 51.3 23.75 52.2 24.65 53.1 25.55 53.1 26.85 53.1 28.15 52.2 29.05 51.3 29.95 50 29.95 48.7 29.95 47.8 29.05 46.9 28.15 46.9 26.85 46.9 25.55 47.8 24.65 48.7 23.75 50 23.75
M 43.55 37.7
L 49 37.7 49 57.45 59.1 57.45 59.1 62.5 43.55 62.5 43.55 37.7
M 73.2 46.9
Q 74.5 46.9 75.4 47.8 76.3 48.7 76.3 50 76.3 51.3 75.4 52.2 74.5 53.1 73.2 53.1 71.9 53.1 71 52.2 70.1 51.3 70.1 50 70.1 48.7 71 47.8 71.9 46.9 73.2 46.9
M 26.85 46.9
Q 28.15 46.9 29.05 47.8 29.95 48.7 29.95 50 29.95 51.3 29.05 52.2 28.15 53.1 26.85 53.1 25.55 53.1 24.65 52.2 23.75 51.3 23.75 50 23.75 48.7 24.65 47.8 25.55 46.9 26.85 46.9
M 52.2 71
Q 53.1 71.9 53.1 73.2 53.1 74.5 52.2 75.4 51.3 76.3 50 76.3 48.7 76.3 47.8 75.4 46.9 74.5 46.9 73.2 46.9 71.9 47.8 71 48.7 70.1 50 70.1 51.3 70.1 52.2 71 Z"/>

<path fill="#606060" stroke="none" d="
M 53.1 73.2
Q 53.1 71.9 52.2 71 51.3 70.1 50 70.1 48.7 70.1 47.8 71 46.9 71.9 46.9 73.2 46.9 74.5 47.8 75.4 48.7 76.3 50 76.3 51.3 76.3 52.2 75.4 53.1 74.5 53.1 73.2
M 29.05 47.8
Q 28.15 46.9 26.85 46.9 25.55 46.9 24.65 47.8 23.75 48.7 23.75 50 23.75 51.3 24.65 52.2 25.55 53.1 26.85 53.1 28.15 53.1 29.05 52.2 29.95 51.3 29.95 50 29.95 48.7 29.05 47.8
M 75.4 47.8
Q 74.5 46.9 73.2 46.9 71.9 46.9 71 47.8 70.1 48.7 70.1 50 70.1 51.3 71 52.2 71.9 53.1 73.2 53.1 74.5 53.1 75.4 52.2 76.3 51.3 76.3 50 76.3 48.7 75.4 47.8
M 52.2 24.65
Q 51.3 23.75 50 23.75 48.7 23.75 47.8 24.65 46.9 25.55 46.9 26.85 46.9 28.15 47.8 29.05 48.7 29.95 50 29.95 51.3 29.95 52.2 29.05 53.1 28.15 53.1 26.85 53.1 25.55 52.2 24.65 Z"/>

<path fill="#8C8C8C" stroke="none" d="
M 49 37.7
L 43.55 37.7 43.55 62.5 59.1 62.5 59.1 57.45 49 57.45 49 37.7 Z"/>

<path id="Layer1_0_1_STROKES" stroke="#151515" stroke-width="4" stroke-linejoin="round" stroke-linecap="round" fill="none" d="
M 50 7.8
Q 67.5 7.8 79.85 20.15 92.2 32.5 92.2 50 92.2 67.5 79.85 79.85 67.5 92.2 50 92.2 32.5 92.2 20.15 79.85 19.5611328125 79.2611328125 19 78.65 7.8 66.665625 7.8 50 7.8 33.334375 19 21.35 19.5611328125 20.7388671875 20.15 20.15 32.5 7.8 50 7.8 Z"/>

<path id="Layer1_0_2_STROKES" stroke="#606060" stroke-width="4" stroke-linejoin="round" stroke-linecap="round" fill="none" d="
M 50 17.45
Q 63.55 17.45 73.05 27 82.6 36.5 82.6 50 82.6 63.55 73.05 73.05 63.55 82.6 50 82.6 36.5 82.6 27 73.05 21.2974609375 67.37734375 19 60.25 17.45 55.458984375 17.45 50 17.45 44.5611328125 19 39.775 21.2974609375 32.67265625 27 27 36.5 17.45 50 17.45 Z"/>
		</g>
	</g>
</g>
<path id="UpLeft" fill="#BFBFBF" stroke="#000000" stroke-width="3" d="M21.6,21.6l-0.1,33.8l33.9-33.9L21.6,21.6z"/>
</svg>
