
<svg xmlns="http://www.w3.org/2000/svg" version="1.1" xmlns:xlink="http://www.w3.org/1999/xlink" x="0px" y="0px" viewBox="0 0 100 100">
<defs>
<g id="Layer1_0_FILL">
<path fill="#313131" stroke="none" d="
M 75.25 24.7
Q 64.85 14.3 50 14.3 35.2 14.3 24.75 24.7 14.3 35.15 14.3 50 14.3 64.8 24.75 75.25 35.2 85.7 50 85.7 64.85 85.7 75.25 75.25 85.7 64.8 85.7 50 85.7 35.15 75.25 24.7
M 50 22.8
Q 61.3 22.8 69.25 30.75 77.2 38.7 77.2 50 77.2 61.3 69.25 69.25 61.3 77.2 50 77.2 38.75 77.2 30.75 69.25 22.8 61.3 22.8 50 22.8 38.7 30.75 30.75 38.75 22.8 50 22.8 Z"/>

<path fill="#4F4F4F" stroke="none" d="
M 69.25 30.75
Q 61.3 22.8 50 22.8 38.75 22.8 30.75 30.75 22.8 38.7 22.8 50 22.8 61.3 30.75 69.25 38.75 77.2 50 77.2 61.3 77.2 69.25 69.25 77.2 61.3 77.2 50 77.2 38.7 69.25 30.75
M 57.55 39.75
L 57.55 47 65 47 65 61.4 42.95 61.4 42.95 54.15 35.5 54.15 35.5 39.75 57.55 39.75
M 65 47
L 57.55 47 42.95 47 42.95 54.15 42.95 61.4 65 61.4 65 47
M 57.55 47
L 57.55 39.75 35.5 39.75 35.5 54.15 42.95 54.15 42.95 47 57.55 47 Z"/>
</g>

<path id="Layer1_0_1_STROKES" stroke="#1B1B1B" stroke-width="5" stroke-linejoin="round" stroke-linecap="round" fill="none" d="
M 50 14.3
Q 64.85 14.3 75.25 24.7 85.7 35.15 85.7 50 85.7 64.8 75.25 75.25 64.85 85.7 50 85.7 35.2 85.7 24.75 75.25 14.3 64.8 14.3 50 14.3 35.15 24.75 24.7 35.2 14.3 50 14.3 Z"/>

<path id="Layer1_0_2_STROKES" stroke="#999999" stroke-width="4" stroke-linejoin="round" stroke-linecap="round" fill="none" d="
M 57.55 47
L 65 47 65 61.4 42.95 61.4 42.95 54.15 35.5 54.15 35.5 39.75 57.55 39.75 57.55 47 42.95 47 42.95 54.15"/>

<path id="Layer1_0_3_STROKES" stroke="#626262" stroke-width="4" stroke-linejoin="round" stroke-linecap="round" fill="none" d="
M 50 22.8
Q 61.3 22.8 69.25 30.75 77.2 38.7 77.2 50 77.2 61.3 69.25 69.25 61.3 77.2 50 77.2 38.75 77.2 30.75 69.25 22.8 61.3 22.8 50 22.8 38.7 30.75 30.75 38.75 22.8 50 22.8 Z"/>

</defs>

<g transform="matrix( 1, 0, 0, 1, 0,0) ">
<use xlink:href="#Layer1_0_FILL"/>

<use xlink:href="#Layer1_0_1_STROKES"/>

<use xlink:href="#Layer1_0_2_STROKES"/>

<use xlink:href="#Layer1_0_3_STROKES"/>
</g>

<g transform="matrix( 1, 0, 0, 1, -3.4,-28) ">
<clipPath id="Mask_Mask_1">
<rect x="17.95" y="-2" width="70.9" height="20.8" fill="#FFFFFF" stroke="none"/>
</clipPath>

<text clip-path="url(#Mask_Mask_1)" writing-mode="lr"><tspan x="20.05" y="13.6" baseline-shift="0%" kerning="auto" font-family="Arial_Regular" font-size="15" fill="#999999" xml:space="preserve">Xbox One</tspan></text>
</g>
</svg>
