<?xml version="1.0" encoding="utf-8"?>
<!-- Generator: Adobe Illustrator 24.1.2, SVG Export Plug-In . SVG Version: 6.00 Build 0)  -->
<svg version="1.1" id="Layer_1" xmlns="http://www.w3.org/2000/svg" xmlns:xlink="http://www.w3.org/1999/xlink" x="0px" y="0px"
	 viewBox="0 0 148 148" enable-background="new 0 0 148 148" xml:space="preserve">
<g transform="matrix( 1, 0, 0, 1, 0,0) ">
	<g>
		<g transform="translate(24.5 24.5)">
<path fill="#272727" stroke="none" d="
M 92.2 50
Q 92.2 42.387890625 89.85 35.75 86.8279296875 27.1279296875 79.85 20.15 67.5 7.8 50 7.8 32.5 7.8 20.15 20.15 7.8 32.5 7.8 50 7.8 67.5 20.15 79.85 32.5 92.2 50 92.2 63.454296875 92.2 73.85 84.9 76.994921875 82.705078125 79.85 79.85 92.2 67.5 92.2 50
M 73.05 27
Q 77.0884765625 31.0173828125 79.4 35.75 82.6 42.208984375 82.6 50 82.6 63.55 73.05 73.05 63.55 82.6 50 82.6 37.34140625 82.6 28.2 74.2 27.5921875 73.6453125 27 73.05 17.45 63.55 17.45 50 17.45 36.5 27 27 36.5 17.45 50 17.45 63.55 17.45 73.05 27 Z"/>

<path fill="#4E4E4E" stroke="none" d="
M 79.4 35.75
Q 77.0884765625 31.0173828125 73.05 27 63.55 17.45 50 17.45 36.5 17.45 27 27 17.45 36.5 17.45 50 17.45 63.55 27 73.05 27.5921875 73.6453125 28.2 74.2 37.34140625 82.6 50 82.6 63.55 82.6 73.05 73.05 82.6 63.55 82.6 50 82.6 42.208984375 79.4 35.75
M 50 23.75
Q 51.3 23.75 52.2 24.65 53.1 25.55 53.1 26.85 53.1 28.15 52.2 29.05 51.3 29.95 50 29.95 48.7 29.95 47.8 29.05 46.9 28.15 46.9 26.85 46.9 25.55 47.8 24.65 48.7 23.75 50 23.75
M 57.5 39.3
Q 58.8 40.15 59.55 41.6 60.3 43.05 60.3 45.25 60.3 47.85 58.95 49.7 57.55 51.55 54.95 52
L 61.25 62.5 54.7 62.5 49.5 52.6 46.85 52.6 46.85 62.5 41.4 62.5 41.4 37.7 50.95 37.7
Q 52.85 37.7 54.55 38.1 56.25 38.45 57.5 39.3
M 71 47.8
Q 71.9 46.9 73.2 46.9 74.5 46.9 75.4 47.8 76.3 48.7 76.3 50 76.3 51.3 75.4 52.2 74.5 53.1 73.2 53.1 71.9 53.1 71 52.2 70.1 51.3 70.1 50 70.1 48.7 71 47.8
M 28.2 47.2
Q 28.662109375 47.412109375 29.05 47.8 29.95 48.7 29.95 50 29.95 51.3 29.05 52.2 28.662109375 52.587890625 28.2 52.8 27.58984375 53.1 26.85 53.1 25.55 53.1 24.65 52.2 23.75 51.3 23.75 50 23.75 48.7 24.65 47.8 25.55 46.9 26.85 46.9 27.58984375 46.9 28.2 47.2
M 46.9 73.2
Q 46.9 71.9 47.8 71 48.7 70.1 50 70.1 51.3 70.1 52.2 71 53.1 71.9 53.1 73.2 53.1 74.5 52.2 75.4 51.3 76.3 50 76.3 48.7 76.3 47.8 75.4 46.9 74.5 46.9 73.2
M 46.85 47.95
L 50.05 47.95
Q 50.8 47.95 51.6 47.9 52.4 47.85 53.1 47.6 53.75 47.35 54.2 46.8 54.6 46.25 54.6 45.2 54.6 44.25 54.25 43.7 53.85 43.15 53.25 42.85 52.65 42.55 51.9 42.45 51.15 42.35 50.4 42.35
L 46.85 42.35 46.85 47.95 Z"/>

<path fill="#606060" stroke="none" d="
M 47.8 71
Q 46.9 71.9 46.9 73.2 46.9 74.5 47.8 75.4 48.7 76.3 50 76.3 51.3 76.3 52.2 75.4 53.1 74.5 53.1 73.2 53.1 71.9 52.2 71 51.3 70.1 50 70.1 48.7 70.1 47.8 71
M 29.05 47.8
Q 28.662109375 47.412109375 28.2 47.2 27.58984375 46.9 26.85 46.9 25.55 46.9 24.65 47.8 23.75 48.7 23.75 50 23.75 51.3 24.65 52.2 25.55 53.1 26.85 53.1 27.58984375 53.1 28.2 52.8 28.662109375 52.587890625 29.05 52.2 29.95 51.3 29.95 50 29.95 48.7 29.05 47.8
M 73.2 46.9
Q 71.9 46.9 71 47.8 70.1 48.7 70.1 50 70.1 51.3 71 52.2 71.9 53.1 73.2 53.1 74.5 53.1 75.4 52.2 76.3 51.3 76.3 50 76.3 48.7 75.4 47.8 74.5 46.9 73.2 46.9
M 52.2 24.65
Q 51.3 23.75 50 23.75 48.7 23.75 47.8 24.65 46.9 25.55 46.9 26.85 46.9 28.15 47.8 29.05 48.7 29.95 50 29.95 51.3 29.95 52.2 29.05 53.1 28.15 53.1 26.85 53.1 25.55 52.2 24.65 Z"/>

<path fill="#8C8C8C" stroke="none" d="
M 59.55 41.6
Q 58.8 40.15 57.5 39.3 56.25 38.45 54.55 38.1 52.85 37.7 50.95 37.7
L 41.4 37.7 41.4 62.5 46.85 62.5 46.85 52.6 49.5 52.6 54.7 62.5 61.25 62.5 54.95 52
Q 57.55 51.55 58.95 49.7 60.3 47.85 60.3 45.25 60.3 43.05 59.55 41.6
M 50.05 47.95
L 46.85 47.95 46.85 42.35 50.4 42.35
Q 51.15 42.35 51.9 42.45 52.65 42.55 53.25 42.85 53.85 43.15 54.25 43.7 54.6 44.25 54.6 45.2 54.6 46.25 54.2 46.8 53.75 47.35 53.1 47.6 52.4 47.85 51.6 47.9 50.8 47.95 50.05 47.95 Z"/>

<path id="Layer1_0_1_STROKES" stroke="#606060" stroke-width="4" stroke-linejoin="round" stroke-linecap="round" fill="none" d="
M 73.05 27
Q 77.0884765625 31.0173828125 79.425 35.75 82.6 42.208984375 82.6 50 82.6 63.55 73.05 73.05 63.55 82.6 50 82.6 37.34140625 82.6 28.2 74.2 27.5921875 73.6453125 27 73.05 17.45 63.55 17.45 50 17.45 36.5 27 27 36.5 17.45 50 17.45 63.55 17.45 73.05 27 Z"/>

<path id="Layer1_0_2_STROKES" stroke="#151515" stroke-width="4" stroke-linejoin="round" stroke-linecap="round" fill="none" d="
M 89.875 35.75
Q 92.2 42.387890625 92.2 50 92.2 67.5 79.85 79.85 76.994921875 82.705078125 73.875 84.9 63.454296875 92.2 50 92.2 32.5 92.2 20.15 79.85 7.8 67.5 7.8 50 7.8 32.5 20.15 20.15 32.5 7.8 50 7.8 67.5 7.8 79.85 20.15 86.8279296875 27.1279296875 89.875 35.75 Z"/>
		</g>
	</g>
</g>
<path id="UpRight" fill="#BFBFBF" stroke="#000000" stroke-width="3" d="M126.4,21.6l-33.8-0.1l33.9,33.9L126.4,21.6z"/>
</svg>
