
<svg xmlns="http://www.w3.org/2000/svg" version="1.1" xmlns:xlink="http://www.w3.org/1999/xlink" x="0px" y="0px" viewBox="0 0 100 100">
<defs>
<g id="Layer1_0_FILL">
<path fill="#1B2D09" stroke="none" d="
M 78.55 21.4
L 78.6 21.4
Q 70.735546875 13.535546875 60.65 10.9 58.375390625 10.327734375 56 10 53.0779296875 9.6 50 9.6 46.9166015625 9.6 44 10 31.059375 11.772265625 21.35 21.4 14.5841796875 28.19453125 11.7 36.6 9.55 42.8541015625 9.55 50 9.55 66.75 21.35 78.6
L 21.35 78.65
Q 33.25 90.45 50 90.45 66.75 90.45 78.55 78.65
L 78.6 78.6
Q 90.45 66.75 90.45 50 90.45 33.2 78.55 21.4
M 50 13.6
Q 55.634765625 13.6 60.65 15.05 69.07421875 17.57421875 75.75 24.25 86.45 34.9 86.45 50 86.45 65.1 75.75 75.8 65.1 86.45 50 86.45 34.9 86.45 24.2 75.8
L 24.15 75.8
Q 13.55 65.1 13.55 50 13.55 42.793359375 15.95 36.6 18.608984375 29.8171875 24.15 24.25
L 24.2 24.2
Q 34.9 13.6 50 13.6 Z"/>

<path fill="#58931E" stroke="none" d="
M 60.65 15.05
Q 55.634765625 13.6 50 13.6 34.9 13.6 24.2 24.2
L 24.15 24.25
Q 18.608984375 29.8171875 15.95 36.6 13.55 42.793359375 13.55 50 13.55 65.1 24.15 75.8
L 24.2 75.8
Q 34.9 86.45 50 86.45 65.1 86.45 75.75 75.8 86.45 65.1 86.45 50 86.45 34.9 75.75 24.25 69.07421875 17.57421875 60.65 15.05
M 50 19
Q 55.690625 19 60.65 20.8 66.845703125 23.0234375 71.9 28.05
L 71.95 28.05
Q 81 37.1 81 50 81 62.85 71.95 71.95 62.85 81 50 81 37.1 81 28.05 71.95
L 28.05 71.9
Q 19 62.8 19 50 19 42.69375 21.9 36.6 24.1455078125 31.9759765625 28.05 28.05 37.15 19 50 19 Z"/>

<path fill="#AAE272" stroke="none" d="
M 60.65 20.8
Q 55.690625 19 50 19 37.15 19 28.05 28.05 24.1455078125 31.9759765625 21.9 36.6 19 42.69375 19 50 19 62.8 28.05 71.9
L 28.05 71.95
Q 37.1 81 50 81 62.85 81 71.95 71.95 81 62.85 81 50 81 37.1 71.95 28.05
L 71.9 28.05
Q 66.845703125 23.0234375 60.65 20.8
M 60.65 25.1
Q 65.2640625 27.0640625 69.1 30.9 77 38.8 77 50 77 61.15 69.1 69.1 61.15 77 50 77 38.8 77 30.9 69.1 23 61.2 23 50 23 42.575 26.45 36.6 28.2041015625 33.5626953125 30.85 30.9
L 30.9 30.85
Q 38.8 23 50 23 55.7619140625 23 60.65 25.1 Z"/>

<path fill="#87D638" stroke="none" d="
M 69.1 30.9
Q 65.2640625 27.0640625 60.65 25.1 55.7619140625 23 50 23 38.8 23 30.9 30.85
L 30.85 30.9
Q 28.2041015625 33.5626953125 26.45 36.6 23 42.575 23 50 23 61.2 30.9 69.1 38.8 77 50 77 61.15 77 69.1 69.1 77 61.15 77 50 77 38.8 69.1 30.9
M 47.05 31.6
L 52.85 31.6 66.7 63.45 58.75 63.45 56 56.7 43.65 56.7 41 63.45 33.25 63.45 47.05 31.6
M 45.85 50.75
L 53.65 50.75 49.75 40.85 45.85 50.75 Z"/>

<path fill="#CEEEAE" stroke="none" d="
M 52.85 31.6
L 47.05 31.6 33.25 63.45 41 63.45 43.65 56.7 56 56.7 58.75 63.45 66.7 63.45 52.85 31.6
M 53.65 50.75
L 45.85 50.75 49.75 40.85 53.65 50.75 Z"/>
</g>

</defs>

<g transform="matrix( 1, 0, 0, 1, 0,0) ">
<use xlink:href="#Layer1_0_FILL"/>
</g>

<g transform="matrix( 1, 0, 0, 1, -3.4,-28) ">
<clipPath id="Mask_Mask_1">
<rect x="19.6" y="-2" width="67.6" height="20.8" fill="#FFFFFF" stroke="none"/>
</clipPath>

<text clip-path="url(#Mask_Mask_1)" writing-mode="lr"><tspan x="21.7" y="13.6" baseline-shift="0%" kerning="auto" font-family="Arial_Regular" font-size="15" fill="#999999" xml:space="preserve">Xbox 360</tspan></text>
</g>
</svg>
