<?xml version="1.0" encoding="utf-8"?>
<!-- Generator: Adobe Illustrator 24.1.2, SVG Export Plug-In . SVG Version: 6.00 Build 0)  -->
<svg version="1.1" id="Layer_1" xmlns="http://www.w3.org/2000/svg" xmlns:xlink="http://www.w3.org/1999/xlink" x="0px" y="0px"
	 viewBox="0 0 100 100" style="enable-background:new 0 0 100 100;" xml:space="preserve">
<g transform="matrix( 1, 0, 0, 1, 0,0) ">
	<g>
		<g id="Layer1_0_FILL">
			<path style="fill:#1B1B1B;" d="M8.3,67.7c2.2,5.2,5.4,10,9.7,14.3s9.1,7.6,14.4,9.8V67.7H8.3 M28.9,86.1c-3-1.8-5.8-4-8.4-6.6
				s-4.8-5.4-6.6-8.3h14.9v14.9 M18,18c-4.4,4.4-7.6,9.2-9.8,14.5h24.2V8.3C27.2,10.4,22.4,13.7,18,18 M20.5,20.5
				c2.6-2.6,5.4-4.8,8.4-6.6V29h-15C15.7,26,17.9,23.2,20.5,20.5 M81.9,82c4.3-4.3,7.6-9.1,9.8-14.3H67.6v24.1
				C72.8,89.6,77.6,86.3,81.9,82 M71.1,86.1V71.2h15c-1.8,3-4,5.8-6.6,8.3C76.9,82.1,74.1,84.3,71.1,86.1 M91.8,32.5
				c-2.2-5.3-5.5-10.1-9.9-14.5c-4.3-4.3-9.1-7.6-14.4-9.8v24.3H91.8 M71.1,29V13.9c3,1.8,5.8,3.9,8.4,6.6s4.8,5.5,6.7,8.5H71.1z"/>
			<path style="fill:#282828;" d="M20.5,79.5c2.6,2.6,5.4,4.8,8.4,6.6V71.2h-15C15.7,74.1,17.9,76.9,20.5,79.5 M28.9,13.9
				c-3,1.8-5.8,3.9-8.4,6.6c-2.7,2.7-4.9,5.5-6.6,8.5h15V13.9 M71.1,71.2v14.9c3-1.8,5.8-4,8.4-6.6s4.8-5.4,6.6-8.3H71.1 M71.1,13.9
				V29h15.1c-1.8-3-4-5.8-6.7-8.5C76.9,17.9,74.1,15.7,71.1,13.9z"/>
			<g>
				
					<linearGradient id="Layer1_0_2_STROKES_2_" gradientUnits="userSpaceOnUse" x1="-1214" y1="21.3101" x2="-1214" y2="18.8081" gradientTransform="matrix(-1 0 0 -1 -1164 100.05)">
					<stop  offset="0" style="stop-color:#626262"/>
					<stop  offset="1" style="stop-color:#FFFFFF"/>
				</linearGradient>
				
					<path id="Layer1_0_2_STROKES_1_" style="fill:none;stroke:url(#Layer1_0_2_STROKES_2_);stroke-width:4;stroke-linecap:round;stroke-linejoin:round;" d="
					M67.4,60.2c-2,0-3.7,0.8-5.1,2.2c-1.5,1.5-2.2,3.2-2.2,5.3v18.8c-3.2,0.8-6.6,1.3-10.1,1.3c-3.5,0-6.9-0.4-10-1.3V67.7
					c0-2.1-0.7-3.8-2.2-5.3c-1.4-1.4-3.2-2.2-5.2-2.2"/>
			</g>
			<g>
				
					<linearGradient id="Layer1_0_2_STROKES_3_" gradientUnits="userSpaceOnUse" x1="49.95" y1="695.1436" x2="49.95" y2="690.9033" gradientTransform="matrix(1 0 0 1 0 -666)">
					<stop  offset="0" style="stop-color:#626262"/>
					<stop  offset="1" style="stop-color:#FFFFFF"/>
				</linearGradient>
				
					<path id="Layer1_0_2_STROKES" style="fill:none;stroke:url(#Layer1_0_2_STROKES_3_);stroke-width:4;stroke-linecap:round;stroke-linejoin:round;" d="
					M32.6,60.2c-0.1,0-0.1,0-0.2,0H13.6c-0.8-3.2-1.2-6.6-1.3-10.2c0-3.5,0.4-6.8,1.3-10h18.8c2.1,0,3.8-0.7,5.3-2.2
					s2.2-3.2,2.2-5.3V13.6c3.2-0.8,6.6-1.3,10.1-1.3s6.9,0.4,10,1.3v18.9c0,2.1,0.7,3.8,2.2,5.3s3.2,2.2,5.3,2.2h18.9
					c0.8,3.2,1.2,6.5,1.2,10c0,3.6-0.4,7-1.3,10.2H67.6c-1.9,0-3.5,0.6-4.9,1.8"/>
			</g>
			
				<linearGradient id="SVGID_1_" gradientUnits="userSpaceOnUse" x1="50" y1="700.9375" x2="50" y2="692.3625" gradientTransform="matrix(1 0 0 1 0 -666)">
				<stop  offset="0" style="stop-color:#313131"/>
				<stop  offset="1" style="stop-color:#D7D7D7"/>
			</linearGradient>
			<path style="fill:url(#SVGID_1_);" d="M91.8,67.7c2.3-5.4,3.4-11.3,3.4-17.7c0-6.3-1.1-12.1-3.3-17.5H67.6V8.3
				C62.2,6,56.3,4.9,50,4.9S37.8,6,32.4,8.3v24.3H8.2C6,37.9,4.8,43.7,4.8,50c0,6.4,1.2,12.3,3.5,17.7h24.1v24.1
				c5.4,2.3,11.3,3.4,17.6,3.4s12.2-1.1,17.6-3.4V67.7H91.8 M87.7,50c0,3.6-0.4,7-1.3,10.2H67.6c-2.1,0-3.8,0.7-5.3,2.2
				s-2.2,3.2-2.2,5.3v18.8c-3.2,0.8-6.5,1.3-10,1.3s-6.9-0.4-10.1-1.3V67.7c0-2.1-0.7-3.8-2.2-5.3s-3.2-2.2-5.3-2.2H13.6
				c-0.8-3.2-1.2-6.6-1.3-10.2c0-3.5,0.4-6.8,1.3-10h18.8c2.1,0,3.8-0.7,5.3-2.2s2.2-3.2,2.2-5.3V13.6c3.2-0.8,6.6-1.3,10.1-1.3
				s6.9,0.4,10,1.3v18.9c0,2.1,0.7,3.8,2.2,5.3s3.2,2.2,5.3,2.2h18.9C87.3,43.2,87.7,46.5,87.7,50z"/>
			
				<linearGradient id="SVGID_2_" gradientUnits="userSpaceOnUse" x1="50" y1="36.4347" x2="50" y2="27.989" gradientTransform="matrix(1 0 0 -1 0 102)">
				<stop  offset="0" style="stop-color:#313131"/>
				<stop  offset="1" style="stop-color:#D7D7D7"/>
			</linearGradient>
			<path style="fill:url(#SVGID_2_);" d="M4.9,50.1c0,6.3,1.2,12.1,3.4,17.5h24.1v24.1c5.4,2.3,11.3,3.4,17.6,3.4s12.2-1.1,17.5-3.4
				v-24h24.2c2.3-5.4,3.4-11.3,3.4-17.7c0-0.6,0-1.2-0.1-1.8c-2.5-0.2-5-0.1-7.5,0c0,0.6,0.1,1.2,0.1,1.8c0,3.6-0.4,7-1.3,10.2H67.5
				c-2.1,0-3.8,0.7-5.3,2.2S60,65.6,60,67.7v18.8c-3.2,0.8-6.5,1.3-10,1.3s-6.9-0.4-10.1-1.3V67.7c0-2.1-0.7-3.8-2.2-5.3
				s-3.2-2.2-5.3-2.2H13.6c-0.8-3.2-1.2-6.5-1.2-10"/>
			
				<linearGradient id="SVGID_3_" gradientUnits="userSpaceOnUse" x1="-1213.95" y1="41.7" x2="-1213.95" y2="33.1" gradientTransform="matrix(-1 0 0 -1 -1164 100.05)">
				<stop  offset="0" style="stop-color:#4F4F4F"/>
				<stop  offset="1" style="stop-color:#F5F5F5"/>
			</linearGradient>
			<path style="fill:url(#SVGID_3_);" d="M13.6,39.9c-0.8,3.2-1.3,6.6-1.3,10.2c0,3.5,0.4,6.8,1.2,10h18.9c2.1,0,3.8,0.7,5.3,2.2
				s2.2,3.2,2.2,5.3v18.8c3.2,0.8,6.5,1.3,10,1.3s6.9-0.4,10.1-1.3V67.6c0-2.1,0.7-3.8,2.2-5.3s3.2-2.2,5.3-2.2h18.8
				c0.8-3.2,1.3-6.5,1.3-10c0-3.6-0.4-7-1.3-10.2H67.6c-2.1,0-3.8-0.7-5.3-2.2s-2.2-3.2-2.2-5.3V13.6c-3.2-0.8-6.6-1.3-10.1-1.3
				s-6.9,0.4-10,1.3v18.8c0,2.1-0.7,3.8-2.2,5.3s-3.2,2.2-5.3,2.2H13.6z"/>
			
				<linearGradient id="SVGID_4_" gradientUnits="userSpaceOnUse" x1="49.95" y1="707.7" x2="49.95" y2="699.1" gradientTransform="matrix(1 0 0 1 0 -666)">
				<stop  offset="0" style="stop-color:#4F4F4F"/>
				<stop  offset="1" style="stop-color:#F5F5F5"/>
			</linearGradient>
			<path style="fill:url(#SVGID_4_);" d="M15.6,51.3c11.8,0,23.6,0.8,35.4,0.9c5.7,0.1,11.3-0.3,17-0.2c5.5,0.2,10.8,0.3,16.1-1.6
				c1.4-0.5,2.6-0.4,3.5,0.1c0-0.2,0-0.4,0-0.6c0-3.5-0.4-6.8-1.2-10H67.5c-2.1,0-3.8-0.7-5.3-2.2S60,34.6,60,32.5V13.7
				c-3.2-0.8-6.5-1.3-10-1.3s-6.9,0.4-10.1,1.3v18.8c0,2.1-0.7,3.8-2.2,5.3S34.5,40,32.4,40H13.6c-0.8,3.2-1.3,6.5-1.3,10
				c0,0.8,0,1.6,0.1,2.4C13.2,51.7,14.3,51.3,15.6,51.3z"/>
		</g>
	</g>
	<g>
		<path id="Layer1_0_1_STROKES" style="fill:none;stroke:#1B1B1B;stroke-width:5;stroke-linecap:round;stroke-linejoin:round;" d="
			M67.6,8.3c5.3,2.2,10.1,5.5,14.4,9.8c4.4,4.4,7.7,9.2,9.9,14.5c2.2,5.4,3.3,11.2,3.3,17.5c0,6.4-1.1,12.3-3.4,17.7
			c-2.2,5.2-5.5,10-9.8,14.3s-9.1,7.6-14.4,9.7 M32.7,91.9c-0.1,0-0.2-0.1-0.3-0.1c-5.2-2.2-10-5.4-14.4-9.8s-7.6-9.1-9.7-14.3
			C6,62.3,4.8,56.4,4.8,50c0-6.3,1.1-12.1,3.3-17.5c2.2-5.3,5.5-10.1,9.8-14.5c4.3-4.3,9.1-7.6,14.4-9.8 M67.6,32.5h24.3 M8.2,32.5
			h24.2 M8.3,67.7c0,0,21.3,0,23.8,0 M91.8,67.7H67.6"/>
	</g>
	<g>
		
			<linearGradient id="Layer1_0_3_STROKES_2_" gradientUnits="userSpaceOnUse" x1="50" y1="695.95" x2="50" y2="678.35" gradientTransform="matrix(1 0 0 1 0 -666)">
			<stop  offset="0" style="stop-color:#1B1B1B"/>
			<stop  offset="1" style="stop-color:#404040"/>
		</linearGradient>
		
			<path id="Layer1_0_3_STROKES" style="fill:none;stroke:url(#Layer1_0_3_STROKES_2_);stroke-width:5;stroke-linecap:round;stroke-linejoin:round;" d="
			M32.4,8.3C37.8,6,43.7,4.9,50,4.9S62.2,6,67.6,8.3v24.3 M32.4,8.3v24.3"/>
	</g>
</g>
<g>
	
		<linearGradient id="Layer1_0_3_STROKES_3_" gradientUnits="userSpaceOnUse" x1="-1214.05" y1="-32.8" x2="-1214.05" y2="-50.4" gradientTransform="matrix(-1 0 0 -1 -1164.05 37.4)">
		<stop  offset="0" style="stop-color:#1B1B1B"/>
		<stop  offset="1" style="stop-color:#404040"/>
	</linearGradient>
	
		<path id="Layer1_0_3_STROKES_1_" style="fill:none;stroke:url(#Layer1_0_3_STROKES_3_);stroke-width:5;stroke-linecap:round;stroke-linejoin:round;" d="
		M67.6,91.9c-5.4,2.2-11.3,3.3-17.6,3.3s-12.2-1.1-17.6-3.3V67.7 M67.6,91.9V67.7"/>
</g>
</svg>
