
<svg xmlns="http://www.w3.org/2000/svg" version="1.1" xmlns:xlink="http://www.w3.org/1999/xlink" x="0px" y="0px" viewBox="0 0 100 100">
<defs>
<g id="Layer1_0_FILL">
<path fill="#6E6E6E" stroke="none" d="
M 37.4 90.4
L 37.4 90.45
Q 50.6 94.3 62.7 90.45
L 62.7 90.4 62.7 90.3
Q 62.68203125 90.340234375 62.65 90.35
L 62.65 90.4
Q 50.5728515625 94.2427734375 37.4 90.4
M 84.3 44.7
L 84.3 44.65 66.1 41
Q 64.7177734375 40.728515625 63.55 40.1 62.365234375 39.4830078125 61.4 38.5 61.375 38.475 61.35 38.45 61.175 38.275 61 38.1 60.9765625 38.0736328125 60.95 38.05 60.1416015625 37.1349609375 59.6 36.05 59.078125 34.9671875 58.85 33.7
L 55.25 15.75 55.25 15.7
Q 50.15 14.95 44.8 15.75
L 41.2 33.7
Q 40.8 36 39.4 37.7 39.05 38.1 38.7 38.45 36.7 40.45 34 41
L 15.8 44.65
Q 15.05 49.75 15.85 55.05
L 15.9 55.05 33.95 58.65
Q 35.3423828125 58.928515625 36.55 59.6 37.71015625 60.2171875 38.7 61.2 38.725 61.225 38.75 61.25 39.7328125 62.215234375 40.35 63.4 40.953125 64.5677734375 41.2 65.95
L 44.8 84.15 44.85 84.15
Q 50.1697265625 84.9470703125 55.25 84.2
L 58.9 65.9
Q 59.4 63.15 61.45 61.2 63.4 59.2 66.15 58.65
L 84.25 55.05
Q 85.046875 49.7712890625 84.3 44.7
M 83.05 44.85
L 83.05 44.9
Q 83.746875 49.82109375 83 54.9
L 65.55 58.35
Q 62.9 58.9 61 60.8 59.05 62.7 58.55 65.35
L 55.05 83
Q 50.119921875 83.697265625 45 82.95
L 44.95 82.95 41.5 65.4
Q 41.2533203125 64.0677734375 40.65 62.9 40.0830078125 61.790234375 39.15 60.85 39.124609375 60.825390625 39.1 60.8 38.13515625 59.8669921875 37 59.25 35.8423828125 58.628515625 34.5 58.35
L 17.1 54.9 17.05 54.9
Q 16.3 49.8 17 44.85
L 34.55 41.35
Q 37.15 40.8 39.1 38.9 39.5 38.5 39.85 38.05 41.1 36.4 41.5 34.3
L 44.95 17
Q 50.1 16.25 55.05 16.95
L 55.05 17 58.5 34.3
Q 58.9 36.4 60.15 38.05 60.16953125 38.0751953125 60.2 38.1 60.528125 38.521875 60.9 38.9 60.925 38.925 60.95 38.95 61.890234375 39.883203125 63 40.5 64.1677734375 41.0787109375 65.5 41.35
L 83.05 44.85
M 90.45 37.25
L 90.45 37.25 90.4 37.2 90.35 37.2 67.3 32.6 67.25 32.6 60.95 38.05
Q 60.9765625 38.0736328125 61 38.1 61.175 38.275 61.35 38.45 61.375 38.475 61.4 38.5 62.365234375 39.4830078125 63.55 40.1 64.7177734375 40.728515625 66.1 41
L 84.3 44.65 84.3 44.7
Q 85.046875 49.7712890625 84.25 55.05
L 66.15 58.65
Q 63.4 59.2 61.45 61.2 59.4 63.15 58.9 65.9
L 55.25 84.2
Q 50.1697265625 84.9470703125 44.85 84.15
L 44.8 84.15 41.2 65.95
Q 40.953125 64.5677734375 40.35 63.4 39.7328125 62.215234375 38.75 61.25 38.725 61.225 38.7 61.2 37.71015625 60.2171875 36.55 59.6 35.3423828125 58.928515625 33.95 58.65
L 15.9 55.05 15.85 55.05
Q 15.05 49.75 15.8 44.65
L 34 41
Q 36.7 40.45 38.7 38.45 39.05 38.1 39.4 37.7
L 32.8 32.65 32.75 32.6 9.7 37.2 9.65 37.25 9.6 37.25
Q 6.75 46.2 8.15 55.75
L 8.95 60.05
Q 9.23984375 61.3171875 9.6 62.55
L 9.65 62.55 32.75 67.1 32.75 67.15 37.35 90.35 37.35 90.35 37.35 90.4
Q 37.375 90.4072265625 37.4 90.4 50.5728515625 94.2427734375 62.65 90.4
L 62.65 90.35 67.3 67.1 90.45 62.55
Q 94.2953125 49.31640625 90.45 37.25
M 90.5 37.3
L 90.45 37.25
Q 94.2953125 49.31640625 90.45 62.55 90.440234375 62.58203125 90.4 62.6
L 90.5 62.6
Q 92.76875 54.7916015625 92.35 47.4 92.08125 42.248828125 90.5 37.3 Z"/>

<path fill="#353535" stroke="none" d="
M 34.95 89.55
Q 36.15 90.0119140625 37.35 90.35
L 37.35 90.35
Q 36.15390625 89.988671875 34.95 89.55
M 32.75 67.15
L 32.75 67.1 9.65 62.55 9.6 62.55
Q 9.969140625 63.78359375 10.4 64.95 13.4783203125 73.1685546875 20.15 79.85 20.175 79.875 20.2 79.9 26.831640625 86.5220703125 34.95 89.55 36.15390625 89.988671875 37.35 90.35
L 32.75 67.15
M 28.95 70.95
L 28.95 71 31.3 82.85
Q 30.786328125 82.55390625 30.25 82.25 26.7392578125 80.036328125 23.6 76.9 23.496875 76.7982421875 23.4 76.7 23.3748046875 76.6751953125 23.35 76.65 20.0513671875 73.389453125 17.75 69.7 17.4212890625 69.163671875 17.1 68.6
L 28.95 70.95
M 37.3 9.65
L 37.35 9.6
Q 27.75 12.55 20.15 20.15 12.55 27.75 9.65 37.25
L 9.7 37.2 32.75 32.6 37.3 9.65
M 23.35 23.3
Q 27 19.65 31.25 17.15
L 28.9 28.8 17.25 31.15
Q 19.65 27 23.35 23.3
M 90.4 62.6
Q 90.440234375 62.58203125 90.45 62.55
L 67.3 67.1 62.65 90.35
Q 62.68203125 90.340234375 62.7 90.3 72.275390625 87.424609375 79.85 79.85 87.474609375 72.225390625 90.4 62.6
M 82.95 68.6
Q 82.9302734375 68.633984375 82.9 68.65 80.4203125 72.9296875 76.7 76.65 72.98046875 80.36953125 68.8 82.75 68.7841796875 82.78046875 68.75 82.8
L 71.15 70.95 82.95 68.6
M 90.5 62.6
L 90.4 62.6
Q 87.474609375 72.225390625 79.85 79.85 72.275390625 87.424609375 62.7 90.3
L 62.7 90.4
Q 72.3 87.5 79.9 79.9 87.55 72.25 90.5 62.6
M 90.35 37.2
Q 89.982421875 36.01640625 89.55 34.85 86.4767578125 26.786328125 79.9 20.2 79.875 20.175 79.85 20.15 73.21875 13.5283203125 65.1 10.45 63.9208984375 9.9771484375 62.7 9.6
L 67.25 32.6 67.3 32.6 90.35 37.2
M 82.1 30.05
Q 82.4458984375 30.584765625 82.75 31.1
L 71.15 28.75 71.1 28.75 68.8 17.15
Q 69.3509765625 17.4779296875 69.9 17.8 73.483203125 20.1318359375 76.7 23.3 76.7248046875 23.3251953125 76.75 23.35 79.87421875 26.523046875 82.1 30.05
M 90.35 37.2
L 90.4 37.2
Q 90.024609375 36.0224609375 89.55 34.85 89.982421875 36.01640625 90.35 37.2 Z"/>

<path fill="#4D4D4D" stroke="none" d="
M 28.95 71
L 28.95 70.95 17.1 68.6
Q 17.4212890625 69.163671875 17.75 69.7 20.0513671875 73.389453125 23.35 76.65 23.3748046875 76.6751953125 23.4 76.7 23.496875 76.7982421875 23.6 76.9 26.7392578125 80.036328125 30.25 82.25 30.786328125 82.55390625 31.3 82.85
L 28.95 71
M 31.25 17.15
Q 27 19.65 23.35 23.3 19.65 27 17.25 31.15
L 28.9 28.8 31.25 17.15
M 82.9 68.65
Q 82.9302734375 68.633984375 82.95 68.6
L 71.15 70.95 68.75 82.8
Q 68.7841796875 82.78046875 68.8 82.75 72.98046875 80.36953125 76.7 76.65 80.4203125 72.9296875 82.9 68.65
M 82.75 31.1
Q 82.4458984375 30.584765625 82.1 30.05 79.87421875 26.523046875 76.75 23.35 76.7248046875 23.3251953125 76.7 23.3 73.483203125 20.1318359375 69.9 17.8 69.3509765625 17.4779296875 68.8 17.15
L 71.1 28.75 71.15 28.75 82.75 31.1 Z"/>

<path fill="#D7D7D7" stroke="none" d="
M 62.7 9.6
L 62.65 9.55
Q 50.55 5.7 37.35 9.55
L 37.35 9.6 37.3 9.65 32.75 32.6 32.8 32.65 39.4 37.7
Q 40.8 36 41.2 33.7
L 44.8 15.75
Q 50.15 14.95 55.25 15.7
L 55.25 15.75 58.85 33.7
Q 59.078125 34.9671875 59.6 36.05 60.1416015625 37.1349609375 60.95 38.05
L 67.25 32.6 62.7 9.6 Z"/>

<path fill="#F5F5F5" stroke="none" d="
M 55.05 17
L 55.05 16.95
Q 50.1 16.25 44.95 17
L 41.5 34.3
Q 41.1 36.4 39.85 38.05 39.8787109375 38.06953125 39.9 38.1
L 39.9 38.1
Q 50.09921875 44.9998046875 60.05 38.1 60.1138671875 38.0751953125 60.15 38.05 58.9 36.4 58.5 34.3
L 55.05 17 Z"/>

<path fill="#888888" stroke="none" d="
M 83.05 44.9
L 83.05 44.85 65.5 41.35
Q 64.1677734375 41.0787109375 63 40.5 61.890234375 39.883203125 60.95 38.95 60.925 38.925 60.9 38.9 60.528125 38.521875 60.2 38.1 60.16953125 38.0751953125 60.15 38.05 60.1138671875 38.0751953125 60.05 38.1 50.09921875 44.9998046875 39.9 38.1
L 39.9 38.1
Q 39.8787109375 38.06953125 39.85 38.05 39.5 38.5 39.1 38.9 37.15 40.8 34.55 41.35
L 17 44.85
Q 16.3 49.8 17.05 54.9
L 17.1 54.9 34.5 58.35
Q 35.8423828125 58.628515625 37 59.25 38.13515625 59.8669921875 39.1 60.8 39.124609375 60.825390625 39.15 60.85 40.0830078125 61.790234375 40.65 62.9 41.2533203125 64.0677734375 41.5 65.4
L 44.95 82.95 45 82.95
Q 50.119921875 83.697265625 55.05 83
L 58.55 65.35
Q 59.05 62.7 61 60.8 62.9 58.9 65.55 58.35
L 83 54.9
Q 83.746875 49.82109375 83.05 44.9 Z"/>
</g>

<path id="Layer1_0_1_STROKES" stroke="#1F1F1F" stroke-width="4" stroke-linejoin="round" stroke-linecap="round" fill="none" d="
M 90.4 37.225
L 90.45 37.25 90.45 37.275 90.5 37.3
Q 92.08125 42.248828125 92.375 47.4 92.76875 54.7916015625 90.5 62.6 87.55 72.25 79.9 79.9 72.3 87.5 62.7 90.4
L 62.7 90.45
Q 50.6 94.3 37.4 90.45
L 37.4 90.425
Q 37.375 90.4072265625 37.35 90.4
L 37.35 90.375
Q 36.15 90.0119140625 34.975 89.575 26.831640625 86.5220703125 20.2 79.9 20.175 79.875 20.15 79.85 13.4783203125 73.1685546875 10.425 64.975 9.969140625 63.78359375 9.6 62.55 9.23984375 61.3171875 8.95 60.05
L 8.15 55.75
Q 6.75 46.2 9.6 37.25
L 9.65 37.25
Q 12.55 27.75 20.15 20.15 27.75 12.55 37.35 9.6
L 37.35 9.55
M 62.65 9.55
L 62.7 9.6
Q 63.9208984375 9.9771484375 65.1 10.45 73.21875 13.5283203125 79.85 20.15 79.875 20.175 79.9 20.2 86.4767578125 26.786328125 89.55 34.85 90.024609375 36.0224609375 90.4 37.225
L 90.35 37.2 67.3 32.6 67.25 32.6
M 32.75 32.6
L 9.725 37.225 9.65 37.25
M 90.35 37.2
Q 89.982421875 36.01640625 89.55 34.85
M 90.45 62.55
Q 90.440234375 62.58203125 90.425 62.625
L 90.5 62.6
M 90.45 37.275
Q 94.2953125 49.31640625 90.45 62.55
L 67.3 67.1 62.65 90.35
Q 62.68203125 90.340234375 62.725 90.325 72.275390625 87.424609375 79.85 79.85 87.474609375 72.225390625 90.425 62.625
M 9.6 62.55
L 9.65 62.55 32.75 67.1 32.75 67.15 37.35 90.35 37.35 90.375
M 37.35 90.35
Q 36.15390625 89.988671875 34.975 89.575
M 62.65 90.35
L 62.65 90.4
Q 50.5728515625 94.2427734375 37.4 90.425
M 62.725 90.325
L 62.7 90.4"/>

<path id="Layer1_0_2_STROKES" stroke="#A0A0A0" stroke-width="4" stroke-linejoin="round" stroke-linecap="round" fill="none" d="
M 60.95 38.05
Q 60.9765625 38.0736328125 61 38.1 61.175 38.275 61.35 38.45 61.375 38.475 61.4 38.5 62.365234375 39.4830078125 63.55 40.125 64.7177734375 40.728515625 66.1 41
L 84.3 44.65 84.3 44.7
Q 85.046875 49.7712890625 84.25 55.05
L 66.15 58.65
Q 63.4 59.2 61.45 61.2 59.4 63.15 58.9 65.9
L 55.25 84.2
Q 50.1697265625 84.9470703125 44.85 84.15
L 44.8 84.15 41.2 65.95
Q 40.953125 64.5677734375 40.35 63.4 39.7328125 62.215234375 38.75 61.25 38.725 61.225 38.7 61.2 37.71015625 60.2171875 36.55 59.6 35.3423828125 58.928515625 33.95 58.65
L 15.9 55.05 15.85 55.05
Q 15.05 49.75 15.8 44.65
L 34 41
Q 36.7 40.45 38.7 38.45 39.05 38.1 39.4 37.7"/>

<path id="Layer1_0_3_STROKES" stroke="#FFFFFF" stroke-width="4" stroke-linejoin="round" stroke-linecap="round" fill="none" d="
M 58.85 33.7
L 55.25 15.75 55.25 15.7
Q 50.15 14.95 44.8 15.75
L 41.2 33.7"/>

<path id="Layer1_0_4_STROKES" stroke="#404040" stroke-width="4" stroke-linejoin="round" stroke-linecap="round" fill="none" d="
M 37.35 9.55
Q 50.55 5.7 62.65 9.55
M 62.7 9.6
L 67.25 32.6
M 32.75 32.6
L 37.325 9.675 37.35 9.6"/>

<path id="Layer1_0_5_STROKES" stroke="#FFFFFF" stroke-width="4" stroke-linejoin="round" stroke-linecap="butt" fill="none" d="
M 41.2 33.7
Q 40.8 36 39.4 37.7
M 60.95 38.05
Q 60.1416015625 37.1349609375 59.625 36.05 59.078125 34.9671875 58.85 33.7"/>

</defs>

<g transform="matrix( 1, 0, 0, 1, 0,0) ">
<use xlink:href="#Layer1_0_FILL"/>

<use xlink:href="#Layer1_0_1_STROKES"/>

<use xlink:href="#Layer1_0_2_STROKES"/>

<use xlink:href="#Layer1_0_3_STROKES"/>

<use xlink:href="#Layer1_0_4_STROKES"/>

<use xlink:href="#Layer1_0_5_STROKES"/>
</g>

<g transform="matrix( 1, 0, 0, 1, -3.4,-28) ">
<clipPath id="Mask_Mask_1">
<rect x="19.6" y="-2" width="67.6" height="20.8" fill="#FFFFFF" stroke="none"/>
</clipPath>

<text clip-path="url(#Mask_Mask_1)" writing-mode="lr"><tspan x="21.7" y="13.6" baseline-shift="0%" kerning="auto" font-family="Arial_Regular" font-size="15" fill="#999999" xml:space="preserve">Xbox 360</tspan></text>
</g>
</svg>
