<?xml version="1.0" encoding="utf-8"?>
<!-- Generator: Adobe Illustrator 24.1.2, SVG Export Plug-In . SVG Version: 6.00 Build 0)  -->
<svg version="1.1" id="Layer_1" xmlns="http://www.w3.org/2000/svg" xmlns:xlink="http://www.w3.org/1999/xlink" x="0px" y="0px"
	 viewBox="0 0 100 100" style="enable-background:new 0 0 100 100;" xml:space="preserve">
<g transform="matrix( 1, 0, 0, 1, 0,0) ">
	<g>
		<g id="Layer1_0_FILL">
			<path style="fill:#1B1B1B;" d="M8.2,67.6c2.2,5.3,5.5,10.1,9.8,14.5c4.3,4.3,9.1,7.6,14.4,9.8V67.6H8.2 M29,86.2
				c-3-1.8-5.8-3.9-8.5-6.6c-2.6-2.7-4.9-5.5-6.6-8.5H29V86.2 M32.5,8.4c-5.3,2.2-10.1,5.4-14.4,9.8s-7.6,9.1-9.8,14.4h24.2V8.4
				 M20.5,20.6C23.1,18,26,15.8,29,14v15h-15C15.7,26,17.9,23.2,20.5,20.6 M81.9,82.1c4.4-4.4,7.7-9.2,9.9-14.5H67.6v24.3
				C72.8,89.7,77.6,86.4,81.9,82.1 M71.1,86.2V71.1h15c-1.8,3-4,5.8-6.7,8.5C76.8,82.2,74.1,84.4,71.1,86.2 M91.7,32.5
				c-2.2-5.2-5.4-10-9.8-14.4c-4.3-4.3-9.1-7.6-14.3-9.8v24.1H91.7 M71.1,14c3,1.8,5.8,4,8.3,6.6c2.6,2.6,4.8,5.4,6.6,8.4h-15V14z"
				/>
			<path style="fill:#282828;" d="M20.5,79.6c2.6,2.6,5.5,4.8,8.5,6.6V71.1H13.9C15.6,74.1,17.9,76.9,20.5,79.6 M29,14
				c-3,1.8-5.8,4-8.5,6.6c-2.6,2.6-4.8,5.4-6.6,8.4h15V14 M71.1,71.1v15.1c3-1.8,5.8-3.9,8.3-6.6c2.7-2.7,4.9-5.5,6.7-8.5H71.1
				 M79.4,20.6c-2.6-2.6-5.4-4.8-8.3-6.6v15h15C84.3,26,82.1,23.2,79.4,20.6z"/>
			
				<linearGradient id="SVGID_1_" gradientUnits="userSpaceOnUse" x1="49.7977" y1="51.6965" x2="42.7977" y2="43.1215" gradientTransform="matrix(1 0 0 -1 0 102)">
				<stop  offset="0" style="stop-color:#313131"/>
				<stop  offset="1" style="stop-color:#D7D7D7"/>
			</linearGradient>
			<path style="fill:url(#SVGID_1_);" d="M91.8,67.6c2.2-5.4,3.3-11.2,3.3-17.5c0-6.4-1.2-12.2-3.5-17.6H67.6V8.4
				C62.2,6.1,56.3,4.9,50,4.9S37.8,6.1,32.5,8.4v24.1H8.3C6,37.9,4.8,43.7,4.8,50.1c0,6.3,1.1,12.1,3.3,17.5h24.3v24.3
				c5.4,2.2,11.2,3.3,17.5,3.3c6.3,0,12.2-1.1,17.6-3.3V67.6H91.8 M87.7,50.1c0,3.5-0.4,6.8-1.3,10H67.6c-2.1,0-3.8,0.7-5.3,2.2
				s-2.2,3.2-2.2,5.3v18.8c-3.2,0.8-6.6,1.2-10.1,1.3c-3.5,0-6.9-0.4-10-1.3V67.6c0-2.1-0.7-3.8-2.2-5.3s-3.2-2.2-5.3-2.2H13.6
				c-0.8-3.2-1.2-6.5-1.2-10c0-3.6,0.4-7,1.3-10.1h18.9c2.1,0,3.8-0.7,5.3-2.2s2.2-3.2,2.2-5.3V13.7c3.2-0.8,6.5-1.3,10-1.3
				s6.9,0.4,10.1,1.3v18.8c0,2.1,0.7,3.8,2.2,5.3s3.2,2.2,5.3,2.2h18.8C87.2,43.1,87.7,46.5,87.7,50.1z"/>
			
				<linearGradient id="SVGID_2_" gradientUnits="userSpaceOnUse" x1="53.0728" y1="55.7501" x2="46.0728" y2="47.1501" gradientTransform="matrix(1 0 0 -1 0 102)">
				<stop  offset="0" style="stop-color:#4F4F4F"/>
				<stop  offset="1" style="stop-color:#F5F5F5"/>
			</linearGradient>
			<path style="fill:url(#SVGID_2_);" d="M86.4,60.1c0.8-3.2,1.3-6.5,1.3-10c0-3.6-0.4-7-1.3-10.1H67.6c-2.1,0-3.8-0.7-5.3-2.2
				s-2.2-3.2-2.2-5.3V13.7c-3.2-0.8-6.6-1.3-10.1-1.3s-6.9,0.4-10,1.3v18.8c0,2.1-0.7,3.8-2.2,5.3S34.5,40,32.5,40H13.6
				c-0.8,3.2-1.2,6.6-1.3,10.1c0,3.5,0.4,6.8,1.2,10h18.9c2.1,0,3.8,0.7,5.3,2.2s2.2,3.2,2.2,5.3v18.8c3.2,0.8,6.5,1.2,10,1.3
				c3.5,0,6.9-0.4,10.1-1.3V67.6c0-2.1,0.7-3.8,2.2-5.3s3.2-2.2,5.3-2.2H86.4z"/>
		</g>
	</g>
	<g>
		<path id="Layer1_0_1_STROKES" style="fill:none;stroke:#1B1B1B;stroke-width:5;stroke-linecap:round;stroke-linejoin:round;" d="
			M67.6,8.4c5.2,2.2,10,5.4,14.3,9.8c4.3,4.3,7.6,9.1,9.8,14.4c2.3,5.4,3.5,11.3,3.5,17.6c0,6.3-1.1,12.1-3.3,17.5
			c-2.2,5.3-5.5,10.1-9.9,14.5c-4.3,4.3-9.1,7.6-14.3,9.8 M32.5,91.8c-5.3-2.2-10.1-5.5-14.4-9.8c-4.4-4.4-7.6-9.2-9.8-14.5
			C6,62.2,4.8,56.4,4.8,50.1c0-6.4,1.1-12.2,3.4-17.6c2.2-5.2,5.5-10,9.8-14.4s9.1-7.6,14.4-9.8C37.8,6.1,43.7,4.9,50,4.9
			s12.2,1.1,17.6,3.4v24.1h24.1 M32.5,8.4v24.1H8.3 M32.5,67.6H8.2 M91.8,67.6H67.6"/>
	</g>
	<g>
		
			<linearGradient id="Layer1_0_2_STROKES_1_" gradientUnits="userSpaceOnUse" x1="54.0829" y1="55.5626" x2="47.0829" y2="49.2876" gradientTransform="matrix(1 0 0 -1 0 102)">
			<stop  offset="0" style="stop-color:#626262"/>
			<stop  offset="1" style="stop-color:#FFFFFF"/>
		</linearGradient>
		
			<path id="Layer1_0_2_STROKES" style="fill:none;stroke:url(#Layer1_0_2_STROKES_1_);stroke-width:4;stroke-linecap:round;stroke-linejoin:round;" d="
			M86.4,40c0.8,3.2,1.3,6.6,1.3,10.1c0,3.5-0.4,6.8-1.3,10H67.6c-2.1,0-3.8,0.7-5.3,2.2s-2.2,3.2-2.2,5.3v18.8
			c-3.2,0.8-6.6,1.2-10.1,1.3c-3.5,0-6.9-0.4-10-1.3V67.6c0-2.1-0.7-3.8-2.2-5.3s-3.2-2.2-5.3-2.2H13.6c-0.8-3.2-1.2-6.5-1.2-10
			c0-3.6,0.4-7,1.3-10.1h18.9c2.1,0,3.8-0.7,5.3-2.2s2.2-3.2,2.2-5.3V13.7c3.2-0.8,6.5-1.3,10-1.3s6.9,0.4,10.1,1.3v18.8
			c0,2.1,0.7,3.8,2.2,5.3s3.2,2.2,5.3,2.2H86.4z"/>
	</g>
	<g>
		
			<linearGradient id="Layer1_0_3_STROKES_1_" gradientUnits="userSpaceOnUse" x1="50.025" y1="31.85" x2="50.025" y2="14.25" gradientTransform="matrix(1 0 0 -1 0 102)">
			<stop  offset="0" style="stop-color:#1B1B1B"/>
			<stop  offset="1" style="stop-color:#404040"/>
		</linearGradient>
		
			<path id="Layer1_0_3_STROKES" style="fill:none;stroke:url(#Layer1_0_3_STROKES_1_);stroke-width:5;stroke-linecap:round;stroke-linejoin:round;" d="
			M67.6,91.8c-5.4,2.2-11.3,3.3-17.6,3.3c-6.3,0-12.2-1.1-17.5-3.3V67.6 M67.6,91.8V67.6"/>
	</g>
</g>
</svg>
