
<svg xmlns="http://www.w3.org/2000/svg" version="1.1" xmlns:xlink="http://www.w3.org/1999/xlink" preserveAspectRatio="none" x="0px" y="0px" viewBox="0 0 100 100">
<defs>
<g id="Layer1_0_FILL">
<path fill="#313131" stroke="none" d="
M 78.9 35
Q 67.6 10.85 47.65 7.5 19.9 4.15 17.65 27
L 14.9 76.25 87.15 89.5
Q 89.3 60.6 78.9 35
M 60.95 31.45
Q 61.05 32.6 61.15 33.75
L 61.15 77.75 25.4 71.25 27.9 28.25
Q 28 27.5 28.1 26.8 28.25 26.1 28.4 25.4 29.25 21 32.75 18.2 34.55 16.7 36.9 16.1 42.15 14.95 47.4 15.95 51.95 16.65 55.45 19.8 56.7 20.9 57.7 22.3 60.5 26.35 60.95 31.45 Z"/>

<path fill="#4F4F4F" stroke="none" d="
M 61.15 33.75
Q 61.05 32.6 60.95 31.45 60.5 26.35 57.7 22.3 56.7 20.9 55.45 19.8 51.95 16.65 47.4 15.95 42.15 14.95 36.9 16.1 34.55 16.7 32.75 18.2 29.25 21 28.4 25.4 28.25 26.1 28.1 26.8 28 27.5 27.9 28.25
L 25.4 71.25 61.15 77.75 61.15 33.75
M 38 53.7
Q 39.15 53.9 40.15 54.2 41.2 54.55 41.9 55.25 42.7 55.85 43.1 56.8 43.5 57.75 43.4 59 43.35 60.55 42.45 61.55 41.6 62.5 40.05 62.5
L 43.55 69.35 39.55 68.65 36.7 62.3 35.1 62 34.8 67.85 31.5 67.3 32.2 52.7 38 53.7
M 56.15 59.75
L 51.9 59 51.3 70.75 48.05 70.2 48.65 58.45 44.35 57.75 44.45 54.9 56.25 56.9 56.15 59.75
M 35.4 55.95
L 35.25 59.3 37.2 59.65
Q 37.65 59.7 38.1 59.75 38.6 59.8 39.05 59.7 39.45 59.6 39.7 59.3 39.95 59.05 40 58.4 40 57.85 39.85 57.5 39.6 57.2 39.25 56.9 38.9 56.65 38.45 56.55 38 56.4 37.6 56.35
L 35.4 55.95 Z"/>

<path fill="#999999" stroke="none" d="
M 51.9 59
L 56.15 59.75 56.25 56.9 44.45 54.9 44.35 57.75 48.65 58.45 48.05 70.2 51.3 70.75 51.9 59
M 40.15 54.2
Q 39.15 53.9 38 53.7
L 32.2 52.7 31.5 67.3 34.8 67.85 35.1 62 36.7 62.3 39.55 68.65 43.55 69.35 40.05 62.5
Q 41.6 62.5 42.45 61.55 43.35 60.55 43.4 59 43.5 57.75 43.1 56.8 42.7 55.85 41.9 55.25 41.2 54.55 40.15 54.2
M 35.25 59.3
L 35.4 55.95 37.6 56.35
Q 38 56.4 38.45 56.55 38.9 56.65 39.25 56.9 39.6 57.2 39.85 57.5 40 57.85 40 58.4 39.95 59.05 39.7 59.3 39.45 59.6 39.05 59.7 38.6 59.8 38.1 59.75 37.65 59.7 37.2 59.65
L 35.25 59.3 Z"/>
</g>

<path id="Layer1_0_1_STROKES" stroke="#626262" stroke-width="4" stroke-linejoin="round" stroke-linecap="round" fill="none" d="
M 27.9 28.25
Q 28 27.5 28.1 26.8 28.25 26.1 28.4 25.4 29.25 21 32.75 18.2 34.55 16.7 36.9 16.1 42.15 14.95 47.4 15.95 51.95 16.65 55.45 19.8 56.7 20.9 57.7 22.3 60.5 26.35 60.95 31.45 61.05 32.6 61.15 33.75
L 61.15 77.75 25.4 71.25 27.9 28.25 Z"/>

<path id="Layer1_0_2_STROKES" stroke="#1B1B1B" stroke-width="5" stroke-linejoin="round" stroke-linecap="round" fill="none" d="
M 47.65 7.5
Q 67.6 10.85 78.9 35 89.3 60.6 87.15 89.5
L 14.9 76.25 17.65 27
Q 19.9 4.15 47.65 7.5 Z"/>

</defs>

<g transform="matrix( 1, 0, 0, 1, 0,0) ">
<use xlink:href="#Layer1_0_FILL"/>

<use xlink:href="#Layer1_0_1_STROKES"/>

<use xlink:href="#Layer1_0_2_STROKES"/>
</g>

<g transform="matrix( 1, 0, 0, 1, -3.4,-28) ">
<clipPath id="Mask_Mask_1">
<rect x="3.8" y="-2" width="99.2" height="20.8" fill="#FFFFFF" stroke="none"/>
</clipPath>

<text clip-path="url(#Mask_Mask_1)" writing-mode="lr"><tspan x="5.85" y="13.6" baseline-shift="0%" kerning="auto" font-family="Arial_Regular" font-size="15" fill="#999999" xml:space="preserve">Xbox Series X</tspan></text>
</g>
</svg>
