
<svg xmlns="http://www.w3.org/2000/svg" version="1.1" xmlns:xlink="http://www.w3.org/1999/xlink" x="0px" y="0px" viewBox="0 0 100 100">
<defs>
<g id="Layer1_0_FILL">
<path fill="#FFFFFF" stroke="none" d="
M 79.6 66.65
L 72.75 74 72.75 66.65 68.85 66.65 68.85 84.35 72.75 84.35 72.75 75.95 79.95 84.35 85.4 84.35 76.85 74.9 84.7 66.65 79.6 66.65
M 61.75 70.2
Q 62.55 70.55 63.15 71.25
L 66.15 68.8
Q 65.55 68.1 64.85 67.6 64.1 67.1 63.3 66.75 62.55 66.5 61.75 66.35 60.9 66.2 60.15 66.2 58.1 66.2 56.35 66.85 54.6 67.5 53.3 68.7 52.05 69.9 51.3 71.65 50.6 73.4 50.6 75.5 50.6 77.6 51.3 79.35 52.05 81.1 53.3 82.3 54.6 83.5 56.35 84.15 58.1 84.8 60.15 84.8 62 84.8 63.7 84.05 65.45 83.3 66.55 81.75
L 63.3 79.3
Q 62.7 80.2 61.8 80.7 60.85 81.2 59.65 81.2 58.6 81.2 57.7 80.75 56.8 80.35 56.1 79.6 55.45 78.8 55.05 77.8 54.65 76.75 54.65 75.5 54.65 74.3 55.05 73.25 55.45 72.2 56.1 71.4 56.8 70.65 57.75 70.25 58.7 69.8 59.8 69.8 60.9 69.8 61.75 70.2
M 31.2 84.35
L 35.45 84.35 36.95 80.6 43.8 80.6 45.35 84.35 49.75 84.35 42.05 66.65 38.85 66.65 31.2 84.35
M 38.15 77.3
L 40.35 71.8 42.5 77.3 38.15 77.3
M 27.8 67.45
Q 26.9 67 25.7 66.8 24.55 66.65 23.4 66.65
L 16.8 66.65 16.8 84.35 24.05 84.35
Q 25.2 84.35 26.4 84.1 27.6 83.85 28.55 83.3 29.5 82.7 30.1 81.75 30.7 80.8 30.7 79.45 30.7 78.6 30.4 77.85 30.15 77.05 29.6 76.5 29.1 75.95 28.4 75.6 27.7 75.25 26.85 75.1
L 26.85 75.05
Q 28.2 74.65 29.05 73.65 29.85 72.65 29.85 71.15 29.85 69.7 29.3 68.8 28.7 67.95 27.8 67.45
M 20.7 73.75
L 20.7 69.95 23.35 69.95
Q 23.8 69.95 24.3 70.05 24.75 70.1 25.1 70.3 25.5 70.5 25.75 70.9 25.95 71.25 25.95 71.8 25.95 72.35 25.75 72.7 25.55 73.1 25.2 73.3 24.85 73.55 24.4 73.65 23.95 73.75 23.5 73.75
L 20.7 73.75
M 26.8 79
Q 26.8 79.55 26.55 79.95 26.3 80.35 25.95 80.6 25.55 80.85 25.1 80.95 24.65 81.05 24.2 81.05
L 20.7 81.05 20.7 77.05 23.65 77.05
Q 24.1 77.05 24.65 77.1 25.2 77.15 25.7 77.4 26.15 77.6 26.45 77.95 26.8 78.35 26.8 79 Z"/>

<path fill="#D7D7D7" stroke="none" d="
M 59.05 19.35
Q 41.15 19.35 41.05 19.35 32.25 19.35 26 25.05 19.8 30.75 19.8 38.8 19.8 46.85 26 52.55 32.25 58.25 41.05 58.25 41.1 58.25 59.05 58.25 67.75 58.2 73.95 52.55 80.2 46.85 80.2 38.8 80.2 30.75 73.95 25.05 67.75 19.4 59.05 19.35
M 59 26.85
L 59.05 26.85
Q 64.8 26.85 68.9 30.6 72.65 34 72.7 38.8 72.65 43.6 68.9 47 64.8 50.75 59.05 50.75
L 59 50.75
Q 41.1 50.75 41.05 50.75 35.2 50.8 31.05 47.05
L 31.05 47
Q 27.35 43.6 27.3 38.8 27.35 34 31.05 30.6 35.2 26.8 41.05 26.85 41.15 26.85 59 26.85 Z"/>

<path fill="#F5F5F5" stroke="none" d="
M 59.05 26.85
L 59 26.85
Q 41.15 26.85 41.05 26.85 35.2 26.8 31.05 30.6 27.35 34 27.3 38.8 27.35 43.6 31.05 47
L 31.05 47.05
Q 35.2 50.8 41.05 50.75 41.1 50.75 59 50.75
L 59.05 50.75
Q 64.8 50.75 68.9 47 72.65 43.6 72.7 38.8 72.65 34 68.9 30.6 64.8 26.85 59.05 26.85
M 56.75 31.25
L 56.75 46.45 39.55 38.85 56.75 31.25 Z"/>

<path fill="#9A9A9A" stroke="none" d="
M 56.75 46.45
L 56.75 31.25 39.55 38.85 56.75 46.45 Z"/>
</g>

<path id="Layer1_0_1_STROKES" stroke="#404040" stroke-width="5" stroke-linejoin="round" stroke-linecap="round" fill="none" d="
M 59.05 19.35
Q 41.15 19.35 41.05 19.35 32.25 19.35 26 25.05 19.8 30.75 19.8 38.8 19.8 46.85 26 52.55 32.25 58.25 41.05 58.25 41.1 58.25 59.05 58.25 67.75 58.2 73.95 52.55 80.2 46.85 80.2 38.8 80.2 30.75 73.95 25.05 67.75 19.4 59.05 19.35 Z"/>

<path id="Layer1_0_2_STROKES" stroke="#FFFFFF" stroke-width="4" stroke-linejoin="round" stroke-linecap="round" fill="none" d="
M 59.05 26.85
L 59 26.85
Q 41.15 26.85 41.05 26.85 35.2 26.8 31.05 30.6 27.35 34 27.3 38.8 27.35 43.6 31.05 47
L 31.05 47.05
Q 35.2 50.8 41.05 50.75 41.1 50.75 59 50.75
L 59.05 50.75
Q 64.8 50.75 68.9 47 72.65 43.6 72.7 38.8 72.65 34 68.9 30.6 64.8 26.85 59.05 26.85 Z"/>

</defs>

<g transform="matrix( 1, 0, 0, 1, 0,0) ">
<use xlink:href="#Layer1_0_FILL"/>

<use xlink:href="#Layer1_0_1_STROKES"/>

<use xlink:href="#Layer1_0_2_STROKES"/>
</g>

<g transform="matrix( 1, 0, 0, 1, -3.4,-28) ">
<clipPath id="Mask_Mask_1">
<rect x="19.6" y="-2" width="67.6" height="20.8" fill="#FFFFFF" stroke="none"/>
</clipPath>

<text clip-path="url(#Mask_Mask_1)" writing-mode="lr"><tspan x="21.7" y="13.6" baseline-shift="0%" kerning="auto" font-family="Arial_Regular" font-size="15" fill="#999999" xml:space="preserve">Xbox 360</tspan></text>
</g>
</svg>
