
<svg xmlns="http://www.w3.org/2000/svg" version="1.1" xmlns:xlink="http://www.w3.org/1999/xlink" x="0px" y="0px" viewBox="0 0 100 100">
<defs>
<g id="Layer1_0_FILL">
<path fill="#6E6E6E" stroke="none" d="
M 37.35 90.45
L 37.35 90.5
Q 46.3 93.35 55.85 91.95
L 60.15 91.15
Q 61.4 90.85 62.65 90.5
L 62.65 90.35
Q 62.6138671875 90.380859375 62.55 90.4 61.3171875 90.76015625 60.05 91.05
L 55.75 91.85
Q 46.2513671875 93.242578125 37.35 90.4
L 37.35 90.45
M 84.2 44.8
Q 84.2060546875 44.7912109375 84.2 44.75
L 65.9 41.1
Q 63.8892578125 40.734375 62.3 39.55 61.7767578125 39.1443359375 61.3 38.65 61.24921875 38.6005859375 61.2 38.55 60.717578125 38.073046875 60.3 37.55 59.06640625 35.931640625 58.65 33.85
L 55.05 15.75
Q 49.75 14.95 44.65 15.7
L 41 33.9
Q 40.45 36.7 38.45 38.65 38.25 38.85 38.05 39.05 36.2 40.7 33.7 41.15
L 15.7 44.75
Q 14.95 49.85 15.75 55.2
L 33.7 58.8
Q 36 59.2 37.7 60.6 37.9267578125 60.7984375 38.1 61 38.2974609375 61.14921875 38.45 61.3 38.5001953125 61.3501953125 38.55 61.4 39.0322265625 61.8890625 39.4 62.4 40.5978515625 64.02578125 41 66
L 44.65 84.2
Q 44.691015625 84.2060546875 44.7 84.2 49.7927734375 84.9435546875 55.05 84.15
L 58.65 66.05
Q 59.2 63.3 61.2 61.3 63.15 59.3 65.95 58.8
L 84.15 55.2
Q 84.9435546875 49.8931640625 84.2 44.8
M 83 44.95
Q 83.005859375 44.9912109375 83 45 83.69375 49.9427734375 82.95 55.05
L 65.4 58.5
Q 62.7 59 60.8 60.9 58.9 62.85 58.35 65.5
L 54.9 82.95
Q 49.8423828125 83.69375 44.9 83 44.8912109375 83.005859375 44.85 83
L 41.35 65.45
Q 40.9482421875 63.55078125 39.8 62 39.457421875 61.4765625 39 61 38.95 60.95 38.9 60.9 38.5447265625 60.5447265625 38.15 60.2 38.100390625 60.1892578125 38.05 60.15 36.4 58.9 34.3 58.5
L 17 55.05
Q 16.25 49.9 16.95 44.95
L 34.3 41.5
Q 36.4 41.1 38.05 39.85 38.5 39.5 38.9 39.1 40.8 37.2 41.35 34.5
L 44.85 16.95
Q 49.8 16.25 54.9 17
L 58.35 34.45
Q 58.76640625 36.4564453125 59.95 38 60.3423828125 38.535546875 60.8 39 60.85 39.05 60.9 39.1 61.3642578125 39.56953125 61.85 39.95 63.414453125 41.084765625 65.35 41.45
L 83 44.95
M 90.4 37.35
L 90.35 37.35 67.15 32.7 67.1 32.7 62.55 9.6 62.55 9.55
Q 49.3 5.7 37.25 9.55
L 37.2 9.65 32.6 32.75 32.7 32.85 38.05 39.05
Q 38.25 38.85 38.45 38.65 40.45 36.7 41 33.9
L 44.65 15.7
Q 49.75 14.95 55.05 15.75
L 58.65 33.85
Q 59.06640625 35.931640625 60.3 37.55 60.717578125 38.073046875 61.2 38.55 61.24921875 38.6005859375 61.3 38.65 61.7767578125 39.1443359375 62.3 39.55 63.8892578125 40.734375 65.9 41.1
L 84.2 44.75
Q 84.2060546875 44.7912109375 84.2 44.8 84.9435546875 49.8931640625 84.15 55.2
L 65.95 58.8
Q 63.15 59.3 61.2 61.3 59.2 63.3 58.65 66.05
L 55.05 84.15
Q 49.7927734375 84.9435546875 44.7 84.2 44.691015625 84.2060546875 44.65 84.2
L 41 66
Q 40.5978515625 64.02578125 39.4 62.4 39.0322265625 61.8890625 38.55 61.4 38.5001953125 61.3501953125 38.45 61.3 38.2974609375 61.14921875 38.1 61 37.9267578125 60.7984375 37.7 60.6
L 32.6 67.25 32.6 67.3 37.25 90.35 37.25 90.4
Q 37.298046875 90.415234375 37.35 90.4 46.2513671875 93.242578125 55.75 91.85
L 60.05 91.05
Q 61.3171875 90.76015625 62.55 90.4
L 67.1 67.25 90.35 62.65 90.4 62.65
Q 94.234765625 49.50234375 90.4 37.45 90.415234375 37.398046875 90.4 37.35
M 90.45 37.45
L 90.4 37.45
Q 94.234765625 49.50234375 90.4 62.65
L 90.35 62.65
Q 90.3306640625 62.7138671875 90.3 62.75
L 90.45 62.75 90.5 62.75
Q 94.35 49.55 90.5 37.45
L 90.45 37.45 Z"/>

<path fill="#353535" stroke="none" d="
M 37.35 90.4
Q 37.298046875 90.415234375 37.25 90.4
L 37.25 90.35
Q 34.890625 89.6298828125 32.65 88.65 34.9271484375 89.7103515625 37.35 90.45
L 37.35 90.4
M 32.6 67.3
L 32.6 67.25 9.6 62.65 9.6 62.65
Q 10.3521484375 65.0978515625 11.4 67.4 14.4990234375 74.1826171875 20.15 79.85 20.2 79.9 20.25 79.95 25.916796875 85.6005859375 32.65 88.65 34.890625 89.6298828125 37.25 90.35
L 32.6 67.3
M 28.8 71.1
L 28.8 71.15 31.15 82.75
Q 30.1265625 82.158203125 29.1 81.5 26.1384765625 79.4796875 23.4 76.75 23.35 76.7 23.3 76.65 20.6064453125 73.9474609375 18.55 70.9 17.8015625 69.8576171875 17.15 68.75
L 28.8 71.1
M 9.6 37.3
L 32.6 32.75 37.2 9.65
Q 27.7 12.6 20.15 20.15 12.55 27.75 9.6 37.3
M 23.3 23.3
Q 26.95 19.7 31.1 17.25
L 28.75 28.9 17.15 31.2
Q 19.65 27 23.3 23.3
M 90.45 62.75
L 90.3 62.75
Q 87.3994140625 72.3005859375 79.85 79.85 72.2337890625 87.4662109375 62.65 90.35
L 62.65 90.5
Q 72.3 87.6 79.95 79.95 87.55 72.35 90.45 62.75
M 90.3 62.75
Q 90.3306640625 62.7138671875 90.35 62.65
L 67.1 67.25 62.55 90.4
Q 62.6138671875 90.380859375 62.65 90.35 72.2337890625 87.4662109375 79.85 79.85 87.3994140625 72.3005859375 90.3 62.75
M 82.85 68.7
Q 82.8109375 68.7677734375 82.75 68.8 80.340234375 73.008984375 76.65 76.65 72.958984375 80.390234375 68.7 82.8 68.6677734375 82.861328125 68.6 82.9
L 70.95 71.05 82.85 68.7
M 90.35 37.35
Q 89.6298828125 34.9658203125 88.65 32.7 85.60078125 25.9171875 79.95 20.25 79.9 20.2 79.85 20.15 74.1453125 14.46171875 67.3 11.35 65.0103515625 10.3021484375 62.55 9.55
L 62.55 9.6 67.1 32.7 67.15 32.7 90.35 37.35
M 81.55 29.2
Q 82.2080078125 30.2140625 82.8 31.25
L 71 28.85 70.95 28.85 68.6 17.05
Q 69.719921875 17.701171875 70.8 18.45 73.873046875 20.53203125 76.65 23.3 76.7 23.35 76.75 23.4 79.516796875 26.17578125 81.55 29.2
M 90.4 37.45
L 90.45 37.45
Q 89.710546875 35.00234375 88.65 32.7 89.6298828125 34.9658203125 90.35 37.35
L 90.4 37.35
Q 90.415234375 37.398046875 90.4 37.45 Z"/>

<path fill="#4D4D4D" stroke="none" d="
M 28.8 71.15
L 28.8 71.1 17.15 68.75
Q 17.8015625 69.8576171875 18.55 70.9 20.6064453125 73.9474609375 23.3 76.65 23.35 76.7 23.4 76.75 26.1384765625 79.4796875 29.1 81.5 30.1265625 82.158203125 31.15 82.75
L 28.8 71.15
M 31.1 17.25
Q 26.95 19.7 23.3 23.3 19.65 27 17.15 31.2
L 28.75 28.9 31.1 17.25
M 82.75 68.8
Q 82.8109375 68.7677734375 82.85 68.7
L 70.95 71.05 68.6 82.9
Q 68.6677734375 82.861328125 68.7 82.8 72.958984375 80.390234375 76.65 76.65 80.340234375 73.008984375 82.75 68.8
M 82.8 31.25
Q 82.2080078125 30.2140625 81.55 29.2 79.516796875 26.17578125 76.75 23.4 76.7 23.35 76.65 23.3 73.873046875 20.53203125 70.8 18.45 69.719921875 17.701171875 68.6 17.05
L 70.95 28.85 71 28.85 82.8 31.25 Z"/>

<path fill="#D7D7D7" stroke="none" d="
M 9.6 37.3
L 9.55 37.35
Q 5.7 49.45 9.55 62.65
L 9.6 62.65 9.6 62.65 32.6 67.25 37.7 60.6
Q 36 59.2 33.7 58.8
L 15.75 55.2
Q 14.95 49.85 15.7 44.75
L 33.7 41.15
Q 36.2 40.7 38.05 39.05
L 32.7 32.85 32.6 32.75 9.6 37.3 Z"/>

<path fill="#F5F5F5" stroke="none" d="
M 38.15 40
L 38.1 39.95
Q 38.090234375 39.9076171875 38.05 39.85 36.4 41.1 34.3 41.5
L 16.95 44.95
Q 16.25 49.9 17 55.05
L 34.3 58.5
Q 36.4 58.9 38.05 60.15 38.1005859375 60.0759765625 38.15 60 44.947265625 49.905078125 38.15 40 Z"/>

<path fill="#888888" stroke="none" d="
M 83 45
Q 83.005859375 44.9912109375 83 44.95
L 65.35 41.45
Q 63.414453125 41.084765625 61.85 39.95 61.3642578125 39.56953125 60.9 39.1 60.85 39.05 60.8 39 60.3423828125 38.535546875 59.95 38 58.76640625 36.4564453125 58.35 34.45
L 54.9 17
Q 49.8 16.25 44.85 16.95
L 41.35 34.5
Q 40.8 37.2 38.9 39.1 38.5 39.5 38.05 39.85 38.090234375 39.9076171875 38.1 39.95
L 38.15 40
Q 44.947265625 49.905078125 38.15 60 38.1005859375 60.0759765625 38.05 60.15 38.100390625 60.1892578125 38.15 60.2 38.5447265625 60.5447265625 38.9 60.9 38.95 60.95 39 61 39.457421875 61.4765625 39.8 62 40.9482421875 63.55078125 41.35 65.45
L 44.85 83
Q 44.8912109375 83.005859375 44.9 83 49.8423828125 83.69375 54.9 82.95
L 58.35 65.5
Q 58.9 62.85 60.8 60.9 62.7 59 65.4 58.5
L 82.95 55.05
Q 83.69375 49.9427734375 83 45 Z"/>
</g>

<path id="Layer1_0_1_STROKES" stroke="#1F1F1F" stroke-width="4" stroke-linejoin="round" stroke-linecap="round" fill="none" d="
M 90.35 37.35
L 90.4 37.35
Q 90.415234375 37.398046875 90.425 37.45
L 90.45 37.45
Q 89.710546875 35.00234375 88.65 32.7 89.6298828125 34.9658203125 90.35 37.35
L 67.175 32.725 67.1 32.7 62.575 9.625 62.55 9.55
Q 49.3 5.7 37.25 9.55
L 37.2 9.65 32.6 32.75
M 32.6 67.25
L 32.625 67.325 37.25 90.35 37.25 90.4
Q 37.298046875 90.415234375 37.35 90.425 46.2513671875 93.242578125 55.75 91.85
L 60.05 91.05
Q 61.3171875 90.76015625 62.55 90.4
L 67.1 67.25 90.35 62.65 90.4 62.65
Q 94.234765625 49.50234375 90.425 37.45
M 90.45 37.45
L 90.5 37.45
Q 94.35 49.55 90.5 62.75
L 90.45 62.75
Q 87.55 72.35 79.95 79.95 72.3 87.6 62.65 90.5 61.4 90.85 60.15 91.15
L 55.85 91.95
Q 46.3 93.35 37.35 90.5
L 37.35 90.45
Q 34.9271484375 89.7103515625 32.65 88.65 25.916796875 85.6005859375 20.25 79.95 20.2 79.9 20.15 79.85 14.4990234375 74.1826171875 11.425 67.4 10.3521484375 65.0978515625 9.6 62.65
L 9.55 62.65
M 9.55 37.35
L 9.6 37.3
Q 12.55 27.75 20.15 20.15 27.7 12.6 37.2 9.65
M 90.35 62.65
Q 90.3306640625 62.7138671875 90.3 62.775
L 90.45 62.75
M 90.3 62.775
Q 87.3994140625 72.3005859375 79.85 79.85 72.2337890625 87.4662109375 62.675 90.35
L 62.65 90.5
M 62.55 9.55
Q 65.0103515625 10.3021484375 67.325 11.375 74.1453125 14.46171875 79.85 20.15 79.9 20.2 79.95 20.25 85.60078125 25.9171875 88.65 32.7
M 37.35 90.425
L 37.35 90.45
M 32.65 88.65
Q 34.890625 89.6298828125 37.25 90.35
M 62.675 90.35
Q 62.6138671875 90.380859375 62.55 90.4"/>

<path id="Layer1_0_2_STROKES" stroke="#A0A0A0" stroke-width="4" stroke-linejoin="round" stroke-linecap="round" fill="none" d="
M 38.05 39.05
Q 38.25 38.85 38.45 38.65 40.45 36.7 41 33.9
L 44.65 15.7
Q 49.75 14.95 55.05 15.75
L 58.65 33.85
Q 59.06640625 35.931640625 60.325 37.55 60.717578125 38.073046875 61.2 38.55 61.24921875 38.6005859375 61.3 38.65 61.7767578125 39.1443359375 62.3 39.55 63.8892578125 40.734375 65.9 41.1
L 84.2 44.75
Q 84.2060546875 44.7912109375 84.2 44.825 84.9435546875 49.8931640625 84.15 55.2
L 65.95 58.8
Q 63.15 59.3 61.2 61.3 59.2 63.3 58.65 66.05
L 55.05 84.15
Q 49.7927734375 84.9435546875 44.725 84.2 44.691015625 84.2060546875 44.65 84.2
L 41 66
Q 40.5978515625 64.02578125 39.425 62.425 39.0322265625 61.8890625 38.55 61.4 38.5001953125 61.3501953125 38.45 61.3 38.2974609375 61.14921875 38.125 61 37.9267578125 60.7984375 37.7 60.6"/>

<path id="Layer1_0_3_STROKES" stroke="#404040" stroke-width="4" stroke-linejoin="round" stroke-linecap="round" fill="none" d="
M 9.55 62.65
Q 5.7 49.45 9.55 37.35
M 32.6 32.75
L 9.6 37.3
M 32.6 67.25
L 9.625 62.65 9.6 62.65"/>

<path id="Layer1_0_4_STROKES" stroke="#FFFFFF" stroke-width="4" stroke-linejoin="round" stroke-linecap="round" fill="none" d="
M 33.7 58.8
L 15.75 55.2
Q 14.95 49.85 15.7 44.75
L 33.7 41.15"/>

<path id="Layer1_0_5_STROKES" stroke="#FFFFFF" stroke-width="4" stroke-linejoin="round" stroke-linecap="butt" fill="none" d="
M 33.7 41.15
Q 36.2 40.7 38.05 39.05
M 37.7 60.6
Q 36 59.2 33.7 58.8"/>

</defs>

<g transform="matrix( 1, 0, 0, 1, 0,0) ">
<use xlink:href="#Layer1_0_FILL"/>

<use xlink:href="#Layer1_0_1_STROKES"/>

<use xlink:href="#Layer1_0_2_STROKES"/>

<use xlink:href="#Layer1_0_3_STROKES"/>

<use xlink:href="#Layer1_0_4_STROKES"/>

<use xlink:href="#Layer1_0_5_STROKES"/>
</g>

<g transform="matrix( 1, 0, 0, 1, -3.4,-28) ">
<clipPath id="Mask_Mask_1">
<rect x="19.6" y="-2" width="67.6" height="20.8" fill="#FFFFFF" stroke="none"/>
</clipPath>

<text clip-path="url(#Mask_Mask_1)" writing-mode="lr"><tspan x="21.7" y="13.6" baseline-shift="0%" kerning="auto" font-family="Arial_Regular" font-size="15" fill="#999999" xml:space="preserve">Xbox 360</tspan></text>
</g>
</svg>
