
<svg xmlns="http://www.w3.org/2000/svg" version="1.1" xmlns:xlink="http://www.w3.org/1999/xlink" x="0px" y="0px" viewBox="0 0 100 100">
<defs>
<g id="Layer1_0_FILL">
<path fill="#404040" stroke="none" d="
M 97.05 45.9
Q 96.95 37 90.65 30.7 84.2 24.25 75.05 24.25 74.4 24.25 25.65 24.3
L 25.6 24.3
Q 25.55 24.3 25.5 24.3
L 25.45 24.3
Q 17.25 24.75 11.35 30.7 5 37 4.9 45.9 4.9 53.6 4.9 53.8 4.9 62.95 11.35 69.4 17.25 75.3 25.4 75.8 25.45 75.8 25.5 75.8 25.55 75.8 25.6 75.8
L 25.7 75.8
Q 74.4 75.8 75.05 75.8 84.2 75.8 90.65 69.4 97.05 62.95 97.05 53.8 97.05 53.6 97.05 45.9
M 87.8 33.55
Q 92.95 38.7 93.05 45.9
L 93.05 45.95
Q 93.05 53.6 93.05 53.8 93.05 61.25 87.8 66.55 82.5 71.8 75.05 71.8 74.4 71.8 25.75 71.8 19.05 71.4 14.2 66.55 8.9 61.25 8.9 53.8 8.9 53.6 8.9 45.95
L 8.9 45.9
Q 9 38.7 14.2 33.55 19 28.65 25.7 28.3 74.4 28.25 75.05 28.25 82.5 28.25 87.8 33.55 Z"/>

<path fill="#D7D7D7" stroke="none" d="
M 93.05 45.9
Q 92.95 38.7 87.8 33.55 82.5 28.25 75.05 28.25 74.4 28.25 25.7 28.3 19 28.65 14.2 33.55 9 38.7 8.9 45.9
L 8.9 45.95
Q 8.9 53.6 8.9 53.8 8.9 61.25 14.2 66.55 19.05 71.4 25.75 71.8 74.4 71.8 75.05 71.8 82.5 71.8 87.8 66.55 93.05 61.25 93.05 53.8 93.05 53.6 93.05 45.95
L 93.05 45.9
M 85.35 36
Q 89.45 40.1 89.55 45.85
L 89.55 45.9
Q 89.55 53.6 89.55 53.8 89.55 59.85 85.35 64.1 81.1 68.3 75.05 68.3 74.4 68.3 25.9 68.3 25.75 68.3 25.6 68.3
L 25.5 68.3
Q 20.35 67.8 16.65 64.1 12.4 59.85 12.4 53.8 12.4 53.6 12.4 45.9
L 12.4 45.85
Q 12.5 40.1 16.65 36 20.5 32.1 25.85 31.8
L 25.9 31.8
Q 25.95 31.8 26 31.8
L 26.05 31.8
Q 74.4 31.75 75.05 31.75 81.1 31.75 85.35 36 Z"/>

<path fill="#FFFFFF" stroke="none" d="
M 89.55 45.85
Q 89.45 40.1 85.35 36 81.1 31.75 75.05 31.75 74.4 31.75 26.05 31.8
L 26 31.8
Q 25.95 31.8 25.9 31.8
L 25.85 31.8
Q 20.5 32.1 16.65 36 12.5 40.1 12.4 45.85
L 12.4 45.9
Q 12.4 53.6 12.4 53.8 12.4 59.85 16.65 64.1 20.35 67.8 25.5 68.3
L 25.6 68.3
Q 25.75 68.3 25.9 68.3 74.4 68.3 75.05 68.3 81.1 68.3 85.35 64.1 89.55 59.85 89.55 53.8 89.55 53.6 89.55 45.9
L 89.55 45.85
M 82.5 38.85
Q 85.45 41.8 85.55 45.9
L 85.55 45.95
Q 85.55 53.6 85.55 53.8 85.55 58.15 82.5 61.25 79.4 64.3 75.05 64.3 74.4 64.3 25.95 64.3 22.2 63.95 19.5 61.25 16.4 58.15 16.4 53.8 16.4 53.6 16.4 45.95 16.5 41.8 19.5 38.85 22.25 36.05 26 35.8 26.05 35.8 26.1 35.8 74.4 35.75 75.05 35.75 79.4 35.75 82.5 38.85 Z"/>

<path fill="#F5F5F5" stroke="none" d="
M 85.55 45.9
Q 85.45 41.8 82.5 38.85 79.4 35.75 75.05 35.75 74.4 35.75 26.1 35.8 26.05 35.8 26 35.8 22.25 36.05 19.5 38.85 16.5 41.8 16.4 45.95 16.4 53.6 16.4 53.8 16.4 58.15 19.5 61.25 22.2 63.95 25.95 64.3 74.4 64.3 75.05 64.3 79.4 64.3 82.5 61.25 85.55 58.15 85.55 53.8 85.55 53.6 85.55 45.95
L 85.55 45.9
M 82.3 42.65
L 82.3 45.55 78.05 45.55 78.05 57.5 74.8 57.5 74.8 45.55 70.55 45.55 70.55 42.65 82.3 42.65
M 43.45 42.65
L 43.45 45.55 39.2 45.55 39.2 57.5 35.95 57.5 35.95 45.55 31.7 45.55 31.7 42.65 43.45 42.65
M 48.05 42.65
L 50.75 42.65 57.25 57.5 53.55 57.5 52.25 54.35 46.5 54.35 45.25 57.5 41.65 57.5 48.05 42.65
M 68.4 43.6
Q 69.15 44.1 69.6 44.95 70.05 45.85 70.05 47.15 70.05 48.7 69.25 49.8 68.45 50.95 66.85 51.2
L 70.65 57.5 66.7 57.5 63.6 51.55 62 51.55 62 57.5 58.7 57.5 58.7 42.65 64.45 42.65
Q 65.6 42.65 66.6 42.85 67.65 43.05 68.4 43.6
M 26.05 42.25
Q 27.3 42.25 28.5 42.6 29.65 42.95 30.6 43.8
L 28.35 46.25
Q 27.95 45.75 27.3 45.5 26.6 45.3 26 45.3 25.65 45.3 25.25 45.35 24.9 45.45 24.55 45.65 24.2 45.8 24 46.1 23.8 46.4 23.8 46.8 23.8 47.5 24.3 47.85 24.8 48.2 25.55 48.45 26.35 48.7 27.2 48.95 28.1 49.2 28.85 49.65 29.65 50.15 30.15 50.9 30.65 51.7 30.65 53 30.65 54.25 30.15 55.15 29.7 56.05 28.9 56.7 28.15 57.3 27.1 57.6 26.05 57.9 24.9 57.9 23.45 57.9 22.2 57.45 21 57 19.9 56
L 22.25 53.45
Q 22.75 54.1 23.5 54.5 24.3 54.85 25.1 54.85 25.5 54.85 25.9 54.75 26.3 54.65 26.65 54.5 26.95 54.3 27.15 54 27.35 53.7 27.35 53.3 27.35 52.65 26.85 52.25 26.35 51.85 25.55 51.55 24.8 51.3 23.9 51.05 22.95 50.75 22.2 50.3 21.4 49.85 20.9 49.1 20.4 48.3 20.4 47.1 20.4 45.9 20.85 45 21.35 44.1 22.1 43.45 22.9 42.85 23.95 42.55 24.95 42.25 26.05 42.25
M 62 45.4
L 62 48.8 63.9 48.8
Q 64.35 48.8 64.85 48.75 65.35 48.7 65.75 48.55 66.15 48.4 66.4 48.05 66.65 47.75 66.65 47.1 66.65 46.55 66.45 46.2 66.2 45.9 65.85 45.7 65.5 45.5 65.05 45.45 64.55 45.4 64.15 45.4
L 62 45.4
M 47.5 51.6
L 51.15 51.6 49.3 46.95 47.5 51.6 Z"/>

<path fill="#999999" stroke="none" d="
M 28.5 42.6
Q 27.3 42.25 26.05 42.25 24.95 42.25 23.95 42.55 22.9 42.85 22.1 43.45 21.35 44.1 20.85 45 20.4 45.9 20.4 47.1 20.4 48.3 20.9 49.1 21.4 49.85 22.2 50.3 22.95 50.75 23.9 51.05 24.8 51.3 25.55 51.55 26.35 51.85 26.85 52.25 27.35 52.65 27.35 53.3 27.35 53.7 27.15 54 26.95 54.3 26.65 54.5 26.3 54.65 25.9 54.75 25.5 54.85 25.1 54.85 24.3 54.85 23.5 54.5 22.75 54.1 22.25 53.45
L 19.9 56
Q 21 57 22.2 57.45 23.45 57.9 24.9 57.9 26.05 57.9 27.1 57.6 28.15 57.3 28.9 56.7 29.7 56.05 30.15 55.15 30.65 54.25 30.65 53 30.65 51.7 30.15 50.9 29.65 50.15 28.85 49.65 28.1 49.2 27.2 48.95 26.35 48.7 25.55 48.45 24.8 48.2 24.3 47.85 23.8 47.5 23.8 46.8 23.8 46.4 24 46.1 24.2 45.8 24.55 45.65 24.9 45.45 25.25 45.35 25.65 45.3 26 45.3 26.6 45.3 27.3 45.5 27.95 45.75 28.35 46.25
L 30.6 43.8
Q 29.65 42.95 28.5 42.6
M 69.6 44.95
Q 69.15 44.1 68.4 43.6 67.65 43.05 66.6 42.85 65.6 42.65 64.45 42.65
L 58.7 42.65 58.7 57.5 62 57.5 62 51.55 63.6 51.55 66.7 57.5 70.65 57.5 66.85 51.2
Q 68.45 50.95 69.25 49.8 70.05 48.7 70.05 47.15 70.05 45.85 69.6 44.95
M 62 48.8
L 62 45.4 64.15 45.4
Q 64.55 45.4 65.05 45.45 65.5 45.5 65.85 45.7 66.2 45.9 66.45 46.2 66.65 46.55 66.65 47.1 66.65 47.75 66.4 48.05 66.15 48.4 65.75 48.55 65.35 48.7 64.85 48.75 64.35 48.8 63.9 48.8
L 62 48.8
M 50.75 42.65
L 48.05 42.65 41.65 57.5 45.25 57.5 46.5 54.35 52.25 54.35 53.55 57.5 57.25 57.5 50.75 42.65
M 51.15 51.6
L 47.5 51.6 49.3 46.95 51.15 51.6
M 43.45 45.55
L 43.45 42.65 31.7 42.65 31.7 45.55 35.95 45.55 35.95 57.5 39.2 57.5 39.2 45.55 43.45 45.55
M 82.3 45.55
L 82.3 42.65 70.55 42.65 70.55 45.55 74.8 45.55 74.8 57.5 78.05 57.5 78.05 45.55 82.3 45.55 Z"/>
</g>

</defs>

<g transform="matrix( 1, 0, 0, 1, 0,0) ">
<use xlink:href="#Layer1_0_FILL"/>
</g>

<g transform="matrix( 1, 0, 0, 1, -3.4,-28) ">
<clipPath id="Mask_Mask_1">
<rect x="19.6" y="-2" width="67.6" height="20.8" fill="#FFFFFF" stroke="none"/>
</clipPath>

<text clip-path="url(#Mask_Mask_1)" writing-mode="lr"><tspan x="21.7" y="13.6" baseline-shift="0%" kerning="auto" font-family="Arial_Regular" font-size="15" fill="#999999" xml:space="preserve">Xbox 360</tspan></text>
</g>
</svg>
