<?xml version="1.0" encoding="utf-8"?>
<!-- Generator: Adobe Illustrator 24.1.2, SVG Export Plug-In . SVG Version: 6.00 Build 0)  -->
<svg version="1.1" id="Layer_1" xmlns="http://www.w3.org/2000/svg" xmlns:xlink="http://www.w3.org/1999/xlink" x="0px" y="0px"
	 viewBox="0 0 100 100" style="enable-background:new 0 0 100 100;" xml:space="preserve">
<g transform="matrix( 1, 0, 0, 1, 0,0) ">
	<g>
		<g id="Layer1_0_FILL">
			<path style="fill:#6E6E6E;" d="M9.8,37.4L9.8,37.4c-2,6-2.4,12.1-1.5,18.5l0.8,4.3c0.2,0.8,0.4,1.7,0.7,2.5H10c0,0,0-0.1-0.1-0.1
				c-0.2-0.8-0.5-1.7-0.7-2.5l-0.8-4.3C7.4,49.5,7.9,43.4,9.8,37.4L9.8,37.4 M55.4,84.3L55.4,84.3L59.1,66c0.2-1.3,0.8-2.5,1.5-3.6
				c0.3-0.3,0.6-0.7,0.9-1l0.1-0.1c0.3-0.3,0.7-0.6,1-0.9c1.1-0.8,2.3-1.4,3.7-1.6l18.1-3.7c0.5-3.5,0.6-7,0.1-10.4l-18.2-3.6
				c-1.9-0.4-3.5-1.2-4.8-2.5c-0.1-0.1-0.3-0.3-0.4-0.4C60,37,59.3,35.5,59,33.9l-3.6-18c-3.4-0.5-6.9-0.5-10.5,0.1l-3.6,18
				c-0.3,1.5-0.9,2.9-1.8,4c-0.1,0.2-0.3,0.3-0.4,0.4c-0.1,0.1-0.2,0.2-0.3,0.4l-0.1,0.1c-0.3,0.3-0.7,0.6-1,0.9
				c-1.1,0.8-2.3,1.3-3.6,1.6l-18.2,3.7l0,0c-0.5,3.4-0.5,6.8,0,10.3L34,59c1.8,0.4,3.4,1.2,4.8,2.5c1.3,1.3,2.2,2.9,2.5,4.7
				l3.6,18.2C48.5,84.8,52,84.8,55.4,84.3 M55.2,83.1L55.2,83.1c-3.3,0.5-6.7,0.4-10.1-0.1l-3.5-17.5c-0.3-1.8-1.1-3.3-2.4-4.6
				c-1.3-1.3-2.8-2.1-4.6-2.5L17.2,55c-0.5-3.4-0.5-6.7-0.1-10c0,0,0,0,0-0.1l17.6-3.5c1.3-0.3,2.4-0.8,3.4-1.5
				c0.3-0.2,0.7-0.5,1-0.8l0.1-0.1c0.2-0.2,0.5-0.5,0.7-0.8v-0.1c0.8-1.1,1.4-2.3,1.7-3.8l3.6-17.2c3.4-0.5,6.8-0.5,10.1,0l3.5,17.3
				c0.3,1.4,0.8,2.7,1.7,3.8c0.2,0.3,0.5,0.6,0.8,0.9c1.3,1.3,2.8,2.1,4.6,2.4l17.3,3.4c0.5,3.3,0.5,6.7,0,10.1l-17.5,3.4
				c-1.3,0.3-2.5,0.8-3.5,1.6c-0.4,0.3-0.7,0.5-1,0.8l-0.1,0.1c-0.3,0.3-0.6,0.6-0.9,0.9c-0.8,1-1.3,2.2-1.5,3.5L55.2,83.1
				 M62.9,90.5L62.9,90.5l4.6-23.3v-0.1l23.1-4.5l0,0c2.6-8.8,2.6-17.2,0-25.2h-0.1l-23.1-4.6l-0.1,0.1l-6.1,5.2
				c0.1,0.1,0.3,0.3,0.4,0.4c1.3,1.3,2.9,2.2,4.8,2.5l18.2,3.7c0.5,3.4,0.5,6.9-0.1,10.4l-18.1,3.6c-1.4,0.3-2.6,0.8-3.7,1.6
				c-0.3,0.3-0.7,0.6-1,0.9l-0.1,0.1c-0.3,0.3-0.6,0.7-0.9,1c-0.8,1.1-1.3,2.3-1.5,3.6l-3.7,18.3l0,0c-3.4,0.5-6.9,0.5-10.4,0
				L41.5,66c-0.3-1.9-1.2-3.4-2.5-4.7s-2.9-2.2-4.8-2.5L16,55.1c-0.5-3.5-0.5-7,0-10.3l0,0l18.2-3.7c1.3-0.3,2.5-0.8,3.6-1.6
				c0.3-0.2,0.7-0.5,1-0.9l0.1-0.1c0.1-0.1,0.2-0.2,0.3-0.4c0.1-0.1,0.3-0.2,0.4-0.4l-6.7-5.1h-0.1l-23,4.7H9.7v0.1
				c-1.9,5.9-2.4,12.1-1.4,18.4l0.8,4.3c0.2,0.8,0.4,1.7,0.7,2.5L33,67.1l4.6,23.3v0.1C46.4,93.1,54.8,93.1,62.9,90.5
				C62.8,90.5,62.8,90.5,62.9,90.5 M62.7,90.5L62.7,90.5c-8,2.5-16.4,2.5-25.2,0v-0.1h-0.1v0.1v0.1C46.2,93.2,54.7,93.2,62.7,90.5
				L62.7,90.5z"/>
			<path style="fill:#353535;" d="M9.8,37.4L9.8,37.4L9.8,37.4c0.5-1.7,1.1-3.2,1.8-4.7C10.8,34.3,10.2,35.8,9.8,37.4L9.8,37.4
				 M32.9,32.7L32.9,32.7l4.7-23l0,0c-1.6,0.5-3.2,1.1-4.8,1.8c-4.5,2.1-8.7,5-12.4,8.8l-0.1,0.1c-3.8,3.8-6.7,7.9-8.7,12.4
				c-0.7,1.5-1.2,3-1.7,4.6L32.9,32.7 M29.1,28.9L29.1,28.9l-11.7,2.4c0.4-0.7,0.8-1.4,1.3-2c1.3-2,2.9-3.9,4.8-5.7l0.1-0.1
				c1.8-1.8,3.7-3.4,5.8-4.8c0.7-0.5,1.4-1,2.2-1.4L29.1,28.9 M62.9,9.7l4.5,23l23.1,4.6c-2-6.3-5.5-12-10.5-17.1
				C75,15.2,69.3,11.7,62.9,9.7 M76.9,23.4c2.4,2.4,4.4,5,6,7.8l-11.6-2.4L69,17.2C71.8,18.9,74.4,21,76.9,23.4 M37.4,90.5
				L37.4,90.5c-6.4-2-12.1-5.5-17.1-10.6c-5.1-5.1-8.6-10.8-10.5-17.2H9.6c1.9,6.4,5.5,12.2,10.6,17.3S31,88.6,37.4,90.5 M37.4,90.4
				C37.5,90.4,37.5,90.4,37.4,90.4l-4.5-23.2L9.7,62.7c0,0,0,0.1,0.1,0.1c1.9,6.4,5.4,12.1,10.5,17.2C25.4,85,31.1,88.5,37.4,90.4
				 M31.5,82.9L31.5,82.9c-2.9-1.7-5.5-3.7-7.9-6.2c-2.5-2.5-4.5-5.1-6.2-8l-0.1-0.1l11.8,2.3L31.5,82.9 M62.9,90.4
				c1.6-0.5,3.1-1,4.6-1.7c4.5-2,8.7-4.9,12.5-8.7l0.1-0.1c3.8-3.8,6.7-8,8.8-12.5c0.7-1.5,1.3-3.1,1.8-4.8h-0.1l-23.1,4.5v0.1
				L62.9,90.4 M71,81.7c-0.7,0.4-1.4,0.9-2,1.3l2.3-11.9V71l11.9-2.3c-0.4,0.7-0.9,1.5-1.4,2.2c-1.4,2-3,4-4.8,5.8l-0.1,0.1
				C74.9,78.7,73,80.3,71,81.7 M62.7,90.5L62.7,90.5c1.6-0.4,3.2-1,4.8-1.8c-1.5,0.7-3.1,1.2-4.6,1.7v0.1
				C62.8,90.5,62.8,90.5,62.7,90.5z"/>
			<path style="fill:#4D4D4D;" d="M29,28.9L29,28.9l2.4-11.6c-0.7,0.4-1.5,0.9-2.2,1.4c-2,1.4-3.9,3-5.8,4.8l-0.1,0.1
				c-1.8,1.8-3.4,3.7-4.8,5.7c-0.4,0.7-0.9,1.4-1.3,2L29,28.9 M82.9,31.2c-1.6-2.8-3.6-5.4-6-7.8c-2.5-2.4-5.1-4.5-7.9-6.1l2.3,11.6
				L82.9,31.2 M31.4,82.9L31.4,82.9l-2.3-11.8l-11.8-2.3l0.1,0.1c1.6,2.8,3.7,5.5,6.2,8C26,79.2,28.6,81.2,31.4,82.9 M68.9,82.9
				c0.7-0.4,1.4-0.8,2-1.3c2-1.4,3.9-3,5.8-4.8l0.1-0.1c1.8-1.9,3.5-3.8,4.8-5.8c0.5-0.7,1-1.5,1.4-2.2L71.2,71v0.1L68.9,82.9z"/>
			<path style="fill:#D7D7D7;" d="M62.9,9.7L62.9,9.7c-8.1-2.6-16.6-2.6-25.4,0v0.1l0,0l-4.6,23l6.7,5.1c0.9-1.1,1.5-2.5,1.8-4
				l3.6-18c3.6-0.5,7.1-0.6,10.5-0.1l3.6,18c0.3,1.7,1,3.1,2.1,4.3l6.2-5.3l0.1-0.1L62.9,9.7z"/>
			<path style="fill:#D7D7D7;" d="M89.1,62.8L89.1,62.8c2.6-8.1,2.6-16.6,0-25.4H89l0,0l-23-4.6l-5.1,6.7c1.1,0.9,2.5,1.5,4,1.8
				l18,3.6c0.5,3.6,0.6,7.1,0.1,10.5L65,59c-1.7,0.3-3.1,1-4.3,2.1l5.3,6.2l0.1,0.1L89.1,62.8z"/>
			<path style="fill:#F5F5F5;" d="M62,60.1L62,60.1c0.1,0.1,0.1,0.1,0.1,0.2c1.1-0.8,2.3-1.4,3.8-1.7l17.3-3.5
				c0.5-3.3,0.5-6.7,0-10.1l-17.3-3.5c-1.4-0.3-2.7-0.8-3.8-1.7c0,0-0.1,0.1-0.1,0.2C57.5,46.8,57.5,53.5,62,60.1z"/>
			<path style="fill:#F5F5F5;" d="M60.2,38.3L60.2,38.3c0.1-0.1,0.1-0.1,0.2-0.1c-0.8-1.1-1.4-2.3-1.7-3.8l-3.5-17.3
				c-3.3-0.5-6.7-0.5-10.1,0l-3.5,17.3c-0.3,1.4-0.8,2.7-1.7,3.8c0,0,0.1,0.1,0.2,0.1C46.9,42.8,53.6,42.8,60.2,38.3z"/>
			<path style="fill:#888888;" d="M55.2,83.1c1-3.2,2.8-19.5,5.4-21.6c-1.5-2.9-1.9-7.2-1.7-11.4c0.2-6.1,1.5-11.9,1.4-12l-0.1,0.1
				c-6.6,4.5-13.3,4.5-20,0c-0.1,0-0.1-0.1-0.2-0.1v0.1c-2.5,4.4-18.6,5.3-22.8,6.7c-0.5,3.3-0.4,6.7,0.1,10.1
				c26.1,4.7,23,2.3,27.9,28C48.6,83.5,51.9,83.6,55.2,83.1z"/>
		</g>
	</g>
	<g>
		<path id="Layer1_0_1_STROKES" style="fill:none;stroke:#1F1F1F;stroke-width:4;stroke-linecap:round;stroke-linejoin:round;" d="
			M62.9,90.4C62.9,90.5,62.8,90.5,62.9,90.4c1.5-0.4,3.1-1,4.7-1.7C66,89.4,64.4,90,62.9,90.4l4.6-23.2v-0.1 M32.9,32.7L32.9,32.7
			L9.8,37.4H9.7v0.1c-1.9,5.9-2.4,12.1-1.4,18.4l0.8,4.3c0.2,0.8,0.4,1.7,0.7,2.5L33,67.2l4.6,23.3v0.1c8.8,2.6,17.2,2.6,25.2,0
			 M62.7,90.5L62.7,90.5c-8.1,2.6-16.5,2.6-25.3,0.1v-0.1C31,88.6,25.3,85.1,20.2,80S11.6,69.1,9.6,62.7c-0.2-0.8-0.5-1.7-0.7-2.5
			l-0.8-4.3c-0.9-6.4-0.5-12.5,1.4-18.5h0.1c0.5-1.6,1.1-3.2,1.8-4.7c2-4.5,4.9-8.6,8.7-12.4l0.1-0.1c3.8-3.8,7.9-6.7,12.4-8.7
			c1.5-0.7,3.1-1.3,4.8-1.8l0,0 M37.5,90.4L37.5,90.4L37.5,90.4 M37.4,90.4c-6.4-1.9-12-5.4-17.1-10.5S11.7,69.1,9.8,62.7H9.6
			 M90.6,62.6c-0.5,1.6-1.1,3.2-1.8,4.8c-2.1,4.5-5,8.7-8.8,12.5L79.9,80c-3.8,3.8-7.9,6.7-12.5,8.7 M9.8,37.4L9.8,37.4 M11.5,32.8
			c-0.7,1.5-1.2,3-1.7,4.6 M9.9,62.8C9.9,62.8,9.9,62.7,9.9,62.8"/>
	</g>
	<g>
		<path id="Layer1_0_2_STROKES" style="fill:none;stroke:#A0A0A0;stroke-width:4;stroke-linecap:round;stroke-linejoin:round;" d="
			M60.7,62.3L60.7,62.3c-0.8,1.1-1.3,2.3-1.5,3.6l-3.7,18.3h-0.1c-3.4,0.5-6.8,0.5-10.4,0L41.4,66c-0.3-1.9-1.2-3.4-2.5-4.7
			s-2.9-2.2-4.8-2.5L16,55.1c-0.5-3.5-0.5-6.9,0-10.3c0,0,0,0,0-0.1l18.2-3.6c1.3-0.3,2.5-0.8,3.6-1.6c0.4-0.3,0.7-0.6,1-0.9
			l0.1-0.1c0.1-0.1,0.2-0.2,0.3-0.3s0.3-0.3,0.4-0.4"/>
	</g>
	<g>
		<path id="Layer1_0_3_STROKES" style="fill:none;stroke:#404040;stroke-width:4;stroke-linecap:round;stroke-linejoin:round;" d="
			M37.5,9.7c8.8-2.6,17.3-2.6,25.4,0 M67.4,32.7l-4.5-23 M32.9,32.7l4.6-23l0,0"/>
	</g>
	<g>
		
			<path id="Layer1_0_3_STROKES_1_" style="fill:none;stroke:#404040;stroke-width:4;stroke-linecap:round;stroke-linejoin:round;" d="
			M90.6,37.4c2.6,8.8,2.6,17.3,0,25.4 M67.6,67.3l23-4.5 M67.6,32.8l23,4.6l0,0"/>
	</g>
	<g>
		<path id="Layer1_0_4_STROKES" style="fill:none;stroke:#FFFFFF;stroke-width:4;stroke-linecap:round;stroke-linejoin:round;" d="
			M41.4,33.8l3.6-18c3.6-0.5,7.1-0.6,10.5-0.1l3.6,18"/>
	</g>
	<g>
		
			<path id="Layer1_0_4_STROKES_1_" style="fill:none;stroke:#FFFFFF;stroke-width:4;stroke-linecap:round;stroke-linejoin:round;" d="
			M65.1,41.2l18,3.6c0.5,3.6,0.6,7.1,0.1,10.5l-18,3.6"/>
	</g>
	<g>
		<path id="Layer1_0_5_STROKES" style="fill:none;stroke:#FFFFFF;stroke-width:4;stroke-linejoin:round;" d="M59,33.8
			c0.3,1.7,1,3.1,2.1,4.3 M39.6,37.8c0.9-1.1,1.5-2.5,1.8-4"/>
	</g>
</g>
</svg>
