<?xml version="1.0" encoding="utf-8"?>
<!-- Generator: Adobe Illustrator 24.1.2, SVG Export Plug-In . SVG Version: 6.00 Build 0)  -->
<svg version="1.1" id="Layer_1" xmlns="http://www.w3.org/2000/svg" xmlns:xlink="http://www.w3.org/1999/xlink" x="0px" y="0px"
	 viewBox="0 0 100 100" style="enable-background:new 0 0 100 100;" xml:space="preserve">
<g transform="matrix( 1, 0, 0, 1, 0,0) ">
	<g>
		<g id="Layer1_0_FILL">
			<path style="fill:#313131;" d="M46,46.4c0.3-3.6-1.2-5.7-4.6-6.1c-12-0.9-21.9-2.4-29.7-4.6c-2.4,0-4.2,1-5.4,2.9
				C3.7,43,3.3,48.2,5.1,54c0.8,2.6,2.5,4.5,5,5.5c8.9,2.3,19.1,3.9,30.8,4.7c3,0.2,4.6-1.4,4.9-4.6C45.7,53,45.8,48.6,46,46.4
				 M40.1,46L40.1,46c-0.2,2.2-0.2,6.7-0.2,13.3c0,0.2-0.2,0.4-0.3,0.5C39.4,60,39.2,60,39,60l0,0c-10.5-0.8-19.9-2.3-28-4.5
				c-0.7-0.4-1.1-0.7-1.1-0.9c-0.7-0.9-1.3-2.6-1.5-4.8c-0.3-2.3-0.1-4.3,0.5-6c0.6-1.6,1.2-2.7,1.9-3.5c0.1-0.2,0.2-0.2,0.2-0.2
				c7.4,2.1,16.6,3.7,27.7,4.5C39.7,44.7,40.1,45.2,40.1,46 M11.1,55.5c-0.8-0.4-1.2-0.7-1.2-0.9C9.9,54.7,10.3,55.1,11.1,55.5
				c8,2.2,17.3,3.7,27.9,4.5l0,0c0.2,0,0.4,0,0.5-0.1C28.8,59,19.4,57.6,11.1,55.5z"/>
			<path style="fill:#4F4F4F;" d="M40.1,46L40.1,46c0-0.9-0.4-1.4-1.2-1.5c-11.1-0.9-20.4-2.4-27.7-4.5c0,0-0.1,0.1-0.2,0.2
				c-0.7,0.7-1.3,1.9-1.9,3.5c-0.6,1.7-0.8,3.7-0.5,6s0.8,3.9,1.5,4.8c0,0.2,0.4,0.5,1.2,0.9c8.3,2.1,17.7,3.6,28.4,4.4
				c0.2-0.1,0.3-0.3,0.3-0.5C39.8,52.7,39.9,48.3,40.1,46 M26,47.1c0.3,0,0.6,0.1,0.8,0.2c0.3,0.1,0.6,0.2,0.8,0.4
				c0.2,0.2,0.4,0.4,0.5,0.6c0.1,0.3,0.2,0.6,0.2,1s-0.1,0.8-0.3,1c-0.2,0.2-0.5,0.4-0.8,0.4l0,0c0.2,0.1,0.4,0.2,0.6,0.3
				s0.3,0.3,0.4,0.4c0.1,0.2,0.2,0.4,0.3,0.6c0.1,0.2,0.1,0.5,0.1,0.7c0,0.4-0.1,0.7-0.2,0.9s-0.3,0.4-0.6,0.5
				c-0.2,0.1-0.5,0.2-0.7,0.2c-0.3,0-0.6,0-0.9,0l-2.7-0.4v-7.4L26,47.1 M18.7,45.9l1.4,0.2V52l2.7,0.4v1.5l-4.1-0.6V45.9
				 M26.4,51.5c-0.1,0-0.2-0.1-0.3-0.1L25,51.3V53l1.2,0.2c0.1,0,0.2,0,0.3,0c0.1,0,0.2,0,0.3-0.1c0.1,0,0.2-0.1,0.2-0.2
				c0-0.1,0.1-0.2,0.1-0.4s0-0.3-0.1-0.4c-0.1-0.1-0.2-0.2-0.3-0.3C26.7,51.6,26.6,51.5,26.4,51.5 M26.9,49.7c0-0.1,0.1-0.2,0.1-0.4
				c0-0.1,0-0.3-0.1-0.4c0-0.1-0.1-0.2-0.2-0.3s-0.2-0.1-0.3-0.2c-0.1,0-0.2-0.1-0.3-0.1H25v1.6l1,0.1c0.1,0,0.2,0,0.3,0
				c0.1,0,0.2-0.1,0.3-0.1C26.7,49.9,26.8,49.8,26.9,49.7z"/>
			<path style="fill:#999999;" d="M20.2,46.1l-1.4-0.2v7.4l4.1,0.6v-1.5L20.2,52V46.1 M26.8,47.3c-0.3-0.1-0.6-0.1-0.8-0.2l-2.4-0.4
				v7.4l2.7,0.4c0.3,0,0.6,0.1,0.9,0c0.3,0,0.5-0.1,0.7-0.2c0.2-0.1,0.4-0.3,0.6-0.5s0.2-0.5,0.2-0.9c0-0.2,0-0.5-0.1-0.7
				s-0.2-0.4-0.3-0.6c-0.1-0.2-0.3-0.3-0.4-0.4c-0.2-0.1-0.4-0.2-0.6-0.3l0,0c0.3,0,0.6-0.2,0.8-0.4c0.2-0.2,0.3-0.6,0.3-1
				s-0.1-0.7-0.2-1c-0.1-0.2-0.3-0.5-0.5-0.6C27.4,47.5,27.1,47.4,26.8,47.3 M26.9,49.4c0,0.1,0,0.3-0.1,0.4c0,0.1-0.1,0.2-0.2,0.2
				c-0.1,0.1-0.2,0.1-0.3,0.1c-0.1,0-0.2,0-0.3,0L25,50v-1.6l0.9,0.1c0.1,0,0.2,0,0.3,0.1c0.1,0,0.2,0.1,0.3,0.2
				c0.1,0.1,0.2,0.2,0.2,0.3C26.9,49.1,26.9,49.2,26.9,49.4 M26.1,51.4c0.1,0,0.2,0,0.3,0.1c0.1,0,0.3,0.1,0.4,0.2
				c0.1,0.1,0.2,0.2,0.3,0.3c0.1,0.1,0.1,0.2,0.1,0.4c0,0.1,0,0.3-0.1,0.4c0,0.1-0.1,0.2-0.2,0.2s-0.2,0.1-0.3,0.1
				c-0.1,0-0.2,0-0.3,0L25,52.9v-1.7L26.1,51.4z"/>
		</g>
	</g>
	<g>
		<path style="fill:none;stroke:#626262;stroke-width:4;stroke-linecap:round;stroke-linejoin:round;" d="M9.9,54.5
			c-0.7-0.9-1.3-2.6-1.5-4.8c-0.3-2.3-0.1-4.3,0.5-6c0.6-1.6,1.2-2.7,1.9-3.5C10.9,40,11,40,11,40c7.4,2.1,16.6,3.7,27.7,4.5
			c0.8,0.1,1.3,0.6,1.2,1.5l0,0c-0.2,2.2-0.2,6.7-0.2,13.3c0,0.2-0.2,0.4-0.3,0.5c0,0.2-0.2,0.2-0.4,0.2l0,0
			c-10.5-0.8-19.9-2.3-28-4.5C10.3,55.1,9.9,54.7,9.9,54.5z"/>
	</g>
	<g>
		<path style="fill:none;stroke:#1B1B1B;stroke-width:5;stroke-linecap:round;stroke-linejoin:round;" d="M45.7,59.6
			c0-6.6,0.1-11,0.3-13.2c0.3-3.6-1.2-5.7-4.6-6.1c-12-0.9-21.9-2.4-29.7-4.6c-2.4,0-4.2,1-5.4,2.9C3.7,43,3.3,48.2,5.1,54
			c0.8,2.6,2.5,4.5,5,5.5c8.9,2.3,19.1,3.9,30.8,4.7C43.8,64.4,45.5,62.9,45.7,59.6z"/>
	</g>
</g>
<g transform="matrix( 1, 0, 0, 1, 0,0) ">
	<g>
		<g id="Layer1_0_FILL_1_">
			<path style="fill:#313131;" d="M94.9,54c1.8-5.8,1.3-10.9-1.2-15.4c-1.1-1.9-2.9-2.9-5.4-2.9c-7.8,2.2-17.7,3.7-29.7,4.6
				c-3.4,0.4-4.9,2.5-4.6,6.1c0.2,2.2,0.3,6.6,0.3,13.2c0.2,3.3,1.9,4.8,4.9,4.6c11.6-0.8,21.9-2.4,30.8-4.7
				C92.5,58.5,94.1,56.7,94.9,54 M91.1,43.7c0.6,1.7,0.8,3.7,0.5,6s-0.8,3.9-1.5,4.8c0,0.2-0.3,0.5-1.1,0.9
				c-8.1,2.2-17.4,3.7-28,4.5l0,0c-0.2,0-0.4,0-0.5-0.1c-0.2-0.1-0.3-0.3-0.3-0.5c0-6.6-0.1-11.1-0.2-13.3l0,0
				c0-0.9,0.4-1.4,1.2-1.5c11.1-0.9,20.4-2.4,27.7-4.5c0,0,0.1,0.1,0.2,0.2C89.8,41,90.5,42.2,91.1,43.7 M60.5,59.9
				C60.6,60,60.8,60,61,60l0,0c10.5-0.8,19.9-2.3,28-4.5c0.7-0.4,1.1-0.7,1.1-0.9c0,0.2-0.4,0.5-1.2,0.9
				C80.6,57.6,71.2,59,60.5,59.9z"/>
			<path style="fill:#4F4F4F;" d="M91.6,49.7c0.3-2.3,0.1-4.3-0.5-6c-0.6-1.6-1.2-2.7-1.9-3.5C89,40.1,88.9,40,88.9,40
				c-7.4,2.1-16.6,3.7-27.7,4.5c-0.8,0.1-1.3,0.6-1.2,1.5l0,0c0.2,2.2,0.2,6.7,0.2,13.3c0,0.2,0.2,0.4,0.3,0.5
				c10.6-0.8,20.1-2.3,28.4-4.4c0.8-0.4,1.2-0.7,1.2-0.9C90.8,53.6,91.3,52,91.6,49.7 M74,47c0.3,0,0.6,0,0.9,0s0.6,0.1,0.8,0.3
				c0.2,0.1,0.4,0.3,0.5,0.6s0.2,0.6,0.2,1.1s-0.1,1-0.3,1.4s-0.6,0.7-1,0.8l1.6,2.9L75,54.3l-1.3-2.8L73,51.6v3l-1.4,0.2v-7.4
				L74,47 M77.4,46.6l2.4-0.3c0.3,0,0.6-0.1,0.8-0.1c0.3,0,0.6,0.1,0.8,0.2c0.2,0.1,0.4,0.3,0.5,0.5s0.2,0.5,0.2,0.9
				s-0.1,0.8-0.3,1.1c-0.2,0.3-0.5,0.5-0.8,0.7l0,0c0.2,0,0.4,0.1,0.6,0.1c0.2,0.1,0.3,0.2,0.4,0.3s0.2,0.3,0.3,0.5
				c0.1,0.2,0.1,0.4,0.1,0.6c0,0.4-0.1,0.7-0.2,1s-0.3,0.5-0.6,0.7c-0.2,0.2-0.5,0.3-0.7,0.4c-0.3,0.1-0.6,0.2-0.9,0.2L77.4,54V46.6
				 M81.1,51.3c0-0.2,0-0.3-0.1-0.4c-0.1-0.1-0.2-0.2-0.3-0.2s-0.2-0.1-0.4-0.1c-0.1,0-0.3,0-0.4,0l-1.1,0.1v1.7l1.3-0.2
				c0.1,0,0.2,0,0.3-0.1c0.1,0,0.2-0.1,0.3-0.2c0.1-0.1,0.1-0.2,0.2-0.3C81.1,51.5,81.1,51.4,81.1,51.3 M78.9,47.8v1.6l1-0.1
				c0.1,0,0.2,0,0.3-0.1c0.1,0,0.2-0.1,0.3-0.2c0.1,0,0.2-0.1,0.2-0.3c0-0.1,0.1-0.2,0.1-0.4s0-0.3-0.1-0.4c0-0.1-0.1-0.2-0.2-0.2
				s-0.2-0.1-0.3-0.1c-0.1,0-0.2,0-0.3,0L78.9,47.8 M73.9,48.4L73,48.5v1.7l0.8-0.1c0.1,0,0.3,0,0.4-0.1c0.1,0,0.3-0.1,0.4-0.1
				s0.2-0.1,0.3-0.3c0.1-0.1,0.1-0.3,0.1-0.5s0-0.3-0.1-0.4s-0.1-0.2-0.2-0.2s-0.2-0.1-0.3-0.1C74.1,48.4,74,48.4,73.9,48.4z"/>
			<path style="fill:#999999;" d="M79.8,46.3l-2.4,0.3V54l2.7-0.3c0.3,0,0.6-0.1,0.9-0.2c0.3-0.1,0.5-0.2,0.7-0.4s0.4-0.4,0.6-0.7
				s0.2-0.6,0.2-1c0-0.2,0-0.4-0.1-0.6c-0.1-0.2-0.2-0.4-0.3-0.5c-0.1-0.1-0.3-0.2-0.4-0.3c-0.2-0.1-0.4-0.1-0.6-0.1l0,0
				c0.3-0.1,0.6-0.4,0.8-0.7c0.2-0.3,0.3-0.6,0.3-1.1c0-0.4-0.1-0.7-0.2-0.9s-0.3-0.4-0.5-0.5s-0.5-0.2-0.8-0.2
				C80.4,46.2,80.1,46.2,79.8,46.3 M78.9,49.4v-1.6l0.9-0.1c0.1,0,0.2,0,0.3,0c0.1,0,0.2,0,0.3,0.1c0.1,0.1,0.1,0.1,0.2,0.2
				c0.1,0.1,0.1,0.2,0.1,0.4s0,0.3-0.1,0.4c0,0.1-0.1,0.2-0.2,0.3s-0.2,0.1-0.3,0.2c-0.1,0-0.2,0.1-0.3,0.1L78.9,49.4 M81,50.9
				c0.1,0.1,0.1,0.2,0.1,0.4c0,0.1,0,0.3-0.1,0.4c0,0.1-0.1,0.2-0.2,0.3s-0.2,0.1-0.3,0.2c-0.1,0-0.2,0.1-0.3,0.1l-1.3,0.2v-1.7
				l1.1-0.1c0.1,0,0.2,0,0.4,0c0.1,0,0.3,0,0.4,0.1S80.9,50.8,81,50.9 M75,47c-0.3,0-0.6,0-0.9,0l-2.5,0.3v7.4l1.4-0.2v-3l0.7-0.1
				l1.3,2.8l1.7-0.2l-1.6-2.9c0.5-0.1,0.8-0.4,1-0.8s0.3-0.9,0.3-1.4c0-0.4-0.1-0.8-0.2-1.1s-0.3-0.5-0.5-0.6
				C75.5,47.1,75.3,47,75,47 M72.9,48.5l0.9-0.1c0.1,0,0.2,0,0.4,0c0.1,0,0.2,0,0.3,0.1c0.1,0,0.2,0.1,0.2,0.2s0.1,0.2,0.1,0.4
				s0,0.4-0.1,0.5s-0.2,0.2-0.3,0.3C74.3,50,74.2,50,74,50c-0.1,0-0.3,0.1-0.4,0.1l-0.8,0.1v-1.7H72.9z"/>
		</g>
	</g>
	<g>
		<path style="fill:none;stroke:#626262;stroke-width:4;stroke-linecap:round;stroke-linejoin:round;" d="M90.1,54.5
			c0.7-0.9,1.3-2.6,1.5-4.8c0.3-2.3,0.1-4.3-0.5-6c-0.6-1.6-1.2-2.7-1.9-3.5C89,40.1,88.9,40,88.9,40c-7.4,2.1-16.6,3.7-27.7,4.5
			c-0.8,0.1-1.3,0.6-1.2,1.5l0,0c0.2,2.2,0.2,6.7,0.2,13.3c0,0.2,0.2,0.4,0.3,0.5 M90.1,54.5c0,0.2-0.3,0.5-1.1,0.9
			c-8.1,2.2-17.4,3.7-28,4.5l0,0c-0.2,0-0.4,0-0.5-0.1"/>
	</g>
	<g>
		<path style="fill:none;stroke:#1B1B1B;stroke-width:5;stroke-linecap:round;stroke-linejoin:round;" d="M88.3,35.7
			c2.4,0,4.2,1,5.4,2.9c2.6,4.4,3,9.6,1.2,15.4c-0.8,2.6-2.5,4.5-5,5.5c-8.9,2.3-19.1,3.9-30.8,4.7c-3,0.2-4.6-1.4-4.9-4.6
			c0-6.6-0.1-11-0.3-13.2c-0.3-3.6,1.2-5.7,4.6-6.1C70.7,39.4,80.5,37.9,88.3,35.7z"/>
	</g>
</g>
</svg>
