
<svg xmlns="http://www.w3.org/2000/svg" version="1.1" xmlns:xlink="http://www.w3.org/1999/xlink" x="0px" y="0px" viewBox="0 0 100 100">
<defs>
<g id="Layer1_0_FILL">
<path fill="#D7D7D7" stroke="none" d="
M 62.65 90.45
Q 61.8283203125 90.6896484375 61 90.9 61.88125 90.7033203125 62.75 90.45
L 62.75 90.4 62.75 90.35
Q 62.703515625 90.38359375 62.65 90.4
L 62.65 90.45
M 32.75 67.35
L 32.75 67.4 37.3 90.35 37.3 90.4 37.35 90.45
Q 38.5267578125 90.8244140625 39.7 91.1 44.6556640625 92.3748046875 49.75 92.35 55.28984375 92.375 61 90.9 61.8283203125 90.6896484375 62.65 90.45
L 62.65 90.4 67.25 67.4 60.65 62.35 60.6 62.3
Q 59.2 64 58.8 66.3
L 55.2 84.25
Q 54.53125 84.35 53.85 84.4
L 49.9 84.65
Q 47.9943359375 84.672265625 46.1 84.45 45.4244140625 84.39921875 44.75 84.3
L 41.15 66.3
Q 40.705859375 63.8330078125 39.1 62 39.071875 61.9744140625 39.05 61.95
L 32.75 67.35 Z"/>

<path fill="#353535" stroke="none" d="
M 37.3 90.4
L 37.3 90.35 32.75 67.4 9.65 62.8
Q 12.6 72.3 20.15 79.85 27.75 87.45 37.3 90.4
M 31.15 82.75
L 31.2 82.85
Q 27 80.35 23.3 76.7 19.7 73.05 17.25 68.9
L 28.9 71.25 31.15 82.75
M 37.35 9.65
L 37.35 9.65
Q 27.75 12.55 20.15 20.15 12.5 27.8 9.55 37.45
L 32.7 32.9 37.35 9.65
M 31.25 17.2
L 31.2 17.25 28.85 29.05 17.05 31.4
Q 19.55 27.1 23.3 23.35 27.05 19.6 31.25 17.2
M 90.35 62.75
L 90.35 62.75 67.3 67.35 67.25 67.4 62.65 90.4
Q 62.703515625 90.38359375 62.75 90.35 72.2923828125 87.4076171875 79.85 79.85 87.44140625 72.25859375 90.35 62.75
M 82.75 68.85
L 82.7 68.85
Q 80.33984375 73.01015625 76.65 76.7 73.048828125 80.301171875 68.85 82.75 68.80703125 82.8166015625 68.75 82.85
L 71.1 71.2 82.75 68.85
M 90.45 62.75
L 90.35 62.75
Q 87.44140625 72.25859375 79.85 79.85 72.2923828125 87.4076171875 62.75 90.35
L 62.75 90.4
Q 72.35 87.45 79.95 79.85 87.55 72.25 90.45 62.75
M 90.4 37.4
L 90.5 37.45
Q 87.6169921875 27.8169921875 79.95 20.15 72.35 12.55 62.75 9.65
L 62.75 9.65
Q 72.2921875 12.5921875 79.85 20.15 87.50859375 27.80859375 90.4 37.4
M 90.4 37.45
L 90.4 37.4
Q 87.50859375 27.80859375 79.85 20.15 72.2921875 12.5921875 62.75 9.65 62.7033203125 9.666015625 62.65 9.65
L 67.25 32.9 90.4 37.45
M 82.85 31.35
L 82.9 31.4 71.05 29.05 68.7 17.15
Q 68.756640625 17.1826171875 68.8 17.2 72.99921875 19.65 76.65 23.35 80.440234375 27.090234375 82.85 31.35 Z"/>

<path fill="#4D4D4D" stroke="none" d="
M 31.2 82.85
L 31.15 82.75 28.9 71.25 17.25 68.9
Q 19.7 73.05 23.3 76.7 27 80.35 31.2 82.85
M 31.2 17.25
L 31.25 17.2
Q 27.05 19.6 23.3 23.35 19.55 27.1 17.05 31.4
L 28.85 29.05 31.2 17.25
M 82.7 68.85
L 82.75 68.85 71.1 71.2 68.75 82.85
Q 68.80703125 82.8166015625 68.85 82.75 73.048828125 80.301171875 76.65 76.7 80.33984375 73.01015625 82.7 68.85
M 82.9 31.4
L 82.85 31.35
Q 80.440234375 27.090234375 76.65 23.35 72.99921875 19.65 68.8 17.2 68.756640625 17.1826171875 68.7 17.15
L 71.05 29.05 82.9 31.4 Z"/>

<path fill="#6E6E6E" stroke="none" d="
M 62.65 9.65
Q 62.7033203125 9.666015625 62.75 9.65
L 62.75 9.65 62.75 9.6
Q 61.88125 9.3466796875 61 9.15 61.8283203125 9.3603515625 62.65 9.6
L 62.65 9.65
M 84.2 55.35
Q 84.95 50.25 84.15 44.95
L 66.05 41.35
Q 63.3 40.8 61.3 38.8 59.3 36.85 58.8 34.05
L 55.2 15.85
Q 49.85 15.05 44.75 15.8
L 41.1 34.1
Q 40.6 36.85 38.55 38.8 36.6 40.8 33.85 41.35
L 15.75 44.95
Q 14.95 50.25 15.7 55.35
L 33.9 59
Q 36.7 59.55 38.65 61.55 38.85 61.75 39.05 61.95 39.071875 61.9744140625 39.1 62 40.705859375 63.8330078125 41.15 66.3
L 44.75 84.3
Q 45.4244140625 84.39921875 46.1 84.45 47.9943359375 84.672265625 49.9 84.65
L 53.85 84.4
Q 54.53125 84.35 55.2 84.25
L 58.8 66.3
Q 59.2 64 60.6 62.3 60.95 61.9 61.3 61.55 63.3 59.55 66 59
L 84.2 55.35
M 82.95 45.1
Q 83.7 50.2 83 55.15
L 65.45 58.65
Q 62.85 59.2 60.9 61.1 60.5 61.5 60.15 61.95 58.9 63.6 58.5 65.7
L 55.05 83
Q 54.40625 83.09375 53.75 83.15
L 49.95 83.4
Q 48.094140625 83.3974609375 46.25 83.2 45.6056640625 83.1427734375 44.95 83.05
L 41.5 65.7
Q 41.1 63.6 39.85 61.95 39.5 61.5 39.1 61.1 37.2 59.2 34.5 58.65
L 16.95 55.15
Q 16.25 50.2 17 45.1
L 34.45 41.65
Q 37.1 41.1 39 39.2 40.95 37.3 41.45 34.65
L 44.95 17
Q 45.578515625 16.9111328125 46.2 16.85
L 53.7 16.85
Q 54.3779296875 16.9521484375 55.05 17.05
L 58.5 34.6
Q 59 37.3 60.9 39.2 62.85 41.1 65.5 41.65
L 82.95 45.1
M 91.85 44.25
L 91.05 39.95
Q 90.76015625 38.6830078125 90.4 37.45
L 67.25 32.9 62.65 9.65 62.65 9.6
Q 61.8283203125 9.3603515625 61 9.15 55.664453125 7.88359375 49.75 7.65 44.75 7.837890625 39.7 8.9 38.5265625 9.2255859375 37.35 9.6
L 37.35 9.65 37.35 9.65 32.7 32.9 9.55 37.45
Q 5.7 50.7 9.55 62.75
L 9.65 62.8 32.75 67.4 32.75 67.35 39.05 61.95
Q 38.85 61.75 38.65 61.55 36.7 59.55 33.9 59
L 15.7 55.35
Q 14.95 50.25 15.75 44.95
L 33.85 41.35
Q 36.6 40.8 38.55 38.8 40.6 36.85 41.1 34.1
L 44.75 15.8
Q 49.85 15.05 55.2 15.85
L 58.8 34.05
Q 59.3 36.85 61.3 38.8 63.3 40.8 66.05 41.35
L 84.15 44.95
Q 84.95 50.25 84.2 55.35
L 66 59
Q 63.3 59.55 61.3 61.55 60.95 61.9 60.6 62.3
L 60.65 62.35 67.25 67.4 67.3 67.35 90.35 62.75 90.4 62.75
Q 93.25 53.8 91.85 44.25
M 91.05 39.95
L 91.85 44.25
Q 93.25 53.8 90.4 62.75
L 90.35 62.75 90.35 62.75 90.45 62.75 90.5 62.75
Q 93.35 53.8 91.95 44.25
L 91.15 39.95
Q 90.86015625 38.6830078125 90.5 37.45
L 90.4 37.4 90.4 37.45
Q 90.76015625 38.6830078125 91.05 39.95 Z"/>

<path fill="#F5F5F5" stroke="none" d="
M 39.9 61.9
Q 39.882421875 61.9275390625 39.85 61.95 41.1 63.6 41.5 65.7
L 44.95 83.05
Q 45.6056640625 83.1427734375 46.25 83.2 48.094140625 83.3974609375 49.95 83.4
L 53.75 83.15
Q 54.40625 83.09375 55.05 83
L 58.5 65.7
Q 58.9 63.6 60.15 61.95 49.9330078125 54.9724609375 39.9 61.9 Z"/>

<path fill="#888888" stroke="none" d="
M 83 55.15
Q 83.7 50.2 82.95 45.1
L 65.5 41.65
Q 62.85 41.1 60.9 39.2 59 37.3 58.5 34.6
L 55.05 17.05
Q 54.3779296875 16.9521484375 53.7 16.85
L 46.2 16.85
Q 45.578515625 16.9111328125 44.95 17
L 41.45 34.65
Q 40.95 37.3 39 39.2 37.1 41.1 34.45 41.65
L 17 45.1
Q 16.25 50.2 16.95 55.15
L 34.5 58.65
Q 37.2 59.2 39.1 61.1 39.5 61.5 39.85 61.95 39.882421875 61.9275390625 39.9 61.9 49.9330078125 54.9724609375 60.15 61.95 60.5 61.5 60.9 61.1 62.85 59.2 65.45 58.65
L 83 55.15 Z"/>
</g>

<path id="Layer1_0_1_STROKES" stroke="#1F1F1F" stroke-width="4" stroke-linejoin="round" stroke-linecap="round" fill="none" d="
M 90.4 37.45
Q 90.76015625 38.6830078125 91.05 39.95
L 91.85 44.25
Q 93.25 53.8 90.4 62.75
L 90.35 62.75 90.35 62.775 90.45 62.75 90.5 62.75
Q 93.35 53.8 91.95 44.25
L 91.15 39.95
Q 90.86015625 38.6830078125 90.5 37.45
L 90.4 37.425 90.4 37.45 67.25 32.9 62.65 9.65 62.65 9.6
Q 61.8283203125 9.3603515625 61.025 9.15 55.664453125 7.88359375 49.775 7.675 44.75 7.837890625 39.725 8.925 38.5265625 9.2255859375 37.35 9.6
L 37.35 9.65 37.35 9.675 32.7 32.9 9.55 37.45
Q 5.7 50.7 9.55 62.75
L 9.65 62.8 32.75 67.4
M 67.25 67.4
L 67.325 67.375 90.35 62.75
M 62.65 9.65
Q 62.7033203125 9.666015625 62.75 9.675
L 62.75 9.65 62.75 9.6
Q 61.88125 9.3466796875 61.025 9.15
M 62.75 9.65
Q 72.35 12.55 79.95 20.15 87.6169921875 27.8169921875 90.5 37.45
M 62.75 9.675
Q 72.2921875 12.5921875 79.85 20.15 87.50859375 27.80859375 90.4 37.425
M 9.55 37.45
Q 12.5 27.8 20.15 20.15 27.75 12.55 37.35 9.65
M 37.3 90.4
L 37.35 90.45
M 62.65 90.45
L 62.65 90.4
M 37.3 90.4
Q 27.75 87.45 20.15 79.85 12.6 72.3 9.65 62.8
M 62.75 90.375
Q 62.703515625 90.38359375 62.65 90.4
M 62.75 90.45
L 62.75 90.4
Q 72.35 87.45 79.95 79.85 87.55 72.25 90.45 62.75
M 62.75 90.375
Q 72.2923828125 87.4076171875 79.85 79.85 87.44140625 72.25859375 90.35 62.775"/>

<path id="Layer1_0_2_STROKES" stroke="#FFFFFF" stroke-width="4" stroke-linejoin="round" stroke-linecap="round" fill="none" d="
M 41.15 66.3
L 44.75 84.3
Q 45.4244140625 84.39921875 46.1 84.475 47.9943359375 84.672265625 49.925 84.675
L 53.875 84.425
Q 54.53125 84.35 55.2 84.25
L 58.8 66.3"/>

<path id="Layer1_0_3_STROKES" stroke="#404040" stroke-width="4" stroke-linejoin="round" stroke-linecap="round" fill="none" d="
M 32.75 67.4
L 37.3 90.375 37.3 90.4
M 37.35 90.45
Q 38.5267578125 90.8244140625 39.725 91.125 44.6556640625 92.3748046875 49.775 92.375 55.28984375 92.375 61.025 90.9 61.8283203125 90.6896484375 62.65 90.45
M 62.65 90.4
L 67.25 67.4
M 62.75 90.4
L 62.75 90.375
M 61.025 90.9
Q 61.88125 90.7033203125 62.75 90.45"/>

<path id="Layer1_0_4_STROKES" stroke="#A0A0A0" stroke-width="4" stroke-linejoin="round" stroke-linecap="round" fill="none" d="
M 39.05 61.95
Q 38.85 61.75 38.65 61.55 36.7 59.55 33.9 59
L 15.7 55.35
Q 14.95 50.25 15.75 44.95
L 33.85 41.35
Q 36.6 40.8 38.55 38.8 40.6 36.85 41.1 34.1
L 44.75 15.8
Q 49.85 15.05 55.2 15.85
L 58.8 34.05
Q 59.3 36.85 61.3 38.8 63.3 40.8 66.05 41.35
L 84.15 44.95
Q 84.95 50.25 84.2 55.35
L 66 59
Q 63.3 59.55 61.3 61.55 60.95 61.9 60.6 62.3"/>

<path id="Layer1_0_5_STROKES" stroke="#FFFFFF" stroke-width="4" stroke-linejoin="round" stroke-linecap="butt" fill="none" d="
M 39.05 61.95
Q 39.071875 61.9744140625 39.1 62 40.705859375 63.8330078125 41.15 66.3
M 58.8 66.3
Q 59.2 64 60.6 62.3"/>

</defs>

<g transform="matrix( 1, 0, 0, 1, 0,0) ">
<use xlink:href="#Layer1_0_FILL"/>

<use xlink:href="#Layer1_0_1_STROKES"/>

<use xlink:href="#Layer1_0_2_STROKES"/>

<use xlink:href="#Layer1_0_3_STROKES"/>

<use xlink:href="#Layer1_0_4_STROKES"/>

<use xlink:href="#Layer1_0_5_STROKES"/>
</g>

<g transform="matrix( 1, 0, 0, 1, -3.4,-28) ">
<clipPath id="Mask_Mask_1">
<rect x="19.6" y="-2" width="67.6" height="20.8" fill="#FFFFFF" stroke="none"/>
</clipPath>

<text clip-path="url(#Mask_Mask_1)" writing-mode="lr"><tspan x="21.7" y="13.6" baseline-shift="0%" kerning="auto" font-family="Arial_Regular" font-size="15" fill="#999999" xml:space="preserve">Xbox 360</tspan></text>
</g>
</svg>
