<?xml version="1.0" encoding="utf-8"?>
<!-- Generator: Adobe Illustrator 24.1.2, SVG Export Plug-In . SVG Version: 6.00 Build 0)  -->
<svg version="1.1" id="Layer_1" xmlns="http://www.w3.org/2000/svg" xmlns:xlink="http://www.w3.org/1999/xlink" x="0px" y="0px"
	 viewBox="0 0 100 100" style="enable-background:new 0 0 100 100;" xml:space="preserve">
<g transform="matrix( 1, 0, 0, 1, 0,0) ">
	<g>
		<g id="Layer1_0_FILL">
			<path style="fill:#313131;" d="M46,66.2l-1.6-28.5c-0.9-8.8-6.7-12.6-17.4-11.3C19.4,27.7,13.3,33,9,42.3
				c-4,9.9-5.6,20.4-4.8,31.5L46,66.2 M33.3,31.4c0.9,0.2,1.7,0.6,2.4,1.2c1.3,1.1,2.2,2.5,2.5,4.2c0.1,0.3,0.1,0.5,0.2,0.8
				c0,0.3,0.1,0.5,0.1,0.8l1.4,24.9L19.3,67V41.6c0-0.4,0.1-0.9,0.1-1.3c0.2-2,0.8-3.7,1.9-5.3c0.4-0.5,0.8-1,1.3-1.4
				c1.3-1.2,2.9-2,4.7-2.2C29.2,30.9,31.3,30.9,33.3,31.4z"/>
			<path style="fill:#4F4F4F;" d="M35.7,32.6c-0.7-0.6-1.5-1-2.4-1.2c-2-0.4-4-0.5-6.1-0.1c-1.8,0.3-3.3,1-4.7,2.2
				c-0.5,0.4-0.9,0.9-1.3,1.4c-1.1,1.6-1.7,3.3-1.9,5.3c0,0.4-0.1,0.9-0.1,1.3V67l20.7-3.8l-1.4-24.9c0-0.3-0.1-0.6-0.1-0.8
				c-0.1-0.3-0.1-0.5-0.2-0.8C37.9,35.1,37,33.7,35.7,32.6 M36.3,52.6v1.7l-2.5,0.4v6.8L32,61.8V55l-2.5,0.4v-1.7L36.3,52.6
				 M23.7,54.6l1.9-0.3v6.8l3.6-0.5v1.7l-5.5,0.9V54.6z"/>
			<path style="fill:#999999;" d="M25.6,54.3l-1.9,0.3v8.5l5.5-0.9v-1.7L25.6,61V54.3 M36.3,54.3v-1.7l-6.9,1.1v1.7l2.5-0.4v6.8
				l1.9-0.3v-6.8L36.3,54.3z"/>
		</g>
	</g>
	<g>
		<path id="Layer1_0_1_STROKES" style="fill:none;stroke:#626262;stroke-width:4;stroke-linecap:round;stroke-linejoin:round;" d="
			M35.7,32.6c-0.7-0.6-1.5-1-2.4-1.2c-2-0.4-4-0.5-6.1-0.1c-1.8,0.3-3.3,1-4.7,2.2c-0.5,0.4-0.9,0.9-1.3,1.4
			c-1.1,1.6-1.7,3.3-1.9,5.3c0,0.4-0.1,0.9-0.1,1.3V67l20.7-3.8l-1.4-24.9c0-0.3-0.1-0.6-0.1-0.8c-0.1-0.3-0.1-0.5-0.2-0.8
			C37.9,35.1,37,33.7,35.7,32.6z"/>
	</g>
	<g>
		<path id="Layer1_0_2_STROKES" style="fill:none;stroke:#1B1B1B;stroke-width:5;stroke-linecap:round;stroke-linejoin:round;" d="
			M46,66.2l-1.6-28.5c-0.9-8.8-6.7-12.6-17.4-11.3C19.4,27.7,13.3,33,9,42.3c-4,9.9-5.6,20.4-4.8,31.5L46,66.2z"/>
	</g>
</g>
<g transform="matrix( 1, 0, 0, 1, 0,0) ">
	<g>
		<g id="Layer1_0_FILL_1_">
			<path style="fill:#313131;" d="M91,42.3C86.7,33,80.6,27.7,72.9,26.4c-10.7-1.3-16.5,2.5-17.4,11.3L54,66.2l41.8,7.7
				C96.6,62.7,95,52.2,91,42.3 M80.6,40.3c0,0.4,0.1,0.9,0.1,1.3V67L60,63.2l1.4-24.9c0-0.3,0.1-0.6,0.1-0.8
				c0.1-0.3,0.1-0.5,0.2-0.8c0.3-1.7,1.2-3.1,2.5-4.2c0.7-0.6,1.5-1,2.4-1.2c2-0.4,4-0.5,6.1-0.1c1.8,0.3,3.3,1,4.7,2.2
				c0.5,0.4,0.9,0.9,1.3,1.4C79.8,36.5,80.5,38.3,80.6,40.3z"/>
			<path style="fill:#4F4F4F;" d="M80.7,41.6c0-0.4-0.1-0.9-0.1-1.3c-0.2-2-0.8-3.7-1.9-5.3c-0.4-0.5-0.8-1-1.3-1.4
				c-1.3-1.2-2.9-2-4.7-2.2c-2-0.4-4-0.4-6.1,0.1c-0.9,0.2-1.7,0.6-2.4,1.2c-1.3,1.1-2.2,2.5-2.5,4.2c-0.1,0.3-0.1,0.5-0.2,0.8
				c0,0.3-0.1,0.5-0.1,0.8L60,63.4L80.7,67V41.6 M67.4,53.1c0.4,0.1,0.9,0.2,1.2,0.3c0.4,0.1,0.7,0.3,1,0.6c0.3,0.2,0.5,0.5,0.7,0.9
				s0.2,0.8,0.2,1.3c0,0.6-0.2,1.1-0.5,1.5s-0.8,0.5-1.4,0.5l2,4l-2.3-0.4l-1.6-3.7l-0.9-0.2l-0.2,3.4l-2-0.3l0.4-8.4L67.4,53.1
				 M77.9,56.6l-2.5-0.4L75.1,63l-1.9-0.3l0.3-6.8L71,55.5l0.1-1.6l6.8,1.2V56.6 M65.9,54.4l-0.1,1.9l1.1,0.2c0.2,0,0.3,0,0.5,0.1
				c0.2,0,0.4,0,0.5,0c0.2,0,0.3-0.1,0.4-0.2c0.1-0.1,0.2-0.3,0.2-0.5s0-0.4-0.1-0.5s-0.2-0.2-0.3-0.3c-0.1-0.1-0.3-0.2-0.5-0.2
				c-0.2-0.1-0.3-0.1-0.5-0.1L65.9,54.4z"/>
			<path style="fill:#999999;" d="M75.4,56.2l2.5,0.4L78,55l-6.8-1.2L71,55.5l2.5,0.4l-0.3,6.8l1.9,0.3L75.4,56.2 M68.6,53.4
				c-0.4-0.1-0.8-0.2-1.2-0.3L64,52.6L63.6,61l1.9,0.3l0.2-3.4l0.9,0.2l1.6,3.7l2.3,0.4l-2-4c0.6,0,1.1-0.2,1.4-0.5
				c0.3-0.4,0.5-0.9,0.5-1.5c0-0.5,0-0.9-0.2-1.3c-0.2-0.4-0.4-0.7-0.7-0.9C69.3,53.8,69,53.6,68.6,53.4 M65.8,56.4l0.1-1.9l1.3,0.2
				c0.2,0,0.3,0.1,0.5,0.1s0.3,0.1,0.5,0.2c0.1,0.1,0.3,0.2,0.3,0.3c0.1,0.1,0.1,0.3,0.1,0.5c0,0.3-0.1,0.4-0.2,0.5
				s-0.2,0.2-0.4,0.2c-0.2,0-0.4,0-0.5,0c-0.2,0-0.3,0-0.5-0.1H65.8z"/>
		</g>
	</g>
	<g>
		
			<path id="Layer1_0_1_STROKES_1_" style="fill:none;stroke:#626262;stroke-width:4;stroke-linecap:round;stroke-linejoin:round;" d="
			M61.5,38.4c0-0.3,0.1-0.6,0.1-0.8c0.1-0.3,0.1-0.5,0.2-0.8c0.3-1.7,1.2-3.1,2.5-4.2c0.7-0.6,1.5-1,2.4-1.2c2-0.4,4-0.5,6.1-0.1
			c1.8,0.3,3.3,1,4.7,2.2c0.5,0.4,0.9,0.9,1.3,1.4c1.1,1.6,1.7,3.3,1.9,5.3c0,0.4,0.1,0.9,0.1,1.3V67l-20.7-3.8L61.5,38.4z"/>
	</g>
	<g>
		
			<path id="Layer1_0_2_STROKES_1_" style="fill:none;stroke:#1B1B1B;stroke-width:5;stroke-linecap:round;stroke-linejoin:round;" d="
			M72.9,26.4C80.6,27.7,86.7,33,91,42.3c4,9.9,5.6,20.4,4.8,31.5L54,66.2l1.6-28.5C56.5,28.9,62.2,25.1,72.9,26.4z"/>
	</g>
</g>
</svg>
