
<svg xmlns="http://www.w3.org/2000/svg" version="1.1" xmlns:xlink="http://www.w3.org/1999/xlink" x="0px" y="0px" viewBox="0 0 100 100">
<defs>
<g id="Layer1_0_FILL">
<path fill="#FFFFFF" stroke="none" d="
M -152.05 -172.1
L -152.05 -172 -153.5 -184.55 -153.5 -170.25
Q -153.15 -160.25 -149.65 -152.3
L -147.4 -151.65 -146.3 -152.1 -146.9 -153.5
Q -150.3 -161.2 -152.05 -172.1
M 252.65 -172
L 252.65 -172.1
Q 250.9 -161.2 247.5 -153.5
L 246.9 -152.1 248 -151.65 250.25 -152.3
Q 253.75 -160.25 254.1 -170.25
L 254.1 -184.55 252.65 -172
M -127.7 -13.5
L -126.85 -13.5
Q -126.7 -13.5 -126.5 -13.5
L -126.25 -13.5
Q -125.9 -13.5 -125.55 -13.45 -115.9 -13.05 -108.9 -6.65 -103.65 -1.85 -101.6 3.2 -100.85 5.3 -100.6 7.4 -100.6 7.55 -100.55 7.7 -100.3 10.7 -100.45 13.5 -100.65 15.45 -101.05 17.35 -101.6 19.15 -102.35 20.9 -101.15 19.15 -100.25 17.35 -99.5 15.5 -99.05 13.5 -98.75 11.7 -98.65 9.8 -98.6 8.75 -98.65 7.7 -98.8 5.4 -99.35 3.2 -101.15 -3.55 -106.85 -8.85 -114.8 -16.15 -125.9 -16.45
L -126.65 -16.5
Q -126.75 -16.5 -126.85 -16.5 -126.9 -16.5 -127 -16.5 -127.65 -16.5 -128.3 -16.45 -129.5 -16.45 -130.65 -16.3 -140.05 -15.25 -147 -8.85 -152.7 -3.55 -154.5 3.2 -155.05 5.4 -155.2 7.7 -155.25 8.75 -155.2 9.8 -155.1 11.7 -154.8 13.5 -154.35 15.5 -153.6 17.35 -152.7 19.15 -151.5 20.9 -152.25 19.15 -152.8 17.35 -153.2 15.45 -153.4 13.5 -153.55 10.7 -153.3 7.7 -153.25 7.55 -153.25 7.4 -153 5.3 -152.25 3.2 -150.2 -1.85 -144.95 -6.65 -138.85 -12.25 -130.65 -13.25 -129.5 -13.45 -128.3 -13.45 -128 -13.5 -127.7 -13.5
M -210.25 -89.75
Q -205.8 -87.45 -195.4 -88.4 -185.05 -89.35 -156.05 -96.8 -147.65 -98.95 -140.85 -100.5 -129.2 -103.25 -117.2 -105 -105.55 -106.85 -93.6 -106.55 -88.4 -106.2 -84.5 -104.95 -72.8 -101.05 -58.35 -84.2
L -58.3 -84.2
Q -44.1 -67.7 -32.95 -57.05
L -33 -57.05
Q -23.35 -47.85 -18.7 -45.5 -14.95 -42.45 1.75 -41.2 -13.5 -45.35 -16.9 -47.9 -17.05 -48.05 -17.2 -48.1 -21.55 -50.25 -30.9 -59.2 -42 -69.8 -56.05 -86.15 -71.2 -103.85 -83.55 -107.8 -87.8 -109.25 -93.6 -109.55 -104.25 -109.9 -115 -108.45 -126.1 -106.95 -137.05 -104.35 -138.95 -103.95 -140.85 -103.55 -147 -102.1 -154.4 -100.15 -185.55 -92.05 -195.05 -90.45 -205.15 -88.8 -210.25 -89.75
M 3.95 86.15
Q 3.8 84.9 2.9 84.1 2.7 84 2.6 83.85 1.6 83.15 0.35 83.05
L -21.2 81.85
Q -21.25 81.85 -21.3 81.85 -21.45 81.8 -21.6 81.75 -21.65 81.75 -21.7 81.75 -23.55 81.4 -24.8 79.9 -24.85 79.85 -24.85 79.8 -26.35 78.15 -26.6 76
L -26.6 75.95
Q -26.65 75.7 -26.65 75.4
L -26.65 60.95
Q -26.65 59.55 -27.4 58.4
L -27.45 58.35
Q -28.3 57.25 -29.5 56.8
L -29.55 56.75 -29.6 56.75
Q -29.8 56.7 -30 56.65 -34.2 55.2 -38.7 55.1 -44.35 54.9 -49.85 56.85 -51.15 57.3 -51.9 58.4 -52.7 59.55 -52.7 60.95
L -52.7 75.5
Q -52.7 75.75 -52.7 75.9 -52.75 75.95 -52.75 76 -53 78.15 -54.5 79.85
L -54.55 79.85
Q -54.6 79.85 -54.6 79.9
L -54.55 79.9
Q -55.8 81.4 -57.6 81.75
L -57.6 81.7
Q -57.65 81.7 -57.7 81.75 -57.9 81.8 -58.1 81.85 -58.15 81.85 -58.2 81.85 -58.25 81.85 -58.3 81.85
L -79.7 83.05
Q -81 83.15 -82 83.85 -82.1 84 -82.3 84.1 -83.2 84.9 -83.35 86.15 -83.8 89.5 -83.5 95.85 -83.45 95.8 -83.4 95.75 -82.85 90.35 -81.8 86.8 -81.8 86.75 -81.75 86.7 -81.6 85.9 -81 85.45 -80.45 85 -79.6 84.9
L -58.1 83.85
Q -58 83.85 -57.85 83.85 -57.85 83.8 -57.8 83.8 -57.75 83.8 -57.7 83.8 -57.5 83.75 -57.3 83.7
L -57.25 83.7
Q -54.7 83.2 -53 81.15 -51.1 79 -50.75 76.25
L -50.75 76.2
Q -50.7 75.9 -50.7 75.5
L -50.7 60.95
Q -50.7 60.2 -50.3 59.55
L -50.25 59.55
Q -50.1 59.3 -49.85 59.1 -45.2 57.05 -39.75 57.1 -34.8 57.15 -30 58.75 -29.5 59 -29.15 59.4
L -29.1 59.45
Q -29.05 59.5 -29 59.6 -28.65 60.2 -28.65 60.95
L -28.65 75.4
Q -28.65 75.9 -28.55 76.25 -28.55 76.35 -28.55 76.45 -28.2 79 -26.45 81.05 -26.4 81.05 -26.35 81.15 -24.7 83.15 -22.25 83.65
L -22.2 83.65
Q -22.15 83.65 -22.1 83.7
L -22 83.7
Q -21.7 83.8 -21.35 83.85
L 0.25 84.9 0.3 84.9
Q 1.05 85.05 1.65 85.45 2.25 85.9 2.4 86.75
L 2.4 86.8
Q 3.5 90.35 4.1 95.8 4.45 89.5 3.95 86.15
M 0.6 58.35
Q 6.25 63.5 9.95 69.5 17.05 81.1 16.8 95.8 16.35 118.05 3.5 131.3 -2.6 137.55 -6.6 140.8 -1.7 137.8 2.7 133.75
L 2.65 133.75
Q 20.25 117.65 20.25 94.9 20.25 80.95 13.6 69.5 9.45 62.35 2.65 56.15 2.55 56.05 2.5 56 -13.4 41.6 -35.2 40.3
L -35.2 40.25 -36.75 40.2
Q -38.15 40.15 -39.55 40.15 -39.65 40.15 -39.75 40.15 -41.1 40.15 -42.55 40.2
L -44.05 40.25 -44.05 40.3
Q -65.9 41.6 -81.7 56 -81.8 56.05 -81.9 56.15 -83.2 57.35 -84.45 58.6 -97.8 72.15 -99.35 90.15 -99.55 92.5 -99.55 94.9 -99.55 97.3 -99.35 99.7 -97.65 119.35 -81.9 133.75
L -81.95 133.75
Q -77.55 137.8 -72.7 140.8 -76.7 137.55 -82.8 131.3 -95.6 118.05 -96.1 95.8 -96.45 76.85 -84.45 63.05 -82.35 60.6 -79.9 58.35 -78.55 57.15 -77.15 56 -62.6 44.25 -43.2 43.3
L -42.45 43.25
Q -41.05 43.2 -39.75 43.2 -39.65 43.2 -39.55 43.2 -38.15 43.2 -36.85 43.25
L -36.1 43.3
Q -16.65 44.25 -2.15 56 -0.75 57.15 0.6 58.35
M 167.75 103.3
Q 168.5 105.4 168.75 107.5 168.75 107.65 168.8 107.8 169.05 110.8 168.9 113.6 168.7 115.55 168.3 117.45 167.75 119.25 167 121 168.2 119.25 169.1 117.45 169.85 115.6 170.3 113.6 170.6 111.8 170.7 109.9 170.75 108.85 170.7 107.8 170.55 105.5 170 103.3 168.2 96.55 162.5 91.25 154.55 83.95 143.45 83.65
L 142.7 83.6
Q 142.6 83.6 142.5 83.6 142.45 83.6 142.35 83.6 141.7 83.6 141.05 83.65 139.85 83.65 138.7 83.8 129.3 84.85 122.35 91.25 116.65 96.55 114.85 103.3 114.3 105.5 114.15 107.8 114.1 108.85 114.15 109.9 114.25 111.8 114.55 113.6 115 115.6 115.75 117.45 116.65 119.25 117.85 121 117.1 119.25 116.55 117.45 116.15 115.55 115.95 113.6 115.8 110.8 116.05 107.8 116.1 107.65 116.1 107.5 116.35 105.4 117.1 103.3 119.15 98.25 124.4 93.45 130.5 87.85 138.7 86.85 139.85 86.65 141.05 86.65 141.35 86.6 141.65 86.6
L 142.5 86.6
Q 142.65 86.6 142.85 86.6
L 143.1 86.6
Q 143.45 86.6 143.8 86.65 153.45 87.05 160.45 93.45 165.7 98.25 167.75 103.3
M 231.75 22.2
Q 231.65 22.05 231.45 21.9 231.3 21.75 231.05 21.75
L 227.2 21.75
Q 227.05 21.75 226.95 21.8 226.8 21.85 226.7 21.95 226.55 22 226.5 22.15 226.4 22.25 226.35 22.3
L 218.2 43.5
Q 218.1 43.8 218.25 43.95 218.45 44.1 218.75 44.1
L 223.2 44.1
Q 223.75 44.1 223.95 43.55 224.25 42.8 224.55 42 224.85 41.25 225.1 40.5
L 233.1 40.5
Q 233.4 41.25 233.7 42 233.95 42.8 234.25 43.55 234.35 43.85 234.55 43.95 234.75 44.1 235.1 44.1
L 239.4 44.1
Q 239.85 44.1 240 43.9 240.15 43.7 240.05 43.4
L 231.75 22.2
M 229.1 28.75
L 231.4 35.65 226.8 35.65
Q 227.1 34.9 227.35 34 227.65 33.1 227.95 32.2 228.25 31.3 228.55 30.45 228.85 29.55 229.1 28.75
M 271.95 -22.95
Q 271.65 -23 271.5 -22.8 271.3 -22.65 271.3 -22.3
L 271.3 -1.3
Q 271.3 -0.95 271.5 -0.8 271.7 -0.65 271.95 -0.6
L 282.85 -0.35
Q 284.2 -0.3 285.4 -0.85 286.55 -1.3 287.45 -2.2 288.35 -3.1 288.9 -4.35 289.45 -5.55 289.45 -6.9 289.45 -8.45 288.8 -9.85 288.15 -11.25 287.05 -12.3 287.7 -13 288.05 -14 288.45 -14.9 288.45 -16.05 288.45 -17.4 287.9 -18.6 287.4 -19.85 286.55 -20.65 285.65 -21.6 284.45 -22.15 283.3 -22.65 281.95 -22.7
L 271.95 -22.95
M 277.15 -14.05
L 277.15 -18.4 280.35 -18.3
Q 280.85 -18.3 281.3 -18.1 281.7 -17.95 282 -17.65 282.3 -17.3 282.5 -16.95 282.65 -16.55 282.65 -16.1 282.65 -15.6 282.45 -15.2 282.3 -14.8 282 -14.5 281.7 -14.25 281.25 -14.05 280.85 -13.95 280.35 -13.95
L 277.15 -14.05
M 283.45 -7.35
Q 283.45 -6.85 283.25 -6.35 283.1 -5.9 282.8 -5.6 282.45 -5.25 282.05 -5.05 281.6 -4.85 281.1 -4.8
L 277.15 -4.95 277.15 -10 281.1 -9.85
Q 281.6 -9.9 282.05 -9.65 282.45 -9.4 282.8 -9.05 283.1 -8.65 283.25 -8.2 283.45 -7.8 283.45 -7.35
M 178.95 -18.65
Q 178.65 -19.25 178.1 -19.25
L 172.85 -19.35
Q 172.7 -19.3 172.6 -19.3 172.45 -19.3 172.4 -19.2 172.4 -19.05 172.45 -18.95 172.5 -18.85 172.6 -18.75 174.35 -16.1 176.05 -13.5 177.7 -10.9 179.45 -8.25
L 172.7 1.7
Q 172.5 1.9 172.4 2.15 172.25 2.4 172.15 2.6 172.1 2.65 172.1 2.75 172.1 2.85 172.2 2.95 172.3 3 172.4 3
L 177.8 3.15
Q 178.1 3.15 178.3 3 178.5 2.85 178.6 2.6
L 182.65 -3.4 186.75 2.8
Q 186.9 3.05 187.1 3.2 187.3 3.35 187.55 3.4
L 192.95 3.5
Q 193.2 3.5 193.2 3.3 193.25 3.15 193.15 3 193.05 2.8 192.95 2.6
L 185.85 -8.1 192.8 -18.3
Q 192.95 -18.5 192.95 -18.65 192.95 -18.75 192.85 -18.8 192.75 -18.85 192.6 -18.85 192.45 -18.9 192.3 -18.9 192.1 -18.9 192 -18.9
L 187.3 -19.05
Q 186.7 -19.05 186.4 -18.45
L 182.65 -13 178.95 -18.65
M 221.55 -63.55
Q 221.45 -63.55 221.35 -63.5 221.3 -63.45 221.3 -63.35 221.3 -63.15 221.5 -62.95
L 228.65 -50.35 228.65 -41.9
Q 228.65 -41.6 228.8 -41.4 228.95 -41.2 229.25 -41.2
L 233.75 -41.2
Q 234.45 -41.2 234.45 -41.9
L 234.45 -50.35 241.6 -62.95
Q 241.8 -63.15 241.8 -63.35 241.8 -63.45 241.75 -63.5 241.7 -63.55 241.55 -63.55
L 235.75 -63.55
Q 235.7 -63.55 235.6 -63.5 235.55 -63.5 235.5 -63.5 235.45 -63.45 235.35 -63.35 235.3 -63.3 235.2 -63.1
L 231.6 -55.3 227.9 -63.1
Q 227.8 -63.3 227.75 -63.35 227.7 -63.45 227.6 -63.5 227.55 -63.5 227.5 -63.5 227.45 -63.55 227.35 -63.55
L 221.55 -63.55
M 133.6 -57.05
L 133.55 -57.05
Q 144.7 -67.7 158.9 -84.2
L 158.95 -84.2
Q 173.4 -101.05 185.1 -104.95 189 -106.2 194.2 -106.55 206.15 -106.85 217.8 -105 229.8 -103.25 241.45 -100.5 248.25 -98.95 256.65 -96.8 285.65 -89.35 296 -88.4 306.4 -87.45 310.85 -89.75 305.75 -88.8 295.65 -90.45 286.15 -92.05 255 -100.15 247.6 -102.1 241.45 -103.55 239.55 -103.95 237.65 -104.35 226.7 -106.95 215.6 -108.45 204.85 -109.9 194.2 -109.55 188.4 -109.25 184.15 -107.8 171.8 -103.85 156.65 -86.15 142.6 -69.8 131.5 -59.2 122.15 -50.25 117.8 -48.1 117.65 -48.05 117.5 -47.9 114.1 -45.35 98.85 -41.2 115.55 -42.45 119.3 -45.5 123.95 -47.85 133.6 -57.05 Z"/>
</g>

<path id="Layer1_0_1_STROKES" stroke="#FFFFFF" stroke-width="3" stroke-linejoin="round" stroke-linecap="round" fill="none" d="
M 151.85 -145.5
Q 153.2 -145.65 155.55 -146.8 157.9 -147.95 166.45 -153.05 167.5 -153.7 168.55 -154.25 173.3 -156.75 178.55 -157.9 183.95 -159.05 189.25 -158.7 192.4 -158.6 195.5 -158.4 197.7 -158.3 199.9 -158.15 204.4 -157.75 208.95 -157.45 213.35 -166.3 216.3 -177.1 219.5 -189 221 -192.4 222.5 -195.85 227.85 -196.35 233.25 -196.9 248.15 -193.85 255.8 -192.05 257.45 -190.9 259.1 -189.75 264.45 -180.65 269.85 -171.55 276.45 -156.5 283.05 -141.5 285.95 -134.5 288.35 -132.5 290.3 -130.1
L 293.8 -123.7
Q 303.6 -114.25 309.15 -107.3 310.5 -105.45 311.75 -103.55 315.5 -97.95 317.7 -91.55 324.6 -74.35 330.5 -59.3 382.5 75.15 385.25 132.85 385.3 133.95 385.35 135 385.5 139.3 385.5 143.65 385.45 148.2 385.2 152.75 384.95 157.25 384.45 161.75 383.95 165.85 383.25 169.95 382.55 173.95 381.55 177.9 380.35 182.65 378.75 187.3 377.9 189.7 376.95 192.05 376.05 194.15 375.05 196.2 373.15 200.2 370.7 203.95 368.3 207.6 365.5 211 363 214.05 360.25 216.9 357.55 219.65 354.65 222.3 350.95 225.6 347.05 228.65 343.15 231.6 339.05 234.35 336 236.3 332.7 237.75 328.25 239.6 323.65 240.35 321.3 240.55 318.95 240.75 314.35 240.85 309.95 239.75 307.8 239.1 305.65 238.35 303.35 237.45 301.1 236.4 296.7 234.55 292.5 232.2 288.85 230.25 285.35 227.7 280.35 224.5 274.45 220.35 244.75 199.5 232.6 192.05 230.95 191.05 229.65 190.3 211.25 179.6 192.7 175.5 174.35 171.5 140.55 170.6 126.45 170.2 71.55 170.15 68.15 170.15 64.6 170.15 64.35 170.15 64.1 170.15 63.85 170.15 63.65 170.15 63.4 170.15 63.15 170.15 62.9 170.15 62.65 170.15 62.4 170.15 62.15 170.15 61.9 170.15 61.65 170.15 61.4 170.15 61.15 170.15 60.9 170.15 60.65 170.15 60.4 170.15 60.15 170.15 59.9 170.15 59.65 170.15 59.4 170.15 59.15 170.15 58.85 170.15 58.6 170.15 58.35 170.15 58.1 170.15 57.8 170.15 57.55 170.15 56.75 170.15 55.95 170.15 55.15 170.15 54.35 170.15
L 47.55 170.15
Q -23.6 170.15 -39.95 170.6 -73.75 171.5 -92.1 175.5 -110.65 179.6 -129.05 190.3 -130.35 191.05 -131.95 192.05 -144.15 199.5 -173.85 220.35 -179.75 224.5 -184.75 227.7 -188.25 230.25 -191.9 232.2 -196.1 234.55 -200.5 236.4 -202.75 237.45 -205.05 238.35 -207.2 239.1 -209.35 239.75 -213.75 240.85 -218.35 240.75 -220.7 240.55 -223.05 240.35 -227.65 239.6 -232.1 237.75 -235.4 236.3 -238.45 234.35 -242.55 231.6 -246.45 228.65 -250.35 225.6 -254.05 222.3 -256.95 219.65 -259.65 216.9 -262.4 214.05 -264.9 211 -267.7 207.6 -270.1 203.95 -272.55 200.2 -274.45 196.2 -275.45 194.15 -276.3 192.05 -277.3 189.7 -278.15 187.3 -279.75 182.65 -280.95 177.9 -281.95 173.95 -282.65 169.95 -283.35 165.85 -283.85 161.75 -284.35 157.25 -284.6 152.75 -284.85 148.2 -284.9 143.65 -284.9 139.3 -284.75 135 -284.7 133.95 -284.65 132.85 -281.9 75.15 -229.9 -59.3 -224 -74.35 -217.1 -91.55 -214.9 -97.95 -211.15 -103.55 -209.9 -105.45 -208.55 -107.3 -203 -114.25 -193.2 -123.7
L -189.7 -130.1
Q -187.75 -132.5 -185.35 -134.5 -182.45 -141.5 -175.85 -156.5 -169.25 -171.55 -163.85 -180.65 -158.5 -189.75 -156.85 -190.9 -155.2 -192.05 -147.55 -193.85 -132.65 -196.9 -127.25 -196.35 -121.9 -195.85 -120.4 -192.4 -118.9 -189 -115.7 -177.1 -112.75 -166.3 -108.35 -157.45 -103.8 -157.75 -99.3 -158.15 -97.1 -158.3 -94.9 -158.4 -91.8 -158.6 -88.65 -158.7 -83.35 -159.05 -77.95 -157.9 -72.7 -156.75 -67.95 -154.25 -66.9 -153.7 -65.85 -153.05 -57.3 -147.95 -54.95 -146.8 -52.6 -145.65 -51.25 -145.5 -48 -145.2 -42.55 -145.2
L 143.15 -145.2
Q 148.6 -145.2 151.85 -145.5 149.2 -139.75 147.75 -135.9 146.35 -132.1 146.2 -131.9 148.65 -132.25 150.15 -132.85 155.15 -134.8 168.9 -140.15 182.65 -145.5 189.5 -145.25 192.35 -145.15 195.5 -145 200 -144.75 205.25 -144.35 214.15 -143.7 234.35 -139.5 254.55 -135.35 263.65 -133.35 264.55 -133.15 265.45 -132.9 270.2 -131.9 274.95 -130.75 277.05 -130.35 279.15 -129.9 283.75 -128.8 288.6 -128.75 290.25 -128.7 290.3 -130.1
M 294.8 -104.45
Q 292.6 -105.15 289.75 -105.95 278.4 -109.3 253.55 -114.65 228.75 -120.05 220.05 -121.8 203.9 -125.05 190.8 -124.85 175.55 -124.6 159.3 -119.8 157.05 -119.15 154.7 -118.85
L 145.35 -118.4 137.1 -118.05
Q 134.65 -118 132.05 -117.95
L -35.45 -118
Q -36 -118.05 -36.5 -118.05
L -44.75 -118.4 -54.1 -118.85
Q -56.45 -119.15 -58.7 -119.8 -74.95 -124.6 -90.2 -124.85 -103.3 -125.05 -119.45 -121.8 -128.15 -120.05 -152.95 -114.65 -177.8 -109.3 -189.15 -105.95 -192 -105.15 -194.2 -104.45
M -199.35 -108.15
Q -199.15 -108.7 -198.95 -109.25
L -198.8 -109.8
Q -198.6 -110.5 -198.4 -111.1 -198.2 -111.65 -197.15 -114.25 -196.1 -116.9 -193.2 -123.7
M 145.35 -118.4
L 146.2 -131.9
Q 141.75 -131.2 134.15 -131.2
L -33.55 -131.2
Q -41.15 -131.2 -45.6 -131.9
L -44.75 -118.4
M 76.65 -75.55
Q 76.65 -64.8 69 -57.3 61.45 -49.65 50.75 -49.65 40.05 -49.65 32.4 -57.3 30.3 -59.4 28.8 -61.75 24.9 -67.8 24.9 -75.55 24.9 -86.25 32.4 -93.85 40.05 -101.4 50.75 -101.4 61.45 -101.4 69 -93.85 76.65 -86.25 76.65 -75.55 Z
M 14.25 -7.45
Q 14.25 -13.35 10.1 -17.5 5.9 -21.7 0 -21.7 -5.9 -21.7 -10.05 -17.5 -14.25 -13.35 -14.25 -7.45 -14.25 -1.55 -10.05 2.65 -5.9 6.8 0 6.8 5.9 6.8 10.1 2.65 14.25 -1.55 14.25 -7.45 Z
M 115.1 -7.5
Q 115.1 -13.4 110.95 -17.55 106.75 -21.75 100.85 -21.75 94.95 -21.75 90.8 -17.55 86.6 -13.4 86.6 -7.5 86.6 -1.6 90.8 2.6 94.95 6.75 100.85 6.75 106.75 6.75 110.95 2.6 115.1 -1.6 115.1 -7.5 Z
M 248 -151.65
Q 256.3 -149.85 263.15 -147.1 270.4 -144.25 273.8 -142.7 277.6 -140.65 281.15 -138.1 282.8 -136.9 284.45 -135.7 285.05 -135.25 285.65 -134.75 285.8 -134.6 285.95 -134.5
M 293.8 -123.7
Q 296.7 -116.9 297.75 -114.25 298.8 -111.65 299 -111.1 299.2 -110.5 299.4 -109.8
L 299.55 -109.25
Q 299.75 -108.7 299.95 -108.15
M 299.9 -108.1
Q 299.75 -108.65 299.55 -109.25
M 208.95 -157.45
Q 209.8 -157.4 210.7 -157.35 216.35 -156.9 222.05 -156.3 230.7 -155.15 239.05 -153.45 242.15 -152.85 248 -151.65
M 204.75 -8.2
Q 204.75 -8.55 204.75 -8.9 204.5 -17.55 198.3 -23.75 194.75 -27.3 190.45 -28.85 187 -30.15 183.05 -30.2 182.9 -30.2 182.7 -30.2 173.55 -30.2 167.1 -23.75 160.65 -17.3 160.65 -8.2 160.65 0.9 167.1 7.35 173.55 13.8 182.7 13.8 182.9 13.8 183.05 13.8 191.95 13.7 198.3 7.35 204.75 0.9 204.75 -8.2 Z
M 300.25 -11.85
Q 300.25 -21 293.8 -27.45 287.3 -33.9 278.15 -33.9 272.85 -33.9 268.45 -31.7 265.25 -30.15 262.55 -27.45 256.05 -21 256.05 -11.85 256.05 -10.35 256.25 -8.9 257.1 -1.65 262.55 3.75 269 10.2 278.15 10.2 287.3 10.2 293.8 3.75 300.25 -2.7 300.25 -11.85 Z
M 251.25 33.85
Q 251.25 24.7 244.8 18.25 238.35 11.8 229.2 11.8 220.05 11.8 213.6 18.25 211.1 20.75 209.55 23.7 208.55 25.6 207.95 27.7 207.15 30.6 207.15 33.85 207.15 43 213.6 49.45 220.05 55.9 229.2 55.9 238.35 55.9 244.8 49.45 251.25 43 251.25 33.85 Z
M 105.95 115.75
Q 100.65 106.6 100.65 95.25 100.65 78 112.85 65.8 125 53.6 142.25 53.6 147.05 53.6 151.45 54.55 162.9 57 171.7 65.8 173.55 67.65 175.1 69.6 183.9 80.6 183.9 95.25 183.9 100.95 182.35 106.55 181 111.4 178.65 115.6 176.3 125.25 168.75 132.75 157.8 143.75 142.25 143.75 126.75 143.75 115.75 132.75 108.3 125.3 105.95 115.75 104.8 111.25 104.8 106.25 104.8 90.75 115.75 79.75 126.75 68.8 142.25 68.8 157.8 68.8 168.75 79.75 179.75 90.75 179.75 106.25 179.75 111.15 178.65 115.6
M -37.15 49.5
Q -30.5 49.75 -24.05 51.65 -23.3 51.85 -22.8 52.5 -22.35 53.15 -22.35 53.95
L -22.35 74.45
Q -22.35 75.35 -21.7 76.1 -21.1 76.75 -20.15 76.8
L 5.3 78.25
Q 6.8 78.35 7.4 79.7 10.2 87.05 10.2 94.8 10.2 102.65 7.35 110 6.8 111.35 5.25 111.45
L -20.15 112.9
Q -21.1 113 -21.7 113.65 -22.35 114.3 -22.35 115.25
L -22.35 135.7
Q -22.35 136.5 -22.8 137.15 -23.3 137.75 -24.05 137.95 -30.55 139.95 -37.6 140.2 -38.15 140.2 -38.6 140.2
L -40.7 140.2
Q -41.25 140.2 -41.75 140.2 -48.8 139.95 -55.3 137.95 -56.1 137.75 -56.55 137.15 -57.05 136.5 -57.05 135.7
L -57.05 115.25
Q -57.05 114.3 -57.65 113.65 -58.3 113 -59.25 112.9
L -84.65 111.45
Q -86.2 111.35 -86.7 110 -89.6 102.65 -89.6 94.8 -89.6 87.05 -86.75 79.7 -86.2 78.35 -84.7 78.25
L -59.25 76.8
Q -58.3 76.75 -57.65 76.1 -57.05 75.35 -57.05 74.45
L -57.05 53.95
Q -57.05 53.15 -56.55 52.5 -56.1 51.85 -55.3 51.65 -48.85 49.75 -42.25 49.5 -41.65 49.45 -40.95 49.45
L -39.65 49.4
Q -39.55 49.4 -39.45 49.4
L -37.55 49.45
Q -37.3 49.45 -37.15 49.5 Z
M -189.7 -130.1
Q -189.65 -128.7 -188 -128.75 -183.15 -128.8 -178.55 -129.9 -176.45 -130.35 -174.35 -130.75 -169.6 -131.9 -164.85 -132.9 -163.95 -133.15 -163.05 -133.35 -153.95 -135.35 -133.75 -139.5 -113.55 -143.7 -104.65 -144.35 -99.4 -144.75 -94.9 -145 -91.75 -145.15 -88.9 -145.25 -82.05 -145.5 -68.3 -140.15 -54.55 -134.8 -49.55 -132.85 -48.05 -132.25 -45.6 -131.9 -45.75 -132.1 -47.15 -135.9 -48.6 -139.75 -51.25 -145.5
M -108.35 -157.45
Q -109.2 -157.4 -110.1 -157.35 -115.75 -156.9 -121.45 -156.3 -130.1 -155.15 -138.45 -153.45 -141.55 -152.85 -147.4 -151.65 -155.7 -149.85 -162.55 -147.1 -169.8 -144.25 -173.2 -142.7 -177 -140.65 -180.55 -138.1 -182.2 -136.9 -183.85 -135.7 -184.45 -135.25 -185.05 -134.75 -185.2 -134.6 -185.35 -134.5
M -199.3 -108.1
Q -199.15 -108.65 -198.95 -109.25
M -163.45 15.65
Q -168.75 6.5 -168.75 -4.85 -168.75 -22.1 -156.55 -34.3 -144.4 -46.5 -127.15 -46.5 -109.9 -46.5 -97.7 -34.3 -85.5 -22.1 -85.5 -4.85 -85.5 0.85 -87.05 6.45 -88.4 11.3 -90.75 15.5 -93.1 25.15 -100.65 32.65 -111.6 43.65 -127.15 43.65 -142.65 43.65 -153.65 32.65 -161.1 25.2 -163.45 15.65 -164.6 11.15 -164.6 6.15 -164.6 -9.35 -153.65 -20.35 -142.65 -31.3 -127.15 -31.3 -111.6 -31.3 -100.65 -20.35 -89.65 -9.35 -89.65 6.15 -89.65 11.05 -90.75 15.5"/>

<path id="Layer1_0_2_STROKES" stroke="#FFFFFF" stroke-width="2" stroke-linejoin="round" stroke-linecap="round" fill="none" d="
M 68.7 -93.1
Q 66.7 -92.8 64.95 -91.9 63.9 -91.3 62.45 -90.2 60.95 -89.05 60.4 -88.4 58.9 -86.7 60.05 -85.35 64.05 -80.55 66.95 -75.6 71.35 -68 71.95 -61.8
M 61.4 -98.25
Q 59.9 -97.85 57.95 -97.2 54.05 -95.85 51.5 -94.25 50.35 -93.5 49.2 -94.25 46.65 -95.85 42.75 -97.2
L 39.35 -98.25
M 67.65 -57
Q 68.75 -60.1 62.1 -68.65 58 -73.9 51.45 -78.75 50.95 -79.1 50.35 -79.1 49.75 -79.1 49.3 -78.75 42.95 -74.2 38.6 -68.6 32 -60.1 33.1 -57
M 32.05 -93.1
L 33.25 -92.85
Q 34.7 -92.45 35.8 -91.85 36.8 -91.3 38.3 -90.2 39.8 -89.05 40.35 -88.4 41.85 -86.7 40.7 -85.35 36.75 -80.65 33.8 -75.6 29.4 -68 28.8 -61.75
M 6.85 -1.05
L -1.45 -1.05 -1.45 -7.55 6.85 -7.55 6.85 -1.05 Z"/>

<path id="Layer1_0_3_STROKES" stroke="#FFFFFF" stroke-width="2" stroke-linejoin="round" stroke-linecap="butt" fill="none" d="
M -4.55 -6.2
L -7.35 -6.2 -7.35 -12.7 1 -12.7 1 -10.4
M 94.35 -2.5
L 107.9 -2.5
M 94.35 -11.4
L 107.9 -11.4
M 94.35 -6.95
L 107.9 -6.95"/>

<path id="Layer1_0_4_STROKES" stroke="#FFFFFF" stroke-width="3" stroke-linejoin="round" stroke-linecap="butt" fill="none" d="
M -194.2 -104.45
Q -200.2 -103.25 -199.3 -108.1
L -199.35 -108.15
M 299.95 -108.15
L 299.9 -108.1
Q 300.8 -103.25 294.8 -104.45"/>

<path id="Layer1_0_5_STROKES" stroke="#FFFFFF" stroke-width="3" stroke-linejoin="bevel" stroke-linecap="square" fill="none" d="
M 217.3 -37.15
Q 218.55 -36.1 219.9 -35.25 220.2 -35.05 220.5 -34.85 226.9 -31.05 234.7 -32 243.05 -33.3 248.15 -39.4 249.05 -40.5 249.85 -41.75 255.45 -50.35 252.45 -60.25 249.45 -70.1 239.95 -74 230.5 -77.9 221.45 -73.2 212.3 -68.35 210.25 -58.2 208.6 -50.05 212.4 -43.25 213.4 -41.5 214.75 -39.8 214.9 -39.6 215.1 -39.4 215.7 -38.7 216.3 -38.05"/>

<path id="Layer1_0_6_STROKES" stroke="#FFFFFF" stroke-width="1" stroke-linejoin="bevel" stroke-linecap="square" fill="none" d="
M 216.3 -38.05
Q 216.4 -37.95 216.5 -37.85 216.85 -37.5 217.3 -37.15"/>

</defs>

<g transform="matrix( 1, 0, 0, 1, 0,0) ">
<use xlink:href="#Layer1_0_FILL"/>

<use xlink:href="#Layer1_0_1_STROKES"/>

<use xlink:href="#Layer1_0_2_STROKES"/>

<use xlink:href="#Layer1_0_3_STROKES"/>

<use xlink:href="#Layer1_0_4_STROKES"/>

<use xlink:href="#Layer1_0_5_STROKES"/>

<use xlink:href="#Layer1_0_6_STROKES"/>
</g>

<g transform="matrix( 1, 0, 0, 1, -3.4,-28) ">
<clipPath id="Mask_Mask_1">
<rect x="17.95" y="-2" width="70.9" height="20.8" fill="#FFFFFF" stroke="none"/>
</clipPath>

<text clip-path="url(#Mask_Mask_1)" writing-mode="lr"><tspan x="20.05" y="13.6" baseline-shift="0%" kerning="auto" font-family="Arial_Regular" font-size="15" fill="#999999" xml:space="preserve">Xbox One</tspan></text>
</g>
</svg>
