
<svg xmlns="http://www.w3.org/2000/svg" version="1.1" xmlns:xlink="http://www.w3.org/1999/xlink" x="0px" y="0px" viewBox="0 0 100 100">
<defs>
<g id="Layer1_0_FILL">
<path fill="#FFFFFF" stroke="none" d="
M -142.1 -170.4
L -142.1 -170.3 -143.55 -182.85 -143.55 -168.55
Q -143.25 -159.9 -140.55 -152.75
L -137.35 -152.75
Q -140.45 -160.15 -142.1 -170.4
M -128.35 -14.75
Q -129.55 -14.75 -130.7 -14.6 -140.1 -13.55 -147.05 -7.15 -152.75 -1.85 -154.55 4.9 -155.1 7.1 -155.25 9.4 -155.3 10.45 -155.25 11.5 -155.15 13.4 -154.85 15.2 -154.4 17.2 -153.65 19.05 -152.75 20.85 -151.55 22.6 -152.3 20.85 -152.85 19.05 -153.25 17.15 -153.45 15.2 -153.6 12.4 -153.35 9.4 -153.3 9.25 -153.3 9.1 -153.05 7 -152.3 4.9 -150.25 -0.15 -145 -4.95 -138.9 -10.55 -130.7 -11.55 -129.55 -11.75 -128.35 -11.75 -128.05 -11.8 -127.75 -11.8
L -126.9 -11.8
Q -126.75 -11.8 -126.55 -11.8
L -126.3 -11.8
Q -125.95 -11.8 -125.6 -11.75 -115.95 -11.35 -108.95 -4.95 -103.7 -0.15 -101.65 4.9 -100.9 7 -100.65 9.1 -100.65 9.25 -100.6 9.4 -100.35 12.4 -100.5 15.2 -100.7 17.15 -101.1 19.05 -101.65 20.85 -102.4 22.6 -101.2 20.85 -100.3 19.05 -99.55 17.2 -99.1 15.2 -98.8 13.4 -98.7 11.5 -98.65 10.45 -98.7 9.4 -98.85 7.1 -99.4 4.9 -101.2 -1.85 -106.9 -7.15 -114.85 -14.45 -125.95 -14.75
L -126.7 -14.8
Q -126.8 -14.8 -126.9 -14.8 -126.95 -14.8 -127.05 -14.8 -127.7 -14.8 -128.35 -14.75
M 167.7 105
Q 168.45 107.1 168.7 109.2 168.7 109.35 168.75 109.5 169 112.5 168.85 115.3 168.65 117.25 168.25 119.15 167.7 120.95 166.95 122.7 168.15 120.95 169.05 119.15 169.8 117.3 170.25 115.3 170.55 113.5 170.65 111.6 170.7 110.55 170.65 109.5 170.5 107.2 169.95 105 168.15 98.25 162.45 92.95 154.5 85.65 143.4 85.35
L 142.65 85.3
Q 142.55 85.3 142.45 85.3 142.4 85.3 142.3 85.3 141.65 85.3 141 85.35 139.8 85.35 138.65 85.5 129.25 86.55 122.3 92.95 116.6 98.25 114.8 105 114.25 107.2 114.1 109.5 114.05 110.55 114.1 111.6 114.2 113.5 114.5 115.3 114.95 117.3 115.7 119.15 116.6 120.95 117.8 122.7 117.05 120.95 116.5 119.15 116.1 117.25 115.9 115.3 115.75 112.5 116 109.5 116.05 109.35 116.05 109.2 116.3 107.1 117.05 105 119.1 99.95 124.35 95.15 130.45 89.55 138.65 88.55 139.8 88.35 141 88.35 141.3 88.3 141.6 88.3
L 142.45 88.3
Q 142.6 88.3 142.8 88.3
L 143.05 88.3
Q 143.4 88.3 143.75 88.35 153.4 88.75 160.4 95.15 165.65 99.95 167.7 105
M 231.7 23.9
Q 231.6 23.75 231.4 23.6 231.25 23.45 231 23.45
L 227.15 23.45
Q 227 23.45 226.9 23.5 226.75 23.55 226.65 23.65 226.5 23.7 226.45 23.85 226.35 23.95 226.3 24
L 218.15 45.2
Q 218.05 45.5 218.2 45.65 218.4 45.8 218.7 45.8
L 223.15 45.8
Q 223.7 45.8 223.9 45.25 224.2 44.5 224.5 43.7 224.8 42.95 225.05 42.2
L 233.05 42.2
Q 233.35 42.95 233.65 43.7 233.9 44.5 234.2 45.25 234.3 45.55 234.5 45.65 234.7 45.8 235.05 45.8
L 239.35 45.8
Q 239.8 45.8 239.95 45.6 240.1 45.4 240 45.1
L 231.7 23.9
M 227.3 35.7
Q 227.6 34.8 227.9 33.9 228.2 33 228.5 32.15 228.8 31.25 229.05 30.45
L 231.35 37.35 226.75 37.35
Q 227.05 36.6 227.3 35.7
M 271.9 -21.25
Q 271.6 -21.3 271.45 -21.1 271.25 -20.95 271.25 -20.6
L 271.25 0.4
Q 271.25 0.75 271.45 0.9 271.65 1.05 271.9 1.1
L 282.8 1.35
Q 284.15 1.4 285.35 0.85 286.5 0.4 287.4 -0.5 288.3 -1.4 288.85 -2.65 289.4 -3.85 289.4 -5.2 289.4 -6.75 288.75 -8.15 288.1 -9.55 287 -10.6 287.65 -11.3 288 -12.3 288.4 -13.2 288.4 -14.35 288.4 -15.7 287.85 -16.9 287.35 -18.15 286.5 -18.95 285.6 -19.9 284.4 -20.45 283.25 -20.95 281.9 -21
L 271.9 -21.25
M 282.6 -14.4
Q 282.6 -13.9 282.4 -13.5 282.25 -13.1 281.95 -12.8 281.65 -12.55 281.2 -12.35 280.8 -12.25 280.3 -12.25
L 277.1 -12.35 277.1 -16.7 280.3 -16.6
Q 280.8 -16.6 281.25 -16.4 281.65 -16.25 281.95 -15.95 282.25 -15.6 282.45 -15.25 282.6 -14.85 282.6 -14.4
M 282.75 -7.35
Q 283.05 -6.95 283.2 -6.5 283.4 -6.1 283.4 -5.65 283.4 -5.15 283.2 -4.65 283.05 -4.2 282.75 -3.9 282.4 -3.55 282 -3.35 281.55 -3.15 281.05 -3.1
L 277.1 -3.25 277.1 -8.3 281.05 -8.15
Q 281.55 -8.2 282 -7.95 282.4 -7.7 282.75 -7.35
M 178.9 -16.95
Q 178.6 -17.55 178.05 -17.55
L 172.8 -17.65
Q 172.65 -17.6 172.55 -17.6 172.4 -17.6 172.35 -17.5 172.35 -17.35 172.4 -17.25 172.45 -17.15 172.55 -17.05 174.3 -14.4 176 -11.8 177.65 -9.2 179.4 -6.55
L 172.65 3.4
Q 172.45 3.6 172.35 3.85 172.2 4.1 172.1 4.3 172.05 4.35 172.05 4.45 172.05 4.55 172.15 4.65 172.25 4.7 172.35 4.7
L 177.75 4.85
Q 178.05 4.85 178.25 4.7 178.45 4.55 178.55 4.3
L 182.6 -1.7 186.7 4.5
Q 186.85 4.75 187.05 4.9 187.25 5.05 187.5 5.1
L 192.9 5.2
Q 193.15 5.2 193.15 5 193.2 4.85 193.1 4.7 193 4.5 192.9 4.3
L 185.8 -6.4 192.75 -16.6
Q 192.9 -16.8 192.9 -16.95 192.9 -17.05 192.8 -17.1 192.7 -17.15 192.55 -17.15 192.4 -17.2 192.25 -17.2 192.05 -17.2 191.95 -17.2
L 187.25 -17.35
Q 186.65 -17.35 186.35 -16.75
L 182.6 -11.3 178.9 -16.95
M 221.5 -61.85
Q 221.4 -61.85 221.3 -61.8 221.25 -61.75 221.25 -61.65 221.25 -61.45 221.45 -61.25
L 228.6 -48.65 228.6 -40.2
Q 228.6 -39.9 228.75 -39.7 228.9 -39.5 229.2 -39.5
L 233.7 -39.5
Q 234.4 -39.5 234.4 -40.2
L 234.4 -48.65 241.55 -61.25
Q 241.75 -61.45 241.75 -61.65 241.75 -61.75 241.7 -61.8 241.65 -61.85 241.5 -61.85
L 235.7 -61.85
Q 235.65 -61.85 235.55 -61.8 235.5 -61.8 235.45 -61.8 235.4 -61.75 235.3 -61.65 235.25 -61.6 235.15 -61.4
L 231.55 -53.6 227.85 -61.4
Q 227.75 -61.6 227.7 -61.65 227.65 -61.75 227.55 -61.8 227.5 -61.8 227.45 -61.8 227.4 -61.85 227.3 -61.85
L 221.5 -61.85
M 70.05 -54.55
Q 78.1 -62.5 78.1 -73.85 78.1 -85.2 70 -93.2 62 -101.2 50.7 -101.2 39.4 -101.2 31.3 -93.2 23.35 -85.15 23.35 -73.85 23.35 -65.65 27.5 -59.2
L 27.5 -59.25
Q 29.05 -56.75 31.3 -54.55 39.4 -46.45 50.7 -46.45 62 -46.45 70 -54.5
L 70.05 -54.55
M 64.4 -91.05
Q 63.3 -90.45 61.8 -89.3 60.15 -88.05 59.6 -87.35 57.45 -84.95 59.25 -83 63.15 -78.25 66.05 -73.4 70.25 -66.1 70.9 -60.15 69.9 -58.75 68.65 -57.45 67.9 -61.05 62.85 -67.55 58.65 -72.9 52 -77.85 51.2 -78.4 50.3 -78.4 49.35 -78.4 48.65 -77.85
L 48.7 -77.85
Q 42.2 -73.25 37.75 -67.5 33.1 -61.55 32.15 -58 30.95 -59.4 30.05 -60.85
L 30 -60.85
Q 29.95 -60.95 29.9 -61.05 30.75 -66.7 34.65 -73.4 37.55 -78.35 41.45 -83
L 41.4 -83
Q 43.2 -84.95 41.05 -87.35
L 41.1 -87.35
Q 40.5 -88.05 38.85 -89.3 37.3 -90.45 36.25 -91 35.35 -91.5 34.25 -91.85 36.65 -94.05 39.35 -95.5
L 42.4 -94.55
Q 46.15 -93.25 48.65 -91.7
L 48.6 -91.7
Q 50.3 -90.6 52 -91.7 54.45 -93.25 58.25 -94.55 60.15 -95.2 61.6 -95.55 61.7 -95.6 61.75 -95.6 64.5 -94.25 66.9 -92.05 65.6 -91.7 64.45 -91.1
L 64.4 -91.05
M 65.35 -89.3
L 65.4 -89.3
Q 66.9 -90.1 68.6 -90.35 75.1 -83.45 75.1 -73.85 75.1 -67.8 72.5 -62.8 71.4 -68.15 67.8 -74.4 64.85 -79.45 60.8 -84.3
L 60.75 -84.3
Q 60.25 -85.05 61.1 -86.05
L 61.15 -86.05
Q 61.65 -86.65 63 -87.7 64.35 -88.75 65.35 -89.3
M 50.95 -93.4
L 50.9 -93.4
Q 50.3 -93 49.7 -93.4 47.05 -95.05 43.05 -96.45
L 43 -96.45 42.15 -96.7
Q 46.1 -98.2 50.7 -98.2 55.05 -98.2 58.9 -96.85 58.25 -96.65 57.6 -96.45 53.55 -95.05 50.95 -93.4
M 49.9 -76.25
Q 50.05 -76.4 50.3 -76.4 50.6 -76.4 50.85 -76.2 57.25 -71.45 61.25 -66.3 67.45 -58.4 66.65 -55.6 66.6 -55.55 66.6 -55.45 59.9 -49.45 50.7 -49.45 40.95 -49.45 33.95 -56.15 33.75 -59.05 39.35 -66.25 43.6 -71.75 49.85 -76.2 49.85 -76.25 49.9 -76.25
M 32.65 -90.25
L 33.05 -90.15 32.95 -90.15
Q 34.25 -89.8 35.3 -89.25 36.2 -88.75 37.65 -87.7 39 -86.65 39.55 -86.05 40.4 -85.05 39.9 -84.3 35.85 -79.55 32.9 -74.4 29.6 -68.75 28.4 -63.85 26.35 -68.4 26.35 -73.85 26.35 -83.35 32.65 -90.25
M 244.15 -168.45
L 244.15 -182.75 242.7 -170.2 242.7 -170.3
Q 241.05 -160.05 237.95 -152.65
L 241.15 -152.65
Q 243.85 -159.8 244.15 -168.45 Z"/>
</g>

<path id="Layer1_0_1_STROKES" stroke="#FFFFFF" stroke-width="3" stroke-linejoin="round" stroke-linecap="round" fill="none" d="
M 151.8 -143.8
Q 153.15 -143.95 155.5 -145.1 157.85 -146.25 166.4 -151.35 167.45 -152 168.5 -152.55 173.25 -155.05 178.5 -156.2 182.05 -156.95 185.55 -157.05 187.4 -157.1 189.2 -157 189.6 -157 190 -156.85 192.8 -156.8 195.55 -156.6 197.75 -156.5 199.95 -156.35 204.45 -155.95 209 -155.65 213.4 -164.5 216.35 -175.3 219.55 -187.2 221.05 -190.6 222.55 -194.05 227.4 -195.3 232.25 -196.6 239.1 -195 245.4 -193.1 248.05 -190.65 250.75 -188.25 254.15 -182.75 255.2 -181.05 256.5 -178.85 261.9 -169.75 268.5 -154.7 272.2 -146.3 274.7 -140.45 278.05 -138.6 281.2 -136.3 282.85 -135.1 284.5 -133.9 285.1 -133.45 285.7 -132.95 285.85 -132.8 286 -132.7 288.4 -130.7 290.35 -128.3
L 293.85 -121.9
Q 303.65 -112.45 309.2 -105.5 310.55 -103.65 311.8 -101.75 313.6 -99.05 315.05 -96.2
L 316.8 -92.3
Q 317.3 -91.05 317.75 -89.75 318.8 -87.15 319.8 -84.6
L 321.75 -79.55
Q 326.35 -68.05 330.45 -57.6 382.45 76.85 385.2 134.55 385.25 135.65 385.3 136.7 385.45 141 385.45 145.35 385.4 149.9 385.15 154.45 384.9 158.95 384.4 163.45 383.9 167.55 383.2 171.65 382.5 175.65 381.5 179.6 380.3 184.35 378.7 189 377.85 191.4 376.9 193.75 376 195.85 375 197.9 373.1 201.9 370.65 205.65 368.25 209.3 365.45 212.7 362.95 215.75 360.2 218.6 357.5 221.35 354.6 224 350.9 227.3 347 230.35 343.1 233.3 339 236.05 335.95 238 332.65 239.45 328.2 241.3 323.6 242.05 321.25 242.25 318.9 242.45 314.3 242.55 309.9 241.45 307.75 240.8 305.6 240.05 303.3 239.15 301.05 238.1 296.65 236.25 292.45 233.9 288.8 231.95 285.3 229.4 280.3 226.2 274.4 222.05 244.7 201.2 232.55 193.75 230.9 192.75 229.6 192 211.2 181.3 192.65 177.2 174.3 173.2 140.5 172.3 126.4 171.9 71.5 171.85 68.1 171.85 64.55 171.85 64.3 171.85 64.05 171.85 63.8 171.85 63.6 171.85 63.35 171.85 63.1 171.85 62.85 171.85 62.6 171.85 62.35 171.85 62.1 171.85 61.85 171.85 61.6 171.85 61.35 171.85 61.1 171.85 60.85 171.85 60.6 171.85 60.35 171.85 60.1 171.85 59.85 171.85 59.6 171.85 59.35 171.85 59.1 171.85 58.8 171.85 58.55 171.85 58.3 171.85 58.05 171.85 57.75 171.85 57.5 171.85 56.7 171.85 55.9 171.85 55.1 171.85 54.3 171.85
L 47.5 171.85
Q -23.65 171.85 -40 172.3 -73.8 173.2 -92.15 177.2 -110.7 181.3 -129.1 192 -130.4 192.75 -132 193.75 -144.2 201.2 -173.9 222.05 -179.8 226.2 -184.8 229.4 -188.3 231.95 -191.95 233.9 -196.15 236.25 -200.55 238.1 -202.8 239.15 -205.1 240.05 -207.25 240.8 -209.4 241.45 -213.8 242.55 -218.4 242.45 -220.75 242.25 -223.1 242.05 -227.7 241.3 -232.15 239.45 -235.45 238 -238.5 236.05 -242.6 233.3 -246.5 230.35 -250.4 227.3 -254.1 224 -257 221.35 -259.7 218.6 -262.45 215.75 -264.95 212.7 -267.75 209.3 -270.15 205.65 -272.6 201.9 -274.5 197.9 -275.5 195.85 -276.35 193.75 -277.35 191.4 -278.2 189 -279.8 184.35 -281 179.6 -282 175.65 -282.7 171.65 -283.4 167.55 -283.9 163.45 -284.4 158.95 -284.65 154.45 -284.9 149.9 -284.95 145.35 -284.95 141 -284.8 136.7 -284.75 135.65 -284.7 134.55 -281.95 76.85 -229.95 -57.6 -225.8 -68.1 -221.2 -79.7 -219.25 -84.7 -217.15 -89.85 -214.95 -96.25 -211.2 -101.85 -209.95 -103.75 -208.6 -105.6 -203.05 -112.55 -193.25 -122
L -189.75 -128.4
Q -187.8 -130.8 -185.4 -132.8 -185.25 -132.9 -185.1 -133.05 -184.5 -133.55 -183.9 -134 -182.25 -135.2 -180.6 -136.4 -177.45 -138.7 -174.1 -140.55 -171.6 -146.4 -167.9 -154.8 -161.3 -169.85 -155.9 -178.95 -154.6 -181.15 -153.55 -182.85 -150.15 -188.35 -147.45 -190.75 -144.8 -193.2 -138.5 -195.1 -131.65 -196.7 -126.8 -195.4 -121.95 -194.15 -120.45 -190.7 -118.95 -187.3 -115.75 -175.4 -112.8 -164.6 -108.4 -155.75 -103.85 -156.05 -99.35 -156.45 -97.15 -156.6 -94.95 -156.7 -91.85 -156.9 -88.7 -157 -86.85 -157.1 -84.95 -157.05 -81.5 -156.95 -78 -156.2 -72.75 -155.05 -68 -152.55 -66.95 -152 -65.9 -151.35 -57.35 -146.25 -55 -145.1 -52.65 -143.95 -51.3 -143.8 -48.05 -143.5 -42.6 -143.5
L 143.1 -143.5
Q 148.55 -143.5 151.8 -143.8 149.15 -138.05 147.7 -134.2 146.3 -130.4 146.15 -130.2 148.6 -130.55 150.1 -131.15 155.1 -133.1 168.85 -138.45 179.1 -142.45 185.55 -143.3 187.7 -143.6 189.45 -143.55 189.7 -143.55 190 -143.4 192.65 -143.35 195.55 -143.2 200.05 -142.95 205.3 -142.55 214.2 -141.9 234.4 -137.7 254.6 -133.55 263.7 -131.55 264.6 -131.35 265.5 -131.1 270.25 -130.1 275 -128.95 277.1 -128.55 279.2 -128.1 283.8 -127 288.65 -126.95 290.3 -126.9 290.35 -128.3
M 146.15 -130.2
Q 141.7 -129.5 134.1 -129.5
L -33.6 -129.5
Q -41.2 -129.5 -45.65 -130.2 -48.1 -130.55 -49.6 -131.15 -54.6 -133.1 -68.35 -138.45 -78.55 -142.45 -84.95 -143.3 -87.2 -143.65 -88.95 -143.55 -91.8 -143.45 -94.95 -143.3 -99.45 -143.05 -104.7 -142.65 -113.6 -142 -133.8 -137.8 -154 -133.65 -163.1 -131.65 -164 -131.45 -164.9 -131.2 -169.65 -130.2 -174.4 -129.05 -176.5 -128.65 -178.6 -128.2 -183.2 -127.1 -188.05 -127.05 -189.7 -127 -189.75 -128.4
M 14.2 -5.75
Q 14.2 -11.65 10.05 -15.8 5.85 -20 -0.05 -20 -5.95 -20 -10.1 -15.8 -14.3 -11.65 -14.3 -5.75 -14.3 0.15 -10.1 4.35 -5.95 8.5 -0.05 8.5 5.85 8.5 10.05 4.35 14.2 0.15 14.2 -5.75 Z
M 115.05 -5.8
Q 115.05 -11.7 110.9 -15.85 106.7 -20.05 100.8 -20.05 94.9 -20.05 90.75 -15.85 86.55 -11.7 86.55 -5.8 86.55 0.1 90.75 4.3 94.9 8.45 100.8 8.45 106.7 8.45 110.9 4.3 115.05 0.1 115.05 -5.8 Z
M 209 -155.65
Q 209.85 -155.6 210.75 -155.55 216.4 -155.1 222.1 -154.5 228.65 -153.65 235.1 -152.45 244.95 -150.5 248.05 -149.85 256.35 -148.05 263.2 -145.3 270.45 -142.45 273.85 -140.9 274.3 -140.65 274.7 -140.45
M 293.85 -121.9
Q 296.75 -115.1 297.8 -112.45 298.85 -109.85 299.05 -109.3 299.25 -108.7 299.45 -108
L 299.6 -107.45
Q 299.8 -106.9 300 -106.35
M 294.85 -102.65
Q 292.65 -103.35 289.8 -104.15 278.45 -107.5 253.6 -112.85 228.8 -118.25 220.1 -120 203.95 -123.25 190.85 -123.05 190.75 -123.05 190.6 -123.05
L -87.1 -123.05
Q -87.5 -123.05 -87.95 -123.05 -89.1 -123.15 -90.25 -123.15 -103.35 -123.35 -119.5 -120.1 -128.2 -118.35 -153 -112.95 -177.85 -107.6 -189.2 -104.25 -192.05 -103.45 -194.25 -102.75
M -199.4 -106.45
Q -199.2 -107 -199 -107.55
L -198.85 -108.1
Q -198.65 -108.8 -198.45 -109.4 -198.25 -109.95 -197.2 -112.55 -196.15 -115.2 -193.25 -122
M 299.95 -106.3
Q 299.8 -106.85 299.6 -107.45
M 185.55 -157.05
Q 187.45 -157 189.3 -156.9 189.65 -156.9 190 -156.85
M 190 -143.4
Q 189.75 -143.45 189.55 -143.45 187.8 -143.55 185.55 -143.3
M 204.7 -6.5
Q 204.7 -6.85 204.7 -7.2 204.45 -15.85 198.25 -22.05 194.7 -25.6 190.4 -27.15 186.95 -28.45 183 -28.5 182.85 -28.5 182.65 -28.5 173.5 -28.5 167.05 -22.05 160.6 -15.6 160.6 -6.5 160.6 2.6 167.05 9.05 173.5 15.5 182.65 15.5 182.85 15.5 183 15.5 191.9 15.4 198.25 9.05 204.7 2.6 204.7 -6.5 Z
M 319.8 -84.6
Q 318.7 -87.2 317.65 -89.85 317.25 -91.1 316.8 -92.3
M 300.2 -10.15
Q 300.2 -19.3 293.75 -25.75 287.25 -32.2 278.1 -32.2 272.8 -32.2 268.4 -30 265.2 -28.45 262.5 -25.75 256 -19.3 256 -10.15 256 -8.65 256.2 -7.2 257.05 0.05 262.5 5.45 268.95 11.9 278.1 11.9 287.25 11.9 293.75 5.45 300.2 -1 300.2 -10.15 Z
M 251.2 35.55
Q 251.2 26.4 244.75 19.95 238.3 13.5 229.15 13.5 220 13.5 213.55 19.95 211.05 22.45 209.5 25.4 208.5 27.3 207.9 29.4 207.1 32.3 207.1 35.55 207.1 44.7 213.55 51.15 220 57.6 229.15 57.6 238.3 57.6 244.75 51.15 251.2 44.7 251.2 35.55 Z
M 105.9 117.45
Q 100.6 108.3 100.6 96.95 100.6 79.7 112.8 67.5 124.95 55.3 142.2 55.3 147 55.3 151.4 56.25 162.85 58.7 171.65 67.5 173.5 69.35 175.05 71.3 183.85 82.3 183.85 96.95 183.85 102.65 182.3 108.25 180.95 113.1 178.6 117.3 176.25 126.95 168.7 134.45 157.75 145.45 142.2 145.45 126.7 145.45 115.7 134.45 108.25 127 105.9 117.45 104.75 112.95 104.75 107.95 104.75 92.45 115.7 81.45 126.7 70.5 142.2 70.5 157.75 70.5 168.7 81.45 179.7 92.45 179.7 107.95 179.7 112.85 178.6 117.3
M 58.4 31.6
L 42.2 31.6
Q 38.4 31.6 35.75 28.9 33.05 26.25 33.05 22.45 33.05 18.65 35.75 15.95 38.4 13.25 42.2 13.25
L 58.4 13.25
Q 62.2 13.25 64.9 15.95 67.6 18.65 67.6 22.45 67.6 26.25 64.9 28.9 62.2 31.6 58.4 31.6 Z
M -22.15 115.55
L -21.55 115.55 4.85 117.65
Q 6.4 117.75 7.2 116.3 8.05 114.7 8.65 113 8.85 112.4 9.05 111.8 9.4 110.65 9.7 109.45 10 108.45 10.8 105.15 11.6 101.8 11.45 97.7 11.3 93.55 10.9 91.45 10.45 89.3 10.15 88.2 9.85 86.95 9.5 85.8 9.35 85.2 9.1 84.65 8.9 84.25 8.65 83.9 8.5 83.75 8.4 83.65 8.2 83.55 8 83.45 7.55 83.3 7.1 83.2
L -21.45 80.5 -22.15 80.5
M -22.15 115.55
L -22.15 138.4
Q -22.35 140.75 -24.7 140.95 -29.35 141.85 -34.1 142.45 -38.35 142.75 -42.9 142.6 -47.85 142.25 -52.8 141.35 -54.25 141.05 -55.65 140.75 -56.1 140.5 -56.45 140.15 -56.8 139.8 -57 139.35 -57.15 138.9 -57.25 138.4
L -57.25 115.55
M -57.85 115.55
L -84.2 117.65
Q -84.65 117.6 -84.95 117.4 -85.8 116.95 -86.2 116.2 -87.85 112.9 -88.95 109.4 -90.55 104.15 -90.65 98.8 -90.65 97.7 -90.65 96.6 -90.6 95.5 -90.55 94.4 -90.45 93.25 -90.3 92.2 -90.05 90.8 -89.85 89.45 -89.5 86.9 -88.5 84.65 -88 83.45 -86.5 83.2
L -57.9 80.5
M -57.25 80.5
L -57.25 54.2
Q -57.15 53.7 -57 53.25 -56.8 52.8 -56.45 52.45 -56.1 52.1 -55.65 51.85 -54.25 51.55 -52.8 51.25 -47.85 50.35 -42.9 50 -38.35 49.85 -34.1 50.15 -29.35 50.75 -24.7 51.65 -22.35 51.85 -22.15 54.2
L -22.15 80.5
M 17.8 96.5
Q 17.8 118.25 0.95 133.65 -15.95 149 -39.8 149 -63.7 149 -80.55 133.65 -97.45 118.25 -97.45 96.5 -97.45 74.8 -80.55 59.4 -63.7 44.05 -39.8 44.05 -15.95 44.05 0.95 59.4 17.8 74.8 17.8 96.5 Z
M -108.4 -155.75
Q -109.25 -155.7 -110.15 -155.65 -115.8 -155.2 -121.5 -154.6 -128.05 -153.75 -134.5 -152.55 -144.35 -150.6 -147.45 -149.95 -155.75 -148.15 -162.6 -145.4 -169.85 -142.55 -173.25 -141 -173.7 -140.75 -174.1 -140.55
M -199.35 -106.4
Q -199.2 -106.95 -199 -107.55
M -51.3 -143.8
Q -48.65 -138.05 -47.2 -134.2 -45.8 -130.4 -45.65 -130.2
M -90.8 17.2
Q -89.7 12.75 -89.7 7.85 -89.7 -7.65 -100.7 -18.65 -111.65 -29.6 -127.2 -29.6 -142.7 -29.6 -153.7 -18.65 -164.65 -7.65 -164.65 7.85 -164.65 12.85 -163.5 17.35 -161.15 26.9 -153.7 34.35 -142.7 45.35 -127.2 45.35 -111.65 45.35 -100.7 34.35 -93.15 26.85 -90.8 17.2 -88.45 13 -87.1 8.15 -85.55 2.55 -85.55 -3.15 -85.55 -20.4 -97.75 -32.6 -109.95 -44.8 -127.2 -44.8 -144.45 -44.8 -156.6 -32.6 -168.8 -20.4 -168.8 -3.15 -168.8 8.2 -163.5 17.35"/>

<path id="Layer1_0_2_STROKES" stroke="#FFFFFF" stroke-width="2" stroke-linejoin="round" stroke-linecap="butt" fill="none" d="
M -4.6 -4.5
L -7.4 -4.5 -7.4 -11 0.95 -11 0.95 -8.7
M 94.3 -0.8
L 107.85 -0.8
M 94.3 -5.25
L 107.85 -5.25
M 94.3 -9.7
L 107.85 -9.7"/>

<path id="Layer1_0_3_STROKES" stroke="#FFFFFF" stroke-width="3" stroke-linejoin="round" stroke-linecap="butt" fill="none" d="
M 300 -106.35
L 299.95 -106.3
Q 300.85 -101.45 294.85 -102.65
M -194.25 -102.75
Q -200.25 -101.55 -199.35 -106.4
L -199.4 -106.45"/>

<path id="Layer1_0_4_STROKES" stroke="#FFFFFF" stroke-width="3" stroke-linejoin="bevel" stroke-linecap="square" fill="none" d="
M 217.25 -35.45
Q 218.5 -34.4 219.85 -33.55 220.15 -33.35 220.45 -33.15 226.85 -29.35 234.65 -30.3 243 -31.6 248.1 -37.7 249 -38.8 249.8 -40.05 255.4 -48.65 252.4 -58.55 249.4 -68.4 239.9 -72.3 230.45 -76.2 221.4 -71.5 212.25 -66.65 210.2 -56.5 208.55 -48.35 212.35 -41.55 213.35 -39.8 214.7 -38.1 214.85 -37.9 215.05 -37.7 215.65 -37 216.25 -36.35"/>

<path id="Layer1_0_5_STROKES" stroke="#FFFFFF" stroke-width="1" stroke-linejoin="bevel" stroke-linecap="square" fill="none" d="
M 216.25 -36.35
Q 216.35 -36.25 216.45 -36.15 216.8 -35.8 217.25 -35.45"/>

<path id="Layer1_0_6_STROKES" stroke="#FFFFFF" stroke-width="2" stroke-linejoin="round" stroke-linecap="round" fill="none" d="
M 48.25 20.05
L 50.3 17.95 52.4 20.05
M 50.3 17.95
L 50.3 22.35
M 58.95 21.05
L 58.95 26.45 41.7 26.45 41.7 21.05
M 6.8 0.65
L -1.5 0.65 -1.5 -5.85 6.8 -5.85 6.8 0.65 Z"/>

<path id="Layer1_0_7_STROKES" stroke="#FFFFFF" stroke-width="2" stroke-linejoin="round" stroke-linecap="square" fill="none" d="
M -22.15 115.55
L -22.15 80.5
M -57.85 115.55
L -57.25 115.55
M -57.9 80.5
L -57.25 80.5 -22.15 80.5
M -57.25 115.55
L -22.15 115.55
M -57.9 80.5
L -57.85 115.55"/>

</defs>

<g transform="matrix( 1, 0, 0, 1, 0,0) ">
<use xlink:href="#Layer1_0_FILL"/>

<use xlink:href="#Layer1_0_1_STROKES"/>

<use xlink:href="#Layer1_0_2_STROKES"/>

<use xlink:href="#Layer1_0_3_STROKES"/>

<use xlink:href="#Layer1_0_4_STROKES"/>

<use xlink:href="#Layer1_0_5_STROKES"/>

<use xlink:href="#Layer1_0_6_STROKES"/>

<use xlink:href="#Layer1_0_7_STROKES"/>
</g>

<g transform="matrix( 1, 0, 0, 1, -3.4,-28) ">
<clipPath id="Mask_Mask_1">
<rect x="3.8" y="-2" width="99.2" height="20.8" fill="#FFFFFF" stroke="none"/>
</clipPath>

<text clip-path="url(#Mask_Mask_1)" writing-mode="lr"><tspan x="5.85" y="13.6" baseline-shift="0%" kerning="auto" font-family="Arial_Regular" font-size="15" fill="#999999" xml:space="preserve">Xbox Series X</tspan></text>
</g>
</svg>
