
<svg xmlns="http://www.w3.org/2000/svg" version="1.1" xmlns:xlink="http://www.w3.org/1999/xlink" x="0px" y="0px" viewBox="0 0 100 100">
<defs>
<g id="Layer1_0_FILL">
<path fill="#1B1B1B" stroke="none" d="
M 19.4 19.1
Q 19.35 19.2 19.25 19.3 12.6 26.3 10.8 37.55 8.35 46.6 12.95 55.85 18.55 66.9 29.15 71.5 63.65 86.45 75.3 81.05 90.8 75.35 90.8 60 89.75 35.6 64.5 31.75 50 30.6 38.55 25.55 28.5 21.05 23.6 15.5 21.3 17.1 19.4 19.1
M 85.8 60
Q 85.8 60.05 85.8 60.1 85.65 72 73.45 76.4 62.75 80.65 31.15 66.9 22.15 63 17.4 53.6
L 17.45 53.6
Q 13.7 46.05 15.7 38.7 16.95 30.8 20.65 25.5 21.4 22.95 24.7 22.5 28.05 26.3 36.5 30.1 48.7 35.5 64.1 36.75 84.8 40 85.8 60 Z"/>

<path fill="#3F3F3F" stroke="none" d="
M 27.55 35.65
L 27.6 35.7
Q 38.6 48.1 63.85 51.2 69.6 51.95 73.25 55 77.5 59.7 78 67.2 79.65 57.95 76.25 52.8 72.95 47.3 64.45 46.25 41.45 43.4 31.3 32.35 27.4 27.9 24.7 22.5 21.4 22.95 20.65 25.5 23.5 31.05 27.55 35.65 Z"/>

<path fill="#2E2E2E" stroke="none" d="
M 85.8 60.1
Q 85.8 60.05 85.8 60 84.8 40 64.1 36.75 48.7 35.5 36.5 30.1 28.05 26.3 24.7 22.5 27.4 27.9 31.3 32.35 41.45 43.4 64.45 46.25 72.95 47.3 76.25 52.8 79.65 57.95 78 67.2 77.5 59.7 73.25 55 69.6 51.95 63.85 51.2 38.6 48.1 27.6 35.7
L 27.55 35.65
Q 23.5 31.05 20.65 25.5 16.95 30.8 15.7 38.7 13.7 46.05 17.45 53.6
L 17.4 53.6
Q 22.15 63 31.15 66.9 62.75 80.65 73.45 76.4 85.65 72 85.8 60.1
M 40.35 67.4
L 40.35 49.7 46.3 51.4
Q 47.5 51.75 48.55 52.3 49.65 52.85 50.4 53.75 51.2 54.55 51.7 55.75 52.1 56.9 52.1 58.45 52.1 60.35 51.3 61.4 50.4 62.5 48.8 62.3
L 52.75 70.95 48.65 69.75 45.4 61.75 43.75 61.25 43.75 68.35 40.35 67.4
M 64.1 57.35
Q 65.55 58.25 66.75 59.85 66.85 59.9 66.85 60.05 66.85 60.2 66.85 60.35 66.85 60.4 66.75 60.5
L 64.95 62.15
Q 64.8 62.3 64.65 62.25 64.45 62.2 64.4 62.05 63.75 61.2 63 60.55 62.05 59.85 61.1 59.55 60.1 59.3 59.35 59.5
L 59.35 59.45
Q 58.6 59.65 58 60.15 57.45 60.7 57.2 61.6
L 57.15 61.55
Q 56.85 62.4 56.85 63.45 56.85 64.6 57.2 65.65
L 57.2 65.7
Q 57.45 66.7 58 67.55 58.6 68.45 59.35 69.05 60.1 69.7 61.1 69.95 62 70.2 62.75 70.25 63.35 70.25 63.9 70.15
L 63.9 67.35 61.5 66.7
Q 61.35 66.65 61.3 66.45 61.15 66.3 61.15 66.1
L 61.15 63.4
Q 61.15 63.2 61.3 63.05 61.35 63 61.5 63.05
L 66.75 64.55
Q 66.85 64.6 67 64.7 67.15 64.9 67.15 65.1
L 67.15 73.25
Q 67.15 73.4 67.1 73.5 67 73.6 66.9 73.65 64.25 74.5 61.1 73.6 59.45 73.15 58.1 72.15 56.6 71.05 55.65 69.7
L 55.65 69.65
Q 54.65 68.2 54.1 66.4 53.5 64.6 53.5 62.7 53.5 60.7 54.1 59.15 54.65 57.65 55.65 56.8 56.6 55.85 58.1 55.75 59.45 55.45 61.1 55.9 62.7 56.4 64.1 57.35
M 47.75 55.45
Q 47.35 55.15 46.9 54.95 46.45 54.75 45.95 54.6
L 43.75 53.95 43.75 57.95 45.75 58.55
Q 46.2 58.65 46.7 58.8 47.25 58.9 47.6 58.85 48.05 58.75 48.3 58.45 48.6 58.15 48.6 57.4 48.6 56.75 48.35 56.25 48.1 55.75 47.75 55.45 Z"/>

<path fill="#8F8F8F" stroke="none" d="
M 66.75 59.85
Q 65.55 58.25 64.1 57.35 62.7 56.4 61.1 55.9 59.45 55.45 58.1 55.75 56.6 55.85 55.65 56.8 54.65 57.65 54.1 59.15 53.5 60.7 53.5 62.7 53.5 64.6 54.1 66.4 54.65 68.2 55.65 69.65
L 55.65 69.7
Q 56.6 71.05 58.1 72.15 59.45 73.15 61.1 73.6 64.25 74.5 66.9 73.65 67 73.6 67.1 73.5 67.15 73.4 67.15 73.25
L 67.15 65.1
Q 67.15 64.9 67 64.7 66.85 64.6 66.75 64.55
L 61.5 63.05
Q 61.35 63 61.3 63.05 61.15 63.2 61.15 63.4
L 61.15 66.1
Q 61.15 66.3 61.3 66.45 61.35 66.65 61.5 66.7
L 63.9 67.35 63.9 70.15
Q 63.35 70.25 62.75 70.25 62 70.2 61.1 69.95 60.1 69.7 59.35 69.05 58.6 68.45 58 67.55 57.45 66.7 57.2 65.7
L 57.2 65.65
Q 56.85 64.6 56.85 63.45 56.85 62.4 57.15 61.55
L 57.2 61.6
Q 57.45 60.7 58 60.15 58.6 59.65 59.35 59.45
L 59.35 59.5
Q 60.1 59.3 61.1 59.55 62.05 59.85 63 60.55 63.75 61.2 64.4 62.05 64.45 62.2 64.65 62.25 64.8 62.3 64.95 62.15
L 66.75 60.5
Q 66.85 60.4 66.85 60.35 66.85 60.2 66.85 60.05 66.85 59.9 66.75 59.85
M 40.35 49.7
L 40.35 67.4 43.75 68.35 43.75 61.25 45.4 61.75 48.65 69.75 52.75 70.95 48.8 62.3
Q 50.4 62.5 51.3 61.4 52.1 60.35 52.1 58.45 52.1 56.9 51.7 55.75 51.2 54.55 50.4 53.75 49.65 52.85 48.55 52.3 47.5 51.75 46.3 51.4
L 40.35 49.7
M 46.9 54.95
Q 47.35 55.15 47.75 55.45 48.1 55.75 48.35 56.25 48.6 56.75 48.6 57.4 48.6 58.15 48.3 58.45 48.05 58.75 47.6 58.85 47.25 58.9 46.7 58.8 46.2 58.65 45.75 58.55
L 43.75 57.95 43.75 53.95 45.95 54.6
Q 46.45 54.75 46.9 54.95 Z"/>
</g>

</defs>

<g transform="matrix( 1, 0, 0, 1, 0,0) ">
<use xlink:href="#Layer1_0_FILL"/>
</g>

<g transform="matrix( 1, 0, 0, 1, -3.4,-28) ">
<clipPath id="Mask_Mask_1">
<rect x="6" y="-2" width="94.8" height="20.8" fill="#FFFFFF" stroke="none"/>
</clipPath>

<text clip-path="url(#Mask_Mask_1)" writing-mode="lr"><tspan x="8.05" y="13.6" baseline-shift="0%" kerning="auto" font-family="Arial_Regular" font-size="15" fill="#999999" xml:space="preserve">Oculus Touch</tspan></text>
</g>
</svg>
