
<svg xmlns="http://www.w3.org/2000/svg" version="1.1" xmlns:xlink="http://www.w3.org/1999/xlink" x="0px" y="0px" viewBox="0 0 100 100">
<defs>
<g id="Layer1_0_FILL">
<path fill="#2E2E2E" stroke="none" d="
M 83.75 21.3
Q 82.5892578125 19.9892578125 81.3 18.7 77.618359375 15.018359375 73.5 12.35 72.7572265625 11.900390625 72 11.45 62.1921875 5.75 50 5.75 31.65 5.75 18.7 18.7 5.75 31.65 5.75 50 5.75 68.35 18.7 81.3 31.65 94.25 50 94.25 68.35 94.25 81.3 81.3 94.25 68.35 94.25 50 94.25 40.6794921875 90.9 32.75 88.3271484375 26.622265625 83.75 21.3
M 82.05 24.75
Q 85.0833984375 28.52578125 87.05 32.75 90.75 40.6421875 90.75 50.1 90.75 66.95 78.95 78.95 66.95 90.75 50.1 90.75 33.2 90.75 21.3 78.95 9.3 66.95 9.3 50.1 9.3 33.2 21.3 21.3 33.2 9.3 50.1 9.3 62.3271484375 9.3 72 15.6 72.7578125 16.116015625 73.5 16.65 76.33984375 18.68984375 78.95 21.3 80.611328125 22.975390625 82.05 24.75
M 87.05 32.75
Q 85.0833984375 28.52578125 82.05 24.75 80.611328125 22.975390625 78.95 21.3 76.33984375 18.68984375 73.5 16.65 72.7578125 16.116015625 72 15.6 62.3271484375 9.3 50.1 9.3 33.2 9.3 21.3 21.3 9.3 33.2 9.3 50.1 9.3 66.95 21.3 78.95 33.2 90.75 50.1 90.75 66.95 90.75 78.95 78.95 90.75 66.95 90.75 50.1 90.75 40.6421875 87.05 32.75
M 50 28.2
Q 59.05 28.2 65.45 34.6 71.8 41 71.8 50 71.8 59.05 65.45 65.45 59.05 71.8 50 71.8 41 71.8 34.6 65.45 28.2 59.05 28.2 50 28.2 41 34.6 34.6 41 28.2 50 28.2
M 65.45 34.6
Q 59.05 28.2 50 28.2 41 28.2 34.6 34.6 28.2 41 28.2 50 28.2 59.05 34.6 65.45 41 71.8 50 71.8 59.05 71.8 65.45 65.45 71.8 59.05 71.8 50 71.8 41 65.45 34.6
M 50 32
Q 57.45 32 62.75 37.3 67.95 42.55 67.95 50 67.95 57.45 62.75 62.75 57.45 67.95 50 67.95 42.55 67.95 37.3 62.75 32 57.45 32 50 32 42.55 37.3 37.3 42.55 32 50 32
M 62.75 37.3
Q 57.45 32 50 32 42.55 32 37.3 37.3 32 42.55 32 50 32 57.45 37.3 62.75 42.55 67.95 50 67.95 57.45 67.95 62.75 62.75 67.95 57.45 67.95 50 67.95 42.55 62.75 37.3 Z"/>
</g>

<path id="Layer1_0_1_STROKES" stroke="#1B1B1B" stroke-width="5" stroke-linejoin="round" stroke-linecap="round" fill="none" d="
M 83.75 21.325
Q 88.3271484375 26.622265625 90.9 32.75 94.25 40.6794921875 94.25 50 94.25 68.35 81.3 81.3 68.35 94.25 50 94.25 31.65 94.25 18.7 81.3 5.75 68.35 5.75 50 5.75 31.65 18.7 18.7 31.65 5.75 50 5.75 62.1921875 5.75 72 11.45 72.7572265625 11.900390625 73.5 12.375 77.618359375 15.018359375 81.3 18.7 82.5892578125 19.9892578125 83.75 21.325 Z"/>

<path id="Layer1_0_2_STROKES" stroke="#1B1B1B" stroke-width="4" stroke-linejoin="round" stroke-linecap="round" fill="none" d="
M 50 28.2
Q 59.05 28.2 65.45 34.6 71.8 41 71.8 50 71.8 59.05 65.45 65.45 59.05 71.8 50 71.8 41 71.8 34.6 65.45 28.2 59.05 28.2 50 28.2 41 34.6 34.6 41 28.2 50 28.2 Z"/>

<path id="Layer1_0_3_STROKES" stroke="#3B3B3B" stroke-width="4" stroke-linejoin="round" stroke-linecap="round" fill="none" d="
M 82.05 24.75
Q 85.0833984375 28.52578125 87.05 32.75 90.75 40.6421875 90.75 50.1 90.75 66.95 78.95 78.95 66.95 90.75 50.1 90.75 33.2 90.75 21.3 78.95 9.3 66.95 9.3 50.1 9.3 33.2 21.3 21.3 33.2 9.3 50.1 9.3 62.3271484375 9.3 72 15.625 72.7578125 16.116015625 73.5 16.65 76.33984375 18.68984375 78.95 21.3 80.611328125 22.975390625 82.05 24.75 Z
M 50 32
Q 57.45 32 62.75 37.3 67.95 42.55 67.95 50 67.95 57.45 62.75 62.75 57.45 67.95 50 67.95 42.55 67.95 37.3 62.75 32 57.45 32 50 32 42.55 37.3 37.3 42.55 32 50 32 Z"/>

</defs>

<g transform="matrix( 1, 0, 0, 1, 0,0) ">
<use xlink:href="#Layer1_0_FILL"/>

<use xlink:href="#Layer1_0_1_STROKES"/>

<use xlink:href="#Layer1_0_2_STROKES"/>

<use xlink:href="#Layer1_0_3_STROKES"/>
</g>

<g transform="matrix( 1, 0, 0, 1, -3.4,-28) ">
<clipPath id="Mask_Mask_1">
<rect x="-0.4" y="-2" width="107.6" height="20.8" fill="#FFFFFF" stroke="none"/>
</clipPath>

<text clip-path="url(#Mask_Mask_1)" writing-mode="lr"><tspan x="1.7" y="13.6" baseline-shift="0%" kerning="auto" font-family="Arial_Regular" font-size="15" fill="#999999" xml:space="preserve">Oculus Remote</tspan></text>
</g>
</svg>
