
<svg xmlns="http://www.w3.org/2000/svg" version="1.1" xmlns:xlink="http://www.w3.org/1999/xlink" x="0px" y="0px" viewBox="0 0 100 100">
<defs>
<g id="Layer1_0_FILL">
<path fill="#000000" stroke="none" d="
M 81.65 81.65
Q 94.7 68.55 94.7 50 94.7 31.5 81.65 18.4 68.55 5.3 50 5.3 31.5 5.3 18.4 18.4 5.3 31.5 5.3 50 5.3 68.55 18.4 81.65 31.5 94.7 50 94.7 68.55 94.7 81.65 81.65
M 50 13.95
Q 65.05 13.95 75.55 24.55 86.15 35.1 86.15 50 86.15 65.05 75.55 75.55 65.05 86.15 50 86.15 35.1 86.15 24.55 75.55 13.95 65.05 13.95 50 13.95 35.1 24.55 24.55 35.1 13.95 50 13.95 Z"/>

<path fill="#3F3F3F" stroke="none" d="
M 75.55 24.55
Q 65.05 13.95 50 13.95 35.1 13.95 24.55 24.55 13.95 35.1 13.95 50 13.95 65.05 24.55 75.55 35.1 86.15 50 86.15 65.05 86.15 75.55 75.55 86.15 65.05 86.15 50 86.15 35.1 75.55 24.55
M 50 24.15
Q 60.8 24.15 68.35 31.75 75.95 39.3 75.95 50 75.95 60.8 68.35 68.35 60.8 75.95 50 75.95 39.3 75.95 31.75 68.35 24.15 60.8 24.15 50 24.15 39.3 31.75 31.75 39.3 24.15 50 24.15 Z"/>

<path fill="#151515" stroke="none" d="
M 68.35 31.75
Q 60.8 24.15 50 24.15 39.3 24.15 31.75 31.75 24.15 39.3 24.15 50 24.15 60.8 31.75 68.35 39.3 75.95 50 75.95 60.8 75.95 68.35 68.35 75.95 60.8 75.95 50 75.95 39.3 68.35 31.75
M 57.5 39.3
Q 58.8 40.15 59.55 41.6 60.3 43.05 60.3 45.25 60.3 47.85 58.95 49.7 57.55 51.55 54.95 52
L 61.25 62.5 54.7 62.5 49.5 52.6 46.85 52.6 46.85 62.5 41.4 62.5 41.4 37.7 50.95 37.7
Q 52.85 37.7 54.55 38.1 56.25 38.45 57.5 39.3
M 50.4 42.35
L 46.85 42.35 46.85 47.95 50.05 47.95
Q 50.8 47.95 51.6 47.9 52.4 47.85 53.1 47.6 53.75 47.35 54.2 46.8 54.6 46.25 54.6 45.2 54.6 44.25 54.25 43.7 53.85 43.15 53.25 42.85 52.65 42.55 51.9 42.45 51.15 42.35 50.4 42.35 Z"/>

<path fill="#8C8C8C" stroke="none" d="
M 59.55 41.6
Q 58.8 40.15 57.5 39.3 56.25 38.45 54.55 38.1 52.85 37.7 50.95 37.7
L 41.4 37.7 41.4 62.5 46.85 62.5 46.85 52.6 49.5 52.6 54.7 62.5 61.25 62.5 54.95 52
Q 57.55 51.55 58.95 49.7 60.3 47.85 60.3 45.25 60.3 43.05 59.55 41.6
M 46.85 42.35
L 50.4 42.35
Q 51.15 42.35 51.9 42.45 52.65 42.55 53.25 42.85 53.85 43.15 54.25 43.7 54.6 44.25 54.6 45.2 54.6 46.25 54.2 46.8 53.75 47.35 53.1 47.6 52.4 47.85 51.6 47.9 50.8 47.95 50.05 47.95
L 46.85 47.95 46.85 42.35 Z"/>
</g>

<path id="Layer1_0_1_STROKES" stroke="#151515" stroke-width="4" stroke-linejoin="round" stroke-linecap="round" fill="none" d="
M 50 13.95
Q 65.05 13.95 75.55 24.55 86.15 35.1 86.15 50 86.15 65.05 75.55 75.55 65.05 86.15 50 86.15 35.1 86.15 24.55 75.55 13.95 65.05 13.95 50 13.95 35.1 24.55 24.55 35.1 13.95 50 13.95 Z"/>

<path id="Layer1_0_2_STROKES" stroke="#646464" stroke-width="4" stroke-linejoin="round" stroke-linecap="round" fill="none" d="
M 50 24.15
Q 60.8 24.15 68.35 31.75 75.95 39.3 75.95 50 75.95 60.8 68.35 68.35 60.8 75.95 50 75.95 39.3 75.95 31.75 68.35 24.15 60.8 24.15 50 24.15 39.3 31.75 31.75 39.3 24.15 50 24.15 Z"/>

</defs>

<g transform="matrix( 1, 0, 0, 1, 0,0) ">
<use xlink:href="#Layer1_0_FILL"/>

<use xlink:href="#Layer1_0_1_STROKES"/>

<use xlink:href="#Layer1_0_2_STROKES"/>
</g>

<g transform="matrix( 1, 0, 0, 1, -3.4,-28) ">
<clipPath id="Mask_Mask_1">
<rect x="6" y="-2" width="94.8" height="20.8" fill="#FFFFFF" stroke="none"/>
</clipPath>

<text clip-path="url(#Mask_Mask_1)" writing-mode="lr"><tspan x="8.05" y="13.6" baseline-shift="0%" kerning="auto" font-family="Arial_Regular" font-size="15" fill="#999999" xml:space="preserve">Oculus Touch</tspan></text>
</g>
</svg>
