
<svg xmlns="http://www.w3.org/2000/svg" version="1.1" xmlns:xlink="http://www.w3.org/1999/xlink" x="0px" y="0px" viewBox="0 0 100 100">
<defs>
<linearGradient id="Gradient_1" gradientUnits="userSpaceOnUse" x1="65.925" y1="60.15" x2="23.575" y2="52.85" spreadMethod="pad">
<stop  offset="0%" stop-color="#FFFFFF" stop-opacity="0"/>

<stop  offset="100%" stop-color="#FFFFFF"/>
</linearGradient>

<g id="Layer1_0_FILL">
<path fill="#1B1B1B" stroke="none" d="
M 83.05 83.1
Q 96.75 69.4 96.75 50 96.75 30.6 83.05 16.95 69.4 3.25 50 3.25 30.6 3.25 16.9 16.95 3.25 30.6 3.25 50 3.25 69.4 16.9 83.1 30.6 96.75 50 96.75 69.4 96.75 83.05 83.1
M 50 7
Q 67.8 7 80.4 19.6 93 32.2 93 50 93 67.8 80.4 80.45 67.8 93 50 93 32.2 93 19.55 80.45 7 67.8 7 50 7 32.2 19.55 19.6 32.2 7 50 7
M 70 48.95
L 73.75 48.9
Q 73.4 39.8 66.8 33.2 59.85 26.2 50 26.2 40.1 26.2 33.1 33.2 26.2 40.2 26.2 50 26.2 59.85 33.1 66.85
L 33.15 66.9
Q 40.15 73.8 50 73.8 59.8 73.8 66.8 66.9 72.05 61.65 73.35 54.85
L 70 48.95
M 50 30
Q 58.25 30 64.1 35.9 70 41.75 70 50 70 58.3 64.1 64.2 58.25 69.95 50 69.95 41.75 69.95 35.85 64.2
L 35.8 64.15
Q 30.05 58.25 30.05 50 30.05 41.75 35.8 35.9 41.7 30 50 30 Z"/>

<path fill="#3B3B3B" stroke="none" d="
M 80.4 19.6
Q 67.8 7 50 7 32.2 7 19.55 19.6 7 32.2 7 50 7 67.8 19.55 80.45 32.2 93 50 93 67.8 93 80.4 80.45 93 67.8 93 50 93 32.2 80.4 19.6
M 88.65 48.8
Q 90.35 48.75 92 48.7
L 88.4 55.25
Q 86.8 68 77.25 77.55
L 77.3 77.55
Q 66.3 88.4 50.85 88.75 50.4 88.75 49.9 88.75 33.9 88.75 22.45 77.55 18.8 73.8 16.35 69.6 11.25 60.9 11.25 50.1 11.25 34 22.45 22.7
L 22.45 22.75
Q 33.9 11.3 49.9 11.3 65.95 11.3 77.25 22.7
L 77.3 22.75
Q 88.25 33.55 88.65 48.8
M 64.1 35.9
Q 58.25 30 50 30 41.7 30 35.8 35.9 30.05 41.75 30.05 50 30.05 58.25 35.8 64.15
L 35.85 64.2
Q 41.75 69.95 50 69.95 58.25 69.95 64.1 64.2 70 58.3 70 50 70 41.75 64.1 35.9
M 61.25 38.7
L 61.3 38.75
Q 66 43.4 66 50 66 56.6 61.25 61.35
L 61.3 61.35
Q 56.65 65.95 50 65.95 43.4 65.95 38.65 61.35 34.05 56.6 34.05 50 34.05 43.35 38.65 38.7
L 38.65 38.75
Q 43.4 34 50 34 56.6 34 61.25 38.7 Z"/>

<path fill="#2E2E2E" stroke="none" d="
M 61.3 38.75
L 61.25 38.7
Q 56.6 34 50 34 43.4 34 38.65 38.75
L 38.65 38.7
Q 34.05 43.35 34.05 50 34.05 56.6 38.65 61.35 43.4 65.95 50 65.95 56.65 65.95 61.3 61.35
L 61.25 61.35
Q 66 56.6 66 50 66 43.4 61.3 38.75
M 81.05 48.85
L 82.6 48.85
Q 82.9 48.85 83.2 48.85 83.55 48.85 83.85 48.85 86.25 48.8 88.65 48.8 88.25 33.55 77.3 22.75
L 77.25 22.7
Q 65.95 11.3 49.9 11.3 33.9 11.3 22.45 22.75
L 22.45 22.7
Q 11.25 34 11.25 50.1 11.25 60.9 16.35 69.6 18.8 73.8 22.45 77.55 33.9 88.75 49.9 88.75 50.4 88.75 50.85 88.75 66.3 88.4 77.3 77.55
L 77.25 77.55
Q 86.8 68 88.4 55.25
L 81.1 68.4 73.35 54.85
Q 72.05 61.65 66.8 66.9 59.8 73.8 50 73.8 40.15 73.8 33.15 66.9
L 33.1 66.85
Q 26.2 59.85 26.2 50 26.2 40.2 33.1 33.2 40.1 26.2 50 26.2 59.85 26.2 66.8 33.2 73.4 39.8 73.75 48.9
L 78.75 48.85
Q 79 48.85 79.3 48.85
L 81.05 48.85
Q 80.7 36.6 71.95 27.8 62.7 18.6 49.75 18.6 36.75 18.6 27.6 27.8 18.35 37 18.35 50 18.35 52.3 18.65 54.5 19.25 58.95 21.05 62.9 23.35 67.9 27.6 72.15 36.75 81.35 49.75 81.35 51.9 81.35 53.85 81.1 59 80.5 63.5 78.3 59 80.5 53.85 81.1 51.9 81.35 49.75 81.35 36.75 81.35 27.6 72.15 23.35 67.9 21.05 62.9 19.25 58.95 18.65 54.5 18.35 52.3 18.35 50 18.35 37 27.6 27.8 36.75 18.6 49.75 18.6 62.7 18.6 71.95 27.8 80.7 36.6 81.05 48.85 Z"/>

<path fill="#FFFFFF" stroke="none" d="
M 82.6 48.85
L 81.05 48.85 79.3 48.85
Q 79 48.85 78.75 48.85
L 73.75 48.9 70 48.95 73.35 54.85 81.1 68.4 88.4 55.25 92 48.7
Q 90.35 48.75 88.65 48.8 86.25 48.8 83.85 48.85 83.55 48.85 83.2 48.85 82.9 48.85 82.6 48.85 Z"/>
</g>

<path id="Layer1_0_1_STROKES" stroke="#FFFFFF" stroke-width="8" stroke-linejoin="round" stroke-linecap="round" fill="none" d="
M 81.05 48.85
Q 80.7 36.6 71.95 27.8 62.7 18.6 49.75 18.6 36.75 18.6 27.6 27.8 18.35 37 18.35 50 18.35 52.3 18.65 54.5"/>

<path id="Layer1_0_2_STROKES" stroke="url(#Gradient_1)" stroke-width="8" stroke-linejoin="round" stroke-linecap="round" fill="none" d="
M 18.65 54.5
Q 19.25 58.95 21.05 62.9 23.35 67.9 27.6 72.15 36.75 81.35 49.75 81.35 51.9 81.35 53.85 81.1 59 80.5 63.5 78.3"/>

</defs>

<g transform="matrix( 1, 0, 0, 1, 0,0) ">
<use xlink:href="#Layer1_0_FILL"/>

<use xlink:href="#Layer1_0_1_STROKES"/>

<use xlink:href="#Layer1_0_2_STROKES"/>
</g>

<g transform="matrix( 1, 0, 0, 1, -3.4,-28) ">
<clipPath id="Mask_Mask_1">
<rect x="-0.4" y="-2" width="107.6" height="20.8" fill="#FFFFFF" stroke="none"/>
</clipPath>

<text clip-path="url(#Mask_Mask_1)" writing-mode="lr"><tspan x="1.7" y="13.6" baseline-shift="0%" kerning="auto" font-family="Arial_Regular" font-size="15" fill="#999999" xml:space="preserve">Oculus Remote</tspan></text>
</g>
</svg>
