
<svg xmlns="http://www.w3.org/2000/svg" version="1.1" xmlns:xlink="http://www.w3.org/1999/xlink" x="0px" y="0px" viewBox="0 0 100 100">
<defs>
<linearGradient id="Gradient_1" gradientUnits="userSpaceOnUse" x1="34.075" y1="60.15" x2="76.425" y2="52.85" spreadMethod="pad">
<stop  offset="0%" stop-color="#FFFFFF" stop-opacity="0"/>

<stop  offset="100%" stop-color="#FFFFFF"/>
</linearGradient>

<g id="Layer1_0_FILL">
<path fill="#1B1B1B" stroke="none" d="
M 83.05 83.05
Q 96.7525390625 69.3900390625 96.75 50 96.7525390625 30.609765625 83.05 16.9 69.3900390625 3.247265625 50 3.25 30.609765625 3.247265625 16.9 16.9 3.247265625 30.609765625 3.25 50 3.247265625 69.3900390625 16.9 83.05 30.609765625 96.7525390625 50 96.75 69.3900390625 96.7525390625 83.05 83.05
M 50 7
Q 67.8 7 80.45 19.6 93 32.2 93 50 93 67.8 80.45 80.45 67.8 93 50 93 32.2 93 19.6 80.45 7 67.8 7 50 7 32.2 19.6 19.6 32.2 7 50 7
M 66.85 33.2
L 66.85 33.15
Q 59.8837890625 26.19453125 50 26.2 40.1677734375 26.1927734375 33.15 33.15 26.583984375 39.7759765625 26.2 48.9
L 30 48.95 26.65 54.8
Q 27.9646484375 61.656640625 33.15 66.85
L 33.2 66.85
Q 40.1810546875 73.8029296875 50 73.8 59.870703125 73.8013671875 66.85 66.85
L 66.85 66.85
Q 73.8013671875 59.870703125 73.8 50 73.8029296875 40.1810546875 66.85 33.2
M 64.15 35.85
L 64.15 35.9
Q 69.949609375 41.728515625 69.95 50 69.9474609375 58.26796875 64.15 64.15
L 64.15 64.15
Q 58.26796875 69.9474609375 50 69.95 41.728515625 69.949609375 35.9 64.15
L 35.85 64.15
Q 29.992578125 58.2818359375 30 50 30.003515625 41.73203125 35.85 35.9
L 35.9 35.85
Q 41.73203125 30.003515625 50 30 58.2818359375 29.992578125 64.15 35.85 Z"/>

<path fill="#3B3B3B" stroke="none" d="
M 80.45 19.6
Q 67.8 7 50 7 32.2 7 19.6 19.6 7 32.2 7 50 7 67.8 19.6 80.45 32.2 93 50 93 67.8 93 80.45 80.45 93 67.8 93 50 93 32.2 80.45 19.6
M 88.75 50.1
Q 88.7505859375 60.8947265625 83.65 69.6 81.2009765625 73.805859375 77.55 77.5
L 77.5 77.55
Q 66.114453125 88.7509765625 50.1 88.75 49.6150390625 88.75 49.1 88.75 33.6802734375 88.411328125 22.7 77.5
L 22.7 77.5
Q 13.1763671875 67.9853515625 11.6 55.2
L 8 48.7
Q 9.6638671875 48.740625 11.3 48.75 11.769921875 33.5654296875 22.7 22.7
L 22.7 22.7
Q 34.035546875 11.2958984375 50.1 11.3 66.1181640625 11.307421875 77.5 22.7
L 77.5 22.7
Q 88.75 34.021875 88.75 50.1
M 64.15 35.9
L 64.15 35.85
Q 58.2818359375 29.992578125 50 30 41.73203125 30.003515625 35.9 35.85
L 35.85 35.9
Q 30.003515625 41.73203125 30 50 29.992578125 58.2818359375 35.85 64.15
L 35.9 64.15
Q 41.728515625 69.949609375 50 69.95 58.26796875 69.9474609375 64.15 64.15
L 64.15 64.15
Q 69.9474609375 58.26796875 69.95 50 69.949609375 41.728515625 64.15 35.9
M 61.3 38.7
L 61.3 38.7
Q 65.949609375 43.3708984375 65.95 50 65.9521484375 56.6142578125 61.35 61.3
L 61.3 61.35
Q 56.6142578125 65.9521484375 50 65.95 43.371484375 65.9501953125 38.7 61.3
L 38.7 61.3
Q 34.0072265625 56.61796875 34 50 33.996484375 43.385546875 38.7 38.7
L 38.7 38.7
Q 43.385546875 33.996484375 50 34 56.61796875 34.0072265625 61.3 38.7 Z"/>

<path fill="#FFFFFF" stroke="none" d="
M 11.3 48.75
Q 9.6638671875 48.740625 8 48.7
L 11.6 55.2 18.9 68.4 26.65 54.8 30 48.95 26.2 48.9 21.25 48.85
Q 21 48.85 20.7 48.85
L 18.9 48.85 17.4 48.85
Q 17.1 48.85 16.8 48.85 16.45 48.85 16.15 48.85 13.7435546875 48.8203125 11.3 48.75 Z"/>

<path fill="#2E2E2E" stroke="none" d="
M 61.3 38.7
L 61.3 38.7
Q 56.61796875 34.0072265625 50 34 43.385546875 33.996484375 38.7 38.7
L 38.7 38.7
Q 33.996484375 43.385546875 34 50 34.0072265625 56.61796875 38.7 61.3
L 38.7 61.3
Q 43.371484375 65.9501953125 50 65.95 56.6142578125 65.9521484375 61.3 61.35
L 61.35 61.3
Q 65.9521484375 56.6142578125 65.95 50 65.949609375 43.3708984375 61.3 38.7
M 81.65 50
Q 81.65 52.3 81.35 54.5 80.75 58.95 78.95 62.9 76.65 67.9 72.4 72.15 63.25 81.35 50.25 81.35 48.1 81.35 46.15 81.1 41 80.5 36.5 78.3 41 80.5 46.15 81.1 48.1 81.35 50.25 81.35 63.25 81.35 72.4 72.15 76.65 67.9 78.95 62.9 80.75 58.95 81.35 54.5 81.65 52.3 81.65 50 81.65 37 72.4 27.8 63.25 18.6 50.25 18.6 37.3 18.6 28.05 27.8 19.3072265625 36.5904296875 18.9 48.85
L 20.7 48.85
Q 21 48.85 21.25 48.85
L 26.2 48.9
Q 26.583984375 39.7759765625 33.15 33.15 40.1677734375 26.1927734375 50 26.2 59.8837890625 26.19453125 66.85 33.15
L 66.85 33.2
Q 73.8029296875 40.1810546875 73.8 50 73.8013671875 59.870703125 66.85 66.85
L 66.85 66.85
Q 59.870703125 73.8013671875 50 73.8 40.1810546875 73.8029296875 33.2 66.85
L 33.15 66.85
Q 27.9646484375 61.656640625 26.65 54.8
L 18.9 68.4 11.6 55.2
Q 13.1763671875 67.9853515625 22.7 77.5
L 22.7 77.5
Q 33.6802734375 88.411328125 49.1 88.75 49.6150390625 88.75 50.1 88.75 66.114453125 88.7509765625 77.5 77.55
L 77.55 77.5
Q 81.2009765625 73.805859375 83.65 69.6 88.7505859375 60.8947265625 88.75 50.1 88.75 34.021875 77.5 22.7
L 77.5 22.7
Q 66.1181640625 11.307421875 50.1 11.3 34.035546875 11.2958984375 22.7 22.7
L 22.7 22.7
Q 11.769921875 33.5654296875 11.3 48.75 13.7435546875 48.8203125 16.15 48.85 16.45 48.85 16.8 48.85 17.1 48.85 17.4 48.85
L 18.9 48.85
Q 19.3072265625 36.5904296875 28.05 27.8 37.3 18.6 50.25 18.6 63.25 18.6 72.4 27.8 81.65 37 81.65 50 Z"/>
</g>

<path id="Layer1_0_1_STROKES" stroke="#FFFFFF" stroke-width="8" stroke-linejoin="round" stroke-linecap="round" fill="none" d="
M 18.925 48.85
Q 19.3072265625 36.5904296875 28.05 27.8 37.3 18.6 50.25 18.6 63.25 18.6 72.4 27.8 81.65 37 81.65 50 81.65 52.3 81.35 54.5"/>

<path id="Layer1_0_2_STROKES" stroke="url(#Gradient_1)" stroke-width="8" stroke-linejoin="round" stroke-linecap="round" fill="none" d="
M 81.35 54.5
Q 80.75 58.95 78.95 62.9 76.65 67.9 72.4 72.15 63.25 81.35 50.25 81.35 48.1 81.35 46.15 81.1 41 80.5 36.5 78.3"/>

</defs>

<g transform="matrix( 1, 0, 0, 1, 0,0) ">
<use xlink:href="#Layer1_0_FILL"/>

<use xlink:href="#Layer1_0_1_STROKES"/>

<use xlink:href="#Layer1_0_2_STROKES"/>
</g>

<g transform="matrix( 1, 0, 0, 1, -3.4,-28) ">
<clipPath id="Mask_Mask_1">
<rect x="-0.4" y="-2" width="107.6" height="20.8" fill="#FFFFFF" stroke="none"/>
</clipPath>

<text clip-path="url(#Mask_Mask_1)" writing-mode="lr"><tspan x="1.7" y="13.6" baseline-shift="0%" kerning="auto" font-family="Arial_Regular" font-size="15" fill="#999999" xml:space="preserve">Oculus Remote</tspan></text>
</g>
</svg>
