
<svg xmlns="http://www.w3.org/2000/svg" version="1.1" xmlns:xlink="http://www.w3.org/1999/xlink" x="0px" y="0px" viewBox="0 0 100 100">
<defs>
<g id="Layer1_0_FILL">
<path fill="#000000" stroke="none" d="
M 81.65 81.65
Q 94.7 68.55 94.7 50 94.7 31.5 81.65 18.4 68.55 5.3 50 5.3 31.5 5.3 18.4 18.4 5.3 31.5 5.3 50 5.3 68.55 18.4 81.65 31.5 94.7 50 94.7 68.55 94.7 81.65 81.65
M 50 13.95
Q 65.05 13.95 75.55 24.55 86.15 35.1 86.15 50 86.15 65.05 75.55 75.55 65.05 86.15 50 86.15 35.1 86.15 24.55 75.55 13.95 65.05 13.95 50 13.95 35.1 24.55 24.55 35.1 13.95 50 13.95 Z"/>

<path fill="#3F3F3F" stroke="none" d="
M 75.55 24.55
Q 65.05 13.95 50 13.95 35.1 13.95 24.55 24.55 13.95 35.1 13.95 50 13.95 65.05 24.55 75.55 35.1 86.15 50 86.15 65.05 86.15 75.55 75.55 86.15 65.05 86.15 50 86.15 35.1 75.55 24.55
M 50 24.15
Q 60.8 24.15 68.35 31.75 75.95 39.3 75.95 50 75.95 60.8 68.35 68.35 60.8 75.95 50 75.95 39.3 75.95 31.75 68.35 24.15 60.8 24.15 50 24.15 39.3 31.75 31.75 39.3 24.15 50 24.15 Z"/>

<path fill="#151515" stroke="none" d="
M 68.35 31.75
Q 60.8 24.15 50 24.15 39.3 24.15 31.75 31.75 24.15 39.3 24.15 50 24.15 60.8 31.75 68.35 39.3 75.95 50 75.95 60.8 75.95 68.35 68.35 75.95 60.8 75.95 50 75.95 39.3 68.35 31.75
M 43.55 37.7
L 49 37.7 49 57.45 59.1 57.45 59.1 62.5 43.55 62.5 43.55 37.7 Z"/>

<path fill="#8C8C8C" stroke="none" d="
M 49 37.7
L 43.55 37.7 43.55 62.5 59.1 62.5 59.1 57.45 49 57.45 49 37.7 Z"/>
</g>

<path id="Layer1_0_1_STROKES" stroke="#151515" stroke-width="4" stroke-linejoin="round" stroke-linecap="round" fill="none" d="
M 50 13.95
Q 65.05 13.95 75.55 24.55 86.15 35.1 86.15 50 86.15 65.05 75.55 75.55 65.05 86.15 50 86.15 35.1 86.15 24.55 75.55 13.95 65.05 13.95 50 13.95 35.1 24.55 24.55 35.1 13.95 50 13.95 Z"/>

<path id="Layer1_0_2_STROKES" stroke="#646464" stroke-width="4" stroke-linejoin="round" stroke-linecap="round" fill="none" d="
M 50 24.15
Q 60.8 24.15 68.35 31.75 75.95 39.3 75.95 50 75.95 60.8 68.35 68.35 60.8 75.95 50 75.95 39.3 75.95 31.75 68.35 24.15 60.8 24.15 50 24.15 39.3 31.75 31.75 39.3 24.15 50 24.15 Z"/>

</defs>

<g transform="matrix( 1, 0, 0, 1, 0,0) ">
<use xlink:href="#Layer1_0_FILL"/>

<use xlink:href="#Layer1_0_1_STROKES"/>

<use xlink:href="#Layer1_0_2_STROKES"/>
</g>

<g transform="matrix( 1, 0, 0, 1, -3.4,-28) ">
<clipPath id="Mask_Mask_1">
<rect x="6" y="-2" width="94.8" height="20.8" fill="#FFFFFF" stroke="none"/>
</clipPath>

<text clip-path="url(#Mask_Mask_1)" writing-mode="lr"><tspan x="8.05" y="13.6" baseline-shift="0%" kerning="auto" font-family="Arial_Regular" font-size="15" fill="#999999" xml:space="preserve">Oculus Touch</tspan></text>
</g>
</svg>
