
<svg xmlns="http://www.w3.org/2000/svg" version="1.1" xmlns:xlink="http://www.w3.org/1999/xlink" x="0px" y="0px" viewBox="0 0 100 100">
<defs>
<g id="Layer1_0_FILL">
<path fill="#1B1B1B" stroke="none" d="
M 67.4 33.75
Q 67.384375 33.711328125 67.35 33.65 67.336328125 33.6529296875 67.3 33.6 67.256640625 33.556640625 67.15 33.45 67.0396484375 33.3396484375 66.85 33.15 59.8837890625 26.19453125 50 26.2 40.1677734375 26.1927734375 33.15 33.15 33.0037109375 33.3548828125 32.85 33.5 32.7736328125 33.630078125 32.7 33.7 32.65625 33.7708984375 32.6 33.8 26.1998046875 40.6150390625 26.2 50 26.19453125 59.8837890625 33.15 66.85
L 33.2 66.85
Q 40.1810546875 73.8029296875 50 73.8 59.870703125 73.8013671875 66.85 66.85
L 66.85 66.85
Q 73.8013671875 59.870703125 73.8 50 73.7943359375 40.5509765625 67.4 33.75
M 64.15 35.9
Q 64.3005859375 36.0267578125 64.4 36.15 69.949609375 41.9083984375 69.95 50 69.9474609375 58.26796875 64.15 64.15
L 64.15 64.15
Q 58.26796875 69.9474609375 50 69.95 41.728515625 69.949609375 35.9 64.15
L 35.85 64.15
Q 29.992578125 58.2818359375 30 50 30.003515625 41.9328125 35.6 36.15 35.6458984375 36.1298828125 35.7 36.05 35.780078125 35.9716796875 35.85 35.85 36.046484375 35.7064453125 36.25 35.55 41.9296875 30.0013671875 50 30 58.216796875 29.9955078125 64.1 35.8
L 64.1 35.8 64.15 35.85 64.15 35.9
M 83.05 83.05
Q 96.7525390625 69.3900390625 96.75 50 96.7525390625 30.609765625 83.05 16.9 80.3927734375 14.24921875 77.5 12.1 76.6896484375 11.4984375 75.85 10.9 76 12.2330078125 76 13.6 76 13.8 76 14 76 14.8177734375 75.95 15.6 76.306640625 15.9056640625 76.65 16.2 78.6 17.75 80.45 19.6 93 32.2 93 50 93 67.8 80.45 80.45 67.8 93 50 93 32.2 93 19.6 80.45 7 67.8 7 50 7 32.2 19.6 19.6 21.4 17.75 23.35 16.2 23.7021484375 15.8982421875 24.05 15.6 24 14.8107421875 24 14 24 13.8 24 13.6 24 12.2193359375 24.15 10.9 23.3283203125 11.48515625 22.5 12.1 19.60703125 14.24921875 16.9 16.9 3.247265625 30.609765625 3.25 50 3.247265625 69.3900390625 16.9 83.05 30.609765625 96.7525390625 50 96.75 69.3900390625 96.7525390625 83.05 83.05 Z"/>

<path fill="#3B3B3B" stroke="none" d="
M 64.4 36.15
Q 64.3005859375 36.0267578125 64.15 35.9
L 64.15 35.85 64.1 35.8 64.1 35.8
Q 58.216796875 29.9955078125 50 30 41.9296875 30.0013671875 36.25 35.55 36.046484375 35.7064453125 35.85 35.85 35.780078125 35.9716796875 35.7 36.05 35.6458984375 36.1298828125 35.6 36.15 30.003515625 41.9328125 30 50 29.992578125 58.2818359375 35.85 64.15
L 35.9 64.15
Q 41.728515625 69.949609375 50 69.95 58.26796875 69.9474609375 64.15 64.15
L 64.15 64.15
Q 69.9474609375 58.26796875 69.95 50 69.949609375 41.9083984375 64.4 36.15
M 50 34
Q 56.0185546875 34.00390625 60.45 37.9 60.653515625 38.066796875 60.8 38.2 61.06328125 38.440625 61.3 38.65
L 61.25 38.65 61.3 38.7 61.3 38.7
Q 65.949609375 43.3708984375 65.95 50 65.9521484375 56.6142578125 61.35 61.3
L 61.3 61.35
Q 56.6142578125 65.9521484375 50 65.95 43.371484375 65.9501953125 38.7 61.3
L 38.7 61.3
Q 34.0072265625 56.61796875 34 50 33.996484375 43.577734375 38.4 39 38.6068359375 38.8900390625 38.75 38.7 38.8697265625 38.628515625 38.95 38.5 39.0908203125 38.3853515625 39.2 38.25 39.41015625 38.074609375 39.6 37.9 43.97265625 33.9984375 50 34
M 76.65 16.2
Q 76.306640625 15.9056640625 75.95 15.6 75.939453125 16.1677734375 75.9 16.7 75.85 17.3 75.75 17.9 75.6 19.05 75.35 20.2 75.30078125 20.404296875 75.25 20.6 75.2865234375 20.641015625 75.3 20.65 76.4484375 21.6443359375 77.5 22.7
L 77.5 22.7
Q 88.75 34.021875 88.75 50.1 88.7509765625 66.114453125 77.55 77.5
L 77.5 77.55
Q 66.114453125 88.7509765625 50.1 88.75 34.021875 88.75 22.7 77.5
L 22.7 77.5
Q 11.307421875 66.1181640625 11.3 50.1 11.2958984375 34.035546875 22.7 22.7
L 22.7 22.7
Q 23.6955078125 21.7404296875 24.7 20.8 24.7826171875 20.772265625 24.85 20.7 24.7939453125 20.535546875 24.75 20.35 24.45 19.2 24.3 18.05 24.2 17.35 24.15 16.7 24.0900390625 16.1607421875 24.05 15.6 23.7021484375 15.8982421875 23.35 16.2 21.4 17.75 19.6 19.6 7 32.2 7 50 7 67.8 19.6 80.45 32.2 93 50 93 67.8 93 80.45 80.45 93 67.8 93 50 93 32.2 80.45 19.6 78.6 17.75 76.65 16.2 Z"/>

<path fill="#2E2E2E" stroke="none" d="
M 60.45 37.9
Q 56.0185546875 34.00390625 50 34 43.97265625 33.9984375 39.6 37.9 39.41015625 38.074609375 39.2 38.25 39.0908203125 38.3853515625 38.95 38.5 38.8697265625 38.628515625 38.75 38.7 38.6068359375 38.8900390625 38.4 39 33.996484375 43.577734375 34 50 34.0072265625 56.61796875 38.7 61.3
L 38.7 61.3
Q 43.371484375 65.9501953125 50 65.95 56.6142578125 65.9521484375 61.3 61.35
L 61.35 61.3
Q 65.9521484375 56.6142578125 65.95 50 65.949609375 43.3708984375 61.3 38.7
L 61.3 38.7 61.25 38.65 61.3 38.65
Q 61.06328125 38.440625 60.8 38.2 60.653515625 38.066796875 60.45 37.9
M 75.3 20.65
Q 75.2865234375 20.641015625 75.25 20.6 73.5404296875 27.2080078125 68.35 32.35 67.9 32.8 67.45 33.25 67.3154296875 33.3677734375 67.15 33.45 67.256640625 33.556640625 67.3 33.6 67.336328125 33.6529296875 67.35 33.65 67.384375 33.711328125 67.4 33.75 73.7943359375 40.5509765625 73.8 50 73.8013671875 59.870703125 66.85 66.85
L 66.85 66.85
Q 59.870703125 73.8013671875 50 73.8 40.1810546875 73.8029296875 33.2 66.85
L 33.15 66.85
Q 26.19453125 59.8837890625 26.2 50 26.1998046875 40.6150390625 32.6 33.8 32.65625 33.7708984375 32.7 33.7 32.7736328125 33.630078125 32.85 33.5 32.750390625 33.4431640625 32.65 33.35 32.1 32.85 31.6 32.35 26.4943359375 27.2443359375 24.85 20.7 24.7826171875 20.772265625 24.7 20.8 23.6955078125 21.7404296875 22.7 22.7
L 22.7 22.7
Q 11.2958984375 34.035546875 11.3 50.1 11.307421875 66.1181640625 22.7 77.5
L 22.7 77.5
Q 34.021875 88.75 50.1 88.75 66.114453125 88.7509765625 77.5 77.55
L 77.55 77.5
Q 88.7509765625 66.114453125 88.75 50.1 88.75 34.021875 77.5 22.7
L 77.5 22.7
Q 76.4484375 21.6443359375 75.3 20.65 Z"/>

<path fill="#D7D7D7" stroke="none" d="
M 75.25 20.6
Q 74.862890625 20.2685546875 74.45 19.95 64.0224609375 11.2984375 50.1 11.3 35.996484375 11.2900390625 25.6 20.05
L 25.55 20.05
Q 25.2005859375 20.3935546875 24.85 20.7 26.4943359375 27.2443359375 31.6 32.35 32.1 32.85 32.65 33.35 32.750390625 33.4431640625 32.85 33.5 33.0037109375 33.3548828125 33.15 33.15 40.1677734375 26.1927734375 50 26.2 59.8837890625 26.19453125 66.85 33.15 67.0396484375 33.3396484375 67.15 33.45 67.3154296875 33.3677734375 67.45 33.25 67.9 32.8 68.35 32.35 73.5404296875 27.2080078125 75.25 20.6 Z"/>

<path fill="#F5F5F5" stroke="none" d="
M 75.75 17.9
Q 75.85 17.3 75.9 16.7 75.939453125 16.1677734375 75.95 15.6 75.606640625 15.3546875 75.25 15.1 64.3 7 50 7 35.7 7 24.75 15.1 24.4021484375 15.3484375 24.05 15.6 24.0900390625 16.1607421875 24.15 16.7 24.2 17.35 24.3 18.05 24.45 19.2 24.75 20.35 24.7939453125 20.535546875 24.85 20.7 25.2005859375 20.3935546875 25.55 20.05
L 25.6 20.05
Q 35.996484375 11.2900390625 50.1 11.3 64.0224609375 11.2984375 74.45 19.95 74.862890625 20.2685546875 75.25 20.6 75.30078125 20.404296875 75.35 20.2 75.6 19.05 75.75 17.9 Z"/>

<path fill="#FFFFFF" stroke="none" d="
M 75.85 10.9
Q 75.8189453125 10.9048828125 75.75 10.85 64.480078125 3.265234375 50 3.25 35.5189453125 3.265234375 24.2 10.85 24.2001953125 10.891796875 24.15 10.9 24 12.2193359375 24 13.6 24 13.8 24 14 24 14.8107421875 24.05 15.6 24.4021484375 15.3484375 24.75 15.1 35.7 7 50 7 64.3 7 75.25 15.1 75.606640625 15.3546875 75.95 15.6 76 14.8177734375 76 14 76 13.8 76 13.6 76 12.2330078125 75.85 10.9 Z"/>
</g>

</defs>

<g transform="matrix( 1, 0, 0, 1, 0,0) ">
<use xlink:href="#Layer1_0_FILL"/>
</g>

<g transform="matrix( 1, 0, 0, 1, -3.4,-28) ">
<clipPath id="Mask_Mask_1">
<rect x="-0.4" y="-2" width="107.6" height="20.8" fill="#FFFFFF" stroke="none"/>
</clipPath>

<text clip-path="url(#Mask_Mask_1)" writing-mode="lr"><tspan x="1.7" y="13.6" baseline-shift="0%" kerning="auto" font-family="Arial_Regular" font-size="15" fill="#999999" xml:space="preserve">Oculus Remote</tspan></text>
</g>
</svg>
