
<svg xmlns="http://www.w3.org/2000/svg" version="1.1" xmlns:xlink="http://www.w3.org/1999/xlink" x="0px" y="0px" viewBox="0 0 100 100">
<defs>
<g id="Layer1_0_FILL">
<path fill="#2E2E2E" stroke="none" d="
M 83.45 50
Q 83.45 46.2265625 82.7 42.75 81.2958984375 35.928515625 77.05 30.25 75.541015625 28.2005859375 73.65 26.3 63.85 16.55 50 16.55 36.15 16.55 26.3 26.3 16.5 36.15 16.5 50 16.5 63.9 26.3 73.7 36.15 83.5 50 83.5 63.85 83.5 73.65 73.7 83.45 63.9 83.45 50
M 56.35 47.15
Q 56.15 47.15 56 47.15
L 39.15 47.15 41.05 49.05
Q 41.9 49.9 41.9 51.15 41.9 52.4 41.05 53.3 40.15 54.15 38.9 54.15 37.65 54.15 36.8 53.3
L 29.8 46.3
Q 28.9 45.4 28.9 44.15 28.9 42.9 29.8 42.05
L 36.8 35.05
Q 37.65 34.15 38.9 34.15 40.15 34.15 41.05 35.05 41.9 35.9 41.9 37.15 41.9 38.4 41.05 39.3
L 39.15 41.15 56 41.15
Q 56.15 41.15 56.35 41.15 61.55 41.15 65.25 44.85 68.9 48.5 68.9 53.75 68.9 58.95 65.25 62.65 61.55 66.3 56.35 66.3 56.15 66.3 56 66.3
L 51.25 66.3
Q 50 66.3 49.15 65.45 48.25 64.55 48.25 63.3 48.25 62.05 49.15 61.2 50 60.3 51.25 60.3
L 56 60.3
Q 56.15 60.3 56.35 60.3 59.05 60.3 61 58.4 62.9 56.45 62.9 53.75 62.9 51 61 49.1 59.05 47.15 56.35 47.15 Z"/>

<path fill="#000000" stroke="none" d="
M 56 47.15
Q 56.15 47.15 56.35 47.15 59.05 47.15 61 49.1 62.9 51 62.9 53.75 62.9 56.45 61 58.4 59.05 60.3 56.35 60.3 56.15 60.3 56 60.3
L 51.25 60.3
Q 50 60.3 49.15 61.2 48.25 62.05 48.25 63.3 48.25 64.55 49.15 65.45 50 66.3 51.25 66.3
L 56 66.3
Q 56.15 66.3 56.35 66.3 61.55 66.3 65.25 62.65 68.9 58.95 68.9 53.75 68.9 48.5 65.25 44.85 61.55 41.15 56.35 41.15 56.15 41.15 56 41.15
L 39.15 41.15 41.05 39.3
Q 41.9 38.4 41.9 37.15 41.9 35.9 41.05 35.05 40.15 34.15 38.9 34.15 37.65 34.15 36.8 35.05
L 29.8 42.05
Q 28.9 42.9 28.9 44.15 28.9 45.4 29.8 46.3
L 36.8 53.3
Q 37.65 54.15 38.9 54.15 40.15 54.15 41.05 53.3 41.9 52.4 41.9 51.15 41.9 49.9 41.05 49.05
L 39.15 47.15 56 47.15 Z"/>
</g>

<path id="Layer1_0_1_STROKES" stroke="#1B1B1B" stroke-width="5" stroke-linejoin="round" stroke-linecap="round" fill="none" d="
M 82.725 42.75
Q 83.45 46.2265625 83.45 50 83.45 63.9 73.65 73.7 63.85 83.5 50 83.5 36.15 83.5 26.3 73.7 16.5 63.9 16.5 50 16.5 36.15 26.3 26.3 36.15 16.55 50 16.55 63.85 16.55 73.65 26.3 75.541015625 28.2005859375 77.075 30.25 81.2958984375 35.928515625 82.725 42.75 Z"/>

</defs>

<g transform="matrix( 1, 0, 0, 1, 0,0) ">
<use xlink:href="#Layer1_0_FILL"/>

<use xlink:href="#Layer1_0_1_STROKES"/>
</g>

<g transform="matrix( 1, 0, 0, 1, -3.4,-28) ">
<clipPath id="Mask_Mask_1">
<rect x="-0.4" y="-2" width="107.6" height="20.8" fill="#FFFFFF" stroke="none"/>
</clipPath>

<text clip-path="url(#Mask_Mask_1)" writing-mode="lr"><tspan x="1.7" y="13.6" baseline-shift="0%" kerning="auto" font-family="Arial_Regular" font-size="15" fill="#999999" xml:space="preserve">Oculus Remote</tspan></text>
</g>
</svg>
