
<svg xmlns="http://www.w3.org/2000/svg" version="1.1" xmlns:xlink="http://www.w3.org/1999/xlink" x="0px" y="0px" viewBox="0 0 100 100">
<defs>
<g id="Layer1_0_FILL">
<path fill="#1B1B1B" stroke="none" d="
M 81.55 19.3
Q 81.45 19.2 81.4 19.1 79.5 17.1 77.2 15.5 72.3 21.05 62.25 25.55 50.8 30.6 36.3 31.75 11.05 35.6 10 60 10 75.35 25.5 81.05 37.15 86.45 71.65 71.5 82.25 66.9 87.85 55.85 92.45 46.6 90 37.55 88.2 26.3 81.55 19.3
M 83.35 53.6
L 83.4 53.6
Q 78.65 63 69.65 66.9 38.05 80.65 27.35 76.4 15.15 72 15 60.1 15 60.05 15 60 16 40 36.7 36.75 52.1 35.5 64.3 30.1 72.75 26.3 76.1 22.5 79.4109375 22.9712890625 80.15 25.5 83.85 30.8 85.1 38.7 87.1 46.05 83.35 53.6 Z"/>

<path fill="#3F3F3F" stroke="none" d="
M 76.1 22.5
Q 73.4 27.9 69.5 32.35 59.35 43.4 36.35 46.25 27.85 47.3 24.55 52.8 21.15 57.95 22.8 67.2 23.3 59.7 27.55 55 31.2 51.95 36.95 51.2 62.2 48.1 73.2 35.7
L 73.25 35.65
Q 77.3 31.05 80.15 25.5 79.4109375 22.9712890625 76.1 22.5 Z"/>

<path fill="#2E2E2E" stroke="none" d="
M 83.4 53.6
L 83.35 53.6
Q 87.1 46.05 85.1 38.7 83.85 30.8 80.15 25.5 77.3 31.05 73.25 35.65
L 73.2 35.7
Q 62.2 48.1 36.95 51.2 31.2 51.95 27.55 55 23.3 59.7 22.8 67.2 21.15 57.95 24.55 52.8 27.85 47.3 36.35 46.25 59.35 43.4 69.5 32.35 73.4 27.9 76.1 22.5 72.75 26.3 64.3 30.1 52.1 35.5 36.7 36.75 16 40 15 60 15 60.05 15 60.1 15.15 72 27.35 76.4 38.05 80.65 69.65 66.9 78.65 63 83.4 53.6 Z"/>
</g>

</defs>

<g transform="matrix( 1, 0, 0, 1, 0,0) ">
<use xlink:href="#Layer1_0_FILL"/>
</g>

<g transform="matrix( 1, 0, 0, 1, -3.4,-28) ">
<clipPath id="Mask_Mask_1">
<rect x="6" y="-2" width="94.8" height="20.8" fill="#FFFFFF" stroke="none"/>
</clipPath>

<text clip-path="url(#Mask_Mask_1)" writing-mode="lr"><tspan x="8.05" y="13.6" baseline-shift="0%" kerning="auto" font-family="Arial_Regular" font-size="15" fill="#999999" xml:space="preserve">Oculus Touch</tspan></text>
</g>
</svg>
