
<svg xmlns="http://www.w3.org/2000/svg" version="1.1" xmlns:xlink="http://www.w3.org/1999/xlink" x="0px" y="0px" viewBox="0 0 100 100">
<defs>
<linearGradient id="Gradient_1" gradientUnits="userSpaceOnUse" x1="50" y1="10.412499999999994" x2="50" y2="89.5875" spreadMethod="pad">
<stop  offset="0%" stop-color="#373737"/>

<stop  offset="100%" stop-color="#575757"/>
</linearGradient>

<linearGradient id="Gradient_2" gradientUnits="userSpaceOnUse" x1="69.35" y1="81.75" x2="69.35" y2="56.75" spreadMethod="pad">
<stop  offset="0%" stop-color="#000000" stop-opacity="0.2"/>

<stop  offset="100%" stop-color="#000000" stop-opacity="0"/>
</linearGradient>

<g id="Layer1_0_FILL">
<path fill="#2A2A2A" stroke="none" d="
M 83.8 83.8
Q 97.7 69.8 97.7 50 97.7 30.2 83.8 16.3 69.8 2.3 50 2.3 30.2 2.3 16.3 16.3 2.3 30.2 2.3 50 2.3 69.8 16.3 83.8 30.2 97.7 50 97.7 69.8 97.7 83.8 83.8
M 50 7.65
Q 67.55 7.65 80 20.05 92.35 32.45 92.35 50 92.35 67.55 80 80 77.41328125 82.566015625 74.6 84.6 64.4896484375 91.3904296875 51.05 92.35 50.9671875 92.3478515625 50.85 92.35 50.723046875 92.3484375 50.6 92.35 50.4654296875 92.3490234375 50.3 92.35 50.1658203125 92.35 50 92.35 49.0748046875 92.35 48.15 92.3 36.2501953125 91.8662109375 26.75 85.5 23.23984375 83.176953125 20.05 80 7.65 67.55 7.65 50 7.65 32.45 20.05 20.05 32.45 7.65 50 7.65 Z"/>

<path fill="#F5F5F5" stroke="none" d="
M 57.25 74.05
L 57.25 57.2 61.9 57.2
Q 57.237109375 54.79296875 51.75 54.45 50.85 54.4 50 54.4 49.05 54.4 48.1 54.45 47.2 54.5 46.3 54.65 45.7 54.75 45.1 54.85 41.4064453125 55.4818359375 38.1 57.2
L 42.75 57.2 42.75 74.05
Q 42.75 77.05 44.85 79.2 47 81.3 50 81.3 53 81.3 55.1 79.2 57.25 77.05 57.25 74.05
M 26.9 68.25
Q 25.9 70 25.25 71.9 24 75.55 23.9 79.65 25.28125 80.89375 26.7 82 36.8234375 89.6 50 89.6 50.2404296875 89.6 50.45 89.6 50.7173828125 89.5974609375 50.95 89.6 51.8185546875 89.5810546875 52.65 89.5 52.794921875 89.5177734375 52.9 89.5 53.0458984375 89.4921875 53.15 89.45 53.2771484375 89.4677734375 53.35 89.45 65.6615234375 87.6263671875 73.6 81.85 74.8705078125 80.85078125 76.1 79.75 76 75.45 74.65 71.6 74.55 71.5 74.55 71.35 73.85 69.5 72.85 67.7 71.1 64.75 68.4 62.05 65.5 59.1 62.1 57.3 62.0041015625 57.249609375 61.9 57.2
L 57.25 57.2 57.25 74.05
Q 57.25 77.05 55.1 79.2 53 81.3 50 81.3 47 81.3 44.85 79.2 42.75 77.05 42.75 74.05
L 42.75 57.2 38.1 57.2
Q 37.9953125 57.249609375 37.9 57.3 34.5 59.1 31.55 62.05 28.65 64.95 26.9 68.25 Z"/>

<path fill="#FFFFFF" stroke="none" d="
M 26.7 82
Q 25.28125 80.89375 23.9 79.65
L 23.9 79.7
Q 23.9 80.07734375 23.9 80.45 23.9 82.05 24.15 83.55 25.450390625 84.5810546875 26.75 85.5 36.2501953125 91.8662109375 48.15 92.3 49.0748046875 92.35 50 92.35 50.1658203125 92.35 50.3 92.35 50.4654296875 92.3490234375 50.6 92.35 50.723046875 92.3484375 50.85 92.35 50.9671875 92.3478515625 51.05 92.35 64.4896484375 91.3904296875 74.6 84.6 75.2759765625 84.0794921875 75.95 83.55 76.1 82.05 76.1 80.45 76.1 80.1216796875 76.1 79.8
L 76.1 79.75
Q 74.8705078125 80.85078125 73.6 81.85 65.6615234375 87.6263671875 53.35 89.45 53.2771484375 89.4677734375 53.15 89.45 53.0458984375 89.4921875 52.9 89.5 52.794921875 89.5177734375 52.65 89.5 51.8185546875 89.5810546875 50.95 89.6 50.7173828125 89.5974609375 50.45 89.6 50.2404296875 89.6 50 89.6 36.8234375 89.6 26.7 82 Z"/>

<path fill="url(#Gradient_1)" stroke="none" d="
M 55.1 20.7
Q 53 18.55 50 18.55 47 18.55 44.85 20.7 42.75 22.8 42.75 25.8
L 42.75 42.7 25.85 42.7
Q 22.85 42.7 20.75 44.85 18.6 46.95 18.6 49.95 18.6 52.95 20.75 55.1 22.85 57.2 25.85 57.2
L 38.1 57.2
Q 41.4064453125 55.4818359375 45.1 54.85 45.7 54.75 46.3 54.65 47.2 54.5 48.1 54.45 49.05 54.4 50 54.4 50.85 54.4 51.75 54.45 57.237109375 54.79296875 61.9 57.2
L 74.1 57.2
Q 76.75 57.2 78.7 55.6 79 55.35 79.25 55.1 81.35 52.95 81.35 49.95 81.35 46.95 79.25 44.85 79 44.6 78.65 44.3 76.7 42.7 74.1 42.7
L 57.25 42.7 57.25 25.8
Q 57.25 22.8 55.1 20.7
M 89.6 50.9
L 89.6 50.1
Q 89.6 50.05 89.6 50 89.6 33.65 78 22.05 66.4 10.4 50 10.4 33.7 10.4 22.1 22.05 10.4 33.65 10.4 50 10.4 50.05 10.4 50.1
L 10.4 50.5
Q 10.4 50.7 10.4 50.9 10.75 66.7 22.1 78 22.9865234375 78.8865234375 23.9 79.7
L 23.9 79.65
Q 24 75.55 25.25 71.9 25.9 70 26.9 68.25 28.65 64.95 31.55 62.05 34.5 59.1 37.9 57.3 37.9953125 57.249609375 38.1 57.2
L 25.85 57.2
Q 22.85 57.2 20.75 55.1 18.6 52.95 18.6 49.95 18.6 46.95 20.75 44.85 22.85 42.7 25.85 42.7
L 42.75 42.7 42.75 25.8
Q 42.75 22.8 44.85 20.7 47 18.55 50 18.55 53 18.55 55.1 20.7 57.25 22.8 57.25 25.8
L 57.25 42.7 74.1 42.7
Q 76.7 42.7 78.65 44.3 79 44.6 79.25 44.85 81.35 46.95 81.35 49.95 81.35 52.95 79.25 55.1 79 55.35 78.7 55.6 76.75 57.2 74.1 57.2
L 61.9 57.2
Q 62.0041015625 57.249609375 62.1 57.3 65.5 59.1 68.4 62.05 71.1 64.75 72.85 67.7 73.85 69.5 74.55 71.35 74.55 71.5 74.65 71.6 76 75.45 76.1 79.75
L 76.1 79.8
Q 77.065625 78.934375 78 78 89.25 66.7 89.6 50.9 Z"/>

<path fill="#464646" stroke="none" d="
M 89.6 50.1
L 89.6 50.9
Q 89.25 66.7 78 78 77.065625 78.934375 76.1 79.8 76.1 80.1216796875 76.1 80.45 76.1 82.05 75.95 83.55 75.2759765625 84.0794921875 74.6 84.6 77.41328125 82.566015625 80 80 92.35 67.55 92.35 50 92.35 32.45 80 20.05 67.55 7.65 50 7.65 32.45 7.65 20.05 20.05 7.65 32.45 7.65 50 7.65 67.55 20.05 80 23.23984375 83.176953125 26.75 85.5 25.450390625 84.5810546875 24.15 83.55 23.9 82.05 23.9 80.45 23.9 80.07734375 23.9 79.7 22.9865234375 78.8865234375 22.1 78 10.75 66.7 10.4 50.9 10.4 50.7 10.4 50.5
L 10.4 50.1
Q 10.4 50.05 10.4 50 10.4 33.65 22.1 22.05 33.7 10.4 50 10.4 66.4 10.4 78 22.05 89.6 33.65 89.6 50 89.6 50.05 89.6 50.1 Z"/>
</g>

<path id="Layer1_0_1_STROKES" stroke="#FFFFFF" stroke-opacity="0.10196078431372549" stroke-width="3" stroke-linejoin="round" stroke-linecap="round" fill="none" d="
M 38.1 57.2
L 25.85 57.2
Q 22.85 57.2 20.75 55.1 18.6 52.95 18.6 49.95 18.6 46.95 20.75 44.85 22.85 42.7 25.85 42.7
L 42.75 42.7 42.75 25.8
Q 42.75 22.8 44.85 20.7 47 18.55 50 18.55 53 18.55 55.1 20.7 57.25 22.8 57.25 25.8
L 57.25 42.7 74.1 42.7
Q 76.7 42.7 78.65 44.3 79 44.6 79.25 44.85 81.35 46.95 81.35 49.95 81.35 52.95 79.25 55.1 79 55.35 78.7 55.6 76.75 57.2 74.1 57.2
L 61.9 57.2 57.25 57.2
M 38.1 57.2
L 42.75 57.2"/>

<path id="Layer1_0_2_STROKES" stroke="url(#Gradient_2)" stroke-width="3" stroke-linejoin="round" stroke-linecap="round" fill="none" d="
M 42.75 57.2
L 42.75 74.05
Q 42.75 77.05 44.85 79.2 47 81.3 50 81.3 53 81.3 55.1 79.2 57.25 77.05 57.25 74.05
L 57.25 57.2"/>

</defs>

<g transform="matrix( 1, 0, 0, 1, 0,0) ">
<use xlink:href="#Layer1_0_FILL"/>

<use xlink:href="#Layer1_0_1_STROKES"/>

<use xlink:href="#Layer1_0_2_STROKES"/>
</g>

<g transform="matrix( 1, 0, 0, 1, -3.4,-28) ">
<clipPath id="Mask_Mask_1">
<rect x="-5" y="-2" width="116.8" height="20.8" fill="#FFFFFF" stroke="none"/>
</clipPath>

<text clip-path="url(#Mask_Mask_1)" writing-mode="lr"><tspan x="-2.9" y="13.6" baseline-shift="0%" kerning="auto" font-family="Arial_Regular" font-size="15" fill="#999999" xml:space="preserve">Steam Controller</tspan></text>
</g>
</svg>
