
<svg xmlns="http://www.w3.org/2000/svg" version="1.1" xmlns:xlink="http://www.w3.org/1999/xlink" x="0px" y="0px" viewBox="0 0 100 100">
<defs>
<linearGradient id="Gradient_1" gradientUnits="userSpaceOnUse" x1="50" y1="10.412499999999994" x2="50" y2="89.5875" spreadMethod="pad">
<stop  offset="0%" stop-color="#373737"/>

<stop  offset="100%" stop-color="#575757"/>
</linearGradient>

<linearGradient id="Gradient_2" gradientUnits="userSpaceOnUse" x1="18.2" y1="69.3" x2="43.2" y2="69.3" spreadMethod="pad">
<stop  offset="0%" stop-color="#000000" stop-opacity="0.2"/>

<stop  offset="100%" stop-color="#000000" stop-opacity="0"/>
</linearGradient>

<g id="Layer1_0_FILL">
<path fill="#2A2A2A" stroke="none" d="
M 83.8 83.8
Q 97.7 69.8 97.7 50 97.7 30.2 83.8 16.3 69.8 2.3 50 2.3 30.2 2.3 16.3 16.3 2.3 30.2 2.3 50 2.3 69.8 16.3 83.8 30.2 97.7 50 97.7 69.8 97.7 83.8 83.8
M 50 7.65
Q 67.55 7.65 80 20.05 92.35 32.45 92.35 50 92.35 67.55 80 80 67.55 92.35 50 92.35 32.45 92.35 20.05 80 16.7611328125 76.6978515625 14.35 73 7.6630859375 62.8736328125 7.65 50 7.65 49.9501953125 7.65 49.9 7.3849609375 45.2 8.6 40.5 8.925 39 9.35 37.55 9.95 35.65 10.65 33.9 12.1 30.35 14.25 27.1 15.25 25.55 16.45 24.05
L 16.45 24.05
Q 18.115234375 21.984765625 20.05 20.05 32.45 7.65 50 7.65 Z"/>

<path fill="#FFFFFF" stroke="none" d="
M 16.45 24.05
L 16.45 24.05
Q 15.25 25.55 14.25 27.1 12.1 30.35 10.65 33.9 9.95 35.65 9.35 37.55 8.925 39 8.6 40.5 7.3849609375 45.2 7.65 49.9 7.65 49.9501953125 7.65 50 7.6630859375 62.8736328125 14.35 73 15.3537109375 74.4546875 16.45 75.85 17.95 76 19.55 76 19.879296875 76 20.2 76
L 20.25 76
Q 19.04921875 74.658984375 17.95 73.25 10.6830078125 63.5322265625 10.4 50.9 10.4013671875 50.7001953125 10.4 50.5
L 10.4 50.1
Q 10.4 50.05 10.4 50 10.4 49.9501953125 10.4 49.9
L 11.75 39.35
Q 12.2 37.6625 12.8 36.05 13.45 34.3 14.25 32.65 15.95 29.3 18.3 26.25 19.25 25 20.35 23.8 19.95 23.8 19.55 23.8 17.9671875 23.8 16.45 24.05 Z"/>

<path fill="#F5F5F5" stroke="none" d="
M 42.75 37.9
L 42.75 42.7 25.9 42.7
Q 22.9 42.7 20.75 44.8 18.65 46.95 18.65 49.95 18.65 52.95 20.75 55.05 22.9 57.2 25.9 57.2
L 42.75 57.2 42.75 61.9
Q 45.203515625 57.1935546875 45.55 51.65 45.6 50.75 45.6 49.9 45.6 48.95 45.55 48 45.5 47.1 45.35 46.2 45.25 45.6 45.15 45 44.5091796875 41.2533203125 42.75 37.9
M 42.7 37.8
Q 42.45 37.3 42.1 36.8 40.85 34.65 39.15 32.75 38.6 32.1 37.95 31.45 35.05 28.55 31.75 26.8 30.65 26.15 29.45 25.7 28.8 25.4 28.1 25.15 24.4830078125 23.911328125 20.4 23.8 20.387109375 23.8009765625 20.35 23.8 19.25 25 18.3 26.25 15.95 29.3 14.25 32.65 13.45 34.3 12.8 36.05 12.2 37.6625 11.75 39.35
L 10.4 49.9
Q 10.4 49.9501953125 10.4 50 10.4 50.05 10.4 50.1
L 10.4 50.5
Q 10.4013671875 50.7001953125 10.4 50.9 10.6830078125 63.5322265625 17.95 73.25 19.04921875 74.658984375 20.25 76 24.55 75.9 28.4 74.55 28.5 74.45 28.65 74.45 30.5 73.75 32.3 72.75 35.25 71 37.95 68.3 40.9 65.4 42.7 62 42.7251953125 61.9521484375 42.75 61.9
L 42.75 57.2 25.9 57.2
Q 22.9 57.2 20.75 55.05 18.65 52.95 18.65 49.95 18.65 46.95 20.75 44.8 22.9 42.7 25.9 42.7
L 42.75 42.7 42.75 37.9
Q 42.7251953125 37.84765625 42.7 37.8 Z"/>

<path fill="url(#Gradient_1)" stroke="none" d="
M 55.1 20.7
Q 53 18.55 50 18.55 47 18.55 44.85 20.7 42.75 22.8 42.75 25.8
L 42.75 37.9
Q 44.5091796875 41.2533203125 45.15 45 45.25 45.6 45.35 46.2 45.5 47.1 45.55 48 45.6 48.95 45.6 49.9 45.6 50.75 45.55 51.65 45.203515625 57.1935546875 42.75 61.9
L 42.75 74.05
Q 42.75 76.7 44.35 78.65 44.6 78.95 44.85 79.2 47 81.3 50 81.3 53 81.3 55.1 79.2 55.35 78.95 55.65 78.6 57.25 76.65 57.25 74.05
L 57.25 57.2 74.15 57.2
Q 77.15 57.2 79.25 55.05 81.4 52.95 81.4 49.95 81.4 46.95 79.25 44.8 77.15 42.7 74.15 42.7
L 57.25 42.7 57.25 25.8
Q 57.25 22.8 55.1 20.7
M 89.6 50.9
L 89.6 50.1
Q 89.6 50.05 89.6 50 89.6 33.65 78 22.05 66.4 10.4 50 10.4 33.7 10.4 22.1 22.05 21.2296875 22.912890625 20.4 23.8 24.4830078125 23.911328125 28.1 25.15 28.8 25.4 29.45 25.7 30.65 26.15 31.75 26.8 35.05 28.55 37.95 31.45 38.6 32.1 39.15 32.75 40.85 34.65 42.1 36.8 42.45 37.3 42.7 37.8 42.7251953125 37.84765625 42.75 37.9
L 42.75 25.8
Q 42.75 22.8 44.85 20.7 47 18.55 50 18.55 53 18.55 55.1 20.7 57.25 22.8 57.25 25.8
L 57.25 42.7 74.15 42.7
Q 77.15 42.7 79.25 44.8 81.4 46.95 81.4 49.95 81.4 52.95 79.25 55.05 77.15 57.2 74.15 57.2
L 57.25 57.2 57.25 74.05
Q 57.25 76.65 55.65 78.6 55.35 78.95 55.1 79.2 53 81.3 50 81.3 47 81.3 44.85 79.2 44.6 78.95 44.35 78.65 42.75 76.7 42.75 74.05
L 42.75 61.9
Q 42.7251953125 61.9521484375 42.7 62 40.9 65.4 37.95 68.3 35.25 71 32.3 72.75 30.5 73.75 28.65 74.45 28.5 74.45 28.4 74.55 24.55 75.9 20.25 76
L 20.2 76
Q 21.112890625 77.0171875 22.1 78 33.7 89.6 50 89.6 66.4 89.6 78 78 89.25 66.7 89.6 50.9 Z"/>

<path fill="#464646" stroke="none" d="
M 89.6 50.1
L 89.6 50.9
Q 89.25 66.7 78 78 66.4 89.6 50 89.6 33.7 89.6 22.1 78 21.112890625 77.0171875 20.2 76 19.879296875 76 19.55 76 17.95 76 16.45 75.85 15.3537109375 74.4546875 14.35 73 16.7611328125 76.6978515625 20.05 80 32.45 92.35 50 92.35 67.55 92.35 80 80 92.35 67.55 92.35 50 92.35 32.45 80 20.05 67.55 7.65 50 7.65 32.45 7.65 20.05 20.05 18.115234375 21.984765625 16.45 24.05 17.9671875 23.8 19.55 23.8 19.95 23.8 20.35 23.8 20.387109375 23.8009765625 20.4 23.8 21.2296875 22.912890625 22.1 22.05 33.7 10.4 50 10.4 66.4 10.4 78 22.05 89.6 33.65 89.6 50 89.6 50.05 89.6 50.1 Z"/>
</g>

<path id="Layer1_0_1_STROKES" stroke="#FFFFFF" stroke-opacity="0.10196078431372549" stroke-width="3" stroke-linejoin="round" stroke-linecap="round" fill="none" d="
M 42.75 37.9
L 42.75 25.8
Q 42.75 22.8 44.85 20.7 47 18.55 50 18.55 53 18.55 55.1 20.7 57.25 22.8 57.25 25.8
L 57.25 42.7 74.15 42.7
Q 77.15 42.7 79.25 44.8 81.4 46.95 81.4 49.95 81.4 52.95 79.25 55.05 77.15 57.2 74.15 57.2
L 57.25 57.2 57.25 74.05
Q 57.25 76.65 55.65 78.6 55.35 78.95 55.1 79.2 53 81.3 50 81.3 47 81.3 44.85 79.2 44.6 78.95 44.35 78.65 42.75 76.7 42.75 74.05
L 42.75 61.9
M 42.75 37.9
L 42.75 42.7
M 42.75 57.2
L 42.75 61.9"/>

<path id="Layer1_0_2_STROKES" stroke="url(#Gradient_2)" stroke-width="3" stroke-linejoin="round" stroke-linecap="round" fill="none" d="
M 42.75 42.7
L 25.9 42.7
Q 22.9 42.7 20.75 44.8 18.65 46.95 18.65 49.95 18.65 52.95 20.75 55.05 22.9 57.2 25.9 57.2
L 42.75 57.2"/>

</defs>

<g transform="matrix( 1, 0, 0, 1, 0,0) ">
<use xlink:href="#Layer1_0_FILL"/>

<use xlink:href="#Layer1_0_1_STROKES"/>

<use xlink:href="#Layer1_0_2_STROKES"/>
</g>

<g transform="matrix( 1, 0, 0, 1, -3.4,-28) ">
<clipPath id="Mask_Mask_1">
<rect x="-5" y="-2" width="116.8" height="20.8" fill="#FFFFFF" stroke="none"/>
</clipPath>

<text clip-path="url(#Mask_Mask_1)" writing-mode="lr"><tspan x="-2.9" y="13.6" baseline-shift="0%" kerning="auto" font-family="Arial_Regular" font-size="15" fill="#999999" xml:space="preserve">Steam Controller</tspan></text>
</g>
</svg>
