
<svg xmlns="http://www.w3.org/2000/svg" version="1.1" xmlns:xlink="http://www.w3.org/1999/xlink" x="0px" y="0px" viewBox="0 0 100 100">
<defs>
<g id="Layer1_0_FILL">
<path fill="#FFFFFF" stroke="none" d="
M 13.6 47.4
Q 13.5701171875 47.3853515625 13.5 47.35 13.08984375 47.005859375 12.7 46.65 10.518359375 50.844140625 9.4 55.85
L 9.35 55.95
Q 7.05 67.95 12.55 78.55 12.75 78.9 12.85 79.2
L 7.25 82.95 29.55 92 29.95 68.5
Q 29.8578125 68.3166015625 29.75 68.1
L 24.45 71.65
Q 21.55 65.5 22.85 58.75
L 22.9 58.65
Q 23.3091796875 56.8033203125 23.95 55.15
L 23.95 55.1 23.95 55.1
Q 23.2595703125 54.7623046875 22.35 54.65 22.254296875 54.639453125 22.1 54.6
L 19.95 54.25
Q 19.167578125 54.1400390625 18.4 53.8 13.6380859375 51.5873046875 13.6 47.4
M 42.1 15.3
L 40.8 12.4
Q 38.4 10.15 36.45 9.75 34.7 10.1 30.95 12.2
L 25.3 16.3
Q 23.3 17.8 21.8 20 19.15 23.95 18.7 26.7 18.25 28.2 18.55 29.6
L 19.35 30.9 19 32.4
Q 18.75 34.75 17.25 37.25 15.7 39.2 15.7 40.1 15.8 41.5 17.25 42.65
L 20.4 44.4
Q 19.7 45.8 19.65 46.65 19.65 47.75 20.95 48.35
L 23.1 48.7
Q 28.25 49.35 30.6 53.85
L 33.95 62.45
Q 35.9 67.55 38.4 72.2 41.3 76.95 45.2 80.95 48.4 84.2 53.4 86.55 57.1 88.35 62.95 87.7 68.1 87.2 74.1 84.5 77.9 82.85 80.15 78.75 82.05 76 81.9 72.05 81.65 68.75 79.65 65.3 76.25 60.6 72 56.8
L 62.45 47.95
Q 62.7 47.5 62.3 45.85
L 61.15 44.4 62.65 43.2
Q 63.25 44.05 64.45 44.6 64.95 44.55 65.5 43.65 65.95 42.45 65.15 41.3 64.25 39.4 63 37.7 61.75 36.1 59.85 34.8 59.05 34.25 58 34.3 56.95 34.5 56.65 34.95 56.8 35.8 57.85 37.05
L 56.2 38.55 54.35 36.35
Q 53.35 35.75 52.5 35.65
L 50.6 30.9 44.4 18.65 42.1 15.3
M 85 22.7
L 90.65 18.85 68.5 9.75 67.9 33.8 73.45 30.25
Q 76.5 36.25 74.95 43.1 74.2361328125 46.4912109375 72.65 49.25
L 76 52.3
Q 76.039453125 52.3603515625 76.05 52.4 79.6111328125 55.5751953125 82.6 59.3 86.808203125 53.562890625 88.45 46
L 88.45 45.9
Q 90.95 33.8 85.25 23.1 85.2 22.9 85 22.7 Z"/>
</g>

</defs>

<g transform="matrix( 1, 0, 0, 1, 0,0) ">
<use xlink:href="#Layer1_0_FILL"/>
</g>

<g transform="matrix( 1, 0, 0, 1, -3.4,-28) ">
<clipPath id="Mask_Mask_1">
<rect x="-5" y="-2" width="116.8" height="20.8" fill="#FFFFFF" stroke="none"/>
</clipPath>

<text clip-path="url(#Mask_Mask_1)" writing-mode="lr"><tspan x="-2.9" y="13.6" baseline-shift="0%" kerning="auto" font-family="Arial_Regular" font-size="15" fill="#999999" xml:space="preserve">Steam Controller</tspan></text>
</g>
</svg>
