
<svg xmlns="http://www.w3.org/2000/svg" version="1.1" xmlns:xlink="http://www.w3.org/1999/xlink" x="0px" y="0px" viewBox="0 0 100 100">
<defs>
<linearGradient id="Gradient_1" gradientUnits="userSpaceOnUse" x1="30.775" y1="47.1125" x2="67.225" y2="56.8875" spreadMethod="pad">
<stop  offset="10.196078431372548%" stop-color="#666666"/>

<stop  offset="100%" stop-color="#585858"/>
</linearGradient>

<g id="Layer1_0_FILL">
<path fill="url(#Gradient_1)" stroke="none" d="
M 69.4 72.2
L 69.4 72.25
Q 69.1623046875 73.199609375 68.9 74.15 68.50078125 75.45546875 68.1 76.75 70.4404296875 75.7607421875 70.55 75.25 71.0240234375 74.5572265625 70.85 73.75 70.68828125 72.9380859375 70 72.45 69.7265625 72.2970703125 69.4 72.2
M 84.2 15.45
Q 84.275 16.4005859375 84.25 17.4 84.227734375 18.4626953125 84.1 19.55 84.4734375 19.4697265625 84.85 19.35 85.6396484375 19.1041015625 86 18.35 86.4044921875 17.6375 86.15 16.85 85.9046875 16.0603515625 85.15 15.65 84.69921875 15.43046875 84.2 15.45
M 84.25 17.4
Q 84.275 16.4005859375 84.2 15.45 83.9294921875 15.4599609375 83.65 15.55 71.8291015625 19.3068359375 67.45 20.25
L 67.55 20.2
Q 63.165625 21.0048828125 59 21.25 57.608203125 21.278125 56 20.95 55.9599609375 20.973828125 55.9 20.95 53.7328125 20.68203125 51.5 21.15 51.42421875 21.1837890625 51.35 21.2 51.0033203125 21.282421875 50.7 21.45 50.6751953125 21.5099609375 50.6 21.55 50.5857421875 21.5697265625 50.55 21.6 50.5107421875 21.6177734375 50.45 21.65
L 50.4 21.7
Q 48.9361328125 23.0361328125 47.6 24.45
L 47.55 24.5
Q 42.066015625 30.3173828125 37.6 37.05 29.4818359375 49.258984375 24.75 63.25 23.19921875 67.8689453125 22.4 72.85 21.85546875 76.4501953125 22.7 79.8 22.7134765625 79.84921875 22.7 79.85 22.9859375 80.825 23.3 81.75
L 23.3 81.8
Q 23.7734375 83.2240234375 25.2 84.25 26.20859375 84.991015625 27.3 85.35
L 27.3 85.35
Q 28.846875 85.9392578125 30.5 86.3 30.5830078125 86.3298828125 30.65 86.35 30.865625 86.39140625 31.05 86.4 31.087109375 86.4009765625 31.1 86.4 33.076171875 86.45 34.95 86.55 35.174609375 86.5740234375 35.4 86.55 38.676953125 86.1888671875 41.7 85.65 41.79453125 85.665234375 41.85 85.65 43.0869140625 85.3505859375 44.25 85.1 44.3203125 85.089453125 44.4 85.05 45.6125 84.73828125 46.8 84.45 46.875390625 84.4373046875 46.9 84.4 48.2494140625 84.025390625 49.5 83.65 49.5755859375 83.6623046875 49.6 83.65 50.8376953125 83.25 52 82.85 52.1126953125 82.8166015625 52.2 82.75 54.5501953125 81.8626953125 56.8 80.9 56.86171875 80.8734375 56.9 80.85 57.6982421875 80.48046875 59.4 79.85
L 59.45 79.85
Q 61.1693359375 79.2359375 65.15 77.55 66.952734375 76.4212890625 68.1 76.75 68.50078125 75.45546875 68.9 74.15 69.1623046875 73.199609375 69.4 72.25
L 69.4 72.2
Q 68.9888671875 72.09453125 68.5 72.2 67.6884765625 72.363671875 67.2 73.05 66.87109375 73.0765625 62.55 74.55
L 62.55 74.55
Q 59.83046875 75.4640625 58.05 76.1
L 58.05 76.1
Q 56.1015625 76.81953125 55.2 77.25
L 55.25 77.2
Q 53.234375 78.0708984375 51.15 78.9 50.893359375 78.944140625 50.55 79.1 49.48359375 79.4763671875 48.35 79.85 47.1466796875 80.176953125 45.85 80.55 45.824609375 80.560546875 45.75 80.55 44.5373046875 80.87578125 43.3 81.2 42.1357421875 81.4673828125 40.9 81.75 38.091015625 82.2119140625 35.05 82.55 35.0251953125 82.547265625 34.95 82.55 33.188671875 82.44921875 31.3 82.4 29.9712890625 82.0939453125 28.7 81.6
L 28.65 81.6
Q 28.0916015625 81.408984375 27.55 81 27.2546875 80.79609375 27.1 80.5 26.8138671875 79.675 26.55 78.8
L 26.6 78.85
Q 25.9443359375 76.2494140625 26.35 73.45 27.1005859375 68.8310546875 28.55 64.55 33.1181640625 51.041015625 40.95 39.25 45.22421875 32.7974609375 50.5 27.2
L 50.5 27.2
Q 51.5796875 26.064453125 52.75 25 54.0845703125 24.7587890625 55.4 24.9
L 55.25 24.9
Q 57.3498046875 25.313671875 59.2 25.25 59.2361328125 25.2501953125 59.25 25.25 63.633984375 24.9951171875 68.25 24.15 68.2841796875 24.1625 68.3 24.15 72.632421875 23.22265625 84.1 19.55 84.227734375 18.4626953125 84.25 17.4 Z"/>

<path fill="#585858" stroke="none" d="
M 83.3 24
Q 83.87578125 21.662109375 84.1 19.55 72.632421875 23.22265625 68.3 24.15 68.2841796875 24.1625 68.25 24.15 63.633984375 24.9951171875 59.25 25.25 59.2361328125 25.2501953125 59.2 25.25 57.3498046875 25.313671875 55.25 24.9
L 55.4 24.9
Q 54.0845703125 24.7587890625 52.75 25 51.5796875 26.064453125 50.5 27.2
L 50.5 27.2
Q 45.22421875 32.7974609375 40.95 39.25 33.1181640625 51.041015625 28.55 64.55 27.1005859375 68.8310546875 26.35 73.45 25.9443359375 76.2494140625 26.6 78.85
L 26.55 78.8
Q 26.8138671875 79.675 27.1 80.5 27.2546875 80.79609375 27.55 81 28.0916015625 81.408984375 28.65 81.6
L 28.7 81.6
Q 29.9712890625 82.0939453125 31.3 82.4 33.188671875 82.44921875 34.95 82.55 35.0251953125 82.547265625 35.05 82.55 38.091015625 82.2119140625 40.9 81.75 42.1357421875 81.4673828125 43.3 81.2 44.5373046875 80.87578125 45.75 80.55 45.824609375 80.560546875 45.85 80.55 47.1466796875 80.176953125 48.35 79.85 49.48359375 79.4763671875 50.55 79.1 50.893359375 78.944140625 51.15 78.9 53.234375 78.0708984375 55.25 77.2
L 55.2 77.25
Q 56.1015625 76.81953125 58.05 76.1
L 58.05 76.1
Q 59.83046875 75.4640625 62.55 74.55
L 62.55 74.55
Q 66.87109375 73.0765625 67.2 73.05 67.6884765625 72.363671875 68.5 72.2 68.9888671875 72.09453125 69.4 72.2 69.9609375 70.356640625 70.5 68.5 70.697265625 67.7990234375 70.9 67.1
L 83.3 24
M 45.5 50.65
L 49.4 50.65 49.4 64.75 56.6 64.75 56.6 68.35 45.5 68.35 45.5 50.65 Z"/>

<path fill="#8F8F8F" stroke="none" d="
M 49.4 50.65
L 45.5 50.65 45.5 68.35 56.6 68.35 56.6 64.75 49.4 64.75 49.4 50.65 Z"/>

<path fill="#464646" stroke="none" d="
M 83.65 15.55
Q 83.9294921875 15.4599609375 84.2 15.45 83.8935546875 11.3716796875 81.8 8.65
L 79.2 10.05
Q 76.25 11.55 73.25 12.8 69.95 14.15 66.5 14.8 63.15 15.4 59.75 15.7 59.45 15.65 59.2 15.7 58.45 15.65 57.65 15.65 56.2 15.55 54.65 15.35 52.6 15.3 50.5 15.65 48.4 16.05 46.7 17.55 43.35 20.35 40.6 23.75 37.25 27.85 33.1 34 21.3 51.6 16.95 71.6 16.45 74.95 16.75 77.9 17 81.5 18.65 84.65 20.75 88.7 24.85 90.65 27.65 91.7 30.7 91.95 35.55 92.35 40.2 91.45 45.2 90.8 51.25 88.9 51.3748046875 88.855078125 51.5 88.8 53.8822265625 87.955078125 56.4 87.1 58.005078125 86.48046875 59.55 85.75 60.7423828125 85.1833984375 61.9 84.55 62.2072265625 84.3880859375 62.5 84.2 63.94765625 83.36328125 65.05 82.25 67.1189453125 80.17734375 68 77.2 68.064453125 76.973046875 68.1 76.75 66.952734375 76.4212890625 65.15 77.55 61.1693359375 79.2359375 59.45 79.85
L 59.4 79.85
Q 57.6982421875 80.48046875 56.9 80.85 56.86171875 80.8734375 56.8 80.9 54.5501953125 81.8626953125 52.2 82.75 52.1126953125 82.8166015625 52 82.85 50.8376953125 83.25 49.6 83.65 49.5755859375 83.6623046875 49.5 83.65 48.2494140625 84.025390625 46.9 84.4 46.875390625 84.4373046875 46.8 84.45 45.6125 84.73828125 44.4 85.05 44.3203125 85.089453125 44.25 85.1 43.0869140625 85.3505859375 41.85 85.65 41.79453125 85.665234375 41.7 85.65 38.676953125 86.1888671875 35.4 86.55 35.174609375 86.5740234375 34.95 86.55 33.076171875 86.45 31.1 86.4 31.087109375 86.4009765625 31.05 86.4 30.865625 86.39140625 30.65 86.35 30.5830078125 86.3298828125 30.5 86.3 28.846875 85.9392578125 27.3 85.35
L 27.3 85.35
Q 26.20859375 84.991015625 25.2 84.25 23.7734375 83.2240234375 23.3 81.8
L 23.3 81.75
Q 22.9859375 80.825 22.7 79.85 22.7134765625 79.84921875 22.7 79.8 21.85546875 76.4501953125 22.4 72.85 23.19921875 67.8689453125 24.75 63.25 29.4818359375 49.258984375 37.6 37.05 42.066015625 30.3173828125 47.55 24.5
L 47.6 24.45
Q 48.9361328125 23.0361328125 50.4 21.7
L 50.45 21.65
Q 50.5107421875 21.6177734375 50.55 21.6 50.5857421875 21.5697265625 50.6 21.55 50.6751953125 21.5099609375 50.7 21.45 51.0033203125 21.282421875 51.35 21.2 51.42421875 21.1837890625 51.5 21.15 53.7328125 20.68203125 55.9 20.95 55.9599609375 20.973828125 56 20.95 57.608203125 21.278125 59 21.25 63.165625 21.0048828125 67.55 20.2
L 67.45 20.25
Q 71.8291015625 19.3068359375 83.65 15.55 Z"/>
</g>

<path id="Layer1_0_1_STROKES" stroke="#2A2A2A" stroke-width="5" stroke-linejoin="round" stroke-linecap="round" fill="none" d="
M 84.1 19.575
Q 84.227734375 18.4626953125 84.25 17.425 84.275 16.4005859375 84.2 15.45
M 68.125 76.75
Q 68.50078125 75.45546875 68.9 74.15 69.1623046875 73.199609375 69.425 72.25
L 69.425 72.225
M 84.2 15.45
Q 83.8935546875 11.3716796875 81.8 8.65
L 79.2 10.05
Q 76.25 11.55 73.25 12.8 69.95 14.15 66.5 14.8 63.15 15.4 59.75 15.7 59.45 15.65 59.2 15.7 58.45 15.65 57.65 15.65 56.2 15.55 54.65 15.35 52.6 15.3 50.5 15.65 48.4 16.05 46.7 17.55 43.35 20.35 40.6 23.75 37.25 27.85 33.1 34 21.3 51.6 16.95 71.6 16.45 74.95 16.75 77.9 17 81.5 18.65 84.65 20.75 88.7 24.85 90.65 27.65 91.7 30.7 91.95 35.55 92.35 40.2 91.45 45.2 90.8 51.25 88.9 51.3748046875 88.855078125 51.5 88.8 53.8822265625 87.955078125 56.4 87.1 58.005078125 86.48046875 59.55 85.75 60.7423828125 85.1833984375 61.9 84.55 62.2072265625 84.3880859375 62.5 84.225 63.94765625 83.36328125 65.05 82.25 67.1189453125 80.17734375 68 77.2 68.064453125 76.973046875 68.125 76.75
M 69.425 72.225
Q 69.9609375 70.356640625 70.5 68.5 70.697265625 67.7990234375 70.9 67.1
L 83.3 24
Q 83.87578125 21.662109375 84.1 19.575"/>

</defs>

<g transform="matrix( 1, 0, 0, 1, 0,0) ">
<use xlink:href="#Layer1_0_FILL"/>

<use xlink:href="#Layer1_0_1_STROKES"/>
</g>

<g transform="matrix( 1, 0, 0, 1, -3.4,-28) ">
<clipPath id="Mask_Mask_1">
<rect x="-5" y="-2" width="116.8" height="20.8" fill="#FFFFFF" stroke="none"/>
</clipPath>

<text clip-path="url(#Mask_Mask_1)" writing-mode="lr"><tspan x="-2.9" y="13.6" baseline-shift="0%" kerning="auto" font-family="Arial_Regular" font-size="15" fill="#999999" xml:space="preserve">Steam Controller</tspan></text>
</g>
</svg>
