
<svg xmlns="http://www.w3.org/2000/svg" version="1.1" xmlns:xlink="http://www.w3.org/1999/xlink" x="0px" y="0px" viewBox="0 0 100 100">
<defs>
<g id="Layer1_0_FILL">
<path fill="#464646" stroke="none" d="
M 87 75.55
L 92.95 55.15
Q 89.65 42.85 88 35.6 80.05 37.5 73.2 35.6
L 19 21.65
Q 12.85 20.45 10.25 26.65 5.7 44.05 6.25 61.85 7.8 68.3 13.4 71.3
L 73.2 78.75
Q 80.1 79.3 87 75.55
M 15.7 36.7
Q 16.7 31.6 21.75 32.4
L 77.55 44.3
Q 83 61.25 73.8 71.3
L 15.95 64.05
Q 14.4 62.8 13.7 60.75 13.45 48 15.7 36.7 Z"/>

<path fill="#585858" stroke="none" d="
M 21.75 32.4
Q 16.7 31.6 15.7 36.7 13.45 48 13.7 60.75 14.4 62.8 15.95 64.05
L 73.8 71.3
Q 83 61.25 77.55 44.3
L 21.75 32.4
M 42.3 43.15
Q 43.45 43.35 44.6 43.6 45.8 44 46.7 44.6 47.6 45.25 48.2 46.15 48.75 47.1 48.75 48.55 48.75 50.05 47.95 50.95 47.1 51.8 45.75 52.05
L 45.75 52.1
Q 46.6 52.35 47.3 52.8 48 53.25 48.5 53.9 49.05 54.55 49.3 55.35 49.6 56.15 49.6 57 49.6 58.35 49 59.25 48.4 60.05 47.45 60.55 46.5 60.95 45.3 61.05 44.1 61.1 42.95 60.95
L 35.7 59.9 35.7 42.2 42.3 43.15
M 22.4 40.25
L 26.3 40.85 26.3 54.95 33.5 55.95 33.5 59.55 22.4 57.95 22.4 40.25
M 39.6 53.15
L 39.6 57.15 43.1 57.65
Q 43.55 57.75 44 57.7 44.45 57.65 44.85 57.5 45.2 57.25 45.45 56.9 45.7 56.5 45.7 55.95 45.7 55.3 45.35 54.9 45.05 54.5 44.6 54.2 44.1 53.9 43.55 53.8 43 53.65 42.55 53.6
L 39.6 53.15
M 44 47.05
Q 43.65 46.8 43.2 46.65 42.7 46.5 42.25 46.45
L 39.6 46.05 39.6 49.85 42.4 50.25
Q 42.85 50.3 43.3 50.25 43.75 50.25 44.1 50.05 44.45 49.9 44.65 49.5 44.85 49.25 44.85 48.7 44.85 48.15 44.65 47.7 44.4 47.3 44 47.05 Z"/>

<path fill="#9A9A9A" stroke="none" d="
M 26.3 40.85
L 22.4 40.25 22.4 57.95 33.5 59.55 33.5 55.95 26.3 54.95 26.3 40.85
M 44.6 43.6
Q 43.45 43.35 42.3 43.15
L 35.7 42.2 35.7 59.9 42.95 60.95
Q 44.1 61.1 45.3 61.05 46.5 60.95 47.45 60.55 48.4 60.05 49 59.25 49.6 58.35 49.6 57 49.6 56.15 49.3 55.35 49.05 54.55 48.5 53.9 48 53.25 47.3 52.8 46.6 52.35 45.75 52.1
L 45.75 52.05
Q 47.1 51.8 47.95 50.95 48.75 50.05 48.75 48.55 48.75 47.1 48.2 46.15 47.6 45.25 46.7 44.6 45.8 44 44.6 43.6
M 43.2 46.65
Q 43.65 46.8 44 47.05 44.4 47.3 44.65 47.7 44.85 48.15 44.85 48.7 44.85 49.25 44.65 49.5 44.45 49.9 44.1 50.05 43.75 50.25 43.3 50.25 42.85 50.3 42.4 50.25
L 39.6 49.85 39.6 46.05 42.25 46.45
Q 42.7 46.5 43.2 46.65
M 39.6 57.15
L 39.6 53.15 42.55 53.6
Q 43 53.65 43.55 53.8 44.1 53.9 44.6 54.2 45.05 54.5 45.35 54.9 45.7 55.3 45.7 55.95 45.7 56.5 45.45 56.9 45.2 57.25 44.85 57.5 44.45 57.65 44 57.7 43.55 57.75 43.1 57.65
L 39.6 57.15 Z"/>
</g>

<path id="Layer1_0_1_STROKES" stroke="#2A2A2A" stroke-width="5" stroke-linejoin="round" stroke-linecap="round" fill="none" d="
M 87 75.55
L 92.95 55.15
Q 89.65 42.85 88 35.6 80.05 37.5 73.2 35.6
L 19 21.65
Q 12.85 20.45 10.25 26.65 5.7 44.05 6.25 61.85 7.8 68.3 13.4 71.3
L 73.2 78.75
Q 80.1 79.3 87 75.55 Z"/>

<path id="Layer1_0_2_STROKES" stroke="#666666" stroke-width="4" stroke-linejoin="round" stroke-linecap="round" fill="none" d="
M 21.75 32.4
Q 16.7 31.6 15.7 36.7 13.45 48 13.7 60.75 14.4 62.8 15.95 64.05
L 73.8 71.3
Q 83 61.25 77.55 44.3
L 21.75 32.4 Z"/>

</defs>

<g transform="matrix( 1, 0, 0, 1, 0,0) ">
<use xlink:href="#Layer1_0_FILL"/>

<use xlink:href="#Layer1_0_1_STROKES"/>

<use xlink:href="#Layer1_0_2_STROKES"/>
</g>

<g transform="matrix( 1, 0, 0, 1, -3.4,-28) ">
<clipPath id="Mask_Mask_1">
<rect x="-5" y="-2" width="116.8" height="20.8" fill="#FFFFFF" stroke="none"/>
</clipPath>

<text clip-path="url(#Mask_Mask_1)" writing-mode="lr"><tspan x="-2.9" y="13.6" baseline-shift="0%" kerning="auto" font-family="Arial_Regular" font-size="15" fill="#999999" xml:space="preserve">Steam Controller</tspan></text>
</g>
</svg>
