
<svg xmlns="http://www.w3.org/2000/svg" version="1.1" xmlns:xlink="http://www.w3.org/1999/xlink" x="0px" y="0px" viewBox="0 0 100 100">
<defs>
<linearGradient id="Gradient_1" gradientUnits="userSpaceOnUse" x1="72.125" y1="47.1125" x2="35.675" y2="56.8875" spreadMethod="pad">
<stop  offset="10.196078431372548%" stop-color="#666666"/>

<stop  offset="100%" stop-color="#585858"/>
</linearGradient>

<g id="Layer1_0_FILL">
<path fill="url(#Gradient_1)" stroke="none" d="
M 34 74.15
Q 33.75 73.2 33.45 72.25 33.15 72.3 32.9 72.5 32.2 72.95 32.05 73.75 31.9 74.55 32.3 75.25 32.45 75.75 34.75 76.75 34.4 75.45 34 74.15
M 18.65 17.45
Q 18.6 16.4 18.7 15.45 18.2 15.45 17.7 15.7 17 16.05 16.75 16.85 16.5 17.65 16.85 18.4 17.25 19.1 18.05 19.35 18.45 19.45 18.8 19.6 18.65 18.45 18.65 17.45
M 46.85 21
Q 45.3 21.3 43.85 21.25 39.75 21 35.35 20.25
L 35.4 20.25
Q 31.05 19.3 19.25 15.55 18.95 15.45 18.7 15.45 18.6 16.4 18.65 17.45 18.65 18.45 18.8 19.6 30.25 23.2 34.55 24.15 34.6 24.15 34.65 24.2 39.25 25 43.6 25.25 43.65 25.25 43.7 25.25 45.55 25.3 47.6 24.95
L 47.5 24.95
Q 48.8 24.75 50.15 25 51.3 26.05 52.35 27.2
L 52.4 27.25
Q 57.7 32.8 61.9 39.25 69.8 51.05 74.35 64.55 75.8 68.85 76.5 73.45 76.95 76.25 76.3 78.9
L 76.3 78.85
Q 76.1 79.7 75.8 80.55 75.65 80.8 75.3 81.05 74.8 81.4 74.2 81.65 72.95 82.1 71.55 82.4 69.7 82.45 67.9 82.55 67.85 82.55 67.8 82.55 64.8 82.2 61.95 81.75 60.75 81.45 59.6 81.25 58.35 80.9 57.1 80.6 57.1 80.55 57 80.55 55.75 80.2 54.5 79.85 53.4 79.5 52.35 79.1 52 78.95 51.75 78.9 49.65 78.05 47.6 77.2 46.6921875 76.7650390625 44.8 76.15
L 44.85 76.15
Q 43.05 75.45 40.3 74.55
L 40.35 74.55
Q 36.05 73.1 35.65 73.05 35.2 72.35 34.4 72.2 33.9 72.1 33.45 72.25 33.75 73.2 34 74.15 34.4 75.45 34.75 76.75 35.95 76.4 37.75 77.55 41.75 79.25 43.45 79.9 45.2 80.5 46 80.85 46.05 80.85 46.05 80.9 48.35 81.85 50.65 82.8 50.8 82.8 50.9 82.85 52.05 83.25 53.25 83.65 53.3 83.65 53.35 83.7 54.65 84.05 55.95 84.45 56 84.45 56.05 84.45 57.3 84.75 58.5 85.1 58.6 85.1 58.65 85.1 59.8 85.35 61 85.65 61.1 85.65 61.15 85.7 64.2 86.2 67.45 86.55 67.75 86.55 67.95 86.55 69.8 86.45 71.75 86.4 71.8 86.4 71.85 86.4 72.05 86.4 72.2 86.35 72.3 86.35 72.4 86.3 74.05 85.95 75.6 85.4
L 75.55 85.4
Q 76.7 85 77.65 84.3 79.15 83.2 79.55 81.85
L 79.6 81.8
Q 79.9 80.85 80.15 79.9
L 80.2 79.85
Q 81.05 76.45 80.45 72.85 79.7 67.85 78.15 63.25 73.4 49.25 65.25 37.05 60.85 30.3 55.3 24.5 53.95 23.05 52.45 21.7
L 52.4 21.65
Q 52.4 21.6 52.35 21.6 52.3 21.55 52.25 21.55 52.2 21.5 52.15 21.5 51.9 21.3 51.55 21.2 51.5 21.2 51.4 21.2 49.15 20.7 47 21 46.95 20.95 46.85 21 Z"/>

<path fill="#585858" stroke="none" d="
M 43.7 25.25
Q 43.65 25.25 43.6 25.25 39.25 25 34.65 24.2 34.6 24.15 34.55 24.15 30.25 23.2 18.8 19.6 19 21.65 19.6 24
L 32 67.1
Q 32.2 67.8 32.4 68.5 32.95 70.35 33.45 72.25 33.9 72.1 34.4 72.2 35.2 72.35 35.65 73.05 36.05 73.1 40.35 74.55
L 40.3 74.55
Q 43.05 75.45 44.85 76.15
L 44.8 76.15
Q 46.6921875 76.7650390625 47.6 77.2 49.65 78.05 51.75 78.9 52 78.95 52.35 79.1 53.4 79.5 54.5 79.85 55.75 80.2 57 80.55 57.1 80.55 57.1 80.6 58.35 80.9 59.6 81.25 60.75 81.45 61.95 81.75 64.8 82.2 67.8 82.55 67.85 82.55 67.9 82.55 69.7 82.45 71.55 82.4 72.95 82.1 74.2 81.65 74.8 81.4 75.3 81.05 75.65 80.8 75.8 80.55 76.1 79.7 76.3 78.85
L 76.3 78.9
Q 76.95 76.25 76.5 73.45 75.8 68.85 74.35 64.55 69.8 51.05 61.9 39.25 57.7 32.8 52.4 27.25
L 52.35 27.2
Q 51.3 26.05 50.15 25 48.8 24.75 47.5 24.95
L 47.6 24.95
Q 45.55 25.3 43.7 25.25
M 56.5 51
Q 57.75 51.25 58.65 51.9 59.55 52.5 60.1 53.55 60.6 54.55 60.6 56.1 60.6 58 59.65 59.3 58.65 60.65 56.8 60.95
L 61.3 68.45 56.6 68.45 52.9 61.35 51 61.35 51 68.45 47.1 68.45 47.1 50.75 53.95 50.75
Q 55.3 50.75 56.5 51
M 55.6 54.4
Q 55.15 54.2 54.65 54.1 54.1 54.05 53.55 54.05
L 51 54.05 51 58.05 53.3 58.05
Q 53.8 58.05 54.4 58.05 55 58 55.45 57.8 55.95 57.6 56.25 57.2 56.55 56.85 56.55 56.1 56.55 55.45 56.3 55 56 54.6 55.6 54.4 Z"/>

<path fill="#8F8F8F" stroke="none" d="
M 58.65 51.9
Q 57.75 51.25 56.5 51 55.3 50.75 53.95 50.75
L 47.1 50.75 47.1 68.45 51 68.45 51 61.35 52.9 61.35 56.6 68.45 61.3 68.45 56.8 60.95
Q 58.65 60.65 59.65 59.3 60.6 58 60.6 56.1 60.6 54.55 60.1 53.55 59.55 52.5 58.65 51.9
M 54.65 54.1
Q 55.15 54.2 55.6 54.4 56 54.6 56.3 55 56.55 55.45 56.55 56.1 56.55 56.85 56.25 57.2 55.95 57.6 55.45 57.8 55 58 54.4 58.05 53.8 58.05 53.3 58.05
L 51 58.05 51 54.05 53.55 54.05
Q 54.1 54.05 54.65 54.1 Z"/>

<path fill="#464646" stroke="none" d="
M 86.15 77.9
Q 86.45 74.95 85.95 71.6 81.6 51.6 69.8 34 65.65 27.85 62.3 23.75 59.55 20.35 56.2 17.55 54.5 16.05 52.4 15.65 50.3 15.3 48.25 15.35 46.7 15.55 45.25 15.65 44.45 15.65 43.7 15.7 43.45 15.65 43.15 15.7 39.75 15.4 36.4 14.8 32.95 14.15 29.65 12.8 26.65 11.55 23.7 10.05
L 21.1 8.65
Q 19 11.35 18.7 15.45 18.95 15.45 19.25 15.55 31.05 19.3 35.4 20.25
L 35.35 20.25
Q 39.75 21 43.85 21.25 45.3 21.3 46.85 21 46.95 20.95 47 21 49.15 20.7 51.4 21.2 51.5 21.2 51.55 21.2 51.9 21.3 52.15 21.5 52.2 21.5 52.25 21.55 52.3 21.55 52.35 21.6 52.4 21.6 52.4 21.65
L 52.45 21.7
Q 53.95 23.05 55.3 24.5 60.85 30.3 65.25 37.05 73.4 49.25 78.15 63.25 79.7 67.85 80.45 72.85 81.05 76.45 80.2 79.85
L 80.15 79.9
Q 79.9 80.85 79.6 81.8
L 79.55 81.85
Q 79.15 83.2 77.65 84.3 76.7 85 75.55 85.4
L 75.6 85.4
Q 74.05 85.95 72.4 86.3 72.3 86.35 72.2 86.35 72.05 86.4 71.85 86.4 71.8 86.4 71.75 86.4 69.8 86.45 67.95 86.55 67.75 86.55 67.45 86.55 64.2 86.2 61.15 85.7 61.1 85.65 61 85.65 59.8 85.35 58.65 85.1 58.6 85.1 58.5 85.1 57.3 84.75 56.05 84.45 56 84.45 55.95 84.45 54.65 84.05 53.35 83.7 53.3 83.65 53.25 83.65 52.05 83.25 50.9 82.85 50.8 82.8 50.65 82.8 48.35 81.85 46.05 80.9 46.05 80.85 46 80.85 45.2 80.5 43.45 79.9 41.75 79.25 37.75 77.55 35.95 76.4 34.75 76.75 34.85 76.95 34.9 77.2 35.8 80.2 37.85 82.25 38.95 83.35 40.4 84.25 40.7 84.4 41 84.55 42.15 85.2 43.35 85.75 44.9 86.5 46.5 87.1 49 87.95 51.4 88.8 51.55 88.85 51.65 88.9 57.7 90.8 62.7 91.45 67.35 92.35 72.2 91.95 75.25 91.7 78.05 90.65 82.15 88.7 84.25 84.65 85.9 81.5 86.15 77.9 Z"/>
</g>

<path id="Layer1_0_1_STROKES" stroke="#2A2A2A" stroke-width="5" stroke-linejoin="round" stroke-linecap="round" fill="none" d="
M 18.7 15.45
Q 19 11.35 21.1 8.65
L 23.7 10.05
Q 26.65 11.55 29.65 12.8 32.95 14.15 36.4 14.8 39.75 15.4 43.15 15.7 43.45 15.65 43.7 15.7 44.45 15.65 45.25 15.65 46.7 15.55 48.25 15.35 50.3 15.3 52.4 15.65 54.5 16.05 56.2 17.55 59.55 20.35 62.3 23.75 65.65 27.85 69.8 34 81.6 51.6 85.95 71.6 86.45 74.95 86.15 77.9 85.9 81.5 84.25 84.65 82.15 88.7 78.05 90.65 75.25 91.7 72.2 91.95 67.35 92.35 62.7 91.45 57.7 90.8 51.65 88.9 51.55 88.85 51.4 88.8 49 87.95 46.5 87.1 44.9 86.5 43.35 85.75 42.15 85.2 41 84.55 40.7 84.4 40.4 84.25 38.95 83.35 37.85 82.25 35.8 80.2 34.9 77.2 34.85 76.95 34.75 76.75
M 33.45 72.25
Q 32.95 70.35 32.4 68.5 32.2 67.8 32 67.1
L 19.6 24
Q 19 21.65 18.8 19.6
M 34.75 76.75
Q 34.4 75.45 34 74.15 33.75 73.2 33.45 72.25
M 18.8 19.6
Q 18.65 18.45 18.65 17.45 18.6 16.4 18.7 15.45"/>

</defs>

<g transform="matrix( 1, 0, 0, 1, 0,0) ">
<use xlink:href="#Layer1_0_FILL"/>

<use xlink:href="#Layer1_0_1_STROKES"/>
</g>

<g transform="matrix( 1, 0, 0, 1, -3.4,-28) ">
<clipPath id="Mask_Mask_1">
<rect x="-5" y="-2" width="116.8" height="20.8" fill="#FFFFFF" stroke="none"/>
</clipPath>

<text clip-path="url(#Mask_Mask_1)" writing-mode="lr"><tspan x="-2.9" y="13.6" baseline-shift="0%" kerning="auto" font-family="Arial_Regular" font-size="15" fill="#999999" xml:space="preserve">Steam Controller</tspan></text>
</g>
</svg>
