
<svg xmlns="http://www.w3.org/2000/svg" version="1.1" xmlns:xlink="http://www.w3.org/1999/xlink" x="0px" y="0px" viewBox="0 0 100 100">
<defs>
<linearGradient id="Gradient_1" gradientUnits="userSpaceOnUse" x1="50" y1="10.412499999999994" x2="50" y2="89.5875" spreadMethod="pad">
<stop  offset="0%" stop-color="#373737"/>

<stop  offset="100%" stop-color="#575757"/>
</linearGradient>

<g id="Layer1_0_FILL">
<path fill="#2A2A2A" stroke="none" d="
M 97.4 44.3
Q 95.6578125 28.1578125 83.8 16.3 79.07734375 11.57734375 73.7 8.45 63.1208984375 2.3 50 2.3 36.8453125 2.3 26.3 8.45 20.9650390625 11.6013671875 16.3 16.3 2.3 30.2 2.3 50 2.3 69.8 16.3 83.8 30.2 97.7 50 97.7 69.8 97.7 83.8 83.8 95.7048828125 71.8095703125 97.4 55.55 97.7 52.8419921875 97.7 50 97.7 47.0908203125 97.4 44.3
M 75.9 16.4
Q 78.03046875 18.08828125 80 20.05 92.35 32.45 92.35 50 92.35 67.55 80 80 67.55 92.35 50 92.35 32.45 92.35 20.05 80 7.65 67.55 7.65 50 7.65 32.45 20.05 20.05 22.0220703125 18.0779296875 24.1 16.4 35.2412109375 7.65 50 7.65 64.7736328125 7.65 75.9 16.4 Z"/>

<path fill="#464646" stroke="none" d="
M 80 20.05
Q 78.03046875 18.08828125 75.9 16.4 64.7736328125 7.65 50 7.65 35.2412109375 7.65 24.1 16.4 22.0220703125 18.0779296875 20.05 20.05 7.65 32.45 7.65 50 7.65 67.55 20.05 80 32.45 92.35 50 92.35 67.55 92.35 80 80 92.35 67.55 92.35 50 92.35 32.45 80 20.05
M 89.6 50.1
L 89.6 50.9
Q 89.25 66.7 78 78 66.4 89.6 50 89.6 33.7 89.6 22.1 78 10.75 66.7 10.4 50.9 10.4 50.7 10.4 50.5
L 10.4 50.1
Q 10.4 50.05 10.4 50 10.4 33.65 22.1 22.05 22.9912109375 21.1548828125 23.9 20.3 34.95234375 10.4 50 10.4 65.0734375 10.4 76.1 20.25 77.06171875 21.1076171875 78 22.05 89.6 33.65 89.6 50 89.6 50.05 89.6 50.1 Z"/>

<path fill="url(#Gradient_1)" stroke="none" d="
M 89.6 50.9
L 89.6 50.1
Q 89.6 50.05 89.6 50 89.6 33.65 78 22.05 77.06171875 21.1076171875 76.1 20.25 65.0734375 10.4 50 10.4 34.95234375 10.4 23.9 20.3 22.9912109375 21.1548828125 22.1 22.05 10.4 33.65 10.4 50 10.4 50.05 10.4 50.1
L 10.4 50.5
Q 10.4 50.7 10.4 50.9 10.75 66.7 22.1 78 33.7 89.6 50 89.6 66.4 89.6 78 78 89.25 66.7 89.6 50.9
M 44.9 20.7
Q 47 18.6 50 18.6 53 18.6 55.15 20.7 57.25 22.85 57.25 25.85
L 57.25 42.7 74.15 42.7
Q 77.15 42.7 79.25 44.8 81.4 46.95 81.4 49.95 81.4 52.95 79.25 55.05 77.15 57.2 74.15 57.2
L 57.25 57.2 57.25 74.1
Q 57.25 77.1 55.15 79.2 53 81.35 50 81.35 47 81.35 44.9 79.2 42.75 77.1 42.75 74.1
L 42.75 57.2 25.9 57.2
Q 23.3 57.2 21.35 55.6 21 55.3 20.75 55.05 18.65 52.95 18.65 49.95 18.65 46.95 20.75 44.8 21 44.55 21.3 44.3 23.25 42.7 25.9 42.7
L 42.75 42.7 42.75 25.85
Q 42.75 22.85 44.9 20.7
M 50 18.6
Q 47 18.6 44.9 20.7 42.75 22.85 42.75 25.85
L 42.75 42.7 25.9 42.7
Q 23.25 42.7 21.3 44.3 21 44.55 20.75 44.8 18.65 46.95 18.65 49.95 18.65 52.95 20.75 55.05 21 55.3 21.35 55.6 23.3 57.2 25.9 57.2
L 42.75 57.2 42.75 74.1
Q 42.75 77.1 44.9 79.2 47 81.35 50 81.35 53 81.35 55.15 79.2 57.25 77.1 57.25 74.1
L 57.25 57.2 74.15 57.2
Q 77.15 57.2 79.25 55.05 81.4 52.95 81.4 49.95 81.4 46.95 79.25 44.8 77.15 42.7 74.15 42.7
L 57.25 42.7 57.25 25.85
Q 57.25 22.85 55.15 20.7 53 18.6 50 18.6 Z"/>
</g>

<path id="Layer1_0_1_STROKES" stroke="#FFFFFF" stroke-opacity="0.10196078431372549" stroke-width="3" stroke-linejoin="round" stroke-linecap="round" fill="none" d="
M 44.9 20.7
Q 47 18.6 50 18.6 53 18.6 55.15 20.7 57.25 22.85 57.25 25.85
L 57.25 42.7 74.15 42.7
Q 77.15 42.7 79.25 44.8 81.4 46.95 81.4 49.95 81.4 52.95 79.25 55.05 77.15 57.2 74.15 57.2
L 57.25 57.2 57.25 74.1
Q 57.25 77.1 55.15 79.2 53 81.35 50 81.35 47 81.35 44.9 79.2 42.75 77.1 42.75 74.1
L 42.75 57.2 25.9 57.2
Q 23.3 57.2 21.35 55.6 21 55.3 20.75 55.05 18.65 52.95 18.65 49.95 18.65 46.95 20.75 44.8 21 44.55 21.3 44.3 23.25 42.7 25.9 42.7
L 42.75 42.7 42.75 25.85
Q 42.75 22.85 44.9 20.7 Z"/>

</defs>

<g transform="matrix( 1, 0, 0, 1, 0,0) ">
<use xlink:href="#Layer1_0_FILL"/>

<use xlink:href="#Layer1_0_1_STROKES"/>
</g>

<g transform="matrix( 1, 0, 0, 1, -3.4,-28) ">
<clipPath id="Mask_Mask_1">
<rect x="-5" y="-2" width="116.8" height="20.8" fill="#FFFFFF" stroke="none"/>
</clipPath>

<text clip-path="url(#Mask_Mask_1)" writing-mode="lr"><tspan x="-2.9" y="13.6" baseline-shift="0%" kerning="auto" font-family="Arial_Regular" font-size="15" fill="#999999" xml:space="preserve">Steam Controller</tspan></text>
</g>
</svg>
