
<svg xmlns="http://www.w3.org/2000/svg" version="1.1" xmlns:xlink="http://www.w3.org/1999/xlink" x="0px" y="0px" viewBox="0 0 100 100">
<defs>
<linearGradient id="Gradient_1" gradientUnits="userSpaceOnUse" x1="50" y1="10.412499999999994" x2="50" y2="89.5875" spreadMethod="pad">
<stop  offset="0%" stop-color="#373737"/>

<stop  offset="100%" stop-color="#575757"/>
</linearGradient>

<linearGradient id="Gradient_2" gradientUnits="userSpaceOnUse" x1="64.15" y1="59.1375" x2="26.05" y2="52.5625" spreadMethod="pad">
<stop  offset="0%" stop-color="#FFFFFF" stop-opacity="0"/>

<stop  offset="100%" stop-color="#FFFFFF"/>
</linearGradient>

<g id="Layer1_0_FILL">
<path fill="#2A2A2A" stroke="none" d="
M 83.8 83.8
Q 97.7 69.8 97.7 50 97.7 30.2 83.8 16.3 69.8 2.3 50 2.3 30.2 2.3 16.3 16.3 2.3 30.2 2.3 50 2.3 69.8 16.3 83.8 30.2 97.7 50 97.7 69.8 97.7 83.8 83.8
M 50 7.65
Q 67.55 7.65 80 20.05 92.35 32.45 92.35 50 92.35 67.55 80 80 67.55 92.35 50 92.35 32.45 92.35 20.05 80 7.65 67.55 7.65 50 7.65 32.45 20.05 20.05 32.45 7.65 50 7.65 Z"/>

<path fill="#464646" stroke="none" d="
M 80 20.05
Q 67.55 7.65 50 7.65 32.45 7.65 20.05 20.05 7.65 32.45 7.65 50 7.65 67.55 20.05 80 32.45 92.35 50 92.35 67.55 92.35 80 80 92.35 67.55 92.35 50 92.35 32.45 80 20.05
M 89.55 48.8
Q 90.1033203125 48.8 90.6 48.8
L 89.6 50.15 89.6 50.9
Q 89.25 66.7 78 78 66.4 89.6 50 89.6 33.7 89.6 22.1 78 10.75 66.7 10.4 50.9 10.4 50.7 10.4 50.5
L 10.4 50.1
Q 10.4 50.05 10.4 50 10.4 33.65 22.1 22.05 33.7 10.4 50 10.4 66.4 10.4 78 22.05 89.1798828125 33.2298828125 89.55 48.8 Z"/>

<path fill="#FFFFFF" stroke="none" d="
M 89.55 48.8
Q 89.3203125 48.833203125 89.05 48.85 88.3 48.85 87.55 48.9 87.15 48.9 86.7 48.9 83.9 48.9 81 48.95 80.7 48.95 80.3 48.95
L 80.25 48.95
Q 80 48.95 79.7 48.95
L 77.75 48.95 75.7 48.95
Q 75.4 48.95 75.1 48.95
L 69.15 49.05
Q 69 49.05 68.8 49.05
L 64.8 49.05 77.8 66.55 89.6 50.15 90.6 48.8
Q 90.1033203125 48.8 89.55 48.8 Z"/>

<path fill="url(#Gradient_1)" stroke="none" d="
M 89.05 48.85
Q 89.3203125 48.833203125 89.55 48.8 89.1798828125 33.2298828125 78 22.05 66.4 10.4 50 10.4 33.7 10.4 22.1 22.05 10.4 33.65 10.4 50 10.4 50.05 10.4 50.1
L 10.4 50.5
Q 10.4 50.7 10.4 50.9 10.75 66.7 22.1 78 33.7 89.6 50 89.6 66.4 89.6 78 78 89.25 66.7 89.6 50.9
L 89.6 50.15 77.8 66.55 64.8 49.05 68.8 49.05
Q 69 49.05 69.15 49.05
L 75.1 48.95
Q 75.4 48.95 75.7 48.95
L 77.75 48.95
Q 77.45 37.95 69.55 30 61.25 21.75 49.6 21.75 37.9 21.75 29.65 30 21.35 38.3 21.35 50 21.35 52.05 21.6 54.05 22.15 58.05 23.8 61.6 25.85 66.1 29.65 69.9 37.9 78.2 49.6 78.2 51.55 78.2 53.3 77.95 57.9 77.4 61.95 75.45 57.9 77.4 53.3 77.95 51.55 78.2 49.6 78.2 37.9 78.2 29.65 69.9 25.85 66.1 23.8 61.6 22.15 58.05 21.6 54.05 21.35 52.05 21.35 50 21.35 38.3 29.65 30 37.9 21.75 49.6 21.75 61.25 21.75 69.55 30 77.45 37.95 77.75 48.95
L 79.7 48.95
Q 80 48.95 80.25 48.95
L 80.3 48.95
Q 80.7 48.95 81 48.95 83.9 48.9 86.7 48.9 87.15 48.9 87.55 48.9 88.3 48.85 89.05 48.85 Z"/>
</g>

<path id="Layer1_0_1_STROKES" stroke="#FFFFFF" stroke-width="8" stroke-linejoin="round" stroke-linecap="round" fill="none" d="
M 77.75 48.95
Q 77.45 37.95 69.55 30 61.25 21.75 49.6 21.75 37.9 21.75 29.65 30 21.35 38.3 21.35 50 21.35 52.05 21.6 54.05"/>

<path id="Layer1_0_2_STROKES" stroke="url(#Gradient_2)" stroke-width="8" stroke-linejoin="round" stroke-linecap="round" fill="none" d="
M 21.6 54.05
Q 22.15 58.05 23.8 61.6 25.85 66.1 29.65 69.9 37.9 78.2 49.6 78.2 51.55 78.2 53.3 77.95 57.9 77.4 61.95 75.45"/>

</defs>

<g transform="matrix( 1, 0, 0, 1, 0,0) ">
<use xlink:href="#Layer1_0_FILL"/>

<use xlink:href="#Layer1_0_1_STROKES"/>

<use xlink:href="#Layer1_0_2_STROKES"/>
</g>

<g transform="matrix( 1, 0, 0, 1, -3.4,-28) ">
<clipPath id="Mask_Mask_1">
<rect x="-1.55" y="-2" width="109.9" height="20.8" fill="#FFFFFF" stroke="none"/>
</clipPath>

<text clip-path="url(#Mask_Mask_1)" writing-mode="lr"><tspan x="0.55" y="13.6" baseline-shift="0%" kerning="auto" font-family="Arial_Regular" font-size="15" fill="#999999" xml:space="preserve">Vive Controllers</tspan></text>
</g>
</svg>
