
<svg xmlns="http://www.w3.org/2000/svg" version="1.1" xmlns:xlink="http://www.w3.org/1999/xlink" x="0px" y="0px" viewBox="0 0 100 100">
<defs>
<linearGradient id="Gradient_1" gradientUnits="userSpaceOnUse" x1="50" y1="10.412499999999994" x2="50" y2="89.5875" spreadMethod="pad">
<stop  offset="0%" stop-color="#373737"/>

<stop  offset="100%" stop-color="#575757"/>
</linearGradient>

<g id="Layer1_0_FILL">
<path fill="#2A2A2A" stroke="none" d="
M 83.8 83.8
Q 97.7 69.8 97.7 50 97.7 30.2 83.8 16.3 79.0794921875 11.5794921875 73.7 8.45 63.1240234375 2.3 50 2.3 36.8515625 2.3 26.3 8.45 20.96953125 11.596875 16.3 16.3 2.3 30.2 2.3 50 2.3 69.8 16.3 83.8 30.2 97.7 50 97.7 69.8 97.7 83.8 83.8
M 75.9 16.4
Q 78.025390625 18.0833984375 80 20.05 92.35 32.45 92.35 50 92.35 67.55 80 80 67.55 92.35 50 92.35 32.45 92.35 20.05 80 7.65 67.55 7.65 50 7.65 32.45 20.05 20.05 22.0208984375 18.0791015625 24.1 16.4 35.2396484375 7.65 50 7.65 64.7666015625 7.65 75.9 16.4 Z"/>

<path fill="#F5F5F5" stroke="none" d="
M 45.1 45.15
Q 45.68984375 45.2689453125 46.25 45.35 47.1853515625 45.4830078125 48.1 45.55 49.04296875 45.6 50 45.6 50.873046875 45.6 51.7 45.55 57.3626953125 45.2193359375 62.05 42.7 65.47890625 40.890234375 68.4 37.95 71.1 35.25 72.85 32.3 73.85 30.5 74.55 28.65 74.55 28.5 74.65 28.4 75.9927734375 24.556640625 76.1 20.25 65.0794921875 10.4 50 10.4 34.9458984375 10.4 23.9 20.3 24.0162109375 24.444140625 25.25 28.1 25.9 30 26.9 31.75 28.65 35.05 31.55 37.95 34.49609375 40.89609375 37.9 42.7 41.276953125 44.4818359375 45.1 45.15 Z"/>

<path fill="#FFFFFF" stroke="none" d="
M 76.1 19.55
Q 76.1 17.96015625 75.9 16.4 64.7666015625 7.65 50 7.65 35.2396484375 7.65 24.1 16.4 23.9 17.93984375 23.9 19.55 23.9 19.94140625 23.9 20.3 34.9458984375 10.4 50 10.4 65.0794921875 10.4 76.1 20.25 76.1 19.897265625 76.1 19.55 Z"/>

<path fill="url(#Gradient_1)" stroke="none" d="
M 89.6 50.9
L 89.6 50.1
Q 89.6 50.05 89.6 50 89.6 33.65 78 22.05 77.066015625 21.1119140625 76.1 20.25 75.9927734375 24.556640625 74.65 28.4 74.55 28.5 74.55 28.65 73.85 30.5 72.85 32.3 71.1 35.25 68.4 37.95 65.47890625 40.890234375 62.05 42.7 57.3626953125 45.2193359375 51.7 45.55 50.873046875 45.6 50 45.6 49.04296875 45.6 48.1 45.55 47.1853515625 45.4830078125 46.25 45.35 45.68984375 45.2689453125 45.1 45.15 41.276953125 44.4818359375 37.9 42.7 34.49609375 40.89609375 31.55 37.95 28.65 35.05 26.9 31.75 25.9 30 25.25 28.1 24.0162109375 24.444140625 23.9 20.3 22.9865234375 21.1595703125 22.1 22.05 10.4 33.65 10.4 50 10.4 50.05 10.4 50.1
L 10.4 50.5
Q 10.4 50.7 10.4 50.9 10.75 66.7 22.1 78 33.7 89.6 50 89.6 66.4 89.6 78 78 89.25 66.7 89.6 50.9 Z"/>

<path fill="#464646" stroke="none" d="
M 89.6 50.1
L 89.6 50.9
Q 89.25 66.7 78 78 66.4 89.6 50 89.6 33.7 89.6 22.1 78 10.75 66.7 10.4 50.9 10.4 50.7 10.4 50.5
L 10.4 50.1
Q 10.4 50.05 10.4 50 10.4 33.65 22.1 22.05 22.9865234375 21.1595703125 23.9 20.3 23.9 19.94140625 23.9 19.55 23.9 17.93984375 24.1 16.4 22.0208984375 18.0791015625 20.05 20.05 7.65 32.45 7.65 50 7.65 67.55 20.05 80 32.45 92.35 50 92.35 67.55 92.35 80 80 92.35 67.55 92.35 50 92.35 32.45 80 20.05 78.025390625 18.0833984375 75.9 16.4 76.1 17.96015625 76.1 19.55 76.1 19.897265625 76.1 20.25 77.066015625 21.1119140625 78 22.05 89.6 33.65 89.6 50 89.6 50.05 89.6 50.1 Z"/>
</g>

</defs>

<g transform="matrix( 1, 0, 0, 1, 0,0) ">
<use xlink:href="#Layer1_0_FILL"/>
</g>

<g transform="matrix( 1, 0, 0, 1, -3.4,-28) ">
<clipPath id="Mask_Mask_1">
<rect x="-1.55" y="-2" width="109.9" height="20.8" fill="#FFFFFF" stroke="none"/>
</clipPath>

<text clip-path="url(#Mask_Mask_1)" writing-mode="lr"><tspan x="0.55" y="13.6" baseline-shift="0%" kerning="auto" font-family="Arial_Regular" font-size="15" fill="#999999" xml:space="preserve">Vive Controllers</tspan></text>
</g>
</svg>
