
<svg xmlns="http://www.w3.org/2000/svg" version="1.1" xmlns:xlink="http://www.w3.org/1999/xlink" x="0px" y="0px" viewBox="0 0 100 100">
<defs>
<g id="Layer1_0_FILL">
<path fill="#FFFFFF" stroke="none" d="
M 69.25 84
Q 75.5 88.85 80.55 82.8 86.55 77.8 81.65 71.6
L 72 59.25 54.8 72.65 69.25 84
M 43.45 22.9
Q 43.45 19.9 44.2 17.25
L 44.2 17.2
Q 44.65 15.5 45.45 13.9 40.6 12.9 36.95 11.2
L 36.9 11.15
Q 35.05 10.3 30.6 12.75 25.5 15.55 19.95 21.1 19.65 21.4 19.4 21.65 19.15 21.9 18.85 22.2 13.25 27.8 10.45 32.9 8 37.35 8.9 39.15 11 43.75 12.1 50.1 15.75 52.8 20.65 52.8 22.8 50.25 26.4 51.4
L 43.5 29.65
Q 43.55 29.6 43.6 29.55 43.75 29.35 43.9 29.15 44.35 28.45 44.7 27.85
L 44.7 27.8
Q 44.9890625 27.221875 45.55 27.45
L 45.55 27.45
Q 44.6 26.6 44.05 25.45 43.45 24.25 43.45 22.9
M 30.75 19.4
Q 33.75 17.8 35.05 18.4 35.25 18.5 35.4 18.65 36.5 19.7 34.6 23.1 32.75 26.6 28.9 30.45 28.7 30.65 28.55 30.8 28.35 31 28.2 31.2 24.35 35 20.8 36.85 17.4 38.75 16.35 37.7 16.15 37.5 16.1 37.35 15.45 36.1 17.15 33 19.1 29.65 22.9 25.9 23.05 25.7 23.25 25.5 23.4 25.35 23.6 25.15 27.4 21.35 30.75 19.4
M 89.5 32.85
Q 86.7 27.75 81.15 22.2 80.85 21.9 80.6 21.65 80.35 21.4 80.05 21.1 74.45 15.5 69.35 12.7 64.9 10.25 63.1 11.15 58.5 13.25 52.15 14.35 49.45 18 49.45 22.9 53.25 26.05 48.85 32.5 48.6 32.85 48.3 33.25
L 18.25 71.5
Q 13.4 77.75 19.45 82.8 24.45 88.8 30.65 83.9
L 69 53.95
Q 69.35 53.65 69.8 53.45 76.15 48.9 79.35 52.8 84.2 52.75 87.9 50.05 88.95 43.7 91.05 39.2
L 91.1 39.15
Q 91.95 37.3 89.5 32.85
M 83.85 37.3
Q 83.75 37.5 83.6 37.65 82.55 38.75 79.15 36.85 75.65 35 71.8 31.15 71.6 30.95 71.45 30.8 71.25 30.6 71.05 30.45 67.25 26.6 65.4 23.05 63.5 19.65 64.55 18.6 64.75 18.4 64.9 18.35 66.15 17.7 69.25 19.4 72.6 21.35 76.35 25.15 76.55 25.3 76.75 25.5 76.9 25.65 77.1 25.85 80.9 29.65 82.85 33 84.45 36 83.85 37.3
M 46.25 46.3
Q 46.3 42.35 49.15 39.5 52 36.65 55.95 36.6 59.9 36.65 62.75 39.5 65.55 42.3 65.6 46.25 65.6 50.25 62.75 53.1 59.9 55.95 55.9 55.95 51.9 55.9 49.1 53.1 46.25 50.25 46.25 46.3 Z"/>
</g>

</defs>

<g transform="matrix( 1, 0, 0, 1, 0,0) ">
<use xlink:href="#Layer1_0_FILL"/>
</g>

<g transform="matrix( 1, 0, 0, 1, -3.4,-28) ">
<clipPath id="Mask_Mask_1">
<rect x="-1.55" y="-2" width="109.9" height="20.8" fill="#FFFFFF" stroke="none"/>
</clipPath>

<text clip-path="url(#Mask_Mask_1)" writing-mode="lr"><tspan x="0.55" y="13.6" baseline-shift="0%" kerning="auto" font-family="Arial_Regular" font-size="15" fill="#999999" xml:space="preserve">Vive Controllers</tspan></text>
</g>
</svg>
