
<svg xmlns="http://www.w3.org/2000/svg" version="1.1" xmlns:xlink="http://www.w3.org/1999/xlink" x="0px" y="0px" viewBox="0 0 100 100">
<defs>
<linearGradient id="Gradient_1" gradientUnits="userSpaceOnUse" x1="146.75" y1="55.6875" x2="146.75" y2="2.8125" spreadMethod="pad">
<stop  offset="0%" stop-color="#616161"/>

<stop  offset="95.29411764705883%" stop-color="#353535"/>
</linearGradient>

<g id="Layer1_0_FILL">
<path fill="#353535" stroke="none" d="
M 87.8 72.4
Q 87.6392578125 69.636328125 85.3 66.25 80.95 60.05 77.2 46.25 73.45 32.4 73.85 15.95 52.9 10.85 30.4 14.15 30.145703125 14.2400390625 29.9 14.3 19.09375 18.259765625 12.4 25.1 13.75 43.65 19.1 58.7 24.4 73.8 38.85 82.1 44.1 85.2 54.1 85.05 73.8 86 84.85 78.4 88.01015625 75.87734375 87.8 72.4
M 46.7 36.05
Q 48.05 36.05 49.25 36.3 50.55 36.45 51.6 37.1 52.65 37.65 53.35 38.55 54.1 39.55 54.5 41 54.9 42.7 54.2 43.9 53.55 45.15 51.75 45.45
L 57.9 52.3 53.25 52.3 48.05 45.8 46.15 45.8 47.7 52.3 43.8 52.3 39.9 36.05 46.7 36.05
M 59.7 39.2
L 54.7 39.2 53.9 36.05 67.75 36.05 68.55 39.2 63.55 39.2 66.65 52.3 62.8 52.3 59.7 39.2
M 27.15 23.35
Q 27.21953125 22.3140625 28 21.6 28.77421875 20.93671875 29.8 21 30.8341796875 21.06875 31.5 21.85 32.2123046875 22.6259765625 32.15 23.65 31.1126953125 40.47265625 33.55 58.75 33.71953125 59.77734375 33.95 60.8 34.0033203125 61.073828125 34 61.3 36.2380859375 68.0892578125 42.15 73 44.799609375 75.2279296875 49 76.15 49.1716796875 76.1931640625 49.3 76.2 50.4814453125 76.4701171875 51.75 76.6 53.426953125 76.81796875 55.3 76.85 55.0337890625 76.93515625 54.75 77 46.4740234375 79.471484375 39.4 75.45
L 39.45 75.45
Q 32.119140625 71.3234375 29.3 62.55 29.135546875 62.2583984375 29.05 61.85 28.7830078125 60.6353515625 28.6 59.45
L 28.6 59.4
Q 26.087109375 40.6271484375 27.15 23.35
M 47.65 42.8
Q 48.15 42.8 48.75 42.75 49.35 42.7 49.75 42.5 50.2 42.35 50.4 41.95 50.65 41.65 50.5 40.95 50.3 40.35 49.95 39.95 49.65 39.65 49.15 39.4 48.65 39.15 48.1 39.1 47.5 39.05 47.05 39.05
L 44.5 39.05 45.4 42.8 47.65 42.8 Z"/>

<path fill="url(#Gradient_1)" stroke="none" d="
M 28 21.6
Q 27.21953125 22.3140625 27.15 23.35 26.087109375 40.6271484375 28.6 59.4
L 28.6 59.45
Q 28.7830078125 60.6353515625 29.05 61.85 29.135546875 62.2583984375 29.3 62.55 32.119140625 71.3234375 39.45 75.45
L 39.4 75.45
Q 46.4740234375 79.471484375 54.75 77 55.0337890625 76.93515625 55.3 76.85 53.426953125 76.81796875 51.75 76.6 50.4814453125 76.4701171875 49.3 76.2 49.1716796875 76.1931640625 49 76.15 44.799609375 75.2279296875 42.15 73 36.2380859375 68.0892578125 34 61.3 34.0033203125 61.073828125 33.95 60.8 33.71953125 59.77734375 33.55 58.75 31.1126953125 40.47265625 32.15 23.65 32.2123046875 22.6259765625 31.5 21.85 30.8341796875 21.06875 29.8 21 28.77421875 20.93671875 28 21.6 Z"/>

<path fill="#999999" stroke="none" d="
M 54.7 39.2
L 59.7 39.2 62.8 52.3 66.65 52.3 63.55 39.2 68.55 39.2 67.75 36.05 53.9 36.05 54.7 39.2
M 49.25 36.3
Q 48.05 36.05 46.7 36.05
L 39.9 36.05 43.8 52.3 47.7 52.3 46.15 45.8 48.05 45.8 53.25 52.3 57.9 52.3 51.75 45.45
Q 53.55 45.15 54.2 43.9 54.9 42.7 54.5 41 54.1 39.55 53.35 38.55 52.65 37.65 51.6 37.1 50.55 36.45 49.25 36.3
M 48.75 42.75
Q 48.15 42.8 47.65 42.8
L 45.4 42.8 44.5 39.05 47.05 39.05
Q 47.5 39.05 48.1 39.1 48.65 39.15 49.15 39.4 49.65 39.65 49.95 39.95 50.3 40.35 50.5 40.95 50.65 41.65 50.4 41.95 50.2 42.35 49.75 42.5 49.35 42.7 48.75 42.75 Z"/>
</g>

<path id="Layer1_0_1_STROKES" stroke="#2A2A2A" stroke-width="5" stroke-linejoin="round" stroke-linecap="round" fill="none" d="
M 87.8 72.425
Q 88.01015625 75.87734375 84.85 78.4 73.8 86 54.1 85.05 44.1 85.2 38.85 82.1 24.4 73.8 19.1 58.7 13.75 43.65 12.4 25.1 19.09375 18.259765625 29.9 14.325 30.145703125 14.2400390625 30.4 14.15 52.9 10.85 73.85 15.95 73.45 32.4 77.2 46.25 80.95 60.05 85.3 66.25 87.6392578125 69.636328125 87.8 72.425 Z"/>

</defs>

<g transform="matrix( 1, 0, 0, 1, 0,0) ">
<use xlink:href="#Layer1_0_FILL"/>

<use xlink:href="#Layer1_0_1_STROKES"/>
</g>

<g transform="matrix( 1, 0, 0, 1, -3.4,-28) ">
<clipPath id="Mask_Mask_1">
<rect x="-1.55" y="-2" width="109.9" height="20.8" fill="#FFFFFF" stroke="none"/>
</clipPath>

<text clip-path="url(#Mask_Mask_1)" writing-mode="lr"><tspan x="0.55" y="13.6" baseline-shift="0%" kerning="auto" font-family="Arial_Regular" font-size="15" fill="#999999" xml:space="preserve">Vive Controllers</tspan></text>
</g>
</svg>
