
<svg xmlns="http://www.w3.org/2000/svg" version="1.1" xmlns:xlink="http://www.w3.org/1999/xlink" x="0px" y="0px" viewBox="0 0 100 100">
<defs>
<g id="Layer1_0_FILL">
<path fill="#FFFFFF" stroke="none" d="
M 61.8 10.9
Q 61.45 10.7 61.1 10.6 60.7 10.45 60.3 10.35 52.65 7.85 46.6 7.6 41.45 7.35 40.1 9.1
L 40.1 9.15
Q 36.9 13.15 31.5 17.05 30.8 21.65 33 26.2 38.05 27.35 36.8 35.3 36.85 35.75 36.75 36.3
L 35.75 41.5
Q 36.95 46.65 34.2 52.15 37.7 52.45 42.4 51.35 41.55 50.4 41 49.3 39.1 45.5 40.4 41.65 41.65 37.7 45.4 35.9 49.1 33.95 53 35.3 56.9 36.6 58.7 40.25 60.05 42.95 59.75 45.85 63.3 44.75 66.4 43.9 70.1 37.95 74.4 39.85 78.9 37.55 81.05 33.35 79.1 27.05 78.9 21.85
L 78.85 21.85
Q 78.85 19.75 74.6 16.8 69.55 13.4 61.8 10.9
M 71.4 23.5
Q 71.45 23.7 71.4 23.95 70.9 25.5 66.85 25.25 62.75 25.15 57.5 23.45 57.2 23.35 56.95 23.3 56.7 23.15 56.45 23.1 51.1 21.35 47.8 19 44.45 16.75 45 15.2 45.05 15 45.15 14.8 46.1 13.7 49.6 13.75 53.6 13.95 58.85 15.7 59.15 15.8 59.4 15.95 59.65 16 59.9 16.1 65.1 17.8 68.45 20.05 71.4 22.05 71.4 23.5
M 81.05 78.45
Q 82.75 78.25 83.8 76.9 84.85 75.5 84.55 73.85 84.25 72.15 82.85 71.15 81.45 70.05 79.7 70.2 67.95 71.5 56.1 70.7 69.55 68.5 82.8 66.25 84.55 66.05 85.5 64.6 86.45 63.2 86.05 61.5 85.75 59.85 84.25 58.9 82.75 57.9 81 58.2 68.55 60.25 56.65 61.2 66.7 56.45 77.4 54.05 79.1 53.7 79.95 52.3 80.85 50.9 80.35 49.25 79.9 47.6 78.4 46.65 76.85 45.7 68.8 47.85 60.8 49.95 49.15 54 37.6 58.05 30.9 56.15 27.6 55.15 30 50.45 32.5 45.85 31.05 41.55 29.6 37.3 27.15 34.4 24.75 31.45 22.2 31.9 20.2 32.55 19.8 34.85 21.35 39.65 20.3 43.75 19.1 49.95 16.5 56.2 15.5 58.55 14.9 61.1
L 19.15 83.9
Q 20.05 90.6 25.4 91.15
L 42.1 90.7
Q 52.45 90.85 54.95 90.65 66.3 90.6 77.6 90.6 79.3 90.55 80.45 89.4 81.65 88.1 81.55 86.45 81.45 84.75 80.15 83.55 78.8 82.4 77.1 82.35 66.65 82.4 56.2 81.05 68.65 79.7 81.05 78.45 Z"/>
</g>

</defs>

<g transform="matrix( 1, 0, 0, 1, 0,0) ">
<use xlink:href="#Layer1_0_FILL"/>
</g>

<g transform="matrix( 1, 0, 0, 1, -3.4,-28) ">
<clipPath id="Mask_Mask_1">
<rect x="-1.55" y="-2" width="109.9" height="20.8" fill="#FFFFFF" stroke="none"/>
</clipPath>

<text clip-path="url(#Mask_Mask_1)" writing-mode="lr"><tspan x="0.55" y="13.6" baseline-shift="0%" kerning="auto" font-family="Arial_Regular" font-size="15" fill="#999999" xml:space="preserve">Vive Controllers</tspan></text>
</g>
</svg>
