
<svg xmlns="http://www.w3.org/2000/svg" version="1.1" xmlns:xlink="http://www.w3.org/1999/xlink" x="0px" y="0px" viewBox="0 0 100 100">
<defs>
<g id="Layer1_0_FILL">
<path fill="#FFFFFF" stroke="none" d="
M 87.15 25.05
Q 86.2 23.25 84.45 22.7 82.6 22.15 80.8 23.1 79.1 24.1 78.4 25.9 74.4 37 68.95 47.65 72.3 33.85 75.75 20.2 76.15 18.3 75.15 16.7 74.05 15 72.2 14.75 70.25 14.4 68.65 15.5 66.95 16.5 66.4 18.5 63.3 31.5 57.9 43.75 60.75 28.65 63.4 13.65 63.9 11.75 62.7 10.15 61.55 8.6 59.6 8.4 57.75 8.05 56.15 9.3 54.55 10.5 54.15 12.5 51.6 26.5 48.05 39.55 46.85 27 48.4 14.75 48.65 12.75 47.45 11.3 46.35 9.85 44.4 9.75 42.45 9.55 40.85 10.8 39.3 12.1 38.5 21.5 37.6 30.8 37.5 44.75 37.45 47.2 37.3 49.45 36.3 56.8 32.35 53.9 31.5 50.35 28.8 47.35 25.6 43.7 21.95 41.95 18.3 40.15 15.95 41.95 14.25 43.6 15.05 46.1 19 50.15 20.05 54.9 22 61.75 22.55 69.3 22.7 71.45 23.1 73.6 23.15 73.75 23.15 73.85
L 23.25 73.8
Q 23.9 81.75 31.9 83.9
L 57.8 88.15
Q 65.25 89.75 67.9 84.25
L 73.8 66.35
Q 77.9 55.35 78.7 52.6 83 40.55 87.3 28.5 87.9 26.7 87.15 25.05 Z"/>
</g>

</defs>

<g transform="matrix( 1, 0, 0, 1, 0,0) ">
<use xlink:href="#Layer1_0_FILL"/>
</g>

<g transform="matrix( 1, 0, 0, 1, -3.4,-28) ">
<clipPath id="Mask_Mask_1">
<rect x="-1.55" y="-2" width="109.9" height="20.8" fill="#FFFFFF" stroke="none"/>
</clipPath>

<text clip-path="url(#Mask_Mask_1)" writing-mode="lr"><tspan x="0.55" y="13.6" baseline-shift="0%" kerning="auto" font-family="Arial_Regular" font-size="15" fill="#999999" xml:space="preserve">Vive Controllers</tspan></text>
</g>
</svg>
