
<svg xmlns="http://www.w3.org/2000/svg" version="1.1" xmlns:xlink="http://www.w3.org/1999/xlink" x="0px" y="0px" viewBox="0 0 100 100">
<defs>
<linearGradient id="Gradient_1" gradientUnits="userSpaceOnUse" x1="46.4375" y1="52.537499999999994" x2="68.1625" y2="15.2625" spreadMethod="pad">
<stop  offset="10.196078431372548%" stop-color="#313131"/>

<stop  offset="100%" stop-color="#4F4F4F"/>
</linearGradient>

<g id="Layer1_0_FILL">
<path fill="#313131" stroke="none" d="
M 82.85 23.6
Q 82.8 23.45 82.65 23.35 79.75 14.8 70.75 11.05 61.6 7.2 51.65 10.55 41.8 13.85 36.75 22.15
L 36.65 22.2
Q 31.2 31.45 25.75 40.65 25.1 41.85 24.45 42.95 23.3 44.75 17.45 54.85 16.2 56.85 15.4 58.4 10.5 66.95 13.3 75.6 16.15 84.3 25.3 88.15 34.4 91.95 44.5 88.65 54.35 85.3 59.45 76.85 60.3 75.3 61.55 73.35 67.4 63.25 68.55 61.4 69.15 60.35 69.85 59.15 75.3 49.9 80.75 40.65
L 80.85 40.65
Q 85.6 32.15 82.85 23.6
M 80.75 24.25
L 80.85 24.35
Q 83.55 31.95 79.3 39.3
L 79.3 39.35
Q 78.9 40.05 78.4 40.85
L 67.8 58.9
Q 67.35 59.6 66.95 60.3 66 61.85 65.15 63.4
L 62.35 62.2
Q 61.85 62.9 61.35 63.85
L 36.85 34.1 34.65 37.6 59.2 67.4
Q 58.25 69.15 56.95 71.25
L 32.4 41.45 31.25 43.6
Q 31.1 43.7 31.05 43.9 30.7 44.45 30.35 45
L 30.3 45.05 54.85 74.85
Q 54.75 74.95 54.7 75.05
L 54.7 75.1
Q 53.6 76.85 52.25 78.35
L 27.3 47.95
Q 27.45 47.6 27.6 47.35 27.5 47.35 27.4 47.3 27.25 47.25 26.95 47.15
L 26.9 47.15
Q 26.85 47.2 26.75 47.2 26.65 47.2 26.6 47.25
L 24.7 46.45
Q 25.55 44.95 26.5 43.4 26.95 42.65 27.35 42
L 38 23.9
Q 38.4 23.15 38.8 22.5
L 38.85 22.4
Q 38.85 22.35 38.95 22.3
L 38.95 22.25
Q 43.45 15.1 52.2 12.3 52.4 12.2 52.7 12.15 59.45 10.15 65.7 11.65 67.65 12.1 69.6 12.9 71.55 13.75 73.25 14.85 78.55 18.15 80.75 23.95 80.75 24.05 80.8 24.1
L 80.75 24.25
M 22.9 55.4
Q 24.15 53.2 25.15 51.5
L 49.45 81
Q 47.8 82.3 45.8 83.25
L 22.9 55.4
M 18.25 74.15
Q 17.2 70.9 17.5 67.7
L 31.95 85.3
Q 29.85 84.95 27.75 84.05 25.35 83.05 23.5 81.55
L 19.05 76.25
Q 18.55 75.25 18.2 74.1
L 18.25 74.15
M 18.7 63
Q 19.15 61.7 19.85 60.45 20.3 59.7 20.8 58.9
L 42 84.75
Q 39.6 85.45 37.25 85.55
L 18.7 63
M 63.05 58.7
Q 63.5 57.95 63.95 57.3
L 64.9 55.5 41.2 26.6 39.1 30.15 62.85 59.05
Q 62.95 58.95 63.05 58.7
M 75.95 36.65
Q 77.05 34.45 77.35 32.25
L 63.3 15.2
Q 60.8 14.8 58.1 15.05
L 75.95 36.65
M 53.5 15.95
Q 53.4 16.05 53.15 16.05 51.3 16.65 49.7 17.55
L 71.65 44.2 72.9 42.05
Q 73.3 41.35 73.7 40.6
L 53.5 15.95
M 46.25 19.9
Q 44.7 21.2 43.55 22.85
L 67.25 51.65 69.35 48.05 46.25 19.9
M 75.55 23.45
Q 74.2 20.95 72 19.05
L 75.55 23.45 Z"/>

<path fill="#4F4F4F" stroke="none" d="
M 19.85 60.45
Q 19.15 61.7 18.7 63
L 37.25 85.55
Q 39.6 85.45 42 84.75
L 20.8 58.9
Q 20.3 59.7 19.85 60.45
M 17.5 67.7
Q 17.2 70.9 18.25 74.15
L 18.2 74.1
Q 18.55 75.25 19.05 76.25
L 23.5 81.55
Q 25.35 83.05 27.75 84.05 29.85 84.95 31.95 85.3
L 17.5 67.7
M 25.15 51.5
Q 24.15 53.2 22.9 55.4
L 45.8 83.25
Q 47.8 82.3 49.45 81
L 25.15 51.5
M 31.65 40.5
L 32.4 41.45 56.95 71.25
Q 58.25 69.15 59.2 67.4
L 34.65 37.6 33.9 36.6
Q 32.8 38.55 31.65 40.5
M 30.3 45.05
L 29.55 44.1
Q 29.2 44.6 28.9 45.1 28.5 45.75 27.6 47.35 27.45 47.6 27.3 47.95
L 52.25 78.35
Q 53.6 76.85 54.7 75.1
L 54.7 75.05
Q 54.75 74.95 54.85 74.85
L 30.3 45.05
M 36 33.05
L 36.85 34.1 61.35 63.85
Q 61.85 62.9 62.35 62.2 63.2 60.65 63.65 60
L 62.85 59.05 39.1 30.15 38.25 29.15
Q 37.15 31.1 36 33.05
M 58.1 15.05
L 57.4 14.15
Q 55.25 14.45 52.9 15.2
L 52.85 15.25 53.5 15.95 73.7 40.6 74.5 41.5
Q 75.3 40.25 76 39
L 76.05 38.9
Q 76.45 38.2 76.7 37.55
L 75.95 36.65 58.1 15.05
M 45.6 19.2
L 46.25 19.9 69.35 48.05 70.1 48.95
Q 71.25 47 72.4 45.1
L 71.65 44.2 49.7 17.55 49.15 16.85
Q 47.2 17.85 45.6 19.2
M 43.55 22.85
L 42.85 21.95
Q 42 23 41.2 24.3 40.8 24.95 40.4 25.65
L 41.2 26.6 64.9 55.5 65.75 56.4
Q 66.85 54.45 68 52.55
L 67.25 51.65 43.55 22.85
M 62.45 14.05
L 63.3 15.2 77.35 32.25 78.1 33.2
Q 78.85 29.7 77.85 26.1
L 75.55 23.45 72 19.05 69.8 16.45
Q 68.95 16 68.05 15.6 65.3 14.45 62.45 14.05 Z"/>

<path fill="url(#Gradient_1)" stroke="none" d="
M 63.3 15.2
L 62.45 14.05
Q 65.3 14.45 68.05 15.6 68.95 16 69.8 16.45
L 72 19.05
Q 74.2 20.95 75.55 23.45
L 77.85 26.1
Q 78.85 29.7 78.1 33.2
L 77.35 32.25
Q 77.05 34.45 75.95 36.65
L 76.7 37.55
Q 76.45 38.2 76.05 38.9
L 76 39
Q 75.3 40.25 74.5 41.5
L 73.7 40.6
Q 73.3 41.35 72.9 42.05
L 71.65 44.2 72.4 45.1
Q 71.25 47 70.1 48.95
L 69.35 48.05 67.25 51.65 68 52.55
Q 66.85 54.45 65.75 56.4
L 64.9 55.5 63.95 57.3
Q 63.5 57.95 63.05 58.7 62.95 58.95 62.85 59.05
L 63.65 60
Q 63.2 60.65 62.35 62.2
L 65.15 63.4
Q 66 61.85 66.95 60.3 67.35 59.6 67.8 58.9
L 78.4 40.85
Q 78.9 40.05 79.3 39.35
L 79.3 39.3
Q 83.55 31.95 80.85 24.35
L 80.75 24.25 80.8 24.1
Q 80.75 24.05 80.75 23.95 78.55 18.15 73.25 14.85 71.55 13.75 69.6 12.9 67.65 12.1 65.7 11.65 59.45 10.15 52.7 12.15 52.4 12.2 52.2 12.3 43.45 15.1 38.95 22.25
L 38.95 22.3
Q 38.85 22.35 38.85 22.4
L 38.8 22.5
Q 38.4 23.15 38 23.9
L 27.35 42
Q 26.95 42.65 26.5 43.4 25.55 44.95 24.7 46.45
L 26.6 47.25
Q 26.65 47.2 26.75 47.2 26.85 47.2 26.9 47.15
L 26.95 47.15
Q 27.25 47.25 27.4 47.3 27.5 47.35 27.6 47.35 28.5 45.75 28.9 45.1 29.2 44.6 29.55 44.1
L 30.3 45.05 30.35 45
Q 30.7 44.45 31.05 43.9 31.1 43.7 31.25 43.6
L 32.4 41.45 31.65 40.5
Q 32.8 38.55 33.9 36.6
L 34.65 37.6 36.85 34.1 36 33.05
Q 37.15 31.1 38.25 29.15
L 39.1 30.15 41.2 26.6 40.4 25.65
Q 40.8 24.95 41.2 24.3 42 23 42.85 21.95
L 43.55 22.85
Q 44.7 21.2 46.25 19.9
L 45.6 19.2
Q 47.2 17.85 49.15 16.85
L 49.7 17.55
Q 51.3 16.65 53.15 16.05 53.4 16.05 53.5 15.95
L 52.85 15.25 52.9 15.2
Q 55.25 14.45 57.4 14.15
L 58.1 15.05
Q 60.8 14.8 63.3 15.2 Z"/>
</g>

<path id="Layer1_0_1_STROKES" stroke="#1B1B1B" stroke-width="5" stroke-linejoin="round" stroke-linecap="round" fill="none" d="
M 82.65 23.35
Q 82.8 23.45 82.85 23.6 85.6 32.15 80.85 40.65
L 80.75 40.65
Q 75.3 49.9 69.85 59.15 69.15 60.35 68.55 61.4 67.4 63.25 61.55 73.35 60.3 75.3 59.45 76.85 54.35 85.3 44.5 88.65 34.4 91.95 25.3 88.15 16.15 84.3 13.3 75.6 10.5 66.95 15.4 58.4 16.2 56.85 17.45 54.85 23.3 44.75 24.45 42.95 25.1 41.85 25.75 40.65 31.2 31.45 36.65 22.2
L 36.75 22.15
Q 41.8 13.85 51.65 10.55 61.6 7.2 70.75 11.05 79.75 14.8 82.65 23.35 Z"/>

</defs>

<g transform="matrix( 1, 0, 0, 1, 0,0) ">
<use xlink:href="#Layer1_0_FILL"/>

<use xlink:href="#Layer1_0_1_STROKES"/>
</g>

<g transform="matrix( 1, 0, 0, 1, -3.4,-28) ">
<clipPath id="Mask_Mask_1">
<rect x="-1.55" y="-2" width="109.9" height="20.8" fill="#FFFFFF" stroke="none"/>
</clipPath>

<text clip-path="url(#Mask_Mask_1)" writing-mode="lr"><tspan x="0.55" y="13.6" baseline-shift="0%" kerning="auto" font-family="Arial_Regular" font-size="15" fill="#999999" xml:space="preserve">Vive Controllers</tspan></text>
</g>
</svg>
