
<svg xmlns="http://www.w3.org/2000/svg" version="1.1" xmlns:xlink="http://www.w3.org/1999/xlink" x="0px" y="0px" viewBox="0 0 100 100">
<defs>
<g id="Layer1_0_FILL">
<path fill="#FFFFFF" stroke="none" d="
M 60.9 9.15
L 60.9 9.1
Q 59.55 7.35 54.4 7.6 48.35 7.85 40.7 10.35 40.3 10.45 39.9 10.6 39.55 10.7 39.2 10.9 31.45 13.4 26.4 16.8 22.15 19.75 22.15 21.85
L 22.1 21.85
Q 21.9 27.05 19.95 33.35 22.1 37.55 26.6 39.85 30.9 37.95 34.6 43.9 37.7 44.75 41.25 45.85 40.95 42.95 42.3 40.25 44.1 36.6 48 35.3 51.9 33.95 55.6 35.9 59.35 37.7 60.6 41.65 61.9 45.5 60 49.3 59.45 50.4 58.6 51.35 63.3 52.45 66.8 52.15 64.05 46.65 65.25 41.5
L 64.25 36.3
Q 64.15 35.75 64.2 35.3 62.95 27.35 68 26.2 70.2 21.65 69.5 17.05 64.1 13.15 60.9 9.15
M 41.1 16.1
Q 41.35 16 41.6 15.95 41.85 15.8 42.15 15.7 47.4 13.95 51.4 13.75 54.9 13.7 55.85 14.8 55.95 15 56 15.2 56.55 16.75 53.2 19 49.9 21.35 44.55 23.1 44.3 23.15 44.05 23.3 43.8 23.35 43.5 23.45 38.25 25.15 34.15 25.25 30.1 25.5 29.6 23.95 29.55 23.7 29.6 23.5 29.6 22.05 32.55 20.05 35.9 17.8 41.1 16.1
M 81.85 83.9
L 86.1 61.1
Q 85.5 58.55 84.5 56.2 81.9 49.95 80.7 43.75 79.65 39.65 81.2 34.85 80.8 32.55 78.8 31.9 76.25 31.45 73.85 34.4 71.4 37.3 69.95 41.55 68.5 45.85 71 50.45 73.4 55.15 70.1 56.15 63.4 58.05 51.85 54 40.2 49.95 32.2 47.85 24.15 45.7 22.6 46.65 21.1 47.6 20.65 49.25 20.15 50.9 21.05 52.3 21.9 53.7 23.6 54.05 34.3 56.45 44.35 61.2 32.45 60.25 20 58.2 18.25 57.9 16.75 58.9 15.25 59.85 14.95 61.5 14.55 63.2 15.5 64.6 16.45 66.05 18.2 66.25 31.45 68.5 44.9 70.7 33.05 71.5 21.3 70.2 19.55 70.05 18.15 71.15 16.75 72.15 16.45 73.85 16.15 75.5 17.2 76.9 18.25 78.25 19.95 78.45 32.35 79.7 44.8 81.05 34.35 82.4 23.9 82.35 22.2 82.4 20.85 83.55 19.55 84.75 19.45 86.45 19.35 88.1 20.55 89.4 21.7 90.55 23.4 90.6 34.7 90.6 46.05 90.65 48.55 90.85 58.9 90.7
L 75.6 91.15
Q 80.95 90.6 81.85 83.9 Z"/>
</g>

</defs>

<g transform="matrix( 1, 0, 0, 1, 0,0) ">
<use xlink:href="#Layer1_0_FILL"/>
</g>

<g transform="matrix( 1, 0, 0, 1, -3.4,-28) ">
<clipPath id="Mask_Mask_1">
<rect x="-1.55" y="-2" width="109.9" height="20.8" fill="#FFFFFF" stroke="none"/>
</clipPath>

<text clip-path="url(#Mask_Mask_1)" writing-mode="lr"><tspan x="0.55" y="13.6" baseline-shift="0%" kerning="auto" font-family="Arial_Regular" font-size="15" fill="#999999" xml:space="preserve">Vive Controllers</tspan></text>
</g>
</svg>
