
<svg xmlns="http://www.w3.org/2000/svg" version="1.1" xmlns:xlink="http://www.w3.org/1999/xlink" x="0px" y="0px" viewBox="0 0 100 100">
<defs>
<g id="Layer1_0_FILL">
<path fill="#313131" stroke="none" d="
M 93.9 50.75
L 93.9 50.1
Q 93.9 39.5 86.4 32.05 78.95 24.55 68.3 24.55
L 31.65 24.55
Q 21.05 24.55 13.6 32.05 6.1 39.5 6.1 50.1
L 6.1 50.75 6.15 50.75
Q 6.45 60.8 13.6 67.95 21.05 75.45 31.65 75.45
L 68.3 75.45
Q 76.55 75.45 83 70.85 84.8 69.6 86.4 67.95 93.55 60.8 93.9 50.75
M 86 50.15
L 86 50.9
Q 85.65 57.55 81.3 62.25 76.6 67.35 69.9 67.35
L 30.1 67.35
Q 23.45 67.35 18.75 62.25 14.4 57.55 14.1 50.9
L 14 50.9 14 50.15
Q 14 42.9 18.75 37.8 23.45 32.7 30.1 32.7
L 69.9 32.7
Q 76.6 32.7 81.3 37.8 86 42.9 86 50.15 Z"/>

<path fill="#4F4F4F" stroke="none" d="
M 86 50.9
L 86 50.15
Q 86 42.9 81.3 37.8 76.6 32.7 69.9 32.7
L 30.1 32.7
Q 23.45 32.7 18.75 37.8 14 42.9 14 50.15
L 14 50.9 14.1 50.9
Q 14.4 57.55 18.75 62.25 23.45 67.35 30.1 67.35
L 69.9 67.35
Q 76.6 67.35 81.3 62.25 85.65 57.55 86 50.9
M 40.9 44.65
L 43.5 44.65 43.5 54 48.25 54 48.25 56.4 40.9 56.4 40.9 44.65
M 52.4 47.05
L 52.4 49.25 57.5 49.25 57.5 51.6 52.4 51.6 52.4 54 58.05 54 58.05 56.4 49.8 56.4 49.8 44.65 57.8 44.65 57.8 47.05 52.4 47.05
M 63.15 47.8
Q 62.7 48.35 62.45 49.05 62.2 49.75 62.2 50.5 62.2 51.35 62.45 52.05 62.7 52.7 63.15 53.25 63.6 53.75 64.2 54 64.8 54.3 65.5 54.3 66.3 54.3 66.9 53.95 67.5 53.65 67.9 53.05
L 70.05 54.65
Q 69.35 55.7 68.2 56.2 67.05 56.7 65.85 56.7 64.45 56.7 63.3 56.25 62.15 55.8 61.3 55 60.45 54.25 59.95 53.05 59.5 51.9 59.5 50.5 59.5 49.15 59.95 47.95 60.45 46.8 61.3 46 62.15 45.25 63.3 44.8 64.45 44.35 65.85 44.35 66.3 44.35 66.9 44.45 67.4 44.55 67.9 44.75 68.45 44.95 68.95 45.3 69.4 45.6 69.8 46.1
L 67.8 47.7
Q 67.4 47.25 66.9 47 66.3 46.75 65.6 46.75 64.85 46.75 64.25 47.05 63.6 47.3 63.15 47.8
M 70.4 46.95
L 70.4 44.65 79.65 44.65 79.65 46.95 76.3 46.95 76.3 56.4 73.75 56.4 73.75 46.95 70.4 46.95
M 23.15 44.6
Q 24 44.35 24.85 44.35 25.85 44.35 26.75 44.65 27.7 44.95 28.45 45.6
L 26.65 47.5
Q 26.35 47.1 25.8 46.95 25.25 46.75 24.8 46.75 24.5 46.75 24.2 46.8 23.9 46.9 23.65 47 23.4 47.15 23.2 47.4 23.05 47.65 23.05 47.95 23.05 48.45 23.45 48.75 23.85 49.05 24.45 49.25 25.1 49.45 25.75 49.65 26.45 49.85 27.05 50.2 27.65 50.55 28.05 51.2 28.45 51.8 28.45 52.85 28.45 53.8 28.1 54.55 27.7 55.25 27.1 55.7 26.5 56.2 25.65 56.45 24.85 56.7 23.95 56.7 22.8 56.7 21.85 56.35 20.85 56 20 55.2
L 21.85 53.2
Q 22.25 53.7 22.85 54 23.45 54.3 24.1 54.3 24.4 54.3 24.75 54.25 25.05 54.15 25.3 54 25.55 53.85 25.75 53.65 25.85 53.35 25.85 53.05 25.85 52.55 25.45 52.25 25.1 51.9 24.45 51.7 23.85 51.5 23.1 51.3 22.45 51.1 21.8 50.7 21.2 50.3 20.75 49.75 20.4 49.15 20.4 48.15 20.4 47.2 20.75 46.5 21.1 45.8 21.75 45.3 22.35 44.85 23.15 44.6
M 38.45 44.65
L 38.45 47.05 33.05 47.05 33.05 49.25 38.15 49.25 38.15 51.6 33.05 51.6 33.05 54 38.7 54 38.7 56.4 30.45 56.4 30.45 44.65 38.45 44.65 Z"/>

<path fill="#999999" stroke="none" d="
M 38.45 47.05
L 38.45 44.65 30.45 44.65 30.45 56.4 38.7 56.4 38.7 54 33.05 54 33.05 51.6 38.15 51.6 38.15 49.25 33.05 49.25 33.05 47.05 38.45 47.05
M 24.85 44.35
Q 24 44.35 23.15 44.6 22.35 44.85 21.75 45.3 21.1 45.8 20.75 46.5 20.4 47.2 20.4 48.15 20.4 49.15 20.75 49.75 21.2 50.3 21.8 50.7 22.45 51.1 23.1 51.3 23.85 51.5 24.45 51.7 25.1 51.9 25.45 52.25 25.85 52.55 25.85 53.05 25.85 53.35 25.75 53.65 25.55 53.85 25.3 54 25.05 54.15 24.75 54.25 24.4 54.3 24.1 54.3 23.45 54.3 22.85 54 22.25 53.7 21.85 53.2
L 20 55.2
Q 20.85 56 21.85 56.35 22.8 56.7 23.95 56.7 24.85 56.7 25.65 56.45 26.5 56.2 27.1 55.7 27.7 55.25 28.1 54.55 28.45 53.8 28.45 52.85 28.45 51.8 28.05 51.2 27.65 50.55 27.05 50.2 26.45 49.85 25.75 49.65 25.1 49.45 24.45 49.25 23.85 49.05 23.45 48.75 23.05 48.45 23.05 47.95 23.05 47.65 23.2 47.4 23.4 47.15 23.65 47 23.9 46.9 24.2 46.8 24.5 46.75 24.8 46.75 25.25 46.75 25.8 46.95 26.35 47.1 26.65 47.5
L 28.45 45.6
Q 27.7 44.95 26.75 44.65 25.85 44.35 24.85 44.35
M 70.4 44.65
L 70.4 46.95 73.75 46.95 73.75 56.4 76.3 56.4 76.3 46.95 79.65 46.95 79.65 44.65 70.4 44.65
M 62.45 49.05
Q 62.7 48.35 63.15 47.8 63.6 47.3 64.25 47.05 64.85 46.75 65.6 46.75 66.3 46.75 66.9 47 67.4 47.25 67.8 47.7
L 69.8 46.1
Q 69.4 45.6 68.95 45.3 68.45 44.95 67.9 44.75 67.4 44.55 66.9 44.45 66.3 44.35 65.85 44.35 64.45 44.35 63.3 44.8 62.15 45.25 61.3 46 60.45 46.8 59.95 47.95 59.5 49.15 59.5 50.5 59.5 51.9 59.95 53.05 60.45 54.25 61.3 55 62.15 55.8 63.3 56.25 64.45 56.7 65.85 56.7 67.05 56.7 68.2 56.2 69.35 55.7 70.05 54.65
L 67.9 53.05
Q 67.5 53.65 66.9 53.95 66.3 54.3 65.5 54.3 64.8 54.3 64.2 54 63.6 53.75 63.15 53.25 62.7 52.7 62.45 52.05 62.2 51.35 62.2 50.5 62.2 49.75 62.45 49.05
M 52.4 49.25
L 52.4 47.05 57.8 47.05 57.8 44.65 49.8 44.65 49.8 56.4 58.05 56.4 58.05 54 52.4 54 52.4 51.6 57.5 51.6 57.5 49.25 52.4 49.25
M 43.5 44.65
L 40.9 44.65 40.9 56.4 48.25 56.4 48.25 54 43.5 54 43.5 44.65 Z"/>
</g>

<path id="Layer1_0_1_STROKES" stroke="#202020" stroke-width="4" stroke-linejoin="round" stroke-linecap="round" fill="none" d="
M 6.1 50.75
L 6.1 50.1
Q 6.1 39.5 13.6 32.05 21.05 24.55 31.65 24.55
L 68.3 24.55
Q 78.95 24.55 86.4 32.05 93.9 39.5 93.9 50.1
L 93.9 50.75
Q 93.55 60.8 86.4 67.95 84.8 69.6 83 70.85 76.55 75.45 68.3 75.45
L 31.65 75.45
Q 21.05 75.45 13.6 67.95 6.45 60.8 6.15 50.75"/>

<path id="Layer1_0_2_STROKES" stroke="#626262" stroke-width="4" stroke-linejoin="round" stroke-linecap="round" fill="none" d="
M 14 50.9
L 14 50.15
Q 14 42.9 18.75 37.8 23.45 32.7 30.1 32.7
L 69.9 32.7
Q 76.6 32.7 81.3 37.8 86 42.9 86 50.15
L 86 50.9
Q 85.65 57.55 81.3 62.25 76.6 67.35 69.9 67.35
L 30.1 67.35
Q 23.45 67.35 18.75 62.25 14.4 57.55 14.1 50.9"/>

</defs>

<g transform="matrix( 1, 0, 0, 1, 0,0) ">
<use xlink:href="#Layer1_0_FILL"/>

<use xlink:href="#Layer1_0_1_STROKES"/>

<use xlink:href="#Layer1_0_2_STROKES"/>
</g>

<g transform="matrix( 1, 0, 0, 1, -3.4,-28) ">
<clipPath id="Mask_Mask_1">
<rect x="20.9" y="-2" width="65" height="20.8" fill="#FFFFFF" stroke="none"/>
</clipPath>

<text clip-path="url(#Mask_Mask_1)" writing-mode="lr"><tspan x="22.95" y="13.6" baseline-shift="0%" kerning="auto" font-family="Arial_Regular" font-size="15" fill="#999999" xml:space="preserve">PS Move</tspan></text>
</g>
</svg>
