
<svg xmlns="http://www.w3.org/2000/svg" version="1.1" xmlns:xlink="http://www.w3.org/1999/xlink" x="0px" y="0px" viewBox="0 0 100 100">
<defs>
<g id="Layer1_0_FILL">
<path fill="#626262" stroke="none" d="
M 75.6 21
L 69.45 19.7
Q 53.2 36.55 57.4 53.7 61.75 72.45 77.2 77.85 65.9 68.2 62.3 52.55 58.8 36.75 75.6 21 Z"/>

<path fill="#1B1B1B" stroke="none" d="
M 75.6 21
L 72.95 17.85 72.25 17
Q 71.95 17.3 71.65 17.55 70.5 18.65 69.45 19.7
L 75.6 21 Z"/>

<path fill="#4F4F4F" stroke="none" d="
M 82.85 81.05
Q 85.55 78.75 85 73.95 76.2 58.6 74.45 47.75 72.3 34.55 78.45 27.35 79.05 21.55 74.6 18.3 73.75 18.05 72.95 17.85
L 75.6 21
Q 58.8 36.75 62.3 52.55 65.9 68.2 77.2 77.85
L 82.85 81.05 Z"/>

<path fill="#313131" stroke="none" d="
M 81.3 82.1
Q 82.2 81.6 82.85 81.05
L 77.2 77.85
Q 61.75 72.45 57.4 53.7 53.2 36.55 69.45 19.7 70.5 18.65 71.65 17.55 54.6 13.75 39.95 20.25 24 27.15 15.5 32.05 18.3 55.65 29.75 66.95 42.85 80.05 61.2 82.05 71.4 83.35 81.3 82.1 Z"/>
</g>

<path id="Layer1_0_1_STROKES" stroke="#1B1B1B" stroke-width="5" stroke-linejoin="round" stroke-linecap="round" fill="none" d="
M 71.65 17.55
Q 54.6 13.75 39.95 20.25 24 27.15 15.5 32.05 18.3 55.65 29.75 66.95 42.85 80.05 61.2 82.05 71.4 83.35 81.3 82.1 82.2 81.6 82.85 81.05
M 72.95 17.85
Q 73.75 18.05 74.6 18.3 79.05 21.55 78.45 27.35 72.3 34.55 74.45 47.75 76.2 58.6 85 73.95 85.55 78.75 82.85 81.05"/>

</defs>

<g transform="matrix( 1, 0, 0, 1, 0,0) ">
<use xlink:href="#Layer1_0_FILL"/>

<use xlink:href="#Layer1_0_1_STROKES"/>
</g>

<g transform="matrix( 1, 0, 0, 1, -3.4,-28) ">
<clipPath id="Mask_Mask_1">
<rect x="20.9" y="-2" width="65" height="20.8" fill="#FFFFFF" stroke="none"/>
</clipPath>

<text clip-path="url(#Mask_Mask_1)" writing-mode="lr"><tspan x="22.95" y="13.6" baseline-shift="0%" kerning="auto" font-family="Arial_Regular" font-size="15" fill="#999999" xml:space="preserve">PS Move</tspan></text>
</g>
</svg>
