
<svg xmlns="http://www.w3.org/2000/svg" version="1.1" xmlns:xlink="http://www.w3.org/1999/xlink" x="0px" y="0px" viewBox="0 0 100 100">
<defs>
<g id="Layer1_0_FILL">
<path fill="#626262" stroke="none" d="
M 31.15 19.7
L 25 21
Q 41.8 36.75 38.3 52.55 34.7 68.2 23.4 77.85 38.85 72.45 43.2 53.7 47.4 36.55 31.15 19.7 Z"/>

<path fill="#1B1B1B" stroke="none" d="
M 31.15 19.7
Q 30.1 18.65 28.95 17.55 28.65 17.3 28.35 17
L 27.65 17.85 25 21 31.15 19.7 Z"/>

<path fill="#313131" stroke="none" d="
M 28.95 17.55
Q 30.1 18.65 31.15 19.7 47.4 36.55 43.2 53.7 38.85 72.45 23.4 77.85
L 17.75 81.05
Q 18.4 81.6 19.3 82.1 29.2 83.35 39.4 82.05 57.75 80.05 70.85 66.95 82.3 55.65 85.1 32.05 76.6 27.15 60.65 20.25 46 13.75 28.95 17.55
M 62.45 34.65
L 76.35 34.65 75.95 38.05 70.9 38.05 69.05 52.15 65.25 52.15 67.1 38.05 62.05 38.05 62.45 34.65
M 54.7 34.65
L 52.9 48.65 60.1 48.65 59.65 52.15 48.6 52.15 50.85 34.65 54.7 34.65 Z"/>

<path fill="#999999" stroke="none" d="
M 52.9 48.65
L 54.7 34.65 50.85 34.65 48.6 52.15 59.65 52.15 60.1 48.65 52.9 48.65
M 76.35 34.65
L 62.45 34.65 62.05 38.05 67.1 38.05 65.25 52.15 69.05 52.15 70.9 38.05 75.95 38.05 76.35 34.65 Z"/>

<path fill="#4F4F4F" stroke="none" d="
M 22.15 27.35
Q 28.3 34.55 26.15 47.75 24.4 58.6 15.6 73.95 15.05 78.75 17.75 81.05
L 23.4 77.85
Q 34.7 68.2 38.3 52.55 41.8 36.75 25 21
L 27.65 17.85
Q 26.85 18.05 26 18.3 21.55 21.55 22.15 27.35 Z"/>
</g>

<path id="Layer1_0_1_STROKES" stroke="#1B1B1B" stroke-width="5" stroke-linejoin="round" stroke-linecap="round" fill="none" d="
M 27.65 17.85
Q 26.85 18.05 26 18.3 21.55 21.55 22.15 27.35 28.3 34.55 26.15 47.75 24.4 58.6 15.6 73.95 15.05 78.75 17.75 81.05
M 28.95 17.55
Q 46 13.75 60.65 20.25 76.6 27.15 85.1 32.05 82.3 55.65 70.85 66.95 57.75 80.05 39.4 82.05 29.2 83.35 19.3 82.1 18.4 81.6 17.75 81.05"/>

</defs>

<g transform="matrix( 1, 0, 0, 1, 0,0) ">
<use xlink:href="#Layer1_0_FILL"/>

<use xlink:href="#Layer1_0_1_STROKES"/>
</g>

<g transform="matrix( 1, 0, 0, 1, -3.4,-28) ">
<clipPath id="Mask_Mask_1">
<rect x="20.9" y="-2" width="65" height="20.8" fill="#FFFFFF" stroke="none"/>
</clipPath>

<text clip-path="url(#Mask_Mask_1)" writing-mode="lr"><tspan x="22.95" y="13.6" baseline-shift="0%" kerning="auto" font-family="Arial_Regular" font-size="15" fill="#999999" xml:space="preserve">PS Move</tspan></text>
</g>
</svg>
