
<svg xmlns="http://www.w3.org/2000/svg" version="1.1" xmlns:xlink="http://www.w3.org/1999/xlink" x="0px" y="0px" viewBox="0 0 100 100">
<defs>
<g id="Layer1_0_FILL">
<path fill="#FFFFFF" stroke="none" d="
M 37.3 61.25
L 29.05 55.7
Q 28.5 55.3 28.1 54.9
L 28 54.85
Q 25 57.85 21.85 60.85
L 15.25 67.45
Q 12.75 70.6 13 74.85 13.4 79.15 16.8 83 17.15 83.3 17.45 83.65 17.8 84.05 18.15 84.35 21.8 87.95 26.05 88.35 30.3 88.8 33.3 86.35
L 39.95 79.7
Q 44.05 75.4 48.3 71.35 43 66.1 37.3 61.25
M 77.6 23.5
Q 75.45 21.4 72.55 21.5 69.55 21.35 67.45 23.45 65.4 25.55 65.45 28.6 65.45 31.45 67.55 33.55 69.65 35.65 72.55 35.7 75.6 35.7 77.65 33.65 79.75 31.55 79.65 28.6 79.7 25.65 77.6 23.5
M 86.45 68.55
L 81.7 64.85
Q 74.7 59.25 68.3 53 64 48.7 59.85 44.1 58.25 42.35 56.65 40.35
L 51 31.95
Q 50.9 31.85 50 30.9 49.75 30.55 49.45 30.25
L 47.1 27.85
Q 45.5 26.5 43.45 25.95 42.9 25.75 42.45 25.6
L 37.35 29.05 37.15 28.9
Q 38.2 26.55 38.15 23.8 38.15 18.25 34.2 14.3 30.25 10.35 24.65 10.3 24.45 10.3 24.3 10.35 19.8 10.4 16.45 13.1 15.75 13.7 15.2 14.25 14.55 14.9 14 15.55 11.2 19.15 11.2 23.8 11.2 24.75 11.3 25.75 11.95 30.1 15.2 33.35 19.15 37.3 24.65 37.3 27.2 37.2 29.55 36.4
L 29.75 36.65 26.3 41.7
Q 26.45 42.2 26.65 42.75 27.2 44.8 28.55 46.4
L 30.95 48.75
Q 32.25 49.85 32.55 50.15 32.65 50.2 32.7 50.3
L 41.05 55.95
Q 47.3 61.15 52.95 66.8 59.7 73.55 65.55 81
L 69.25 85.75
Q 73.05 89 77 88.3 80.9 87.65 84.15 84.7 84.5 84.45 84.8 84.2
L 84.9 84.05
Q 85.15 83.8 85.45 83.4 87.35 81.3 88.3 78.95 88.85 77.65 89 76.3 89.7 72.3 86.45 68.55
M 44.2 37.6
Q 45.35 37.95 46.2 38.8
L 53.1 45.65
Q 54.4 46.95 54.35 48.85 54.45 50.8 53.1 52.15 51.7 53.6 49.75 53.45 47.85 53.55 46.55 52.25
L 39.65 45.35
Q 38.95 44.65 38.65 43.8 38.3 42.95 38.3 42.05 38.25 40.15 39.65 38.75 41 37.4 42.9 37.45 43.55 37.45 44.2 37.6
M 85.8 23.95
Q 85.65 23.6 85.5 23.2 82.9 17.25 76.75 14.9 73.2 13.5 69.8 13.75 64.7 14.2 59.55 19.35
L 54.25 25.8
Q 54.3 25.9 54.4 26 54.65 26.35 54.9 26.6
L 54.95 26.6
Q 55.55 27.25 55.6 27.35 56 27.8 56.4 28.35
L 59.9 33.55
Q 59.35 31.75 59.35 29.75 59.35 24.75 62.85 21.25 66.35 17.75 71.35 17.75 76.35 17.75 79.9 21.3 83.45 24.8 83.5 29.85 83.5 34.85 79.95 38.35 76.45 41.9 71.45 41.9 67.7 41.85 64.85 39.95 68.75 44.3 72.85 48.4 73.1 48.6 73.35 48.8
L 81.5 42.15
Q 86.5 37.1 87 31.85 87.45 28.05 85.8 23.95 Z"/>
</g>

</defs>

<g transform="matrix( 1, 0, 0, 1, 0,0) ">
<use xlink:href="#Layer1_0_FILL"/>
</g>

<g transform="matrix( 1, 0, 0, 1, -3.4,-28) ">
<clipPath id="Mask_Mask_1">
<rect x="20.9" y="-2" width="65" height="20.8" fill="#FFFFFF" stroke="none"/>
</clipPath>

<text clip-path="url(#Mask_Mask_1)" writing-mode="lr"><tspan x="22.95" y="13.6" baseline-shift="0%" kerning="auto" font-family="Arial_Regular" font-size="15" fill="#999999" xml:space="preserve">PS Move</tspan></text>
</g>
</svg>
