<?xml version="1.0" encoding="utf-8"?>
<!-- Generator: Adobe Illustrator 24.1.2, SVG Export Plug-In . SVG Version: 6.00 Build 0)  -->
<svg version="1.1" id="Layer_1" xmlns="http://www.w3.org/2000/svg" xmlns:xlink="http://www.w3.org/1999/xlink" x="0px" y="0px"
	 viewBox="0 0 100 100" style="enable-background:new 0 0 100 100;" xml:space="preserve">
<g transform="matrix( 1, 0, 0, 1, 0,0) ">
	<g>
		<g id="Layer1_0_FILL">
			<path style="fill:#313131;" d="M46,46.4c0.3-3.6-1.2-5.7-4.6-6.1c-12-0.9-21.9-2.4-29.7-4.6c-2.4,0-4.2,1-5.4,2.9
				C3.7,43,3.3,48.2,5.1,54c0.8,2.6,2.5,4.5,5,5.5c8.9,2.3,19.1,3.9,30.8,4.7c3,0.2,4.6-1.4,4.9-4.6C45.7,53,45.8,48.6,46,46.4
				 M38.8,44.6c0.8,0.1,1.3,0.6,1.2,1.5l0,0c-0.2,2.2-0.2,6.7-0.2,13.3c0,0.2-0.2,0.4-0.3,0.5C39.4,60,39.2,60,39,60l0,0
				c-10.5-0.8-19.9-2.3-28-4.5c-0.7-0.4-1.1-0.7-1.1-0.9c-0.7-0.9-1.3-2.6-1.5-4.8c-0.3-2.3-0.1-4.3,0.5-6c0.6-1.6,1.2-2.7,1.9-3.5
				c0.1-0.2,0.2-0.2,0.2-0.2C18.4,42.2,27.7,43.7,38.8,44.6 M11.1,55.5c-0.8-0.4-1.2-0.7-1.2-0.9C9.9,54.7,10.3,55.1,11.1,55.5
				c8,2.2,17.3,3.7,27.9,4.5l0,0c0.2,0,0.4,0,0.5-0.1C28.8,59,19.4,57.6,11.1,55.5z"/>
			<path style="fill:#4F4F4F;" d="M40.1,46c0-0.9-0.4-1.4-1.2-1.5c-11.1-0.9-20.4-2.4-27.7-4.5c0,0-0.1,0.1-0.2,0.2
				c-0.7,0.7-1.3,1.9-1.9,3.5c-0.6,1.7-0.8,3.7-0.5,6s0.8,3.9,1.5,4.8c0,0.2,0.4,0.5,1.2,0.9c8.3,2.1,17.7,3.6,28.4,4.4
				c0.2-0.1,0.3-0.3,0.3-0.5C39.8,52.7,39.9,48.3,40.1,46L40.1,46 M21.7,46l1.7,0.4v8.8l-1.8-0.5V48l-1.8,1.1l-1-1.5L21.7,46
				 M12.3,43.6l1.9,0.5v7l3.6,0.9v1.8l-5.5-1.4C12.3,52.4,12.3,43.6,12.3,43.6z"/>
			<path style="fill:#8F8F8F;" d="M14.3,44.1l-1.9-0.5v8.8l5.5,1.4V52l-3.6-0.9L14.3,44.1 M23.4,46.4L21.7,46l-2.9,1.7l1,1.5
				l1.8-1.1v6.7l1.8,0.5V46.4z"/>
		</g>
	</g>
	<g>
		<path id="Layer1_0_1_STROKES" style="fill:none;stroke:#1B1B1B;stroke-width:5;stroke-linecap:round;stroke-linejoin:round;" d="
			M46,46.4c0.3-3.6-1.2-5.7-4.6-6.1c-12-0.9-21.9-2.4-29.7-4.6c-2.4,0-4.2,1-5.4,2.9C3.7,43,3.3,48.2,5.1,54c0.8,2.6,2.5,4.5,5,5.5
			c8.9,2.3,19.1,3.9,30.8,4.7c3,0.2,4.6-1.4,4.9-4.6C45.7,53,45.8,48.6,46,46.4z"/>
	</g>
	<g>
		<path id="Layer1_0_2_STROKES" style="fill:none;stroke:#626262;stroke-width:4;stroke-linecap:round;stroke-linejoin:round;" d="
			M39.5,59.9c0.2-0.1,0.3-0.3,0.3-0.5c0-6.6,0.1-11.1,0.2-13.3l0,0c0-0.9-0.4-1.4-1.2-1.5c-11.1-0.9-20.4-2.4-27.7-4.5
			c0,0-0.1,0.1-0.2,0.2C10.2,41,9.6,42.2,9,43.8c-0.6,1.7-0.8,3.7-0.5,6s0.8,3.9,1.5,4.8 M39.5,59.9C39.4,60,39.2,60,39,60l0,0
			c-10.5-0.8-19.9-2.3-28-4.5c-0.7-0.4-1.1-0.7-1.1-0.9"/>
	</g>
</g>
<g transform="matrix( 1, 0, 0, 1, 0,0) ">
	<g>
		<g id="Layer1_0_FILL_1_">
			<path style="fill:#313131;" d="M94.9,54c1.8-5.8,1.3-10.9-1.2-15.4c-1.1-1.9-2.9-2.9-5.4-2.9c-7.8,2.2-17.7,3.7-29.7,4.6
				c-3.4,0.4-4.9,2.5-4.6,6.1c0.2,2.2,0.3,6.6,0.3,13.2c0.2,3.3,1.9,4.8,4.9,4.6c11.6-0.8,21.9-2.4,30.8-4.7
				C92.5,58.5,94.1,56.7,94.9,54 M91.1,43.7c0.6,1.7,0.8,3.7,0.5,6s-0.8,3.9-1.5,4.8c0,0.2-0.3,0.5-1.1,0.9
				c-8.1,2.2-17.4,3.7-28,4.5l0,0c-0.2,0-0.4,0-0.5-0.1c-0.2-0.1-0.3-0.3-0.3-0.5c0-6.6-0.1-11.1-0.2-13.3l0,0
				c0-0.9,0.4-1.4,1.2-1.5c11.1-0.9,20.4-2.4,27.7-4.5c0,0,0.1,0.1,0.2,0.2C89.8,41,90.5,42.2,91.1,43.7 M60.5,59.9
				C60.6,60,60.8,60,61,60l0,0c10.5-0.8,19.9-2.3,28-4.5c0.7-0.4,1.1-0.7,1.1-0.9c0,0.2-0.4,0.5-1.2,0.9
				C80.6,57.6,71.2,59,60.5,59.9z"/>
			<path style="fill:#4F4F4F;" d="M91.6,49.7c0.3-2.3,0.1-4.3-0.5-6c-0.6-1.6-1.2-2.7-1.9-3.5C89,40.1,88.9,40,88.9,40
				c-7.4,2.1-16.6,3.7-27.7,4.5c-0.8,0.1-1.3,0.6-1.2,1.5l0,0c0.2,2.2,0.2,6.7,0.2,13.3c0,0.2,0.2,0.4,0.3,0.5
				c10.6-0.8,20.1-2.3,28.4-4.4c0.8-0.4,1.2-0.7,1.2-0.9C90.8,53.6,91.3,52,91.6,49.7 M79.2,45.8c0.4,0,0.8,0,1.1,0.2
				c0.3,0.1,0.5,0.4,0.7,0.7s0.2,0.7,0.2,1.2c0,0.6-0.2,1.2-0.5,1.7s-0.8,0.9-1.4,1.1l2.2,3.3l-2.3,0.5l-1.8-3.1l-0.9,0.2V55
				l-1.9,0.4v-8.8l3.4-0.7C78.3,45.8,78.8,45.8,79.2,45.8 M85.3,44.3l1.7-0.4v8.8l-1.8,0.4v-6.7l-1.8,1.9l-1-1L85.3,44.3 M77.7,47.6
				l-1.3,0.3v2l1.1-0.2c0.2,0,0.3-0.1,0.5-0.1c0.2-0.1,0.4-0.1,0.5-0.2c0.2-0.1,0.3-0.2,0.4-0.4c0.1-0.1,0.1-0.3,0.1-0.6
				c0-0.2,0-0.4-0.1-0.5s-0.2-0.2-0.3-0.2c-0.1,0-0.3-0.1-0.5,0C78.1,47.5,77.9,47.6,77.7,47.6z"/>
			<path style="fill:#8F8F8F;" d="M87,43.9l-1.7,0.4l-2.9,3l1,1l1.8-1.9v6.7l1.8-0.4L87,43.9 M80.2,46c-0.3-0.1-0.7-0.2-1.1-0.2
				s-0.8,0-1.3,0.1l-3.4,0.7v8.8l1.9-0.4v-3.5l0.9-0.2l1.8,3.1l2.3-0.5l-2.2-3.3c0.6-0.2,1.1-0.6,1.4-1.1s0.5-1.1,0.5-1.7
				c0-0.5-0.1-0.9-0.2-1.2C80.8,46.3,80.5,46.1,80.2,46 M76.4,47.9l1.3-0.3c0.2,0,0.4-0.1,0.5-0.1c0.2,0,0.3,0,0.5,0
				c0.1,0,0.2,0.1,0.3,0.2c0.1,0.1,0.1,0.3,0.1,0.5s0,0.4-0.1,0.6c-0.1,0.1-0.2,0.3-0.4,0.4c-0.1,0.1-0.3,0.2-0.5,0.2
				s-0.4,0.1-0.5,0.1l-1.1,0.2v-1.8H76.4z"/>
		</g>
	</g>
	<g>
		
			<path id="Layer1_0_1_STROKES_1_" style="fill:none;stroke:#1B1B1B;stroke-width:5;stroke-linecap:round;stroke-linejoin:round;" d="
			M88.3,35.7c2.4,0,4.2,1,5.4,2.9c2.6,4.4,3,9.6,1.2,15.4c-0.8,2.6-2.5,4.5-5,5.5c-8.9,2.3-19.1,3.9-30.8,4.7
			c-3,0.2-4.6-1.4-4.9-4.6c0-6.6-0.1-11-0.3-13.2c-0.3-3.6,1.2-5.7,4.6-6.1C70.7,39.4,80.5,37.9,88.3,35.7z"/>
	</g>
	<g>
		
			<path id="Layer1_0_2_STROKES_1_" style="fill:none;stroke:#626262;stroke-width:4;stroke-linecap:round;stroke-linejoin:round;" d="
			M90.1,54.5c0.7-0.9,1.3-2.6,1.5-4.8c0.3-2.3,0.1-4.3-0.5-6c-0.6-1.6-1.2-2.7-1.9-3.5C89,40.1,88.9,40,88.9,40
			c-7.4,2.1-16.6,3.7-27.7,4.5c-0.8,0.1-1.3,0.6-1.2,1.5l0,0c0.2,2.2,0.2,6.7,0.2,13.3c0,0.2,0.2,0.4,0.3,0.5 M90.1,54.5
			c0,0.2-0.3,0.5-1.1,0.9c-8.1,2.2-17.4,3.7-28,4.5l0,0c-0.2,0-0.4,0-0.5-0.1"/>
	</g>
</g>
</svg>
