
<svg xmlns="http://www.w3.org/2000/svg" version="1.1" xmlns:xlink="http://www.w3.org/1999/xlink" x="0px" y="0px" viewBox="0 0 100 100">
<defs>
<g id="Layer1_0_FILL">
<path fill="#313131" stroke="none" d="
M 91.45 65.45
L 91.45 19.95 72.6 19.95
Q 60.6685546875 18.5724609375 48 18.35 42.56796875 18.2744140625 37 18.4 24.919140625 18.6681640625 12.2 19.95 7.3 48.25 9.05 76.55 10.05 82.7 15.35 84.75 24.3 87.7 34 87.65 52 87.55 59.5 85.05 67.9 82.25 70.5 76.55 70.5 74.15 70.5 71.75
L 76.55 65.45 91.45 65.45
M 48 26.1
Q 56.3564453125 26.21328125 64.6 26.65 62.45 49.75 63.55 72.8 61.1 76.85 53.75 78.35 46.4 79.8 34.8 79.6 23.2 79.4 17.2 76.95 15.75 73.75 15.95 69.85 15 47.75 18.45 26.65 27.7921875 26.173046875 37 26.05 42.5244140625 26.01640625 48 26.1 Z"/>

<path fill="#4F4F4F" stroke="none" d="
M 64.6 26.65
Q 56.3564453125 26.21328125 48 26.1 42.5244140625 26.01640625 37 26.05 27.7921875 26.173046875 18.45 26.65 15 47.75 15.95 69.85 15.75 73.75 17.2 76.95 23.2 79.4 34.8 79.6 46.4 79.8 53.75 78.35 61.1 76.85 63.55 72.8 62.45 49.75 64.6 26.65
M 47.85 46.2
Q 48.6 46.85 49.05 47.85 49.5 48.85 49.5 50.2 49.5 51 49.3 51.7 49.1 52.4 48.8 52.95 48.5 53.5 48.05 54 47.65 54.5 47.15 54.95
L 41.8 59.55 49.6 59.55 49.6 62.85 37.3 62.85 37.3 58.85 44.15 52.7
Q 44.7 52.25 45.2 51.6 45.75 51 45.75 50.25 45.75 49.3 45.1 48.8 44.45 48.3 43.55 48.3 42.5 48.3 41.9 48.95 41.35 49.6 41.25 50.55
L 37.5 50.3
Q 37.6 48.9 38.1 47.9 38.6 46.85 39.4 46.2 40.2 45.5 41.35 45.2 42.45 44.85 43.75 44.85 44.95 44.85 46 45.2 47.05 45.5 47.85 46.2
M 23.55 45.15
L 27.45 45.15 27.45 59.25 34.65 59.25 34.65 62.85 23.55 62.85 23.55 45.15 Z"/>

<path fill="#8F8F8F" stroke="none" d="
M 27.45 45.15
L 23.55 45.15 23.55 62.85 34.65 62.85 34.65 59.25 27.45 59.25 27.45 45.15
M 49.05 47.85
Q 48.6 46.85 47.85 46.2 47.05 45.5 46 45.2 44.95 44.85 43.75 44.85 42.45 44.85 41.35 45.2 40.2 45.5 39.4 46.2 38.6 46.85 38.1 47.9 37.6 48.9 37.5 50.3
L 41.25 50.55
Q 41.35 49.6 41.9 48.95 42.5 48.3 43.55 48.3 44.45 48.3 45.1 48.8 45.75 49.3 45.75 50.25 45.75 51 45.2 51.6 44.7 52.25 44.15 52.7
L 37.3 58.85 37.3 62.85 49.6 62.85 49.6 59.55 41.8 59.55 47.15 54.95
Q 47.65 54.5 48.05 54 48.5 53.5 48.8 52.95 49.1 52.4 49.3 51.7 49.5 51 49.5 50.2 49.5 48.85 49.05 47.85 Z"/>
</g>

<path id="Layer1_0_1_STROKES" stroke="#1B1B1B" stroke-width="5" stroke-linejoin="round" stroke-linecap="round" fill="none" d="
M 91.45 65.45
L 91.45 19.95 72.6 19.95
Q 60.6685546875 18.5724609375 48 18.375 42.56796875 18.2744140625 37 18.4 24.919140625 18.6681640625 12.2 19.95 7.3 48.25 9.05 76.55 10.05 82.7 15.35 84.75 24.3 87.7 34 87.65 52 87.55 59.5 85.05 67.9 82.25 70.5 76.55 70.5 74.15 70.5 71.75
L 76.55 65.45 91.45 65.45 Z"/>

<path id="Layer1_0_2_STROKES" stroke="#626262" stroke-width="4" stroke-linejoin="round" stroke-linecap="round" fill="none" d="
M 64.6 26.65
Q 56.3564453125 26.21328125 48 26.1 42.5244140625 26.01640625 37 26.075 27.7921875 26.173046875 18.45 26.65 15 47.75 15.95 69.85 15.75 73.75 17.2 76.95 23.2 79.4 34.8 79.6 46.4 79.8 53.75 78.35 61.1 76.85 63.55 72.8 62.45 49.75 64.6 26.65 Z"/>

</defs>

<g transform="matrix( 1, 0, 0, 1, 0,0) ">
<use xlink:href="#Layer1_0_FILL"/>

<use xlink:href="#Layer1_0_1_STROKES"/>

<use xlink:href="#Layer1_0_2_STROKES"/>
</g>

<g transform="matrix( 1, 0, 0, 1, -3.4,-28) ">
<clipPath id="Mask_Mask_1">
<rect x="8.35" y="-2" width="90.1" height="20.8" fill="#FFFFFF" stroke="none"/>
</clipPath>

<text clip-path="url(#Mask_Mask_1)" writing-mode="lr"><tspan x="10.45" y="13.6" baseline-shift="0%" kerning="auto" font-family="Arial_Regular" font-size="15" fill="#999999" xml:space="preserve">Playstation 3</tspan></text>
</g>
</svg>
