<?xml version="1.0" encoding="utf-8"?>
<!-- Generator: Adobe Illustrator 24.1.2, SVG Export Plug-In . SVG Version: 6.00 Build 0)  -->
<svg version="1.1" id="Layer_1" xmlns="http://www.w3.org/2000/svg" xmlns:xlink="http://www.w3.org/1999/xlink" x="0px" y="0px"
	 viewBox="0 0 148 148" enable-background="new 0 0 148 148" xml:space="preserve">
<g transform="matrix( 1, 0, 0, 1, 0,0) ">
	<g>
		<g transform="translate(24.5 24.5)">
<path fill="#272727" stroke="none" d="
M 79.85 20.15
Q 67.5 7.8 50 7.8 32.5 7.8 20.15 20.15 7.8 32.5 7.8 50 7.8 67.5 20.15 79.85 32.5 92.2 50 92.2 67.5 92.2 79.85 79.85 92.2 67.5 92.2 50 92.2 32.5 79.85 20.15
M 50 15.95
Q 64.2 15.95 74.1 25.95 84.1 35.9 84.1 50 84.1 64.2 74.1 74.1 64.2 84.1 50 84.1 35.9 84.1 25.95 74.1 15.95 64.2 15.95 50 15.95 35.9 25.95 25.95 35.9 15.95 50 15.95 Z"/>

<path fill="#3F3F3F" stroke="none" d="
M 74.1 25.95
Q 64.2 15.95 50 15.95 35.9 15.95 25.95 25.95 15.95 35.9 15.95 50 15.95 64.2 25.95 74.1 35.9 84.1 50 84.1 64.2 84.1 74.1 74.1 84.1 64.2 84.1 50 84.1 35.9 74.1 25.95
M 50 25.05
Q 60.35 25.05 67.65 32.4 74.95 39.65 74.95 50 74.95 60.35 67.65 67.65 60.35 74.95 50 74.95 39.65 74.95 32.4 67.65 25.05 60.35 25.05 50 25.05 39.65 32.4 32.4 39.65 25.05 50 25.05 Z"/>

<path fill="#555555" stroke="none" d="
M 67.65 32.4
Q 60.35 25.05 50 25.05 39.65 25.05 32.4 32.4 25.05 39.65 25.05 50 25.05 60.35 32.4 67.65 39.65 74.95 50 74.95 60.35 74.95 67.65 67.65 74.95 60.35 74.95 50 74.95 39.65 67.65 32.4
M 43.55 37.7
L 49 37.7 49 57.45 59.1 57.45 59.1 62.5 43.55 62.5 43.55 37.7 Z"/>

<path fill="#8C8C8C" stroke="none" d="
M 49 37.7
L 43.55 37.7 43.55 62.5 59.1 62.5 59.1 57.45 49 57.45 49 37.7 Z"/>
<path id="Layer1_0_1_STROKES" stroke="#151515" stroke-width="4" stroke-linejoin="round" stroke-linecap="round" fill="none" d="
M 50 15.95
Q 64.2 15.95 74.1 25.95 84.1 35.9 84.1 50 84.1 64.2 74.1 74.1 64.2 84.1 50 84.1 35.9 84.1 25.95 74.1 15.95 64.2 15.95 50 15.95 35.9 25.95 25.95 35.9 15.95 50 15.95 Z
M 50 7.8
Q 67.5 7.8 79.85 20.15 92.2 32.5 92.2 50 92.2 67.5 79.85 79.85 67.5 92.2 50 92.2 32.5 92.2 20.15 79.85 7.8 67.5 7.8 50 7.8 32.5 20.15 20.15 32.5 7.8 50 7.8 Z"/>
		</g>
	</g>
</g>
<path fill="#BFBFBF" stroke="#000000" stroke-width="2" d="M138.3,72.2c0-0.1,0-0.3,0-0.4c-0.5-17.2-6.8-32.2-18.8-44.7
	c-12.6-12.9-28-19.4-45.8-19.4C56,7.7,40.6,14.2,28,27.1C15.4,40.1,9,55.9,9,74.2c0,3.2,0.2,6.3,0.6,9.4c0.3,2.5,2.3,4.3,4.7,4.3
	c0.2,0,0.4,0,0.6,0c2.6-0.3,4.5-2.8,4.1-5.4c-0.3-2.7-0.5-5.5-0.5-8.2c0-15.8,5.3-29,16.3-40.2C45.7,23,58.4,17.5,73.9,17.5
	c15.3,0,28.1,5.4,39,16.6c10.4,10.7,15.7,23.2,16.1,38v0.1h-8.4l12.6,12.6l12.6-12.6C145.8,72.2,138.3,72.2,138.3,72.2z"/>
</svg>
