
<svg xmlns="http://www.w3.org/2000/svg" version="1.1" xmlns:xlink="http://www.w3.org/1999/xlink" x="0px" y="0px" viewBox="0 0 100 100">
<defs>
<g id="Layer1_0_FILL">
<path fill="#1B1B1B" stroke="none" d="
M 61.75 69.4
L 61.75 65.8 49.7 65.8 49.7 83.5 62.15 83.5 62.15 79.9 53.6 79.9 53.6 76.3 61.3 76.3 61.3 72.7 53.6 72.7 53.6 69.4 61.75 69.4
M 70.1 66
Q 68.35 66.65 67.05 67.85 65.8 69.05 65.05 70.8 64.35 72.55 64.35 74.65 64.35 76.75 65.05 78.5 65.8 80.25 67.05 81.45 68.35 82.65 70.1 83.3 71.85 83.95 73.9 83.95 75.75 83.95 77.45 83.2 79.2 82.45 80.3 80.9
L 77.05 78.45
Q 76.45 79.35 75.55 79.85 74.6 80.35 73.4 80.35 72.35 80.35 71.45 79.9 70.55 79.5 69.85 78.75 69.2 77.95 68.8 76.95 68.4 75.9 68.4 74.65 68.4 73.45 68.8 72.4 69.2 71.35 69.85 70.55 70.55 69.8 71.5 69.4 72.45 68.95 73.55 68.95 74.65 68.95 75.5 69.35 76.3 69.7 76.9 70.4
L 79.9 67.95
Q 79.3 67.25 78.6 66.75 77.85 66.25 77.05 65.9 76.3 65.65 75.5 65.5 74.65 65.35 73.9 65.35 71.85 65.35 70.1 66
M 9.45 65.7
Q 8.25 66.05 7.3 66.8 6.35 67.5 5.8 68.6 5.25 69.65 5.25 71.1 5.25 72.55 5.85 73.5 6.5 74.35 7.4 74.95 8.35 75.5 9.4 75.8 10.5 76.15 11.4 76.45 12.35 76.75 12.95 77.25 13.55 77.7 13.55 78.5 13.55 78.95 13.35 79.35 13.1 79.7 12.7 79.9 12.3 80.15 11.85 80.25 11.35 80.35 10.85 80.35 9.9 80.35 8.95 79.9 8.05 79.45 7.45 78.7
L 4.7 81.75
Q 5.95 82.9 7.45 83.45 8.9 83.95 10.65 83.95 12 83.95 13.25 83.6 14.5 83.25 15.4 82.5 16.35 81.8 16.9 80.7 17.45 79.6 17.45 78.15 17.45 76.6 16.85 75.65 16.25 74.7 15.35 74.15 14.45 73.6 13.4 73.3 12.35 73.05 11.4 72.7 10.5 72.45 9.9 72 9.3 71.55 9.3 70.8 9.3 70.3 9.55 69.95 9.8 69.55 10.2 69.35 10.6 69.15 11.05 69.05 11.5 68.95 11.95 68.95 12.65 68.95 13.45 69.25 14.3 69.5 14.75 70.1
L 17.45 67.2
Q 16.3 66.2 14.9 65.8 13.5 65.35 12 65.35 10.7 65.35 9.45 65.7
M 40.15 65.8
L 36.25 65.8 36.25 83.5 47.35 83.5 47.35 79.9 40.15 79.9 40.15 65.8
M 32.1 72.7
L 24.4 72.7 24.4 69.4 32.55 69.4 32.55 65.8 20.5 65.8 20.5 83.5 32.95 83.5 32.95 79.9 24.4 79.9 24.4 76.3 32.1 76.3 32.1 72.7
M 85.85 69.25
L 85.85 83.5 89.75 83.5 89.75 69.25 94.8 69.25 94.8 65.8 80.8 65.8 80.8 69.25 85.85 69.25 Z"/>

<path fill="#313131" stroke="none" d="
M 87.35 54.25
L 87.35 20.7 12.65 20.7 12.65 54.25 87.35 54.25
M 79.85 28.2
L 79.85 46.75 20.15 46.75 20.15 28.2 79.85 28.2 Z"/>

<path fill="#4F4F4F" stroke="none" d="
M 79 45.9
L 79 29.05 21 29.05 21 45.9 79 45.9 Z"/>
</g>

<path id="Layer1_0_1_STROKES" stroke="#1B1B1B" stroke-width="5" stroke-linejoin="round" stroke-linecap="round" fill="none" d="
M 87.35 20.7
L 87.35 54.25 12.65 54.25 12.65 20.7 87.35 20.7 Z"/>

<path id="Layer1_0_2_STROKES" stroke="#626262" stroke-width="4" stroke-linejoin="round" stroke-linecap="round" fill="none" d="
M 79 29.05
L 79 45.9 21 45.9 21 29.05 79 29.05 Z"/>

</defs>

<g transform="matrix( 1, 0, 0, 1, 0,0) ">
<use xlink:href="#Layer1_0_FILL"/>

<use xlink:href="#Layer1_0_1_STROKES"/>

<use xlink:href="#Layer1_0_2_STROKES"/>
</g>

<g transform="matrix( 1, 0, 0, 1, -3.4,-28) ">
<clipPath id="Mask_Mask_1">
<rect x="8.35" y="-2" width="90.1" height="20.8" fill="#FFFFFF" stroke="none"/>
</clipPath>

<text clip-path="url(#Mask_Mask_1)" writing-mode="lr"><tspan x="10.45" y="13.6" baseline-shift="0%" kerning="auto" font-family="Arial_Regular" font-size="15" fill="#999999" xml:space="preserve">Playstation 3</tspan></text>
</g>
</svg>
