
<svg xmlns="http://www.w3.org/2000/svg" version="1.1" xmlns:xlink="http://www.w3.org/1999/xlink" x="0px" y="0px" viewBox="0 0 100 100">
<defs>
<g id="Layer1_0_FILL">
<path fill="#313131" stroke="none" d="
M 92.1 42.85
Q 93.05 31.9 82.85 30.55 46.7 27.85 23.25 21.35 15.9 21.35 12.5 27.2 4.7 40.6 10 58.1 12.4 66.05 20.05 69.2 46.8 76.1 81.8 78.6 90.85 79.15 91.55 69.35 91.55 49.45 92.1 42.85
M 77.8 39.05
Q 80.35 39.4 80.3 42
L 80.3 42.05
Q 79.8 48.75 79.8 68.75 79.65 69.45 79.1 69.8 78.7 70.05 78.05 70
L 78.1 70.05
Q 46.35 67.65 21.9 60.95 19.7 59.75 19.75 59.05 17.5 56.2 16.65 49.35 15.85 42.5 17.75 37.4 19.55 32.65 21.6 30.45 22.05 29.95 22.1 29.95 44.25 36.4 77.8 39.05
M 22.1 60.95
Q 19.8 59.7 19.75 59.05 19.7 59.75 21.9 60.95 46.35 67.65 78.1 70.05
L 78.05 70
Q 78.7 70.05 79.1 69.8 47.05 67.3 22.1 60.95 Z"/>

<path fill="#4F4F4F" stroke="none" d="
M 80.3 42
Q 80.35 39.4 77.8 39.05 44.25 36.4 22.1 29.95 22.05 29.95 21.6 30.45 19.55 32.65 17.75 37.4 15.85 42.5 16.65 49.35 17.5 56.2 19.75 59.05 19.8 59.7 22.1 60.95 47.05 67.3 79.1 69.8 79.65 69.45 79.8 68.75 79.8 48.75 80.3 42.05
L 80.3 42
M 43.4 41.9
L 46.9 42.8 46.9 60.5 43.3 59.55 43.3 46.05 39.75 48.25 37.65 45.3 43.4 41.9
M 24.6 37.15
L 28.5 38.15 28.5 52.25 35.7 54.05 35.7 57.65 24.6 54.85 24.6 37.15 Z"/>

<path fill="#8F8F8F" stroke="none" d="
M 28.5 38.15
L 24.6 37.15 24.6 54.85 35.7 57.65 35.7 54.05 28.5 52.25 28.5 38.15
M 46.9 42.8
L 43.4 41.9 37.65 45.3 39.75 48.25 43.3 46.05 43.3 59.55 46.9 60.5 46.9 42.8 Z"/>
</g>

<path id="Layer1_0_1_STROKES" stroke="#1B1B1B" stroke-width="5" stroke-linejoin="round" stroke-linecap="round" fill="none" d="
M 92.1 42.85
Q 93.05 31.9 82.85 30.55 46.7 27.85 23.25 21.35 15.9 21.35 12.5 27.2 4.7 40.6 10 58.1 12.4 66.05 20.05 69.2 46.8 76.1 81.8 78.6 90.85 79.15 91.55 69.35 91.55 49.45 92.1 42.85 Z"/>

<path id="Layer1_0_2_STROKES" stroke="#626262" stroke-width="4" stroke-linejoin="round" stroke-linecap="round" fill="none" d="
M 79.1 69.8
Q 79.65 69.45 79.8 68.75 79.8 48.75 80.3 42.05
L 80.3 42
Q 80.35 39.4 77.8 39.05 44.25 36.4 22.1 29.95 22.05 29.95 21.6 30.45 19.55 32.65 17.75 37.4 15.85 42.5 16.65 49.35 17.5 56.2 19.75 59.05
M 79.1 69.8
Q 78.7 70.05 78.05 70
L 78.1 70.05
Q 46.35 67.65 21.9 60.95 19.7 59.75 19.75 59.05"/>

</defs>

<g transform="matrix( 1, 0, 0, 1, 0,0) ">
<use xlink:href="#Layer1_0_FILL"/>

<use xlink:href="#Layer1_0_1_STROKES"/>

<use xlink:href="#Layer1_0_2_STROKES"/>
</g>

<g transform="matrix( 1, 0, 0, 1, -3.4,-28) ">
<clipPath id="Mask_Mask_1">
<rect x="8.35" y="-2" width="90.1" height="20.8" fill="#FFFFFF" stroke="none"/>
</clipPath>

<text clip-path="url(#Mask_Mask_1)" writing-mode="lr"><tspan x="10.45" y="13.6" baseline-shift="0%" kerning="auto" font-family="Arial_Regular" font-size="15" fill="#999999" xml:space="preserve">Playstation 3</tspan></text>
</g>
</svg>
