
<svg xmlns="http://www.w3.org/2000/svg" version="1.1" xmlns:xlink="http://www.w3.org/1999/xlink" x="0px" y="0px" viewBox="0 0 100 100">
<defs>
<g id="Layer1_0_FILL">
<path fill="#313131" stroke="none" d="
M 90.05 58.1
Q 95.35 40.6 87.55 27.2 84.15 21.35 76.8 21.35 53.35 27.85 17.2 30.55 7 31.9 7.95 42.85 8.5 49.45 8.5 69.35 9.2 79.15 18.25 78.6 53.25 76.1 80 69.2 87.65 66.05 90.05 58.1
M 82.3 37.4
Q 84.2 42.5 83.4 49.35 82.55 56.2 80.3 59.05 80.35 59.75 78.15 60.95 53.7 67.65 21.95 70.05
L 22 70
Q 21.35 70.05 20.95 69.8 20.4 69.45 20.25 68.75 20.25 48.75 19.75 42.05
L 19.75 42
Q 19.7 39.4 22.25 39.05 55.8 36.4 77.95 29.95 78 29.95 78.45 30.45 80.5 32.65 82.3 37.4
M 20.95 69.8
Q 21.35 70.05 22 70
L 21.95 70.05
Q 53.7 67.65 78.15 60.95 80.35 59.75 80.3 59.05 80.25 59.7 77.95 60.95 53 67.3 20.95 69.8 Z"/>

<path fill="#4F4F4F" stroke="none" d="
M 83.4 49.35
Q 84.2 42.5 82.3 37.4 80.5 32.65 78.45 30.45 78 29.95 77.95 29.95 55.8 36.4 22.25 39.05 19.7 39.4 19.75 42
L 19.75 42.05
Q 20.25 48.75 20.25 68.75 20.4 69.45 20.95 69.8 53 67.3 77.95 60.95 80.25 59.7 80.3 59.05 82.55 56.2 83.4 49.35
M 58.4 41.5
Q 59.65 41.45 60.55 41.9 61.45 42.3 62 43.25 62.5 44.15 62.5 45.7 62.5 47.6 61.55 49.1 60.55 50.65 58.7 51.35
L 63.2 57.9 58.5 58.9 54.8 52.6 52.9 53 52.9 60.1 49 60.95 49 43.25 55.85 41.8
Q 57.2 41.5 58.4 41.5
M 70.7 38.55
L 74.2 37.8 74.2 55.5 70.6 56.3 70.6 42.8 67.05 46.65 64.95 44.65 70.7 38.55
M 55.45 45.15
L 52.9 45.7 52.9 49.7 55.2 49.2
Q 55.7 49.1 56.3 49 56.9 48.8 57.35 48.5 57.85 48.2 58.15 47.75 58.45 47.3 58.45 46.55 58.45 45.9 58.2 45.55 57.9 45.2 57.5 45.1 57.05 44.95 56.55 45 56 45.05 55.45 45.15 Z"/>

<path fill="#8F8F8F" stroke="none" d="
M 74.2 37.8
L 70.7 38.55 64.95 44.65 67.05 46.65 70.6 42.8 70.6 56.3 74.2 55.5 74.2 37.8
M 60.55 41.9
Q 59.65 41.45 58.4 41.5 57.2 41.5 55.85 41.8
L 49 43.25 49 60.95 52.9 60.1 52.9 53 54.8 52.6 58.5 58.9 63.2 57.9 58.7 51.35
Q 60.55 50.65 61.55 49.1 62.5 47.6 62.5 45.7 62.5 44.15 62 43.25 61.45 42.3 60.55 41.9
M 52.9 45.7
L 55.45 45.15
Q 56 45.05 56.55 45 57.05 44.95 57.5 45.1 57.9 45.2 58.2 45.55 58.45 45.9 58.45 46.55 58.45 47.3 58.15 47.75 57.85 48.2 57.35 48.5 56.9 48.8 56.3 49 55.7 49.1 55.2 49.2
L 52.9 49.7 52.9 45.7 Z"/>
</g>

<path id="Layer1_0_1_STROKES" stroke="#1B1B1B" stroke-width="5" stroke-linejoin="round" stroke-linecap="round" fill="none" d="
M 76.8 21.35
Q 84.15 21.35 87.55 27.2 95.35 40.6 90.05 58.1 87.65 66.05 80 69.2 53.25 76.1 18.25 78.6 9.2 79.15 8.5 69.35 8.5 49.45 7.95 42.85 7 31.9 17.2 30.55 53.35 27.85 76.8 21.35 Z"/>

<path id="Layer1_0_2_STROKES" stroke="#626262" stroke-width="4" stroke-linejoin="round" stroke-linecap="round" fill="none" d="
M 80.3 59.05
Q 82.55 56.2 83.4 49.35 84.2 42.5 82.3 37.4 80.5 32.65 78.45 30.45 78 29.95 77.95 29.95 55.8 36.4 22.25 39.05 19.7 39.4 19.75 42
L 19.75 42.05
Q 20.25 48.75 20.25 68.75 20.4 69.45 20.95 69.8
M 80.3 59.05
Q 80.35 59.75 78.15 60.95 53.7 67.65 21.95 70.05
L 22 70
Q 21.35 70.05 20.95 69.8"/>

</defs>

<g transform="matrix( 1, 0, 0, 1, 0,0) ">
<use xlink:href="#Layer1_0_FILL"/>

<use xlink:href="#Layer1_0_1_STROKES"/>

<use xlink:href="#Layer1_0_2_STROKES"/>
</g>

<g transform="matrix( 1, 0, 0, 1, -3.4,-28) ">
<clipPath id="Mask_Mask_1">
<rect x="8.35" y="-2" width="90.1" height="20.8" fill="#FFFFFF" stroke="none"/>
</clipPath>

<text clip-path="url(#Mask_Mask_1)" writing-mode="lr"><tspan x="10.45" y="13.6" baseline-shift="0%" kerning="auto" font-family="Arial_Regular" font-size="15" fill="#999999" xml:space="preserve">Playstation 3</tspan></text>
</g>
</svg>
