
<svg xmlns="http://www.w3.org/2000/svg" version="1.1" xmlns:xlink="http://www.w3.org/1999/xlink" x="0px" y="0px" viewBox="0 0 100 100">
<defs>
<g id="Layer1_0_FILL">
<path fill="#1B1B1B" stroke="none" d="
M 49.7 65.8
L 46.5 65.8 38.85 83.5 43.1 83.5 44.6 79.75 51.45 79.75 53 83.5 57.4 83.5 49.7 65.8
M 50.15 76.45
L 45.8 76.45 48 70.95 50.15 76.45
M 68.6 66.05
Q 67.4 65.8 66.05 65.8
L 59.2 65.8 59.2 83.5 63.1 83.5 63.1 76.4 65 76.4 68.7 83.5 73.4 83.5 68.9 76
Q 70.75 75.7 71.75 74.35 72.7 73.05 72.7 71.15 72.7 69.6 72.2 68.6 71.65 67.55 70.75 66.95 69.85 66.3 68.6 66.05
M 65.4 73.1
L 63.1 73.1 63.1 69.1 65.65 69.1
Q 66.2 69.1 66.75 69.15 67.25 69.25 67.7 69.45 68.1 69.65 68.4 70.05 68.65 70.5 68.65 71.15 68.65 71.9 68.35 72.25 68.05 72.65 67.55 72.85 67.1 73.05 66.5 73.1 65.9 73.1 65.4 73.1
M 26.95 65.8
L 26.95 69.25 32 69.25 32 83.5 35.9 83.5 35.9 69.25 40.95 69.25 40.95 65.8 26.95 65.8
M 23 70.1
L 25.7 67.2
Q 24.55 66.2 23.15 65.8 21.75 65.35 20.25 65.35 18.95 65.35 17.7 65.7 16.5 66.05 15.55 66.8 14.6 67.5 14.05 68.6 13.5 69.65 13.5 71.1 13.5 72.55 14.1 73.5 14.75 74.35 15.65 74.95 16.6 75.5 17.65 75.8 18.75 76.15 19.65 76.45 20.6 76.75 21.2 77.25 21.8 77.7 21.8 78.5 21.8 78.95 21.6 79.35 21.35 79.7 20.95 79.9 20.55 80.15 20.1 80.25 19.6 80.35 19.1 80.35 18.15 80.35 17.2 79.9 16.3 79.45 15.7 78.7
L 12.95 81.75
Q 14.2 82.9 15.7 83.45 17.15 83.95 18.9 83.95 20.25 83.95 21.5 83.6 22.75 83.25 23.65 82.5 24.6 81.8 25.15 80.7 25.7 79.6 25.7 78.15 25.7 76.6 25.1 75.65 24.5 74.7 23.6 74.15 22.7 73.6 21.65 73.3 20.6 73.05 19.65 72.7 18.75 72.45 18.15 72 17.55 71.55 17.55 70.8 17.55 70.3 17.8 69.95 18.05 69.55 18.45 69.35 18.85 69.15 19.3 69.05 19.75 68.95 20.2 68.95 20.9 68.95 21.7 69.25 22.55 69.5 23 70.1
M 82.25 83.5
L 82.25 69.25 87.3 69.25 87.3 65.8 73.3 65.8 73.3 69.25 78.35 69.25 78.35 83.5 82.25 83.5 Z"/>

<path fill="#313131" stroke="none" d="
M 84.6 40.55
L 84.6 29.5 15.4 13.45 15.4 56.6 84.6 40.55
M 22.9 47.2
L 22.9 22.9 75.25 35.05 22.9 47.2 Z"/>

<path fill="#4F4F4F" stroke="none" d="
M 22.9 22.9
L 22.9 47.2 75.25 35.05 22.9 22.9 Z"/>
</g>

<path id="Layer1_0_1_STROKES" stroke="#1B1B1B" stroke-width="5" stroke-linejoin="round" stroke-linecap="round" fill="none" d="
M 84.6 29.5
L 84.6 40.55 15.4 56.6 15.4 13.45 84.6 29.5 Z"/>

<path id="Layer1_0_2_STROKES" stroke="#626262" stroke-width="4" stroke-linejoin="round" stroke-linecap="round" fill="none" d="
M 22.9 47.2
L 22.9 22.9 75.25 35.05 22.9 47.2 Z"/>

</defs>

<g transform="matrix( 1, 0, 0, 1, 0,0) ">
<use xlink:href="#Layer1_0_FILL"/>

<use xlink:href="#Layer1_0_1_STROKES"/>

<use xlink:href="#Layer1_0_2_STROKES"/>
</g>

<g transform="matrix( 1, 0, 0, 1, -3.4,-28) ">
<clipPath id="Mask_Mask_1">
<rect x="8.35" y="-2" width="90.1" height="20.8" fill="#FFFFFF" stroke="none"/>
</clipPath>

<text clip-path="url(#Mask_Mask_1)" writing-mode="lr"><tspan x="10.45" y="13.6" baseline-shift="0%" kerning="auto" font-family="Arial_Regular" font-size="15" fill="#999999" xml:space="preserve">Playstation 3</tspan></text>
</g>
</svg>
