
<svg xmlns="http://www.w3.org/2000/svg" version="1.1" xmlns:xlink="http://www.w3.org/1999/xlink" x="0px" y="0px" viewBox="0 0 100 100">
<defs>
<g id="Layer1_0_FILL">
<path fill="#FFFFFF" stroke="none" d="
M -159.7 92.85
L -157.55 93.05 -157.5 93.05
Q -155 93.25 -152.8 93.25 -150.45 93.25 -146.7 92.95
L -146.65 92.95
Q -142.8 92.4 -140.55 89.95
L -140.55 90
Q -138.35 87.65 -138.5 84.1
L -138.5 84.05 -139.05 75.8 -140.05 83.8
Q -140.4 86.85 -142 88.6 -143.8 90.5 -146.95 90.95
L -146.85 90.95
Q -150.55 91.25 -152.8 91.25 -154.9 91.25 -157.35 91.05
L -159.45 90.85
Q -162.15 90.5 -163.6 88.7
L -163.65 88.7
Q -165.2 86.9 -165.5 84.2
L -166.5 75.7 -167.05 84.1
Q -167.3 87.6 -165.15 89.95
L -165.15 90
Q -163.25 92.4 -159.7 92.85
M -202.4 48.5
Q -202.4 46.55 -202.2 44.3
L -201.95 42.3 -202 42.35
Q -201.45 39.35 -200.3 38.25 -198.4 36.65 -193.9 36.15
L -183.55 34.95 -193.55 34.85
Q -199.4 34.65 -201.65 36.75 -203.25 38.15 -203.95 42
L -204.2 44
Q -204.2 44.05 -204.2 44.1 -204.4 46.45 -204.4 48.5 -204.4 50.7 -204.1 54.15 -204.1 54.2 -204.1 54.25 -203.35 58.1 -200.95 59.8
L -200.95 59.85
Q -198.45 61.65 -193.55 61.5
L -183.65 60.75 -193.85 60.1
Q -197.7 59.65 -199.75 58.2
L -199.8 58.2
Q -201.55 56.85 -202.15 53.9
L -202.1 53.95
Q -202.4 50.6 -202.4 48.5
M -103.3 44.3
Q -103.1 46.55 -103.1 48.5 -103.1 50.6 -103.4 53.95
L -103.35 53.9
Q -103.95 56.85 -105.7 58.2
L -105.75 58.2
Q -107.8 59.65 -111.65 60.1
L -121.85 60.75 -111.95 61.5
Q -107.05 61.65 -104.55 59.85
L -104.55 59.8
Q -102.15 58.1 -101.4 54.25 -101.4 54.2 -101.4 54.15 -101.1 50.7 -101.1 48.5 -101.1 46.45 -101.3 44.1 -101.3 44.05 -101.3 44
L -101.55 42
Q -102.25 38.15 -103.85 36.75 -106.1 34.65 -111.95 34.85
L -121.95 34.95 -111.6 36.15
Q -107.1 36.65 -105.2 38.25 -104.05 39.35 -103.5 42.35
L -103.55 42.3 -103.3 44.3
M -157.55 -0.75
L -159.7 -0.55
Q -163.25 -0.1 -165.15 2.3
L -165.15 2.35
Q -167.3 4.7 -167.05 8.2
L -166.5 16.6 -165.5 8.1
Q -165.2 5.4 -163.65 3.6
L -163.6 3.6
Q -162.15 1.8 -159.45 1.45
L -157.35 1.25
Q -154.9 1.05 -152.8 1.05 -150.55 1.05 -146.85 1.35
L -146.95 1.35
Q -143.8 1.8 -142 3.7 -140.4 5.45 -140.05 8.5
L -139.05 16.5 -138.5 8.25 -138.5 8.2
Q -138.35 4.65 -140.55 2.3
L -140.55 2.35
Q -142.8 -0.1 -146.65 -0.65
L -146.7 -0.65
Q -150.45 -0.95 -152.8 -0.95 -155 -0.95 -157.5 -0.75
L -157.55 -0.75
M -179.35 -22.9
Q -188.3 -19.8 -196 -14.8 -203.7 -9.9 -210.05 -3.3 -216.25 3.2 -220.75 11.1 -225.45 19.1 -227.75 27.95 -230.15 36.8 -230.15 46.05 -230.1 51.75 -229.2 57.1 -227.75 66.25 -224.05 74.6 -220.4 82.9 -214.8 90 -209.2 97.1 -201.95 102.75 -194.75 108.35 -186.4 112.2 -177.75 116.2 -168.3 118 -158.65 119.75 -149.05 119.35 -139.4 118.95 -130.15 116.2 -121.8 113.75 -114.25 109.7 -105.55 104.75 -98.35 98.05 -92.25 92.25 -87.7 85.25 -82.35 77.1 -79.25 67.8
L -79.25 67.75
Q -76.4 59.1 -75.9 49.8 -75.4 40.45 -77.3 31.45 -78.8 24.45 -81.7 17.75 -79.55 24.75 -78.45 32.7 -77.35 40.6 -77.85 49.7 -78.4 58.7 -81.15 67.15 -84.15 76.2 -89.35 84.15
L -89.4 84.15
Q -93.85 90.95 -99.75 96.6
L -99.7 96.6
Q -106.75 103.15 -115.25 107.95
L -115.2 107.95
Q -122.6 111.95 -130.7 114.3 -139.7 116.95 -149.15 117.35 -158.55 117.75 -167.95 116.05 -177.15 114.3 -185.55 110.4 -193.65 106.65 -200.7 101.15 -207.8 95.7 -213.25 88.75 -218.7 81.9 -222.2 73.8 -225.85 65.65 -227.25 56.8 -228.1 51.55 -228.15 46.05 -228.15 37.1 -225.8 28.45 -223.55 19.9 -219 12.1 -214.65 4.4 -208.6 -1.9 -202.4 -8.3 -194.9 -13.1 -187.4 -18 -178.7 -21 -169.9 -24.05 -160.55 -24.95 -151 -25.9 -141.75 -24.7 -132.55 -23.6 -125 -21.05 -117.5 -18.55 -108.8 -14.1
L -109.6 -14.65
Q -115.95 -18.75 -122.95 -21.55 -131.85 -25.15 -141.35 -26.5 -150.95 -27.9 -160.75 -26.95 -170.3 -26.05 -179.35 -22.9
M -33.9 137.2
Q -28.65 142 -26.6 147.05 -25.85 149.15 -25.6 151.25 -25.6 151.4 -25.55 151.55 -25.3 154.55 -25.45 157.35 -25.65 159.3 -26.05 161.2 -26.6 163 -27.35 164.75 -26.15 163 -25.25 161.2 -24.5 159.35 -24.05 157.35 -23.75 155.55 -23.65 153.65 -23.6 152.6 -23.65 151.55 -23.8 149.25 -24.35 147.05 -26.15 140.3 -31.85 135 -39.8 127.7 -50.9 127.4
L -51.65 127.35
Q -51.75 127.35 -51.85 127.35 -51.9 127.35 -52 127.35 -52.65 127.35 -53.3 127.4 -54.5 127.4 -55.65 127.55 -65.05 128.6 -72 135 -77.7 140.3 -79.5 147.05 -80.05 149.25 -80.2 151.55 -80.25 152.6 -80.2 153.65 -80.1 155.55 -79.8 157.35 -79.35 159.35 -78.6 161.2 -77.7 163 -76.5 164.75 -77.25 163 -77.8 161.2 -78.2 159.3 -78.4 157.35 -78.55 154.55 -78.3 151.55 -78.25 151.4 -78.25 151.25 -78 149.15 -77.25 147.05 -75.2 142 -69.95 137.2 -63.85 131.6 -55.65 130.6 -54.5 130.4 -53.3 130.4 -53 130.35 -52.7 130.35
L -51.85 130.35
Q -51.7 130.35 -51.5 130.35
L -51.25 130.35
Q -50.9 130.35 -50.55 130.4 -40.9 130.8 -33.9 137.2
M -130.25 178.5
L -129.45 177.25
Q -123.35 167.1 -112.15 162.35 -110.7 161.7 -108.75 160.1 -108.5 160.95 -107.75 160.75
L -106.1 160.2 -106.75 158.85 -107.15 157.45 -108.6 157.85
Q -110.9 158.55 -113.3 159.6 -125.45 164.7 -130.25 178.5
M -106.5 114.3
Q -111.6 122.4 -111.7 134.05 -111.8 145.7 -103.9 158.25 -103.7 158.5 -103.5 158.85
L -102.65 160.1 -101.4 159.25 -100.15 158.45 -101 157.2
Q -109 145.05 -109 129.9 -109 122.6 -106.9 115.65
L -106.5 114.3
M 41.45 133.15
L 40.8 133.55
Q 40.3 134 40.7 134.55
L 41.1 134.85
Q 41.5 135.15 42.2 135.3 44.05 135.8 45.6 135.8 46.85 135.8 47.45 135.7
L 48 135.6 48 134 47.95 134 46.35 134.55
Q 45.4 134.85 44.35 134.7
L 43.9 134.55
Q 43.65 134.45 43.85 134.25
L 44 134.15 47.95 132.85 48.05 132.75 48.05 131 41.45 133.15
M 53 134.3
L 53.1 134.25
Q 55.95 133.4 56.45 133.2 57.55 132.9 58.2 132.9 59 133.05 59.05 133.05 59.55 133.2 59.1 133.5
L 58.7 133.7 53.05 135.45 53 135.55 53 137.3 61.25 134.65
Q 61.85 134.4 62.2 134.05 62.7 133.6 62.25 133.05
L 61.65 132.7
Q 61.05 132.4 59.95 132.1 57.75 131.65 55.75 131.85 54.15 132.05 53.1 132.4 53 132.4 53 132.5
L 53 134.3
M 49.75 122.75
L 48.75 122.55 48.75 136.4 48.8 136.55 52.2 137.5 52.3 137.5 52.3 125.7
Q 52.3 125.4 52.5 125.2 52.65 125 53 125 53.5 125.15 53.65 125.6
L 53.75 126.25 53.7 130.8
Q 53.7 130.85 53.8 130.95 54.4 131.15 55.1 131.25 56.35 131.35 57.05 130.5 57.55 129.9 57.65 129.05 57.8 128.1 57.55 127 57.25 125.55 55.85 124.65 55.05 124.2 53.95 123.85 51.35 123.1 49.75 122.75
M 211.4 157.9
L 209.95 157.5 209.55 158.9 208.9 160.25 210.55 160.8
Q 211.3 161 211.55 160.15 213.5 161.75 214.95 162.4 226.15 167.15 232.25 177.3
L 233.05 178.55
Q 228.25 164.75 216.1 159.65 213.7 158.6 211.4 157.9
M 173.1 137.2
Q 178.35 142 180.4 147.05 181.15 149.15 181.4 151.25 181.4 151.4 181.45 151.55 181.7 154.55 181.55 157.35 181.35 159.3 180.95 161.2 180.4 163 179.65 164.75 180.85 163 181.75 161.2 182.5 159.35 182.95 157.35 183.25 155.55 183.35 153.65 183.4 152.6 183.35 151.55 183.2 149.25 182.65 147.05 180.85 140.3 175.15 135 167.2 127.7 156.1 127.4
L 155.35 127.35
Q 155.25 127.35 155.15 127.35 155.1 127.35 155 127.35 154.35 127.35 153.7 127.4 152.5 127.4 151.35 127.55 141.95 128.6 135 135 129.3 140.3 127.5 147.05 126.95 149.25 126.8 151.55 126.75 152.6 126.8 153.65 126.9 155.55 127.2 157.35 127.65 159.35 128.4 161.2 129.3 163 130.5 164.75 129.75 163 129.2 161.2 128.8 159.3 128.6 157.35 128.45 154.55 128.7 151.55 128.75 151.4 128.75 151.25 129 149.15 129.75 147.05 131.8 142 137.05 137.2 143.15 131.6 151.35 130.6 152.5 130.4 153.7 130.4 154 130.35 154.3 130.35
L 155.15 130.35
Q 155.3 130.35 155.5 130.35
L 155.75 130.35
Q 156.1 130.35 156.45 130.4 166.1 130.8 173.1 137.2
M 214.5 134.1
Q 214.4 122.45 209.3 114.35
L 209.7 115.7
Q 211.8 122.65 211.8 129.95 211.8 145.1 203.8 157.25
L 202.95 158.5 204.2 159.3 205.45 160.15 206.3 158.9
Q 206.5 158.55 206.7 158.3 214.6 145.75 214.5 134.1
M 225.95 -21.55
Q 218.95 -18.75 212.6 -14.65
L 211.8 -14.1
Q 220.5 -18.55 228 -21.05 235.55 -23.6 244.75 -24.7 254 -25.9 263.55 -24.95 272.9 -24.05 281.7 -21 290.4 -18 297.9 -13.1 305.4 -8.3 311.6 -1.9 317.65 4.4 322 12.1 326.55 19.9 328.8 28.45 331.15 37.1 331.15 46.05 331.1 51.55 330.25 56.8 328.85 65.65 325.2 73.8 321.7 81.9 316.25 88.75 310.8 95.7 303.7 101.15 296.65 106.65 288.55 110.4 280.15 114.3 270.95 116.05 261.55 117.75 252.15 117.35 242.7 116.95 233.7 114.3 225.6 111.95 218.2 107.95
L 218.25 107.95
Q 209.75 103.15 202.7 96.6
L 202.75 96.6
Q 196.85 90.95 192.4 84.15
L 192.35 84.15
Q 187.15 76.2 184.15 67.15 181.4 58.7 180.85 49.7 180.35 40.6 181.45 32.7 182.55 24.75 184.7 17.75 181.8 24.45 180.3 31.45 178.4 40.45 178.9 49.8 179.4 59.1 182.25 67.75
L 182.25 67.8
Q 185.35 77.1 190.7 85.25 195.25 92.25 201.35 98.05 208.55 104.75 217.25 109.7 224.8 113.75 233.15 116.2 242.4 118.95 252.05 119.35 261.65 119.75 271.3 118 280.75 116.2 289.4 112.2 297.75 108.35 304.95 102.75 312.2 97.1 317.8 90 323.4 82.9 327.05 74.6 330.75 66.25 332.2 57.1 333.1 51.75 333.15 46.05 333.15 36.8 330.75 27.95 328.45 19.1 323.75 11.1 319.25 3.2 313.05 -3.3 306.7 -9.9 299 -14.8 291.3 -19.8 282.35 -22.9 273.3 -26.05 263.75 -26.95 253.95 -27.9 244.35 -26.5 234.85 -25.15 225.95 -21.55
M -169.85 -76.25
Q -174.45 -76.55 -177.2 -77.05 -177.25 -77.1 -177.3 -77.05 -177.85 -77.15 -178.35 -77.3 -180.25 -77.8 -180.45 -78.05 -182.1 -78.8 -182.65 -80.65
L -182.95 -80
Q -183.35 -79.05 -183.4 -78.1 -183.4 -78 -183.4 -77.95 -183.65 -75.6 -179.05 -74.4 -178.45 -74.25 -177.65 -74.1
L -177.7 -74.1
Q -174.85 -73.55 -170.05 -73.25 -158.85 -72.5 -144.85 -73.7 -129.85 -75 -122.25 -77.7 -114.8 -80.4 -115.9 -84.1
L -116.25 -85.55
Q -116.65 -83.5 -118.6 -82.4 -118.75 -82.15 -123.2 -80.55
L -123.25 -80.55
Q -130.5 -78 -145.1 -76.7 -158.85 -75.5 -169.85 -76.25
M 226.05 -80.5
L 226 -80.5
Q 221.55 -82.1 221.4 -82.35 219.45 -83.45 219.05 -85.5
L 218.7 -84.05
Q 217.6 -80.35 225.05 -77.65 232.65 -74.95 247.65 -73.65 261.65 -72.45 272.85 -73.2 277.65 -73.5 280.5 -74.05
L 280.45 -74.05
Q 281.25 -74.2 281.85 -74.35 286.45 -75.55 286.2 -77.9 286.2 -77.95 286.2 -78.05 286.15 -79 285.75 -79.95
L 285.45 -80.6
Q 284.9 -78.75 283.25 -78 283.05 -77.75 281.15 -77.25 280.65 -77.1 280.1 -77 280.05 -77.05 280 -77 277.25 -76.5 272.65 -76.2 261.65 -75.45 247.9 -76.65 233.3 -77.95 226.05 -80.5
M -48.6 -30.4
Q -49.05 -31.85 -49.65 -30.4
L -49.65 27.75 -48.65 27.75 -47.65 27.75 -48.6 -30.4
M 152.45 -30.3
Q 151.85 -31.75 151.4 -30.3
L 150.45 27.85 151.45 27.85 152.45 27.85 152.45 -30.3 Z"/>
</g>

<path id="Layer1_0_1_STROKES" stroke="#FFFFFF" stroke-width="3" stroke-linejoin="round" stroke-linecap="round" fill="none" d="
M 160.7 -58.2
L 160.7 -58.25
Q 160.65 -60.8 158.9 -62.55 157.15 -64.3 154.65 -64.35 48.45 -70.25 -51.85 -64.4 -54.35 -64.35 -56.1 -62.6 -57.85 -60.85 -57.9 -58.3
L -57.9 -58.25
Q -57.9 -58.1 -57.85 -57.95 -57.85 -57.75 -57.85 -57.5 -57.85 -57.35 -57.85 -57.2
L -57.85 55.7
Q -57.85 60.55 -54.4 63.95 -51 67.35 -46.15 67.35
L 148.95 67.4
Q 153.8 67.4 157.2 64 160.65 60.6 160.65 55.75
L 160.65 -57.15
Q 160.65 -57.3 160.65 -57.45 160.65 -57.7 160.65 -57.9 160.7 -58.05 160.7 -58.2 Z
M 160.7 -58.25
Q 160.95 -60.3 162.45 -61.8 164.2 -63.55 166.7 -63.6
L 179.35 -63.6
Q 192 -63.45 196.7 -69.85 200.25 -74.8 204.25 -76.65 208.25 -78.55 210.65 -78.55 211.1 -80.15 211.75 -81.7
L 211.95 -82.2
Q 210.7 -88.1 215.3 -97 219.95 -105.95 224.2 -109.85 228.5 -113.8 241 -115.4 253.5 -117.05 261.5 -113.65 269.5 -110.3 274.35 -105.45 279.25 -100.65 284.5 -92.6 285.45 -90.85 285.15 -87.15 290.4 -84.7 292 -81.65 292.2 -81.35 292.3 -81.05
L 293.7 -78.35
Q 295.3 -74.05 294.85 -69.05 294.1 -67.55 292.9 -66.55 282.35 -63.1 252.4 -64.1 224.05 -65.05 211.65 -71.4 209.9 -72.5 209.9 -74.6 209.9 -75.6 210.1 -76.55 210.35 -77.55 210.65 -78.55
M 285.15 -87.15
Q 283.8 -87.75 282.25 -88.35 273.4 -91.65 259.45 -93 246.2 -94.25 234.1 -93.25 221.45 -92.2 216.05 -89.05 214.05 -87.6 213.7 -86.25
L 211.95 -82.2
M 185.35 2.7
L 185.3 2.7
Q 180.6 2.7 177.3 -0.65 174 -3.95 174 -8.65
L 174 -26.3
Q 174 -31 177.3 -34.3 180.6 -37.65 185.3 -37.65
L 185.35 -37.65
Q 190.05 -37.65 193.35 -34.3 196.65 -31 196.65 -26.3
L 196.65 -8.65
Q 196.65 -3.95 193.35 -0.65 190.05 2.7 185.35 2.7 Z
M 211.55 160.15
Q 215.85 168.45 220.55 181.5 221.5 184.2 222.4 186.6 225.85 196.45 230.05 206 234.7 216.35 240.55 225.95 247 236.65 255.75 245.6 257.6 247.4 259.5 249.05 282.45 269.05 311.95 264.1 332.15 260.7 345.4 249.05 351.55 243.65 356.2 236.5 365.45 222.35 369.1 200.85 370.75 189.4 370.8 177.85 370.9 165.95 370.05 154.05 369.95 152.45 369.85 150.85 368.4 131.8 365.9 114.4 362.55 91.6 356 63.2 340.6 -3.75 320.1 -42.9 312.45 -57.55 305.15 -66.05 304.15 -67.2 303.2 -68.2 298.45 -73.25 295.3 -73.9
M 277.95 2.75
Q 277.75 -6.6 271.2 -13.1 264.75 -19.7 255.7 -19.7 246.65 -19.7 240.5 -13.1 234.25 -6.6 234.45 2.75 234.65 12.05 241.2 18.6 247.75 25.2 256.7 25.2 265.7 25.2 271.9 18.6 278.15 12.05 277.95 2.75 Z
M 317.8 47.95
Q 317.8 42.35 313.7 38.45 309.65 34.5 303.85 34.5 298.05 34.5 294 38.45 289.9 42.35 289.9 47.95 289.9 53.5 294 57.45 298.1 61.4 303.85 61.4 309.6 61.4 313.7 57.45 317.8 53.5 317.8 47.95 Z
M 324.9 46.4
Q 324.7 37.05 318.15 30.55 311.7 23.95 302.65 23.95 293.6 23.95 287.45 30.55 281.2 37.05 281.4 46.4 281.6 55.7 288.15 62.25 294.7 68.85 303.65 68.85 312.65 68.85 318.85 62.25 325.1 55.7 324.9 46.4 Z
M 266.7 80.3
L 256.45 90.6 266.7 100.85
M 277.95 89.6
Q 277.75 80.25 271.2 73.75 264.75 67.15 255.7 67.15 246.65 67.15 240.5 73.75 234.25 80.25 234.45 89.6 234.65 98.9 241.2 105.45 247.75 112.05 256.7 112.05 265.7 112.05 271.9 105.45 278.15 98.9 277.95 89.6 Z
M 246.15 80.3
L 256.45 90.6 246.15 100.85
M 231.35 46.4
Q 231.15 37.05 224.6 30.55 218.15 23.95 209.1 23.95 200.05 23.95 193.9 30.55 187.65 37.05 187.85 46.4 188.05 55.7 194.6 62.25 201.15 68.85 210.1 68.85 219.1 68.85 225.3 62.25 231.55 55.7 231.35 46.4 Z
M 219.7 57.4
L 199.15 57.1 199.15 37.2 219.7 37.45 219.7 57.4 Z
M 206.7 158.3
Q 208.1 158.5 209.55 158.9
M 204.2 159.3
Q 200.7 164.25 195.85 168.75 187.25 176.65 176.7 180.55 167.25 187.5 154.85 187.5 139.35 187.5 128.35 176.5 120.9 169.05 118.55 159.5 113.25 150.35 113.25 139 113.25 121.75 125.45 109.55 137.6 97.35 154.85 97.35 172.1 97.35 184.3 109.55 196.5 121.75 196.5 139 196.5 144.7 194.95 150.3 193.6 155.15 191.25 159.35 188.9 169 181.35 176.5 179.15 178.75 176.7 180.55
M 191.25 159.35
Q 192.35 154.9 192.35 150 192.35 134.5 181.35 123.5 170.4 112.55 154.85 112.55 139.35 112.55 128.35 123.5 117.4 134.5 117.4 150 117.4 155 118.55 159.5
M 242.75 11.15
L 256.45 -12.35 270.2 11.15 242.75 11.15 Z
M 34.5 130.55
Q 34.9 135.8 39.45 139.55 44.4 143.75 51.5 143.75 58.55 143.75 63.55 139.55 68.4 135.5 68.55 129.8
L 68.55 129.5
Q 68.55 129.3 68.55 129.1
L 68.55 128.65
Q 68.55 128.5 68.55 128.35 68.4 122.65 63.55 118.6 58.55 114.4 51.5 114.4 44.4 114.4 39.45 118.6 34.9 122.35 34.5 127.6 34.5 128.35 34.45 129.1 34.5 129.85 34.5 130.55 34.45 130.05 34.45 129.5 34.45 129.3 34.45 129.1 34.45 128.9 34.45 128.65 34.45 128.1 34.5 127.6
M 134.85 182.2
Q 121.9 178.3 111.55 168.75 106.55 164.15 102.4 157.75
L 1.05 157.75
Q -3.45 163.85 -8.75 168.7 -19.25 178.35 -32.5 182.05 -41.2 187.5 -52.15 187.5 -64.25 187.5 -73.6 180.8 -84.25 176.8 -93.05 168.7 -97.9 164.2 -101.4 159.25
M -103.9 158.25
Q -105.3 158.45 -106.75 158.85
M -108.75 160.1
Q -113.05 168.4 -117.75 181.45 -118.7 184.15 -119.6 186.55 -123.05 196.4 -127.25 205.95 -131.9 216.3 -137.75 225.9 -144.2 236.6 -152.95 245.55 -154.8 247.4 -156.75 249.05 -179.7 269 -209.15 264.05 -229.3 260.65 -242.55 249.05 -248.7 243.65 -253.4 236.45 -262.65 222.3 -266.3 200.8 -267.95 189.35 -268 177.8 -268.1 165.9 -267.25 154 -267.15 152.4 -267.05 150.8 -265.6 131.75 -263.1 114.35 -259.75 91.55 -253.2 63.15 -237.8 -3.8 -217.3 -42.95 -209.65 -57.6 -202.35 -66.1 -201.35 -67.25 -200.4 -68.25 -195.65 -73.3 -192.5 -73.95
M -57.9 -58.3
Q -58.15 -60.35 -59.65 -61.85 -61.4 -63.6 -63.9 -63.65
L -76.55 -63.65
Q -89.2 -63.5 -93.9 -69.9 -97.45 -74.85 -101.45 -76.7 -105.45 -78.6 -107.85 -78.6 -107.55 -77.6 -107.3 -76.6 -107.1 -75.65 -107.1 -74.65 -107.1 -72.55 -108.85 -71.45 -121.25 -65.1 -149.6 -64.15 -179.55 -63.15 -190.1 -66.6 -191.3 -67.6 -192.05 -69.1 -192.5 -74.1 -190.9 -78.4
L -189.5 -81.1
Q -189.4 -81.4 -189.2 -81.7 -187.6 -84.75 -182.35 -87.2 -182.65 -90.9 -181.7 -92.65 -176.45 -100.7 -171.55 -105.5 -166.7 -110.35 -158.7 -113.7 -150.7 -117.1 -138.2 -115.45 -125.7 -113.85 -121.4 -109.9 -117.15 -106 -112.5 -97.05 -107.9 -88.15 -109.15 -82.25
L -108.95 -81.75
Q -108.3 -80.2 -107.85 -78.6
M -182.35 -87.2
Q -181 -87.8 -179.45 -88.4 -170.6 -91.7 -156.65 -93.05 -143.4 -94.3 -131.3 -93.3 -118.65 -92.25 -113.25 -89.1 -111.25 -87.65 -110.9 -86.3
L -109.15 -82.25
M -153.35 39.25
Q -155.55 39.05 -157.15 37.5
L -166 28.9
Q -170.55 24.5 -170.95 18.05
L -171.8 4.8
Q -172.05 0.35 -169.45 -2.75 -166.9 -5.85 -162.5 -6.45
L -159.5 -6.7
Q -155.85 -7 -152.8 -7 -149.5 -7 -144.25 -6.6 -139.2 -5.9 -136.35 -2.8 -133.55 0.3 -133.85 4.8
L -134.7 18.05
Q -135.1 24.5 -139.65 28.9
L -148.45 37.5
Q -150.1 39.05 -152.2 39.25
L -152.7 39.25
Q -152.75 39.25 -152.8 39.25
L -153.35 39.25 Z
M -82.15 2.7
L -82.2 2.7
Q -86.9 2.7 -90.2 -0.65 -93.5 -3.95 -93.5 -8.65
L -93.5 -26.3
Q -93.5 -31 -90.2 -34.3 -86.9 -37.65 -82.2 -37.65
L -82.15 -37.65
Q -77.45 -37.65 -74.15 -34.3 -70.85 -31 -70.85 -26.3
L -70.85 -8.65
Q -70.85 -3.95 -74.15 -0.65 -77.45 2.7 -82.15 2.7 Z
M -144.1 41.85
L -135.05 33.05
Q -130.3 28.45 -123.6 28.05
L -109.65 27.25
Q -104.95 26.95 -101.65 29.55 -98.4 32.1 -97.75 36.5
L -97.45 39.55
Q -97.2 43.15 -97.2 46.2 -97.15 49.55 -97.6 54.8 -98.35 59.85 -101.6 62.65 -104.85 65.45 -109.65 65.2
L -123.6 64.35
Q -130.25 63.95 -135.05 59.4
L -144.1 50.55
Q -145.95 48.75 -145.95 46.2 -145.95 43.7 -144.1 41.85 Z
M -161.4 41.85
L -170.45 33.05
Q -175.2 28.45 -181.9 28.05
L -195.85 27.25
Q -200.55 26.95 -203.85 29.55 -207.1 32.1 -207.75 36.5
L -208.05 39.55
Q -208.3 43.15 -208.3 46.2 -208.35 49.55 -207.9 54.8 -207.15 59.85 -203.9 62.65 -200.65 65.45 -195.85 65.2
L -181.9 64.35
Q -175.25 63.95 -170.45 59.4
L -161.4 50.55
Q -159.55 48.75 -159.55 46.2 -159.55 43.7 -161.4 41.85 Z
M -153.35 53.05
Q -155.55 53.25 -157.15 54.8
L -166 63.4
Q -170.55 67.8 -170.95 74.25
L -171.8 87.5
Q -172.05 91.95 -169.45 95.05 -166.9 98.15 -162.5 98.75
L -159.5 99
Q -155.85 99.3 -152.8 99.3 -149.5 99.3 -144.25 98.9 -139.2 98.2 -136.35 95.1 -133.55 92 -133.85 87.5
L -134.7 74.25
Q -135.1 67.8 -139.65 63.4
L -148.45 54.8
Q -150.1 53.25 -152.2 53.05
L -152.7 53.05
Q -152.75 53.05 -152.8 53.05
L -153.35 53.05 Z
M -73.6 180.8
Q -76.25 178.9 -78.65 176.5 -86.1 169.05 -88.45 159.5 -93.75 150.35 -93.75 139 -93.75 121.75 -81.55 109.55 -69.4 97.35 -52.15 97.35 -34.9 97.35 -22.7 109.55 -10.5 121.75 -10.5 139 -10.5 144.7 -12.05 150.3 -13.4 155.15 -15.75 159.35 -18.1 169 -25.65 176.5 -28.9 179.75 -32.5 182.05
M -15.75 159.35
Q -14.65 154.9 -14.65 150 -14.65 134.5 -25.65 123.5 -36.6 112.55 -52.15 112.55 -67.65 112.55 -78.65 123.5 -89.6 134.5 -89.6 150 -89.6 155 -88.45 159.5"/>

<path id="Layer1_0_2_STROKES" stroke="#FFFFFF" stroke-width="2" stroke-linejoin="round" stroke-linecap="round" fill="none" d="
M 151.45 27.85
L 151.45 51.2
Q 151.45 54.25 149.3 56.4 147.15 58.6 144.05 58.6
L -41.25 58.55
Q -44.35 58.55 -46.5 56.35 -48.65 54.2 -48.65 51.15
L -48.65 27.75"/>

</defs>

<g transform="matrix( 1, 0, 0, 1, 0,0) ">
<use xlink:href="#Layer1_0_FILL"/>

<use xlink:href="#Layer1_0_1_STROKES"/>

<use xlink:href="#Layer1_0_2_STROKES"/>
</g>

<g transform="matrix( 1, 0, 0, 1, -3.4,-28) ">
<clipPath id="Mask_Mask_1">
<rect x="8.35" y="-2" width="90.1" height="20.8" fill="#FFFFFF" stroke="none"/>
</clipPath>

<text clip-path="url(#Mask_Mask_1)" writing-mode="lr"><tspan x="10.45" y="13.6" baseline-shift="0%" kerning="auto" font-family="Arial_Regular" font-size="15" fill="#999999" xml:space="preserve">Playstation 4</tspan></text>
</g>
</svg>
