
<svg xmlns="http://www.w3.org/2000/svg" version="1.1" xmlns:xlink="http://www.w3.org/1999/xlink" x="0px" y="0px" viewBox="0 0 100 100">
<defs>
<linearGradient id="Gradient_1" gradientUnits="userSpaceOnUse" x1="50" y1="21" x2="50" y2="79" spreadMethod="pad">
<stop  offset="0%" stop-color="#202020"/>

<stop  offset="23.137254901960784%" stop-color="#313131"/>
</linearGradient>

<g id="Layer1_0_FILL">
<path fill="url(#Gradient_1)" stroke="none" d="
M 96.25 27.3
Q 96.25 19.5 88.45 19.5
L 11.55 19.5
Q 3.75 19.5 3.75 27.3
L 3.75 72.7
Q 3.75 80.5 11.55 80.5
L 88.45 80.5
Q 96.25 80.5 96.25 72.7
L 96.25 27.3
M 94.55 35.35
Q 94.5 35.4 94.4 35.5 93.7 36.2 92.75 36.2 91.8 36.2 91.1 35.5 90.4 34.8 90.4 33.85 90.4 32.9 91.1 32.2 91.8 31.5 92.75 31.5 93.7 31.5 94.4 32.2 94.5 32.3 94.55 32.4
L 94.55 35.35
M 88.25 25.75
Q 89.2 25.75 89.9 26.45 90.6 27.15 90.6 28.1 90.6 29.05 89.9 29.75 89.2 30.45 88.25 30.45 87.3 30.45 86.6 29.75 85.9 29.05 85.9 28.1 85.9 27.15 86.6 26.45 87.3 25.75 88.25 25.75
M 83.05 36.2
Q 82.1 36.2 81.4 35.5 80.7 34.8 80.7 33.85 80.7 32.9 81.4 32.2 82.1 31.5 83.05 31.5 84 31.5 84.7 32.2 85.4 32.9 85.4 33.85 85.4 34.8 84.7 35.5 84 36.2 83.05 36.2
M 86.1 36.7
Q 86.8 36 87.75 36 88.7 36 89.4 36.7 90.1 37.4 90.1 38.35 90.1 39.3 89.4 40 88.7 40.7 87.75 40.7 86.8 40.7 86.1 40 85.4 39.3 85.4 38.35 85.4 37.4 86.1 36.7
M 82.55 41.75
Q 83.5 41.75 84.2 42.45 84.9 43.15 84.9 44.1 84.9 45.05 84.2 45.75 83.5 46.45 82.55 46.45 81.6 46.45 80.9 45.75 80.2 45.05 80.2 44.1 80.2 43.15 80.9 42.45 81.6 41.75 82.55 41.75
M 84.8 48.55
Q 84.8 47.6 85.5 46.9 86.2 46.2 87.15 46.2 87.75 46.2 88.2 46.45 88.6 46.65 88.9 46.95 89.6 47.65 89.6 48.6 89.6 49.55 88.9 50.25 88.2 50.95 87.25 50.95 86.65 50.95 86.2 50.7 85.8 50.5 85.5 50.2 84.8 49.5 84.8 48.55
M 90.6 45.75
Q 89.9 45.05 89.9 44.1 89.9 43.15 90.6 42.45 91.3 41.75 92.25 41.75 93.2 41.75 93.9 42.45 94.4 42.95 94.55 43.6
L 94.55 44.6
Q 94.4 45.25 93.9 45.75 93.2 46.45 92.25 46.45 91.3 46.45 90.6 45.75
M 91.65 51.95
Q 92.25 51.95 92.7 52.2 93.1 52.4 93.4 52.7 94.1 53.4 94.1 54.35 94.1 55.3 93.4 56 92.7 56.7 91.75 56.7 91.15 56.7 90.7 56.45 90.3 56.25 90 55.95 89.3 55.25 89.3 54.3 89.3 53.35 90 52.65 90.7 51.95 91.65 51.95
M 81.95 51.95
Q 82.55 51.95 83 52.2 83.4 52.4 83.7 52.7 84.4 53.4 84.4 54.35 84.4 55.3 83.7 56 83 56.7 82.05 56.7 81.45 56.7 81 56.45 80.6 56.25 80.3 55.95 79.6 55.25 79.6 54.3 79.6 53.35 80.3 52.65 81 51.95 81.95 51.95
M 85 60.45
Q 84.3 59.75 84.3 58.8 84.3 57.85 85 57.15 85.7 56.45 86.65 56.45 87.6 56.45 88.3 57.15 89 57.85 89 58.8 89 59.75 88.3 60.45 87.6 61.15 86.65 61.15 85.7 61.15 85 60.45
M 88.8 64.55
Q 88.8 63.6 89.5 62.9 90.2 62.2 91.15 62.2 92.1 62.2 92.8 62.9 93.5 63.6 93.5 64.55 93.5 65.5 92.8 66.2 92.1 66.9 91.15 66.9 90.2 66.9 89.5 66.2 88.8 65.5 88.8 64.55
M 86.15 66.7
Q 87.1 66.7 87.8 67.4 88.5 68.1 88.5 69.05 88.5 70 87.8 70.7 87.1 71.4 86.15 71.4 85.2 71.4 84.5 70.7 83.8 70 83.8 69.05 83.8 68.1 84.5 67.4 85.2 66.7 86.15 66.7
M 83.1 62.9
Q 83.8 63.6 83.8 64.55 83.8 65.5 83.1 66.2 82.4 66.9 81.45 66.9 80.5 66.9 79.8 66.2 79.1 65.5 79.1 64.55 79.1 63.6 79.8 62.9 80.5 62.2 81.45 62.2 82.4 62.2 83.1 62.9
M 89 73.15
Q 89.7 72.45 90.65 72.45 91.6 72.45 92.3 73.15 93 73.85 93 74.8 93 75.75 92.3 76.45 91.6 77.15 90.65 77.15 89.7 77.15 89 76.45 88.3 75.75 88.3 74.8 88.3 73.85 89 73.15
M 83.3 74.8
Q 83.3 75.75 82.6 76.45 81.9 77.15 80.95 77.15 80 77.15 79.3 76.45 78.6 75.75 78.6 74.8 78.6 73.85 79.3 73.15 80 72.45 80.95 72.45 81.9 72.45 82.6 73.15 83.3 73.85 83.3 74.8
M 57.5 29.75
Q 56.8 29.05 56.8 28.1 56.8 27.15 57.5 26.45 58.2 25.75 59.15 25.75 60.1 25.75 60.8 26.45 61.5 27.15 61.5 28.1 61.5 29.05 60.8 29.75 60.1 30.45 59.15 30.45 58.2 30.45 57.5 29.75
M 51.8 28.1
Q 51.8 29.05 51.1 29.75 50.4 30.45 49.45 30.45 48.5 30.45 47.8 29.75 47.1 29.05 47.1 28.1 47.1 27.15 47.8 26.45 48.5 25.75 49.45 25.75 50.4 25.75 51.1 26.45 51.8 27.15 51.8 28.1
M 51.6 33.85
Q 51.6 32.9 52.3 32.2 53 31.5 53.95 31.5 54.9 31.5 55.6 32.2 56.3 32.9 56.3 33.85 56.3 34.8 55.6 35.5 54.9 36.2 53.95 36.2 53 36.2 52.3 35.5 51.6 34.8 51.6 33.85
M 58.65 36
Q 59.6 36 60.3 36.7 61 37.4 61 38.35 61 39.3 60.3 40 59.6 40.7 58.65 40.7 57.7 40.7 57 40 56.3 39.3 56.3 38.35 56.3 37.4 57 36.7 57.7 36 58.65 36
M 41.4 26.45
Q 42.1 27.15 42.1 28.1 42.1 29.05 41.4 29.75 40.7 30.45 39.75 30.45 38.8 30.45 38.1 29.75 37.4 29.05 37.4 28.1 37.4 27.15 38.1 26.45 38.8 25.75 39.75 25.75 40.7 25.75 41.4 26.45
M 41.9 33.85
Q 41.9 32.9 42.6 32.2 43.3 31.5 44.25 31.5 45.2 31.5 45.9 32.2 46.6 32.9 46.6 33.85 46.6 34.8 45.9 35.5 45.2 36.2 44.25 36.2 43.3 36.2 42.6 35.5 41.9 34.8 41.9 33.85
M 48.95 36
Q 49.9 36 50.6 36.7 51.3 37.4 51.3 38.35 51.3 39.3 50.6 40 49.9 40.7 48.95 40.7 48 40.7 47.3 40 46.6 39.3 46.6 38.35 46.6 37.4 47.3 36.7 48 36 48.95 36
M 42.1 42.45
Q 42.8 41.75 43.75 41.75 44.7 41.75 45.4 42.45 46.1 43.15 46.1 44.1 46.1 45.05 45.4 45.75 44.7 46.45 43.75 46.45 42.8 46.45 42.1 45.75 41.4 45.05 41.4 44.1 41.4 43.15 42.1 42.45
M 41.6 38.35
Q 41.6 39.3 40.9 40 40.2 40.7 39.25 40.7 38.3 40.7 37.6 40 36.9 39.3 36.9 38.35 36.9 37.4 37.6 36.7 38.3 36 39.25 36 40.2 36 40.9 36.7 41.6 37.4 41.6 38.35
M 46 48.55
Q 46 47.6 46.7 46.9 47.4 46.2 48.35 46.2 48.95 46.2 49.4 46.45 49.8 46.65 50.1 46.95 50.8 47.65 50.8 48.6 50.8 49.55 50.1 50.25 49.4 50.95 48.45 50.95 47.85 50.95 47.4 50.7 47 50.5 46.7 50.2 46 49.5 46 48.55
M 51.8 42.45
Q 52.5 41.75 53.45 41.75 54.4 41.75 55.1 42.45 55.8 43.15 55.8 44.1 55.8 45.05 55.1 45.75 54.4 46.45 53.45 46.45 52.5 46.45 51.8 45.75 51.1 45.05 51.1 44.1 51.1 43.15 51.8 42.45
M 55.7 48.55
Q 55.7 47.6 56.4 46.9 57.1 46.2 58.05 46.2 58.65 46.2 59.1 46.45 59.5 46.65 59.8 46.95 60.5 47.65 60.5 48.6 60.5 49.55 59.8 50.25 59.1 50.95 58.15 50.95 57.55 50.95 57.1 50.7 56.7 50.5 56.4 50.2 55.7 49.5 55.7 48.55
M 76.9 26.45
Q 77.6 25.75 78.55 25.75 79.5 25.75 80.2 26.45 80.9 27.15 80.9 28.1 80.9 29.05 80.2 29.75 79.5 30.45 78.55 30.45 77.6 30.45 76.9 29.75 76.2 29.05 76.2 28.1 76.2 27.15 76.9 26.45
M 71.7 35.5
Q 71 34.8 71 33.85 71 32.9 71.7 32.2 72.4 31.5 73.35 31.5 74.3 31.5 75 32.2 75.7 32.9 75.7 33.85 75.7 34.8 75 35.5 74.3 36.2 73.35 36.2 72.4 36.2 71.7 35.5
M 76.4 36.7
Q 77.1 36 78.05 36 79 36 79.7 36.7 80.4 37.4 80.4 38.35 80.4 39.3 79.7 40 79 40.7 78.05 40.7 77.1 40.7 76.4 40 75.7 39.3 75.7 38.35 75.7 37.4 76.4 36.7
M 66.5 28.1
Q 66.5 27.15 67.2 26.45 67.9 25.75 68.85 25.75 69.8 25.75 70.5 26.45 71.2 27.15 71.2 28.1 71.2 29.05 70.5 29.75 69.8 30.45 68.85 30.45 67.9 30.45 67.2 29.75 66.5 29.05 66.5 28.1
M 62 32.2
Q 62.7 31.5 63.65 31.5 64.6 31.5 65.3 32.2 66 32.9 66 33.85 66 34.8 65.3 35.5 64.6 36.2 63.65 36.2 62.7 36.2 62 35.5 61.3 34.8 61.3 33.85 61.3 32.9 62 32.2
M 68.35 36
Q 69.3 36 70 36.7 70.7 37.4 70.7 38.35 70.7 39.3 70 40 69.3 40.7 68.35 40.7 67.4 40.7 66.7 40 66 39.3 66 38.35 66 37.4 66.7 36.7 67.4 36 68.35 36
M 61.5 42.45
Q 62.2 41.75 63.15 41.75 64.1 41.75 64.8 42.45 65.5 43.15 65.5 44.1 65.5 45.05 64.8 45.75 64.1 46.45 63.15 46.45 62.2 46.45 61.5 45.75 60.8 45.05 60.8 44.1 60.8 43.15 61.5 42.45
M 66.1 46.9
Q 66.8 46.2 67.75 46.2 68.35 46.2 68.8 46.45 69.2 46.65 69.5 46.95 70.2 47.65 70.2 48.6 70.2 49.55 69.5 50.25 68.8 50.95 67.85 50.95 67.25 50.95 66.8 50.7 66.4 50.5 66.1 50.2 65.4 49.5 65.4 48.55 65.4 47.6 66.1 46.9
M 72.85 41.75
Q 73.8 41.75 74.5 42.45 75.2 43.15 75.2 44.1 75.2 45.05 74.5 45.75 73.8 46.45 72.85 46.45 71.9 46.45 71.2 45.75 70.5 45.05 70.5 44.1 70.5 43.15 71.2 42.45 71.9 41.75 72.85 41.75
M 75.1 48.55
Q 75.1 47.6 75.8 46.9 76.5 46.2 77.45 46.2 78.05 46.2 78.5 46.45 78.9 46.65 79.2 46.95 79.9 47.65 79.9 48.6 79.9 49.55 79.2 50.25 78.5 50.95 77.55 50.95 76.95 50.95 76.5 50.7 76.1 50.5 75.8 50.2 75.1 49.5 75.1 48.55
M 18.7 29.85
Q 18 29.15 18 28.2 18 28.15 18 28.1 18 27.15 18.7 26.45 19.4 25.75 20.35 25.75 21.3 25.75 22 26.45 22.7 27.15 22.7 28.1 22.7 28.15 22.7 28.2 22.7 29.15 22 29.85 21.3 30.55 20.35 30.55 19.4 30.55 18.7 29.85
M 12.3 29.85
Q 11.6 30.55 10.65 30.55 9.7 30.55 9 29.85 8.3 29.15 8.3 28.2 8.3 27.25 9 26.55 9.7 25.85 10.65 25.85 11.6 25.85 12.3 26.55 13 27.25 13 28.2 13 29.15 12.3 29.85
M 10.15 36.1
Q 11.1 36.1 11.8 36.8 12.5 37.5 12.5 38.45 12.5 39.4 11.8 40.1 11.1 40.8 10.15 40.8 9.2 40.8 8.5 40.1 7.8 39.4 7.8 38.45 7.8 37.5 8.5 36.8 9.2 36.1 10.15 36.1
M 13.5 32.3
Q 14.2 31.6 15.15 31.6 16.1 31.6 16.8 32.3 17.5 33 17.5 33.95 17.5 34.9 16.8 35.6 16.1 36.3 15.15 36.3 14.2 36.3 13.5 35.6 12.8 34.9 12.8 33.95 12.8 33 13.5 32.3
M 18.2 36.7
Q 18.9 36 19.85 36 20.8 36 21.5 36.7 22.2 37.4 22.2 38.35 22.2 38.4 22.2 38.45 22.2 39.4 21.5 40.1 20.8 40.8 19.85 40.8 18.9 40.8 18.2 40.1 17.5 39.4 17.5 38.45 17.5 38.4 17.5 38.35 17.5 37.4 18.2 36.7
M 7.2 48.65
Q 7.2 47.7 7.9 47 8.6 46.3 9.55 46.3 10.15 46.3 10.6 46.55 11 46.75 11.3 47.05 12 47.75 12 48.7 12 49.65 11.3 50.35 10.6 51.05 9.65 51.05 9.05 51.05 8.6 50.8 8.2 50.6 7.9 50.3 7.2 49.6 7.2 48.65
M 13 42.55
Q 13.7 41.85 14.65 41.85 15.6 41.85 16.3 42.55 17 43.25 17 44.2 17 45.15 16.3 45.85 15.6 46.55 14.65 46.55 13.7 46.55 13 45.85 12.3 45.15 12.3 44.2 12.3 43.25 13 42.55
M 16.9 48.65
Q 16.9 48.6 16.9 48.55 16.9 47.6 17.6 46.9 18.3 46.2 19.25 46.2 19.85 46.2 20.3 46.45 20.7 46.65 21 46.95 21.7 47.65 21.7 48.6 21.7 48.65 21.7 48.7 21.7 49.65 21 50.35 20.3 51.05 19.35 51.05 18.75 51.05 18.3 50.8 17.9 50.6 17.6 50.3 16.9 49.6 16.9 48.65
M 32.4 28.1
Q 32.4 29.05 31.7 29.75 31 30.45 30.05 30.45 29.1 30.45 28.4 29.75 27.7 29.05 27.7 28.1 27.7 27.15 28.4 26.45 29.1 25.75 30.05 25.75 31 25.75 31.7 26.45 32.4 27.15 32.4 28.1
M 32.9 32.2
Q 33.6 31.5 34.55 31.5 35.5 31.5 36.2 32.2 36.9 32.9 36.9 33.85 36.9 34.8 36.2 35.5 35.5 36.2 34.55 36.2 33.6 36.2 32.9 35.5 32.2 34.8 32.2 33.85 32.2 32.9 32.9 32.2
M 22.5 33.85
Q 22.5 32.9 23.2 32.2 23.9 31.5 24.85 31.5 25.8 31.5 26.5 32.2 27.2 32.9 27.2 33.85 27.2 33.9 27.2 33.95 27.2 34.9 26.5 35.6 25.8 36.3 24.85 36.3 23.9 36.3 23.2 35.6 22.5 34.9 22.5 33.95 22.5 33.9 22.5 33.85
M 27.9 36.7
Q 28.6 36 29.55 36 30.5 36 31.2 36.7 31.9 37.4 31.9 38.35 31.9 39.3 31.2 40 30.5 40.7 29.55 40.7 28.6 40.7 27.9 40 27.2 39.3 27.2 38.35 27.2 37.4 27.9 36.7
M 22.7 42.45
Q 23.4 41.75 24.35 41.75 25.3 41.75 26 42.45 26.7 43.15 26.7 44.1 26.7 44.15 26.7 44.2 26.7 45.15 26 45.85 25.3 46.55 24.35 46.55 23.4 46.55 22.7 45.85 22 45.15 22 44.2 22 44.15 22 44.1 22 43.15 22.7 42.45
M 27.3 46.9
Q 28 46.2 28.95 46.2 29.55 46.2 30 46.45 30.4 46.65 30.7 46.95 31.4 47.65 31.4 48.6 31.4 49.55 30.7 50.25 30 50.95 29.05 50.95 28.45 50.95 28 50.7 27.6 50.5 27.3 50.2 26.6 49.5 26.6 48.55 26.6 47.6 27.3 46.9
M 32.4 42.45
Q 33.1 41.75 34.05 41.75 35 41.75 35.7 42.45 36.4 43.15 36.4 44.1 36.4 45.05 35.7 45.75 35 46.45 34.05 46.45 33.1 46.45 32.4 45.75 31.7 45.05 31.7 44.1 31.7 43.15 32.4 42.45
M 39.7 46.45
Q 40.1 46.65 40.4 46.95 41.1 47.65 41.1 48.6 41.1 49.55 40.4 50.25 39.7 50.95 38.75 50.95 38.15 50.95 37.7 50.7 37.3 50.5 37 50.2 36.3 49.5 36.3 48.55 36.3 47.6 37 46.9 37.7 46.2 38.65 46.2 39.25 46.2 39.7 46.45
M 33.45 51.95
Q 34.05 51.95 34.5 52.2 34.9 52.4 35.2 52.7 35.9 53.4 35.9 54.35 35.9 55.3 35.2 56 34.5 56.7 33.55 56.7 32.95 56.7 32.5 56.45 32.1 56.25 31.8 55.95 31.1 55.25 31.1 54.3 31.1 53.35 31.8 52.65 32.5 51.95 33.45 51.95
M 36.5 60.45
Q 35.8 59.75 35.8 58.8 35.8 57.85 36.5 57.15 37.2 56.45 38.15 56.45 39.1 56.45 39.8 57.15 40.5 57.85 40.5 58.8 40.5 59.75 39.8 60.45 39.1 61.15 38.15 61.15 37.2 61.15 36.5 60.45
M 26.2 54.35
Q 26.2 54.4 26.2 54.45 26.2 55.4 25.5 56.1 24.8 56.8 23.85 56.8 23.25 56.8 22.8 56.55 22.4 56.35 22.1 56.05 21.4 55.35 21.4 54.4 21.4 54.35 21.4 54.3 21.4 53.35 22.1 52.65 22.8 51.95 23.75 51.95 24.35 51.95 24.8 52.2 25.2 52.4 25.5 52.7 26.2 53.4 26.2 54.35
M 21.1 58.9
Q 21.1 59.85 20.4 60.55 19.7 61.25 18.75 61.25 17.8 61.25 17.1 60.55 16.4 59.85 16.4 58.9 16.4 58.85 16.4 58.8 16.4 57.85 17.1 57.15 17.8 56.45 18.75 56.45 19.7 56.45 20.4 57.15 21.1 57.85 21.1 58.8 21.1 58.85 21.1 58.9
M 26.8 57.15
Q 27.5 56.45 28.45 56.45 29.4 56.45 30.1 57.15 30.8 57.85 30.8 58.8 30.8 59.75 30.1 60.45 29.4 61.15 28.45 61.15 27.5 61.15 26.8 60.45 26.1 59.75 26.1 58.8 26.1 57.85 26.8 57.15
M 26.3 67.4
Q 27 66.7 27.95 66.7 28.9 66.7 29.6 67.4 30.3 68.1 30.3 69.05 30.3 70 29.6 70.7 28.9 71.4 27.95 71.4 27 71.4 26.3 70.7 25.6 70 25.6 69.05 25.6 68.1 26.3 67.4
M 25.6 64.55
Q 25.6 64.6 25.6 64.65 25.6 65.6 24.9 66.3 24.2 67 23.25 67 22.3 67 21.6 66.3 20.9 65.6 20.9 64.65 20.9 64.6 20.9 64.55 20.9 63.6 21.6 62.9 22.3 62.2 23.25 62.2 24.2 62.2 24.9 62.9 25.6 63.6 25.6 64.55
M 20.6 69.05
Q 20.6 69.1 20.6 69.15 20.6 70.1 19.9 70.8 19.2 71.5 18.25 71.5 17.3 71.5 16.6 70.8 15.9 70.1 15.9 69.15 15.9 69.1 15.9 69.05 15.9 68.1 16.6 67.4 17.3 66.7 18.25 66.7 19.2 66.7 19.9 67.4 20.6 68.1 20.6 69.05
M 22.75 72.45
Q 23.7 72.45 24.4 73.15 25.1 73.85 25.1 74.8 25.1 74.85 25.1 74.9 25.1 75.85 24.4 76.55 23.7 77.25 22.75 77.25 21.8 77.25 21.1 76.55 20.4 75.85 20.4 74.9 20.4 74.85 20.4 74.8 20.4 73.85 21.1 73.15 21.8 72.45 22.75 72.45
M 37.65 66.7
Q 38.6 66.7 39.3 67.4 40 68.1 40 69.05 40 70 39.3 70.7 38.6 71.4 37.65 71.4 36.7 71.4 36 70.7 35.3 70 35.3 69.05 35.3 68.1 36 67.4 36.7 66.7 37.65 66.7
M 31.3 66.2
Q 30.6 65.5 30.6 64.55 30.6 63.6 31.3 62.9 32 62.2 32.95 62.2 33.9 62.2 34.6 62.9 35.3 63.6 35.3 64.55 35.3 65.5 34.6 66.2 33.9 66.9 32.95 66.9 32 66.9 31.3 66.2
M 30.8 73.15
Q 31.5 72.45 32.45 72.45 33.4 72.45 34.1 73.15 34.8 73.85 34.8 74.8 34.8 75.75 34.1 76.45 33.4 77.15 32.45 77.15 31.5 77.15 30.8 76.45 30.1 75.75 30.1 74.8 30.1 73.85 30.8 73.15
M 15.8 52.8
Q 16.5 53.5 16.5 54.45 16.5 55.4 15.8 56.1 15.1 56.8 14.15 56.8 13.55 56.8 13.1 56.55 12.7 56.35 12.4 56.05 11.7 55.35 11.7 54.4 11.7 53.45 12.4 52.75 13.1 52.05 14.05 52.05 14.65 52.05 15.1 52.3 15.5 52.5 15.8 52.8
M 11.4 58.9
Q 11.4 59.85 10.7 60.55 10 61.25 9.05 61.25 8.1 61.25 7.4 60.55 6.7 59.85 6.7 58.9 6.7 57.95 7.4 57.25 8.1 56.55 9.05 56.55 10 56.55 10.7 57.25 11.4 57.95 11.4 58.9
M 6.9 70.8
Q 6.2 70.1 6.2 69.15 6.2 68.2 6.9 67.5 7.6 66.8 8.55 66.8 9.5 66.8 10.2 67.5 10.9 68.2 10.9 69.15 10.9 70.1 10.2 70.8 9.5 71.5 8.55 71.5 7.6 71.5 6.9 70.8
M 15.9 64.65
Q 15.9 65.6 15.2 66.3 14.5 67 13.55 67 12.6 67 11.9 66.3 11.2 65.6 11.2 64.65 11.2 63.7 11.9 63 12.6 62.3 13.55 62.3 14.5 62.3 15.2 63 15.9 63.7 15.9 64.65
M 11.4 73.25
Q 12.1 72.55 13.05 72.55 14 72.55 14.7 73.25 15.4 73.95 15.4 74.9 15.4 75.85 14.7 76.55 14 77.25 13.05 77.25 12.1 77.25 11.4 76.55 10.7 75.85 10.7 74.9 10.7 73.95 11.4 73.25
M 72.25 51.95
Q 72.85 51.95 73.3 52.2 73.7 52.4 74 52.7 74.7 53.4 74.7 54.35 74.7 55.3 74 56 73.3 56.7 72.35 56.7 71.75 56.7 71.3 56.45 70.9 56.25 70.6 55.95 69.9 55.25 69.9 54.3 69.9 53.35 70.6 52.65 71.3 51.95 72.25 51.95
M 75.3 60.45
Q 74.6 59.75 74.6 58.8 74.6 57.85 75.3 57.15 76 56.45 76.95 56.45 77.9 56.45 78.6 57.15 79.3 57.85 79.3 58.8 79.3 59.75 78.6 60.45 77.9 61.15 76.95 61.15 76 61.15 75.3 60.45
M 62.55 51.95
Q 63.15 51.95 63.6 52.2 64 52.4 64.3 52.7 65 53.4 65 54.35 65 55.3 64.3 56 63.6 56.7 62.65 56.7 62.05 56.7 61.6 56.45 61.2 56.25 60.9 55.95 60.2 55.25 60.2 54.3 60.2 53.35 60.9 52.65 61.6 51.95 62.55 51.95
M 65.6 60.45
Q 64.9 59.75 64.9 58.8 64.9 57.85 65.6 57.15 66.3 56.45 67.25 56.45 68.2 56.45 68.9 57.15 69.6 57.85 69.6 58.8 69.6 59.75 68.9 60.45 68.2 61.15 67.25 61.15 66.3 61.15 65.6 60.45
M 70.1 66.2
Q 69.4 65.5 69.4 64.55 69.4 63.6 70.1 62.9 70.8 62.2 71.75 62.2 72.7 62.2 73.4 62.9 74.1 63.6 74.1 64.55 74.1 65.5 73.4 66.2 72.7 66.9 71.75 66.9 70.8 66.9 70.1 66.2
M 66.75 66.7
Q 67.7 66.7 68.4 67.4 69.1 68.1 69.1 69.05 69.1 70 68.4 70.7 67.7 71.4 66.75 71.4 65.8 71.4 65.1 70.7 64.4 70 64.4 69.05 64.4 68.1 65.1 67.4 65.8 66.7 66.75 66.7
M 63.7 66.2
Q 63 66.9 62.05 66.9 61.1 66.9 60.4 66.2 59.7 65.5 59.7 64.55 59.7 63.6 60.4 62.9 61.1 62.2 62.05 62.2 63 62.2 63.7 62.9 64.4 63.6 64.4 64.55 64.4 65.5 63.7 66.2
M 61.55 72.45
Q 62.5 72.45 63.2 73.15 63.9 73.85 63.9 74.8 63.9 75.75 63.2 76.45 62.5 77.15 61.55 77.15 60.6 77.15 59.9 76.45 59.2 75.75 59.2 74.8 59.2 73.85 59.9 73.15 60.6 72.45 61.55 72.45
M 76.45 66.7
Q 77.4 66.7 78.1 67.4 78.8 68.1 78.8 69.05 78.8 70 78.1 70.7 77.4 71.4 76.45 71.4 75.5 71.4 74.8 70.7 74.1 70 74.1 69.05 74.1 68.1 74.8 67.4 75.5 66.7 76.45 66.7
M 71.25 72.45
Q 72.2 72.45 72.9 73.15 73.6 73.85 73.6 74.8 73.6 75.75 72.9 76.45 72.2 77.15 71.25 77.15 70.3 77.15 69.6 76.45 68.9 75.75 68.9 74.8 68.9 73.85 69.6 73.15 70.3 72.45 71.25 72.45
M 54.6 52.7
Q 55.3 53.4 55.3 54.35 55.3 55.3 54.6 56 53.9 56.7 52.95 56.7 52.35 56.7 51.9 56.45 51.5 56.25 51.2 55.95 50.5 55.25 50.5 54.3 50.5 53.35 51.2 52.65 51.9 51.95 52.85 51.95 53.45 51.95 53.9 52.2 54.3 52.4 54.6 52.7
M 55.9 57.15
Q 56.6 56.45 57.55 56.45 58.5 56.45 59.2 57.15 59.9 57.85 59.9 58.8 59.9 59.75 59.2 60.45 58.5 61.15 57.55 61.15 56.6 61.15 55.9 60.45 55.2 59.75 55.2 58.8 55.2 57.85 55.9 57.15
M 43.15 51.95
Q 43.75 51.95 44.2 52.2 44.6 52.4 44.9 52.7 45.6 53.4 45.6 54.35 45.6 55.3 44.9 56 44.2 56.7 43.25 56.7 42.65 56.7 42.2 56.45 41.8 56.25 41.5 55.95 40.8 55.25 40.8 54.3 40.8 53.35 41.5 52.65 42.2 51.95 43.15 51.95
M 46.2 57.15
Q 46.9 56.45 47.85 56.45 48.8 56.45 49.5 57.15 50.2 57.85 50.2 58.8 50.2 59.75 49.5 60.45 48.8 61.15 47.85 61.15 46.9 61.15 46.2 60.45 45.5 59.75 45.5 58.8 45.5 57.85 46.2 57.15
M 47.35 66.7
Q 48.3 66.7 49 67.4 49.7 68.1 49.7 69.05 49.7 70 49 70.7 48.3 71.4 47.35 71.4 46.4 71.4 45.7 70.7 45 70 45 69.05 45 68.1 45.7 67.4 46.4 66.7 47.35 66.7
M 41 62.9
Q 41.7 62.2 42.65 62.2 43.6 62.2 44.3 62.9 45 63.6 45 64.55 45 65.5 44.3 66.2 43.6 66.9 42.65 66.9 41.7 66.9 41 66.2 40.3 65.5 40.3 64.55 40.3 63.6 41 62.9
M 40.5 73.15
Q 41.2 72.45 42.15 72.45 43.1 72.45 43.8 73.15 44.5 73.85 44.5 74.8 44.5 75.75 43.8 76.45 43.1 77.15 42.15 77.15 41.2 77.15 40.5 76.45 39.8 75.75 39.8 74.8 39.8 73.85 40.5 73.15
M 57.05 66.7
Q 58 66.7 58.7 67.4 59.4 68.1 59.4 69.05 59.4 70 58.7 70.7 58 71.4 57.05 71.4 56.1 71.4 55.4 70.7 54.7 70 54.7 69.05 54.7 68.1 55.4 67.4 56.1 66.7 57.05 66.7
M 52.35 62.2
Q 53.3 62.2 54 62.9 54.7 63.6 54.7 64.55 54.7 65.5 54 66.2 53.3 66.9 52.35 66.9 51.4 66.9 50.7 66.2 50 65.5 50 64.55 50 63.6 50.7 62.9 51.4 62.2 52.35 62.2
M 51.85 72.45
Q 52.8 72.45 53.5 73.15 54.2 73.85 54.2 74.8 54.2 75.75 53.5 76.45 52.8 77.15 51.85 77.15 50.9 77.15 50.2 76.45 49.5 75.75 49.5 74.8 49.5 73.85 50.2 73.15 50.9 72.45 51.85 72.45 Z"/>

<path fill="#3A3A3A" stroke="none" d="
M 53.5 73.15
Q 52.8 72.45 51.85 72.45 50.9 72.45 50.2 73.15 49.5 73.85 49.5 74.8 49.5 75.75 50.2 76.45 50.9 77.15 51.85 77.15 52.8 77.15 53.5 76.45 54.2 75.75 54.2 74.8 54.2 73.85 53.5 73.15
M 54 62.9
Q 53.3 62.2 52.35 62.2 51.4 62.2 50.7 62.9 50 63.6 50 64.55 50 65.5 50.7 66.2 51.4 66.9 52.35 66.9 53.3 66.9 54 66.2 54.7 65.5 54.7 64.55 54.7 63.6 54 62.9
M 58.7 67.4
Q 58 66.7 57.05 66.7 56.1 66.7 55.4 67.4 54.7 68.1 54.7 69.05 54.7 70 55.4 70.7 56.1 71.4 57.05 71.4 58 71.4 58.7 70.7 59.4 70 59.4 69.05 59.4 68.1 58.7 67.4
M 42.15 72.45
Q 41.2 72.45 40.5 73.15 39.8 73.85 39.8 74.8 39.8 75.75 40.5 76.45 41.2 77.15 42.15 77.15 43.1 77.15 43.8 76.45 44.5 75.75 44.5 74.8 44.5 73.85 43.8 73.15 43.1 72.45 42.15 72.45
M 42.65 62.2
Q 41.7 62.2 41 62.9 40.3 63.6 40.3 64.55 40.3 65.5 41 66.2 41.7 66.9 42.65 66.9 43.6 66.9 44.3 66.2 45 65.5 45 64.55 45 63.6 44.3 62.9 43.6 62.2 42.65 62.2
M 49 67.4
Q 48.3 66.7 47.35 66.7 46.4 66.7 45.7 67.4 45 68.1 45 69.05 45 70 45.7 70.7 46.4 71.4 47.35 71.4 48.3 71.4 49 70.7 49.7 70 49.7 69.05 49.7 68.1 49 67.4
M 47.85 56.45
Q 46.9 56.45 46.2 57.15 45.5 57.85 45.5 58.8 45.5 59.75 46.2 60.45 46.9 61.15 47.85 61.15 48.8 61.15 49.5 60.45 50.2 59.75 50.2 58.8 50.2 57.85 49.5 57.15 48.8 56.45 47.85 56.45
M 44.2 52.2
Q 43.75 51.95 43.15 51.95 42.2 51.95 41.5 52.65 40.8 53.35 40.8 54.3 40.8 55.25 41.5 55.95 41.8 56.25 42.2 56.45 42.65 56.7 43.25 56.7 44.2 56.7 44.9 56 45.6 55.3 45.6 54.35 45.6 53.4 44.9 52.7 44.6 52.4 44.2 52.2
M 57.55 56.45
Q 56.6 56.45 55.9 57.15 55.2 57.85 55.2 58.8 55.2 59.75 55.9 60.45 56.6 61.15 57.55 61.15 58.5 61.15 59.2 60.45 59.9 59.75 59.9 58.8 59.9 57.85 59.2 57.15 58.5 56.45 57.55 56.45
M 55.3 54.35
Q 55.3 53.4 54.6 52.7 54.3 52.4 53.9 52.2 53.45 51.95 52.85 51.95 51.9 51.95 51.2 52.65 50.5 53.35 50.5 54.3 50.5 55.25 51.2 55.95 51.5 56.25 51.9 56.45 52.35 56.7 52.95 56.7 53.9 56.7 54.6 56 55.3 55.3 55.3 54.35
M 72.9 73.15
Q 72.2 72.45 71.25 72.45 70.3 72.45 69.6 73.15 68.9 73.85 68.9 74.8 68.9 75.75 69.6 76.45 70.3 77.15 71.25 77.15 72.2 77.15 72.9 76.45 73.6 75.75 73.6 74.8 73.6 73.85 72.9 73.15
M 78.1 67.4
Q 77.4 66.7 76.45 66.7 75.5 66.7 74.8 67.4 74.1 68.1 74.1 69.05 74.1 70 74.8 70.7 75.5 71.4 76.45 71.4 77.4 71.4 78.1 70.7 78.8 70 78.8 69.05 78.8 68.1 78.1 67.4
M 63.2 73.15
Q 62.5 72.45 61.55 72.45 60.6 72.45 59.9 73.15 59.2 73.85 59.2 74.8 59.2 75.75 59.9 76.45 60.6 77.15 61.55 77.15 62.5 77.15 63.2 76.45 63.9 75.75 63.9 74.8 63.9 73.85 63.2 73.15
M 62.05 66.9
Q 63 66.9 63.7 66.2 64.4 65.5 64.4 64.55 64.4 63.6 63.7 62.9 63 62.2 62.05 62.2 61.1 62.2 60.4 62.9 59.7 63.6 59.7 64.55 59.7 65.5 60.4 66.2 61.1 66.9 62.05 66.9
M 68.4 67.4
Q 67.7 66.7 66.75 66.7 65.8 66.7 65.1 67.4 64.4 68.1 64.4 69.05 64.4 70 65.1 70.7 65.8 71.4 66.75 71.4 67.7 71.4 68.4 70.7 69.1 70 69.1 69.05 69.1 68.1 68.4 67.4
M 69.4 64.55
Q 69.4 65.5 70.1 66.2 70.8 66.9 71.75 66.9 72.7 66.9 73.4 66.2 74.1 65.5 74.1 64.55 74.1 63.6 73.4 62.9 72.7 62.2 71.75 62.2 70.8 62.2 70.1 62.9 69.4 63.6 69.4 64.55
M 64.9 58.8
Q 64.9 59.75 65.6 60.45 66.3 61.15 67.25 61.15 68.2 61.15 68.9 60.45 69.6 59.75 69.6 58.8 69.6 57.85 68.9 57.15 68.2 56.45 67.25 56.45 66.3 56.45 65.6 57.15 64.9 57.85 64.9 58.8
M 63.6 52.2
Q 63.15 51.95 62.55 51.95 61.6 51.95 60.9 52.65 60.2 53.35 60.2 54.3 60.2 55.25 60.9 55.95 61.2 56.25 61.6 56.45 62.05 56.7 62.65 56.7 63.6 56.7 64.3 56 65 55.3 65 54.35 65 53.4 64.3 52.7 64 52.4 63.6 52.2
M 74.6 58.8
Q 74.6 59.75 75.3 60.45 76 61.15 76.95 61.15 77.9 61.15 78.6 60.45 79.3 59.75 79.3 58.8 79.3 57.85 78.6 57.15 77.9 56.45 76.95 56.45 76 56.45 75.3 57.15 74.6 57.85 74.6 58.8
M 73.3 52.2
Q 72.85 51.95 72.25 51.95 71.3 51.95 70.6 52.65 69.9 53.35 69.9 54.3 69.9 55.25 70.6 55.95 70.9 56.25 71.3 56.45 71.75 56.7 72.35 56.7 73.3 56.7 74 56 74.7 55.3 74.7 54.35 74.7 53.4 74 52.7 73.7 52.4 73.3 52.2
M 13.05 72.55
Q 12.1 72.55 11.4 73.25 10.7 73.95 10.7 74.9 10.7 75.85 11.4 76.55 12.1 77.25 13.05 77.25 14 77.25 14.7 76.55 15.4 75.85 15.4 74.9 15.4 73.95 14.7 73.25 14 72.55 13.05 72.55
M 15.2 66.3
Q 15.9 65.6 15.9 64.65 15.9 63.7 15.2 63 14.5 62.3 13.55 62.3 12.6 62.3 11.9 63 11.2 63.7 11.2 64.65 11.2 65.6 11.9 66.3 12.6 67 13.55 67 14.5 67 15.2 66.3
M 6.2 69.15
Q 6.2 70.1 6.9 70.8 7.6 71.5 8.55 71.5 9.5 71.5 10.2 70.8 10.9 70.1 10.9 69.15 10.9 68.2 10.2 67.5 9.5 66.8 8.55 66.8 7.6 66.8 6.9 67.5 6.2 68.2 6.2 69.15
M 10.7 60.55
Q 11.4 59.85 11.4 58.9 11.4 57.95 10.7 57.25 10 56.55 9.05 56.55 8.1 56.55 7.4 57.25 6.7 57.95 6.7 58.9 6.7 59.85 7.4 60.55 8.1 61.25 9.05 61.25 10 61.25 10.7 60.55
M 16.5 54.45
Q 16.5 53.5 15.8 52.8 15.5 52.5 15.1 52.3 14.65 52.05 14.05 52.05 13.1 52.05 12.4 52.75 11.7 53.45 11.7 54.4 11.7 55.35 12.4 56.05 12.7 56.35 13.1 56.55 13.55 56.8 14.15 56.8 15.1 56.8 15.8 56.1 16.5 55.4 16.5 54.45
M 32.45 72.45
Q 31.5 72.45 30.8 73.15 30.1 73.85 30.1 74.8 30.1 75.75 30.8 76.45 31.5 77.15 32.45 77.15 33.4 77.15 34.1 76.45 34.8 75.75 34.8 74.8 34.8 73.85 34.1 73.15 33.4 72.45 32.45 72.45
M 30.6 64.55
Q 30.6 65.5 31.3 66.2 32 66.9 32.95 66.9 33.9 66.9 34.6 66.2 35.3 65.5 35.3 64.55 35.3 63.6 34.6 62.9 33.9 62.2 32.95 62.2 32 62.2 31.3 62.9 30.6 63.6 30.6 64.55
M 39.3 67.4
Q 38.6 66.7 37.65 66.7 36.7 66.7 36 67.4 35.3 68.1 35.3 69.05 35.3 70 36 70.7 36.7 71.4 37.65 71.4 38.6 71.4 39.3 70.7 40 70 40 69.05 40 68.1 39.3 67.4
M 24.4 73.15
Q 23.7 72.45 22.75 72.45 21.8 72.45 21.1 73.15 20.4 73.85 20.4 74.8 20.4 74.85 20.4 74.9 20.4 75.85 21.1 76.55 21.8 77.25 22.75 77.25 23.7 77.25 24.4 76.55 25.1 75.85 25.1 74.9 25.1 74.85 25.1 74.8 25.1 73.85 24.4 73.15
M 20.6 69.15
Q 20.6 69.1 20.6 69.05 20.6 68.1 19.9 67.4 19.2 66.7 18.25 66.7 17.3 66.7 16.6 67.4 15.9 68.1 15.9 69.05 15.9 69.1 15.9 69.15 15.9 70.1 16.6 70.8 17.3 71.5 18.25 71.5 19.2 71.5 19.9 70.8 20.6 70.1 20.6 69.15
M 25.6 64.65
Q 25.6 64.6 25.6 64.55 25.6 63.6 24.9 62.9 24.2 62.2 23.25 62.2 22.3 62.2 21.6 62.9 20.9 63.6 20.9 64.55 20.9 64.6 20.9 64.65 20.9 65.6 21.6 66.3 22.3 67 23.25 67 24.2 67 24.9 66.3 25.6 65.6 25.6 64.65
M 27.95 66.7
Q 27 66.7 26.3 67.4 25.6 68.1 25.6 69.05 25.6 70 26.3 70.7 27 71.4 27.95 71.4 28.9 71.4 29.6 70.7 30.3 70 30.3 69.05 30.3 68.1 29.6 67.4 28.9 66.7 27.95 66.7
M 28.45 56.45
Q 27.5 56.45 26.8 57.15 26.1 57.85 26.1 58.8 26.1 59.75 26.8 60.45 27.5 61.15 28.45 61.15 29.4 61.15 30.1 60.45 30.8 59.75 30.8 58.8 30.8 57.85 30.1 57.15 29.4 56.45 28.45 56.45
M 20.4 60.55
Q 21.1 59.85 21.1 58.9 21.1 58.85 21.1 58.8 21.1 57.85 20.4 57.15 19.7 56.45 18.75 56.45 17.8 56.45 17.1 57.15 16.4 57.85 16.4 58.8 16.4 58.85 16.4 58.9 16.4 59.85 17.1 60.55 17.8 61.25 18.75 61.25 19.7 61.25 20.4 60.55
M 26.2 54.45
Q 26.2 54.4 26.2 54.35 26.2 53.4 25.5 52.7 25.2 52.4 24.8 52.2 24.35 51.95 23.75 51.95 22.8 51.95 22.1 52.65 21.4 53.35 21.4 54.3 21.4 54.35 21.4 54.4 21.4 55.35 22.1 56.05 22.4 56.35 22.8 56.55 23.25 56.8 23.85 56.8 24.8 56.8 25.5 56.1 26.2 55.4 26.2 54.45
M 35.8 58.8
Q 35.8 59.75 36.5 60.45 37.2 61.15 38.15 61.15 39.1 61.15 39.8 60.45 40.5 59.75 40.5 58.8 40.5 57.85 39.8 57.15 39.1 56.45 38.15 56.45 37.2 56.45 36.5 57.15 35.8 57.85 35.8 58.8
M 34.5 52.2
Q 34.05 51.95 33.45 51.95 32.5 51.95 31.8 52.65 31.1 53.35 31.1 54.3 31.1 55.25 31.8 55.95 32.1 56.25 32.5 56.45 32.95 56.7 33.55 56.7 34.5 56.7 35.2 56 35.9 55.3 35.9 54.35 35.9 53.4 35.2 52.7 34.9 52.4 34.5 52.2
M 40.4 46.95
Q 40.1 46.65 39.7 46.45 39.25 46.2 38.65 46.2 37.7 46.2 37 46.9 36.3 47.6 36.3 48.55 36.3 49.5 37 50.2 37.3 50.5 37.7 50.7 38.15 50.95 38.75 50.95 39.7 50.95 40.4 50.25 41.1 49.55 41.1 48.6 41.1 47.65 40.4 46.95
M 34.05 41.75
Q 33.1 41.75 32.4 42.45 31.7 43.15 31.7 44.1 31.7 45.05 32.4 45.75 33.1 46.45 34.05 46.45 35 46.45 35.7 45.75 36.4 45.05 36.4 44.1 36.4 43.15 35.7 42.45 35 41.75 34.05 41.75
M 28.95 46.2
Q 28 46.2 27.3 46.9 26.6 47.6 26.6 48.55 26.6 49.5 27.3 50.2 27.6 50.5 28 50.7 28.45 50.95 29.05 50.95 30 50.95 30.7 50.25 31.4 49.55 31.4 48.6 31.4 47.65 30.7 46.95 30.4 46.65 30 46.45 29.55 46.2 28.95 46.2
M 24.35 41.75
Q 23.4 41.75 22.7 42.45 22 43.15 22 44.1 22 44.15 22 44.2 22 45.15 22.7 45.85 23.4 46.55 24.35 46.55 25.3 46.55 26 45.85 26.7 45.15 26.7 44.2 26.7 44.15 26.7 44.1 26.7 43.15 26 42.45 25.3 41.75 24.35 41.75
M 29.55 36
Q 28.6 36 27.9 36.7 27.2 37.4 27.2 38.35 27.2 39.3 27.9 40 28.6 40.7 29.55 40.7 30.5 40.7 31.2 40 31.9 39.3 31.9 38.35 31.9 37.4 31.2 36.7 30.5 36 29.55 36
M 16.9 48.55
Q 16.9 48.6 16.9 48.65 16.9 49.6 17.6 50.3 17.9 50.6 18.3 50.8 18.75 51.05 19.35 51.05 20.3 51.05 21 50.35 21.7 49.65 21.7 48.7 21.7 48.65 21.7 48.6 21.7 47.65 21 46.95 20.7 46.65 20.3 46.45 19.85 46.2 19.25 46.2 18.3 46.2 17.6 46.9 16.9 47.6 16.9 48.55
M 14.65 41.85
Q 13.7 41.85 13 42.55 12.3 43.25 12.3 44.2 12.3 45.15 13 45.85 13.7 46.55 14.65 46.55 15.6 46.55 16.3 45.85 17 45.15 17 44.2 17 43.25 16.3 42.55 15.6 41.85 14.65 41.85
M 7.9 47
Q 7.2 47.7 7.2 48.65 7.2 49.6 7.9 50.3 8.2 50.6 8.6 50.8 9.05 51.05 9.65 51.05 10.6 51.05 11.3 50.35 12 49.65 12 48.7 12 47.75 11.3 47.05 11 46.75 10.6 46.55 10.15 46.3 9.55 46.3 8.6 46.3 7.9 47
M 19.85 36
Q 18.9 36 18.2 36.7 17.5 37.4 17.5 38.35 17.5 38.4 17.5 38.45 17.5 39.4 18.2 40.1 18.9 40.8 19.85 40.8 20.8 40.8 21.5 40.1 22.2 39.4 22.2 38.45 22.2 38.4 22.2 38.35 22.2 37.4 21.5 36.7 20.8 36 19.85 36
M 11.8 36.8
Q 11.1 36.1 10.15 36.1 9.2 36.1 8.5 36.8 7.8 37.5 7.8 38.45 7.8 39.4 8.5 40.1 9.2 40.8 10.15 40.8 11.1 40.8 11.8 40.1 12.5 39.4 12.5 38.45 12.5 37.5 11.8 36.8
M 75.8 46.9
Q 75.1 47.6 75.1 48.55 75.1 49.5 75.8 50.2 76.1 50.5 76.5 50.7 76.95 50.95 77.55 50.95 78.5 50.95 79.2 50.25 79.9 49.55 79.9 48.6 79.9 47.65 79.2 46.95 78.9 46.65 78.5 46.45 78.05 46.2 77.45 46.2 76.5 46.2 75.8 46.9
M 74.5 42.45
Q 73.8 41.75 72.85 41.75 71.9 41.75 71.2 42.45 70.5 43.15 70.5 44.1 70.5 45.05 71.2 45.75 71.9 46.45 72.85 46.45 73.8 46.45 74.5 45.75 75.2 45.05 75.2 44.1 75.2 43.15 74.5 42.45
M 67.75 46.2
Q 66.8 46.2 66.1 46.9 65.4 47.6 65.4 48.55 65.4 49.5 66.1 50.2 66.4 50.5 66.8 50.7 67.25 50.95 67.85 50.95 68.8 50.95 69.5 50.25 70.2 49.55 70.2 48.6 70.2 47.65 69.5 46.95 69.2 46.65 68.8 46.45 68.35 46.2 67.75 46.2
M 63.15 41.75
Q 62.2 41.75 61.5 42.45 60.8 43.15 60.8 44.1 60.8 45.05 61.5 45.75 62.2 46.45 63.15 46.45 64.1 46.45 64.8 45.75 65.5 45.05 65.5 44.1 65.5 43.15 64.8 42.45 64.1 41.75 63.15 41.75
M 70 36.7
Q 69.3 36 68.35 36 67.4 36 66.7 36.7 66 37.4 66 38.35 66 39.3 66.7 40 67.4 40.7 68.35 40.7 69.3 40.7 70 40 70.7 39.3 70.7 38.35 70.7 37.4 70 36.7
M 78.05 36
Q 77.1 36 76.4 36.7 75.7 37.4 75.7 38.35 75.7 39.3 76.4 40 77.1 40.7 78.05 40.7 79 40.7 79.7 40 80.4 39.3 80.4 38.35 80.4 37.4 79.7 36.7 79 36 78.05 36
M 56.4 46.9
Q 55.7 47.6 55.7 48.55 55.7 49.5 56.4 50.2 56.7 50.5 57.1 50.7 57.55 50.95 58.15 50.95 59.1 50.95 59.8 50.25 60.5 49.55 60.5 48.6 60.5 47.65 59.8 46.95 59.5 46.65 59.1 46.45 58.65 46.2 58.05 46.2 57.1 46.2 56.4 46.9
M 53.45 41.75
Q 52.5 41.75 51.8 42.45 51.1 43.15 51.1 44.1 51.1 45.05 51.8 45.75 52.5 46.45 53.45 46.45 54.4 46.45 55.1 45.75 55.8 45.05 55.8 44.1 55.8 43.15 55.1 42.45 54.4 41.75 53.45 41.75
M 46.7 46.9
Q 46 47.6 46 48.55 46 49.5 46.7 50.2 47 50.5 47.4 50.7 47.85 50.95 48.45 50.95 49.4 50.95 50.1 50.25 50.8 49.55 50.8 48.6 50.8 47.65 50.1 46.95 49.8 46.65 49.4 46.45 48.95 46.2 48.35 46.2 47.4 46.2 46.7 46.9
M 40.9 40
Q 41.6 39.3 41.6 38.35 41.6 37.4 40.9 36.7 40.2 36 39.25 36 38.3 36 37.6 36.7 36.9 37.4 36.9 38.35 36.9 39.3 37.6 40 38.3 40.7 39.25 40.7 40.2 40.7 40.9 40
M 43.75 41.75
Q 42.8 41.75 42.1 42.45 41.4 43.15 41.4 44.1 41.4 45.05 42.1 45.75 42.8 46.45 43.75 46.45 44.7 46.45 45.4 45.75 46.1 45.05 46.1 44.1 46.1 43.15 45.4 42.45 44.7 41.75 43.75 41.75
M 50.6 36.7
Q 49.9 36 48.95 36 48 36 47.3 36.7 46.6 37.4 46.6 38.35 46.6 39.3 47.3 40 48 40.7 48.95 40.7 49.9 40.7 50.6 40 51.3 39.3 51.3 38.35 51.3 37.4 50.6 36.7
M 60.3 36.7
Q 59.6 36 58.65 36 57.7 36 57 36.7 56.3 37.4 56.3 38.35 56.3 39.3 57 40 57.7 40.7 58.65 40.7 59.6 40.7 60.3 40 61 39.3 61 38.35 61 37.4 60.3 36.7
M 82.6 76.45
Q 83.3 75.75 83.3 74.8 83.3 73.85 82.6 73.15 81.9 72.45 80.95 72.45 80 72.45 79.3 73.15 78.6 73.85 78.6 74.8 78.6 75.75 79.3 76.45 80 77.15 80.95 77.15 81.9 77.15 82.6 76.45
M 90.65 72.45
Q 89.7 72.45 89 73.15 88.3 73.85 88.3 74.8 88.3 75.75 89 76.45 89.7 77.15 90.65 77.15 91.6 77.15 92.3 76.45 93 75.75 93 74.8 93 73.85 92.3 73.15 91.6 72.45 90.65 72.45
M 83.8 64.55
Q 83.8 63.6 83.1 62.9 82.4 62.2 81.45 62.2 80.5 62.2 79.8 62.9 79.1 63.6 79.1 64.55 79.1 65.5 79.8 66.2 80.5 66.9 81.45 66.9 82.4 66.9 83.1 66.2 83.8 65.5 83.8 64.55
M 87.8 67.4
Q 87.1 66.7 86.15 66.7 85.2 66.7 84.5 67.4 83.8 68.1 83.8 69.05 83.8 70 84.5 70.7 85.2 71.4 86.15 71.4 87.1 71.4 87.8 70.7 88.5 70 88.5 69.05 88.5 68.1 87.8 67.4
M 89.5 62.9
Q 88.8 63.6 88.8 64.55 88.8 65.5 89.5 66.2 90.2 66.9 91.15 66.9 92.1 66.9 92.8 66.2 93.5 65.5 93.5 64.55 93.5 63.6 92.8 62.9 92.1 62.2 91.15 62.2 90.2 62.2 89.5 62.9
M 84.3 58.8
Q 84.3 59.75 85 60.45 85.7 61.15 86.65 61.15 87.6 61.15 88.3 60.45 89 59.75 89 58.8 89 57.85 88.3 57.15 87.6 56.45 86.65 56.45 85.7 56.45 85 57.15 84.3 57.85 84.3 58.8
M 83 52.2
Q 82.55 51.95 81.95 51.95 81 51.95 80.3 52.65 79.6 53.35 79.6 54.3 79.6 55.25 80.3 55.95 80.6 56.25 81 56.45 81.45 56.7 82.05 56.7 83 56.7 83.7 56 84.4 55.3 84.4 54.35 84.4 53.4 83.7 52.7 83.4 52.4 83 52.2
M 92.7 52.2
Q 92.25 51.95 91.65 51.95 90.7 51.95 90 52.65 89.3 53.35 89.3 54.3 89.3 55.25 90 55.95 90.3 56.25 90.7 56.45 91.15 56.7 91.75 56.7 92.7 56.7 93.4 56 94.1 55.3 94.1 54.35 94.1 53.4 93.4 52.7 93.1 52.4 92.7 52.2
M 89.9 44.1
Q 89.9 45.05 90.6 45.75 91.3 46.45 92.25 46.45 93.2 46.45 93.9 45.75 94.4 45.25 94.55 44.6
L 94.55 43.6
Q 94.4 42.95 93.9 42.45 93.2 41.75 92.25 41.75 91.3 41.75 90.6 42.45 89.9 43.15 89.9 44.1
M 85.5 46.9
Q 84.8 47.6 84.8 48.55 84.8 49.5 85.5 50.2 85.8 50.5 86.2 50.7 86.65 50.95 87.25 50.95 88.2 50.95 88.9 50.25 89.6 49.55 89.6 48.6 89.6 47.65 88.9 46.95 88.6 46.65 88.2 46.45 87.75 46.2 87.15 46.2 86.2 46.2 85.5 46.9
M 84.2 42.45
Q 83.5 41.75 82.55 41.75 81.6 41.75 80.9 42.45 80.2 43.15 80.2 44.1 80.2 45.05 80.9 45.75 81.6 46.45 82.55 46.45 83.5 46.45 84.2 45.75 84.9 45.05 84.9 44.1 84.9 43.15 84.2 42.45
M 87.75 36
Q 86.8 36 86.1 36.7 85.4 37.4 85.4 38.35 85.4 39.3 86.1 40 86.8 40.7 87.75 40.7 88.7 40.7 89.4 40 90.1 39.3 90.1 38.35 90.1 37.4 89.4 36.7 88.7 36 87.75 36 Z"/>

<path fill="#313131" stroke="none" d="
M 23.2 32.2
Q 22.5 32.9 22.5 33.85 22.5 33.9 22.5 33.95 22.5 34.9 23.2 35.6 23.9 36.3 24.85 36.3 25.8 36.3 26.5 35.6 27.2 34.9 27.2 33.95 27.2 33.9 27.2 33.85 27.2 32.9 26.5 32.2 25.8 31.5 24.85 31.5 23.9 31.5 23.2 32.2
M 34.55 31.5
Q 33.6 31.5 32.9 32.2 32.2 32.9 32.2 33.85 32.2 34.8 32.9 35.5 33.6 36.2 34.55 36.2 35.5 36.2 36.2 35.5 36.9 34.8 36.9 33.85 36.9 32.9 36.2 32.2 35.5 31.5 34.55 31.5
M 15.15 31.6
Q 14.2 31.6 13.5 32.3 12.8 33 12.8 33.95 12.8 34.9 13.5 35.6 14.2 36.3 15.15 36.3 16.1 36.3 16.8 35.6 17.5 34.9 17.5 33.95 17.5 33 16.8 32.3 16.1 31.6 15.15 31.6
M 63.65 31.5
Q 62.7 31.5 62 32.2 61.3 32.9 61.3 33.85 61.3 34.8 62 35.5 62.7 36.2 63.65 36.2 64.6 36.2 65.3 35.5 66 34.8 66 33.85 66 32.9 65.3 32.2 64.6 31.5 63.65 31.5
M 71 33.85
Q 71 34.8 71.7 35.5 72.4 36.2 73.35 36.2 74.3 36.2 75 35.5 75.7 34.8 75.7 33.85 75.7 32.9 75 32.2 74.3 31.5 73.35 31.5 72.4 31.5 71.7 32.2 71 32.9 71 33.85
M 42.6 32.2
Q 41.9 32.9 41.9 33.85 41.9 34.8 42.6 35.5 43.3 36.2 44.25 36.2 45.2 36.2 45.9 35.5 46.6 34.8 46.6 33.85 46.6 32.9 45.9 32.2 45.2 31.5 44.25 31.5 43.3 31.5 42.6 32.2
M 52.3 32.2
Q 51.6 32.9 51.6 33.85 51.6 34.8 52.3 35.5 53 36.2 53.95 36.2 54.9 36.2 55.6 35.5 56.3 34.8 56.3 33.85 56.3 32.9 55.6 32.2 54.9 31.5 53.95 31.5 53 31.5 52.3 32.2
M 81.4 35.5
Q 82.1 36.2 83.05 36.2 84 36.2 84.7 35.5 85.4 34.8 85.4 33.85 85.4 32.9 84.7 32.2 84 31.5 83.05 31.5 82.1 31.5 81.4 32.2 80.7 32.9 80.7 33.85 80.7 34.8 81.4 35.5
M 94.4 35.5
Q 94.5 35.4 94.55 35.35
L 94.55 32.4
Q 94.5 32.3 94.4 32.2 93.7 31.5 92.75 31.5 91.8 31.5 91.1 32.2 90.4 32.9 90.4 33.85 90.4 34.8 91.1 35.5 91.8 36.2 92.75 36.2 93.7 36.2 94.4 35.5 Z"/>

<path fill="#2A2A2A" stroke="none" d="
M 31.7 29.75
Q 32.4 29.05 32.4 28.1 32.4 27.15 31.7 26.45 31 25.75 30.05 25.75 29.1 25.75 28.4 26.45 27.7 27.15 27.7 28.1 27.7 29.05 28.4 29.75 29.1 30.45 30.05 30.45 31 30.45 31.7 29.75
M 10.65 30.55
Q 11.6 30.55 12.3 29.85 13 29.15 13 28.2 13 27.25 12.3 26.55 11.6 25.85 10.65 25.85 9.7 25.85 9 26.55 8.3 27.25 8.3 28.2 8.3 29.15 9 29.85 9.7 30.55 10.65 30.55
M 18 28.2
Q 18 29.15 18.7 29.85 19.4 30.55 20.35 30.55 21.3 30.55 22 29.85 22.7 29.15 22.7 28.2 22.7 28.15 22.7 28.1 22.7 27.15 22 26.45 21.3 25.75 20.35 25.75 19.4 25.75 18.7 26.45 18 27.15 18 28.1 18 28.15 18 28.2
M 67.2 26.45
Q 66.5 27.15 66.5 28.1 66.5 29.05 67.2 29.75 67.9 30.45 68.85 30.45 69.8 30.45 70.5 29.75 71.2 29.05 71.2 28.1 71.2 27.15 70.5 26.45 69.8 25.75 68.85 25.75 67.9 25.75 67.2 26.45
M 78.55 25.75
Q 77.6 25.75 76.9 26.45 76.2 27.15 76.2 28.1 76.2 29.05 76.9 29.75 77.6 30.45 78.55 30.45 79.5 30.45 80.2 29.75 80.9 29.05 80.9 28.1 80.9 27.15 80.2 26.45 79.5 25.75 78.55 25.75
M 42.1 28.1
Q 42.1 27.15 41.4 26.45 40.7 25.75 39.75 25.75 38.8 25.75 38.1 26.45 37.4 27.15 37.4 28.1 37.4 29.05 38.1 29.75 38.8 30.45 39.75 30.45 40.7 30.45 41.4 29.75 42.1 29.05 42.1 28.1
M 51.1 29.75
Q 51.8 29.05 51.8 28.1 51.8 27.15 51.1 26.45 50.4 25.75 49.45 25.75 48.5 25.75 47.8 26.45 47.1 27.15 47.1 28.1 47.1 29.05 47.8 29.75 48.5 30.45 49.45 30.45 50.4 30.45 51.1 29.75
M 56.8 28.1
Q 56.8 29.05 57.5 29.75 58.2 30.45 59.15 30.45 60.1 30.45 60.8 29.75 61.5 29.05 61.5 28.1 61.5 27.15 60.8 26.45 60.1 25.75 59.15 25.75 58.2 25.75 57.5 26.45 56.8 27.15 56.8 28.1
M 89.9 26.45
Q 89.2 25.75 88.25 25.75 87.3 25.75 86.6 26.45 85.9 27.15 85.9 28.1 85.9 29.05 86.6 29.75 87.3 30.45 88.25 30.45 89.2 30.45 89.9 29.75 90.6 29.05 90.6 28.1 90.6 27.15 89.9 26.45 Z"/>
</g>

<path id="Layer1_0_1_STROKES" stroke="#202020" stroke-width="4" stroke-linejoin="round" stroke-linecap="round" fill="none" d="
M 96.25 27.3
Q 96.25 19.5 88.45 19.5
L 11.55 19.5
Q 3.75 19.5 3.75 27.3
L 3.75 72.7
Q 3.75 80.5 11.55 80.5
L 88.45 80.5
Q 96.25 80.5 96.25 72.7
L 96.25 27.3 Z"/>

</defs>

<g transform="matrix( 1, 0, 0, 1, 0,0) ">
<use xlink:href="#Layer1_0_FILL"/>

<use xlink:href="#Layer1_0_1_STROKES"/>
</g>

<g transform="matrix( 1, 0, 0, 1, -3.4,-28) ">
<clipPath id="Mask_Mask_1">
<rect x="8.35" y="-2" width="90.1" height="20.8" fill="#FFFFFF" stroke="none"/>
</clipPath>

<text clip-path="url(#Mask_Mask_1)" writing-mode="lr"><tspan x="10.45" y="13.6" baseline-shift="0%" kerning="auto" font-family="Arial_Regular" font-size="15" fill="#999999" xml:space="preserve">Playstation 4</tspan></text>
</g>
</svg>
