
<svg xmlns="http://www.w3.org/2000/svg" version="1.1" xmlns:xlink="http://www.w3.org/1999/xlink" x="0px" y="0px" viewBox="0 0 100 100">
<defs>
<g id="Layer1_0_FILL">
<path fill="#313131" stroke="none" d="
M 88.3 61.45
L 88.3 53.55
Q 87.55 43.5 82.6 35.5 75.95 25.9 61.7 24.05 47.45 22.15 33.3 27.35 25.25 30.9 20.3 38.85 15.15 46.95 13.3 56.6 11.35 66.65 11.85 76.25 39 77.4 62.2 72.15 77.9 68.6 88.3 61.45
M 82.35 55.45
L 82.35 58
Q 74.3 62.45 63.3 64.95 44.9 69.05 24 69 24.3 64.5 25.2 59.9
L 25.2 59.85
Q 26.7 51.9 30.95 45.25
L 31 45.15
Q 34.3 39.8 39.6 37.3
L 39.65 37.3
Q 51.55 32.95 63.55 34.55
L 63.6 34.55
Q 73.45 35.8 78.25 42.15
L 78.25 42.2
Q 81.75 48.1 82.35 55.45 Z"/>

<path fill="#4F4F4F" stroke="none" d="
M 82.35 58
L 82.35 55.45
Q 81.75 48.1 78.25 42.2
L 78.25 42.15
Q 73.45 35.8 63.6 34.55
L 63.55 34.55
Q 51.55 32.95 39.65 37.3
L 39.6 37.3
Q 34.3 39.8 31 45.15
L 30.95 45.25
Q 26.7 51.9 25.2 59.85
L 25.2 59.9
Q 24.3 64.5 24 69 44.9 69.05 63.3 64.95 74.3 62.45 82.35 58
M 44.6 44.95
L 50.6 44.1
Q 51.8 43.9 52.85 44 53.95 44.1 54.75 44.5 55.55 44.9 56 45.75 56.5 46.6 56.5 47.95 56.5 49.6 55.6 50.9 54.75 52.2 53.1 52.7
L 57.05 58.75 52.95 59.35 49.7 53.55 48 53.8 48 60.05 44.6 60.55 44.6 44.95
M 60.45 49.1
L 58.6 47.2 63.65 42.15 66.75 41.7 66.75 57.3 63.6 57.75 63.6 45.85 60.45 49.1
M 50.25 47.05
L 48 47.35 48 50.9 50.05 50.6
Q 50.5 50.55 51 50.5 51.55 50.35 51.95 50.15 52.35 49.9 52.65 49.5 52.9 49.1 52.9 48.5 52.9 47.9 52.7 47.6 52.45 47.25 52.05 47.1 51.7 47 51.2 47 50.7 46.95 50.25 47.05 Z"/>

<path fill="#8C8C8C" stroke="none" d="
M 58.6 47.2
L 60.45 49.1 63.6 45.85 63.6 57.75 66.75 57.3 66.75 41.7 63.65 42.15 58.6 47.2
M 50.6 44.1
L 44.6 44.95 44.6 60.55 48 60.05 48 53.8 49.7 53.55 52.95 59.35 57.05 58.75 53.1 52.7
Q 54.75 52.2 55.6 50.9 56.5 49.6 56.5 47.95 56.5 46.6 56 45.75 55.55 44.9 54.75 44.5 53.95 44.1 52.85 44 51.8 43.9 50.6 44.1
M 48 47.35
L 50.25 47.05
Q 50.7 46.95 51.2 47 51.7 47 52.05 47.1 52.45 47.25 52.7 47.6 52.9 47.9 52.9 48.5 52.9 49.1 52.65 49.5 52.35 49.9 51.95 50.15 51.55 50.35 51 50.5 50.5 50.55 50.05 50.6
L 48 50.9 48 47.35 Z"/>
</g>

<path id="Layer1_0_1_STROKES" stroke="#202020" stroke-width="5" stroke-linejoin="round" stroke-linecap="round" fill="none" d="
M 88.3 61.45
L 88.3 53.55
Q 87.55 43.5 82.6 35.5 75.95 25.9 61.7 24.05 47.45 22.15 33.3 27.35 25.25 30.9 20.3 38.85 15.15 46.95 13.3 56.6 11.35 66.65 11.85 76.25 39 77.4 62.2 72.15 77.9 68.6 88.3 61.45 Z"/>

<path id="Layer1_0_2_STROKES" stroke="#626262" stroke-width="5" stroke-linejoin="round" stroke-linecap="round" fill="none" d="
M 82.35 55.45
L 82.35 58
Q 74.3 62.45 63.3 64.95 44.9 69.05 24 69 24.3 64.5 25.2 59.9
L 25.2 59.85
Q 26.7 51.9 30.95 45.25
L 31 45.15
Q 34.3 39.8 39.6 37.3
L 39.65 37.3
Q 51.55 32.95 63.55 34.55
L 63.6 34.55
Q 73.45 35.8 78.25 42.15
L 78.25 42.2
Q 81.75 48.1 82.35 55.45 Z"/>

</defs>

<g transform="matrix( 1, 0, 0, 1, 0,0) ">
<use xlink:href="#Layer1_0_FILL"/>

<use xlink:href="#Layer1_0_1_STROKES"/>

<use xlink:href="#Layer1_0_2_STROKES"/>
</g>

<g transform="matrix( 1, 0, 0, 1, -3.4,-28) ">
<clipPath id="Mask_Mask_1">
<rect x="8.35" y="-2" width="90.1" height="20.8" fill="#FFFFFF" stroke="none"/>
</clipPath>

<text clip-path="url(#Mask_Mask_1)" writing-mode="lr"><tspan x="10.45" y="13.6" baseline-shift="0%" kerning="auto" font-family="Arial_Regular" font-size="15" fill="#999999" xml:space="preserve">Playstation 4</tspan></text>
</g>
</svg>
