<?xml version="1.0" encoding="utf-8"?>
<!-- Generator: Adobe Illustrator 24.1.2, SVG Export Plug-In . SVG Version: 6.00 Build 0)  -->
<svg version="1.1" id="Layer_1" xmlns="http://www.w3.org/2000/svg" xmlns:xlink="http://www.w3.org/1999/xlink" x="0px" y="0px"
	 viewBox="0 0 148 148" enable-background="new 0 0 148 148" xml:space="preserve">
<g transform="matrix( 1, 0, 0, 1, 0,0) ">
	<g>
		<g transform="translate(24.5 24.5)">
<path fill="#272727" stroke="none" d="
M 79.85 20.15
Q 67.5 7.8 50 7.8 32.5 7.8 20.15 20.15 7.8 32.5 7.8 50 7.8 67.5 20.15 79.85 32.5 92.2 50 92.2 67.5 92.2 79.85 79.85 92.2 67.5 92.2 50 92.2 32.5 79.85 20.15
M 50 15.95
Q 64.2 15.95 74.1 25.95 84.1 35.9 84.1 50 84.1 64.2 74.1 74.1 64.2 84.1 50 84.1 35.9 84.1 25.95 74.1 15.95 64.2 15.95 50 15.95 35.9 25.95 25.95 35.9 15.95 50 15.95 Z"/>

<path fill="#4B4B4B" stroke="none" d="
M 74.1 25.95
Q 64.2 15.95 50 15.95 35.9 15.95 25.95 25.95 15.95 35.9 15.95 50 15.95 64.2 25.95 74.1 35.9 84.1 50 84.1 64.2 84.1 74.1 74.1 84.1 64.2 84.1 50 84.1 35.9 74.1 25.95
M 50 22.35
Q 61.55 22.35 69.6 30.5 77.7 38.55 77.7 50 77.7 61.55 69.6 69.6 61.55 77.7 50 77.7 38.55 77.7 30.5 69.6 22.35 61.55 22.35 50 22.35 38.55 30.5 30.5 38.55 22.35 50 22.35 Z"/>

<path fill="#3F3F3F" stroke="none" d="
M 69.6 30.5
Q 61.55 22.35 50 22.35 38.55 22.35 30.5 30.5 22.35 38.55 22.35 50 22.35 61.55 30.5 69.6 38.55 77.7 50 77.7 61.55 77.7 69.6 69.6 77.7 61.55 77.7 50 77.7 38.55 69.6 30.5
M 50 30
Q 58.35 30 64.2 35.9 70.05 41.7 70.05 50 70.05 58.35 64.2 64.2 58.35 70.05 50 70.05 41.7 70.05 35.9 64.2 30 58.35 30 50 30 41.7 35.9 35.9 41.7 30 50 30 Z"/>

<path fill="#616161" stroke="none" d="
M 64.2 35.9
Q 58.35 30 50 30 41.7 30 35.9 35.9 30 41.7 30 50 30 58.35 35.9 64.2 41.7 70.05 50 70.05 58.35 70.05 64.2 64.2 70.05 58.35 70.05 50 70.05 41.7 64.2 35.9
M 43.55 37.7
L 49 37.7 49 57.45 59.1 57.45 59.1 62.5 43.55 62.5 43.55 37.7 Z"/>

<path fill="#8C8C8C" stroke="none" d="
M 49 37.7
L 43.55 37.7 43.55 62.5 59.1 62.5 59.1 57.45 49 57.45 49 37.7 Z"/>
<path id="Layer1_0_1_STROKES" stroke="#151515" stroke-width="4" stroke-linejoin="round" stroke-linecap="round" fill="none" d="
M 50 7.8
Q 67.5 7.8 79.85 20.15 92.2 32.5 92.2 50 92.2 67.5 79.85 79.85 67.5 92.2 50 92.2 32.5 92.2 20.15 79.85 7.8 67.5 7.8 50 7.8 32.5 20.15 20.15 32.5 7.8 50 7.8 Z
M 50 15.95
Q 64.2 15.95 74.1 25.95 84.1 35.9 84.1 50 84.1 64.2 74.1 74.1 64.2 84.1 50 84.1 35.9 84.1 25.95 74.1 15.95 64.2 15.95 50 15.95 35.9 25.95 25.95 35.9 15.95 50 15.95 Z"/>
		</g>
	</g>
</g>
<path id="Left" fill="#BFBFBF" stroke="#000000" stroke-width="3" d="M3,74l23.8,24V50L3,74z"/>

</svg>
