
<svg xmlns="http://www.w3.org/2000/svg" version="1.1" xmlns:xlink="http://www.w3.org/1999/xlink" x="0px" y="0px" viewBox="0 0 100 100">
<defs>
<g id="Layer1_0_FILL">
<path fill="#313131" stroke="none" d="
M 33.95 91.75
L 37.35 95.1 62.65 95.1 66.05 91.75 64.85 71.8 55.45 59.4 44.55 59.4 35.15 71.8 33.95 91.75
M 48.1 66.1
L 49.35 66.1 50.65 66.1 51.9 66.1 58.15 73.9 59.05 88.4 40.95 88.4 41.85 73.9 48.1 66.1
M 8.25 33.95
L 4.9 37.35 4.9 62.65 8.25 66.05 28.2 64.85 40.6 55.45 40.6 44.55 28.2 35.15 8.25 33.95
M 11.6 40.95
L 26.1 41.85 33.9 48.1 33.9 49.35 33.9 50.65 33.9 51.9 26.1 58.15 11.6 59.05 11.6 40.95
M 66.05 8.25
L 62.65 4.9 37.35 4.9 33.95 8.25 35.15 28.2 44.55 40.6 55.45 40.6 64.85 28.2 66.05 8.25
M 40.95 11.6
L 59.05 11.6 58.15 26.1 51.9 33.9 50.65 33.9 49.35 33.9 48.1 33.9 41.85 26.1 40.95 11.6
M 95.1 37.35
L 91.75 33.95 71.8 35.15 59.4 44.55 59.4 55.45 71.8 64.85 91.75 66.05 95.1 62.65 95.1 37.35
M 88.4 40.95
L 88.4 59.05 73.9 58.15 66.1 51.9 66.1 50.65 66.1 49.35 66.1 48.1 73.9 41.85 88.4 40.95 Z"/>

<path fill="#4F4F4F" stroke="none" d="
M 49.35 66.1
L 48.1 66.1 41.85 73.9 40.95 88.4 59.05 88.4 58.15 73.9 51.9 66.1 50.65 66.1 49.35 66.1
M 26.1 41.85
L 11.6 40.95 11.6 59.05 26.1 58.15 33.9 51.9 33.9 50.65 33.9 49.35 33.9 48.1 26.1 41.85
M 59.05 11.6
L 40.95 11.6 41.85 26.1 48.1 33.9 49.35 33.9 50.65 33.9 51.9 33.9 58.15 26.1 59.05 11.6
M 88.4 59.05
L 88.4 40.95 73.9 41.85 66.1 48.1 66.1 49.35 66.1 50.65 66.1 51.9 73.9 58.15 88.4 59.05 Z"/>
</g>

<path id="Layer1_0_1_STROKES" stroke="#202020" stroke-width="4" stroke-linejoin="round" stroke-linecap="round" fill="none" d="
M 91.75 33.95
L 95.1 37.35 95.1 62.65 91.75 66.05 71.8 64.85 59.4 55.45 59.4 44.55 71.8 35.15 91.75 33.95 Z
M 62.65 4.9
L 66.05 8.25 64.85 28.2 55.45 40.6 44.55 40.6 35.15 28.2 33.95 8.25 37.35 4.9 62.65 4.9 Z
M 28.2 35.15
L 8.25 33.95 4.9 37.35 4.9 62.65 8.25 66.05 28.2 64.85 40.6 55.45 40.6 44.55 28.2 35.15 Z
M 35.15 71.8
L 33.95 91.75 37.35 95.1 62.65 95.1 66.05 91.75 64.85 71.8 55.45 59.4 44.55 59.4 35.15 71.8 Z"/>

<path id="Layer1_0_2_STROKES" stroke="#626262" stroke-width="4" stroke-linejoin="round" stroke-linecap="round" fill="none" d="
M 66.1 50.65
L 66.1 51.9 73.9 58.15 88.4 59.05 88.4 40.95 73.9 41.85 66.1 48.1 66.1 49.35
M 50.65 33.9
L 51.9 33.9 58.15 26.1 59.05 11.6 40.95 11.6 41.85 26.1 48.1 33.9 49.35 33.9
M 33.9 50.65
L 33.9 51.9 26.1 58.15 11.6 59.05 11.6 40.95 26.1 41.85 33.9 48.1 33.9 49.35
M 50.65 66.1
L 51.9 66.1 58.15 73.9 59.05 88.4 40.95 88.4 41.85 73.9 48.1 66.1 49.35 66.1"/>

</defs>

<g transform="matrix( 1, 0, 0, 1, 0,0) ">
<use xlink:href="#Layer1_0_FILL"/>

<use xlink:href="#Layer1_0_1_STROKES"/>

<use xlink:href="#Layer1_0_2_STROKES"/>
</g>

<g transform="matrix( 1, 0, 0, 1, -3.4,-28) ">
<clipPath id="Mask_Mask_1">
<rect x="8.35" y="-2" width="90.1" height="20.8" fill="#FFFFFF" stroke="none"/>
</clipPath>

<text clip-path="url(#Mask_Mask_1)" writing-mode="lr"><tspan x="10.45" y="13.6" baseline-shift="0%" kerning="auto" font-family="Arial_Regular" font-size="15" fill="#999999" xml:space="preserve">Playstation 4</tspan></text>
</g>
</svg>
