
<svg xmlns="http://www.w3.org/2000/svg" version="1.1" xmlns:xlink="http://www.w3.org/1999/xlink" x="0px" y="0px" viewBox="0 0 100 100">
<defs>
<g id="Layer1_0_FILL">
<path fill="#313131" stroke="none" d="
M 86.25 26.5
Q 85.85 16.6 81.8 12.5
L 25.55 12.5
Q 19 14.55 18.1 19.7
L 18.1 61.85
Q 28.7 61.45 36 70.35
L 42.55 83.95
Q 53.3 93.1 69.2 90.6 77.25 89.35 82.35 84.65 87.45 77.65 86.25 70.8 82.7 47.75 86.25 26.5
M 77.5 18.9
Q 80.15 21 79.95 24.7 78.15 34.1 77.7 44.3 77.7 60.65 80.25 73.85 80.05 80.65 71.6 83.5 65.25 84.9 59.55 81.65 54.45 76.5 51.45 70.75 46.65 62.65 44.2 53.4 40.7 40.25 40.85 26.25 40.15 21.3 44.35 18.9
L 77.5 18.9 Z"/>

<path fill="#4F4F4F" stroke="none" d="
M 79.95 24.7
Q 80.15 21 77.5 18.9
L 44.35 18.9
Q 40.15 21.3 40.85 26.25 40.7 40.25 44.2 53.4 46.65 62.65 51.45 70.75 54.45 76.5 59.55 81.65 65.25 84.9 71.6 83.5 80.05 80.65 80.25 73.85 77.7 60.65 77.7 44.3 78.15 34.1 79.95 24.7
M 55.8 25.65
Q 56.9 25.9 57.7 26.4 58.5 26.95 58.95 27.85 59.45 28.8 59.45 30.15 59.45 31.8 58.55 32.95 57.7 34.1 56.05 34.4
L 60 41 55.9 41 52.65 34.75 50.95 34.75 50.95 41 47.55 41 47.55 25.4 53.55 25.4
Q 54.75 25.4 55.8 25.65
M 71.65 27.8
Q 72 28.7 72 29.85 72 30.6 71.85 31.2 71.7 31.8 71.45 32.3 71.15 32.8 70.8 33.2 70.4 33.65 70 34.05
L 65.25 38.1 72.15 38.1 72.15 41 61.3 41 61.3 37.5 67.35 32.05
Q 67.8 31.65 68.25 31.1 68.7 30.6 68.7 29.9 68.7 29.1 68.15 28.65 67.6 28.2 66.8 28.2 65.9 28.2 65.35 28.75 64.85 29.35 64.8 30.15
L 61.5 29.95
Q 61.55 28.7 62 27.85 62.4 26.95 63.15 26.35 63.85 25.75 64.85 25.45 65.85 25.15 67 25.15 68.05 25.15 68.95 25.45 69.9 25.75 70.55 26.35 71.25 26.9 71.65 27.8
M 54.15 28.4
Q 53.65 28.3 53.2 28.3
L 50.95 28.3 50.95 31.85 53 31.85
Q 53.45 31.85 53.95 31.85 54.5 31.8 54.9 31.65 55.3 31.45 55.6 31.1 55.85 30.75 55.85 30.15 55.85 29.55 55.65 29.2 55.4 28.85 55 28.65 54.65 28.45 54.15 28.4 Z"/>

<path fill="#8C8C8C" stroke="none" d="
M 72 29.85
Q 72 28.7 71.65 27.8 71.25 26.9 70.55 26.35 69.9 25.75 68.95 25.45 68.05 25.15 67 25.15 65.85 25.15 64.85 25.45 63.85 25.75 63.15 26.35 62.4 26.95 62 27.85 61.55 28.7 61.5 29.95
L 64.8 30.15
Q 64.85 29.35 65.35 28.75 65.9 28.2 66.8 28.2 67.6 28.2 68.15 28.65 68.7 29.1 68.7 29.9 68.7 30.6 68.25 31.1 67.8 31.65 67.35 32.05
L 61.3 37.5 61.3 41 72.15 41 72.15 38.1 65.25 38.1 70 34.05
Q 70.4 33.65 70.8 33.2 71.15 32.8 71.45 32.3 71.7 31.8 71.85 31.2 72 30.6 72 29.85
M 57.7 26.4
Q 56.9 25.9 55.8 25.65 54.75 25.4 53.55 25.4
L 47.55 25.4 47.55 41 50.95 41 50.95 34.75 52.65 34.75 55.9 41 60 41 56.05 34.4
Q 57.7 34.1 58.55 32.95 59.45 31.8 59.45 30.15 59.45 28.8 58.95 27.85 58.5 26.95 57.7 26.4
M 53.2 28.3
Q 53.65 28.3 54.15 28.4 54.65 28.45 55 28.65 55.4 28.85 55.65 29.2 55.85 29.55 55.85 30.15 55.85 30.75 55.6 31.1 55.3 31.45 54.9 31.65 54.5 31.8 53.95 31.85 53.45 31.85 53 31.85
L 50.95 31.85 50.95 28.3 53.2 28.3 Z"/>
</g>

<path id="Layer1_0_1_STROKES" stroke="#626262" stroke-width="4" stroke-linejoin="round" stroke-linecap="round" fill="none" d="
M 79.95 24.7
Q 80.15 21 77.5 18.9
L 44.35 18.9
Q 40.15 21.3 40.85 26.25 40.7 40.25 44.2 53.4 46.65 62.65 51.45 70.75 54.45 76.5 59.55 81.65 65.25 84.9 71.6 83.5 80.05 80.65 80.25 73.85 77.7 60.65 77.7 44.3 78.15 34.1 79.95 24.7 Z"/>

<path id="Layer1_0_2_STROKES" stroke="#202020" stroke-width="5" stroke-linejoin="round" stroke-linecap="round" fill="none" d="
M 81.8 12.5
Q 85.85 16.6 86.25 26.5 82.7 47.75 86.25 70.8 87.45 77.65 82.35 84.65 77.25 89.35 69.2 90.6 53.3 93.1 42.55 83.95
L 36 70.35
Q 28.7 61.45 18.1 61.85
L 18.1 19.7
Q 19 14.55 25.55 12.5
L 81.8 12.5 Z"/>

</defs>

<g transform="matrix( 1, 0, 0, 1, 0,0) ">
<use xlink:href="#Layer1_0_FILL"/>

<use xlink:href="#Layer1_0_1_STROKES"/>

<use xlink:href="#Layer1_0_2_STROKES"/>
</g>

<g transform="matrix( 1, 0, 0, 1, -3.4,-28) ">
<clipPath id="Mask_Mask_1">
<rect x="8.35" y="-2" width="90.1" height="20.8" fill="#FFFFFF" stroke="none"/>
</clipPath>

<text clip-path="url(#Mask_Mask_1)" writing-mode="lr"><tspan x="10.45" y="13.6" baseline-shift="0%" kerning="auto" font-family="Arial_Regular" font-size="15" fill="#999999" xml:space="preserve">Playstation 4</tspan></text>
</g>
</svg>
