
<svg xmlns="http://www.w3.org/2000/svg" version="1.1" xmlns:xlink="http://www.w3.org/1999/xlink" x="0px" y="0px" viewBox="0 0 100 100">
<defs>
<linearGradient id="Gradient_1" gradientUnits="userSpaceOnUse" x1="50.55" y1="43.0875" x2="50.55" y2="32.7125" spreadMethod="pad">
<stop  offset="0%" stop-color="#BCBFC4"/>

<stop  offset="100%" stop-color="#96989D"/>
</linearGradient>

<g id="Layer1_0_FILL">
<path fill="url(#Gradient_1)" stroke="none" d="
M 92.7 35.9
Q 92.8 31.25 88.6 30.65 51.7998046875 27.495703125 17.8 30.1 14.6126953125 30.354296875 11.45 30.65 7.25 31.25 7.35 35.9
L 13.5 65.5
Q 15.95 73.15 22.85 74
L 77.2 74
Q 84.1 73.15 86.55 65.5
L 92.7 35.9 Z"/>
</g>

<path id="Layer1_0_1_STROKES" stroke="#434345" stroke-width="5" stroke-linejoin="round" stroke-linecap="round" fill="none" d="
M 88.6 30.65
Q 92.8 31.25 92.7 35.9
L 86.55 65.5
Q 84.1 73.15 77.2 74
L 22.85 74
Q 15.95 73.15 13.5 65.5
L 7.35 35.9
Q 7.25 31.25 11.45 30.65 14.6126953125 30.354296875 17.8 30.1 51.7998046875 27.495703125 88.6 30.65 Z"/>

</defs>

<g transform="matrix( 1, 0, 0, 1, 0,0) ">
<use xlink:href="#Layer1_0_FILL"/>

<use xlink:href="#Layer1_0_1_STROKES"/>
</g>

<g transform="matrix( 1, 0, 0, 1, -3.4,-28) ">
<clipPath id="Mask_Mask_1">
<rect x="8.35" y="-2" width="90.1" height="20.8" fill="#FFFFFF" stroke="none"/>
</clipPath>

<text clip-path="url(#Mask_Mask_1)" writing-mode="lr"><tspan x="10.45" y="13.6" baseline-shift="0%" kerning="auto" font-family="Arial_Regular" font-size="15" fill="#999999" xml:space="preserve">Playstation 5</tspan></text>
</g>
</svg>
