
<svg xmlns="http://www.w3.org/2000/svg" version="1.1" xmlns:xlink="http://www.w3.org/1999/xlink" x="0px" y="0px" viewBox="0 0 100 100">
<defs>
<linearGradient id="Gradient_1" gradientUnits="userSpaceOnUse" x1="50.05" y1="28.25" x2="50.05" y2="38.25" spreadMethod="pad">
<stop  offset="0%" stop-color="#4F4F4F"/>

<stop  offset="100%" stop-color="#313131"/>
</linearGradient>

<g id="Layer1_0_FILL">
<path fill="#E3E7ED" stroke="none" d="
M 44.9 78.4
Q 45.7 79.25 46.9 79.25
L 51.2 79.25 43.95 72.2 43.95 76.3
Q 43.95 77.55 44.9 78.4
M 57.05 60.5
Q 57.05 59.25 56.2 58.4 55.35 57.55 54.1 57.55
L 46.9 57.55
Q 45.7 57.55 44.9 58.4 43.95 59.25 43.95 60.5
L 43.95 62.9 57.05 75.7 57.05 60.5
M 62.35 73.75
Q 62.35 73.05 61.9 72.6 61.4 72.1 60.7 72.1 60 72.1 59.5 72.6 59 73.05 59 73.75
L 59 77.65 62.1 80.7
Q 62.35 79.75 62.35 78.6
L 62.35 73.75
M 36.6 61.95
Q 36.6 62.65 37.1 63.15
L 60.55 86.15
Q 61.05 86.6 61.75 86.6 62.45 86.6 62.9 86.1 63.4 85.6 63.4 84.95 63.4 84.25 62.9 83.8
L 39.45 60.75
Q 38.95 60.25 38.3 60.25 37.6 60.25 37.1 60.75 36.6 61.25 36.6 61.95
M 38.5 73.75
L 38.5 78.6
Q 38.55 84.3 44.2 84.35
L 48.75 84.35 48.75 86.6 44.8 86.6
Q 44.1 86.6 43.65 87.1 43.15 87.55 43.15 88.25 43.15 89 43.65 89.5 44.1 89.95 44.8 89.95
L 56 89.95
Q 56.7 89.95 57.2 89.5 57.65 89 57.65 88.25 57.65 87.55 57.2 87.1 56.7 86.6 56 86.6
L 52.05 86.6 52.05 84.35 56.35 84.35 53 81 44.25 81
Q 41.85 80.95 41.8 78.55
L 41.8 73.75
Q 41.8 73.05 41.35 72.6 40.85 72.1 40.15 72.1 39.45 72.1 39 72.6 38.5 73.05 38.5 73.75 Z"/>

<path fill="#313131" stroke="none" d="
M 86.5 43.15
Q 90 39.65 90 34.75 90 29.8 86.5 26.35 83.05 22.85 78.1 22.85
L 21.9 22.85
Q 16.95 22.85 13.5 26.35 10 29.8 10 34.75 10 39.65 13.5 43.15 16.95 46.6 21.9 46.6
L 78.1 46.6
Q 83.05 46.6 86.5 43.15
M 82.3 30.6
Q 84.012109375 32.31796875 84 34.75 83.987890625 37.169921875 82.25 38.9 80.547265625 40.6064453125 78.1 40.6
L 21.9 40.6
Q 19.4525390625 40.6064453125 17.75 38.9 16.0119140625 37.169921875 16 34.75 15.987890625 32.31796875 17.7 30.6
L 17.75 30.55
Q 19.46796875 28.837890625 21.9 28.85
L 78.1 28.85
Q 80.5318359375 28.837890625 82.2 30.55
L 82.3 30.6 Z"/>

<path fill="url(#Gradient_1)" stroke="none" d="
M 84 34.75
Q 84.012109375 32.31796875 82.3 30.6
L 82.2 30.55
Q 80.5318359375 28.837890625 78.1 28.85
L 21.9 28.85
Q 19.46796875 28.837890625 17.75 30.55
L 17.7 30.6
Q 15.987890625 32.31796875 16 34.75 16.0119140625 37.169921875 17.75 38.9 19.4525390625 40.6064453125 21.9 40.6
L 78.1 40.6
Q 80.547265625 40.6064453125 82.25 38.9 83.987890625 37.169921875 84 34.75 Z"/>
</g>

<path id="Layer1_0_1_STROKES" stroke="#1B1B1B" stroke-width="5" stroke-linejoin="round" stroke-linecap="round" fill="none" d="
M 78.1 22.85
Q 83.05 22.85 86.5 26.35 90 29.8 90 34.75 90 39.65 86.5 43.15 83.05 46.6 78.1 46.6
L 21.9 46.6
Q 16.95 46.6 13.5 43.15 10 39.65 10 34.75 10 29.8 13.5 26.35 16.95 22.85 21.9 22.85
L 78.1 22.85 Z"/>

</defs>

<g transform="matrix( 1, 0, 0, 1, 0,0) ">
<use xlink:href="#Layer1_0_FILL"/>

<use xlink:href="#Layer1_0_1_STROKES"/>
</g>

<g transform="matrix( 1, 0, 0, 1, -3.4,-28) ">
<clipPath id="Mask_Mask_1">
<rect x="8.35" y="-2" width="90.1" height="20.8" fill="#FFFFFF" stroke="none"/>
</clipPath>

<text clip-path="url(#Mask_Mask_1)" writing-mode="lr"><tspan x="10.45" y="13.6" baseline-shift="0%" kerning="auto" font-family="Arial_Regular" font-size="15" fill="#999999" xml:space="preserve">Playstation 5</tspan></text>
</g>
</svg>
