
<svg xmlns="http://www.w3.org/2000/svg" version="1.1" xmlns:xlink="http://www.w3.org/1999/xlink" x="0px" y="0px" viewBox="0 0 100 100">
<defs>
<g id="Layer1_0_FILL">
<path fill="#96989D" stroke="none" d="
M 55.8 29.4
Q 48.45 28 42.3 32.15 36.2 36.4 34.8 43.7
L 30 69
Q 28.6 76.3 32.75 82.4 36.95 88.6 44.3 90 51.6 91.35 57.7 87.15 63.85 82.95 65.25 75.65
L 70.05 50.35
Q 71.45 43.05 67.25 36.9 63.1 30.75 55.8 29.4
M 46.5 38.4
Q 50.1 35.95 54.4 36.8 58.65 37.6 61.05 41.15 63.5 44.7 62.7 49
L 57.9 74.3
Q 57.1 78.55 53.5 80.95 49.95 83.4 45.7 82.6 41.4 81.75 38.95 78.2 36.55 74.65 37.35 70.4
L 42.15 45.1
Q 42.95 40.8 46.5 38.4 Z"/>

<path fill="#BCBFC4" stroke="none" d="
M 54.4 36.8
Q 50.1 35.95 46.5 38.4 42.95 40.8 42.15 45.1
L 37.35 70.4
Q 36.55 74.65 38.95 78.2 41.4 81.75 45.7 82.6 49.95 83.4 53.5 80.95 57.1 78.55 57.9 74.3
L 62.7 49
Q 63.5 44.7 61.05 41.15 58.65 37.6 54.4 36.8 Z"/>
</g>

<path id="Layer1_0_1_STROKES" stroke="#E3E7ED" stroke-width="4" stroke-linejoin="round" stroke-linecap="round" fill="none" d="
M 62.7 49
Q 63.5 44.7 61.05 41.15 58.65 37.6 54.4 36.8 50.1 35.95 46.5 38.4 42.95 40.8 42.15 45.1
L 37.35 70.4
Q 36.55 74.65 38.95 78.2 41.4 81.75 45.7 82.6 49.95 83.4 53.5 80.95 57.1 78.55 57.9 74.3
L 62.7 49 Z
M 44.25 5.85
L 62.25 5.85
M 44.25 13.35
L 62.25 13.35
M 44.25 20.85
L 62.25 20.85"/>

<path id="Layer1_0_2_STROKES" stroke="#434345" stroke-width="4" stroke-linejoin="round" stroke-linecap="round" fill="none" d="
M 70.05 50.35
Q 71.45 43.05 67.25 36.9 63.1 30.75 55.8 29.4 48.45 28 42.3 32.15 36.2 36.4 34.8 43.7
L 30 69
Q 28.6 76.3 32.75 82.4 36.95 88.6 44.3 90 51.6 91.35 57.7 87.15 63.85 82.95 65.25 75.65
L 70.05 50.35 Z"/>

</defs>

<g transform="matrix( 1, 0, 0, 1, 0,0) ">
<use xlink:href="#Layer1_0_FILL"/>

<use xlink:href="#Layer1_0_1_STROKES"/>

<use xlink:href="#Layer1_0_2_STROKES"/>
</g>

<g transform="matrix( 1, 0, 0, 1, -3.4,-28) ">
<clipPath id="Mask_Mask_1">
<rect x="8.35" y="-2" width="90.1" height="20.8" fill="#FFFFFF" stroke="none"/>
</clipPath>

<text clip-path="url(#Mask_Mask_1)" writing-mode="lr"><tspan x="10.45" y="13.6" baseline-shift="0%" kerning="auto" font-family="Arial_Regular" font-size="15" fill="#999999" xml:space="preserve">Playstation 5</tspan></text>
</g>
</svg>
