
<svg xmlns="http://www.w3.org/2000/svg" version="1.1" xmlns:xlink="http://www.w3.org/1999/xlink" x="0px" y="0px" viewBox="0 0 100 100">
<defs>
<g id="Layer1_0_FILL">
<path fill="#313131" stroke="none" d="
M 84.15 70.8
Q 80.6 47.75 85.5 25 85.6 15.65 78.95 11.75 59.05 13.4 33.55 11.45 33.3 11.4 33.05 11.4 31.25 11.25 29.45 11.15 24.8 10.35 20.7 12.75 16.75 15.1 16.45 19.75 16.15 24.3 16 28.8
L 16 43.35
Q 17.35 50.35 23.65 53.75 30.7 59 33.9 70.35
L 40.45 83.95
Q 51.2 93.1 67.1 90.6 75.15 89.35 80.25 84.65 85.35 77.65 84.15 70.8
M 77.3 21.4
Q 78 23 77.85 24.7 77.45 27.05 77.1 29.5 76.65 32.5 76.3 35.6 76 37.9 75.8 40.55 75.55 43.45 75.6 46.35 75.7 49.3 75.75 52.25 75.8 54.95 75.9 57.8 76 59.55 76.1 61.3 76.2 63 76.35 64.7 76.45 66.3 76.6 67.9 76.75 69.45 76.9 71 76.95 71.7 77.05 72.45 77.3 74.4 76.9 76.25 76.7 77.05 76.35 77.85 76.05 78.6 75.6 79.3 75.4 79.7 75.15 80 74.9 80.35 74.55 80.65 73.9 81.25 73.2 81.8 72.8 82.05 72.45 82.3 72 82.5 71.55 82.75 71.05 82.95 70.6 83.15 70.05 83.3 69.5 83.5 68.7 83.65 68.3 83.7 66.3 83.7 64.75 83.35 63 83.1 61.35 82.5 60 81.95 58.8 81.25 57.4 80.35 56.15 79.3 54.75 78.1 53.5 76.85 52.6 75.8 51.8 74.7 50.95 73.45 50.2 72.15 49.15 70.45 48.2 68.75 46.5 65.55 45.15 62.4 43.7 59 42.8 55.75 42.25 53.75 41.75 51.8 41.55 50.95 41.35 50.15 41.15 49.3 41 48.5 40.8 47.65 40.6 46.8 40.45 45.95 40.35 45.15 40.2 44.3 40.05 43.45 39.9 42.6 39.75 41.75 39.65 40.9 39.55 40.05 39.45 39.2 39.35 38.35 39.3 37.5 39.25 36.65 39.15 35.8 39.1 34.95 39 34.05 38.95 33.2 38.9 32.35 38.9 31.5 38.85 30.6 38.8 29.75 38.8 28.9 38.8 28.05 38.75 27.15 38.65 26.25 38.4 24.05 39.35 21.95 40.25 20.1 42.25 18.9 43.35 19 44.45 19.1 45.5 19.15 46.55 19.25 47.6 19.3 48.65 19.4 49.7 19.45 50.75 19.5 51.8 19.55 52.85 19.6 53.9 19.6 54.95 19.65 56 19.65 57.05 19.65 58.05 19.65 59.1 19.65 63.2 19.65 67.35 19.5 71.3 19.2 75.4 18.9 76.65 19.85 77.3 21.4 Z"/>

<path fill="#4F4F4F" stroke="none" d="
M 77.85 24.7
Q 78 23 77.3 21.4 76.65 19.85 75.4 18.9 71.3 19.2 67.35 19.5 63.2 19.65 59.1 19.65 58.05 19.65 57.05 19.65 56 19.65 54.95 19.65 53.9 19.6 52.85 19.6 51.8 19.55 50.75 19.5 49.7 19.45 48.65 19.4 47.6 19.3 46.55 19.25 45.5 19.15 44.45 19.1 43.35 19 42.25 18.9 40.25 20.1 39.35 21.95 38.4 24.05 38.65 26.25 38.75 27.15 38.8 28.05 38.8 28.9 38.8 29.75 38.85 30.6 38.9 31.5 38.9 32.35 38.95 33.2 39 34.05 39.1 34.95 39.15 35.8 39.25 36.65 39.3 37.5 39.35 38.35 39.45 39.2 39.55 40.05 39.65 40.9 39.75 41.75 39.9 42.6 40.05 43.45 40.2 44.3 40.35 45.15 40.45 45.95 40.6 46.8 40.8 47.65 41 48.5 41.15 49.3 41.35 50.15 41.55 50.95 41.75 51.8 42.25 53.75 42.8 55.75 43.7 59 45.15 62.4 46.5 65.55 48.2 68.75 49.15 70.45 50.2 72.15 50.95 73.45 51.8 74.7 52.6 75.8 53.5 76.85 54.75 78.1 56.15 79.3 57.4 80.35 58.8 81.25 60 81.95 61.35 82.5 63 83.1 64.75 83.35 66.3 83.7 68.3 83.7 68.7 83.65 69.5 83.5 70.05 83.3 70.6 83.15 71.05 82.95 71.55 82.75 72 82.5 72.45 82.3 72.8 82.05 73.2 81.8 73.9 81.25 74.55 80.65 74.9 80.35 75.15 80 75.4 79.7 75.6 79.3 76.05 78.6 76.35 77.85 76.7 77.05 76.9 76.25 77.3 74.4 77.05 72.45 76.95 71.7 76.9 71 76.75 69.45 76.6 67.9 76.45 66.3 76.35 64.7 76.2 63 76.1 61.3 76 59.55 75.9 57.8 75.8 54.95 75.75 52.25 75.7 49.3 75.6 46.35 75.55 43.45 75.8 40.55 76 37.9 76.3 35.6 76.65 32.5 77.1 29.5 77.45 27.05 77.85 24.7
M 59.4 29.95
Q 59.45 28.7 59.9 27.85 60.3 26.95 61.05 26.35 61.75 25.75 62.75 25.45 63.75 25.15 64.9 25.15 65.95 25.15 66.85 25.45 67.8 25.75 68.45 26.35 69.15 26.9 69.55 27.8 69.9 28.7 69.9 29.85 69.9 30.6 69.75 31.2 69.6 31.8 69.35 32.3 69.05 32.8 68.7 33.2 68.3 33.65 67.9 34.05
L 63.15 38.1 70.05 38.1 70.05 41 59.2 41 59.2 37.5 65.25 32.05
Q 65.7 31.65 66.15 31.1 66.6 30.6 66.6 29.9 66.6 29.1 66.05 28.65 65.5 28.2 64.7 28.2 63.8 28.2 63.25 28.75 62.75 29.35 62.7 30.15
L 59.4 29.95
M 56.85 27.85
Q 57.35 28.8 57.35 30.15 57.35 31.8 56.45 32.95 55.6 34.1 53.95 34.4
L 57.9 41 53.8 41 50.55 34.75 48.85 34.75 48.85 41 45.45 41 45.45 25.4 51.45 25.4
Q 52.65 25.4 53.7 25.65 54.8 25.9 55.6 26.4 56.4 26.95 56.85 27.85
M 52.05 28.4
Q 51.55 28.3 51.1 28.3
L 48.85 28.3 48.85 31.85 50.9 31.85
Q 51.35 31.85 51.85 31.85 52.4 31.8 52.8 31.65 53.2 31.45 53.5 31.1 53.75 30.75 53.75 30.15 53.75 29.55 53.55 29.2 53.3 28.85 52.9 28.65 52.55 28.45 52.05 28.4 Z"/>

<path fill="#8C8C8C" stroke="none" d="
M 57.35 30.15
Q 57.35 28.8 56.85 27.85 56.4 26.95 55.6 26.4 54.8 25.9 53.7 25.65 52.65 25.4 51.45 25.4
L 45.45 25.4 45.45 41 48.85 41 48.85 34.75 50.55 34.75 53.8 41 57.9 41 53.95 34.4
Q 55.6 34.1 56.45 32.95 57.35 31.8 57.35 30.15
M 51.1 28.3
Q 51.55 28.3 52.05 28.4 52.55 28.45 52.9 28.65 53.3 28.85 53.55 29.2 53.75 29.55 53.75 30.15 53.75 30.75 53.5 31.1 53.2 31.45 52.8 31.65 52.4 31.8 51.85 31.85 51.35 31.85 50.9 31.85
L 48.85 31.85 48.85 28.3 51.1 28.3
M 59.9 27.85
Q 59.45 28.7 59.4 29.95
L 62.7 30.15
Q 62.75 29.35 63.25 28.75 63.8 28.2 64.7 28.2 65.5 28.2 66.05 28.65 66.6 29.1 66.6 29.9 66.6 30.6 66.15 31.1 65.7 31.65 65.25 32.05
L 59.2 37.5 59.2 41 70.05 41 70.05 38.1 63.15 38.1 67.9 34.05
Q 68.3 33.65 68.7 33.2 69.05 32.8 69.35 32.3 69.6 31.8 69.75 31.2 69.9 30.6 69.9 29.85 69.9 28.7 69.55 27.8 69.15 26.9 68.45 26.35 67.8 25.75 66.85 25.45 65.95 25.15 64.9 25.15 63.75 25.15 62.75 25.45 61.75 25.75 61.05 26.35 60.3 26.95 59.9 27.85 Z"/>
</g>

<path id="Layer1_0_1_STROKES" stroke="#1B1B1B" stroke-width="5" stroke-linejoin="round" stroke-linecap="round" fill="none" d="
M 85.5 25
Q 80.6 47.75 84.15 70.8 85.35 77.65 80.25 84.65 75.15 89.35 67.1 90.6 51.2 93.1 40.45 83.95
L 33.9 70.35
Q 30.7 59 23.65 53.75 17.35 50.35 16 43.35
L 16 28.8
Q 16.15 24.3 16.45 19.75 16.75 15.1 20.7 12.75 24.8 10.35 29.45 11.15 31.25 11.25 33.05 11.4 33.3 11.4 33.55 11.45 59.05 13.4 78.95 11.75 85.6 15.65 85.5 25 Z"/>

<path id="Layer1_0_2_STROKES" stroke="#626262" stroke-width="3" stroke-linejoin="round" stroke-linecap="round" fill="none" d="
M 42.25 18.9
Q 40.25 20.1 39.35 21.95 38.4 24.05 38.65 26.25 38.75 27.15 38.8 28.05 38.8 28.9 38.8 29.75 38.85 30.6 38.9 31.5 38.9 32.35 38.95 33.2 39 34.05 39.1 34.95 39.15 35.8 39.25 36.65 39.3 37.5 39.35 38.35 39.45 39.2 39.55 40.05 39.65 40.9 39.75 41.75 39.9 42.6 40.05 43.45 40.2 44.3 40.35 45.15 40.45 45.95 40.6 46.8 40.8 47.65 41 48.5 41.15 49.3 41.35 50.15 41.55 50.95 41.75 51.8 42.25 53.75 42.8 55.75 43.7 59 45.15 62.4 46.5 65.55 48.2 68.75 49.15 70.45 50.2 72.15 50.95 73.45 51.8 74.7 52.6 75.8 53.5 76.85 54.75 78.1 56.15 79.3 57.4 80.35 58.8 81.25 60 81.95 61.35 82.5 63 83.1 64.75 83.35 66.3 83.7 68.3 83.7 68.7 83.65 69.5 83.5 70.05 83.3 70.6 83.15 71.05 82.95 71.55 82.75 72 82.5 72.45 82.3 72.8 82.05 73.2 81.8 73.9 81.25 74.55 80.65 74.9 80.35 75.15 80 75.4 79.7 75.6 79.3 76.05 78.6 76.35 77.85 76.7 77.05 76.9 76.25 77.3 74.4 77.05 72.45 76.95 71.7 76.9 71 76.75 69.45 76.6 67.9 76.45 66.3 76.35 64.7 76.2 63 76.1 61.3 76 59.55 75.9 57.8 75.8 54.95 75.75 52.25 75.7 49.3 75.6 46.35 75.55 43.45 75.8 40.55 76 37.9 76.3 35.6 76.65 32.5 77.1 29.5 77.45 27.05 77.85 24.7 78 23 77.3 21.4 76.65 19.85 75.4 18.9 71.3 19.2 67.35 19.5 63.2 19.65 59.1 19.65 58.05 19.65 57.05 19.65 56 19.65 54.95 19.65 53.9 19.6 52.85 19.6 51.8 19.55 50.75 19.5 49.7 19.45 48.65 19.4 47.6 19.3 46.55 19.25 45.5 19.15 44.45 19.1 43.35 19 42.25 18.9 Z"/>

</defs>

<g transform="matrix( 1, 0, 0, 1, 0,0) ">
<use xlink:href="#Layer1_0_FILL"/>

<use xlink:href="#Layer1_0_1_STROKES"/>

<use xlink:href="#Layer1_0_2_STROKES"/>
</g>

<g transform="matrix( 1, 0, 0, 1, -3.4,-28) ">
<clipPath id="Mask_Mask_1">
<rect x="8.35" y="-2" width="90.1" height="20.8" fill="#FFFFFF" stroke="none"/>
</clipPath>

<text clip-path="url(#Mask_Mask_1)" writing-mode="lr"><tspan x="10.45" y="13.6" baseline-shift="0%" kerning="auto" font-family="Arial_Regular" font-size="15" fill="#999999" xml:space="preserve">Playstation 5</tspan></text>
</g>
</svg>
