<?xml version="1.0" encoding="utf-8"?>
<!-- Generator: Adobe Illustrator 24.1.2, SVG Export Plug-In . SVG Version: 6.00 Build 0)  -->
<svg version="1.1" id="Layer_1" xmlns="http://www.w3.org/2000/svg" xmlns:xlink="http://www.w3.org/1999/xlink" x="0px" y="0px"
	 viewBox="0 0 100 100" style="enable-background:new 0 0 100 100;" xml:space="preserve">
<g transform="matrix( 1, 0, 0, 1, 0,0) ">
	<g>
		<g id="Layer1_0_FILL">
			<path style="fill:#313131;" d="M46,45.4v-8.8c-0.1-1.8-0.2-3.6-0.3-5.5c-0.1-1.9-1-3.3-2.6-4.2c-1.7-1-3.4-1.3-5.3-1
				c-0.7,0-1.5,0.1-2.2,0.2c-0.1,0-0.2,0-0.3,0C25.1,26.9,16,26.9,8,26.3c-2.7,1.6-4,4.2-4,8C6,43.5,6.2,52.7,4.8,62
				c-0.5,2.8,0.3,5.5,2.4,8.4c2.1,1.9,4.7,3.1,7.9,3.6c6.4,1,11.8-0.3,16.1-4l4-8.2c1.3-4.6,3.4-7.9,6.2-10
				C43.9,50.3,45.5,48.2,46,45.4 M28.8,30.7c0.4,0,0.9-0.1,1.3-0.1c0.8,0.5,1.4,1.1,1.8,1.8c0.4,0.8,0.5,1.7,0.4,2.6
				c0,0.4-0.1,0.7-0.1,1.1c0,0.3,0,0.7,0,1s0,0.7-0.1,1.1c0,0.3,0,0.7,0,1S32,39.9,32,40.3c0,0.3-0.1,0.7-0.1,1s0,0.7-0.1,1
				c0,0.3-0.1,0.7-0.1,1s-0.1,0.7-0.1,1c-0.1,0.3-0.1,0.7-0.2,1s-0.1,0.7-0.2,1c0,0.3-0.1,0.7-0.2,1s-0.2,0.7-0.2,1
				c-0.1,0.3-0.1,0.7-0.2,1s-0.2,0.7-0.2,1c-0.2,0.8-0.4,1.6-0.6,2.4c-0.4,1.3-0.8,2.6-1.4,4c-0.5,1.3-1.2,2.5-1.8,3.8
				c-0.4,0.7-0.8,1.4-1.2,2.1c-0.3,0.5-0.6,1-1,1.5c-0.3,0.4-0.7,0.9-1,1.3c-0.5,0.5-1,1-1.6,1.5c-0.5,0.4-1,0.8-1.6,1.2
				c-0.5,0.3-1,0.5-1.5,0.8c-0.7,0.2-1.3,0.4-2.1,0.5c-0.6,0.1-1.3,0.2-2.1,0.2c-0.2,0-0.4-0.1-0.7-0.1c-0.2-0.1-0.4-0.2-0.7-0.2
				c-0.2-0.1-0.4-0.2-0.6-0.2c-0.2-0.1-0.4-0.2-0.5-0.3c-0.1-0.1-0.3-0.2-0.5-0.3c-0.3-0.2-0.6-0.5-0.8-0.7
				c-0.1-0.1-0.3-0.3-0.4-0.4c-0.1-0.1-0.2-0.3-0.3-0.4c-0.2-0.3-0.3-0.6-0.5-0.9c-0.1-0.3-0.3-0.6-0.3-1C9,64.5,9,63.7,9.1,62.9
				c0-0.3,0.1-0.6,0.1-0.9c0.1-0.6,0.1-1.2,0.2-1.9c0.1-0.6,0.1-1.3,0.2-1.9c0.1-0.7,0.1-1.4,0.2-2.1c0-0.7,0.1-1.4,0.1-2.1
				c0-1.1,0.1-2.3,0.1-3.4c0-1.2,0.1-2.4,0.1-3.6c0-1.2,0-2.3-0.1-3.5c-0.1-1.1-0.2-2.1-0.3-3c-0.1-1.2-0.3-2.5-0.5-3.7
				c-0.1-1-0.3-2-0.5-2.9c-0.1-0.7,0.1-1.3,0.3-2c0.3-0.6,0.6-1.1,1.1-1.5c1.7,0.1,3.3,0.2,4.9,0.4c1.7,0.1,3.3,0.1,5,0.1
				c0.4,0,0.8,0,1.2,0c0.4,0,0.8,0,1.3,0c0.4,0,0.8,0,1.3,0c0.4,0,0.8,0,1.3-0.1c0.4,0,0.8,0,1.3-0.1c0.4,0,0.8-0.1,1.3-0.1
				C28,30.7,28.4,30.7,28.8,30.7z"/>
			<path style="fill:#4F4F4F;" d="M30.1,30.6c-0.4,0-0.9,0.1-1.3,0.1s-0.8,0.1-1.3,0.1c-0.4,0-0.8,0.1-1.3,0.1c-0.4,0-0.8,0-1.3,0.1
				c-0.4,0-0.8,0-1.3,0.1c-0.4,0-0.8,0-1.3,0c-0.4,0-0.8,0-1.3,0c-0.4,0-0.8,0-1.2,0c-1.7,0-3.3,0-5-0.1c-1.6-0.1-3.2-0.2-4.9-0.4
				C9.6,31,9.2,31.5,9,32.1c-0.3,0.6-0.4,1.3-0.3,2C8.8,35,8.9,36,9.1,37c0.2,1.2,0.3,2.4,0.5,3.7c0.1,0.9,0.2,1.9,0.3,3
				C10,44.8,10,46,10,47.2s-0.1,2.4-0.1,3.6c0,1.1-0.1,2.2-0.1,3.4c0,0.7-0.1,1.4-0.1,2.1c0,0.7-0.1,1.4-0.2,2.1
				c0,0.6-0.1,1.3-0.2,1.9c-0.1,0.6-0.1,1.2-0.2,1.9c0,0.3-0.1,0.6-0.1,0.9c0,0.6,0,1.4,0.2,2.1c0.1,0.3,0.2,0.6,0.3,1
				c0.1,0.3,0.3,0.6,0.5,0.9c0.1,0.2,0.2,0.3,0.3,0.4s0.2,0.3,0.4,0.4c0.3,0.2,0.5,0.5,0.8,0.7c0.2,0.1,0.3,0.2,0.5,0.3
				c0.2,0.1,0.4,0.2,0.5,0.3c0.2,0.1,0.4,0.2,0.6,0.2c0.2,0.1,0.4,0.1,0.7,0.2s0.6,0.1,0.7,0.1c0.8,0,1.5-0.1,2.1-0.2
				c0.7-0.1,1.4-0.3,2.1-0.5c0.5-0.2,1.1-0.5,1.5-0.8c0.6-0.4,1.1-0.8,1.6-1.2c0.6-0.5,1.1-1,1.6-1.5c0.4-0.4,0.7-0.9,1-1.3
				c0.3-0.5,0.7-1,1-1.5c0.4-0.7,0.8-1.4,1.2-2.1c0.7-1.3,1.3-2.6,1.8-3.8c0.6-1.4,1.1-2.7,1.4-4c0.2-0.8,0.4-1.6,0.6-2.4
				c0.1-0.3,0.2-0.7,0.2-1c0.1-0.3,0.2-0.7,0.2-1c0.1-0.3,0.2-0.7,0.2-1c0.1-0.3,0.1-0.7,0.2-1s0.1-0.7,0.2-1s0.1-0.7,0.2-1
				c0-0.3,0.1-0.7,0.1-1s0.1-0.7,0.1-1s0-0.7,0.1-1c0-0.3,0.1-0.7,0.1-1c0-0.4,0.1-0.7,0.1-1.1c0-0.3,0-0.7,0-1c0-0.4,0-0.7,0.1-1.1
				c0-0.3,0-0.7,0-1c0-0.4,0.1-0.7,0.1-1.1c0.1-0.9,0-1.8-0.4-2.6C31.5,31.7,30.9,31.1,30.1,30.6 M27.3,36c0.2,0.4,0.2,0.8,0.2,1.3
				c0,0.3,0,0.5-0.1,0.8c-0.1,0.2-0.2,0.5-0.3,0.7c-0.1,0.2-0.2,0.4-0.4,0.6c-0.1,0.2-0.3,0.3-0.5,0.5l-2.8,2.4h4.1v1.8H21V42
				l3.6-3.3c0.2-0.2,0.4-0.4,0.6-0.6c0.2-0.2,0.3-0.4,0.3-0.7s-0.1-0.6-0.4-0.8c-0.2-0.2-0.5-0.3-0.8-0.3c-0.4,0-0.7,0.1-0.9,0.4
				c-0.2,0.2-0.3,0.5-0.4,0.8l-2-0.2c0-0.5,0.2-0.9,0.3-1.3c0.2-0.4,0.4-0.7,0.7-0.9c0.3-0.2,0.6-0.4,1-0.5s0.8-0.2,1.3-0.2
				s0.8,0.1,1.2,0.2c0.4,0.1,0.7,0.3,1,0.5C27,35.3,27.2,35.6,27.3,36 M19.9,42v1.9H14v-9.4h2.1V42H19.9z"/>
			<path style="fill:#8F8F8F;" d="M19.9,43.9V42h-3.8v-7.5H14v9.4H19.9 M27.6,37.2c0-0.5-0.1-0.9-0.2-1.3c-0.2-0.3-0.4-0.6-0.6-0.9
				c-0.3-0.2-0.6-0.4-1-0.5s-0.8-0.2-1.2-0.2s-0.9,0.1-1.3,0.2c-0.4,0.1-0.7,0.3-1,0.5s-0.5,0.5-0.7,0.9s-0.3,0.8-0.3,1.3l2,0.2
				c0-0.3,0.2-0.6,0.4-0.8c0.2-0.2,0.5-0.4,0.9-0.4c0.3,0,0.6,0.1,0.8,0.3c0.2,0.2,0.4,0.4,0.4,0.8c0,0.3-0.1,0.5-0.3,0.7
				c-0.2,0.2-0.4,0.4-0.6,0.6l-3.6,3.3V44h6.5v-1.8h-4.1l2.8-2.4c0.2-0.2,0.3-0.3,0.5-0.5s0.3-0.4,0.4-0.6c0.1-0.2,0.2-0.4,0.3-0.7
				C27.5,37.8,27.6,37.5,27.6,37.2z"/>
		</g>
	</g>
	<g>
		<path id="Layer1_0_1_STROKES" style="fill:none;stroke:#1B1B1B;stroke-width:5;stroke-linecap:round;stroke-linejoin:round;" d="
			M46,36.6c-0.1-1.8-0.2-3.6-0.3-5.5c-0.1-1.9-1-3.3-2.6-4.2c-1.7-1-3.4-1.3-5.3-1c-0.7,0-1.5,0.1-2.2,0.2c-0.1,0-0.2,0-0.3,0
			C25.1,26.9,16,26.9,8,26.3c-2.7,1.6-4,4.2-4,8C6,43.5,6.2,52.7,4.8,62c-0.5,2.8,0.3,5.5,2.4,8.4c2.1,1.9,4.7,3.1,7.9,3.6
			c6.4,1,11.8-0.3,16.1-4l4-8.2c1.3-4.6,3.4-7.9,6.2-10c2.5-1.4,4.1-3.5,4.6-6.3V36.6z"/>
	</g>
	<g>
		<path id="Layer1_0_2_STROKES" style="fill:none;stroke:#626262;stroke-width:3;stroke-linecap:round;stroke-linejoin:round;" d="
			M10.1,30.6c1.7,0.1,3.3,0.2,4.9,0.4c1.7,0.1,3.3,0.1,5,0.1c0.4,0,0.8,0,1.2,0c0.4,0,0.8,0,1.3,0c0.4,0,0.8,0,1.3,0
			c0.4,0,0.8,0,1.3-0.1c0.4,0,0.8,0,1.3-0.1c0.4,0,0.8-0.1,1.3-0.1c0.4,0,0.8-0.1,1.3-0.1c0.4,0,0.9-0.1,1.3-0.1
			c0.8,0.5,1.4,1.1,1.8,1.8c0.4,0.8,0.5,1.7,0.4,2.6c0,0.4-0.1,0.7-0.1,1.1c0,0.3,0,0.7,0,1s0,0.7-0.1,1.1c0,0.3,0,0.7,0,1
			s-0.1,0.7-0.1,1.1c0,0.3-0.1,0.7-0.1,1s0,0.7-0.1,1c0,0.3-0.1,0.7-0.1,1s-0.1,0.7-0.1,1c-0.1,0.3-0.1,0.7-0.2,1s-0.1,0.7-0.2,1
			c0,0.3-0.1,0.7-0.2,1S31,48,31,48.3c-0.1,0.3-0.1,0.7-0.2,1s-0.2,0.7-0.2,1c-0.2,0.8-0.4,1.6-0.6,2.4c-0.4,1.3-0.8,2.6-1.4,4
			c-0.5,1.3-1.2,2.5-1.8,3.8c-0.4,0.7-0.8,1.4-1.2,2.1c-0.3,0.5-0.6,1-1,1.5c-0.3,0.4-0.7,0.9-1,1.3c-0.5,0.5-1,1-1.6,1.5
			c-0.5,0.4-1,0.8-1.6,1.2c-0.5,0.3-1,0.5-1.5,0.8c-0.7,0.2-1.3,0.4-2.1,0.5c-0.6,0.1-1.3,0.2-2.1,0.2c-0.2,0-0.4-0.1-0.7-0.1
			c-0.2-0.1-0.4-0.2-0.7-0.2c-0.2-0.1-0.4-0.2-0.6-0.2c-0.2-0.1-0.4-0.2-0.5-0.3c-0.1-0.1-0.3-0.2-0.5-0.3c-0.3-0.2-0.6-0.5-0.8-0.7
			c-0.1-0.1-0.3-0.3-0.4-0.4c-0.1-0.1-0.2-0.3-0.3-0.4c-0.2-0.3-0.3-0.6-0.5-0.9c-0.1-0.3-0.3-0.6-0.3-1C9,64.5,9,63.7,9.1,62.9
			c0-0.3,0.1-0.6,0.1-0.9c0.1-0.6,0.1-1.2,0.2-1.9c0.1-0.6,0.1-1.3,0.2-1.9c0.1-0.7,0.1-1.4,0.2-2.1c0-0.7,0.1-1.4,0.1-2.1
			c0-1.1,0.1-2.3,0.1-3.4c0-1.2,0.1-2.4,0.1-3.6c0-1.2,0-2.3-0.1-3.5c-0.1-1.1-0.2-2.1-0.3-3c-0.1-1.2-0.3-2.5-0.5-3.7
			c-0.1-1-0.3-2-0.5-2.9c-0.1-0.7,0.1-1.3,0.3-2C9.2,31.5,9.6,31,10.1,30.6z"/>
	</g>
</g>
<g transform="matrix( 1, 0, 0, 1, 0,0) ">
	<g>
		<g id="Layer1_0_FILL_1_">
			<path style="fill:#313131;" d="M95.2,61.9C93.8,52.7,94,43.4,96,34.3c0-3.8-1.3-6.4-4-8c-8,0.7-17.2,0.6-27.4-0.2
				c-0.1,0-0.2,0-0.3,0c-0.7-0.1-1.5-0.1-2.2-0.2c-1.9-0.3-3.6,0-5.3,1c-1.6,0.9-2.4,2.4-2.6,4.2c-0.1,1.8-0.2,3.7-0.3,5.5v8.8
				c0.5,2.8,2.1,4.9,4.6,6.3c2.8,2.1,4.9,5.5,6.2,10l4,8.2c4.3,3.7,9.7,5,16.1,4c3.2-0.5,5.9-1.7,7.9-3.6
				C94.9,67.5,95.7,64.7,95.2,61.9 M91,32.1c0.3,0.6,0.4,1.3,0.3,2C91.2,35,91.1,36,90.9,37c-0.2,1.2-0.3,2.4-0.5,3.7
				c-0.1,0.9-0.2,1.9-0.3,3C90,44.8,90,46,90,47.2s0.1,2.4,0.1,3.6c0,1.1,0.1,2.2,0.1,3.4c0,0.7,0.1,1.4,0.1,2.1
				c0,0.7,0.1,1.4,0.2,2.1c0,0.6,0.1,1.3,0.2,1.9c0.1,0.6,0.1,1.2,0.2,1.9c0,0.3,0.1,0.6,0.1,0.9c0.1,0.8,0.1,1.6-0.1,2.3
				c-0.1,0.3-0.2,0.6-0.3,1c-0.1,0.3-0.3,0.6-0.5,0.9c-0.1,0.2-0.2,0.3-0.3,0.4c-0.1,0.1-0.2,0.3-0.4,0.4c-0.3,0.2-0.5,0.5-0.8,0.7
				c-0.2,0.1-0.3,0.2-0.5,0.3c-0.2,0.1-0.4,0.2-0.5,0.3c-0.2,0.1-0.4,0.2-0.6,0.2c-0.2,0.1-0.4,0.1-0.7,0.2
				c-0.3,0.1-0.6,0.1-0.7,0.1c-0.8,0-1.5-0.1-2.1-0.2c-0.7-0.1-1.4-0.3-2.1-0.5c-0.5-0.2-1.1-0.5-1.5-0.8c-0.6-0.4-1.1-0.8-1.6-1.2
				c-0.6-0.5-1.1-1-1.6-1.5c-0.4-0.4-0.7-0.9-1-1.3c-0.3-0.5-0.7-1-1-1.5c-0.4-0.7-0.8-1.4-1.2-2.1c-0.7-1.3-1.3-2.6-1.8-3.8
				c-0.6-1.4-1.1-2.7-1.4-4c-0.2-0.8-0.4-1.6-0.6-2.4c-0.1-0.3-0.2-0.7-0.2-1c-0.1-0.3-0.2-0.7-0.2-1c-0.1-0.3-0.2-0.7-0.2-1
				c-0.1-0.3-0.1-0.7-0.2-1s-0.1-0.7-0.2-1s-0.1-0.7-0.2-1c0-0.3-0.1-0.7-0.1-1s-0.1-0.7-0.1-1s0-0.7-0.1-1c0-0.3-0.1-0.7-0.1-1
				c0-0.4-0.1-0.7-0.1-1.1c0-0.3,0-0.7,0-1c0-0.4,0-0.7-0.1-1.1c0-0.3,0-0.7,0-1c0-0.4-0.1-0.7-0.1-1.1c-0.1-0.9,0-1.8,0.4-2.6
				c0.4-0.7,0.9-1.4,1.8-1.8c0.4,0,0.9,0.1,1.3,0.1s0.8,0.1,1.3,0.1c0.4,0,0.8,0.1,1.3,0.1c0.4,0,0.8,0,1.3,0.1s0.8,0,1.3,0.1
				c0.4,0,0.8,0,1.3,0c0.4,0,0.8,0,1.3,0c0.4,0,0.8,0,1.2,0c1.7,0,3.3,0,5-0.1c1.6-0.1,3.2-0.2,4.9-0.4C90.4,31,90.8,31.5,91,32.1z"
				/>
			<path style="fill:#4F4F4F;" d="M91.4,34.1c0.1-0.7-0.1-1.3-0.3-2c-0.3-0.6-0.6-1.1-1.1-1.5c-1.7,0.1-3.3,0.2-4.9,0.4
				c-1.7,0-3.4,0-5.1,0c-0.4,0-0.8,0-1.2,0c-0.4,0-0.8,0-1.3,0c-0.4,0-0.8,0-1.3,0c-0.4,0-0.8,0-1.3-0.1s-0.8,0-1.3-0.1
				c-0.4,0-0.8-0.1-1.3-0.1c-0.4,0-0.8-0.1-1.3-0.1c-0.4,0-0.9-0.1-1.3-0.1c-0.8,0.5-1.4,1.1-1.8,1.8c-0.4,0.8-0.5,1.7-0.4,2.6
				c0,0.4,0.1,0.7,0.1,1.1c0,0.3,0,0.7,0,1s0,0.7,0.1,1.1c0,0.3,0,0.7,0,1s0.1,0.7,0.1,1.1c0,0.3,0.1,0.7,0.1,1s0,0.7,0.1,1
				c0,0.3,0.1,0.7,0.1,1s0.1,0.7,0.1,1c0.1,0.3,0.1,0.7,0.2,1s0.1,0.7,0.2,1c0,0.3,0.1,0.7,0.2,1s0.2,0.7,0.2,1
				c0.1,0.3,0.1,0.7,0.2,1s0.2,0.7,0.2,1c0.2,0.8,0.4,1.6,0.6,2.4c0.4,1.3,0.8,2.6,1.4,4c0.5,1.3,1.2,2.5,1.8,3.8
				c0.4,0.7,0.8,1.4,1.2,2.1c0.3,0.5,0.6,1,1,1.5c0.3,0.4,0.7,0.9,1,1.3c0.5,0.5,1,1,1.6,1.5c0.5,0.4,1,0.8,1.6,1.2
				c0.5,0.3,1,0.5,1.5,0.8c0.7,0.2,1.3,0.4,2.1,0.5c0.6,0.1,1.3,0.2,2.1,0.2c0.2,0,0.4-0.1,0.7-0.1c0.2-0.1,0.4-0.2,0.7-0.2
				c0.2-0.1,0.4-0.2,0.6-0.2c0.2-0.1,0.4-0.2,0.5-0.3c0.1-0.1,0.3-0.2,0.5-0.3c0.3-0.2,0.6-0.5,0.8-0.7c0.1-0.1,0.3-0.3,0.4-0.4
				s0.2-0.3,0.3-0.4c0.2-0.3,0.3-0.6,0.5-0.9c0.1-0.3,0.3-0.6,0.3-1c0.2-0.7,0.2-1.5,0.1-2.3c0-0.3-0.1-0.6-0.1-0.9
				c-0.1-0.6-0.1-1.2-0.2-1.9c-0.1-0.6-0.1-1.3-0.2-1.9c-0.1-0.7-0.1-1.4-0.2-2.1c0-0.7-0.1-1.4-0.1-2.1c0-1.1-0.1-2.3-0.1-3.4
				c0-1.2-0.1-2.4-0.1-3.6c0-1.2,0-2.3,0.1-3.5c0.1-1.1,0.2-2.1,0.3-3c0.1-1.2,0.3-2.5,0.5-3.7C91.1,36,91.2,35,91.4,34.1
				 M80.2,37.3c0-0.5,0.1-0.9,0.3-1.3c0.2-0.4,0.4-0.7,0.7-0.9c0.3-0.2,0.6-0.4,1-0.5s0.8-0.2,1.3-0.2c0.4,0,0.8,0.1,1.2,0.2
				c0.4,0.1,0.7,0.3,1,0.5s0.5,0.5,0.7,0.9c0.1,0.4,0.2,0.8,0.2,1.2c0,0.3,0,0.6-0.1,0.8s-0.1,0.5-0.2,0.7s-0.3,0.4-0.4,0.5
				c-0.2,0.2-0.3,0.4-0.5,0.5l-2.9,2.4h4.2v1.8h-6.6v-2.1l3.7-3.3c0.2-0.2,0.4-0.4,0.5-0.6c0.2-0.2,0.3-0.4,0.3-0.7
				s-0.1-0.6-0.3-0.8c-0.2-0.2-0.5-0.3-0.8-0.3c-0.4,0-0.7,0.1-0.9,0.3c-0.2,0.2-0.3,0.5-0.3,0.8L80.2,37.3 M78.7,36
				c0.2,0.4,0.3,0.8,0.3,1.4c0,0.7-0.2,1.2-0.5,1.7S77.7,39.9,77,40l2.4,4h-2.5l-2-3.8h-1V44h-2.1v-9.4h3.6c0.5,0,0.9,0.1,1.4,0.2
				c0.4,0.1,0.8,0.3,1.1,0.5C78.3,35.3,78.5,35.6,78.7,36 M75.8,36.3c-0.2,0-0.4-0.1-0.6-0.1h-1.4v2.1H75c0.2,0,0.4,0,0.6,0
				s0.4-0.1,0.6-0.1c0.2-0.1,0.3-0.2,0.4-0.3s0.2-0.3,0.2-0.6c0-0.2,0-0.4-0.1-0.6c-0.1-0.1-0.2-0.3-0.4-0.3
				C76.2,36.4,76,36.3,75.8,36.3z"/>
			<path style="fill:#8C8C8C;" d="M79,37.4c0-0.5-0.1-1-0.3-1.4c-0.2-0.4-0.4-0.7-0.8-0.9c-0.3-0.2-0.7-0.4-1.1-0.5
				s-0.9-0.2-1.4-0.2h-3.6v9.4h2.1V40h1l2,3.8h2.5l-2.4-4c0.7-0.1,1.2-0.4,1.5-0.9C78.8,38.6,79,38,79,37.4 M75.2,36.3
				c0.2,0,0.4,0,0.6,0.1c0.2,0,0.4,0.1,0.5,0.2c0.2,0.1,0.3,0.2,0.4,0.3s0.1,0.3,0.1,0.6c0,0.2-0.1,0.4-0.2,0.6
				c-0.1,0.1-0.3,0.3-0.4,0.3c-0.2,0.1-0.4,0.1-0.6,0.1s-0.4,0-0.6,0h-1.2v-2.1L75.2,36.3 M80.5,36c-0.2,0.3-0.3,0.8-0.3,1.3l2,0.1
				c0-0.3,0.1-0.6,0.3-0.8c0.2-0.2,0.5-0.3,0.9-0.3c0.3,0,0.6,0.1,0.8,0.3c0.2,0.2,0.3,0.4,0.3,0.8c0,0.3-0.1,0.5-0.3,0.7
				c-0.2,0.2-0.4,0.4-0.5,0.6L80,42v2.1h6.6v-1.8h-4.2l2.9-2.4c0.2-0.2,0.3-0.3,0.5-0.5c0.1-0.2,0.3-0.3,0.4-0.5s0.2-0.4,0.2-0.7
				c0.1-0.2,0.1-0.5,0.1-0.8c0-0.5-0.1-0.9-0.2-1.2c-0.2-0.4-0.4-0.7-0.7-0.9c-0.3-0.2-0.6-0.4-1-0.5s-0.8-0.2-1.2-0.2
				c-0.5,0-0.9,0.1-1.3,0.2s-0.7,0.3-1,0.5C80.9,35.3,80.7,35.6,80.5,36z"/>
		</g>
	</g>
	<g>
		
			<path id="Layer1_0_1_STROKES_1_" style="fill:none;stroke:#1B1B1B;stroke-width:5;stroke-linecap:round;stroke-linejoin:round;" d="
			M96,34.3c-2,9.2-2.2,18.4-0.8,27.7c0.5,2.8-0.3,5.5-2.4,8.4c-2.1,1.9-4.7,3.1-7.9,3.6c-6.4,1-11.8-0.3-16.1-4l-4-8.2
			c-1.3-4.6-3.4-7.9-6.2-10c-2.5-1.4-4.1-3.5-4.6-6.3v-8.8c0.1-1.8,0.2-3.6,0.3-5.5c0.1-1.9,1-3.3,2.6-4.2c1.7-1,3.4-1.3,5.3-1
			c0.7,0,1.5,0.1,2.2,0.2c0.1,0,0.2,0,0.3,0C74.9,26.9,84,26.9,92,26.3C94.7,27.8,96,30.5,96,34.3z"/>
	</g>
	<g>
		
			<path id="Layer1_0_2_STROKES_1_" style="fill:none;stroke:#626262;stroke-width:3;stroke-linecap:round;stroke-linejoin:round;" d="
			M69.9,30.6c-0.8,0.5-1.4,1.1-1.8,1.8c-0.4,0.8-0.5,1.7-0.4,2.6c0,0.4,0.1,0.7,0.1,1.1c0,0.3,0,0.7,0,1s0,0.7,0.1,1.1
			c0,0.3,0,0.7,0,1s0.1,0.7,0.1,1.1c0,0.3,0.1,0.7,0.1,1s0,0.7,0.1,1c0,0.3,0.1,0.7,0.1,1s0.1,0.7,0.1,1c0.1,0.3,0.1,0.7,0.2,1
			s0.1,0.7,0.2,1c0,0.3,0.1,0.7,0.2,1s0.2,0.7,0.2,1c0.1,0.3,0.1,0.7,0.2,1s0.2,0.7,0.2,1c0.2,0.8,0.4,1.6,0.6,2.4
			c0.4,1.3,0.8,2.6,1.4,4c0.5,1.3,1.2,2.5,1.8,3.8c0.4,0.7,0.8,1.4,1.2,2.1c0.3,0.5,0.6,1,1,1.5c0.3,0.4,0.7,0.9,1,1.3
			c0.5,0.5,1,1,1.6,1.5c0.5,0.4,1,0.8,1.6,1.2c0.5,0.3,1,0.5,1.5,0.8c0.7,0.2,1.3,0.4,2.1,0.5c0.6,0.1,1.3,0.2,2.1,0.2
			c0.2,0,0.4-0.1,0.7-0.1c0.2-0.1,0.4-0.2,0.7-0.2c0.2-0.1,0.4-0.2,0.6-0.2c0.2-0.1,0.4-0.2,0.5-0.3c0.1-0.1,0.3-0.2,0.5-0.3
			c0.3-0.2,0.6-0.5,0.8-0.7c0.1-0.1,0.3-0.3,0.4-0.4s0.2-0.3,0.3-0.4c0.2-0.3,0.3-0.6,0.5-0.9c0.1-0.3,0.3-0.6,0.3-1
			c0.2-0.7,0.2-1.5,0.1-2.3c0-0.3-0.1-0.6-0.1-0.9c-0.1-0.6-0.1-1.2-0.2-1.9c-0.1-0.6-0.1-1.3-0.2-1.9c-0.1-0.7-0.1-1.4-0.2-2.1
			c0-0.7-0.1-1.4-0.1-2.1c0-1.1-0.1-2.3-0.1-3.4c0-1.2-0.1-2.4-0.1-3.6c0-1.2,0-2.3,0.1-3.5c0.1-1.1,0.2-2.1,0.3-3
			c0.1-1.2,0.3-2.5,0.5-3.7c0.1-1,0.3-2,0.5-2.9c0.1-0.7-0.1-1.3-0.3-2c-0.3-0.6-0.6-1.1-1.1-1.5c-1.7,0.1-3.3,0.2-4.9,0.4
			C83.4,31,81.7,31,80,31c-0.4,0-0.8,0-1.2,0c-0.4,0-0.8,0-1.3,0c-0.4,0-0.8,0-1.3,0c-0.4,0-0.8,0-1.3-0.1s-0.8,0-1.3-0.1
			c-0.4,0-0.8-0.1-1.3-0.1c-0.4,0-0.8-0.1-1.3-0.1C70.7,30.7,70.3,30.6,69.9,30.6z"/>
	</g>
</g>
</svg>
