
<svg xmlns="http://www.w3.org/2000/svg" version="1.1" xmlns:xlink="http://www.w3.org/1999/xlink" x="0px" y="0px" viewBox="0 0 100 100">
<defs>
<g id="Layer1_0_FILL">
<path fill="#353535" stroke="none" d="
M 84.95 77.8
Q 83.7 50.5 84.95 23.15 84.95 17.3 79.1 17.3
L 21.9 17.3
Q 16.05 17.3 16.05 23.15 17.3 50.5 16.05 77.8 16.05 83.65 21.9 83.65
L 79.1 83.65
Q 84.95 83.65 84.95 77.8
M 54.15 26.45
L 55.4 26.45 71.55 26.45
Q 75.8 26.45 75.8 30.7 74.65 50.5 75.8 70.25 75.8 74.45 71.55 74.45
L 55.4 74.45 54.15 74.45 29.45 74.45
Q 25.2 74.45 25.2 70.25 26.35 50.5 25.2 30.7 25.2 26.45 29.45 26.45
L 54.15 26.45 Z"/>

<path fill="#595959" stroke="none" d="
M 55.4 26.45
L 54.15 26.45 29.45 26.45
Q 25.2 26.45 25.2 30.7 26.35 50.5 25.2 70.25 25.2 74.45 29.45 74.45
L 54.15 74.45 55.4 74.45 71.55 74.45
Q 75.8 74.45 75.8 70.25 74.65 50.5 75.8 30.7 75.8 26.45 71.55 26.45
L 55.4 26.45
M 47.25 45.55
L 41.5 44.35
Q 41.9 42.75 42.75 41.6 43.6 40.45 44.75 39.75 45.9 39.05 47.3 38.7 48.75 38.4 50.3 38.4 51.95 38.4 53.45 38.8 55 39.2 56.15 40.05 57.3 40.9 57.95 42.2 58.65 43.5 58.65 45.3 58.65 47.35 57.6 48.85 56.5 50.3 54.4 50.75
L 54.4 50.85
Q 55.55 50.95 56.4 51.5 57.25 52.05 57.85 52.8 58.45 53.55 58.8 54.55 59.1 55.5 59.1 56.6 59.1 58.45 58.35 59.85 57.65 61.25 56.45 62.2 55.25 63.1 53.6 63.55 52 64.05 50.15 64.05 46.85 64.05 44.45 62.5 42.05 60.95 41.3 57.6
L 46.8 56.3
Q 47.1 57.65 47.95 58.4 48.8 59.2 50.45 59.2 52.2 59.2 53 58.3 53.85 57.4 53.85 56 53.85 54.95 53.4 54.4 52.95 53.8 52.25 53.55 51.55 53.25 50.7 53.2 49.8 53.15 48.95 53.15
L 47.7 53.15 47.7 48.6 49.45 48.6
Q 50.15 48.6 50.85 48.5 51.55 48.4 52.15 48.1 52.7 47.8 53.05 47.25 53.4 46.7 53.4 45.85 53.4 44.7 52.5 43.95 51.65 43.25 50.35 43.25 49.1 43.25 48.3 43.9 47.5 44.55 47.25 45.55 Z"/>

<path fill="#CDCDCD" stroke="none" d="
M 41.5 44.35
L 47.25 45.55
Q 47.5 44.55 48.3 43.9 49.1 43.25 50.35 43.25 51.65 43.25 52.5 43.95 53.4 44.7 53.4 45.85 53.4 46.7 53.05 47.25 52.7 47.8 52.15 48.1 51.55 48.4 50.85 48.5 50.15 48.6 49.45 48.6
L 47.7 48.6 47.7 53.15 48.95 53.15
Q 49.8 53.15 50.7 53.2 51.55 53.25 52.25 53.55 52.95 53.8 53.4 54.4 53.85 54.95 53.85 56 53.85 57.4 53 58.3 52.2 59.2 50.45 59.2 48.8 59.2 47.95 58.4 47.1 57.65 46.8 56.3
L 41.3 57.6
Q 42.05 60.95 44.45 62.5 46.85 64.05 50.15 64.05 52 64.05 53.6 63.55 55.25 63.1 56.45 62.2 57.65 61.25 58.35 59.85 59.1 58.45 59.1 56.6 59.1 55.5 58.8 54.55 58.45 53.55 57.85 52.8 57.25 52.05 56.4 51.5 55.55 50.95 54.4 50.85
L 54.4 50.75
Q 56.5 50.3 57.6 48.85 58.65 47.35 58.65 45.3 58.65 43.5 57.95 42.2 57.3 40.9 56.15 40.05 55 39.2 53.45 38.8 51.95 38.4 50.3 38.4 48.75 38.4 47.3 38.7 45.9 39.05 44.75 39.75 43.6 40.45 42.75 41.6 41.9 42.75 41.5 44.35 Z"/>
</g>

<path id="Layer1_0_1_STROKES" stroke="#1D1D1D" stroke-width="5" stroke-linejoin="round" stroke-linecap="round" fill="none" d="
M 84.95 23.15
Q 83.7 50.5 84.95 77.8 84.95 83.65 79.1 83.65
L 21.9 83.65
Q 16.05 83.65 16.05 77.8 17.3 50.5 16.05 23.15 16.05 17.3 21.9 17.3
L 79.1 17.3
Q 84.95 17.3 84.95 23.15 Z"/>

<path id="Layer1_0_2_STROKES" stroke="#696969" stroke-width="4" stroke-linejoin="round" stroke-linecap="round" fill="none" d="
M 54.15 26.45
L 29.45 26.45
Q 25.2 26.45 25.2 30.7 26.35 50.5 25.2 70.25 25.2 74.45 29.45 74.45
L 54.15 74.45
M 55.4 74.45
L 71.55 74.45
Q 75.8 74.45 75.8 70.25 74.65 50.5 75.8 30.7 75.8 26.45 71.55 26.45
L 55.4 26.45"/>

</defs>

<g transform="matrix( 1, 0, 0, 1, 0,0) ">
<use xlink:href="#Layer1_0_FILL"/>

<use xlink:href="#Layer1_0_1_STROKES"/>

<use xlink:href="#Layer1_0_2_STROKES"/>
</g>

<g transform="matrix( 1, 0, 0, 1, -3.4,-28) ">
<clipPath id="Mask_Mask_1">
<rect x="1.25" y="-2" width="104.3" height="20.8" fill="#FFFFFF" stroke="none"/>
</clipPath>

<text clip-path="url(#Mask_Mask_1)" writing-mode="lr"><tspan x="3.35" y="13.6" baseline-shift="0%" kerning="auto" font-family="Arial_Regular" font-size="15" fill="#999999" xml:space="preserve">Dark Keyboard</tspan></text>
</g>
</svg>
