<?xml version="1.0" encoding="utf-8"?>
<!-- Generator: Adobe Illustrator 24.1.2, SVG Export Plug-In . SVG Version: 6.00 Build 0)  -->
<svg version="1.1" id="Layer_1" xmlns="http://www.w3.org/2000/svg" xmlns:xlink="http://www.w3.org/1999/xlink" x="0px" y="0px"
	 viewBox="0 0 100 100" style="enable-background:new 0 0 100 100;" xml:space="preserve">
<g transform="matrix( 1, 0, 0, 1, 0,0) ">
	<g>
		<g id="Layer1_0_FILL_2_">
			<path style="fill:#353535;" d="M71.8,42.3c-0.5-11.5-0.5-23.1,0-34.6c0-2.5-1.2-3.7-3.7-3.7H31.9c-2.5,0-3.7,1.2-3.7,3.7
				c0.5,11.5,0.5,23.1,0,34.6c0,2.5,1.2,3.7,3.7,3.7h36.2C70.6,46,71.8,44.8,71.8,42.3 M52.3,9.8h0.8h10.2c1.8,0,2.7,0.9,2.7,2.7
				c-0.5,8.4-0.5,16.7,0,25c0,1.8-0.9,2.7-2.7,2.7H53.1h-0.8H36.7c-1.8,0-2.7-0.9-2.7-2.7c0.5-8.3,0.5-16.7,0-25
				c0-1.8,0.9-2.7,2.7-2.7H52.3z"/>
			<path style="fill:#595959;" d="M53.1,9.8h-0.8H36.7c-1.8,0-2.7,0.9-2.7,2.7c0.5,8.4,0.5,16.7,0,25c0,1.8,0.9,2.7,2.7,2.7h15.6
				h0.8h10.2c1.8,0,2.7-0.9,2.7-2.7c-0.5-8.3-0.5-16.7,0-25c0-1.8-0.9-2.7-2.7-2.7H53.1 M48,17.6c0.6-0.2,1.3-0.3,2-0.3
				s1.4,0.1,2,0.3c0.6,0.2,1.2,0.5,1.7,0.8c0.5,0.4,0.8,0.8,1.1,1.3s0.4,1.2,0.4,1.9c0,0.9-0.2,1.6-0.7,2.2s-1.1,1-2,1.3v0.1
				c0.9,0.3,1.7,0.7,2.2,1.4c0.5,0.7,0.7,1.5,0.7,2.4c0,0.8-0.1,1.4-0.4,2c-0.3,0.6-0.7,1.1-1.2,1.4c-0.5,0.4-1.1,0.7-1.7,0.9
				c-0.7,0.2-1.4,0.3-2.1,0.3c-0.7,0-1.4-0.1-2.1-0.3c-0.7-0.2-1.2-0.5-1.7-0.9C45.7,32,45.3,31.6,45,31s-0.4-1.2-0.4-2
				c0-1,0.3-1.8,0.8-2.4c0.5-0.7,1.2-1.1,2.2-1.4v-0.1c-0.8-0.3-1.5-0.7-2-1.3c-0.5-0.6-0.7-1.4-0.7-2.2c0-0.7,0.1-1.4,0.4-1.9
				c0.3-0.5,0.7-1,1.1-1.3C46.8,18.1,47.3,17.8,48,17.6 M51.6,30c0.4-0.4,0.6-0.9,0.6-1.4c0-0.6-0.2-1.1-0.6-1.5
				c-0.4-0.4-0.9-0.6-1.6-0.6c-0.7,0-1.2,0.2-1.6,0.6c-0.4,0.4-0.6,0.9-0.6,1.5c0,0.5,0.2,1,0.6,1.4c0.4,0.4,0.9,0.6,1.6,0.6
				C50.7,30.5,51.2,30.3,51.6,30 M48.6,23.4c0.4,0.3,0.8,0.5,1.4,0.5c0.6,0,1-0.2,1.4-0.5s0.5-0.7,0.5-1.2s-0.2-0.9-0.5-1.2
				c-0.4-0.3-0.8-0.5-1.4-0.5c-0.6,0-1,0.2-1.4,0.5s-0.5,0.7-0.5,1.2C48.1,22.6,48.2,23,48.6,23.4z"/>
			<path style="fill:#CDCDCD;" d="M50,17.4c-0.7,0-1.4,0.1-2,0.3c-0.6,0.2-1.2,0.5-1.7,0.8c-0.5,0.4-0.9,0.8-1.1,1.3
				c-0.3,0.5-0.4,1.2-0.4,1.9c0,0.9,0.2,1.6,0.7,2.2s1.1,1,2,1.3v0.1c-0.9,0.3-1.7,0.7-2.2,1.4c-0.5,0.7-0.8,1.5-0.8,2.4
				c0,0.8,0.1,1.4,0.4,2c0.3,0.6,0.7,1.1,1.2,1.4c0.5,0.4,1.1,0.7,1.7,0.9c0.7,0.2,1.4,0.3,2.1,0.3c0.7,0,1.4-0.1,2.1-0.3
				c0.7-0.2,1.3-0.5,1.7-0.9c0.5-0.4,0.9-0.8,1.2-1.4s0.4-1.2,0.4-2c0-1-0.2-1.8-0.7-2.4c-0.5-0.7-1.2-1.1-2.2-1.4v-0.1
				c0.8-0.3,1.5-0.7,2-1.3c0.5-0.6,0.7-1.4,0.7-2.2c0-0.7-0.1-1.4-0.4-1.9c-0.3-0.5-0.7-1-1.1-1.3c-0.5-0.4-1-0.6-1.7-0.8
				C51.4,17.4,50.7,17.4,50,17.4 M50,23.9c-0.6,0-1-0.2-1.4-0.5s-0.5-0.7-0.5-1.2s0.2-0.9,0.5-1.2c0.4-0.3,0.8-0.5,1.4-0.5
				c0.6,0,1,0.2,1.4,0.5s0.5,0.7,0.5,1.2s-0.2,0.9-0.5,1.2S50.6,23.9,50,23.9 M52.2,28.6c0,0.5-0.2,1-0.6,1.4
				c-0.4,0.4-0.9,0.6-1.6,0.6c-0.7,0-1.2-0.2-1.6-0.6c-0.4-0.4-0.6-0.9-0.6-1.4c0-0.6,0.2-1.1,0.6-1.5c0.4-0.4,0.9-0.6,1.6-0.6
				c0.7,0,1.2,0.2,1.6,0.6S52.2,28,52.2,28.6z"/>
		</g>
	</g>
	<g>
		
			<path id="Layer1_0_1_STROKES_2_" style="fill:none;stroke:#1D1D1D;stroke-width:5;stroke-linecap:round;stroke-linejoin:round;" d="
			M71.8,7.7c-0.5,11.5-0.5,23.1,0,34.6c0,2.5-1.2,3.7-3.7,3.7H31.9c-2.5,0-3.7-1.2-3.7-3.7c0.5-11.5,0.5-23.1,0-34.6
			c0-2.5,1.2-3.7,3.7-3.7h36.2C70.6,4,71.8,5.2,71.8,7.7z"/>
	</g>
	<g>
		
			<path id="Layer1_0_2_STROKES_2_" style="fill:none;stroke:#696969;stroke-width:4;stroke-linecap:round;stroke-linejoin:round;" d="
			M52.3,9.8H36.7c-1.8,0-2.7,0.9-2.7,2.7c0.5,8.4,0.5,16.7,0,25c0,1.8,0.9,2.7,2.7,2.7h15.6 M53.1,40.2h10.2c1.8,0,2.7-0.9,2.7-2.7
			c-0.5-8.3-0.5-16.7,0-25c0-1.8-0.9-2.7-2.7-2.7H53.1"/>
	</g>
</g>
<g transform="matrix( 1, 0, 0, 1, 0,0) ">
	<g>
		<g id="Layer1_0_FILL_3_">
			<path style="fill:#353535;" d="M71,91.7c-0.5-11.1-0.5-22.2,0-33.3c0-2.4-1.2-3.6-3.6-3.6H32.6c-2.4,0-3.6,1.2-3.6,3.6
				c0.5,11.1,0.5,22.2,0,33.3c0,2.4,1.2,3.6,3.6,3.6h34.9C69.8,95.2,71,94,71,91.7 M52.2,60.4H53h9.8c1.7,0,2.6,0.9,2.6,2.6
				c-0.4,8-0.4,16,0,24.1c0,1.7-0.9,2.6-2.6,2.6H53h-0.8h-15c-1.7,0-2.6-0.9-2.6-2.6c0.5-8,0.5-16.1,0-24.1c0-1.7,0.9-2.6,2.6-2.6
				H52.2z"/>
			<path style="fill:#595959;" d="M53,60.4h-0.8h-15c-1.7,0-2.6,0.9-2.6,2.6c0.5,8,0.5,16.1,0,24.1c0,1.7,0.9,2.6,2.6,2.6h15.1H53
				h9.8c1.7,0,2.6-0.9,2.6-2.6C65,79,65,71,65.4,62.9c0-1.7-0.9-2.6-2.6-2.6L53,60.4 M48.7,71.1c-0.3,0.4-0.5,0.8-0.5,1.3L45,72.2
				c0-0.8,0.2-1.5,0.5-2s0.7-1,1.1-1.4c0.5-0.4,1-0.7,1.6-0.9c0.6-0.2,1.3-0.3,2.1-0.3c0.7,0,1.3,0.1,1.9,0.3
				c0.6,0.2,1.1,0.5,1.6,0.9c0.4,0.4,0.8,0.9,1,1.4c0.2,0.6,0.4,1.2,0.4,2c0,0.5-0.1,0.9-0.2,1.3c-0.1,0.4-0.2,0.7-0.4,1.1
				c-0.2,0.3-0.4,0.6-0.6,0.9c-0.2,0.3-0.5,0.5-0.8,0.8l-4.6,4h6.7V83H44.8v-3.4l5.9-5.3c0.3-0.3,0.6-0.6,0.9-0.9
				c0.3-0.3,0.5-0.7,0.5-1.2s-0.2-0.9-0.5-1.2c-0.4-0.3-0.8-0.4-1.3-0.4C49.5,70.6,49,70.8,48.7,71.1z"/>
			<path style="fill:#CDCDCD;" d="M48.1,72.5c0-0.5,0.2-1,0.5-1.3c0.3-0.4,0.8-0.5,1.4-0.5c0.5,0,0.9,0.1,1.3,0.4
				c0.4,0.3,0.5,0.7,0.5,1.2c0,0.4-0.2,0.8-0.5,1.2c-0.3,0.3-0.6,0.7-0.9,0.9l-5.9,5.3V83H55v-2.8h-6.7l4.6-4
				c0.3-0.2,0.5-0.5,0.8-0.8c0.2-0.3,0.5-0.6,0.6-0.9c0.2-0.3,0.3-0.7,0.4-1.1c0.1-0.4,0.2-0.8,0.2-1.3c0-0.8-0.1-1.4-0.4-2
				c-0.3-0.6-0.6-1-1-1.4s-1-0.7-1.6-0.9c-0.6-0.2-1.2-0.3-1.9-0.3c-0.8,0-1.4,0.1-2.1,0.3c-0.6,0.2-1.2,0.5-1.6,0.9
				c-0.5,0.4-0.8,0.9-1.1,1.4s-0.4,1.2-0.5,2L48.1,72.5z"/>
		</g>
	</g>
	<g>
		
			<path id="Layer1_0_1_STROKES_3_" style="fill:none;stroke:#1D1D1D;stroke-width:5;stroke-linecap:round;stroke-linejoin:round;" d="
			M71,58.3c-0.5,11.1-0.5,22.2,0,33.3c0,2.4-1.2,3.6-3.6,3.6H32.6c-2.4,0-3.6-1.2-3.6-3.6c0.5-11.1,0.5-22.2,0-33.3
			c0-2.4,1.2-3.6,3.6-3.6h34.9C69.8,54.8,71,56,71,58.3z"/>
	</g>
	<g>
		
			<path id="Layer1_0_2_STROKES_3_" style="fill:none;stroke:#696969;stroke-width:4;stroke-linecap:round;stroke-linejoin:round;" d="
			M52.2,60.4h-15c-1.7,0-2.6,0.9-2.6,2.6c0.5,8,0.5,16.1,0,24.1c0,1.7,0.9,2.6,2.6,2.6h15.1 M53,89.6h9.8c1.7,0,2.6-0.9,2.6-2.6
			c-0.4-8-0.4-16,0-24.1c0-1.7-0.9-2.6-2.6-2.6H53"/>
	</g>
</g>
</svg>
