<?xml version="1.0" encoding="utf-8"?>
<!-- Generator: Adobe Illustrator 24.1.2, SVG Export Plug-In . SVG Version: 6.00 Build 0)  -->
<svg version="1.1" id="Layer_1" xmlns="http://www.w3.org/2000/svg" xmlns:xlink="http://www.w3.org/1999/xlink" x="0px" y="0px"
	 viewBox="0 0 100 100" style="enable-background:new 0 0 100 100;" xml:space="preserve">
<g transform="matrix( 1, 0, 0, 1, 0,0) ">
	<g>
		<g id="Layer1_0_FILL">
			<path style="fill:#D7D7D7;" d="M64,29.5c-0.3-7.4-0.3-14.8,0-22.2c0-1.6-0.8-2.4-2.4-2.4H38.4c-1.6,0-2.4,0.8-2.4,2.4
				c0.3,7.4,0.3,14.8,0,22.2c0,1.6,0.8,2.4,2.4,2.4h23.2C63.2,31.8,64,31,64,29.5 M51.5,8.6H52h6.6c1.2,0,1.7,0.6,1.7,1.7
				C60,15.7,60,21,60.3,26.4c0,1.1-0.6,1.7-1.7,1.7H52h-0.5h-10c-1.2,0-1.7-0.6-1.7-1.7c0.3-5.4,0.3-10.7,0-16.1
				c0-1.2,0.6-1.7,1.7-1.7C41.5,8.6,51.5,8.6,51.5,8.6z"/>
			<path style="fill:#F5F5F5;" d="M52,8.6h-0.5h-10c-1.2,0-1.7,0.6-1.7,1.7c0.3,5.4,0.3,10.7,0,16.1c0,1.1,0.6,1.7,1.7,1.7h10H52
				h6.6c1.2,0,1.7-0.6,1.7-1.7C60,21,60,15.7,60.3,10.3c0-1.2-0.6-1.7-1.7-1.7H52 M48.7,13.6c0.4-0.1,0.8-0.2,1.3-0.2
				s0.9,0.1,1.3,0.2c0.4,0.1,0.8,0.3,1.1,0.5s0.5,0.5,0.7,0.9s0.3,0.8,0.3,1.2c0,0.6-0.1,1-0.4,1.4c-0.3,0.4-0.7,0.7-1.3,0.8l0,0
				c0.6,0.2,1.1,0.5,1.4,0.9c0.3,0.4,0.5,0.9,0.5,1.6c0,0.5-0.1,0.9-0.3,1.3s-0.5,0.7-0.8,0.9c-0.3,0.2-0.7,0.4-1.1,0.5
				c-0.4,0.1-0.9,0.2-1.3,0.2c-0.5,0-0.9-0.1-1.3-0.2c-0.4-0.1-0.8-0.3-1.1-0.5s-0.6-0.5-0.8-0.9s-0.3-0.8-0.3-1.3
				c0-0.6,0.2-1.1,0.5-1.6c0.3-0.4,0.8-0.7,1.4-0.9l0,0c-0.5-0.2-1-0.4-1.3-0.8s-0.4-0.9-0.4-1.4s0.1-0.9,0.3-1.2s0.4-0.6,0.7-0.9
				C47.9,13.9,48.3,13.7,48.7,13.6 M51,21.5c0.3-0.3,0.4-0.6,0.4-0.9c0-0.4-0.1-0.7-0.4-0.9c-0.3-0.2-0.6-0.4-1-0.4s-0.8,0.1-1,0.4
				c-0.3,0.3-0.4,0.6-0.4,0.9s0.1,0.6,0.4,0.9c0.3,0.2,0.6,0.4,1,0.4S50.8,21.8,51,21.5 M49.1,17.3c0.2,0.2,0.5,0.3,0.9,0.3
				s0.7-0.1,0.9-0.3s0.3-0.5,0.3-0.8s-0.1-0.6-0.3-0.8s-0.5-0.3-0.9-0.3s-0.7,0.1-0.9,0.3s-0.3,0.5-0.3,0.8S48.9,17.1,49.1,17.3z"/>
			<path style="fill:#404040;" d="M50,13.4c-0.5,0-0.9,0.1-1.3,0.2c-0.4,0.1-0.8,0.3-1.1,0.5S47,14.6,46.9,15
				c-0.2,0.4-0.3,0.8-0.3,1.2c0,0.6,0.1,1,0.4,1.4c0.3,0.4,0.7,0.7,1.3,0.8l0,0c-0.6,0.2-1.1,0.5-1.4,0.9c-0.3,0.4-0.5,0.9-0.5,1.6
				c0,0.5,0.1,0.9,0.3,1.3s0.5,0.7,0.8,0.9c0.3,0.2,0.7,0.4,1.1,0.5c0.4,0.1,0.9,0.2,1.3,0.2c0.5,0,0.9-0.1,1.3-0.2
				c0.4-0.1,0.8-0.3,1.1-0.5s0.6-0.5,0.8-0.9s0.3-0.8,0.3-1.3c0-0.6-0.2-1.1-0.5-1.6c-0.3-0.4-0.8-0.7-1.4-0.9l0,0
				c0.5-0.2,1-0.4,1.3-0.8s0.4-0.9,0.4-1.4s-0.1-0.9-0.3-1.2s-0.4-0.6-0.7-0.9c-0.3-0.2-0.7-0.4-1.1-0.5
				C50.9,13.5,50.5,13.4,50,13.4 M50,17.6c-0.4,0-0.7-0.1-0.9-0.3c-0.2-0.2-0.3-0.5-0.3-0.8s0.1-0.6,0.3-0.8s0.5-0.3,0.9-0.3
				s0.7,0.1,0.9,0.3s0.3,0.5,0.3,0.8c0,0.3-0.1,0.6-0.3,0.8S50.4,17.6,50,17.6 M51.4,20.6c0,0.3-0.1,0.6-0.4,0.9
				c-0.3,0.2-0.6,0.4-1,0.4s-0.8-0.1-1-0.4c-0.3-0.3-0.4-0.6-0.4-0.9c0-0.4,0.1-0.7,0.4-0.9c0.3-0.2,0.6-0.4,1-0.4s0.8,0.1,1,0.4
				C51.3,20,51.4,20.3,51.4,20.6z"/>
		</g>
	</g>
	<g>
		<path id="Layer1_0_1_STROKES" style="fill:none;stroke:#404040;stroke-width:5;stroke-linecap:round;stroke-linejoin:round;" d="
			M64,7.2c-0.3,7.4-0.3,14.8,0,22.2c0,1.6-0.8,2.4-2.4,2.4H38.4c-1.6,0-2.4-0.8-2.4-2.4c0.3-7.4,0.3-14.8,0-22.2
			c0-1.6,0.8-2.4,2.4-2.4h23.2C63.2,4.9,64,5.7,64,7.2z"/>
	</g>
	<g>
		<path id="Layer1_0_2_STROKES" style="fill:none;stroke:#FFFFFF;stroke-width:4;stroke-linecap:round;stroke-linejoin:round;" d="
			M51.5,8.6h-10c-1.2,0-1.7,0.6-1.7,1.7c0.3,5.4,0.3,10.7,0,16.1c0,1.1,0.6,1.7,1.7,1.7h10 M52,28.1h6.6c1.2,0,1.7-0.6,1.7-1.7
			C60,21,60,15.7,60.3,10.3c0-1.2-0.6-1.7-1.7-1.7H52"/>
	</g>
</g>
<g transform="matrix( 1, 0, 0, 1, 0,0) ">
	<g>
		<g id="Layer1_0_FILL_1_">
			<path style="fill:#D7D7D7;" d="M31,61.1c-0.3-7.4-0.3-14.8,0-22.2c0-1.6-0.8-2.4-2.4-2.4H5.4c-1.6,0-2.4,0.8-2.4,2.4
				c0.3,7.4,0.3,14.8,0,22.2c0,1.6,0.8,2.4,2.4,2.4h23.2C30.2,63.5,31,62.7,31,61.1 M19,40.2h6.6c1.2,0,1.7,0.6,1.7,1.7
				C27,47.3,27,52.7,27.3,58c0,1.1-0.6,1.7-1.7,1.7H19h-0.5h-10c-1.2,0-1.7-0.6-1.7-1.7C7,52.7,7,47.3,6.7,42c0-1.2,0.6-1.7,1.7-1.7
				h10L19,40.2L19,40.2z"/>
			<path style="fill:#F5F5F5;" d="M25.6,40.2H19h-0.5h-10c-1.2,0-1.7,0.6-1.7,1.7C7,47.3,7,52.7,6.7,58c0,1.1,0.6,1.7,1.7,1.7h10H19
				h6.6c1.2,0,1.7-0.6,1.7-1.7c-0.3-5.3-0.3-10.7,0-16C27.3,40.8,26.7,40.2,25.6,40.2 M17.2,45.3h2.3v6.3h1.3v1.8h-1.3v2h-2.1v-2H13
				v-1.8L17.2,45.3 M17.5,48L17.5,48l-2.3,3.5h2.3V48z"/>
			<path style="fill:#404040;" d="M19.6,45.3h-2.3l-4.1,6.3v1.8h4.4v2h2.1v-2H21v-1.8h-1.3v-6.3 M17.5,48L17.5,48v3.5h-2.3L17.5,48z
				"/>
		</g>
	</g>
	<g>
		
			<path id="Layer1_0_1_STROKES_1_" style="fill:none;stroke:#404040;stroke-width:5;stroke-linecap:round;stroke-linejoin:round;" d="
			M31,38.9c-0.3,7.4-0.3,14.8,0,22.2c0,1.6-0.8,2.4-2.4,2.4H5.4c-1.6,0-2.4-0.8-2.4-2.4c0.3-7.4,0.3-14.8,0-22.2
			c0-1.6,0.8-2.4,2.4-2.4h23.2C30.2,36.5,31,37.3,31,38.9z"/>
	</g>
	<g>
		
			<path id="Layer1_0_2_STROKES_1_" style="fill:none;stroke:#FFFFFF;stroke-width:4;stroke-linecap:round;stroke-linejoin:round;" d="
			M19,59.7h6.6c1.2,0,1.7-0.6,1.7-1.7c-0.3-5.3-0.3-10.7,0-16c0-1.2-0.6-1.7-1.7-1.7H19 M18.5,40.2h-10c-1.2,0-1.7,0.6-1.7,1.7
			C7,47.3,7,52.7,6.7,58c0,1.1,0.6,1.7,1.7,1.7h10"/>
	</g>
</g>
<g transform="matrix( 1, 0, 0, 1, 0,0) ">
	<g>
		<g id="Layer1_0_FILL_2_">
			<path style="fill:#D7D7D7;" d="M97,61.1c-0.3-7.4-0.3-14.8,0-22.2c0-1.6-0.8-2.4-2.4-2.4H71.4c-1.6,0-2.4,0.8-2.4,2.4
				c0.3,7.4,0.3,14.8,0,22.2c0,1.6,0.8,2.4,2.4,2.4h23.2C96.2,63.5,97,62.7,97,61.1 M84.5,40.2H85h6.6c1.2,0,1.7,0.6,1.7,1.7
				C93,47.3,93,52.7,93.3,58c0,1.1-0.6,1.7-1.7,1.7H85h-0.5h-10c-1.2,0-1.7-0.6-1.7-1.7c0.3-5.4,0.3-10.7,0-16.1
				c0-1.2,0.6-1.7,1.7-1.7H84.5z"/>
			<path style="fill:#F5F5F5;" d="M85,40.2h-0.5h-10c-1.2,0-1.7,0.6-1.7,1.7c0.3,5.4,0.3,10.7,0,16.1c0,1.1,0.6,1.7,1.7,1.7h10H85
				h6.6c1.2,0,1.7-0.6,1.7-1.7c-0.3-5.3-0.3-10.7,0-16c0-1.2-0.6-1.7-1.7-1.7L85,40.2 M80.4,48.7l2.2-3.5h2.6l-2.4,3.6
				c0.1,0,0.2,0,0.3-0.1c0.1,0,0.2,0,0.4,0c0.5,0,0.9,0.1,1.3,0.2c0.4,0.2,0.7,0.4,1,0.7s0.5,0.7,0.6,1.1c0.1,0.4,0.2,0.8,0.2,1.3
				s-0.1,1-0.3,1.4c-0.2,0.4-0.5,0.8-0.8,1.1s-0.7,0.5-1.2,0.7s-0.9,0.3-1.5,0.3c-0.5,0-1-0.1-1.5-0.3s-0.9-0.4-1.2-0.7
				c-0.3-0.3-0.6-0.7-0.8-1.1C79.1,53,79,52.5,79,52c0-0.4,0-0.7,0.1-1s0.2-0.6,0.3-0.9c0.1-0.3,0.2-0.5,0.4-0.8
				C80.1,49.2,80.3,49,80.4,48.7 M84.6,52c0-0.5-0.1-0.8-0.4-1.1s-0.7-0.5-1.2-0.5s-0.9,0.2-1.2,0.5c-0.3,0.3-0.4,0.7-0.4,1.1
				s0.1,0.8,0.4,1.1s0.7,0.4,1.2,0.4s0.9-0.1,1.2-0.4C84.4,52.8,84.6,52.4,84.6,52z"/>
			<path style="fill:#404040;" d="M82.6,45.3l-2.2,3.5c-0.2,0.3-0.3,0.5-0.5,0.7c-0.1,0.3-0.3,0.5-0.4,0.8s-0.2,0.6-0.3,0.9
				c-0.1,0.3-0.1,0.6-0.1,1c0,0.5,0.1,1,0.3,1.4c0.2,0.4,0.5,0.8,0.8,1.1s0.7,0.5,1.2,0.7c0.4,0.2,0.9,0.3,1.5,0.3
				c0.5,0,1-0.1,1.5-0.3s0.9-0.4,1.2-0.7c0.3-0.3,0.6-0.7,0.8-1.1c0.2-0.4,0.3-0.9,0.3-1.4c0-0.4-0.1-0.9-0.2-1.3
				c-0.1-0.4-0.4-0.8-0.6-1.1c-0.3-0.3-0.6-0.5-1-0.7s-0.8-0.2-1.3-0.2c-0.1,0-0.2,0-0.4,0c-0.1,0-0.2,0-0.3,0.1l2.4-3.6h-2.7
				 M84.1,50.8c0.3,0.3,0.4,0.7,0.4,1.1s-0.1,0.8-0.4,1.1s-0.7,0.4-1.2,0.4S82,53.3,81.7,53c-0.3-0.3-0.4-0.7-0.4-1.1
				s0.1-0.8,0.4-1.1s0.7-0.5,1.2-0.5C83.5,50.4,83.8,50.5,84.1,50.8z"/>
		</g>
	</g>
	<g>
		
			<path id="Layer1_0_1_STROKES_2_" style="fill:none;stroke:#404040;stroke-width:5;stroke-linecap:round;stroke-linejoin:round;" d="
			M97,38.9c-0.3,7.4-0.3,14.8,0,22.2c0,1.6-0.8,2.4-2.4,2.4H71.4c-1.6,0-2.4-0.8-2.4-2.4c0.3-7.4,0.3-14.8,0-22.2
			c0-1.6,0.8-2.4,2.4-2.4h23.2C96.2,36.5,97,37.3,97,38.9z"/>
	</g>
	<g>
		
			<path id="Layer1_0_2_STROKES_2_" style="fill:none;stroke:#FFFFFF;stroke-width:4;stroke-linecap:round;stroke-linejoin:round;" d="
			M84.5,40.2h-10c-1.2,0-1.7,0.6-1.7,1.7c0.3,5.4,0.3,10.7,0,16.1c0,1.1,0.6,1.7,1.7,1.7h10 M85,59.7h6.6c1.2,0,1.7-0.6,1.7-1.7
			c-0.3-5.3-0.3-10.7,0-16c0-1.2-0.6-1.7-1.7-1.7H85"/>
	</g>
</g>
<g transform="matrix( 1, 0, 0, 1, 0,0) ">
	<g>
		<g id="Layer1_0_FILL_3_">
			<path style="fill:#D7D7D7;" d="M64,92.8c-0.3-7.4-0.3-14.8,0-22.2c0-1.6-0.8-2.4-2.4-2.4H38.4c-1.6,0-2.4,0.8-2.4,2.4
				c0.3,7.4,0.3,14.8,0,22.2c0,1.6,0.8,2.4,2.4,2.4h23.2C63.2,95.1,64,94.3,64,92.8 M51.5,71.9H52h6.6c1.2,0,1.7,0.6,1.7,1.7
				C60,79,60,84.3,60.3,89.7c0,1.1-0.6,1.7-1.7,1.7H52h-0.5h-10c-1.2,0-1.7-0.6-1.7-1.7c0.3-5.4,0.3-10.7,0-16.1
				c0-1.2,0.6-1.7,1.7-1.7H51.5z"/>
			<path style="fill:#F5F5F5;" d="M52,71.9h-0.5h-10c-1.2,0-1.7,0.6-1.7,1.7c0.3,5.4,0.3,10.7,0,16.1c0,1.1,0.6,1.7,1.7,1.7h10H52
				h6.6c1.2,0,1.7-0.6,1.7-1.7C60,84.3,60,79,60.3,73.6c0-1.2-0.6-1.7-1.7-1.7H52 M49.1,79.1c-0.2,0.2-0.3,0.5-0.4,0.9l-2.1-0.1
				c0-0.5,0.1-1,0.3-1.4s0.4-0.7,0.8-1c0.3-0.3,0.7-0.5,1.1-0.6c0.4-0.1,0.9-0.2,1.4-0.2s0.9,0.1,1.3,0.2c0.4,0.1,0.7,0.3,1,0.6
				c0.3,0.3,0.5,0.6,0.7,1s0.2,0.8,0.2,1.3c0,0.3,0,0.6-0.1,0.9s-0.2,0.5-0.3,0.7s-0.3,0.4-0.4,0.6c-0.2,0.2-0.3,0.4-0.5,0.5
				L49,85.1h4.5V87h-7v-2.3l3.9-3.5c0.2-0.2,0.4-0.4,0.6-0.6c0.2-0.2,0.3-0.5,0.3-0.8c0-0.4-0.1-0.6-0.4-0.8s-0.5-0.3-0.9-0.3
				C49.7,78.7,49.4,78.8,49.1,79.1z"/>
			<path style="fill:#404040;" d="M48.8,80c0-0.4,0.1-0.7,0.4-0.9c0.2-0.2,0.5-0.4,0.9-0.4c0.3,0,0.6,0.1,0.9,0.3s0.4,0.5,0.4,0.8
				s-0.1,0.6-0.3,0.8c-0.2,0.2-0.4,0.4-0.6,0.6l-3.9,3.5V87h7v-1.9H49l3.1-2.6c0.2-0.2,0.4-0.3,0.5-0.5c0.2-0.2,0.3-0.4,0.4-0.6
				c0.1-0.2,0.2-0.5,0.3-0.7c0.1-0.3,0.1-0.5,0.1-0.9c0-0.5-0.1-0.9-0.2-1.3c-0.2-0.4-0.4-0.7-0.7-1c-0.3-0.2-0.6-0.4-1-0.6
				c-0.4-0.1-0.8-0.2-1.3-0.2s-1,0.1-1.4,0.2s-0.8,0.3-1.1,0.6c-0.3,0.3-0.6,0.6-0.8,1s-0.3,0.8-0.3,1.4L48.8,80z"/>
		</g>
	</g>
	<g>
		
			<path id="Layer1_0_1_STROKES_3_" style="fill:none;stroke:#404040;stroke-width:5;stroke-linecap:round;stroke-linejoin:round;" d="
			M64,70.5c-0.3,7.4-0.3,14.8,0,22.2c0,1.6-0.8,2.4-2.4,2.4H38.4c-1.6,0-2.4-0.8-2.4-2.4c0.3-7.4,0.3-14.8,0-22.2
			c0-1.6,0.8-2.4,2.4-2.4h23.2C63.2,68.2,64,69,64,70.5z"/>
	</g>
	<g>
		
			<path id="Layer1_0_2_STROKES_3_" style="fill:none;stroke:#FFFFFF;stroke-width:4;stroke-linecap:round;stroke-linejoin:round;" d="
			M51.5,71.9h-10c-1.2,0-1.7,0.6-1.7,1.7c0.3,5.4,0.3,10.7,0,16.1c0,1.1,0.6,1.7,1.7,1.7h10 M52,91.4h6.6c1.2,0,1.7-0.6,1.7-1.7
			C60,84.3,60,79,60.3,73.6c0-1.2-0.6-1.7-1.7-1.7H52"/>
	</g>
</g>
<g transform="matrix( 1, 0, 0, 1, 0,0) ">
	<g>
		<g id="Layer1_0_FILL_4_">
			<path style="fill:#353535;" d="M64,29.5c-0.3-7.4-0.3-14.8,0-22.2c0-1.6-0.8-2.4-2.4-2.4H38.4c-1.6,0-2.4,0.8-2.4,2.4
				c0.3,7.4,0.3,14.8,0,22.2c0,1.6,0.8,2.4,2.4,2.4h23.2C63.2,31.8,64,31,64,29.5 M51.5,8.6H52h6.6c1.2,0,1.7,0.6,1.7,1.7
				C60,15.7,60,21,60.3,26.4c0,1.1-0.6,1.7-1.7,1.7H52h-0.5h-10c-1.2,0-1.7-0.6-1.7-1.7c0.3-5.4,0.3-10.7,0-16.1
				c0-1.2,0.6-1.7,1.7-1.7C41.5,8.6,51.5,8.6,51.5,8.6z"/>
			<path style="fill:#595959;" d="M52,8.6h-0.5h-10c-1.2,0-1.7,0.6-1.7,1.7c0.3,5.4,0.3,10.7,0,16.1c0,1.1,0.6,1.7,1.7,1.7h10H52
				h6.6c1.2,0,1.7-0.6,1.7-1.7C60,21,60,15.7,60.3,10.3c0-1.2-0.6-1.7-1.7-1.7H52 M48.7,13.6c0.4-0.1,0.8-0.2,1.3-0.2
				s0.9,0.1,1.3,0.2c0.4,0.1,0.8,0.3,1.1,0.5s0.5,0.5,0.7,0.9s0.3,0.8,0.3,1.2c0,0.6-0.1,1-0.4,1.4c-0.3,0.4-0.7,0.7-1.3,0.8l0,0
				c0.6,0.2,1.1,0.5,1.4,0.9c0.3,0.4,0.5,0.9,0.5,1.6c0,0.5-0.1,0.9-0.3,1.3s-0.5,0.7-0.8,0.9c-0.3,0.2-0.7,0.4-1.1,0.5
				c-0.4,0.1-0.9,0.2-1.3,0.2c-0.5,0-0.9-0.1-1.3-0.2c-0.4-0.1-0.8-0.3-1.1-0.5s-0.6-0.5-0.8-0.9s-0.3-0.8-0.3-1.3
				c0-0.6,0.2-1.1,0.5-1.6c0.3-0.4,0.8-0.7,1.4-0.9l0,0c-0.5-0.2-1-0.4-1.3-0.8s-0.4-0.9-0.4-1.4s0.1-0.9,0.3-1.2s0.4-0.6,0.7-0.9
				C47.9,13.9,48.3,13.7,48.7,13.6 M51,21.5c0.3-0.3,0.4-0.6,0.4-0.9c0-0.4-0.1-0.7-0.4-0.9c-0.3-0.2-0.6-0.4-1-0.4s-0.8,0.1-1,0.4
				c-0.3,0.3-0.4,0.6-0.4,0.9s0.1,0.6,0.4,0.9c0.3,0.2,0.6,0.4,1,0.4S50.8,21.8,51,21.5 M49.1,17.3c0.2,0.2,0.5,0.3,0.9,0.3
				s0.7-0.1,0.9-0.3s0.3-0.5,0.3-0.8s-0.1-0.6-0.3-0.8s-0.5-0.3-0.9-0.3s-0.7,0.1-0.9,0.3s-0.3,0.5-0.3,0.8S48.9,17.1,49.1,17.3z"/>
			<path style="fill:#CDCDCD;" d="M50,13.4c-0.5,0-0.9,0.1-1.3,0.2c-0.4,0.1-0.8,0.3-1.1,0.5S47,14.6,46.9,15
				c-0.2,0.4-0.3,0.8-0.3,1.2c0,0.6,0.1,1,0.4,1.4c0.3,0.4,0.7,0.7,1.3,0.8l0,0c-0.6,0.2-1.1,0.5-1.4,0.9c-0.3,0.4-0.5,0.9-0.5,1.6
				c0,0.5,0.1,0.9,0.3,1.3s0.5,0.7,0.8,0.9c0.3,0.2,0.7,0.4,1.1,0.5c0.4,0.1,0.9,0.2,1.3,0.2c0.5,0,0.9-0.1,1.3-0.2
				c0.4-0.1,0.8-0.3,1.1-0.5s0.6-0.5,0.8-0.9s0.3-0.8,0.3-1.3c0-0.6-0.2-1.1-0.5-1.6c-0.3-0.4-0.8-0.7-1.4-0.9l0,0
				c0.5-0.2,1-0.4,1.3-0.8s0.4-0.9,0.4-1.4s-0.1-0.9-0.3-1.2s-0.4-0.6-0.7-0.9c-0.3-0.2-0.7-0.4-1.1-0.5
				C50.9,13.5,50.5,13.4,50,13.4 M50,17.6c-0.4,0-0.7-0.1-0.9-0.3c-0.2-0.2-0.3-0.5-0.3-0.8s0.1-0.6,0.3-0.8s0.5-0.3,0.9-0.3
				s0.7,0.1,0.9,0.3s0.3,0.5,0.3,0.8c0,0.3-0.1,0.6-0.3,0.8S50.4,17.6,50,17.6 M51.4,20.6c0,0.3-0.1,0.6-0.4,0.9
				c-0.3,0.2-0.6,0.4-1,0.4s-0.8-0.1-1-0.4c-0.3-0.3-0.4-0.6-0.4-0.9c0-0.4,0.1-0.7,0.4-0.9c0.3-0.2,0.6-0.4,1-0.4s0.8,0.1,1,0.4
				C51.3,20,51.4,20.3,51.4,20.6z"/>
		</g>
	</g>
	<g>
		
			<path id="Layer1_0_1_STROKES_4_" style="fill:none;stroke:#1D1D1D;stroke-width:5;stroke-linecap:round;stroke-linejoin:round;" d="
			M64,7.2c-0.3,7.4-0.3,14.8,0,22.2c0,1.6-0.8,2.4-2.4,2.4H38.4c-1.6,0-2.4-0.8-2.4-2.4c0.3-7.4,0.3-14.8,0-22.2
			c0-1.6,0.8-2.4,2.4-2.4h23.2C63.2,4.9,64,5.7,64,7.2z"/>
	</g>
	<g>
		
			<path id="Layer1_0_2_STROKES_4_" style="fill:none;stroke:#696969;stroke-width:4;stroke-linecap:round;stroke-linejoin:round;" d="
			M51.5,8.6h-10c-1.2,0-1.7,0.6-1.7,1.7c0.3,5.4,0.3,10.7,0,16.1c0,1.1,0.6,1.7,1.7,1.7h10 M52,28.1h6.6c1.2,0,1.7-0.6,1.7-1.7
			C60,21,60,15.7,60.3,10.3c0-1.2-0.6-1.7-1.7-1.7H52"/>
	</g>
</g>
<g transform="matrix( 1, 0, 0, 1, 0,0) ">
	<g>
		<g id="Layer1_0_FILL_5_">
			<path style="fill:#353535;" d="M64,92.8c-0.3-7.4-0.3-14.8,0-22.2c0-1.6-0.8-2.4-2.4-2.4H38.4c-1.6,0-2.4,0.8-2.4,2.4
				c0.3,7.4,0.3,14.8,0,22.2c0,1.6,0.8,2.4,2.4,2.4h23.2C63.2,95.1,64,94.3,64,92.8 M51.5,71.9H52h6.6c1.2,0,1.7,0.6,1.7,1.7
				C60,79,60,84.3,60.3,89.7c0,1.1-0.6,1.7-1.7,1.7H52h-0.5h-10c-1.2,0-1.7-0.6-1.7-1.7c0.3-5.4,0.3-10.7,0-16.1
				c0-1.2,0.6-1.7,1.7-1.7H51.5z"/>
			<path style="fill:#595959;" d="M52,71.9h-0.5h-10c-1.2,0-1.7,0.6-1.7,1.7c0.3,5.4,0.3,10.7,0,16.1c0,1.1,0.6,1.7,1.7,1.7h10H52
				h6.6c1.2,0,1.7-0.6,1.7-1.7C60,84.3,60,79,60.3,73.6c0-1.2-0.6-1.7-1.7-1.7H52 M49.1,79.1c-0.2,0.2-0.3,0.5-0.4,0.9l-2.1-0.1
				c0-0.5,0.1-1,0.3-1.4s0.4-0.7,0.8-1c0.3-0.3,0.7-0.5,1.1-0.6c0.4-0.1,0.9-0.2,1.4-0.2s0.9,0.1,1.3,0.2c0.4,0.1,0.7,0.3,1,0.6
				c0.3,0.3,0.5,0.6,0.7,1s0.2,0.8,0.2,1.3c0,0.3,0,0.6-0.1,0.9s-0.2,0.5-0.3,0.7s-0.3,0.4-0.4,0.6c-0.2,0.2-0.3,0.4-0.5,0.5
				L49,85.1h4.5V87h-7v-2.3l3.9-3.5c0.2-0.2,0.4-0.4,0.6-0.6c0.2-0.2,0.3-0.5,0.3-0.8c0-0.4-0.1-0.6-0.4-0.8
				c-0.2-0.2-0.5-0.3-0.9-0.3C49.7,78.7,49.4,78.8,49.1,79.1z"/>
			<path style="fill:#CDCDCD;" d="M48.8,80c0-0.4,0.1-0.7,0.4-0.9c0.2-0.2,0.5-0.4,0.9-0.4c0.3,0,0.6,0.1,0.9,0.3
				c0.2,0.2,0.4,0.5,0.4,0.8s-0.1,0.6-0.3,0.8c-0.2,0.2-0.4,0.4-0.6,0.6l-3.9,3.5V87h7v-1.9H49l3.1-2.6c0.2-0.2,0.4-0.3,0.5-0.5
				c0.2-0.2,0.3-0.4,0.4-0.6c0.1-0.2,0.2-0.5,0.3-0.7s0.1-0.5,0.1-0.9c0-0.5-0.1-0.9-0.2-1.3c-0.2-0.4-0.4-0.7-0.7-1
				c-0.3-0.2-0.6-0.4-1-0.6c-0.4-0.1-0.8-0.2-1.3-0.2s-1,0.1-1.4,0.2s-0.8,0.3-1.1,0.6c-0.3,0.3-0.6,0.6-0.8,1s-0.3,0.8-0.3,1.4
				L48.8,80z"/>
		</g>
	</g>
	<g>
		
			<path id="Layer1_0_1_STROKES_5_" style="fill:none;stroke:#1D1D1D;stroke-width:5;stroke-linecap:round;stroke-linejoin:round;" d="
			M64,70.5c-0.3,7.4-0.3,14.8,0,22.2c0,1.6-0.8,2.4-2.4,2.4H38.4c-1.6,0-2.4-0.8-2.4-2.4c0.3-7.4,0.3-14.8,0-22.2
			c0-1.6,0.8-2.4,2.4-2.4h23.2C63.2,68.2,64,69,64,70.5z"/>
	</g>
	<g>
		
			<path id="Layer1_0_2_STROKES_5_" style="fill:none;stroke:#696969;stroke-width:4;stroke-linecap:round;stroke-linejoin:round;" d="
			M51.5,71.9h-10c-1.2,0-1.7,0.6-1.7,1.7c0.3,5.4,0.3,10.7,0,16.1c0,1.1,0.6,1.7,1.7,1.7h10 M52,91.4h6.6c1.2,0,1.7-0.6,1.7-1.7
			C60,84.3,60,79,60.3,73.6c0-1.2-0.6-1.7-1.7-1.7H52"/>
	</g>
</g>
<g transform="matrix( 1, 0, 0, 1, 0,0) ">
	<g>
		<g id="Layer1_0_FILL_6_">
			<path style="fill:#353535;" d="M31,61.1c-0.3-7.4-0.3-14.8,0-22.2c0-1.6-0.8-2.4-2.4-2.4H5.4c-1.6,0-2.4,0.8-2.4,2.4
				c0.3,7.4,0.3,14.8,0,22.2c0,1.6,0.8,2.4,2.4,2.4h23.2C30.2,63.5,31,62.7,31,61.1 M18.5,40.2H19h6.6c1.2,0,1.7,0.6,1.7,1.7
				C27,47.3,27,52.7,27.3,58c0,1.1-0.6,1.7-1.7,1.7H19h-0.5h-10c-1.2,0-1.7-0.6-1.7-1.7C7,52.7,7,47.3,6.7,42c0-1.2,0.6-1.7,1.7-1.7
				L18.5,40.2L18.5,40.2z"/>
			<path style="fill:#595959;" d="M19,40.2h-0.5h-10c-1.2,0-1.7,0.6-1.7,1.7C7,47.3,7,52.7,6.7,58c0,1.1,0.6,1.7,1.7,1.7h10H19h6.6
				c1.2,0,1.7-0.6,1.7-1.7c-0.3-5.3-0.3-10.7,0-16c0-1.2-0.6-1.7-1.7-1.7L19,40.2 M17.2,45.3h2.3v6.3h1.3v1.8h-1.3v2h-2.1v-2H13
				v-1.8L17.2,45.3 M17.5,48L17.5,48l-2.3,3.5h2.3V48z"/>
			<path style="fill:#CDCDCD;" d="M19.6,45.3h-2.3l-4.1,6.3v1.8h4.4v2h2.1v-2H21v-1.8h-1.3v-6.3 M17.5,48L17.5,48v3.5h-2.3L17.5,48z
				"/>
		</g>
	</g>
	<g>
		
			<path id="Layer1_0_1_STROKES_6_" style="fill:none;stroke:#1D1D1D;stroke-width:5;stroke-linecap:round;stroke-linejoin:round;" d="
			M31,38.9c-0.3,7.4-0.3,14.8,0,22.2c0,1.6-0.8,2.4-2.4,2.4H5.4c-1.6,0-2.4-0.8-2.4-2.4c0.3-7.4,0.3-14.8,0-22.2
			c0-1.6,0.8-2.4,2.4-2.4h23.2C30.2,36.5,31,37.3,31,38.9z"/>
	</g>
	<g>
		
			<path id="Layer1_0_2_STROKES_6_" style="fill:none;stroke:#696969;stroke-width:4;stroke-linecap:round;stroke-linejoin:round;" d="
			M18.5,40.2h-10c-1.2,0-1.7,0.6-1.7,1.7C7,47.3,7,52.7,6.7,58c0,1.1,0.6,1.7,1.7,1.7h10 M19,59.7h6.6c1.2,0,1.7-0.6,1.7-1.7
			c-0.3-5.3-0.3-10.7,0-16c0-1.2-0.6-1.7-1.7-1.7H19"/>
	</g>
</g>
<g transform="matrix( 1, 0, 0, 1, 0,0) ">
	<g>
		<g id="Layer1_0_FILL_7_">
			<path style="fill:#353535;" d="M97,61.1c-0.3-7.4-0.3-14.8,0-22.2c0-1.6-0.8-2.4-2.4-2.4H71.4c-1.6,0-2.4,0.8-2.4,2.4
				c0.3,7.4,0.3,14.8,0,22.2c0,1.6,0.8,2.4,2.4,2.4h23.2C96.2,63.5,97,62.7,97,61.1 M84.5,40.2H85h6.6c1.2,0,1.7,0.6,1.7,1.7
				C93,47.3,93,52.7,93.3,58c0,1.1-0.6,1.7-1.7,1.7H85h-0.5h-10c-1.2,0-1.7-0.6-1.7-1.7c0.3-5.4,0.3-10.7,0-16.1
				c0-1.2,0.6-1.7,1.7-1.7H84.5z"/>
			<path style="fill:#595959;" d="M85,40.2h-0.5h-10c-1.2,0-1.7,0.6-1.7,1.7c0.3,5.4,0.3,10.7,0,16.1c0,1.1,0.6,1.7,1.7,1.7h10H85
				h6.6c1.2,0,1.7-0.6,1.7-1.7c-0.3-5.3-0.3-10.7,0-16c0-1.2-0.6-1.7-1.7-1.7L85,40.2 M80.4,48.7l2.2-3.5h2.6l-2.4,3.6
				c0.1,0,0.2,0,0.3-0.1c0.1,0,0.2,0,0.4,0c0.5,0,0.9,0.1,1.3,0.2c0.4,0.2,0.7,0.4,1,0.7s0.5,0.7,0.6,1.1c0.1,0.4,0.2,0.8,0.2,1.3
				s-0.1,1-0.3,1.4c-0.2,0.4-0.5,0.8-0.8,1.1s-0.7,0.5-1.2,0.7s-0.9,0.3-1.5,0.3c-0.5,0-1-0.1-1.5-0.3s-0.9-0.4-1.2-0.7
				c-0.3-0.3-0.6-0.7-0.8-1.1C79.1,53,79,52.5,79,52c0-0.4,0-0.7,0.1-1s0.2-0.6,0.3-0.9c0.1-0.3,0.2-0.5,0.4-0.8
				C80.1,49.2,80.3,49,80.4,48.7 M84.6,52c0-0.5-0.1-0.8-0.4-1.1s-0.7-0.5-1.2-0.5s-0.9,0.2-1.2,0.5c-0.3,0.3-0.4,0.7-0.4,1.1
				c0,0.5,0.1,0.8,0.4,1.1s0.7,0.4,1.2,0.4s0.9-0.1,1.2-0.4C84.4,52.8,84.6,52.4,84.6,52z"/>
			<path style="fill:#CDCDCD;" d="M82.6,45.3l-2.2,3.5c-0.2,0.3-0.3,0.5-0.5,0.7c-0.1,0.3-0.3,0.5-0.4,0.8s-0.2,0.6-0.3,0.9
				c-0.1,0.3-0.1,0.6-0.1,1c0,0.5,0.1,1,0.3,1.4c0.2,0.4,0.5,0.8,0.8,1.1s0.7,0.5,1.2,0.7c0.4,0.2,0.9,0.3,1.5,0.3
				c0.5,0,1-0.1,1.5-0.3s0.9-0.4,1.2-0.7c0.3-0.3,0.6-0.7,0.8-1.1c0.2-0.4,0.3-0.9,0.3-1.4c0-0.4-0.1-0.9-0.2-1.3
				c-0.1-0.4-0.4-0.8-0.6-1.1c-0.3-0.3-0.6-0.5-1-0.7s-0.8-0.2-1.3-0.2c-0.1,0-0.2,0-0.4,0c-0.1,0-0.2,0-0.3,0.1l2.4-3.6h-2.7
				 M84.1,50.8c0.3,0.3,0.4,0.7,0.4,1.1c0,0.5-0.1,0.8-0.4,1.1s-0.7,0.4-1.2,0.4S82,53.3,81.7,53s-0.4-0.7-0.4-1.1
				c0-0.5,0.1-0.8,0.4-1.1s0.7-0.5,1.2-0.5C83.5,50.4,83.8,50.5,84.1,50.8z"/>
		</g>
	</g>
	<g>
		
			<path id="Layer1_0_1_STROKES_7_" style="fill:none;stroke:#1D1D1D;stroke-width:5;stroke-linecap:round;stroke-linejoin:round;" d="
			M97,38.9c-0.3,7.4-0.3,14.8,0,22.2c0,1.6-0.8,2.4-2.4,2.4H71.4c-1.6,0-2.4-0.8-2.4-2.4c0.3-7.4,0.3-14.8,0-22.2
			c0-1.6,0.8-2.4,2.4-2.4h23.2C96.2,36.5,97,37.3,97,38.9z"/>
	</g>
	<g>
		
			<path id="Layer1_0_2_STROKES_7_" style="fill:none;stroke:#696969;stroke-width:4;stroke-linecap:round;stroke-linejoin:round;" d="
			M84.5,40.2h-10c-1.2,0-1.7,0.6-1.7,1.7c0.3,5.4,0.3,10.7,0,16.1c0,1.1,0.6,1.7,1.7,1.7h10 M85,59.7h6.6c1.2,0,1.7-0.6,1.7-1.7
			c-0.3-5.3-0.3-10.7,0-16c0-1.2-0.6-1.7-1.7-1.7H85"/>
	</g>
</g>
</svg>
