<?xml version="1.0" encoding="utf-8"?>
<!-- Generator: Adobe Illustrator 24.1.2, SVG Export Plug-In . SVG Version: 6.00 Build 0)  -->
<svg version="1.1" id="Layer_1" xmlns="http://www.w3.org/2000/svg" xmlns:xlink="http://www.w3.org/1999/xlink" x="0px" y="0px"
	 viewBox="0 0 100 100" style="enable-background:new 0 0 100 100;" xml:space="preserve">
<g id="_x5B_" transform="matrix( 1, 0, 0, 1, 0,0) ">
	<g>
		<g id="Layer1_0_FILL">
			<path style="fill:#353535;" d="M46,66.7c-0.5-11.1-0.5-22.2,0-33.3c0-2.4-1.2-3.6-3.6-3.6H7.6C5.2,29.8,4,31,4,33.3
				c0.5,11.1,0.5,22.2,0,33.3c0,2.4,1.2,3.6,3.6,3.6h34.9C44.8,70.2,46,69,46,66.7 M27.2,35.4H28h9.8c1.7,0,2.6,0.9,2.6,2.6
				c-0.4,8-0.4,16,0,24.1c0,1.7-0.9,2.6-2.6,2.6H28h-0.8h-15c-1.7,0-2.6-0.9-2.6-2.6C10,54,10,46,9.6,37.9c0-1.7,0.9-2.6,2.6-2.6
				L27.2,35.4L27.2,35.4z"/>
			<path style="fill:#595959;" d="M28,35.4h-0.8h-15c-1.7,0-2.6,0.9-2.6,2.6c0.4,8,0.4,16,0,24.1c0,1.7,0.9,2.6,2.6,2.6h15.1H28h9.8
				c1.7,0,2.6-0.9,2.6-2.6C40,54,40,46,40.4,37.9c0-1.7-0.9-2.6-2.6-2.6L28,35.4 M22.6,41.1h5.1v2.2h-2.2v14h2.2v2.2h-5.1V41.1z"/>
			<path style="fill:#CDCDCD;" d="M27.7,41.1h-5.1v18.3h5.1v-2.2h-2.2v-14h2.2V41.1z"/>
		</g>
	</g>
	<g>
		<path id="Layer1_0_1_STROKES" style="fill:none;stroke:#1D1D1D;stroke-width:5;stroke-linecap:round;stroke-linejoin:round;" d="
			M46,33.3c-0.5,11.1-0.5,22.2,0,33.3c0,2.4-1.2,3.6-3.6,3.6H7.6C5.2,70.2,4,69,4,66.7c0.5-11.1,0.5-22.2,0-33.3
			c0-2.4,1.2-3.6,3.6-3.6h34.9C44.8,29.8,46,31,46,33.3z"/>
	</g>
	<g>
		<path id="Layer1_0_2_STROKES" style="fill:none;stroke:#696969;stroke-width:4;stroke-linecap:round;stroke-linejoin:round;" d="
			M27.2,35.4h-15c-1.7,0-2.6,0.9-2.6,2.6c0.4,8,0.4,16,0,24.1c0,1.7,0.9,2.6,2.6,2.6h15.1 M28,64.6h9.8c1.7,0,2.6-0.9,2.6-2.6
			c-0.4-8-0.4-16,0-24.1c0-1.7-0.9-2.6-2.6-2.6H28"/>
	</g>
</g>
<g id="_x5B__1_" transform="matrix( 1, 0, 0, 1, 0,0) ">
	<g>
		<g id="Layer1_0_FILL_1_">
			<path style="fill:#353535;" d="M54,66.7c0,2.4,1.2,3.6,3.6,3.6h34.9c2.4,0,3.6-1.2,3.6-3.6c-0.5-11.1-0.5-22.2,0-33.3
				c0-2.4-1.2-3.6-3.6-3.6H57.6c-2.4,0-3.6,1.2-3.6,3.6C54.5,44.5,54.5,55.6,54,66.7 M87.8,35.4c1.7,0,2.6,0.9,2.6,2.6
				c-0.4,8-0.4,16,0,24.1c0,1.7-0.9,2.6-2.6,2.6h-15H72h-9.8c-1.7,0-2.6-0.9-2.6-2.6c0.5-8,0.5-16.1,0-24.1c0-1.7,0.9-2.6,2.6-2.6
				H72h0.8H87.8z"/>
			<path style="fill:#595959;" d="M72,35.4h-9.8c-1.7,0-2.6,0.9-2.6,2.6c0.5,8,0.5,16.1,0,24.1c0,1.7,0.9,2.6,2.6,2.6H72h0.8h15.1
				c1.7,0,2.6-0.9,2.6-2.6C90,54,90,46,90.4,37.9c0-1.7-0.9-2.6-2.6-2.6h-15L72,35.4 M77.4,59.4h-5.1v-2.2h2.2v-14h-2.2V41h5.1V59.4
				z"/>
			<path style="fill:#CDCDCD;" d="M72.3,43.2h2.2v14h-2.2v2.2h5.1V41.1h-5.1V43.2z"/>
		</g>
	</g>
	<g>
		
			<path id="Layer1_0_1_STROKES_1_" style="fill:none;stroke:#1D1D1D;stroke-width:5;stroke-linecap:round;stroke-linejoin:round;" d="
			M57.6,29.8h34.9c2.4,0,3.6,1.2,3.6,3.6c-0.5,11.1-0.5,22.2,0,33.3c0,2.4-1.2,3.6-3.6,3.6H57.6c-2.4,0-3.6-1.2-3.6-3.6
			c0.5-11.1,0.5-22.2,0-33.3C54,31,55.2,29.8,57.6,29.8z"/>
	</g>
	<g>
		
			<path id="Layer1_0_2_STROKES_1_" style="fill:none;stroke:#696969;stroke-width:4;stroke-linecap:round;stroke-linejoin:round;" d="
			M72.8,64.6h15.1c1.7,0,2.6-0.9,2.6-2.6C90,54,90,46,90.4,37.9c0-1.7-0.9-2.6-2.6-2.6h-15 M72,35.4h-9.8c-1.7,0-2.6,0.9-2.6,2.6
			c0.5,8,0.5,16.1,0,24.1c0,1.7,0.9,2.6,2.6,2.6H72"/>
	</g>
</g>
</svg>
