<?xml version="1.0" encoding="utf-8"?>
<!-- Generator: Adobe Illustrator 24.1.2, SVG Export Plug-In . SVG Version: 6.00 Build 0)  -->
<svg version="1.1" id="Layer_1" xmlns="http://www.w3.org/2000/svg" xmlns:xlink="http://www.w3.org/1999/xlink" x="0px" y="0px"
	 viewBox="0 0 100 100" style="enable-background:new 0 0 100 100;" xml:space="preserve">
<style type="text/css">
	.st0{fill:#353535;}
	.st1{fill:#595959;}
	.st2{fill:#CDCDCD;}
	.st3{fill:none;stroke:#1D1D1D;stroke-width:5;stroke-linecap:round;stroke-linejoin:round;}
	.st4{fill:none;stroke:#696969;stroke-width:4;stroke-linecap:round;stroke-linejoin:round;}
</style>
<g transform="matrix( 1, 0, 0, 1, 0,0) ">
	<g>
		<g id="Layer1_0_FILL">
			<path class="st0" d="M46,66.7c-0.5-11.1-0.5-22.2,0-33.3c0-2.4-1.2-3.6-3.6-3.6H7.6C5.2,29.8,4,31,4,33.3
				c0.5,11.1,0.5,22.2,0,33.3c0,2.4,1.2,3.6,3.6,3.6h34.9C44.8,70.2,46,69,46,66.7 M27.2,35.4H28h9.8c1.7,0,2.6,0.9,2.6,2.6
				C40,46,40,54,40.4,62.1c0,1.7-0.9,2.6-2.6,2.6H28h-0.8H12.2c-1.7,0-2.6-0.9-2.6-2.6C10,54,10,46,9.6,37.9c0-1.7,0.9-2.6,2.6-2.6
				H27.2z"/>
			<path class="st1" d="M28,35.4h-0.8H12.2c-1.7,0-2.6,0.9-2.6,2.6C10,46,10,54,9.6,62.1c0,1.7,0.9,2.6,2.6,2.6h15.1H28h9.8
				c1.7,0,2.6-0.9,2.6-2.6C40,54,40,46,40.4,37.9c0-1.7-0.9-2.6-2.6-2.6H28 M30.8,43.3v3.3l-7.7,3v0.1l7.7,3V56l-12.3-4.8v-3.1
				L30.8,43.3z"/>
			<path class="st2" d="M30.8,46.6v-3.3l-12.3,4.8v3.1L30.8,56v-3.3l-7.7-3v-0.1L30.8,46.6z"/>
		</g>
	</g>
	<g>
		<path id="Layer1_0_1_STROKES" class="st3" d="M46,33.3c-0.5,11.1-0.5,22.2,0,33.3c0,2.4-1.2,3.6-3.6,3.6H7.6C5.2,70.2,4,69,4,66.7
			c0.5-11.1,0.5-22.2,0-33.3c0-2.4,1.2-3.6,3.6-3.6h34.9C44.8,29.8,46,31,46,33.3z"/>
	</g>
	<g>
		<path id="Layer1_0_2_STROKES" class="st4" d="M27.2,35.4H12.2c-1.7,0-2.6,0.9-2.6,2.6C10,46,10,54,9.6,62.1c0,1.7,0.9,2.6,2.6,2.6
			h15.1 M28,64.6h9.8c1.7,0,2.6-0.9,2.6-2.6C40,54,40,46,40.4,37.9c0-1.7-0.9-2.6-2.6-2.6H28"/>
	</g>
</g>
<g transform="matrix( 1, 0, 0, 1, 0,0) ">
	<g>
		<g id="Layer1_0_FILL_1_">
			<path class="st0" d="M54,66.7c0,2.4,1.2,3.6,3.6,3.6h34.9c2.4,0,3.6-1.2,3.6-3.6c-0.5-11.1-0.5-22.2,0-33.3
				c0-2.4-1.2-3.6-3.6-3.6H57.6c-2.4,0-3.6,1.2-3.6,3.6C54.5,44.5,54.5,55.6,54,66.7 M87.8,35.4c1.7,0,2.6,0.9,2.6,2.6
				C90,46,90,54,90.4,62.1c0,1.7-0.9,2.6-2.6,2.6H72.8H72h-9.8c-1.7,0-2.6-0.9-2.6-2.6c0.5-8,0.5-16.1,0-24.1c0-1.7,0.9-2.6,2.6-2.6
				H72h0.8H87.8z"/>
			<path class="st1" d="M72,35.4h-9.8c-1.7,0-2.6,0.9-2.6,2.6c0.5,8,0.5,16.1,0,24.1c0,1.7,0.9,2.6,2.6,2.6H72h0.8h15.1
				c1.7,0,2.6-0.9,2.6-2.6C90,54,90,46,90.4,37.9c0-1.7-0.9-2.6-2.6-2.6H72.8H72 M81.6,48.1v3.1L69.2,56v-3.3l7.7-3v-0.1l-7.7-3
				v-3.3L81.6,48.1z"/>
			<path class="st2" d="M77,49.6L77,49.6l-7.7,3V56l12.3-4.8v-3.1l-12.3-4.8v3.3L77,49.6z"/>
		</g>
	</g>
	<g>
		<path id="Layer1_0_1_STROKES_1_" class="st3" d="M57.6,29.8h34.9c2.4,0,3.6,1.2,3.6,3.6c-0.5,11.1-0.5,22.2,0,33.3
			c0,2.4-1.2,3.6-3.6,3.6H57.6c-2.4,0-3.6-1.2-3.6-3.6c0.5-11.1,0.5-22.2,0-33.3C54,31,55.2,29.8,57.6,29.8z"/>
	</g>
	<g>
		<path id="Layer1_0_2_STROKES_1_" class="st4" d="M72.8,64.6h15.1c1.7,0,2.6-0.9,2.6-2.6C90,54,90,46,90.4,37.9
			c0-1.7-0.9-2.6-2.6-2.6H72.8 M72,35.4h-9.8c-1.7,0-2.6,0.9-2.6,2.6c0.5,8,0.5,16.1,0,24.1c0,1.7,0.9,2.6,2.6,2.6H72"/>
	</g>
</g>
</svg>
