<?xml version="1.0" encoding="utf-8"?>
<!-- Generator: Adobe Illustrator 24.1.2, SVG Export Plug-In . SVG Version: 6.00 Build 0)  -->
<svg version="1.1" id="Layer_1" xmlns="http://www.w3.org/2000/svg" xmlns:xlink="http://www.w3.org/1999/xlink" x="0px" y="0px"
	 viewBox="0 0 100 100" style="enable-background:new 0 0 100 100;" xml:space="preserve">
<g id="Down" transform="matrix( 1, 0, 0, 1, 0,0) ">
	<g>
		<g id="Layer1_0_FILL">
			<path style="fill:#353535;" d="M40.9,29c-11.1,0.5-22.2,0.5-33.3,0C5.2,29,4,30.2,4,32.6v34.9C4,69.8,5.2,71,7.6,71
				c11.1-0.5,22.2-0.5,33.3,0c2.4,0,3.6-1.2,3.6-3.6V32.6C44.4,30.2,43.3,29,40.9,29 M9.6,47.8V47v-9.8c0-1.7,0.9-2.6,2.6-2.6
				c8,0.5,16.1,0.5,24.1,0c1.7,0,2.6,0.9,2.6,2.6V47v0.8v15.1c0,1.7-0.9,2.6-2.6,2.6c-8-0.5-16.1-0.5-24.1,0c-1.7,0-2.6-0.9-2.6-2.6
				C9.6,62.9,9.6,47.8,9.6,47.8z"/>
			<path style="fill:#595959;" d="M9.6,47v0.8v15.1c0,1.7,0.9,2.6,2.6,2.6c8-0.5,16.1-0.5,24.1,0c1.7,0,2.6-0.9,2.6-2.6V47.8V47
				v-9.8c0-1.7-0.9-2.6-2.6-2.6c-8,0.5-16.1,0.5-24.1,0c-1.7,0-2.6,0.9-2.6,2.6L9.6,47 M33.7,46.6v6.9h-9v4L14.8,50l9.8-7.4v4H33.7z
				"/>
			<path style="fill:#CDCDCD;" d="M33.7,53.4v-6.9h-9v-4L14.8,50l9.8,7.4v-4H33.7z"/>
		</g>
	</g>
	<g>
		<path id="Layer1_0_1_STROKES" style="fill:none;stroke:#1D1D1D;stroke-width:5;stroke-linecap:round;stroke-linejoin:round;" d="
			M7.6,29c11.1,0.5,22.2,0.5,33.3,0c2.4,0,3.6,1.2,3.6,3.6v34.9c0,2.4-1.2,3.6-3.6,3.6c-11.1-0.5-22.2-0.5-33.3,0
			C5.2,71,4,69.8,4,67.4V32.6C4,30.2,5.2,29,7.6,29z"/>
	</g>
	<g>
		<path id="Layer1_0_2_STROKES" style="fill:none;stroke:#696969;stroke-width:4;stroke-linecap:round;stroke-linejoin:round;" d="
			M9.6,47.8v15.1c0,1.7,0.9,2.6,2.6,2.6c8-0.5,16.1-0.5,24.1,0c1.7,0,2.6-0.9,2.6-2.6V47.8 M38.8,47v-9.8c0-1.7-0.9-2.6-2.6-2.6
			c-8,0.5-16.1,0.5-24.1,0c-1.7,0-2.6,0.9-2.6,2.6V47"/>
	</g>
</g>
<g id="Up" transform="matrix( 1, 0, 0, 1, 0,0) ">
	<g>
		<g id="Layer1_0_FILL_1_">
			<path style="fill:#353535;" d="M92.4,29c-11.1,0.5-22.2,0.5-33.3,0c-2.4,0-3.6,1.2-3.6,3.6v34.9c0,2.4,1.2,3.6,3.6,3.6
				c11.1-0.5,22.2-0.5,33.3,0c2.4,0,3.6-1.2,3.6-3.6V32.6C96,30.2,94.8,29,92.4,29 M61.1,47.8V47v-9.8c0-1.7,0.9-2.6,2.6-2.6
				c8,0.5,16.1,0.5,24.1,0c1.7,0,2.6,0.9,2.6,2.6V47v0.8v15.1c0,1.7-0.9,2.6-2.6,2.6c-8-0.5-16.1-0.5-24.1,0c-1.7,0-2.6-0.9-2.6-2.6
				V47.8z"/>
			<path style="fill:#595959;" d="M61.1,47v0.8v15.1c0,1.7,0.9,2.6,2.6,2.6c8-0.5,16.1-0.5,24.1,0c1.7,0,2.6-0.9,2.6-2.6V47.8V47
				v-9.8c0-1.7-0.9-2.6-2.6-2.6c-8,0.5-16.1,0.5-24.1,0c-1.7,0-2.6,0.9-2.6,2.6V47 M66.3,53.4v-6.9h9v-4l9.8,7.4l-9.8,7.4v-4
				L66.3,53.4L66.3,53.4z"/>
			<path style="fill:#CDCDCD;" d="M66.3,46.6v6.9h9v4l9.8-7.4l-9.8-7.4v4L66.3,46.6L66.3,46.6z"/>
		</g>
	</g>
	<g>
		
			<path id="Layer1_0_1_STROKES_1_" style="fill:none;stroke:#1D1D1D;stroke-width:5;stroke-linecap:round;stroke-linejoin:round;" d="
			M59.1,29c11.1,0.5,22.2,0.5,33.3,0c2.4,0,3.6,1.2,3.6,3.6v34.9c0,2.4-1.2,3.6-3.6,3.6c-11.1-0.5-22.2-0.5-33.3,0
			c-2.4,0-3.6-1.2-3.6-3.6V32.6C55.6,30.2,56.7,29,59.1,29z"/>
	</g>
	<g>
		
			<path id="Layer1_0_2_STROKES_1_" style="fill:none;stroke:#696969;stroke-width:4;stroke-linecap:round;stroke-linejoin:round;" d="
			M61.1,47.8v15.1c0,1.7,0.9,2.6,2.6,2.6c8-0.5,16.1-0.5,24.1,0c1.7,0,2.6-0.9,2.6-2.6V47.8 M90.4,47v-9.8c0-1.7-0.9-2.6-2.6-2.6
			c-8,0.5-16.1,0.5-24.1,0c-1.7,0-2.6,0.9-2.6,2.6V47"/>
	</g>
</g>
</svg>
