<?xml version="1.0" encoding="utf-8"?>
<!-- Generator: Adobe Illustrator 24.1.2, SVG Export Plug-In . SVG Version: 6.00 Build 0)  -->
<svg version="1.1" id="Layer_1" xmlns="http://www.w3.org/2000/svg" xmlns:xlink="http://www.w3.org/1999/xlink" x="0px" y="0px"
	 viewBox="0 0 100 100" style="enable-background:new 0 0 100 100;" xml:space="preserve">
<style type="text/css">
	.st0{fill:#353535;}
	.st1{fill:#595959;}
	.st2{fill:#CDCDCD;}
	.st3{fill:none;stroke:#1D1D1D;stroke-width:5;stroke-linecap:round;stroke-linejoin:round;}
	.st4{fill:none;stroke:#696969;stroke-width:4;stroke-linecap:round;stroke-linejoin:round;}
</style>
<g transform="matrix( 1, 0, 0, 1, 0,0) ">
	<g>
		<g id="Layer1_0_FILL_4_">
			<path class="st0" d="M63.8,45.5c-0.3-7.4-0.3-14.8,0-22.2c0-1.6-0.8-2.4-2.4-2.4H38.2c-1.6,0-2.4,0.8-2.4,2.4
				c0.3,7.4,0.3,14.8,0,22.2c0,1.6,0.8,2.4,2.4,2.4h23.2C63,47.8,63.8,47,63.8,45.5 M51.3,24.6h0.5h6.6c1.2,0,1.7,0.6,1.7,1.7
				c-0.3,5.4-0.3,10.7,0,16.1c0,1.1-0.6,1.7-1.7,1.7h-6.6h-0.5h-10c-1.2,0-1.7-0.6-1.7-1.7c0.3-5.4,0.3-10.7,0-16.1
				c0-1.2,0.6-1.7,1.7-1.7H51.3z"/>
			<path class="st1" d="M51.8,24.6h-0.5h-10c-1.2,0-1.7,0.6-1.7,1.7c0.3,5.4,0.3,10.7,0,16.1c0,1.1,0.6,1.7,1.7,1.7h10h0.5h6.6
				c1.2,0,1.7-0.6,1.7-1.7c-0.3-5.4-0.3-10.7,0-16.1c0-1.2-0.6-1.7-1.7-1.7H51.8 M52.1,40.6h-4.6v-6h-2.7l5-6.6l5,6.6h-2.7V40.6z"/>
			<path class="st2" d="M47.5,40.6h4.6v-6h2.7l-5-6.6l-5,6.6h2.7V40.6z"/>
		</g>
	</g>
	<g>
		<path id="Layer1_0_1_STROKES_4_" class="st3" d="M63.8,23.2c-0.3,7.4-0.3,14.8,0,22.2c0,1.6-0.8,2.4-2.4,2.4H38.2
			c-1.6,0-2.4-0.8-2.4-2.4c0.3-7.4,0.3-14.8,0-22.2c0-1.6,0.8-2.4,2.4-2.4h23.2C63,20.9,63.8,21.7,63.8,23.2z"/>
	</g>
	<g>
		<path id="Layer1_0_2_STROKES_4_" class="st4" d="M51.3,24.6h-10c-1.2,0-1.7,0.6-1.7,1.7c0.3,5.4,0.3,10.7,0,16.1
			c0,1.1,0.6,1.7,1.7,1.7h10 M51.8,44.1h6.6c1.2,0,1.7-0.6,1.7-1.7c-0.3-5.4-0.3-10.7,0-16.1c0-1.2-0.6-1.7-1.7-1.7h-6.6"/>
	</g>
</g>
<g transform="matrix( 1, 0, 0, 1, 0,0) ">
	<g>
		<g id="Layer1_0_FILL">
			<path class="st0" d="M64,77.1c-0.3-7.4-0.3-14.8,0-22.2c0-1.6-0.8-2.4-2.4-2.4H38.4c-1.6,0-2.4,0.8-2.4,2.4
				c0.3,7.4,0.3,14.8,0,22.2c0,1.6,0.8,2.4,2.4,2.4h23.2C63.2,79.5,64,78.7,64,77.1 M51.5,56.2H52h6.6c1.2,0,1.7,0.6,1.7,1.7
				C60,63.3,60,68.7,60.3,74c0,1.1-0.6,1.7-1.7,1.7H52h-0.5h-10c-1.2,0-1.7-0.6-1.7-1.7c0.3-5.4,0.3-10.7,0-16.1
				c0-1.2,0.6-1.7,1.7-1.7H51.5z"/>
			<path class="st1" d="M52,56.2h-0.5h-10c-1.2,0-1.7,0.6-1.7,1.7c0.3,5.4,0.3,10.7,0,16.1c0,1.1,0.6,1.7,1.7,1.7h10H52h6.6
				c1.2,0,1.7-0.6,1.7-1.7C60,68.7,60,63.3,60.3,58c0-1.2-0.6-1.7-1.7-1.7H52 M47.7,59.7h4.6v6H55l-5,6.6l-5-6.6h2.7V59.7z"/>
			<path class="st2" d="M52.3,59.7h-4.6v6H45l5,6.6l5-6.6h-2.7V59.7z"/>
		</g>
	</g>
	<g>
		<path id="Layer1_0_1_STROKES" class="st3" d="M64,54.9c-0.3,7.4-0.3,14.8,0,22.2c0,1.6-0.8,2.4-2.4,2.4H38.4
			c-1.6,0-2.4-0.8-2.4-2.4c0.3-7.4,0.3-14.8,0-22.2c0-1.6,0.8-2.4,2.4-2.4h23.2C63.2,52.5,64,53.3,64,54.9z"/>
	</g>
	<g>
		<path id="Layer1_0_2_STROKES" class="st4" d="M51.5,56.2h-10c-1.2,0-1.7,0.6-1.7,1.7c0.3,5.4,0.3,10.7,0,16.1
			c0,1.1,0.6,1.7,1.7,1.7h10 M52,75.7h6.6c1.2,0,1.7-0.6,1.7-1.7C60,68.7,60,63.3,60.3,58c0-1.2-0.6-1.7-1.7-1.7H52"/>
	</g>
</g>
<g transform="matrix( 1, 0, 0, 1, 0,0) ">
	<g>
		<g id="Layer1_0_FILL_1_">
			<path class="st0" d="M31,77.1c-0.3-7.4-0.3-14.8,0-22.2c0-1.6-0.8-2.4-2.4-2.4H5.4c-1.6,0-2.4,0.8-2.4,2.4
				c0.3,7.4,0.3,14.8,0,22.2c0,1.6,0.8,2.4,2.4,2.4h23.2C30.2,79.5,31,78.7,31,77.1 M18.5,56.2H19h6.6c1.2,0,1.7,0.6,1.7,1.7
				C27,63.3,27,68.7,27.3,74c0,1.1-0.6,1.7-1.7,1.7H19h-0.5h-10c-1.2,0-1.7-0.6-1.7-1.7C7,68.7,7,63.3,6.7,58c0-1.2,0.6-1.7,1.7-1.7
				H18.5z"/>
			<path class="st1" d="M19,56.2h-0.5h-10c-1.2,0-1.7,0.6-1.7,1.7C7,63.3,7,68.7,6.7,74c0,1.1,0.6,1.7,1.7,1.7h10H19h6.6
				c1.2,0,1.7-0.6,1.7-1.7C27,68.7,27,63.3,27.3,58c0-1.2-0.6-1.7-1.7-1.7H19 M17,63.7h6v4.6h-6v2.7l-6.6-5l6.6-5V63.7z"/>
			<path class="st2" d="M23,63.7h-6V61l-6.6,5l6.6,5v-2.7h6V63.7z"/>
		</g>
	</g>
	<g>
		<path id="Layer1_0_1_STROKES_1_" class="st3" d="M31,54.9c-0.3,7.4-0.3,14.8,0,22.2c0,1.6-0.8,2.4-2.4,2.4H5.4
			c-1.6,0-2.4-0.8-2.4-2.4c0.3-7.4,0.3-14.8,0-22.2c0-1.6,0.8-2.4,2.4-2.4h23.2C30.2,52.5,31,53.3,31,54.9z"/>
	</g>
	<g>
		<path id="Layer1_0_2_STROKES_1_" class="st4" d="M18.5,56.2h-10c-1.2,0-1.7,0.6-1.7,1.7C7,63.3,7,68.7,6.7,74
			c0,1.1,0.6,1.7,1.7,1.7h10 M19,75.7h6.6c1.2,0,1.7-0.6,1.7-1.7C27,68.7,27,63.3,27.3,58c0-1.2-0.6-1.7-1.7-1.7H19"/>
	</g>
</g>
<g transform="matrix( 1, 0, 0, 1, 0,0) ">
	<g>
		<g id="Layer1_0_FILL_2_">
			<path class="st0" d="M97,77.1c-0.3-7.4-0.3-14.8,0-22.2c0-1.6-0.8-2.4-2.4-2.4H71.4c-1.6,0-2.4,0.8-2.4,2.4
				c0.3,7.4,0.3,14.8,0,22.2c0,1.6,0.8,2.4,2.4,2.4h23.2C96.2,79.5,97,78.7,97,77.1 M84.5,56.2H85h6.6c1.2,0,1.7,0.6,1.7,1.7
				C93,63.3,93,68.7,93.3,74c0,1.1-0.6,1.7-1.7,1.7H85h-0.5h-10c-1.2,0-1.7-0.6-1.7-1.7c0.3-5.4,0.3-10.7,0-16.1
				c0-1.2,0.6-1.7,1.7-1.7H84.5z"/>
			<path class="st1" d="M85,56.2h-0.5h-10c-1.2,0-1.7,0.6-1.7,1.7c0.3,5.4,0.3,10.7,0,16.1c0,1.1,0.6,1.7,1.7,1.7h10H85h6.6
				c1.2,0,1.7-0.6,1.7-1.7C93,68.7,93,63.3,93.3,58c0-1.2-0.6-1.7-1.7-1.7H85 M83.4,63.7V61l6.6,5l-6.6,5v-2.7h-6v-4.6H83.4z"/>
			<path class="st2" d="M83.4,61v2.7h-6v4.6h6v2.7l6.6-5L83.4,61z"/>
		</g>
	</g>
	<g>
		<path id="Layer1_0_1_STROKES_2_" class="st3" d="M97,54.9c-0.3,7.4-0.3,14.8,0,22.2c0,1.6-0.8,2.4-2.4,2.4H71.4
			c-1.6,0-2.4-0.8-2.4-2.4c0.3-7.4,0.3-14.8,0-22.2c0-1.6,0.8-2.4,2.4-2.4h23.2C96.2,52.5,97,53.3,97,54.9z"/>
	</g>
	<g>
		<path id="Layer1_0_2_STROKES_2_" class="st4" d="M84.5,56.2h-10c-1.2,0-1.7,0.6-1.7,1.7c0.3,5.4,0.3,10.7,0,16.1
			c0,1.1,0.6,1.7,1.7,1.7h10 M85,75.7h6.6c1.2,0,1.7-0.6,1.7-1.7C93,68.7,93,63.3,93.3,58c0-1.2-0.6-1.7-1.7-1.7H85"/>
	</g>
</g>
</svg>
