
<svg xmlns="http://www.w3.org/2000/svg" version="1.1" xmlns:xlink="http://www.w3.org/1999/xlink" x="0px" y="0px" viewBox="0 0 100 100">
<defs>
<g id="Layer1_0_FILL">
<path fill="#313131" stroke="none" d="
M 75.25 24.7
Q 64.85 14.3 50 14.3 35.2 14.3 24.75 24.7 14.3 35.15 14.3 50 14.3 64.8 24.75 75.25 35.2 85.7 50 85.7 64.85 85.7 75.25 75.25 85.7 64.8 85.7 50 85.7 35.15 75.25 24.7
M 50 22.8
Q 61.3 22.8 69.25 30.75 77.2 38.7 77.2 50 77.2 61.3 69.25 69.25 61.3 77.2 50 77.2 38.75 77.2 30.75 69.25 22.8 61.3 22.8 50 22.8 38.7 30.75 30.75 38.75 22.8 50 22.8 Z"/>

<path fill="#4F4F4F" stroke="none" d="
M 69.25 30.75
Q 61.3 22.8 50 22.8 38.75 22.8 30.75 30.75 22.8 38.7 22.8 50 22.8 61.3 30.75 69.25 38.75 77.2 50 77.2 61.3 77.2 69.25 69.25 77.2 61.3 77.2 50 77.2 38.7 69.25 30.75
M 56.35 38.25
L 56.35 48.4
Q 56.35 51 54.55 52.8 52.65 54.7 50.05 54.7 49.25 54.7 48.55 54.6 46.9 54.1 45.6 52.8 44.9 52.1 44.4 51.3 43.7 50 43.7 48.4
L 43.7 38.25
Q 43.7 35.65 45.6 33.75 47.5 31.95 50.05 31.95 52.65 31.95 54.45 33.75 56.35 35.65 56.35 38.25
M 40.65 47.1
Q 41.25 47.7 41.25 48.5 41.25 49.7 41.55 50.7
L 41.55 50.8 41.65 50.9
Q 42.05 53 43.85 54.8 44.15 55.1 44.45 55.3
L 44.55 55.3 44.55 55.4
Q 46.85 57.35 50.1 57.35
L 50.2 57.35
Q 53.7 57.35 56.2 54.8 58.8 52.2 58.8 48.5 58.8 47.7 59.4 47.1 60 46.5 60.8 46.5 61.6 46.5 62.2 47.1 62.8 47.7 62.8 48.5 62.8 53.8 59 57.55
L 59.1 57.55
Q 56.1 60.65 52.1 61.25
L 52.1 62.95 56.3 62.95
Q 57.1 62.95 57.7 63.55 58.3 64.15 58.3 64.95 58.3 65.75 57.7 66.35 57.1 66.95 56.3 66.95
L 43.85 66.95
Q 43.05 66.95 42.45 66.35 41.85 65.75 41.85 64.95 41.85 64.15 42.45 63.55 43.05 62.95 43.85 62.95
L 48.15 62.95 48.15 61.25
Q 44.75 60.65 42.05 58.45 41.55 58.05 41.05 57.55 38.45 55 37.75 51.8 37.25 50.2 37.25 48.5 37.25 47.7 37.85 47.1 38.45 46.5 39.25 46.5 40.05 46.5 40.65 47.1 Z"/>

<path fill="#999999" stroke="none" d="
M 41.25 48.5
Q 41.25 47.7 40.65 47.1 40.05 46.5 39.25 46.5 38.45 46.5 37.85 47.1 37.25 47.7 37.25 48.5 37.25 50.2 37.75 51.8 38.45 55 41.05 57.55 41.55 58.05 42.05 58.45 44.75 60.65 48.15 61.25
L 48.15 62.95 43.85 62.95
Q 43.05 62.95 42.45 63.55 41.85 64.15 41.85 64.95 41.85 65.75 42.45 66.35 43.05 66.95 43.85 66.95
L 56.3 66.95
Q 57.1 66.95 57.7 66.35 58.3 65.75 58.3 64.95 58.3 64.15 57.7 63.55 57.1 62.95 56.3 62.95
L 52.1 62.95 52.1 61.25
Q 56.1 60.65 59.1 57.55
L 59 57.55
Q 62.8 53.8 62.8 48.5 62.8 47.7 62.2 47.1 61.6 46.5 60.8 46.5 60 46.5 59.4 47.1 58.8 47.7 58.8 48.5 58.8 52.2 56.2 54.8 53.7 57.35 50.2 57.35
L 50.1 57.35
Q 46.85 57.35 44.55 55.4
L 44.55 55.3 44.45 55.3
Q 44.15 55.1 43.85 54.8 42.05 53 41.65 50.9
L 41.55 50.8 41.55 50.7
Q 41.25 49.7 41.25 48.5
M 56.35 48.4
L 56.35 38.25
Q 56.35 35.65 54.45 33.75 52.65 31.95 50.05 31.95 47.5 31.95 45.6 33.75 43.7 35.65 43.7 38.25
L 43.7 48.4
Q 43.7 50 44.4 51.3 44.9 52.1 45.6 52.8 46.9 54.1 48.55 54.6 49.25 54.7 50.05 54.7 52.65 54.7 54.55 52.8 56.35 51 56.35 48.4 Z"/>
</g>

<path id="Layer1_0_1_STROKES" stroke="#1B1B1B" stroke-width="5" stroke-linejoin="round" stroke-linecap="round" fill="none" d="
M 50 14.3
Q 64.85 14.3 75.25 24.7 85.7 35.15 85.7 50 85.7 64.8 75.25 75.25 64.85 85.7 50 85.7 35.2 85.7 24.75 75.25 14.3 64.8 14.3 50 14.3 35.15 24.75 24.7 35.2 14.3 50 14.3 Z"/>

<path id="Layer1_0_2_STROKES" stroke="#626262" stroke-width="4" stroke-linejoin="round" stroke-linecap="round" fill="none" d="
M 50 22.8
Q 61.3 22.8 69.25 30.75 77.2 38.7 77.2 50 77.2 61.3 69.25 69.25 61.3 77.2 50 77.2 38.75 77.2 30.75 69.25 22.8 61.3 22.8 50 22.8 38.7 30.75 30.75 38.75 22.8 50 22.8 Z"/>

</defs>

<g transform="matrix( 1, 0, 0, 1, 0,0) ">
<use xlink:href="#Layer1_0_FILL"/>

<use xlink:href="#Layer1_0_1_STROKES"/>

<use xlink:href="#Layer1_0_2_STROKES"/>
</g>

<g transform="matrix( 1, 0, 0, 1, -3.4,-28) ">
<clipPath id="Mask_Mask_1">
<rect x="34.6" y="-2" width="37.6" height="20.8" fill="#FFFFFF" stroke="none"/>
</clipPath>

<text clip-path="url(#Mask_Mask_1)" writing-mode="lr"><tspan x="36.7" y="13.6" baseline-shift="0%" kerning="auto" font-family="Arial_Regular" font-size="15" fill="#999999" xml:space="preserve">Luna</tspan></text>
</g>
</svg>
