
<svg xmlns="http://www.w3.org/2000/svg" version="1.1" xmlns:xlink="http://www.w3.org/1999/xlink" x="0px" y="0px" viewBox="0 0 100 100">
<defs>
<linearGradient id="Gradient_1" gradientUnits="userSpaceOnUse" x1="49.837500000000006" y1="56.55" x2="50.0625" y2="14.249999999999996" spreadMethod="pad">
<stop  offset="10.196078431372548%" stop-color="#4F4F4F"/>

<stop  offset="100%" stop-color="#626262"/>
</linearGradient>

<g id="Layer1_0_FILL">
<path fill="#313131" stroke="none" d="
M 77.1 32.2
L 77.1 32.1
Q 76.85 21.15 69.1 13.45 61.25 5.55 50 5.55 38.95 5.55 31.05 13.25 30.9 13.35 30.8 13.45 23.1 21.15 22.9 32.1
L 22.9 32.2
Q 22.9 44.2 22.9 56.3 22.9 57.8296875 22.9 59.25 22.9 64.5626953125 22.9 68.35 23 79.4 30.8 87.25 38.8 95.15 50 95.15 61.25 95.15 69.1 87.25 76.9 79.4 77.1 68.35 77.1 64.5626953125 77.1 59.25 77.1 57.8296875 77.1 56.3 77.1 44.2 77.1 32.2
M 64.35 17.3
Q 64.5517578125 17.4548828125 64.7 17.6
L 64.75 17.65
Q 70.5541015625 23.491015625 70.8 31.75
L 70.8 31.85
Q 70.8013671875 31.900390625 70.8 31.95
L 70.8 32
Q 70.8 32.7998046875 70.8 33.55
L 70.8 54.1
Q 70.8 54.98671875 70.8 55.8 70.8 57.6154296875 70.8 59.25 70.8 62.4291015625 70.8 64.9
L 70.8 65
Q 70.8017578125 65.07421875 70.8 65.15
L 70.8 65.2
Q 70.764453125 66.8052734375 70.8 68.3 70.4 76.35 64.7 82.15
L 64.7 82.2
Q 58.65 88.2 50 88.2 41.5 88.2 35.45 82.4 35.35 82.3 35.25 82.2 35.05 82 34.95 81.8 29.5 76.1 29.15 68.3 29.1935546875 66.9236328125 29.15 65.45
L 29.15 65.4
Q 29.1474609375 65.2986328125 29.15 65.2 29.1494140625 65.1263671875 29.15 65.05
L 29.15 64.95
Q 29.15 62.420703125 29.15 59.25 29.15 57.6078125 29.15 55.8 29.15 54.98671875 29.15 54.1
L 29.15 33.6
Q 29.15 32.76328125 29.15 31.95
L 29.15 31.9
Q 29.321875 23.5265625 35.2 17.65
L 35.2 17.65
Q 35.246484375 17.610546875 35.25 17.55
L 35.35 17.5
Q 35.3947265625 17.45546875 35.45 17.4 41.5365234375 11.5455078125 50 11.55 58.412109375 11.555859375 64.35 17.3 Z"/>

<path fill="#4F4F4F" stroke="none" d="
M 58.6 46.75
Q 58.95 45.5 59.3 44.2 59.35 44 59.35 43.75 59.35 43.5 59.25 43.3 59.25 43.2 59.15 43.1 58.95 42.85 58.6 42.85 58.25 42.85 57.95 43.15 57.7 43.35 57.45 43.6 56.7 44.4 55.95 45.15
L 41.2 60.4
Q 40.2 61.5 39.15 62.6 38.7 63.1 38.2 63.6 37.95 63.9 37.6 64.15 37.45 64.25 37.25 64.4 36.65 64.75 35.95 64.85 35.7 64.85 35.45 64.85 34.25 64.85 33.25 64.1 32.45 63.5 32.1 62.55 31.7 61.6 31.9 60.55 32.05 59.9 32.45 59.35 32.485546875 59.296875 32.5 59.25
L 29.15 59.25
Q 29.15 62.420703125 29.15 64.95
L 29.15 65.05
Q 29.1494140625 65.1263671875 29.15 65.2 29.1474609375 65.2986328125 29.15 65.4
L 29.15 65.45
Q 29.1935546875 66.9236328125 29.15 68.3 29.5 76.1 34.95 81.8 35.05 82 35.25 82.2 35.35 82.3 35.45 82.4 41.5 88.2 50 88.2 58.65 88.2 64.7 82.2
L 64.7 82.15
Q 70.4 76.35 70.8 68.3 70.764453125 66.8052734375 70.8 65.2
L 70.8 65.15
Q 70.8017578125 65.07421875 70.8 65
L 70.8 64.9
Q 70.8 62.4291015625 70.8 59.25
L 66.8 59.25
Q 66.8 59.0353515625 66.8 58.8
L 62.05 60.9
Q 61.05 61.5 59.95 62 59.5 62.15 59 62.3 58.7 62.35 58.45 62.4
L 58.4 62.4
Q 58.05 62.4 57.75 62.3 57.35 62.25 56.95 62 56.8 61.95 56.7 61.85 56.1 61.4 55.75 60.75 55.3 59.95 55.35 58.95 55.4 58.75 55.45 58.6
L 58.6 46.75
M 62.1 20.7
Q 61.9591796875 20.606640625 61.8 20.45 61.7330078125 20.3814453125 61.65 20.25 56.84140625 15.544140625 50 15.55 43.4427734375 15.554296875 38.65 19.9 38.494921875 20.0658203125 38.35 20.2 38.2943359375 20.25703125 38.25 20.3
L 38.4 19.9 36.8 20.9
Q 37.2548828125 20.9 37.6 20.8
L 38.05 20.45
Q 37.94453125 20.5796875 37.8 20.7 37.805859375 20.7189453125 37.75 20.75 33.273828125 25.402734375 33.15 32 33.15 32.7896484375 33.15 33.6
L 33.15 54.1
Q 33.15 54.98671875 33.15 55.8 33.15 57.2673828125 33.15 58.6 33.3447265625 58.432421875 33.55 58.25 34.5 57.4 35.5 56.55
L 60 36.4
Q 60.2 36.2 60.35 36.1 60.7 35.95 61 35.8 61.35 35.75 61.75 35.7 61.85 35.7 62 35.7 62.75 35.75 63.35 36.25 63.4 36.35 63.5 36.45 63.95 36.85 64.15 37.4 64.35 38.2 64.15 39 63.9 39.95 63.65 40.95 63.4 41.95 63.15 42.9
L 59.55 57.55 59.7 57
Q 59.75 57.2 59.85 57.45 59.9 57.55 60 57.65 60.05 57.7 60.2 57.75 60.3 57.85 60.4 57.85
L 66.8 56.05
Q 66.8 55.926953125 66.8 55.8 66.8 54.98671875 66.8 54.1
L 66.8 33.55
Q 66.8 32.7994140625 66.8 32
L 66.8 31.9
Q 66.60546875 25.3580078125 62.1 20.7 Z"/>

<path fill="#999999" stroke="none" d="
M 60.35 36.1
Q 60.2 36.2 60 36.4
L 35.5 56.55
Q 34.5 57.4 33.55 58.25 33.3447265625 58.432421875 33.15 58.6 32.917578125 58.8552734375 32.7 59.1 32.603125 59.164453125 32.5 59.25 32.485546875 59.296875 32.45 59.35 32.05 59.9 31.9 60.55 31.7 61.6 32.1 62.55 32.45 63.5 33.25 64.1 34.25 64.85 35.45 64.85 35.7 64.85 35.95 64.85 36.65 64.75 37.25 64.4 37.45 64.25 37.6 64.15 37.95 63.9 38.2 63.6 38.7 63.1 39.15 62.6 40.2 61.5 41.2 60.4
L 55.95 45.15
Q 56.7 44.4 57.45 43.6 57.7 43.35 57.95 43.15 58.25 42.85 58.6 42.85 58.95 42.85 59.15 43.1 59.25 43.2 59.25 43.3 59.35 43.5 59.35 43.75 59.35 44 59.3 44.2 58.95 45.5 58.6 46.75
L 55.45 58.6
Q 55.4 58.75 55.35 58.95 55.3 59.95 55.75 60.75 56.1 61.4 56.7 61.85 56.8 61.95 56.95 62 57.35 62.25 57.75 62.3 58.05 62.4 58.4 62.4
L 58.45 62.4
Q 58.7 62.35 59 62.3 59.5 62.15 59.95 62 61.05 61.5 62.05 60.9
L 66.8 58.8 68.55 58.05
Q 68.8 57.95 68.95 57.8 69.05 57.7 69.1 57.6 69.3 57.3 69.3 56.95 69.3 56.6 69.1 56.3 69.05 56.2 68.95 56.1 68.8 55.95 68.6 55.85 68.35 55.8 68.15 55.75 67.9 55.75 67.7 55.8
L 66.8 56.05 60.4 57.85
Q 60.3 57.85 60.2 57.75 60.05 57.7 60 57.65 59.9 57.55 59.85 57.45 59.75 57.2 59.7 57
L 59.55 57.55 63.15 42.9
Q 63.4 41.95 63.65 40.95 63.9 39.95 64.15 39 64.35 38.2 64.15 37.4 63.95 36.85 63.5 36.45 63.4 36.35 63.35 36.25 62.75 35.75 62 35.7 61.85 35.7 61.75 35.7 61.35 35.75 61 35.8 60.7 35.95 60.35 36.1 Z"/>

<path fill="url(#Gradient_1)" stroke="none" d="
M 64.7 17.6
Q 64.5517578125 17.4548828125 64.35 17.3 58.412109375 11.555859375 50 11.55 41.5365234375 11.5455078125 35.45 17.4 35.3947265625 17.45546875 35.35 17.5
L 35.25 17.55
Q 35.246484375 17.610546875 35.2 17.65
L 35.2 17.65
Q 29.321875 23.5265625 29.15 31.9
L 29.15 31.95
Q 29.15 32.76328125 29.15 33.6
L 29.15 54.1
Q 29.15 54.98671875 29.15 55.8 29.15 57.6078125 29.15 59.25
L 32.5 59.25
Q 32.603125 59.164453125 32.7 59.1 32.917578125 58.8552734375 33.15 58.6 33.15 57.2673828125 33.15 55.8 33.15 54.98671875 33.15 54.1
L 33.15 33.6
Q 33.15 32.7896484375 33.15 32 33.273828125 25.402734375 37.75 20.75 37.805859375 20.7189453125 37.8 20.7 37.94453125 20.5796875 38.05 20.45
L 37.6 20.8
Q 37.2548828125 20.9 36.8 20.9
L 38.4 19.9 38.25 20.3
Q 38.2943359375 20.25703125 38.35 20.2 38.494921875 20.0658203125 38.65 19.9 43.4427734375 15.554296875 50 15.55 56.84140625 15.544140625 61.65 20.25 61.7330078125 20.3814453125 61.8 20.45 61.9591796875 20.606640625 62.1 20.7 66.60546875 25.3580078125 66.8 31.9
L 66.8 32
Q 66.8 32.7994140625 66.8 33.55
L 66.8 54.1
Q 66.8 54.98671875 66.8 55.8 66.8 55.926953125 66.8 56.05
L 67.7 55.8
Q 67.9 55.75 68.15 55.75 68.35 55.8 68.6 55.85 68.8 55.95 68.95 56.1 69.05 56.2 69.1 56.3 69.3 56.6 69.3 56.95 69.3 57.3 69.1 57.6 69.05 57.7 68.95 57.8 68.8 57.95 68.55 58.05
L 66.8 58.8
Q 66.8 59.0353515625 66.8 59.25
L 70.8 59.25
Q 70.8 57.6154296875 70.8 55.8 70.8 54.98671875 70.8 54.1
L 70.8 33.55
Q 70.8 32.7998046875 70.8 32
L 70.8 31.95
Q 70.8013671875 31.900390625 70.8 31.85
L 70.8 31.75
Q 70.5541015625 23.491015625 64.75 17.65
L 64.7 17.6 Z"/>
</g>

<path id="Layer1_0_1_STROKES" stroke="#1B1B1B" stroke-width="5" stroke-linejoin="round" stroke-linecap="round" fill="none" d="
M 77.1 32.2
L 77.1 32.1
Q 76.85 21.15 69.1 13.45 61.25 5.55 50 5.55 38.95 5.55 31.05 13.25 30.9 13.35 30.8 13.45 23.1 21.15 22.9 32.1
L 22.9 32.2
Q 22.9 44.2 22.9 56.3 22.9 57.8296875 22.9 59.25 22.9 64.5626953125 22.9 68.35 23 79.4 30.8 87.25 38.8 95.15 50 95.15 61.25 95.15 69.1 87.25 76.9 79.4 77.1 68.35 77.1 64.5626953125 77.1 59.25 77.1 57.8296875 77.1 56.3 77.1 44.2 77.1 32.2 Z"/>

</defs>

<g transform="matrix( 1, 0, 0, 1, 0,0) ">
<use xlink:href="#Layer1_0_FILL"/>

<use xlink:href="#Layer1_0_1_STROKES"/>
</g>

<g transform="matrix( 1, 0, 0, 1, -3.4,-28) ">
<clipPath id="Mask_Mask_1">
<rect x="20.9" y="-2" width="65" height="20.8" fill="#FFFFFF" stroke="none"/>
</clipPath>

<text clip-path="url(#Mask_Mask_1)" writing-mode="lr"><tspan x="22.95" y="13.6" baseline-shift="0%" kerning="auto" font-family="Arial_Regular" font-size="15" fill="#999999" xml:space="preserve">PS Move</tspan></text>
</g>
</svg>
