
<svg xmlns="http://www.w3.org/2000/svg" version="1.1" xmlns:xlink="http://www.w3.org/1999/xlink" x="0px" y="0px" viewBox="0 0 100 100">
<defs>
<g id="Layer1_0_FILL">
<path fill="#FFFFFF" stroke="none" d="
M 48.55 12.55
Q 45.6 10.7 41.45 10.45 41.15 10.4 40.75 10.4 34.75 10.2 30.35 14.4 27.75 16.8 26.6 19.7 24.9 24.15 27.15 30.5
L 33.25 43.6
Q 40.9 60.55 46.85 78.4
L 49.7 86.5
Q 51.3 89.85 55 91.3 58.7 92.7 63.3 91.4 63.65 91.3 64.1 91.15 64.5 91.05 64.95 90.85 69.35 89.25 71.45 85.85 73.4 82.5 72.6 79
L 69.7 70.8
Q 63.05 53.15 58.45 35.25
L 54.9 21.3
Q 52.7 15.05 48.55 12.55
M 45.5 14.75
Q 49.65 16.7 51.2 21.05 52.75 25.4 50.75 29.55 48.7 33.75 44.4 35.25 40 36.8 35.8 34.8 31.65 32.85 30.1 28.5 28.55 24.15 30.55 20 32.55 15.85 36.95 14.3 41.25 12.8 45.5 14.75
M 46.35 21.05
Q 45.4 18.45 42.9 17.45 40.5 16.2 37.9 17.15 35.25 18.05 34.15 20.55 32.85 22.9 33.8 25.5 34.7 28.05 37.25 29.25 39.65 30.4 42.3 29.5 44.9 28.55 46 26.15 47.25 23.6 46.35 21.05 Z"/>
</g>

</defs>

<g transform="matrix( 1, 0, 0, 1, 0,0) ">
<use xlink:href="#Layer1_0_FILL"/>
</g>

<g transform="matrix( 1, 0, 0, 1, -3.4,-28) ">
<clipPath id="Mask_Mask_1">
<rect x="20.9" y="-2" width="65" height="20.8" fill="#FFFFFF" stroke="none"/>
</clipPath>

<text clip-path="url(#Mask_Mask_1)" writing-mode="lr"><tspan x="22.95" y="13.6" baseline-shift="0%" kerning="auto" font-family="Arial_Regular" font-size="15" fill="#999999" xml:space="preserve">PS Move</tspan></text>
</g>
</svg>
