
<svg xmlns="http://www.w3.org/2000/svg" version="1.1" xmlns:xlink="http://www.w3.org/1999/xlink" x="0px" y="0px" viewBox="0 0 100 100">
<defs>
<g id="Layer1_0_FILL">
<path fill="#313131" stroke="none" d="
M 93.9 50.75
L 93.9 50.1
Q 93.9 39.5 86.4 32.05 78.95 24.55 68.3 24.55
L 31.65 24.55
Q 21.05 24.55 13.6 32.05 6.1 39.5 6.1 50.1
L 6.1 50.75 6.15 50.75
Q 6.45 60.8 13.6 67.95 21.05 75.45 31.65 75.45
L 68.3 75.45
Q 76.55 75.45 83 70.85 84.8 69.6 86.4 67.95 93.55 60.8 93.9 50.75
M 86 50.15
L 86 50.9
Q 85.65 57.55 81.3 62.25 76.6 67.35 69.9 67.35
L 30.1 67.35
Q 23.45 67.35 18.75 62.25 14.4 57.55 14.1 50.9
L 14 50.9 14 50.15
Q 14 42.9 18.75 37.8 23.45 32.7 30.1 32.7
L 69.9 32.7
Q 76.6 32.7 81.3 37.8 86 42.9 86 50.15 Z"/>

<path fill="#4F4F4F" stroke="none" d="
M 86 50.9
L 86 50.15
Q 86 42.9 81.3 37.8 76.6 32.7 69.9 32.7
L 30.1 32.7
Q 23.45 32.7 18.75 37.8 14 42.9 14 50.15
L 14 50.9 14.1 50.9
Q 14.4 57.55 18.75 62.25 23.45 67.35 30.1 67.35
L 69.9 67.35
Q 76.6 67.35 81.3 62.25 85.65 57.55 86 50.9
M 47.3 43.85
L 49.8 43.85 55.7 57.5 52.35 57.5 51.1 54.6 45.8 54.6 44.65 57.5 41.4 57.5 47.3 43.85
M 43 43.85
L 43 46.5 39.1 46.5 39.1 57.5 36.1 57.5 36.1 46.5 32.2 46.5 32.2 43.85 43 43.85
M 62.4 43.85
Q 63.45 43.85 64.4 44.05 65.35 44.25 66.05 44.7 66.75 45.15 67.2 45.95 67.55 46.8 67.55 47.95 67.55 49.45 66.85 50.45 66.05 51.5 64.65 51.75
L 68.1 57.5 64.5 57.5 61.6 52.05 60.15 52.05 60.15 57.5 57.15 57.5 57.15 43.85 62.4 43.85
M 68 46.5
L 68 43.85 78.85 43.85 78.85 46.5 74.95 46.5 74.95 57.5 71.95 57.5 71.95 46.5 68 46.5
M 22.2 45.95
Q 22.6 45.15 23.4 44.6 24.1 44.05 25 43.75 26 43.45 27 43.45 28.15 43.45 29.25 43.85 30.3 44.15 31.25 44.9
L 29.15 47.15
Q 28.8 46.7 28.1 46.5 27.5 46.3 26.95 46.3 26.6 46.3 26.3 46.35 25.95 46.45 25.6 46.6 25.3 46.75 25.1 47.05 24.9 47.3 24.9 47.7 24.9 48.25 25.35 48.6 25.85 49 26.55 49.2 27.25 49.45 28.05 49.65 28.9 49.85 29.6 50.3 30.25 50.7 30.75 51.45 31.25 52.2 31.25 53.35 31.25 54.5 30.75 55.35 30.35 56.2 29.65 56.75 28.95 57.35 27.95 57.6 27 57.85 26 57.85 24.6 57.85 23.5 57.5 22.3 57.05 21.35 56.15
L 23.5 53.85
Q 23.95 54.4 24.65 54.75 25.35 55.1 26.15 55.1 26.5 55.1 26.9 55 27.25 54.95 27.55 54.75 27.85 54.6 28 54.3 28.2 54 28.2 53.65 28.2 53 27.7 52.7 27.25 52.3 26.55 52.05 25.85 51.85 25 51.6 24.2 51.35 23.45 50.9 22.75 50.45 22.25 49.8 21.8 49.05 21.8 47.9 21.8 46.8 22.2 45.95
M 64.25 47.1
Q 64 46.8 63.65 46.65 63.35 46.5 62.95 46.45 62.55 46.4 62.1 46.4
L 60.15 46.4 60.15 49.5 61.95 49.5
Q 62.3 49.5 62.75 49.5 63.2 49.45 63.55 49.3 64 49.15 64.2 48.85 64.45 48.5 64.45 47.95 64.45 47.45 64.25 47.1
M 46.75 52.05
L 50.1 52.05 48.45 47.8 46.75 52.05 Z"/>

<path fill="#999999" stroke="none" d="
M 23.4 44.6
Q 22.6 45.15 22.2 45.95 21.8 46.8 21.8 47.9 21.8 49.05 22.25 49.8 22.75 50.45 23.45 50.9 24.2 51.35 25 51.6 25.85 51.85 26.55 52.05 27.25 52.3 27.7 52.7 28.2 53 28.2 53.65 28.2 54 28 54.3 27.85 54.6 27.55 54.75 27.25 54.95 26.9 55 26.5 55.1 26.15 55.1 25.35 55.1 24.65 54.75 23.95 54.4 23.5 53.85
L 21.35 56.15
Q 22.3 57.05 23.5 57.5 24.6 57.85 26 57.85 27 57.85 27.95 57.6 28.95 57.35 29.65 56.75 30.35 56.2 30.75 55.35 31.25 54.5 31.25 53.35 31.25 52.2 30.75 51.45 30.25 50.7 29.6 50.3 28.9 49.85 28.05 49.65 27.25 49.45 26.55 49.2 25.85 49 25.35 48.6 24.9 48.25 24.9 47.7 24.9 47.3 25.1 47.05 25.3 46.75 25.6 46.6 25.95 46.45 26.3 46.35 26.6 46.3 26.95 46.3 27.5 46.3 28.1 46.5 28.8 46.7 29.15 47.15
L 31.25 44.9
Q 30.3 44.15 29.25 43.85 28.15 43.45 27 43.45 26 43.45 25 43.75 24.1 44.05 23.4 44.6
M 68 43.85
L 68 46.5 71.95 46.5 71.95 57.5 74.95 57.5 74.95 46.5 78.85 46.5 78.85 43.85 68 43.85
M 64.4 44.05
Q 63.45 43.85 62.4 43.85
L 57.15 43.85 57.15 57.5 60.15 57.5 60.15 52.05 61.6 52.05 64.5 57.5 68.1 57.5 64.65 51.75
Q 66.05 51.5 66.85 50.45 67.55 49.45 67.55 47.95 67.55 46.8 67.2 45.95 66.75 45.15 66.05 44.7 65.35 44.25 64.4 44.05
M 63.65 46.65
Q 64 46.8 64.25 47.1 64.45 47.45 64.45 47.95 64.45 48.5 64.2 48.85 64 49.15 63.55 49.3 63.2 49.45 62.75 49.5 62.3 49.5 61.95 49.5
L 60.15 49.5 60.15 46.4 62.1 46.4
Q 62.55 46.4 62.95 46.45 63.35 46.5 63.65 46.65
M 43 46.5
L 43 43.85 32.2 43.85 32.2 46.5 36.1 46.5 36.1 57.5 39.1 57.5 39.1 46.5 43 46.5
M 49.8 43.85
L 47.3 43.85 41.4 57.5 44.65 57.5 45.8 54.6 51.1 54.6 52.35 57.5 55.7 57.5 49.8 43.85
M 50.1 52.05
L 46.75 52.05 48.45 47.8 50.1 52.05 Z"/>
</g>

<path id="Layer1_0_1_STROKES" stroke="#202020" stroke-width="4" stroke-linejoin="round" stroke-linecap="round" fill="none" d="
M 6.1 50.75
L 6.1 50.1
Q 6.1 39.5 13.6 32.05 21.05 24.55 31.65 24.55
L 68.3 24.55
Q 78.95 24.55 86.4 32.05 93.9 39.5 93.9 50.1
L 93.9 50.75
Q 93.55 60.8 86.4 67.95 84.8 69.6 83 70.85 76.55 75.45 68.3 75.45
L 31.65 75.45
Q 21.05 75.45 13.6 67.95 6.45 60.8 6.15 50.75"/>

<path id="Layer1_0_2_STROKES" stroke="#626262" stroke-width="4" stroke-linejoin="round" stroke-linecap="round" fill="none" d="
M 14 50.9
L 14 50.15
Q 14 42.9 18.75 37.8 23.45 32.7 30.1 32.7
L 69.9 32.7
Q 76.6 32.7 81.3 37.8 86 42.9 86 50.15
L 86 50.9
Q 85.65 57.55 81.3 62.25 76.6 67.35 69.9 67.35
L 30.1 67.35
Q 23.45 67.35 18.75 62.25 14.4 57.55 14.1 50.9"/>

</defs>

<g transform="matrix( 1, 0, 0, 1, 0,0) ">
<use xlink:href="#Layer1_0_FILL"/>

<use xlink:href="#Layer1_0_1_STROKES"/>

<use xlink:href="#Layer1_0_2_STROKES"/>
</g>

<g transform="matrix( 1, 0, 0, 1, -3.4,-28) ">
<clipPath id="Mask_Mask_1">
<rect x="20.9" y="-2" width="65" height="20.8" fill="#FFFFFF" stroke="none"/>
</clipPath>

<text clip-path="url(#Mask_Mask_1)" writing-mode="lr"><tspan x="22.95" y="13.6" baseline-shift="0%" kerning="auto" font-family="Arial_Regular" font-size="15" fill="#999999" xml:space="preserve">PS Move</tspan></text>
</g>
</svg>
