
<svg xmlns="http://www.w3.org/2000/svg" version="1.1" xmlns:xlink="http://www.w3.org/1999/xlink" x="0px" y="0px" viewBox="0 0 100 100">
<defs>
<g id="Layer1_0_FILL">
<path fill="#FFFFFF" stroke="none" d="
M 75.05 14.25
Q 73.55 10.45 70.1 8.35 69.4 7.95 68.7 7.65 67.95 7.3 67.2 7.05 63.15 5.85 59.15 7.35 58.35 7.7 57.55 8.1 54 10 52.25 13.9 50.15 18.6 51.95 23.4 52.85 25.6 54.35 27.35
L 54.2 27.6 48.7 26.25
Q 48.25 26.6 47.9 26.9 46.3 28.1 45.45 29.7
L 44.15 32.6
Q 43.4 34.4 43.35 34.55
L 41.2 43.7
Q 35.8 59.3 27.65 73.05
L 24.75 77.75
Q 23.2 82.1 25.05 85.3 26.95 88.45 30.55 90.3 30.9 90.55 31.2 90.65
L 31.35 90.75
Q 31.7 90.9 32.05 91 34.5 91.95 36.9 92.05 38.15 92 39.45 91.75 43.05 91 45.35 87
L 46.85 81.65
Q 51.1 68.5 57.6 56 58.6 54 59.75 52
L 65.2 44.35
Q 65.25 44.2 66.15 42.5
L 67.45 39.6
Q 68.05 37.9 67.9 35.9 67.9 35.4 67.9 34.85
L 63.2 31.6 63.3 31.4
Q 65.65 31.55 68 30.6 72.8 28.8 74.9 24.1 77 19.4 75.2 14.55 75.15 14.35 75.05 14.25
M 52.3 36.7
Q 53.95 36.05 55.6 36.8 57.2 37.5 57.85 39.2 58.45 40.85 57.75 42.5
L 54.05 50.65
Q 53.35 52.25 51.7 52.85 50 53.5 48.4 52.8 46.75 52.05 46.15 50.35 45.55 48.75 46.25 47.15
L 49.95 39
Q 50.65 37.35 52.3 36.7 Z"/>
</g>

</defs>

<g transform="matrix( 1, 0, 0, 1, 0,0) ">
<use xlink:href="#Layer1_0_FILL"/>
</g>

<g transform="matrix( 1, 0, 0, 1, -3.4,-28) ">
<clipPath id="Mask_Mask_1">
<rect x="20.9" y="-2" width="65" height="20.8" fill="#FFFFFF" stroke="none"/>
</clipPath>

<text clip-path="url(#Mask_Mask_1)" writing-mode="lr"><tspan x="22.95" y="13.6" baseline-shift="0%" kerning="auto" font-family="Arial_Regular" font-size="15" fill="#999999" xml:space="preserve">PS Move</tspan></text>
</g>
</svg>
