
<svg xmlns="http://www.w3.org/2000/svg" version="1.1" xmlns:xlink="http://www.w3.org/1999/xlink" x="0px" y="0px" viewBox="0 0 100 100">
<defs>
<g id="Layer1_0_FILL">
<path fill="#A2A2A2" stroke="none" d="
M 68.35 31.6
Q 60.75 24 50 24 39.25 24 31.6 31.6 24 39.25 24 50 24 60.75 31.6 68.35 39.25 76 50 76 60.75 76 68.35 68.35 76 60.75 76 50 76 39.25 68.35 31.6
M 50 31.95
Q 57.45 31.95 62.75 37.2 68.05 42.55 68.05 50 68.05 57.45 62.75 62.75 57.45 68.05 50 68.05 42.55 68.05 37.2 62.75 31.95 57.45 31.95 50 31.95 42.55 37.2 37.2 42.55 31.95 50 31.95 Z"/>

<path fill="#C8C8C8" stroke="none" d="
M 62.75 37.2
Q 57.45 31.95 50 31.95 42.55 31.95 37.2 37.2 31.95 42.55 31.95 50 31.95 57.45 37.2 62.75 42.55 68.05 50 68.05 57.45 68.05 62.75 62.75 68.05 57.45 68.05 50 68.05 42.55 62.75 37.2
M 59.9 50.1
L 40.05 50.1 59.9 50.1 Z"/>
</g>

<path id="Layer1_0_1_STROKES" stroke="#757575" stroke-width="5" stroke-linejoin="round" stroke-linecap="round" fill="none" d="
M 50 24
Q 60.75 24 68.35 31.6 76 39.25 76 50 76 60.75 68.35 68.35 60.75 76 50 76 39.25 76 31.6 68.35 24 60.75 24 50 24 39.25 31.6 31.6 39.25 24 50 24 Z"/>

<path id="Layer1_0_2_STROKES" stroke="#FFFFFF" stroke-width="5" stroke-linejoin="round" stroke-linecap="butt" fill="none" d="
M 59.9 50.1
L 40.05 50.1"/>

</defs>

<g transform="matrix( 1, 0, 0, 1, 0,0) ">
<use xlink:href="#Layer1_0_FILL"/>

<use xlink:href="#Layer1_0_1_STROKES"/>

<use xlink:href="#Layer1_0_2_STROKES"/>
</g>

<g transform="matrix( 1, 0, 0, 1, -3.4,-28) ">
<clipPath id="Mask_Mask_1">
<rect x="20.9" y="-2" width="65" height="20.8" fill="#FFFFFF" stroke="none"/>
</clipPath>

<text clip-path="url(#Mask_Mask_1)" writing-mode="lr"><tspan x="22.95" y="13.6" baseline-shift="0%" kerning="auto" font-family="Arial_Regular" font-size="15" fill="#999999" xml:space="preserve">PS Move</tspan></text>
</g>
</svg>
