<?xml version="1.0" encoding="utf-8"?>
<!-- Generator: Adobe Illustrator 24.1.2, SVG Export Plug-In . SVG Version: 6.00 Build 0)  -->
<svg version="1.1" id="Layer_1" xmlns="http://www.w3.org/2000/svg" xmlns:xlink="http://www.w3.org/1999/xlink" x="0px" y="0px"
	 viewBox="0 0 100 100" style="enable-background:new 0 0 100 100;" xml:space="preserve">
<g transform="matrix( 1, 0, 0, 1, 0,0) ">
	<g>
		<g id="Layer1_0_FILL">
			<path style="fill:#313131;" d="M46,56.3v-23h-9.6c-4-0.5-8.2-0.7-12.5-0.8c-1.8,0-3.7,0-5.6,0c-4.1,0.1-8.3,0.4-12.6,0.8
				C4,42.9,3.5,52.4,4.1,62c0.3,2.1,1.4,3.5,3.2,4.2c3,1,6.2,1.5,9.5,1.5c6.1,0,10.4-0.5,12.9-1.3c2.8-0.9,4.7-2.4,5.6-4.3
				c0-0.8,0-1.6,0-2.4l3.1-3.2H46 M24,36.4c2.8,0,5.6,0.1,8.4,0.3c-0.7,7.8-0.9,15.6-0.5,23.4c-0.8,1.4-2.5,2.3-5,2.8
				s-5.7,0.7-9.6,0.6c-3.9-0.1-6.9-0.5-8.9-1.3c-0.5-1.1-0.7-2.3-0.6-3.6c-0.4-7.5,0-14.8,1.2-21.9c3.2-0.2,6.3-0.3,9.4-0.3
				C20.3,36.3,22.1,36.3,24,36.4z"/>
			<path style="fill:#4F4F4F;" d="M32.4,36.7c-2.8-0.1-5.6-0.2-8.4-0.3c-1.9,0-3.7,0-5.6,0c-3.1,0-6.2,0.1-9.4,0.3
				c-1.2,7.1-1.6,14.4-1.3,21.9c-0.1,1.3,0.1,2.5,0.6,3.6c2,0.8,5,1.3,8.9,1.3c3.9,0.1,7.1-0.1,9.6-0.6s4.1-1.4,5-2.8
				C31.5,52.3,31.7,44.5,32.4,36.7 M23.9,46.6c0.3,0.2,0.5,0.5,0.6,0.8c0.2,0.3,0.2,0.7,0.2,1.2c0,0.3,0,0.5-0.1,0.8
				c-0.1,0.2-0.2,0.4-0.3,0.6c-0.1,0.2-0.2,0.4-0.4,0.5c-0.1,0.2-0.3,0.3-0.5,0.5l-2.7,2.3h4V55h-6.2v-2l3.5-3.1
				c0.2-0.2,0.4-0.3,0.5-0.6c0.2-0.2,0.3-0.4,0.3-0.7s-0.1-0.6-0.3-0.7c-0.2-0.2-0.5-0.3-0.8-0.3c-0.4,0-0.6,0.1-0.8,0.3
				c-0.2,0.2-0.3,0.5-0.3,0.8l-1.9-0.1c0-0.5,0.1-0.9,0.3-1.2c0.2-0.4,0.4-0.6,0.7-0.9c0.3-0.2,0.6-0.4,1-0.5s0.8-0.2,1.2-0.2
				c0.4,0,0.8,0.1,1.1,0.2C23.3,46.2,23.6,46.3,23.9,46.6 M11.6,46h2v7.1h3.6V55h-5.6V46z"/>
			<path style="fill:#8F8F8F;" d="M13.6,46h-2v9h5.6v-1.8h-3.6V46 M24.5,47.4c-0.2-0.3-0.4-0.6-0.6-0.8c-0.3-0.2-0.6-0.4-0.9-0.5
				c-0.4-0.1-0.7-0.2-1.1-0.2s-0.8,0.1-1.2,0.2c-0.4,0.1-0.7,0.3-1,0.5s-0.5,0.5-0.7,0.9c-0.2,0.3-0.3,0.7-0.3,1.2l1.9,0.1
				c0-0.3,0.1-0.6,0.3-0.8c0.2-0.2,0.5-0.3,0.8-0.3s0.6,0.1,0.8,0.3c0.2,0.2,0.3,0.4,0.3,0.7s-0.1,0.5-0.3,0.7
				c-0.2,0.2-0.3,0.4-0.5,0.6l-3.4,3v2h6.2v-1.7h-4l2.7-2.3c0.2-0.2,0.3-0.3,0.5-0.5s0.3-0.3,0.4-0.5s0.2-0.4,0.3-0.6
				c0.1-0.2,0.1-0.5,0.1-0.8C24.7,48.1,24.7,47.7,24.5,47.4z"/>
		</g>
	</g>
	<g>
		<path id="Layer1_0_1_STROKES" style="fill:none;stroke:#1B1B1B;stroke-width:5;stroke-linecap:round;stroke-linejoin:round;" d="
			M46,56.3v-23h-9.6c-4-0.5-8.2-0.7-12.5-0.8c-1.8,0-3.7,0-5.6,0c-4.1,0.1-8.3,0.4-12.6,0.8C4,42.9,3.5,52.4,4.1,62
			c0.3,2.1,1.4,3.5,3.2,4.2c3,1,6.2,1.5,9.5,1.5c6.1,0,10.4-0.5,12.9-1.3c2.8-0.9,4.7-2.4,5.6-4.3c0-0.8,0-1.6,0-2.4l3.1-3.2H46
			V56.3z"/>
	</g>
	<g>
		<path id="Layer1_0_2_STROKES" style="fill:none;stroke:#626262;stroke-width:4;stroke-linecap:round;stroke-linejoin:round;" d="
			M32.4,36.7c-2.8-0.1-5.6-0.2-8.4-0.3c-1.9,0-3.7,0-5.6,0c-3.1,0-6.2,0.1-9.4,0.3c-1.2,7.1-1.6,14.4-1.3,21.9
			c-0.1,1.3,0.1,2.5,0.6,3.6c2,0.8,5,1.3,8.9,1.3c3.9,0.1,7.1-0.1,9.6-0.6s4.1-1.4,5-2.8C31.5,52.3,31.7,44.5,32.4,36.7z"/>
	</g>
</g>
<g transform="matrix( 1, 0, 0, 1, 0,0) ">
	<g>
		<g id="Layer1_0_FILL_1_">
			<path style="fill:#313131;" d="M92.6,66.1c1.8-0.7,2.9-2.1,3.2-4.2c0.6-9.6,0.1-19.1-1.6-28.7c-4.9-0.5-9.6-0.8-14.1-0.8
				c-5.7-0.1-11.2,0.2-16.5,0.8H54v23.1h7.6l3.1,3.2c0,0.8,0,1.6,0,2.4c0.9,1.9,2.7,3.4,5.6,4.3c2.5,0.8,6.8,1.3,12.9,1.3
				C86.4,67.6,89.5,67.1,92.6,66.1 M92.3,58.5c0.1,1.3-0.1,2.5-0.6,3.6c-2,0.8-5,1.3-8.9,1.3s-7.1-0.1-9.6-0.6s-4.1-1.4-5-2.8
				c0.3-6.4,0.2-12.8-0.2-19.1c-0.1-1.4-0.2-2.8-0.3-4.3c4.1-0.2,8.2-0.3,12.4-0.3c3.6,0,7.3,0.1,11,0.3
				C92.2,43.8,92.6,51.1,92.3,58.5z"/>
			<path style="fill:#4F4F4F;" d="M91.6,62.1c0.5-1.1,0.7-2.3,0.6-3.6c0.3-7.5-0.1-14.8-1.3-21.9c-3.7-0.2-7.3-0.3-11-0.3
				c-4.2,0-8.3,0.1-12.4,0.3c0.1,1.4,0.2,2.8,0.3,4.3c0.4,6.4,0.5,12.8,0.2,19.1c0.8,1.4,2.5,2.3,5,2.8s5.7,0.7,9.6,0.6
				S89.6,63,91.6,62.1 M77.7,46c0.5,0,0.9,0,1.3,0.1s0.8,0.2,1.1,0.5c0.3,0.2,0.5,0.5,0.7,0.8s0.3,0.8,0.3,1.3
				c0,0.6-0.2,1.2-0.5,1.6c-0.3,0.5-0.8,0.7-1.4,0.8l2.3,3.8h-2.4l-1.9-3.6h-1V55h-2v-9H77.7 M87.5,46.6c0.3,0.2,0.5,0.5,0.6,0.8
				c0.2,0.3,0.2,0.7,0.2,1.2c0,0.3,0,0.5-0.1,0.8c-0.1,0.2-0.2,0.4-0.3,0.6c-0.1,0.2-0.2,0.4-0.4,0.5c-0.1,0.2-0.3,0.3-0.5,0.5
				l-2.7,2.3h4V55h-6.2v-2l3.5-3.1c0.2-0.2,0.4-0.3,0.5-0.6c0.2-0.2,0.3-0.4,0.3-0.7s-0.1-0.6-0.3-0.7c-0.2-0.2-0.5-0.3-0.8-0.3
				c-0.4,0-0.6,0.1-0.8,0.3c-0.2,0.2-0.3,0.5-0.3,0.8l-1.9-0.1c0-0.5,0.1-0.9,0.3-1.2c0.2-0.4,0.4-0.6,0.7-0.9
				c0.3-0.2,0.6-0.4,1-0.5s0.8-0.2,1.2-0.2c0.4,0,0.8,0.1,1.1,0.2C86.9,46.2,87.3,46.3,87.5,46.6 M77.5,47.7h-1.3v2h1.2
				c0.2,0,0.4,0,0.6,0s0.4-0.1,0.5-0.1c0.2-0.1,0.3-0.2,0.4-0.3C79,49.2,79,49,79,48.7c0-0.2,0-0.4-0.1-0.6
				c-0.1-0.1-0.2-0.2-0.4-0.3c-0.2-0.1-0.3-0.1-0.5-0.2C77.9,47.7,77.7,47.7,77.5,47.7z"/>
			<path style="fill:#8F8F8F;" d="M88.1,47.4c-0.2-0.3-0.4-0.6-0.6-0.8c-0.3-0.2-0.6-0.4-0.9-0.5c-0.4-0.1-0.7-0.2-1.1-0.2
				s-0.8,0.1-1.2,0.2c-0.4,0.1-0.7,0.3-1,0.5s-0.5,0.5-0.7,0.9c-0.2,0.3-0.3,0.7-0.3,1.2l1.9,0.1c0-0.3,0.1-0.6,0.3-0.8
				c0.2-0.2,0.5-0.3,0.8-0.3s0.6,0.1,0.8,0.3c0.2,0.2,0.3,0.4,0.3,0.7s-0.1,0.5-0.3,0.7c-0.2,0.2-0.3,0.4-0.5,0.6l-3.4,3v2h6.2v-1.7
				h-4l2.7-2.3c0.2-0.2,0.3-0.3,0.5-0.5s0.3-0.3,0.4-0.5s0.2-0.4,0.3-0.6c0.1-0.2,0.1-0.5,0.1-0.8C88.4,48.1,88.3,47.7,88.1,47.4
				 M79,46.2c-0.4-0.1-0.8-0.1-1.3-0.1h-3.5v9h2v-3.6h1l1.9,3.6h2.4l-2.3-3.8c0.6-0.1,1.1-0.4,1.4-0.8c0.3-0.4,0.5-1,0.5-1.6
				c0-0.5-0.1-1-0.3-1.3c-0.2-0.4-0.4-0.6-0.7-0.8C79.8,46.4,79.4,46.2,79,46.2 M76.2,47.7h1.3c0.2,0,0.4,0,0.6,0s0.3,0.1,0.5,0.2
				c0.1,0.1,0.3,0.2,0.4,0.3c0.1,0.2,0.1,0.3,0.1,0.6s-0.1,0.4-0.2,0.6c-0.1,0.1-0.2,0.2-0.4,0.3c-0.2,0.1-0.3,0.1-0.5,0.1
				s-0.4,0-0.6,0h-1.2C76.2,49.8,76.2,47.7,76.2,47.7z"/>
		</g>
	</g>
	<g>
		
			<path id="Layer1_0_1_STROKES_1_" style="fill:none;stroke:#1B1B1B;stroke-width:5;stroke-linecap:round;stroke-linejoin:round;" d="
			M95.8,61.9c-0.3,2.1-1.4,3.5-3.2,4.2c-3,1-6.2,1.5-9.5,1.5c-6.1,0-10.4-0.5-12.9-1.3c-2.8-0.9-4.7-2.4-5.6-4.3c0-0.8,0-1.6,0-2.4
			l-3.1-3.2H54V33.3h9.6c5.3-0.6,10.8-0.9,16.5-0.8c4.6,0.1,9.3,0.3,14.1,0.8C95.8,42.8,96.4,52.4,95.8,61.9z"/>
	</g>
	<g>
		
			<path id="Layer1_0_2_STROKES_1_" style="fill:none;stroke:#626262;stroke-width:4;stroke-linecap:round;stroke-linejoin:round;" d="
			M92.3,58.5c0.1,1.3-0.1,2.5-0.6,3.6c-2,0.8-5,1.3-8.9,1.3s-7.1-0.1-9.6-0.6s-4.1-1.4-5-2.8c0.3-6.4,0.2-12.8-0.2-19.1
			c-0.1-1.4-0.2-2.8-0.3-4.3c4.1-0.2,8.2-0.3,12.4-0.3c3.6,0,7.3,0.1,11,0.3C92.2,43.8,92.6,51.1,92.3,58.5z"/>
	</g>
</g>
</svg>
