<?xml version="1.0" encoding="utf-8"?>
<!-- Generator: Adobe Illustrator 24.1.2, SVG Export Plug-In . SVG Version: 6.00 Build 0)  -->
<svg version="1.1" id="Layer_1" xmlns="http://www.w3.org/2000/svg" xmlns:xlink="http://www.w3.org/1999/xlink" x="0px" y="0px"
	 viewBox="0 0 148 148" enable-background="new 0 0 148 148" xml:space="preserve">
<g transform="matrix( 1, 0, 0, 1, 0,0) ">
	<g>
		<g transform="translate(24.5 24.5)">
<path fill="#272727" stroke="none" d="
M 79.85 20.15
Q 67.5 7.8 50 7.8 32.5 7.8 20.15 20.15 7.8 32.5 7.8 50 7.8 67.5 20.15 79.85 32.5 92.2 50 92.2 67.5 92.2 79.85 79.85 92.2 67.5 92.2 50 92.2 32.5 79.85 20.15
M 50 15.95
Q 64.2 15.95 74.1 25.95 84.1 35.9 84.1 50 84.1 64.2 74.1 74.1 64.2 84.1 50 84.1 35.9 84.1 25.95 74.1 15.95 64.2 15.95 50 15.95 35.9 25.95 25.95 35.9 15.95 50 15.95 Z"/>

<path fill="#3F3F3F" stroke="none" d="
M 74.1 25.95
Q 64.2 15.95 50 15.95 35.9 15.95 25.95 25.95 15.95 35.9 15.95 50 15.95 64.2 25.95 74.1 35.9 84.1 50 84.1 64.2 84.1 74.1 74.1 84.1 64.2 84.1 50 84.1 35.9 74.1 25.95
M 50 25.05
Q 60.35 25.05 67.65 32.4 74.95 39.65 74.95 50 74.95 60.35 67.65 67.65 60.35 74.95 50 74.95 39.65 74.95 32.4 67.65 25.05 60.35 25.05 50 25.05 39.65 32.4 32.4 39.65 25.05 50 25.05 Z"/>

<path fill="#555555" stroke="none" d="
M 67.65 32.4
Q 60.35 25.05 50 25.05 39.65 25.05 32.4 32.4 25.05 39.65 25.05 50 25.05 60.35 32.4 67.65 39.65 74.95 50 74.95 60.35 74.95 67.65 67.65 74.95 60.35 74.95 50 74.95 39.65 67.65 32.4
M 57.5 39.3
Q 58.8 40.15 59.55 41.6 60.3 43.05 60.3 45.25 60.3 47.85 58.95 49.7 57.55 51.55 54.95 52
L 61.25 62.5 54.7 62.5 49.5 52.6 46.85 52.6 46.85 62.5 41.4 62.5 41.4 37.7 50.95 37.7
Q 52.85 37.7 54.55 38.1 56.25 38.45 57.5 39.3
M 46.85 42.35
L 46.85 47.95 50.05 47.95
Q 50.8 47.95 51.6 47.9 52.4 47.85 53.1 47.6 53.75 47.35 54.2 46.8 54.6 46.25 54.6 45.2 54.6 44.25 54.25 43.7 53.85 43.15 53.25 42.85 52.65 42.55 51.9 42.45 51.15 42.35 50.4 42.35
L 46.85 42.35 Z"/>

<path fill="#8C8C8C" stroke="none" d="
M 59.55 41.6
Q 58.8 40.15 57.5 39.3 56.25 38.45 54.55 38.1 52.85 37.7 50.95 37.7
L 41.4 37.7 41.4 62.5 46.85 62.5 46.85 52.6 49.5 52.6 54.7 62.5 61.25 62.5 54.95 52
Q 57.55 51.55 58.95 49.7 60.3 47.85 60.3 45.25 60.3 43.05 59.55 41.6
M 46.85 47.95
L 46.85 42.35 50.4 42.35
Q 51.15 42.35 51.9 42.45 52.65 42.55 53.25 42.85 53.85 43.15 54.25 43.7 54.6 44.25 54.6 45.2 54.6 46.25 54.2 46.8 53.75 47.35 53.1 47.6 52.4 47.85 51.6 47.9 50.8 47.95 50.05 47.95
L 46.85 47.95 Z"/>

<path id="Layer1_0_1_STROKES" stroke="#151515" stroke-width="4" stroke-linejoin="round" stroke-linecap="round" fill="none" d="
M 50 7.8
Q 67.5 7.8 79.85 20.15 92.2 32.5 92.2 50 92.2 67.5 79.85 79.85 67.5 92.2 50 92.2 32.5 92.2 20.15 79.85 7.8 67.5 7.8 50 7.8 32.5 20.15 20.15 32.5 7.8 50 7.8 Z
M 50 15.95
Q 64.2 15.95 74.1 25.95 84.1 35.9 84.1 50 84.1 64.2 74.1 74.1 64.2 84.1 50 84.1 35.9 84.1 25.95 74.1 15.95 64.2 15.95 50 15.95 35.9 25.95 25.95 35.9 15.95 50 15.95 Z"/>
		</g>
	</g>
</g>
<path id="Right" fill="#BFBFBF" stroke="#000000" stroke-width="3" d="M145,74l-23.8-24v48L145,74z"/>
</svg>
