
<svg xmlns="http://www.w3.org/2000/svg" version="1.1" xmlns:xlink="http://www.w3.org/1999/xlink" x="0px" y="0px" viewBox="0 0 100 100">
<defs>
<g id="Layer1_0_FILL">
<path fill="#313131" stroke="none" d="
M 84.7 84.75
Q 90 82.7 91 76.55 92.75 48.25 87.85 19.95 73.494140625 18.5033203125 59.95 18.35 43.069140625 18.1466796875 27.45 19.95
L 8.6 19.95 8.6 65.45 23.5 65.45 29.55 71.75
Q 29.55 74.15 29.55 76.55 32.15 82.25 40.55 85.05 48.05 87.55 66.05 87.65 75.75 87.7 84.7 84.75
M 84.1 69.85
Q 84.3 73.75 82.85 76.95 76.85 79.4 65.25 79.6 53.65 79.8 46.3 78.35 38.95 76.85 36.5 72.8 37.4 53.941796875 36.1 35.05 35.841015625 30.85078125 35.45 26.65 47.578125 26.007421875 59.95 26.05 70.6833984375 26.092578125 81.6 26.65 85.05 47.75 84.1 69.85 Z"/>

<path fill="#4F4F4F" stroke="none" d="
M 82.85 76.95
Q 84.3 73.75 84.1 69.85 85.05 47.75 81.6 26.65 70.6833984375 26.092578125 59.95 26.05 47.578125 26.007421875 35.45 26.65 35.841015625 30.85078125 36.1 35.05 37.4 53.941796875 36.5 72.8 38.95 76.85 46.3 78.35 53.65 79.8 65.25 79.6 76.85 79.4 82.85 76.95
M 55.4 45.15
Q 56.75 45.15 57.95 45.4 59.2 45.65 60.1 46.3 61 46.9 61.55 47.95 62.05 48.95 62.05 50.5 62.05 52.4 61.1 53.7 60.1 55.05 58.25 55.35
L 62.75 62.85 58.05 62.85 54.35 55.75 52.45 55.75 52.45 62.85 48.55 62.85 48.55 45.15 55.4 45.15
M 74.75 46.2
Q 75.5 46.85 75.95 47.85 76.4 48.85 76.4 50.2 76.4 51 76.2 51.7 76 52.4 75.7 52.95 75.4 53.5 74.95 54 74.55 54.5 74.05 54.95
L 68.7 59.55 76.5 59.55 76.5 62.85 64.2 62.85 64.2 58.85 71.05 52.7
Q 71.6 52.25 72.1 51.6 72.65 51 72.65 50.25 72.65 49.3 72 48.8 71.35 48.3 70.45 48.3 69.4 48.3 68.8 48.95 68.25 49.6 68.15 50.55
L 64.4 50.3
Q 64.5 48.9 65 47.9 65.5 46.85 66.3 46.2 67.1 45.5 68.25 45.2 69.35 44.85 70.65 44.85 71.85 44.85 72.9 45.2 73.95 45.5 74.75 46.2
M 55 48.45
L 52.45 48.45 52.45 52.45 54.75 52.45
Q 55.25 52.45 55.85 52.45 56.45 52.4 56.9 52.2 57.4 52 57.7 51.6 58 51.25 58 50.5 58 49.85 57.75 49.4 57.45 49 57.05 48.8 56.6 48.6 56.1 48.5 55.55 48.45 55 48.45 Z"/>

<path fill="#8F8F8F" stroke="none" d="
M 75.95 47.85
Q 75.5 46.85 74.75 46.2 73.95 45.5 72.9 45.2 71.85 44.85 70.65 44.85 69.35 44.85 68.25 45.2 67.1 45.5 66.3 46.2 65.5 46.85 65 47.9 64.5 48.9 64.4 50.3
L 68.15 50.55
Q 68.25 49.6 68.8 48.95 69.4 48.3 70.45 48.3 71.35 48.3 72 48.8 72.65 49.3 72.65 50.25 72.65 51 72.1 51.6 71.6 52.25 71.05 52.7
L 64.2 58.85 64.2 62.85 76.5 62.85 76.5 59.55 68.7 59.55 74.05 54.95
Q 74.55 54.5 74.95 54 75.4 53.5 75.7 52.95 76 52.4 76.2 51.7 76.4 51 76.4 50.2 76.4 48.85 75.95 47.85
M 57.95 45.4
Q 56.75 45.15 55.4 45.15
L 48.55 45.15 48.55 62.85 52.45 62.85 52.45 55.75 54.35 55.75 58.05 62.85 62.75 62.85 58.25 55.35
Q 60.1 55.05 61.1 53.7 62.05 52.4 62.05 50.5 62.05 48.95 61.55 47.95 61 46.9 60.1 46.3 59.2 45.65 57.95 45.4
M 52.45 48.45
L 55 48.45
Q 55.55 48.45 56.1 48.5 56.6 48.6 57.05 48.8 57.45 49 57.75 49.4 58 49.85 58 50.5 58 51.25 57.7 51.6 57.4 52 56.9 52.2 56.45 52.4 55.85 52.45 55.25 52.45 54.75 52.45
L 52.45 52.45 52.45 48.45 Z"/>
</g>

<path id="Layer1_0_1_STROKES" stroke="#1B1B1B" stroke-width="5" stroke-linejoin="round" stroke-linecap="round" fill="none" d="
M 91 76.55
Q 90 82.7 84.7 84.75 75.75 87.7 66.05 87.65 48.05 87.55 40.55 85.05 32.15 82.25 29.55 76.55 29.55 74.15 29.55 71.75
L 23.5 65.45 8.6 65.45 8.6 19.95 27.45 19.95
Q 43.069140625 18.1466796875 59.95 18.35 73.494140625 18.5033203125 87.85 19.95 92.75 48.25 91 76.55 Z"/>

<path id="Layer1_0_2_STROKES" stroke="#626262" stroke-width="4" stroke-linejoin="round" stroke-linecap="round" fill="none" d="
M 84.1 69.85
Q 84.3 73.75 82.85 76.95 76.85 79.4 65.25 79.6 53.65 79.8 46.3 78.35 38.95 76.85 36.5 72.8 37.4 53.941796875 36.125 35.05 35.841015625 30.85078125 35.45 26.65 47.578125 26.007421875 59.95 26.05 70.6833984375 26.092578125 81.6 26.65 85.05 47.75 84.1 69.85 Z"/>

</defs>

<g transform="matrix( 1, 0, 0, 1, 0,0) ">
<use xlink:href="#Layer1_0_FILL"/>

<use xlink:href="#Layer1_0_1_STROKES"/>

<use xlink:href="#Layer1_0_2_STROKES"/>
</g>

<g transform="matrix( 1, 0, 0, 1, -3.4,-28) ">
<clipPath id="Mask_Mask_1">
<rect x="8.35" y="-2" width="90.1" height="20.8" fill="#FFFFFF" stroke="none"/>
</clipPath>

<text clip-path="url(#Mask_Mask_1)" writing-mode="lr"><tspan x="10.45" y="13.6" baseline-shift="0%" kerning="auto" font-family="Arial_Regular" font-size="15" fill="#999999" xml:space="preserve">Playstation 3</tspan></text>
</g>
</svg>
