<?xml version="1.0" encoding="utf-8"?>
<!-- Generator: Adobe Illustrator 24.1.2, SVG Export Plug-In . SVG Version: 6.00 Build 0)  -->
<svg version="1.1" id="Layer_1" xmlns="http://www.w3.org/2000/svg" xmlns:xlink="http://www.w3.org/1999/xlink" x="0px" y="0px"
	 viewBox="0 0 100 100" style="enable-background:new 0 0 100 100;" xml:space="preserve">
<style type="text/css">
	.st0{fill:#313131;}
	.st1{fill:#4F4F4F;}
	.st2{fill:#D7D7D7;}
	.st3{fill:#F5F5F5;}
	.st4{fill:none;stroke:#202020;stroke-width:4;stroke-linecap:round;stroke-linejoin:round;}
	.st5{fill:none;stroke:#626262;stroke-width:4;stroke-linecap:round;stroke-linejoin:round;}
	.st6{fill:none;stroke:#404040;stroke-width:4;stroke-linecap:round;stroke-linejoin:round;}
	.st7{fill:none;stroke:#FFFFFF;stroke-width:4;stroke-linecap:round;stroke-linejoin:round;}
</style>
<g transform="matrix( 1, 0, 0, 1, 0,0) ">
	<g>
		<g id="Layer1_0_FILL">
			<path class="st0" d="M8.2,34l-3.3,3.4v25.3l3.3,3.4l19.9-1.2l12.4-9.4V44.5l-12.4-9.4L8.2,34 M33.9,49.3v1.3v1.3l-7.8,6.3
				L11.6,59V41l14.5,0.9l7.8,6.3V49.3 M66,8.3l-3.4-3.3H37.3l-3.4,3.3l1.2,20l9.4,12.4h10.9l9.4-12.4L66,8.3 M51.9,33.9h-1.3h-1.3
				h-1.3l-6.3-7.8L41,11.6H59l-0.9,14.5L51.9,33.9 M62.7,95.1l3.4-3.3l-1.2-19.9l-9.4-12.4H44.5l-9.4,12.4l-1.2,19.9l3.4,3.3H62.7
				 M59,88.4H41l0.9-14.5l6.3-7.8h1.3h1.3h1.3l6.3,7.8L59,88.4z"/>
			<path class="st1" d="M33.9,50.7v-1.3v-1.3l-7.8-6.3L11.6,41V59l14.5-0.9l7.8-6.3V50.7 M50.7,33.9h1.3l6.3-7.8L59,11.6H41
				l0.9,14.5l6.3,7.8h1.3H50.7 M41,88.4H59l-0.9-14.5l-6.3-7.8h-1.3h-1.3h-1.3l-6.3,7.8L41,88.4z"/>
			<path class="st2" d="M91.8,66.1l3.3-3.4V37.3L91.8,34l-20,1.2l-12.4,9.4v10.9l12.4,9.4L91.8,66.1 M88.4,41V59l-14.5-0.9l-7.8-6.3
				v-1.3v-1.3v-1.3l7.8-6.3L88.4,41z"/>
			<path class="st3" d="M88.4,59V41l-14.5,0.9l-7.8,6.3v1.3v1.3v1.3l7.8,6.3L88.4,59z"/>
		</g>
	</g>
	<g>
		<path id="Layer1_0_1_STROKES" class="st4" d="M66,91.8l-3.4,3.3H37.3l-3.4-3.3l1.2-19.9l9.4-12.4h10.9l9.4,12.4L66,91.8z
			 M64.8,28.2l1.2-20l-3.4-3.3H37.3l-3.4,3.3l1.2,20l9.4,12.4h10.9L64.8,28.2z M28.2,35.2L8.2,34l-3.3,3.4v25.3l3.3,3.4l19.9-1.2
			l12.4-9.4V44.5L28.2,35.2z"/>
	</g>
	<g>
		<path id="Layer1_0_2_STROKES" class="st5" d="M49.3,66.1h-1.3l-6.3,7.8L41,88.4H59l-0.9-14.5l-6.3-7.8h-1.3 M49.3,33.9h-1.3
			l-6.3-7.8L41,11.6H59l-0.9,14.5l-6.3,7.8h-1.3 M33.9,50.7v1.3l-7.8,6.3L11.6,59V41l14.5,0.9l7.8,6.3v1.3"/>
	</g>
	<g>
		<path id="Layer1_0_3_STROKES" class="st6" d="M95.1,62.7l-3.3,3.4l-20-1.2l-12.4-9.4V44.5l12.4-9.4l20-1.2l3.3,3.4V62.7z"/>
	</g>
	<g>
		<path id="Layer1_0_4_STROKES" class="st7" d="M66.1,50.7v1.3l7.8,6.3L88.4,59V41l-14.5,0.9l-7.8,6.3v1.3"/>
	</g>
</g>
<g>
	<path class="st2" d="M66.1,8.3l-3.4-3.3H37.3L34,8.3l1.2,20l9.4,12.4h10.9l9.4-12.4L66.1,8.3 M41,11.6H59l-0.9,14.5l-6.3,7.8h-1.3
		h-1.3h-1.3l-6.3-7.8L41,11.6z"/>
	<path class="st3" d="M59,11.6H41l0.9,14.5l6.3,7.8h1.3h1.3h1.3l6.3-7.8L59,11.6z"/>
	<g>
		<path id="Layer1_0_3_STROKES_1_" class="st6" d="M62.7,4.9l3.4,3.3l-1.2,20l-9.4,12.4H44.5l-9.4-12.4L34,8.3l3.4-3.3H62.7z"/>
	</g>
	<g>
		<path id="Layer1_0_4_STROKES_1_" class="st7" d="M50.7,33.9h1.3l6.3-7.8L59,11.6H41l0.9,14.5l6.3,7.8h1.3"/>
	</g>
</g>
</svg>
