<?xml version="1.0" encoding="utf-8"?>
<!-- Generator: Adobe Illustrator 24.1.2, SVG Export Plug-In . SVG Version: 6.00 Build 0)  -->
<svg version="1.1" id="Layer_1" xmlns="http://www.w3.org/2000/svg" xmlns:xlink="http://www.w3.org/1999/xlink" x="0px" y="0px"
	 viewBox="0 0 100 100" style="enable-background:new 0 0 100 100;" xml:space="preserve">
<style type="text/css">
	.st0{fill:#313131;}
	.st1{fill:#4F4F4F;}
	.st2{fill:#8C8C8C;}
	.st3{fill:none;stroke:#626262;stroke-width:5;stroke-linecap:round;stroke-linejoin:round;}
	.st4{fill:none;stroke:#202020;stroke-width:5;stroke-linecap:round;stroke-linejoin:round;}
</style>
<g transform="matrix( 1, 0, 0, 1, 0,0) ">
	<g>
		<g id="Layer1_0_FILL">
			<path class="st0" d="M45.9,64.4c0.2-3.5-0.1-7.1-0.8-10.8c-0.7-3.5-2-6.8-3.8-9.7c-1.8-2.9-4.2-5-7.1-6.3
				c-5.2-1.9-10.4-2.5-15.6-1.8c-5.2,0.7-9,2.8-11.5,6.3C5.3,45,4.3,48.3,4,51.9v4.3c3.8,2.6,8.6,4.6,14.3,5.9
				C26.8,64.1,36,64.8,45.9,64.4 M35.4,47.3L35.4,47.3c1.6,2.5,2.6,5.2,3.2,8.1v0c0.3,1.7,0.5,3.3,0.7,5c-7.6,0-14.8-0.7-21.6-2.2
				c-4-0.9-7.5-2.2-10.5-3.8V53c0.2-2.7,1-5.1,2.2-7.3v0c1.8-2.3,4.4-3.7,8-4.2h0c4.4-0.6,8.8-0.1,13.1,1.5h0
				C32.7,43.9,34.2,45.4,35.4,47.3z"/>
			<path class="st1" d="M35.5,47.4L35.5,47.4c-1.2-2-2.8-3.4-4.7-4.4h0c-4.4-1.6-8.7-2.1-13.1-1.5h0c-3.6,0.5-6.3,1.8-8,4.2v0
				c-1.3,2.2-2,4.6-2.2,7.3v1.4c2.9,1.6,6.4,2.9,10.5,3.8c6.7,1.5,13.9,2.2,21.6,2.2c-0.1-1.6-0.3-3.3-0.7-5v0
				C38.1,52.5,37,49.8,35.5,47.4 M24.8,46.9l1.7,0.4v8.6l-1.7-0.4V49l-1.7,1.2l-1-1.4L24.8,46.9 M15.8,45.1l1.9,0.4v6.8l3.5,0.7v1.7
				l-5.4-1.1V45.1z"/>
			<path class="st2" d="M17.7,45.5l-1.9-0.4v8.6l5.4,1.1V53l-3.5-0.7V45.5 M26.5,47.3l-1.7-0.4l-2.8,1.8l1,1.4l1.7-1.2v6.5l1.7,0.4
				V47.3z"/>
		</g>
	</g>
	<g>
		<path id="Layer1_0_1_STROKES" class="st3" d="M35.4,47.3c-1.2-2-2.8-3.4-4.7-4.3h0c-4.4-1.6-8.7-2.1-13.1-1.5h0
			c-3.6,0.5-6.3,1.8-8,4.2v0c-1.3,2.2-2,4.6-2.2,7.3v1.4c2.9,1.6,6.4,2.9,10.5,3.8c6.7,1.5,13.9,2.2,21.6,2.2
			c-0.1-1.6-0.3-3.3-0.7-5v0C38.1,52.5,37,49.8,35.4,47.3L35.4,47.3z"/>
	</g>
	<g>
		<path id="Layer1_0_2_STROKES" class="st4" d="M34.2,37.6c2.9,1.3,5.3,3.4,7.1,6.3c1.9,3,3.2,6.2,3.8,9.7c0.7,3.7,1,7.3,0.8,10.8
			c-9.9,0.4-19.1-0.3-27.6-2.2C12.6,60.9,7.8,58.9,4,56.3v-4.3c0.3-3.7,1.3-7,3.1-9.9c2.4-3.5,6.3-5.6,11.5-6.3
			C23.8,35.1,29,35.7,34.2,37.6z"/>
	</g>
</g>
<g transform="matrix( 1, 0, 0, 1, 0,0) ">
	<g>
		<g id="Layer1_0_FILL_1_">
			<path class="st0" d="M96,56.3v-4.3c-0.3-3.7-1.3-7-3.1-9.9c-2.4-3.5-6.3-5.6-11.5-6.3c-5.2-0.7-10.4-0.1-15.6,1.8
				c-2.9,1.3-5.3,3.4-7.1,6.3c-1.9,3-3.2,6.2-3.8,9.7c-0.7,3.7-1,7.3-0.8,10.8c9.9,0.4,19.1-0.3,27.6-2.2
				C87.4,60.9,92.2,58.9,96,56.3 M92.7,53v1.4c-2.9,1.6-6.4,2.9-10.5,3.8c-6.7,1.5-13.9,2.2-21.6,2.2c0.1-1.6,0.3-3.3,0.7-5v0
				c0.5-2.9,1.6-5.6,3.2-8l0-0.1c1.2-2,2.8-3.4,4.7-4.3h0c4.4-1.6,8.7-2.1,13.1-1.5h0c3.6,0.5,6.3,1.8,8,4.2v0
				C91.8,47.9,92.5,50.3,92.7,53z"/>
			<path class="st1" d="M92.7,54.4V53c-0.2-2.7-1-5.1-2.2-7.3v0c-1.8-2.3-4.4-3.7-8-4.2h0c-4.4-0.6-8.8-0.1-13.1,1.5h0
				c-1.9,0.9-3.5,2.4-4.7,4.3l0,0.1c-1.6,2.4-2.6,5.1-3.2,8v0c-0.3,1.7-0.5,3.3-0.7,5c7.6,0,14.8-0.7,21.6-2.2
				C86.3,57.3,89.8,56,92.7,54.4 M72,47.2l3.3-0.5c0.4-0.1,0.9-0.1,1.2-0.1c0.4,0,0.7,0.1,1,0.3c0.3,0.1,0.5,0.4,0.7,0.7
				c0.2,0.3,0.3,0.7,0.3,1.2c0,0.6-0.2,1.1-0.5,1.6c-0.3,0.5-0.8,0.8-1.4,1l2.2,3.3l-2.2,0.3l-1.8-3.2l-0.9,0.1v3.4L72,55.8V47.2
				 M80.7,49.5l-1-1l2.8-2.8l1.7-0.2V54l-1.7,0.2v-6.5L80.7,49.5 M75.1,48.4l-1.2,0.2v1.9l1.1-0.2c0.2,0,0.3,0,0.5-0.1
				c0.2-0.1,0.4-0.1,0.5-0.2c0.1-0.1,0.3-0.2,0.4-0.4c0.1-0.1,0.1-0.3,0.1-0.5c0-0.2,0-0.4-0.1-0.5c-0.1-0.1-0.2-0.2-0.4-0.3
				c-0.1,0-0.3-0.1-0.5-0.1C75.5,48.3,75.3,48.3,75.1,48.4z"/>
			<path class="st2" d="M79.7,48.5l1,1l1.7-1.8v6.5l1.7-0.2v-8.6l-1.7,0.2L79.7,48.5 M75.3,46.8L72,47.2v8.6l1.9-0.3v-3.4l0.9-0.1
				l1.8,3.2l2.2-0.3l-2.2-3.3c0.6-0.2,1.1-0.5,1.4-1c0.3-0.5,0.5-1,0.5-1.6c0-0.5-0.1-0.9-0.3-1.2c-0.2-0.3-0.4-0.5-0.7-0.7
				c-0.3-0.1-0.6-0.2-1-0.3C76.2,46.7,75.8,46.7,75.3,46.8 M73.9,48.5l1.2-0.2c0.2,0,0.3,0,0.5,0c0.2,0,0.3,0,0.5,0.1
				c0.1,0.1,0.3,0.1,0.4,0.3c0.1,0.1,0.1,0.3,0.1,0.5c0,0.2,0,0.4-0.1,0.5c-0.1,0.1-0.2,0.3-0.4,0.4c-0.1,0.1-0.3,0.1-0.5,0.2
				c-0.2,0-0.4,0-0.5,0.1l-1.1,0.2V48.5z"/>
		</g>
	</g>
	<g>
		<path id="Layer1_0_1_STROKES_1_" class="st4" d="M96,56.3v-4.3c-0.3-3.7-1.3-7-3.1-9.9c-2.4-3.5-6.3-5.6-11.5-6.3
			c-5.2-0.7-10.4-0.1-15.6,1.8c-2.9,1.3-5.3,3.4-7.1,6.3c-1.9,3-3.2,6.2-3.8,9.7c-0.7,3.7-1,7.3-0.8,10.8c9.9,0.4,19.1-0.3,27.6-2.2
			C87.4,60.9,92.2,58.9,96,56.3z"/>
	</g>
	<g>
		<path id="Layer1_0_2_STROKES_1_" class="st3" d="M92.7,53v1.4c-2.9,1.6-6.4,2.9-10.5,3.8c-6.7,1.5-13.9,2.2-21.6,2.2
			c0.1-1.6,0.3-3.3,0.7-5v0c0.5-2.9,1.6-5.6,3.2-8l0-0.1c1.2-2,2.8-3.4,4.7-4.3h0c4.4-1.6,8.7-2.1,13.1-1.5h0c3.6,0.5,6.3,1.8,8,4.2
			v0C91.8,47.9,92.5,50.3,92.7,53z"/>
	</g>
</g>
</svg>
