
<svg xmlns="http://www.w3.org/2000/svg" version="1.1" xmlns:xlink="http://www.w3.org/1999/xlink" x="0px" y="0px" viewBox="0 0 100 100">
<defs>
<g id="Layer1_0_FILL">
<path fill="#FFFFFF" stroke="none" d="
M -52.05 138.55
Q -53.25 138.55 -54.4 138.7 -63.8 139.75 -70.75 146.15 -76.45 151.45 -78.25 158.2 -78.8 160.4 -78.95 162.7 -79 163.75 -78.95 164.8 -78.85 166.7 -78.55 168.5 -78.1 170.5 -77.35 172.35 -76.45 174.15 -75.25 175.9 -76 174.15 -76.55 172.35 -76.95 170.45 -77.15 168.5 -77.3 165.7 -77.05 162.7 -77 162.55 -77 162.4 -76.75 160.3 -76 158.2 -73.95 153.15 -68.7 148.35 -62.6 142.75 -54.4 141.75 -53.25 141.55 -52.05 141.55 -51.75 141.5 -51.45 141.5
L -50.6 141.5
Q -50.45 141.5 -50.25 141.5
L -50 141.5
Q -49.65 141.5 -49.3 141.55 -39.65 141.95 -32.65 148.35 -27.4 153.15 -25.35 158.2 -24.6 160.3 -24.35 162.4 -24.35 162.55 -24.3 162.7 -24.05 165.7 -24.2 168.5 -24.4 170.45 -24.8 172.35 -25.35 174.15 -26.1 175.9 -24.9 174.15 -24 172.35 -23.25 170.5 -22.8 168.5 -22.5 166.7 -22.4 164.8 -22.35 163.75 -22.4 162.7 -22.55 160.4 -23.1 158.2 -24.9 151.45 -30.6 146.15 -38.55 138.85 -49.65 138.55
L -50.4 138.5
Q -50.5 138.5 -50.6 138.5 -50.65 138.5 -50.75 138.5 -51.4 138.5 -52.05 138.55
M 48.5 130.5
L 48.25 130.55 39.1 133.2
Q 36.95 133.8 35.95 134.25 35.1 134.6 34.75 134.9 33.65 135.7 34.55 136.65 34.8 136.9 35.25 137.15 35.85 137.55 37.35 137.95 40.55 138.8 43.9 138.85 45.9 138.85 47.45 138.65
L 48.45 138.5 48.45 135.7 45.3 136.6
Q 43.25 137.15 41.45 136.9
L 40.6 136.65
Q 40.45 136.6 40.4 136.4 40.4 136.25 40.55 136.15
L 40.8 135.95 41.55 135.65 48.3 133.7
Q 48.5 133.7 48.5 133.55
L 48.5 130.5
M 58.1 132.9
Q 57.95 132.95 57.95 133.1
L 57.95 136.2 64.55 134.35
Q 66.55 133.8 67.85 133.85 68.8 133.85 69.55 134.05 70.4 134.4 69.65 134.85
L 58.1 138.2
Q 57.95 138.25 57.95 138.4
L 57.95 141.4 58.6 141.2
Q 62.75 140.05 70.95 137.65
L 73.7 136.8
Q 74.7 136.55 75.55 135.8 76.5 134.95 75.55 134.1 75.35 133.85 74.5 133.4 73.4 132.95 71.2 132.45 67.25 131.65 63.25 132 60.65 132.2 58.1 132.9
M 66.65 123.6
Q 66.1 120.95 63.4 119.55 61.85 118.7 59.8 118.15 57.45 117.5 54.15 116.75 53.4 116.6 52.65 116.45 52.2 116.35 51.75 116.25
L 49.8 115.9 49.8 139.9
Q 49.8 140.05 49.95 140.1
L 56.6 141.8 56.6 121.3
Q 56.7 120.75 57 120.45 57.35 120 58 120.15 58.9 120.35 59.2 121.15 59.35 121.5 59.35 122.3 59.4 126.25 59.35 130.15 59.35 130.35 59.5 130.4 61.1 130.9 61.95 130.95 64.35 131.1 65.7 129.65 66.6 128.7 66.85 127.1 67.1 125.45 66.65 123.6
M 184.15 162.4
Q 184.15 162.55 184.2 162.7 184.45 165.7 184.3 168.5 184.1 170.45 183.7 172.35 183.15 174.15 182.4 175.9 183.6 174.15 184.5 172.35 185.25 170.5 185.7 168.5 186 166.7 186.1 164.8 186.15 163.75 186.1 162.7 185.95 160.4 185.4 158.2 183.6 151.45 177.9 146.15 170.95 139.75 161.55 138.7 160.4 138.55 159.2 138.55 158.55 138.5 157.9 138.5 157.8 138.5 157.75 138.5 157.65 138.5 157.55 138.5
L 156.8 138.55
Q 145.7 138.85 137.75 146.15 132.05 151.45 130.25 158.2 129.7 160.4 129.55 162.7 129.5 163.75 129.55 164.8 129.65 166.7 129.95 168.5 130.4 170.5 131.15 172.35 132.05 174.15 133.25 175.9 132.5 174.15 131.95 172.35 131.55 170.45 131.35 168.5 131.2 165.7 131.45 162.7 131.5 162.55 131.5 162.4 131.75 160.3 132.5 158.2 134.55 153.15 139.8 148.35 146.8 141.95 156.45 141.55 156.8 141.5 157.15 141.5
L 157.4 141.5
Q 157.6 141.5 157.75 141.5
L 158.6 141.5
Q 158.9 141.5 159.2 141.55 160.4 141.55 161.55 141.75 169.75 142.75 175.85 148.35 181.1 153.15 183.15 158.2 183.9 160.3 184.15 162.4
M -109.7 126.2
Q -110.6 130.55 -111 134.15 -111.2 135.85 -111.3 137.4 -111.3 138.2 -111.35 139 -111.35 142.15 -110.9 145.2
L -110.95 145.2
Q -109.45 154.25 -104.3 162.05 -102.35 165 -99.85 167.8 -99.4 168.3 -98.9 168.85
L -97.85 169.95 -96.75 168.9 -95.65 167.9 -96.7 166.8
Q -101.3 160.8 -104.3 155.15 -107.05 150 -108.5 145.2
L -108.45 145.2
Q -109.35 142.05 -109.65 139 -109.75 137.7 -109.75 136.4 -109.75 135.2 -109.7 134.15 -109.75 129.45 -109.75 127.7
L -109.7 126.2
M -196.1 55.35
Q -196.1 54.95 -196.45 54.8 -196.85 54.65 -197.15 54.95
L -201.65 59.8
Q -201.8 60 -201.8 60.25 -201.8 60.5 -201.6 60.65
L -196.75 65.15
Q -196.45 65.4 -196.05 65.25 -195.75 65.05 -195.75 64.65
L -196.1 55.35
M -198.95 47.9
L -188.65 46.7 -198.65 46.6
Q -204.5 46.4 -206.65 48.5 -208.2 49.9 -208.75 53.75
L -208.9 55.75
Q -208.9 55.8 -208.9 55.85 -209 58.2 -208.9 60.25 -208.85 62.45 -208.4 65.9 -208.4 65.95 -208.4 66 -207.45 69.85 -205 71.55
L -205 71.6
Q -202.4 73.4 -197.5 73.25
L -187.65 72.5 -197.9 71.85
Q -201.75 71.4 -203.85 69.95
L -203.9 69.95
Q -205.7 68.6 -206.45 65.65
L -206.4 65.7
Q -206.85 62.35 -206.9 60.25 -207 58.3 -206.9 56.05
L -206.75 54.05 -206.8 54.1
Q -206.35 51.1 -205.25 50 -203.4 48.4 -198.95 47.9
M -142.4 87.55
L -143.1 95.55
Q -143.3 98.6 -144.85 100.35 -146.55 102.25 -149.7 102.7
L -149.6 102.7
Q -153.25 103 -155.5 103 -157.6 103 -160.1 102.8
L -162.2 102.6
Q -164.9 102.25 -166.45 100.45
L -166.5 100.45
Q -168.1 98.65 -168.5 95.95
L -169.85 87.45 -170.05 95.85
Q -170.15 99.35 -167.9 101.7
L -167.9 101.75
Q -165.9 104.15 -162.35 104.6
L -160.2 104.8 -160.15 104.8
Q -157.65 105 -155.45 105 -153.1 105 -149.35 104.7
L -149.3 104.7
Q -145.45 104.15 -143.3 101.7
L -143.3 101.75
Q -141.2 99.4 -141.5 95.85
L -141.5 95.8 -142.4 87.55
M -156.4 97.9
Q -155.95 98.35 -155.5 97.9
L -151.15 93.25
Q -150.9 92.95 -151.05 92.6 -151.25 92.2 -151.65 92.2
L -161 92.2
Q -161.4 92.2 -161.55 92.6 -161.65 92.95 -161.35 93.25
L -156.4 97.9
M -153.6 24.4
Q -153.45 24 -153.8 23.7
L -158.9 19.05
Q -159.1 18.85 -159.35 18.85 -159.6 18.85 -159.75 19.05
L -164 23.7
Q -164.25 24 -164.05 24.4 -163.85 24.75 -163.45 24.75
L -154.15 24.75
Q -153.7 24.75 -153.6 24.4
M -153.3 11.1
Q -157.05 10.8 -159.4 10.8 -161.6 10.8 -164.1 11
L -164.15 11 -166.3 11.2
Q -169.8 11.65 -171.6 14.05
L -171.6 14.1
Q -173.65 16.45 -173.25 19.95
L -172.35 28.35 -171.7 19.85
Q -171.55 17.15 -170.05 15.35
L -170 15.35
Q -168.65 13.55 -165.95 13.2
L -163.85 13
Q -161.4 12.8 -159.3 12.8 -157.05 12.8 -153.35 13.1
L -153.45 13.1
Q -150.3 13.55 -148.4 15.45 -146.75 17.2 -146.25 20.25
L -144.9 28.25 -144.7 19.95
Q -144.7 16.4 -147 14.05
L -147 14.1
Q -149.35 11.65 -153.25 11.1
L -153.3 11.1
M -113.15 60.35
Q -112.75 59.9 -113.2 59.5
L -118.15 55
Q -118.45 54.75 -118.8 54.9 -119.2 55.1 -119.2 55.5
L -118.65 64.8
Q -118.65 65.2 -118.25 65.35 -117.8 65.5 -117.6 65.2
L -113.15 60.35
M -108.85 48.5
Q -111.2 46.4 -117.05 46.6
L -127.05 46.7 -116.65 47.9
Q -112.1 48.4 -110.15 50 -108.95 51.1 -108.3 54.1
L -108.35 54.05 -108 56.05 -108 56
Q -107.7 58.3 -107.6 60.25 -107.55 62.35 -107.7 65.7
L -107.65 65.65
Q -108.1 68.6 -109.8 69.95
L -109.85 69.95
Q -111.85 71.4 -115.7 71.85
L -125.85 72.5 -115.9 73.25
Q -111 73.4 -108.6 71.6
L -108.6 71.55
Q -106.25 69.85 -105.7 66 -105.7 65.95 -105.7 65.9 -105.55 62.45 -105.6 60.25 -105.7 58.2 -106 55.85 -106 55.8 -106 55.75
L -106.35 53.75
Q -107.2 49.9 -108.85 48.5
M -198.45 -68.3
L -199.4 -69.45
Q -193.75 -57.55 -168 -58.8 -154.8 -59.45 -145.65 -60.65 -141.15 -61.15 -136.8 -62.1 -132.1 -63.1 -127.7 -64.8 -123.35 -66.4 -119.55 -69.25 -116.2 -71.85 -116.25 -76.25 -116.05 -79.85 -117 -85.2
L -117.15 -83.7
Q -117.5 -79.25 -118.45 -76.25 -119.8 -71.8 -124.05 -69.8 -128.05 -67.75 -132.4 -66.35 -136.45 -65.05 -140.6 -64.4 -145.35 -63.4 -150.05 -63.15 -157.85 -62.3 -168.15 -61.8 -191.8 -60.65 -198.05 -67.8
L -198.1 -67.85
Q -198.3 -68.1 -198.45 -68.3
M 217.6 134.15
Q 217.2 130.55 216.3 126.2
L 216.35 127.7
Q 216.35 129.45 216.3 134.15 216.35 135.2 216.35 136.4 216.35 137.7 216.25 139 215.95 142.05 215.05 145.2
L 215.1 145.2
Q 213.65 150 210.9 155.15 207.9 160.8 203.3 166.8
L 202.25 167.9 203.35 168.9 204.45 169.95 205.5 168.85
Q 206 168.3 206.45 167.8 208.95 165 210.9 162.05 216.05 154.25 217.55 145.2
L 217.5 145.2
Q 217.95 142.15 217.95 139 217.9 138.2 217.9 137.4 217.8 135.85 217.6 134.15
M 225.05 -76.25
Q 224.1 -79.25 223.75 -83.7
L 223.6 -85.2
Q 222.65 -79.85 222.85 -76.25 222.8 -71.85 226.15 -69.25 229.95 -66.4 234.3 -64.8 238.7 -63.1 243.4 -62.1 247.75 -61.15 252.25 -60.65 261.4 -59.45 274.6 -58.8 300.35 -57.55 306 -69.45
L 305.05 -68.3
Q 304.9 -68.1 304.7 -67.85
L 304.65 -67.8
Q 298.4 -60.65 274.75 -61.8 264.45 -62.3 256.65 -63.15 251.95 -63.4 247.2 -64.4 243.05 -65.05 239 -66.35 234.65 -67.75 230.65 -69.8 226.4 -71.8 225.05 -76.25
M 185.45 -31.75
L 185.45 -31.7
Q 185.9 -26.9 183.1 -17.2 183.1 -17.15 183.05 -17.1
L 168.1 42.95
Q 168.1 43 168.05 43.1 166.2 50.75 161.9 57.05 156.7 64.7 149.35 69.4
L 149.35 69.45
Q 139.65 75.7 127.1 75.95 98.95 76.5 58.15 76.1
L 58.15 76.05 57.65 76.05 57.65 76
Q 57.25 75.95 56.85 75.95
L 54.75 75.95
Q 54.45 75.95 54.15 75.95 53.75 75.95 53.3 76 53 75.95 52.65 76
L 52.65 76.05 49.95 76.05 49.95 76.1
Q 8.15 76.55 -20.5 75.95 -33.05 75.7 -42.75 69.45
L -42.75 69.4
Q -50.1 64.7 -55.3 57.05 -59.6 50.75 -61.45 43.1 -61.5 43 -61.5 42.95
L -76.45 -17.1
Q -76.5 -17.15 -76.5 -17.2 -79.3 -26.9 -78.85 -31.7
L -78.85 -31.75
Q -78.85 -32.4 -78.85 -33.05 -80.55 -23.95 -78.45 -16.7 -78.45 -16.65 -78.4 -16.6
L -78.4 -16.55 -63.4 43.55
Q -61.45 51.6 -56.95 58.2 -51.55 66.15 -43.9 71.05
L -43.85 71.1
Q -33.65 77.7 -20.55 77.95 9.5 78.55 53.9 78.1 97.5 78.55 127.15 77.95 140.25 77.7 150.45 71.1
L 150.5 71.05
Q 158.15 66.15 163.55 58.2 168.05 51.6 170 43.55
L 185 -16.55 185 -16.6
Q 185.05 -16.65 185.05 -16.7 187.15 -23.95 185.45 -33.05 185.45 -32.4 185.45 -31.75
M -185.85 -96.25
L -184.45 -96.7
Q -182.75 -97.3 -180.85 -97.9 -171 -101.05 -160.95 -102.75 -149.6 -104.75 -135.7 -104.7 -124.5 -104.65 -120.1 -103.7 -120.05 -103.7 -120 -103.7 -115.35 -103.05 -114 -107.85 -113.95 -107.95 -113.95 -108.05 -113.65 -110.75 -114.75 -114.9
L -115.15 -116.45
Q -115.65 -110.6 -116.95 -108.5 -117.6 -106.45 -119.6 -106.65
L -119.45 -106.65
Q -124 -107.65 -135.7 -107.7 -149.9 -107.75 -160.4 -105.7 -170.95 -103.65 -176.05 -101.4 -181.2 -99.2 -185.85 -96.25
M 282.65 -101.4
Q 277.55 -103.65 267 -105.7 256.5 -107.75 242.3 -107.7 230.6 -107.65 226.05 -106.65
L 226.2 -106.65
Q 224.2 -106.45 223.55 -108.5 222.25 -110.6 221.75 -116.45
L 221.35 -114.9
Q 220.25 -110.75 220.55 -108.05 220.55 -107.95 220.6 -107.85 221.95 -103.05 226.6 -103.7 226.65 -103.7 226.7 -103.7 231.1 -104.65 242.3 -104.7 256.2 -104.75 267.55 -102.75 277.6 -101.05 287.45 -97.9 289.35 -97.3 291.05 -96.7
L 292.45 -96.25
Q 287.8 -99.2 282.65 -101.4 Z"/>
</g>

<path id="Layer1_0_1_STROKES" stroke="#FFFFFF" stroke-width="3" stroke-linejoin="round" stroke-linecap="round" fill="none" d="
M 214.1 -80.15
Q 214.05 -80.95 214.05 -81.75 214 -79.7 212.65 -78.05 211.45 -76.5 209.75 -75.3 207.65 -73.95 205.3 -73 201.6 -71.5 197.85 -70.95 193.05 -70 188.15 -69.7 183.2 -69.4 178.4 -69.1 174.95 -69.1 171.75 -69.2 166.85 -69.3 162 -69.4 159.35 -69.55 156.75 -69.7 151.95 -70 147.2 -70.3 143.6 -70.5 140 -70.65 136.2 -70.9 132.4 -71.05 128.4 -71.25 124.4 -71.45 120.15 -71.6 115.95 -71.75 111.55 -71.9 107.15 -72.05 102.5 -72.2 97.9 -72.3 93.05 -72.5 88.25 -72.6 83.85 -72.7 79.5 -72.8
L 52.65 -73.15 24.25 -72.75
Q 4.85 -72.35 -14.45 -71.55 -26.75 -71.05 -39.25 -70.4 -52.6 -69.25 -65.8 -69.15 -74.35 -69.1 -83.05 -69.85 -88.05 -70.25 -92.95 -71.3 -96.75 -72.25 -100.25 -73.8 -101.25 -74.2 -102.15 -74.75 -103.05 -75.25 -103.8 -75.85 -104.65 -76.55 -105.35 -77.3 -106 -78.05 -106.45 -78.85 -106.9 -79.65 -107.1 -80.5 -107.3 -81.45 -107.4 -82.35 -107.45 -81.25 -107.5 -80.15
M 193.25 -22.05
Q 194 -28.05 193.1 -34.45 190.2 -54.05 170.3 -61.3 167.55 -62.4 164.35 -63.1 160.85 -63.85 156.75 -64.1 156.7 -64.1 156.65 -64.1 138.05 -65.15 102 -66.65 90.75 -67.1 79.5 -67.35
L 57.15 -67.65 24.25 -67.25
Q 14.4 -67.05 4.6 -66.65 -22.1 -65.55 -39.25 -64.65 -45.25 -64.35 -50.05 -64.1 -54.2 -63.85 -57.75 -63.1 -60.95 -62.4 -63.7 -61.3 -83.6 -54.05 -86.5 -34.45 -87.4 -28.05 -86.65 -22.05 -86.45 -20 -85.95 -18 -85.35 -15.9 -84.65 -13.35
L -72.7 35.2 -70.95 42.1
Q -70.75 43.1 -70.6 44.15
L -69.35 49.4
Q -67 57.6 -62.65 64.35 -48.65 85.95 -19.85 85.4 8.95 84.85 49.95 85.35
L 58.15 85.35
Q 98.15 84.85 126.45 85.4 155.25 85.95 169.25 64.35 173.6 57.6 175.95 49.4
L 177.2 44.15
Q 177.35 43.1 177.55 42.1
L 179.3 35.2 191.25 -13.35
Q 191.95 -15.9 192.55 -18 193.05 -20 193.25 -22.05 193.95 -26.35 195 -31.4 197.05 -41.45 199.8 -44.9 203.25 -49.15 209.55 -51.7 218.3 -55.2 230.4 -54.2 229.05 -54.45 227.7 -54.95 221.6 -56.9 219.55 -59.7 217.25 -62.9 216.25 -65.25 214.95 -68.45 214.55 -73.15 214.45 -74.45 214.5 -75.8 214.55 -76.35 214.6 -76.9 214.9 -80.05 216.1 -83.55 217.6 -88.1 219.75 -91.35 221.95 -94.65 222.45 -95.2 223 -95.75 224.15 -96.45 225.3 -97.2 230.25 -97.85 235.25 -98.55 246.65 -98.6 258.1 -98.7 268.85 -96.8 281.2 -94.55 293 -90.3
L 302.3 -86.55
Q 302.95 -86.35 303.55 -86.05 303.95 -88.05 303.15 -90.15 302.4 -92.25 302.05 -92.7 301.8 -93.15 300.4 -96 299.05 -98.85 292.3 -108.1 285.55 -117.35 276.75 -124.4 267.95 -131.5 261.25 -134.35 254.55 -137.2 240.2 -135.2 231.15 -133.95 225.25 -129.65 220.9 -126.5 218.55 -122 218 -120.9 217.65 -119.75 217.55 -119.4 217.45 -119.05 215.85 -114.7 215.15 -110 213.4 -98.4 214 -82.35 214 -82.1 214.05 -81.85
L 214.05 -81.75
M 212.5 -85.45
L 165.95 -89.3
Q 161.35 -89.6 156.75 -89.85 118.3 -92.2 79.5 -92.85
L 24.25 -92.8
Q -7.6 -92.25 -39.25 -90.5 -49.3 -89.95 -59.35 -89.3
L -105.9 -85.45
M 303.55 -86.05
Q 306.1 -84.85 307.45 -82.5 308.85 -80.15 310.4 -77.15
L 312.05 -73
Q 313.85 -67.95 314.45 -63.6 316.35 -49.7 305.55 -48.1 294.7 -46.5 262.4 -50.05 246.25 -51.85 232.25 -53.95 231.3 -54.05 230.4 -54.2
M 179.3 35.2
L 177.2 44.15
Q 176.6 48.85 176.75 53.65 177.25 72.3 189.05 85.4 194.4 91.4 201.8 99.15 206 103.6 210.9 108.6 212.5 110.25 214.2 111.95 229.9 128.75 250.15 154.8 270.9 181.55 291.05 215.75 294.15 221 297.8 227.05 301.65 233.85 304.7 239.6 306 242.05 307.15 244.35
L 308.95 247.25
Q 309.9 248.6 311 249.7 312.6 251.35 314.45 252.5 315.35 253.1 318.55 254.05 320.6 254.7 327.65 253 340.35 249.9 351.75 239.6 356.35 235.45 360.7 230.2 361.15 229.7 361.55 229.15 362.4 228.1 363.2 227.05 377 208.75 382.5 188.05 383.05 185.9 383.6 183.75 388.15 164.9 387.55 142.1 386.35 97.1 362.45 27.5 343 -29.4 320.8 -70.95 322.25 -67.6 322.7 -64.25 323.15 -60.9 322.5 -54.9 321.85 -48.95 316.2 -44.35 310.65 -39.75 293.75 -40.4 276.9 -41.05 259.9 -43.85 242.95 -46.65 237.1 -47.55 231.3 -48.45 226.15 -49.2 220.6 -49.75 216 -49.15 201.95 -47.35 197.85 -35.1 195.6 -28.3 193.8 -22.2 193.25 -20.4 192.55 -18
M 209.65 5.9
Q 213 5.9 215.8 3.45 218.55 1.05 219.2 -2.4
L 221.55 -15.3
Q 222.2 -18.7 220.3 -21.15 218.4 -23.6 215.1 -23.6 211.8 -23.6 209 -21.15 206.2 -18.7 205.55 -15.3
L 203.15 -2.4
Q 202.55 1 204.45 3.45 206.35 5.9 209.65 5.9 Z
M 311.1 -76.2
Q 312.95 -76.25 315.05 -75.6 319.3 -74.35 320.8 -70.95
M 254.85 31.75
Q 260 34.45 267.1 34.55 275.45 34.25 281.6 29.3
L 282.2 28.85
Q 282.7 28.35 283.25 27.85 289.9 21.5 289.85 12.8 289.8 4.15 283.1 -1.75 276.35 -7.7 266.9 -7.35 257.4 -7.05 250.75 -0.65 244.1 5.7 244.15 14.4 244.2 23.05 250.9 29 252.75 30.65 254.85 31.75 Z
M 304.6 75.55
Q 309.75 78.25 316.85 78.35 325.2 78.05 331.35 73.1
L 331.95 72.65
Q 332.45 72.15 333 71.65 339.65 65.3 339.6 56.6 339.55 47.95 332.85 42.05 326.1 36.1 316.65 36.45 307.15 36.75 300.5 43.15 293.85 49.5 293.9 58.2 293.95 66.85 300.65 72.8 302.5 74.45 304.6 75.55 Z
M 330.65 56.85
Q 330.3 52.25 326.25 49.4 322.35 46.55 317.1 47.1 311.85 47.7 308.35 51.35 304.9 55.05 305.3 59.7 305.5 62.25 306.75 64.2 307.8 65.9 309.6 67.2 313.6 70.05 318.85 69.45 323.35 68.95 326.55 66.15 327.05 65.7 327.5 65.2 331 61.5 330.65 56.85 Z
M 255.6 21.5
L 267.7 1.95 280 20.7 255.6 21.5 Z
M 253.4 118.65
Q 258.55 121.35 265.65 121.45 274 121.15 280.15 116.2
L 280.75 115.75
Q 281.25 115.25 281.8 114.75 288.45 108.4 288.4 99.7 288.35 91.05 281.65 85.15 274.9 79.2 265.45 79.55 255.95 79.85 249.3 86.25 242.65 92.6 242.7 101.3 242.75 109.95 249.45 115.9 251.3 117.55 253.4 118.65 Z
M 202.75 77.3
Q 207.9 80 215 80.1 223.35 79.8 229.5 74.85
L 230.1 74.4
Q 230.6 73.9 231.15 73.4 237.8 67.05 237.75 58.35 237.7 49.7 231 43.8 224.25 37.85 214.8 38.2 205.3 38.5 198.65 44.9 192 51.25 192.05 59.95 192.1 68.6 198.8 74.55 200.65 76.2 202.75 77.3 Z
M 225.1 69.1
L 204.3 68.85 204.3 51.45 225.1 51.75 225.1 69.1 Z
M 206.45 167.8
L 211.05 167.8
Q 214.35 167.6 219 169.05 228.3 172 234.85 180.45
L 280.65 238.65
Q 281.1 239.15 281.5 239.6 284.65 242.95 288.05 245.5 297.25 252.45 318.55 254.05
M 121.6 170.5
Q 120.5 166.05 120.5 161.15 120.5 145.65 131.5 134.65 142.45 123.7 158 123.7 173.5 123.7 184.5 134.65 195.45 145.65 195.45 161.15 195.45 166.15 194.3 170.65 199.6 161.5 199.6 150.15 199.6 132.9 187.4 120.7 175.25 108.5 158 108.5 153.2 108.5 148.8 109.45 137.35 111.9 128.55 120.7 126.7 122.55 125.15 124.5 116.35 135.5 116.35 150.15 116.35 155.85 117.9 161.45 119.25 166.3 121.6 170.5 123 176.15 126.15 181.1 128.4 184.55 131.5 187.65 142.45 198.65 158 198.65 173.5 198.65 184.5 187.65 191.95 180.2 194.3 170.65
M 203.35 168.9
Q 201.3 170.95 198.95 172.9 195.65 175.65 192.05 177.9
M 275.6 109.65
L 266.15 101.2 256.6 109.65
M 275.6 92.65
L 266.15 101.2 256.6 92.65
M -18.15 180.5
Q -12.15 177.45 -6.85 173.1 -6.7 173 -6.6 172.9 -6.4 172.75 -6.15 172.55
L 112.75 172.55
Q 113 172.75 113.2 172.9 113.3 173 113.45 173.1 119.35 177.95 126.15 181.1
M -107.4 -82.35
Q -106.8 -98.4 -108.55 -110 -109.25 -114.7 -110.85 -119.05 -110.95 -119.4 -111.05 -119.75 -111.4 -120.9 -111.95 -122 -114.3 -126.5 -118.65 -129.65 -124.55 -133.95 -133.6 -135.2 -147.95 -137.2 -154.65 -134.35 -161.35 -131.5 -170.15 -124.4 -178.95 -117.35 -185.7 -108.1 -192.45 -98.85 -193.8 -96 -195.2 -93.15 -195.45 -92.7 -195.8 -92.25 -196.55 -90.15 -197.35 -88.05 -196.95 -86.05 -196.35 -86.35 -195.7 -86.55
L -186.4 -90.3
Q -174.6 -94.55 -162.25 -96.8 -151.5 -98.7 -140.05 -98.6 -128.65 -98.55 -123.65 -97.85 -118.7 -97.2 -117.55 -96.45 -116.4 -95.75 -115.85 -95.2 -115.35 -94.65 -113.15 -91.35 -111 -88.1 -109.5 -83.55 -108.3 -80.05 -108 -76.9 -107.95 -76.35 -107.9 -75.8 -107.85 -74.45 -107.95 -73.15 -108.35 -68.45 -109.65 -65.25 -110.65 -62.9 -112.95 -59.7 -115 -56.9 -121.1 -54.95 -122.45 -54.45 -123.8 -54.2 -111.7 -55.2 -102.95 -51.7 -96.65 -49.15 -93.2 -44.9 -90.45 -41.45 -88.4 -31.4 -87.35 -26.35 -86.65 -22.05
M -196.95 -86.05
Q -199.5 -84.85 -200.85 -82.5 -202.25 -80.15 -203.8 -77.15
L -205.45 -73
Q -207.25 -67.95 -207.85 -63.6 -209.75 -49.7 -198.95 -48.1 -188.1 -46.5 -155.8 -50.05 -139.65 -51.85 -125.65 -53.95 -124.7 -54.05 -123.8 -54.2
M -204.5 -76.2
Q -206.35 -76.25 -208.45 -75.6 -212.7 -74.35 -214.2 -70.95 -215.65 -67.6 -216.1 -64.25 -216.55 -60.9 -215.9 -54.9 -215.25 -48.95 -209.6 -44.35 -204.05 -39.75 -187.15 -40.4 -170.3 -41.05 -153.3 -43.85 -136.35 -46.65 -130.5 -47.55 -124.7 -48.45 -119.55 -49.2 -114 -49.75 -109.4 -49.15 -95.35 -47.35 -91.25 -35.1 -89 -28.3 -87.2 -22.2 -86.65 -20.4 -85.95 -18
M -103.2 5.9
Q -106.5 5.9 -109.3 3.45 -112.1 1.05 -112.75 -2.4
L -115.1 -15.3
Q -115.75 -18.7 -113.85 -21.15 -111.95 -23.6 -108.65 -23.6 -105.3 -23.6 -102.5 -21.15 -99.75 -18.7 -99.1 -15.3
L -96.7 -2.4
Q -96.1 1 -98 3.45 -99.9 5.9 -103.2 5.9 Z
M -214.2 -70.95
Q -236.4 -29.4 -255.85 27.5 -279.75 97.1 -280.95 142.1 -281.55 164.9 -277 183.75 -276.45 185.9 -275.9 188.05 -270.15 209.65 -256.55 227.25 -255.75 228.3 -254.9 229.35 -254.5 229.9 -254.05 230.4 -249.7 235.65 -245.1 239.8 -233.7 250.1 -221 253.2 -213.95 254.9 -211.9 254.25 -208.7 253.3 -207.8 252.7 -205.95 251.55 -204.35 249.9 -203.25 248.8 -202.3 247.45
L -200.5 244.55
Q -199.35 242.25 -198.05 239.8 -195 234.05 -191.15 227.25 -188.55 222.65 -185.55 217.6 -185 216.7 -184.45 215.75 -164.3 181.55 -143.55 154.8 -123.3 128.75 -107.6 111.95 -105.9 110.25 -104.3 108.6 -99.4 103.6 -95.2 99.15 -87.8 91.4 -82.45 85.4 -70.65 72.3 -70.15 53.65 -70 48.85 -70.6 44.15
L -72.7 35.2
M -148.9 53.6
L -140.2 44.8
Q -135.65 40.2 -129 39.8
L -115.05 39
Q -110.35 38.7 -106.95 41.3 -103.6 43.85 -102.75 48.25
L -102.35 51.3
Q -101.95 54.9 -101.8 57.95 -101.6 61.3 -101.85 66.55 -102.4 71.6 -105.5 74.4 -108.65 77.2 -113.45 76.95
L -127.45 76.1
Q -134.1 75.7 -139.1 71.15
L -148.55 62.3
Q -150.45 60.5 -150.55 57.95 -150.65 55.45 -148.9 53.6 Z
M -158.25 51
Q -160.45 50.8 -162.15 49.25
L -171.35 40.65
Q -176.1 36.25 -176.75 29.8
L -178.15 16.55
Q -178.6 12.1 -176.1 9 -173.7 5.9 -169.35 5.3
L -166.35 5.05
Q -162.7 4.75 -159.65 4.75 -156.35 4.75 -151.1 5.15 -146 5.85 -143.05 8.95 -140.1 12.05 -140.2 16.55
L -140.5 29.8
Q -140.65 36.25 -145 40.65
L -153.45 49.25
Q -155 50.8 -157.1 51
L -157.6 51
Q -157.65 51 -157.7 51
L -158.25 51 Z
M -157.7 64.8
Q -159.85 65 -161.4 66.55
L -169.9 75.15
Q -174.25 79.55 -174.4 86
L -174.7 99.25
Q -174.75 103.7 -172 106.8 -169.35 109.9 -164.9 110.5
L -161.9 110.75
Q -158.25 111.05 -155.2 111.05 -151.9 111.05 -146.65 110.65 -141.65 109.95 -138.9 106.85 -136.25 103.75 -136.75 99.25
L -138.15 86
Q -138.8 79.55 -143.55 75.15
L -152.7 66.55
Q -154.4 65 -156.55 64.8
L -157.05 64.8
Q -157.1 64.8 -157.15 64.8
L -157.7 64.8 Z
M -96.75 168.9
Q -94.7 170.95 -92.35 172.9 -88.65 175.95 -84.6 178.4
M -14.45 170.5
Q -13.35 166.05 -13.35 161.15 -13.35 145.65 -24.35 134.65 -35.3 123.7 -50.85 123.7 -66.35 123.7 -77.35 134.65 -88.3 145.65 -88.3 161.15 -88.3 166.15 -87.15 170.65 -84.8 180.2 -77.35 187.65 -66.35 198.65 -50.85 198.65 -35.3 198.65 -24.35 187.65 -16.8 180.15 -14.45 170.5 -12.1 166.3 -10.75 161.45 -9.2 155.85 -9.2 150.15 -9.2 135.5 -18 124.5 -19.55 122.55 -21.4 120.7 -30.2 111.9 -41.65 109.45 -46.05 108.5 -50.85 108.5 -68.1 108.5 -80.25 120.7 -92.45 132.9 -92.45 150.15 -92.45 161.5 -87.15 170.65
M -99.85 167.8
L -104.45 167.8
Q -107.75 167.6 -112.4 169.05 -121.7 172 -128.25 180.45
L -174 238.85
Q -174.45 239.35 -174.85 239.8 -178 243.15 -181.4 245.7 -190.6 252.65 -211.9 254.25
M -166.2 53.6
L -175.6 44.8
Q -180.55 40.2 -187.3 39.8
L -201.25 39
Q -205.95 38.7 -209.15 41.3 -212.3 43.85 -212.75 48.25
L -212.95 51.3
Q -213.05 54.9 -212.9 57.95 -212.8 61.3 -212.15 66.55 -211.2 71.6 -207.8 74.4 -204.45 77.2 -199.65 76.95
L -185.75 76.1
Q -179.1 75.7 -174.5 71.15
L -165.85 62.3
Q -164.05 60.5 -164.15 57.95 -164.25 55.45 -166.2 53.6 Z"/>

<path id="Layer1_0_2_STROKES" stroke="#FFFFFF" stroke-width="2" stroke-linejoin="round" stroke-linecap="round" fill="none" d="
M 210.25 -37.7
L 218.85 -37.7
M 210.25 -33.9
L 218.85 -33.9
M 210.25 -30.1
L 218.85 -30.1
M -108.95 -36.95
L -108.95 -31.45
M -114.9 -34.05
L -113.1 -30.55
M -102.9 -34.55
L -104.8 -30.65"/>

</defs>

<g transform="matrix( 1, 0, 0, 1, 0,0) ">
<use xlink:href="#Layer1_0_FILL"/>

<use xlink:href="#Layer1_0_1_STROKES"/>

<use xlink:href="#Layer1_0_2_STROKES"/>
</g>

<g transform="matrix( 1, 0, 0, 1, -3.4,-28) ">
<clipPath id="Mask_Mask_1">
<rect x="8.35" y="-2" width="90.1" height="20.8" fill="#FFFFFF" stroke="none"/>
</clipPath>

<text clip-path="url(#Mask_Mask_1)" writing-mode="lr"><tspan x="10.45" y="13.6" baseline-shift="0%" kerning="auto" font-family="Arial_Regular" font-size="15" fill="#999999" xml:space="preserve">Playstation 5</tspan></text>
</g>
</svg>
