
<svg xmlns="http://www.w3.org/2000/svg" version="1.1" xmlns:xlink="http://www.w3.org/1999/xlink" x="0px" y="0px" viewBox="0 0 100 100">
<defs>
<g id="Layer1_0_FILL">
<path fill="#1B1B1B" stroke="none" d="
M 78.55 21.4
L 78.6 21.4
Q 66.8 9.6 50 9.6 48.480078125 9.6 47 9.7 32.1701171875 10.670703125 21.35 21.4 12.11484375 30.67421875 10.1 42.95 9.55 46.3591796875 9.55 50 9.55 66.75 21.35 78.6
L 21.35 78.65
Q 33.25 90.45 50 90.45 66.75 90.45 78.55 78.65
L 78.6 78.6
Q 90.45 66.75 90.45 50 90.45 33.2 78.55 21.4
M 47 13.7
Q 48.477734375 13.6 50 13.6 65.1 13.6 75.75 24.25 86.45 34.9 86.45 50 86.45 65.1 75.75 75.8 65.1 86.45 50 86.45 34.9 86.45 24.2 75.8
L 24.15 75.8
Q 13.55 65.1 13.55 50 13.55 46.34453125 14.15 42.95 16.116015625 32.321875 24.15 24.25
L 24.2 24.2
Q 33.8212890625 14.6685546875 47 13.7 Z"/>

<path fill="#313131" stroke="none" d="
M 50 13.6
Q 48.477734375 13.6 47 13.7 33.8212890625 14.6685546875 24.2 24.2
L 24.15 24.25
Q 16.116015625 32.321875 14.15 42.95 13.55 46.34453125 13.55 50 13.55 65.1 24.15 75.8
L 24.2 75.8
Q 34.9 86.45 50 86.45 65.1 86.45 75.75 75.8 86.45 65.1 86.45 50 86.45 34.9 75.75 24.25 65.1 13.6 50 13.6
M 47 17.1
Q 48.4751953125 17 50 17 63.6 17 73.3 26.6
L 73.35 26.6
Q 83 36.25 83 50 83 63.65 73.35 73.35 63.65 83 50 83 36.25 83 26.6 73.35
L 26.6 73.3
Q 17 63.6 17 50 17 46.331640625 17.7 42.95 19.5705078125 33.702734375 26.6 26.6 35.2205078125 18.0685546875 47 17.1 Z"/>

<path fill="#626262" stroke="none" d="
M 50 17
Q 48.4751953125 17 47 17.1 35.2205078125 18.0685546875 26.6 26.6 19.5705078125 33.702734375 17.7 42.95 17 46.331640625 17 50 17 63.6 26.6 73.3
L 26.6 73.35
Q 36.25 83 50 83 63.65 83 73.35 73.35 83 63.65 83 50 83 36.25 73.35 26.6
L 73.3 26.6
Q 63.6 17 50 17
M 47 20.1
Q 48.4720703125 20 50 20 62.4 20 71.15 28.75 79.95 37.5 79.95 50 79.95 62.35 71.15 71.15 62.35 79.95 50 79.95 37.5 79.95 28.75 71.15 20 62.4 20 50 20 46.3119140625 20.75 42.95 22.566796875 34.918359375 28.7 28.75
L 28.75 28.7
Q 36.43046875 21.0634765625 47 20.1 Z"/>

<path fill="#4F4F4F" stroke="none" d="
M 50 20
Q 48.4720703125 20 47 20.1 36.43046875 21.0634765625 28.75 28.7
L 28.7 28.75
Q 22.566796875 34.918359375 20.75 42.95 20 46.3119140625 20 50 20 62.4 28.75 71.15 37.5 79.95 50 79.95 62.35 79.95 71.15 71.15 79.95 62.35 79.95 50 79.95 37.5 71.15 28.75 62.4 20 50 20
M 50 50
L 63 63 50 50 37 63 50 50 37.05 37.05 50 50 62.95 37.05 50 50 Z"/>
</g>

<path id="Layer1_0_1_STROKES" stroke="#7EABE2" stroke-width="5" stroke-linejoin="round" stroke-linecap="round" fill="none" d="
M 62.95 37.05
L 50 50 63 63
M 37 63
L 50 50 37.05 37.05"/>

</defs>

<g transform="matrix( 1, 0, 0, 1, 0,0) ">
<use xlink:href="#Layer1_0_FILL"/>

<use xlink:href="#Layer1_0_1_STROKES"/>
</g>

<g transform="matrix( 1, 0, 0, 1, -3.4,-28) ">
<clipPath id="Mask_Mask_1">
<rect x="8.35" y="-2" width="90.1" height="20.8" fill="#FFFFFF" stroke="none"/>
</clipPath>

<text clip-path="url(#Mask_Mask_1)" writing-mode="lr"><tspan x="10.45" y="13.6" baseline-shift="0%" kerning="auto" font-family="Arial_Regular" font-size="15" fill="#999999" xml:space="preserve">Playstation 4</tspan></text>
</g>
</svg>
