
<svg xmlns="http://www.w3.org/2000/svg" version="1.1" xmlns:xlink="http://www.w3.org/1999/xlink" x="0px" y="0px" viewBox="0 0 100 100">
<defs>
<g id="Layer1_0_FILL">
<path fill="#313131" stroke="none" d="
M 88.15 76.25
Q 88.65 66.65 86.7 56.6 84.85 46.95 79.7 38.85 74.75 30.9 66.7 27.35 52.55 22.15 38.3 24.05 24.05 25.9 17.4 35.5 12.45 43.5 11.7 53.55
L 11.7 61.45
Q 22.1 68.6 37.8 72.15 61 77.4 88.15 76.25
M 69 45.15
L 69.05 45.25
Q 73.3 51.9 74.8 59.85
L 74.8 59.9
Q 75.7 64.5 76 69 55.1 69.05 36.7 64.95 25.7 62.45 17.65 58
L 17.65 55.45
Q 18.25 48.1 21.75 42.2
L 21.75 42.15
Q 26.55 35.8 36.4 34.55
L 36.45 34.55
Q 48.45 32.95 60.35 37.3
L 60.4 37.3
Q 65.7 39.8 69 45.15 Z"/>

<path fill="#4F4F4F" stroke="none" d="
M 69.05 45.25
L 69 45.15
Q 65.7 39.8 60.4 37.3
L 60.35 37.3
Q 48.45 32.95 36.45 34.55
L 36.4 34.55
Q 26.55 35.8 21.75 42.15
L 21.75 42.2
Q 18.25 48.1 17.65 55.45
L 17.65 58
Q 25.7 62.45 36.7 64.95 55.1 69.05 76 69 75.7 64.5 74.8 59.9
L 74.8 59.85
Q 73.3 51.9 69.05 45.25
M 49.65 44.4
L 52.75 45.05 52.75 60.65 49.6 60 49.6 48.1 46.45 50.2 44.6 47.7 49.65 44.4
M 33.15 41.05
L 36.6 41.75 36.6 54.2 42.95 55.5 42.95 58.65 33.15 56.65 33.15 41.05 Z"/>

<path fill="#8C8C8C" stroke="none" d="
M 36.6 41.75
L 33.15 41.05 33.15 56.65 42.95 58.65 42.95 55.5 36.6 54.2 36.6 41.75
M 52.75 45.05
L 49.65 44.4 44.6 47.7 46.45 50.2 49.6 48.1 49.6 60 52.75 60.65 52.75 45.05 Z"/>
</g>

<path id="Layer1_0_1_STROKES" stroke="#626262" stroke-width="5" stroke-linejoin="round" stroke-linecap="round" fill="none" d="
M 69 45.15
Q 65.7 39.8 60.4 37.3
L 60.35 37.3
Q 48.45 32.95 36.45 34.55
L 36.4 34.55
Q 26.55 35.8 21.75 42.15
L 21.75 42.2
Q 18.25 48.1 17.65 55.45
L 17.65 58
Q 25.7 62.45 36.7 64.95 55.1 69.05 76 69 75.7 64.5 74.8 59.9
L 74.8 59.85
Q 73.3 51.9 69.05 45.25
L 69 45.15 Z"/>

<path id="Layer1_0_2_STROKES" stroke="#202020" stroke-width="5" stroke-linejoin="round" stroke-linecap="round" fill="none" d="
M 66.7 27.35
Q 74.75 30.9 79.7 38.85 84.85 46.95 86.7 56.6 88.65 66.65 88.15 76.25 61 77.4 37.8 72.15 22.1 68.6 11.7 61.45
L 11.7 53.55
Q 12.45 43.5 17.4 35.5 24.05 25.9 38.3 24.05 52.55 22.15 66.7 27.35 Z"/>

</defs>

<g transform="matrix( 1, 0, 0, 1, 0,0) ">
<use xlink:href="#Layer1_0_FILL"/>

<use xlink:href="#Layer1_0_1_STROKES"/>

<use xlink:href="#Layer1_0_2_STROKES"/>
</g>

<g transform="matrix( 1, 0, 0, 1, -3.4,-28) ">
<clipPath id="Mask_Mask_1">
<rect x="8.35" y="-2" width="90.1" height="20.8" fill="#FFFFFF" stroke="none"/>
</clipPath>

<text clip-path="url(#Mask_Mask_1)" writing-mode="lr"><tspan x="10.45" y="13.6" baseline-shift="0%" kerning="auto" font-family="Arial_Regular" font-size="15" fill="#999999" xml:space="preserve">Playstation 4</tspan></text>
</g>
</svg>
