<?xml version="1.0" encoding="utf-8"?>
<!-- Generator: Adobe Illustrator 24.1.2, SVG Export Plug-In . SVG Version: 6.00 Build 0)  -->
<svg version="1.1" id="Layer_1" xmlns="http://www.w3.org/2000/svg" xmlns:xlink="http://www.w3.org/1999/xlink" x="0px" y="0px"
	 viewBox="0 0 100 100" style="enable-background:new 0 0 100 100;" xml:space="preserve">
<style type="text/css">
	.st0{fill:#313131;}
	.st1{fill:#4F4F4F;}
	.st2{fill:#8C8C8C;}
	.st3{fill:none;stroke:#202020;stroke-width:5;stroke-linecap:round;stroke-linejoin:round;}
	.st4{fill:none;stroke:#626262;stroke-width:4;stroke-linecap:round;stroke-linejoin:round;}
</style>
<g transform="matrix( 1, 0, 0, 1, 0,0) ">
	<g>
		<g id="Layer1_0_FILL">
			<path class="st0" d="M46,56.2V30.3c-0.4-2.1-1.9-3.6-4.6-4.4H6.9c-1.7,1.7-2.6,4.5-2.7,8.6c1.5,8.7,1.5,17.8,0,27.2
				c-0.5,2.8,0.3,5.6,2.4,8.5c2.1,1.9,4.8,3.1,8.1,3.7c6.5,1,12-0.3,16.4-4.1l4-8.4C38,57.7,41.7,56,46,56.2 M29.9,29.8
				c1.7,1,2.4,2.5,2.1,4.5C32.1,40,31.4,45.6,30,51c-1,3.8-2.5,7.3-4.5,10.7c-1.2,2.4-2.9,4.6-5,6.7c-2.3,1.3-4.8,1.7-7.4,1.1
				c-3.5-1.2-5.2-3.1-5.3-5.9c1-5.4,1.6-11.5,1.6-18.2c-0.2-4.2-0.6-8.2-1.4-12c-0.1-1.5,0.4-2.7,1.5-3.6H29.9z"/>
			<path class="st1" d="M32,34.3c0.3-2-0.4-3.5-2.1-4.5H9.5c-1.1,0.9-1.6,2-1.5,3.6c0.7,3.8,1.2,7.9,1.4,12c0,6.7-0.5,12.7-1.6,18.2
				c0.1,2.8,1.9,4.8,5.3,5.9c2.6,0.6,5.1,0.2,7.4-1.1c2.1-2.1,3.7-4.3,5-6.7c2-3.3,3.4-6.9,4.5-10.7C31.4,45.6,32.1,40,32,34.3
				 M27.7,35.2c0.1,0.4,0.2,0.8,0.2,1.3c0,0.3,0,0.6-0.1,0.8c-0.1,0.2-0.1,0.5-0.2,0.7c-0.1,0.2-0.3,0.4-0.4,0.6
				c-0.2,0.2-0.3,0.4-0.5,0.5l-2.9,2.5H28v1.8h-6.7v-2.1l3.7-3.3c0.2-0.2,0.4-0.4,0.6-0.6c0.2-0.2,0.3-0.5,0.3-0.7
				c0-0.3-0.1-0.6-0.3-0.8c-0.2-0.2-0.5-0.3-0.8-0.3c-0.4,0-0.7,0.1-0.9,0.3c-0.2,0.2-0.3,0.5-0.3,0.9l-2-0.1c0-0.5,0.1-0.9,0.3-1.3
				c0.2-0.4,0.4-0.7,0.7-0.9c0.3-0.2,0.6-0.4,1-0.6s0.8-0.2,1.3-0.2c0.4,0,0.8,0.1,1.2,0.2c0.4,0.1,0.7,0.3,1,0.6
				C27.3,34.6,27.5,34.9,27.7,35.2 M19.2,41.4v1.9h-6v-9.6h2.1v7.6H19.2z"/>
			<path class="st2" d="M19.2,43.4v-1.9h-3.9v-7.6h-2.1v9.6H19.2 M27.9,36.5c0-0.5-0.1-0.9-0.2-1.3c-0.2-0.4-0.4-0.7-0.7-0.9
				c-0.3-0.2-0.6-0.4-1-0.6c-0.4-0.1-0.8-0.2-1.2-0.2c-0.5,0-0.9,0.1-1.3,0.2s-0.8,0.3-1,0.6c-0.3,0.2-0.5,0.6-0.7,0.9
				c-0.2,0.3-0.3,0.8-0.3,1.3l2,0.1c0-0.3,0.1-0.6,0.3-0.9c0.2-0.2,0.5-0.3,0.9-0.3c0.3,0,0.6,0.1,0.8,0.3c0.2,0.2,0.3,0.4,0.3,0.8
				c0,0.3-0.1,0.5-0.3,0.7c-0.2,0.2-0.4,0.4-0.6,0.6l-3.7,3.3v2.1H28v-1.8h-4.2l2.9-2.5c0.2-0.2,0.3-0.3,0.5-0.5
				c0.1-0.2,0.3-0.3,0.4-0.6c0.1-0.2,0.2-0.4,0.2-0.7C27.8,37.1,27.9,36.8,27.9,36.5z"/>
		</g>
	</g>
	<g>
		<path id="Layer1_0_1_STROKES" class="st3" d="M46,56.2V30.3c-0.4-2.1-1.9-3.6-4.6-4.4H6.9c-1.7,1.7-2.6,4.5-2.7,8.6
			c1.5,8.7,1.5,17.8,0,27.2c-0.5,2.8,0.3,5.6,2.4,8.5c2.1,1.9,4.8,3.1,8.1,3.7c6.5,1,12-0.3,16.4-4.1l4-8.4C38,57.7,41.7,56,46,56.2
			z"/>
	</g>
	<g>
		<path id="Layer1_0_2_STROKES" class="st4" d="M29.9,29.8c1.7,1,2.4,2.5,2.1,4.5C32.1,40,31.4,45.6,30,51c-1,3.8-2.5,7.3-4.5,10.7
			c-1.2,2.4-2.9,4.6-5,6.7c-2.3,1.3-4.8,1.7-7.4,1.1c-3.5-1.2-5.2-3.1-5.3-5.9c1-5.4,1.6-11.5,1.6-18.2c-0.2-4.2-0.6-8.2-1.4-12
			c-0.1-1.5,0.4-2.7,1.5-3.6H29.9z"/>
	</g>
</g>
<g transform="matrix( 1, 0, 0, 1, 0,0) ">
	<g>
		<g id="Layer1_0_FILL_1_">
			<path class="st0" d="M95.9,34.4c-0.2-4.1-1.1-6.9-2.7-8.6H58.6c-2.7,0.8-4.2,2.3-4.6,4.4v25.9c4.3-0.2,8,1.6,11,5.2l4,8.4
				c4.4,3.7,9.9,5.1,16.4,4.1c3.3-0.5,6-1.7,8.1-3.7c2.1-2.9,2.9-5.7,2.4-8.5C94.4,52.2,94.4,43.2,95.9,34.4 M90.5,29.8
				c1.1,0.9,1.6,2,1.5,3.6c-0.7,3.8-1.2,7.9-1.4,12c0,6.7,0.5,12.7,1.6,18.2c-0.1,2.8-1.9,4.8-5.3,5.9c-2.6,0.6-5.1,0.2-7.4-1.1
				c-2.1-2.1-3.7-4.3-5-6.7c-2-3.3-3.4-6.9-4.5-10.7C68.6,45.6,67.9,40,68,34.3c-0.3-2,0.4-3.5,2.1-4.5H90.5z"/>
			<path class="st1" d="M92,33.3c0.1-1.5-0.4-2.7-1.5-3.6H70.1c-1.7,1-2.4,2.5-2.1,4.5C67.9,40,68.6,45.6,70,51
				c1,3.8,2.5,7.3,4.5,10.7c1.2,2.4,2.9,4.6,5,6.7c2.3,1.3,4.8,1.7,7.4,1.1c3.5-1.2,5.2-3.1,5.3-5.9c-1-5.4-1.6-11.5-1.6-18.2
				C90.8,41.2,91.3,37.2,92,33.3 M77.2,33.9c0.5,0.1,0.8,0.3,1.2,0.5c0.3,0.2,0.6,0.5,0.8,0.9c0.2,0.4,0.3,0.9,0.3,1.4
				c0,0.7-0.2,1.2-0.6,1.7c-0.3,0.5-0.9,0.8-1.5,0.9l2.4,4.1h-2.5l-2-3.8h-1v3.8h-2.1v-9.6h3.7C76.3,33.8,76.7,33.8,77.2,33.9
				 M86.9,35.2c0.1,0.4,0.2,0.8,0.2,1.3c0,0.3,0,0.6-0.1,0.8c-0.1,0.2-0.1,0.5-0.2,0.7c-0.1,0.2-0.3,0.4-0.4,0.6
				c-0.2,0.2-0.3,0.4-0.5,0.5L83,41.6h4.2v1.8h-6.7v-2.1l3.7-3.3c0.2-0.2,0.4-0.4,0.6-0.6c0.2-0.2,0.3-0.5,0.3-0.7
				c0-0.3-0.1-0.6-0.3-0.8c-0.2-0.2-0.5-0.3-0.8-0.3c-0.4,0-0.7,0.1-0.9,0.3c-0.2,0.2-0.3,0.5-0.3,0.9l-2-0.1c0-0.5,0.1-0.9,0.3-1.3
				c0.2-0.4,0.4-0.7,0.7-0.9c0.3-0.2,0.6-0.4,1-0.6s0.8-0.2,1.3-0.2c0.4,0,0.8,0.1,1.2,0.2c0.4,0.1,0.7,0.3,1,0.6
				C86.5,34.6,86.7,34.9,86.9,35.2 M76.1,35.6c-0.2,0-0.4-0.1-0.6-0.1h-1.4v2.2h1.3c0.2,0,0.4,0,0.6,0c0.2,0,0.4-0.1,0.6-0.1
				c0.2-0.1,0.3-0.2,0.4-0.3c0.1-0.1,0.2-0.3,0.2-0.6c0-0.2,0-0.4-0.1-0.6c-0.1-0.1-0.2-0.3-0.4-0.3C76.5,35.7,76.3,35.6,76.1,35.6z
				"/>
			<path class="st2" d="M87.1,36.5c0-0.5-0.1-0.9-0.2-1.3c-0.2-0.4-0.4-0.7-0.7-0.9c-0.3-0.2-0.6-0.4-1-0.6
				c-0.4-0.1-0.8-0.2-1.2-0.2c-0.5,0-0.9,0.1-1.3,0.2s-0.8,0.3-1,0.6c-0.3,0.2-0.5,0.6-0.7,0.9c-0.2,0.3-0.3,0.8-0.3,1.3l2,0.1
				c0-0.3,0.1-0.6,0.3-0.9c0.2-0.2,0.5-0.3,0.9-0.3c0.3,0,0.6,0.1,0.8,0.3c0.2,0.2,0.3,0.4,0.3,0.8c0,0.3-0.1,0.5-0.3,0.7
				c-0.2,0.2-0.4,0.4-0.6,0.6l-3.7,3.3v2.1h6.7v-1.8H83l2.9-2.5c0.2-0.2,0.3-0.3,0.5-0.5c0.1-0.2,0.3-0.3,0.4-0.6
				c0.1-0.2,0.2-0.4,0.2-0.7C87.1,37.1,87.1,36.8,87.1,36.5 M78.3,34.4c-0.3-0.2-0.7-0.4-1.2-0.5c-0.4-0.1-0.9-0.2-1.4-0.2h-3.7v9.6
				h2.1v-3.8h1l2,3.8h2.5l-2.4-4.1c0.7-0.1,1.2-0.4,1.5-0.9c0.4-0.5,0.6-1,0.6-1.7c0-0.6-0.1-1-0.3-1.4
				C78.9,34.9,78.7,34.6,78.3,34.4 M75.6,35.6c0.2,0,0.4,0,0.6,0.1c0.2,0,0.4,0.1,0.5,0.2c0.2,0.1,0.3,0.2,0.4,0.3
				c0.1,0.1,0.1,0.3,0.1,0.6c0,0.2-0.1,0.4-0.2,0.6c-0.1,0.1-0.3,0.3-0.4,0.3c-0.2,0.1-0.4,0.1-0.6,0.1c-0.2,0-0.4,0-0.6,0h-1.3
				v-2.2H75.6z"/>
		</g>
	</g>
	<g>
		<path id="Layer1_0_1_STROKES_1_" class="st4" d="M92,33.3c0.1-1.5-0.4-2.7-1.5-3.6H70.1c-1.7,1-2.4,2.5-2.1,4.5
			C67.9,40,68.6,45.6,70,51c1,3.8,2.5,7.3,4.5,10.7c1.2,2.4,2.9,4.6,5,6.7c2.3,1.3,4.8,1.7,7.4,1.1c3.5-1.2,5.2-3.1,5.3-5.9
			c-1-5.4-1.6-11.5-1.6-18.2C90.8,41.2,91.3,37.2,92,33.3z"/>
	</g>
	<g>
		<path id="Layer1_0_2_STROKES_1_" class="st3" d="M93.1,25.8c1.7,1.7,2.6,4.5,2.7,8.6c-1.5,8.7-1.5,17.8,0,27.2
			c0.5,2.8-0.3,5.6-2.4,8.5c-2.1,1.9-4.8,3.1-8.1,3.7c-6.5,1-12-0.3-16.4-4.1l-4-8.4c-3-3.6-6.7-5.4-11-5.2V30.3
			c0.4-2.1,1.9-3.6,4.6-4.4H93.1z"/>
	</g>
</g>
</svg>
