
<svg xmlns="http://www.w3.org/2000/svg" version="1.1" xmlns:xlink="http://www.w3.org/1999/xlink" x="0px" y="0px" viewBox="0 0 100 100">
<defs>
<g id="Layer1_0_FILL">
<path fill="#1B1B1B" stroke="none" d="
M 74.35 79.05
Q 73.8 78 72.9 77.4 72 76.75 70.75 76.5 69.55 76.25 68.2 76.25
L 61.35 76.25 61.35 93.95 65.25 93.95 65.25 86.85 67.15 86.85 70.85 93.95 75.55 93.95 71.05 86.45
Q 72.9 86.15 73.9 84.8 74.85 83.5 74.85 81.6 74.85 80.05 74.35 79.05
M 67.8 79.55
Q 68.35 79.55 68.9 79.6 69.4 79.7 69.85 79.9 70.25 80.1 70.55 80.5 70.8 80.95 70.8 81.6 70.8 82.35 70.5 82.7 70.2 83.1 69.7 83.3 69.25 83.5 68.65 83.55 68.05 83.55 67.55 83.55
L 65.25 83.55 65.25 79.55 67.8 79.55
M 45.25 93.95
L 46.75 90.2 53.6 90.2 55.15 93.95 59.55 93.95 51.85 76.25 48.65 76.25 41 93.95 45.25 93.95
M 47.95 86.9
L 50.15 81.4 52.3 86.9 47.95 86.9
M 35.3 76.25
L 35.3 82.85 27.7 82.85 27.7 76.25 23.8 76.25 23.8 93.95 27.7 93.95 27.7 86.3 35.3 86.3 35.3 93.95 39.2 93.95 39.2 76.25 35.3 76.25
M 18.35 76.25
Q 16.95 75.8 15.45 75.8 14.15 75.8 12.9 76.15 11.7 76.5 10.75 77.25 9.8 77.95 9.25 79.05 8.7 80.1 8.7 81.55 8.7 83 9.3 83.95 9.95 84.8 10.85 85.4 11.8 85.95 12.85 86.25 13.95 86.6 14.85 86.9 15.8 87.2 16.4 87.7 17 88.15 17 88.95 17 89.4 16.8 89.8 16.55 90.15 16.15 90.35 15.75 90.6 15.3 90.7 14.8 90.8 14.3 90.8 13.35 90.8 12.4 90.35 11.5 89.9 10.9 89.15
L 8.15 92.2
Q 9.4 93.35 10.9 93.9 12.35 94.4 14.1 94.4 15.45 94.4 16.7 94.05 17.95 93.7 18.85 92.95 19.8 92.25 20.35 91.15 20.9 90.05 20.9 88.6 20.9 87.05 20.3 86.1 19.7 85.15 18.8 84.6 17.9 84.05 16.85 83.75 15.8 83.5 14.85 83.15 13.95 82.9 13.35 82.45 12.75 82 12.75 81.25 12.75 80.75 13 80.4 13.25 80 13.65 79.8 14.05 79.6 14.5 79.5 14.95 79.4 15.4 79.4 16.1 79.4 16.9 79.7 17.75 79.95 18.2 80.55
L 20.9 77.65
Q 19.75 76.65 18.35 76.25
M 89.3 83.15
L 81.6 83.15 81.6 79.85 89.75 79.85 89.75 76.25 77.7 76.25 77.7 93.95 90.15 93.95 90.15 90.35 81.6 90.35 81.6 86.75 89.3 86.75 89.3 83.15 Z"/>

<path fill="#313131" stroke="none" d="
M 67.95 25.8
Q 67.95 19.9837890625 64.75 15.5 63.8513671875 14.2513671875 62.7 13.1 57.45 7.85 50 7.85 42.55 7.85 37.3 13.1 32.05 18.35 32.05 25.8
L 32.05 51.55
Q 32.05 59 37.3 64.25 42.55 69.5 50 69.5 57.45 69.5 62.7 64.25 67.95 59 67.95 51.55
L 67.95 25.8
M 57.4 18.4
Q 60.45 21.45 60.45 25.8
L 60.45 51.55
Q 60.45 55.9 57.4 58.95 54.35 62 50 62 45.65 62 42.6 58.95 39.55 55.9 39.55 51.55
L 39.55 25.8
Q 39.55 21.45 42.6 18.4 45.65 15.35 50 15.35 54.35 15.35 57.4 18.4 Z"/>

<path fill="#4F4F4F" stroke="none" d="
M 60.45 25.8
Q 60.45 21.45 57.4 18.4 54.35 15.35 50 15.35 45.65 15.35 42.6 18.4 39.55 21.45 39.55 25.8
L 39.55 51.55
Q 39.55 55.9 42.6 58.95 45.65 62 50 62 54.35 62 57.4 58.95 60.45 55.9 60.45 51.55
L 60.45 25.8 Z"/>
</g>

<path id="Layer1_0_1_STROKES" stroke="#202020" stroke-width="4" stroke-linejoin="round" stroke-linecap="round" fill="none" d="
M 32.05 25.8
Q 32.05 18.35 37.3 13.1 42.55 7.85 50 7.85 57.45 7.85 62.7 13.1 63.8513671875 14.2513671875 64.75 15.5 67.95 19.9837890625 67.95 25.8
L 67.95 51.55
Q 67.95 59 62.7 64.25 57.45 69.5 50 69.5 42.55 69.5 37.3 64.25 32.05 59 32.05 51.55
L 32.05 25.8 Z"/>

<path id="Layer1_0_2_STROKES" stroke="#626262" stroke-width="4" stroke-linejoin="round" stroke-linecap="round" fill="none" d="
M 39.55 25.8
Q 39.55 21.45 42.6 18.4 45.65 15.35 50 15.35 54.35 15.35 57.4 18.4 60.45 21.45 60.45 25.8
L 60.45 51.55
Q 60.45 55.9 57.4 58.95 54.35 62 50 62 45.65 62 42.6 58.95 39.55 55.9 39.55 51.55
L 39.55 25.8 Z"/>

</defs>

<g transform="matrix( 1, 0, 0, 1, 0,0) ">
<use xlink:href="#Layer1_0_FILL"/>

<use xlink:href="#Layer1_0_1_STROKES"/>

<use xlink:href="#Layer1_0_2_STROKES"/>
</g>

<g transform="matrix( 1, 0, 0, 1, -3.4,-28) ">
<clipPath id="Mask_Mask_1">
<rect x="8.35" y="-2" width="90.1" height="20.8" fill="#FFFFFF" stroke="none"/>
</clipPath>

<text clip-path="url(#Mask_Mask_1)" writing-mode="lr"><tspan x="10.45" y="13.6" baseline-shift="0%" kerning="auto" font-family="Arial_Regular" font-size="15" fill="#999999" xml:space="preserve">Playstation 4</tspan></text>
</g>
</svg>
