<?xml version="1.0" encoding="utf-8"?>
<!-- Generator: Adobe Illustrator 24.1.2, SVG Export Plug-In . SVG Version: 6.00 Build 0)  -->
<svg version="1.1" id="Layer_1" xmlns="http://www.w3.org/2000/svg" xmlns:xlink="http://www.w3.org/1999/xlink" x="0px" y="0px"
	 viewBox="0 0 100 100" style="enable-background:new 0 0 100 100;" xml:space="preserve">
<g transform="matrix( 1, 0, 0, 1, 0,0) ">
	<g>
		<g id="Layer1_0_FILL">
			<path style="fill:#313131;" d="M34,91.8l3.4,3.3h25.3l3.4-3.3l-1.2-19.9l-9.4-12.4h-11l-9.4,12.4L34,91.8 M49.3,66.1h1.3h1.3
				l6.3,7.8L59,88.4H41l0.9-14.5l6.3-7.8H49.3 M8.3,34L5,37.4v25.3l3.3,3.4l20-1.2l12.4-9.4v-11l-12.4-9.4L8.3,34 M33.9,48.1v1.3
				v1.3V52l-7.8,6.3L11.6,59V41l14.5,0.9L33.9,48.1 M95.1,37.3L91.8,34l-19.9,1.2l-12.4,9.4v10.9l12.4,9.4l19.9,1.2l3.3-3.4
				L95.1,37.3 M88.4,41v18l-14.5-0.9l-7.8-6.3v-1.3v-1.3v-1.3l7.8-6.3L88.4,41z"/>
			<path style="fill:#4F4F4F;" d="M50.7,66.1h-1.3h-1.3l-6.3,7.8L41,88.4h18l-0.9-14.5l-6.3-7.8H50.7 M33.9,49.3V48l-7.8-6.3
				L11.6,41v18l14.5-0.9l7.8-6.3v-1.3V49.3 M88.4,59V41l-14.5,0.9l-7.8,6.3v1.3v1.3v1.3l7.8,6.3L88.4,59z"/>
			<path style="fill:#D7D7D7;" d="M66.1,8.3L62.7,5H37.3L34,8.3l1.2,20l9.4,12.4h10.9l9.4-12.4L66.1,8.3 M41,11.6h18l-0.9,14.5
				l-6.3,7.8h-1.3h-1.3h-1.3l-6.3-7.8L41,11.6z"/>
			<path style="fill:#F5F5F5;" d="M59,11.6H41l0.9,14.5l6.3,7.8h1.3h1.3h1.3l6.3-7.8L59,11.6z"/>
		</g>
	</g>
	<g>
		<path id="Layer1_0_1_STROKES" style="fill:none;stroke:#202020;stroke-width:4;stroke-linecap:round;stroke-linejoin:round;" d="
			M91.8,34l3.3,3.4v25.3l-3.3,3.4l-19.9-1.2l-12.4-9.4v-11l12.4-9.4L91.8,34z M28.2,35.2L8.3,34L5,37.4v25.3l3.3,3.4l20-1.2
			l12.4-9.4v-11L28.2,35.2z M35.2,71.8l-1.2,20l3.4,3.3h25.3l3.4-3.3l-1.2-19.9l-9.4-12.4h-11L35.2,71.8z"/>
	</g>
	<g>
		<path id="Layer1_0_2_STROKES" style="fill:none;stroke:#626262;stroke-width:4;stroke-linecap:round;stroke-linejoin:round;" d="
			M66.1,50.7V52l7.8,6.3L88.4,59V41l-14.5,0.9l-7.8,6.3v1.3 M33.9,50.7V52l-7.8,6.3L11.6,59V41l14.5,0.9l7.8,6.3v1.3 M50.7,66.1H52
			l6.3,7.8L59,88.4H41l0.9-14.5l6.3-7.8h1.3"/>
	</g>
	<g>
		<path id="Layer1_0_3_STROKES" style="fill:none;stroke:#404040;stroke-width:4;stroke-linecap:round;stroke-linejoin:round;" d="
			M62.7,4.9l3.4,3.3l-1.2,20l-9.4,12.4h-11l-9.4-12.4L34,8.3L37.4,5L62.7,4.9L62.7,4.9z"/>
	</g>
	<g>
		<path id="Layer1_0_4_STROKES" style="fill:none;stroke:#FFFFFF;stroke-width:4;stroke-linecap:round;stroke-linejoin:round;" d="
			M50.7,33.9H52l6.3-7.8L59,11.6H41l0.9,14.5l6.3,7.8h1.3"/>
	</g>
</g>
<g>
	<path style="fill:#D7D7D7;" d="M8.3,33.9L5,37.3v25.3L8.3,66l20-1.2l12.4-9.4V44.5l-12.4-9.4L8.3,33.9 M11.6,59V41l14.5,0.9
		l7.8,6.3v1.3v1.3v1.3l-7.8,6.3L11.6,59z"/>
	<path style="fill:#F5F5F5;" d="M11.6,41v18l14.5-0.9l7.8-6.3v-1.3v-1.3v-1.3l-7.8-6.3L11.6,41z"/>
	<g>
		
			<path id="Layer1_0_3_STROKES_1_" style="fill:none;stroke:#404040;stroke-width:4;stroke-linecap:round;stroke-linejoin:round;" d="
			M4.9,37.3l3.3-3.4l20,1.2l12.4,9.4v10.9l-12.4,9.4L8.2,66l-3.3-3.4C4.9,62.6,4.9,37.3,4.9,37.3z"/>
	</g>
	<g>
		
			<path id="Layer1_0_4_STROKES_1_" style="fill:none;stroke:#FFFFFF;stroke-width:4;stroke-linecap:round;stroke-linejoin:round;" d="
			M33.9,49.3V48l-7.8-6.3L11.6,41v18l14.5-0.9l7.8-6.3v-1.3"/>
	</g>
</g>
</svg>
