
<svg xmlns="http://www.w3.org/2000/svg" version="1.1" xmlns:xlink="http://www.w3.org/1999/xlink" x="0px" y="0px" viewBox="0 0 100 100">
<defs>
<g id="Layer1_0_FILL">
<path fill="#1B1B1B" stroke="none" d="
M 49.3 75.25
L 46.05 75.25 46.05 90.1 49.3 90.1 49.3 75.25
M 59.5 74.85
Q 57.75 74.85 56.3 75.4 54.8 75.95 53.75 76.95 52.65 78 52.05 79.45 51.45 80.9 51.45 82.65 51.45 84.45 52.05 85.9 52.65 87.35 53.75 88.35 54.8 89.4 56.3 89.95 57.75 90.5 59.5 90.5 61.25 90.5 62.7 89.95 64.15 89.4 65.25 88.35 66.3 87.35 66.9 85.9 67.5 84.45 67.5 82.65 67.5 80.9 66.9 79.45 66.3 78 65.25 76.95 64.15 75.95 62.7 75.4 61.25 74.85 59.5 74.85
M 57.6 78.25
Q 58.45 77.9 59.5 77.9 60.55 77.9 61.4 78.25 62.25 78.6 62.85 79.25 63.45 79.9 63.75 80.75 64.1 81.65 64.1 82.65 64.1 83.7 63.75 84.6 63.45 85.45 62.85 86.1 62.25 86.75 61.4 87.1 60.55 87.45 59.5 87.45 58.45 87.45 57.6 87.1 56.75 86.75 56.15 86.1 55.5 85.45 55.2 84.6 54.85 83.7 54.85 82.65 54.85 81.65 55.2 80.75 55.5 79.9 56.15 79.25 56.75 78.6 57.6 78.25
M 32.65 75.25
L 32.65 78.15 36.9 78.15 36.9 90.1 40.15 90.1 40.15 78.15 44.4 78.15 44.4 75.25 32.65 75.25
M 31.95 79.75
Q 31.95 78.4 31.5 77.55 31.05 76.7 30.25 76.15 29.5 75.65 28.45 75.45 27.45 75.25 26.3 75.25
L 20.75 75.25 20.75 90.1 24.05 90.1 24.05 84.3 26.45 84.3
Q 27.6 84.3 28.6 84.1 29.65 83.85 30.35 83.35 31.1 82.8 31.5 81.95 31.95 81.05 31.95 79.75
M 25.7 78
Q 26.2 78 26.7 78.05 27.2 78.1 27.6 78.3 28 78.5 28.25 78.85 28.55 79.2 28.55 79.75 28.55 80.3 28.35 80.65 28.15 80.95 27.8 81.15 27.5 81.35 27.05 81.45 26.65 81.55 26.2 81.55
L 24.05 81.55 24.05 78 25.7 78
M 17.95 79.45
Q 17.35 78 16.3 76.95 15.2 75.95 13.75 75.4 12.3 74.85 10.55 74.85 8.8 74.85 7.35 75.4 5.85 75.95 4.8 76.95 3.7 78 3.1 79.45 2.5 80.9 2.5 82.65 2.5 84.45 3.1 85.9 3.7 87.35 4.8 88.35 5.85 89.4 7.35 89.95 8.8 90.5 10.55 90.5 12.3 90.5 13.75 89.95 15.2 89.4 16.3 88.35 17.35 87.35 17.95 85.9 18.55 84.45 18.55 82.65 18.55 80.9 17.95 79.45
M 12.45 78.25
Q 13.3 78.6 13.9 79.25 14.5 79.9 14.8 80.75 15.15 81.65 15.15 82.65 15.15 83.7 14.8 84.6 14.5 85.45 13.9 86.1 13.3 86.75 12.45 87.1 11.6 87.45 10.55 87.45 9.5 87.45 8.65 87.1 7.8 86.75 7.2 86.1 6.55 85.45 6.25 84.6 5.9 83.7 5.9 82.65 5.9 81.65 6.25 80.75 6.55 79.9 7.2 79.25 7.8 78.6 8.65 78.25 9.5 77.9 10.55 77.9 11.6 77.9 12.45 78.25
M 83.8 90.1
L 83.8 75.25 80.55 75.25 80.55 85.55 80.5 85.55 74.15 75.25 69.7 75.25 69.7 90.1 73 90.1 73 79.5 73.05 79.5 79.5 90.1 83.8 90.1
M 94.3 75.2
Q 93.1 74.85 91.85 74.85 90.75 74.85 89.75 75.15 88.7 75.45 87.9 76.05 87.15 76.7 86.65 77.6 86.2 78.5 86.2 79.7 86.2 80.9 86.7 81.7 87.2 82.45 88 82.9 88.75 83.35 89.7 83.65 90.6 83.9 91.35 84.15 92.15 84.45 92.65 84.85 93.15 85.25 93.15 85.9 93.15 86.3 92.95 86.6 92.75 86.9 92.45 87.1 92.1 87.25 91.7 87.35 91.3 87.45 90.9 87.45 90.1 87.45 89.3 87.1 88.55 86.7 88.05 86.05
L 85.7 88.6
Q 86.8 89.6 88 90.05 89.25 90.5 90.7 90.5 91.85 90.5 92.9 90.2 93.95 89.9 94.7 89.3 95.5 88.65 95.95 87.75 96.45 86.85 96.45 85.6 96.45 84.3 95.95 83.5 95.45 82.75 94.65 82.25 93.9 81.8 93 81.55 92.15 81.3 91.35 81.05 90.6 80.8 90.1 80.45 89.6 80.1 89.6 79.4 89.6 79 89.8 78.7 90 78.4 90.35 78.25 90.7 78.05 91.05 77.95 91.45 77.9 91.8 77.9 92.4 77.9 93.1 78.1 93.75 78.35 94.15 78.85
L 96.4 76.4
Q 95.45 75.55 94.3 75.2 Z"/>

<path fill="#313131" stroke="none" d="
M 67.95 25.8
Q 67.95 18.35 62.7 13.1 57.45 7.85 50 7.85 42.55 7.85 37.3 13.1 32.05 18.35 32.05 25.8
L 32.05 51.55
Q 32.05 59 37.3 64.25 42.55 69.5 50 69.5 57.45 69.5 62.7 64.25 67.95 59 67.95 51.55
L 67.95 25.8
M 57.4 18.4
Q 60.45 21.45 60.45 25.8
L 60.45 51.55
Q 60.45 55.9 57.4 58.95 54.35 62 50 62 45.65 62 42.6 58.95 39.55 55.9 39.55 51.55
L 39.55 25.8
Q 39.55 21.45 42.6 18.4 45.65 15.35 50 15.35 54.35 15.35 57.4 18.4 Z"/>

<path fill="#4F4F4F" stroke="none" d="
M 60.45 25.8
Q 60.45 21.45 57.4 18.4 54.35 15.35 50 15.35 45.65 15.35 42.6 18.4 39.55 21.45 39.55 25.8
L 39.55 51.55
Q 39.55 55.9 42.6 58.95 45.65 62 50 62 54.35 62 57.4 58.95 60.45 55.9 60.45 51.55
L 60.45 25.8 Z"/>
</g>

<path id="Layer1_0_1_STROKES" stroke="#202020" stroke-width="4" stroke-linejoin="round" stroke-linecap="round" fill="none" d="
M 32.05 25.8
Q 32.05 18.35 37.3 13.1 42.55 7.85 50 7.85 57.45 7.85 62.7 13.1 67.95 18.35 67.95 25.8
L 67.95 51.55
Q 67.95 59 62.7 64.25 57.45 69.5 50 69.5 42.55 69.5 37.3 64.25 32.05 59 32.05 51.55
L 32.05 25.8 Z"/>

<path id="Layer1_0_2_STROKES" stroke="#626262" stroke-width="4" stroke-linejoin="round" stroke-linecap="round" fill="none" d="
M 39.55 25.8
Q 39.55 21.45 42.6 18.4 45.65 15.35 50 15.35 54.35 15.35 57.4 18.4 60.45 21.45 60.45 25.8
L 60.45 51.55
Q 60.45 55.9 57.4 58.95 54.35 62 50 62 45.65 62 42.6 58.95 39.55 55.9 39.55 51.55
L 39.55 25.8 Z"/>

</defs>

<g transform="matrix( 1, 0, 0, 1, 0,0) ">
<use xlink:href="#Layer1_0_FILL"/>

<use xlink:href="#Layer1_0_1_STROKES"/>

<use xlink:href="#Layer1_0_2_STROKES"/>
</g>

<g transform="matrix( 1, 0, 0, 1, -3.4,-28) ">
<clipPath id="Mask_Mask_1">
<rect x="8.35" y="-2" width="90.1" height="20.8" fill="#FFFFFF" stroke="none"/>
</clipPath>

<text clip-path="url(#Mask_Mask_1)" writing-mode="lr"><tspan x="10.45" y="13.6" baseline-shift="0%" kerning="auto" font-family="Arial_Regular" font-size="15" fill="#999999" xml:space="preserve">Playstation 4</tspan></text>
</g>
</svg>
