<?xml version="1.0" encoding="utf-8"?>
<!-- Generator: Adobe Illustrator 24.1.2, SVG Export Plug-In . SVG Version: 6.00 Build 0)  -->
<svg version="1.1" id="Layer_1" xmlns="http://www.w3.org/2000/svg" xmlns:xlink="http://www.w3.org/1999/xlink" x="0px" y="0px"
	 viewBox="0 0 100 100" style="enable-background:new 0 0 100 100;" xml:space="preserve">
<style type="text/css">
	.st0{fill:#313131;}
	.st1{fill:#4F4F4F;}
	.st2{fill:#8F8F8F;}
	.st3{fill:none;stroke:#1B1B1B;stroke-width:5;stroke-linecap:round;stroke-linejoin:round;}
	.st4{fill:none;stroke:#626262;stroke-width:3;stroke-linecap:round;stroke-linejoin:round;}
</style>
<g transform="matrix( 1, 0, 0, 1, 0,0) ">
	<g>
		<g id="Layer1_0_FILL">
			<path class="st0" d="M46,41.2c0-1.8-0.6-3.3-2-4.5c-1.3-1.2-2.8-1.9-4.5-2.2c-1.8-0.2-3.5-0.3-5.3-0.2c-1.7,0-3.4,0.1-5.2,0.2
				c-1.8,0.1-3.5,0.1-5.2,0.2c-1.7,0.1-3.3,0.3-5,0.5c-1.6,0.2-3.1,0.4-4.7,0.7c-1.8,0.2-3.4,0.6-4.9,1.2c-1.5,0.6-2.6,1.3-3.3,2
				c-0.7,0.8-1.2,1.5-1.5,2.3C4.2,42.2,4,43.2,4,44.6c0,1.6,0.1,3.2,0.3,4.9c0.1,1,0.3,2,0.5,2.9c0.2,1.3,0.6,2.6,1.2,3.9
				c0.7,1.5,1.7,2.8,3,4c1.2,1.2,2.6,2.2,4.2,3c1.3,0.7,2.6,1.2,4,1.5c1.6,0.4,3.2,0.6,4.8,0.7c1.5,0.1,2.9,0.2,4.4,0.2
				c1.6,0,3.2-0.1,4.9-0.4c1.7-0.3,3.3-0.7,4.9-1.3c1.5-0.5,2.9-1.2,4.3-2.1c1.4-0.9,2.5-2.2,3.3-3.7c0.5-0.8,0.8-1.8,1-2.8
				c0.2-1.5,0.5-3,0.6-4.6c0.1-1.5,0.3-3,0.4-4.6C45.9,44.6,46,42.9,46,41.2 M42,41.2c0,1.7-0.1,3.3-0.2,5c-0.1,1.5-0.2,3-0.3,4.4
				c-0.1,1.6-0.4,3.1-0.8,4.6c-0.5,1.7-1.5,3-3,3.9c-1.5,0.9-3.1,1.5-4.8,1.8c-0.7,0.2-1.5,0.3-2.2,0.4c-1.5,0.4-3,0.5-4.5,0.5
				c-1.8,0-3.5-0.1-5.3-0.3c-1.4-0.1-2.8-0.4-4-0.9c-1.4-0.6-2.8-1.4-4-2.4c-1.2-1-2.2-2.2-2.9-3.6c-0.7-1.5-1.3-3.1-1.6-4.6
				c-0.3-1.6-0.4-3.2-0.3-4.9c0.1-1.7,0.9-3,2.3-3.9c0.5-0.3,1.1-0.6,1.7-0.7c1.4-0.4,2.7-0.7,4.1-0.9c1.5-0.3,3-0.5,4.6-0.6
				c1.5-0.2,3-0.3,4.5-0.4c1.4-0.1,2.7-0.2,4.1-0.2c1.7-0.1,3.3-0.1,4.9-0.2c1.5-0.1,3-0.1,4.5,0.2C40.6,38.7,41.7,39.6,42,41.2z"/>
			<path class="st1" d="M41.8,46.2c0.1-1.6,0.2-3.3,0.2-5c-0.3-1.6-1.4-2.5-3.2-2.8c-1.5-0.3-3-0.3-4.5-0.2c-1.6,0-3.3,0.1-4.9,0.2
				c-1.4,0-2.8,0.1-4.1,0.2c-1.5,0-3,0.2-4.5,0.4c-1.6,0.2-3.1,0.4-4.6,0.6c-1.4,0.2-2.8,0.5-4.1,0.9c-0.6,0.1-1.2,0.4-1.7,0.7
				c-1.4,0.9-2.2,2.2-2.3,3.9c-0.1,1.6,0,3.3,0.3,4.9c0.3,1.6,0.9,3.1,1.6,4.6c0.7,1.4,1.6,2.6,2.9,3.6c1.3,1,2.6,1.8,4,2.4
				c1.3,0.5,2.6,0.8,4,0.9c1.8,0.1,3.5,0.2,5.3,0.3c1.5,0,3-0.2,4.5-0.5c0.7-0.1,1.5-0.2,2.2-0.4c1.7-0.3,3.3-0.9,4.8-1.8
				c1.5-0.9,2.5-2.2,3-3.9c0.4-1.5,0.7-3,0.8-4.6C41.6,49.1,41.7,47.7,41.8,46.2 M20.6,44.7h2.1v7.5h3.8v1.9h-5.9V44.7 M29.4,46.9
				l-1.9,1.6l-1.1-1.3l3.1-2.6l1.9,0v9.4h-1.9V46.9z"/>
			<path class="st2" d="M27.5,48.6l1.9-1.6v7.2h1.9v-9.4l-1.9,0l-3.1,2.6L27.5,48.6 M22.7,44.7h-2.1v9.4h5.9v-1.9h-3.8V44.7z"/>
		</g>
	</g>
	<g>
		<path id="Layer1_0_1_STROKES" class="st3" d="M14.3,35.9c-1.8,0.2-3.4,0.6-4.9,1.2c-1.5,0.6-2.6,1.3-3.3,2
			c-0.7,0.8-1.2,1.5-1.5,2.3C4.2,42.2,4,43.2,4,44.6c0,1.6,0.1,3.2,0.3,4.9c0.1,1,0.3,2,0.5,2.9c0.2,1.3,0.6,2.6,1.2,3.9
			c0.7,1.5,1.7,2.8,3,4c1.2,1.2,2.6,2.2,4.2,3c1.3,0.7,2.6,1.2,4,1.5c1.6,0.4,3.2,0.6,4.8,0.7c1.5,0.1,2.9,0.2,4.4,0.2
			c1.6,0,3.2-0.1,4.9-0.4c1.7-0.3,3.3-0.7,4.9-1.3c1.5-0.5,2.9-1.2,4.3-2.1c1.4-0.9,2.5-2.2,3.3-3.7c0.5-0.8,0.8-1.8,1-2.8
			c0.2-1.5,0.5-3,0.6-4.6c0.1-1.5,0.3-3,0.4-4.6c0.1-1.8,0.2-3.5,0.2-5.2c0-1.8-0.6-3.3-2-4.5c-1.3-1.2-2.8-1.9-4.5-2.2
			c-1.8-0.2-3.5-0.3-5.3-0.2c-1.7,0-3.4,0.1-5.2,0.2c-1.8,0.1-3.5,0.1-5.2,0.2c-1.7,0.1-3.3,0.3-5,0.5
			C17.5,35.3,15.9,35.6,14.3,35.9z"/>
	</g>
	<g>
		<path id="Layer1_0_2_STROKES" class="st4" d="M42,41.2c0,1.7-0.1,3.3-0.2,5c-0.1,1.5-0.2,3-0.3,4.4c-0.1,1.6-0.4,3.1-0.8,4.6
			c-0.5,1.7-1.5,3-3,3.9c-1.5,0.9-3.1,1.5-4.8,1.8c-0.7,0.2-1.5,0.3-2.2,0.4c-1.5,0.4-3,0.5-4.5,0.5c-1.8,0-3.5-0.1-5.3-0.3
			c-1.4-0.1-2.8-0.4-4-0.9c-1.4-0.6-2.8-1.4-4-2.4c-1.2-1-2.2-2.2-2.9-3.6c-0.7-1.5-1.3-3.1-1.6-4.6c-0.3-1.6-0.4-3.2-0.3-4.9
			c0.1-1.7,0.9-3,2.3-3.9c0.5-0.3,1.1-0.6,1.7-0.7c1.4-0.4,2.7-0.7,4.1-0.9c1.5-0.3,3-0.5,4.6-0.6c1.5-0.2,3-0.3,4.5-0.4
			c1.4-0.1,2.7-0.2,4.1-0.2c1.7-0.1,3.3-0.1,4.9-0.2c1.5-0.1,3-0.1,4.5,0.2C40.6,38.7,41.7,39.6,42,41.2z"/>
	</g>
</g>
<g transform="matrix( 1, 0, 0, 1, 0,0) ">
	<g>
		<g id="Layer1_0_FILL_1_">
			<path class="st0" d="M95.7,49.5c0.2-1.6,0.4-3.2,0.3-4.9c0-1.4-0.2-2.5-0.6-3.2c-0.4-0.8-0.9-1.5-1.5-2.3c-0.7-0.8-1.8-1.4-3.3-2
				c-1.5-0.6-3.2-1-4.9-1.2c-1.6-0.3-3.2-0.5-4.7-0.7c-1.6-0.2-3.3-0.4-5-0.5c-1.7-0.1-3.4-0.2-5.2-0.2c-1.7-0.1-3.5-0.2-5.2-0.2
				c-1.7,0-3.5,0.1-5.3,0.2c-1.7,0.3-3.2,1-4.5,2.2c-1.3,1.2-2,2.7-2,4.5c0,1.7,0.1,3.5,0.2,5.2c0.1,1.6,0.2,3.1,0.4,4.6
				c0.2,1.5,0.4,3,0.6,4.6c0.2,1,0.5,1.9,1,2.8c0.9,1.5,2,2.7,3.3,3.7c1.3,0.9,2.7,1.6,4.3,2.1c1.6,0.6,3.2,1,4.9,1.3
				c1.6,0.3,3.2,0.4,4.9,0.4c1.5,0,3-0.1,4.4-0.2c1.6-0.1,3.2-0.3,4.8-0.7c1.4-0.3,2.7-0.9,4-1.5c1.6-0.8,2.9-1.8,4.2-3
				c1.2-1.2,2.2-2.5,3-4c0.6-1.2,1-2.5,1.2-3.9C95.3,51.5,95.5,50.5,95.7,49.5 M91.9,45.1c0.1,1.6,0,3.3-0.3,4.9
				c-0.3,1.6-0.9,3.1-1.6,4.6c-0.7,1.4-1.6,2.6-2.9,3.6c-1.3,1-2.6,1.8-4,2.4c-1.3,0.5-2.6,0.8-4,0.9c-1.8,0.1-3.5,0.2-5.3,0.3
				c-1.5,0-3-0.2-4.5-0.5c-0.7-0.1-1.5-0.2-2.2-0.4c-1.7-0.3-3.3-0.9-4.8-1.8c-1.5-0.9-2.5-2.2-3-3.9c-0.4-1.5-0.7-3-0.8-4.6
				c-0.1-1.5-0.2-2.9-0.3-4.4c-0.1-1.6-0.2-3.3-0.2-5c0.3-1.6,1.4-2.5,3.2-2.8c1.5-0.3,3-0.3,4.5-0.2c1.6,0,3.3,0.1,4.9,0.2
				c1.4,0,2.8,0.1,4.1,0.2c1.5,0,3,0.2,4.5,0.4c1.6,0.2,3.1,0.4,4.6,0.6c1.4,0.2,2.8,0.5,4.1,0.9c0.6,0.1,1.2,0.4,1.7,0.7
				C91.1,42.1,91.8,43.4,91.9,45.1z"/>
			<path class="st1" d="M91.6,50c0.3-1.6,0.4-3.2,0.3-4.9c-0.1-1.7-0.9-3-2.3-3.9c-0.5-0.3-1.1-0.6-1.7-0.7
				c-1.4-0.4-2.7-0.7-4.1-0.9c-1.5-0.3-3-0.5-4.6-0.6c-1.5-0.2-3-0.3-4.5-0.4c-1.4-0.1-2.7-0.2-4.1-0.2c-1.7-0.1-3.3-0.1-4.9-0.2
				c-1.5-0.1-3-0.1-4.5,0.2c-1.8,0.3-2.8,1.2-3.2,2.8c0,1.7,0.1,3.3,0.2,5c0.1,1.5,0.2,3,0.3,4.4c0.1,1.6,0.4,3.1,0.8,4.6
				c0.5,1.7,1.5,3,3,3.9c1.5,0.9,3.1,1.5,4.8,1.8c0.7,0.2,1.5,0.3,2.2,0.4c1.5,0.4,3,0.5,4.5,0.5c1.8,0,3.5-0.1,5.3-0.3
				c1.4-0.1,2.8-0.4,4-0.9c1.4-0.6,2.8-1.4,4-2.4c1.2-1,2.2-2.2,2.9-3.6C90.8,53.1,91.3,51.6,91.6,50 M74.4,45.3
				c0.3,0.2,0.6,0.5,0.8,0.9c0.2,0.4,0.3,0.8,0.3,1.4c0,0.7-0.2,1.2-0.5,1.7c-0.4,0.5-0.9,0.8-1.5,0.9l2.4,4h-2.5l-2-3.8h-1v3.8
				h-2.1v-9.4h3.6c0.5,0,0.9,0,1.4,0.1C73.7,44.9,74.1,45.1,74.4,45.3 M76.3,47.3l3.1-2.6l1.9,0v9.4h-1.9v-7.2l-1.9,1.6L76.3,47.3
				 M71.7,46.5h-1.4v2.1h1.2c0.2,0,0.4,0,0.6,0c0.2,0,0.4-0.1,0.6-0.1c0.2-0.1,0.3-0.2,0.4-0.3c0.1-0.1,0.2-0.3,0.2-0.6
				c0-0.2,0-0.4-0.1-0.6c-0.1-0.1-0.2-0.2-0.4-0.3c-0.2-0.1-0.3-0.1-0.5-0.2C72.1,46.5,71.9,46.5,71.7,46.5z"/>
			<path class="st2" d="M79.4,44.7l-3.1,2.6l1.1,1.3l1.9-1.6v7.2h1.9v-9.4L79.4,44.7 M75.2,46.2c-0.2-0.4-0.5-0.7-0.8-0.9
				c-0.3-0.2-0.7-0.4-1.1-0.5c-0.4-0.1-0.9-0.1-1.4-0.1h-3.6v9.4h2.1v-3.8h1l2,3.8h2.5l-2.4-4c0.7-0.1,1.2-0.4,1.5-0.9
				c0.3-0.5,0.5-1,0.5-1.7C75.4,47,75.3,46.5,75.2,46.2 M70.3,46.5h1.4c0.2,0,0.4,0,0.6,0c0.2,0,0.3,0.1,0.5,0.2
				c0.1,0.1,0.3,0.2,0.4,0.3c0.1,0.2,0.1,0.4,0.1,0.6c0,0.3-0.1,0.5-0.2,0.6c-0.1,0.1-0.2,0.2-0.4,0.3c-0.2,0.1-0.3,0.1-0.6,0.1
				c-0.2,0-0.4,0-0.6,0h-1.2V46.5z"/>
		</g>
	</g>
	<g>
		<path id="Layer1_0_1_STROKES_1_" class="st3" d="M85.7,35.9c1.8,0.2,3.4,0.6,4.9,1.2c1.5,0.6,2.6,1.3,3.3,2
			c0.7,0.7,1.2,1.5,1.5,2.3c0.4,0.8,0.5,1.8,0.6,3.2c0,1.6-0.1,3.2-0.3,4.9c-0.1,1-0.3,2-0.5,2.9c-0.2,1.3-0.6,2.6-1.2,3.9
			c-0.7,1.5-1.7,2.8-3,4c-1.2,1.2-2.6,2.2-4.2,3c-1.3,0.7-2.6,1.2-4,1.5c-1.6,0.4-3.2,0.6-4.8,0.7c-1.5,0.1-2.9,0.2-4.4,0.2
			c-1.6,0-3.2-0.1-4.9-0.4c-1.7-0.3-3.3-0.7-4.9-1.3c-1.5-0.5-2.9-1.2-4.3-2.1c-1.4-0.9-2.5-2.2-3.3-3.7c-0.5-0.8-0.8-1.8-1-2.8
			c-0.2-1.5-0.5-3-0.6-4.6c-0.1-1.5-0.3-3-0.4-4.6c-0.1-1.8-0.2-3.5-0.2-5.2c0-1.8,0.6-3.3,2-4.5c1.3-1.2,2.8-1.9,4.5-2.2
			c1.8-0.2,3.5-0.3,5.3-0.2c1.7,0,3.4,0.1,5.2,0.2c1.8,0.1,3.5,0.1,5.2,0.2c1.7,0.1,3.3,0.3,5,0.5C82.5,35.3,84.1,35.6,85.7,35.9z"
			/>
	</g>
	<g>
		<path id="Layer1_0_2_STROKES_1_" class="st4" d="M69.3,61.3c1.5,0.4,3,0.5,4.5,0.5c1.8,0,3.5-0.1,5.3-0.3c1.4-0.1,2.8-0.4,4-0.9
			c1.4-0.6,2.8-1.4,4-2.4c1.2-1,2.2-2.2,2.9-3.6c0.7-1.5,1.3-3.1,1.6-4.6c0.3-1.6,0.4-3.2,0.3-4.9c-0.1-1.7-0.9-3-2.3-3.9
			c-0.5-0.3-1.1-0.6-1.7-0.7c-1.4-0.4-2.7-0.7-4.1-0.9c-1.5-0.3-3-0.5-4.6-0.6c-1.5-0.2-3-0.3-4.5-0.4c-1.4-0.1-2.7-0.2-4.1-0.2
			c-1.7-0.1-3.3-0.1-4.9-0.2c-1.5-0.1-3-0.1-4.5,0.2c-1.8,0.3-2.8,1.2-3.2,2.8c0,1.7,0.1,3.3,0.2,5c0.1,1.5,0.2,3,0.3,4.4
			c0.1,1.6,0.4,3.1,0.8,4.6c0.5,1.7,1.5,3,3,3.9c1.5,0.9,3.1,1.5,4.8,1.8C67.8,61.1,68.6,61.2,69.3,61.3z"/>
	</g>
</g>
</svg>
