
<svg xmlns="http://www.w3.org/2000/svg" version="1.1" xmlns:xlink="http://www.w3.org/1999/xlink" x="0px" y="0px" viewBox="0 0 100 100">
<defs>
<g id="Layer1_0_FILL">
<path fill="#96989D" stroke="none" d="
M 59.45 14.2
Q 59.144140625 14.1208984375 58.85 14.05 53.590234375 12.82734375 48.7 14.05 45.8421875 14.7728515625 43.1 16.35 35.4 20.95 33.15 29.65
L 25.3 59.5
Q 23.05 68.2 27.45 75.8 32 83.6 40.7 85.9 49.3 88.1 57 83.55 64.7 79 67 70.4
L 74.8 40.45
Q 77.1 31.9 72.55 24.15 68.1 16.45 59.45 14.2
M 47.6 24.2
Q 52.1 21.55 57.15 22.95 62.2 24.25 64.8 28.7 67.45 33.15 66.15 38.25
L 58.25 68.2
Q 56.95 73.25 52.45 75.75 48 78.4 42.95 77.1 37.9 75.7 35.25 71.3 32.7 66.85 34 61.8
L 41.8 31.85
Q 43.1 26.85 47.6 24.2 Z"/>

<path fill="#BCBFC4" stroke="none" d="
M 57.15 22.95
Q 52.1 21.55 47.6 24.2 43.1 26.85 41.8 31.85
L 34 61.8
Q 32.7 66.85 35.25 71.3 37.9 75.7 42.95 77.1 48 78.4 52.45 75.75 56.95 73.25 58.25 68.2
L 66.15 38.25
Q 67.45 33.15 64.8 28.7 62.2 24.25 57.15 22.95 Z"/>
</g>

<path id="Layer1_0_1_STROKES" stroke="#434345" stroke-width="4" stroke-linejoin="round" stroke-linecap="round" fill="none" d="
M 74.8 40.45
Q 77.1 31.9 72.55 24.15 68.1 16.45 59.45 14.2 59.144140625 14.1208984375 58.85 14.05 53.590234375 12.82734375 48.725 14.05 45.8421875 14.7728515625 43.1 16.35 35.4 20.95 33.15 29.65
L 25.3 59.5
Q 23.05 68.2 27.45 75.8 32 83.6 40.7 85.9 49.3 88.1 57 83.55 64.7 79 67 70.4
L 74.8 40.45 Z"/>

<path id="Layer1_0_2_STROKES" stroke="#E3E7ED" stroke-width="4" stroke-linejoin="round" stroke-linecap="round" fill="none" d="
M 66.15 38.25
Q 67.45 33.15 64.8 28.7 62.2 24.25 57.15 22.95 52.1 21.55 47.6 24.2 43.1 26.85 41.8 31.85
L 34 61.8
Q 32.7 66.85 35.25 71.3 37.9 75.7 42.95 77.1 48 78.4 52.45 75.75 56.95 73.25 58.25 68.2
L 66.15 38.25 Z"/>

</defs>

<g transform="matrix( 1, 0, 0, 1, 0,0) ">
<use xlink:href="#Layer1_0_FILL"/>

<use xlink:href="#Layer1_0_1_STROKES"/>

<use xlink:href="#Layer1_0_2_STROKES"/>
</g>

<g transform="matrix( 1, 0, 0, 1, -3.4,-28) ">
<clipPath id="Mask_Mask_1">
<rect x="8.35" y="-2" width="90.1" height="20.8" fill="#FFFFFF" stroke="none"/>
</clipPath>

<text clip-path="url(#Mask_Mask_1)" writing-mode="lr"><tspan x="10.45" y="13.6" baseline-shift="0%" kerning="auto" font-family="Arial_Regular" font-size="15" fill="#999999" xml:space="preserve">Playstation 5</tspan></text>
</g>
</svg>
