
<svg xmlns="http://www.w3.org/2000/svg" version="1.1" xmlns:xlink="http://www.w3.org/1999/xlink" x="0px" y="0px" viewBox="0 0 100 100">
<defs>
<g id="Layer1_0_FILL">
<path fill="#96989D" stroke="none" d="
M 33.35 88.15
Q 33.05 93.55 38.3 94.6 43.7 95.75 50.05 95.8 56.3 95.75 61.7 94.6 66.95 93.55 66.65 88.15
L 64.85 72
Q 64.3 69.45 58.55 62.7 57.65 61.6 56.9 60.75 55.5 59.3 54.35 57.8 53.5 56.55 52.25 55.95 50.65 55.25 49.05 55.65 47.4 56 46.3 57.15 45.55 57.9 44.8 58.75 43.85 59.9 42.85 61 42.2 61.8 41.45 62.7 35.7 69.45 35.15 72
L 33.35 88.15
M 49.75 61.85
L 50.25 61.85
Q 50.65 61.95 52.05 63.8 53.55 65.65 55.25 67.55 57 69.4 59.05 72.4
L 61.1 89
Q 56.15 90.25 50.25 90.25 50.15 90.25 50 90.25 49.85 90.25 49.75 90.25 43.85 90.25 38.95 89
L 40.95 72.4
Q 43 69.4 44.75 67.55 46.45 65.65 47.95 63.8 49.35 61.95 49.75 61.85
M 44.05 47.75
Q 43.45 46.5 42.2 45.65 40.7 44.5 39.25 43.1 38.4 42.35 37.3 41.45 30.55 35.7 28 35.15
L 11.85 33.35
Q 6.45 33.05 5.4 38.3 4.25 43.7 4.2 49.95 4.25 56.3 5.4 61.7 6.45 66.95 11.85 66.65
L 28 64.85
Q 30.55 64.3 37.3 58.55 38.2 57.8 39 57.15 40.1 56.15 41.25 55.2 42.1 54.45 42.85 53.7 44 52.6 44.35 50.95 44.75 49.35 44.05 47.75
M 27.6 40.95
Q 30.6 43 32.45 44.75 34.35 46.45 36.2 47.95 38.05 49.35 38.15 49.75
L 38.15 50.25
Q 38.05 50.65 36.2 52.05 34.35 53.55 32.45 55.25 30.6 57 27.6 59.05
L 11 61.05
Q 9.75 56.15 9.75 50.25 9.75 50.15 9.75 50 9.75 49.85 9.75 49.75 9.75 43.85 11 38.9
L 27.6 40.95
M 54.2 20.7
L 50.45 14.8 46.6 20.7 54.2 20.7
M 94.6 38.3
Q 93.55 33.05 88.15 33.35
L 72 35.15
Q 69.45 35.7 62.7 41.45 61.6 42.35 60.75 43.1 59.3 44.5 57.8 45.65 56.55 46.5 55.95 47.75 55.25 49.35 55.65 50.95 56 52.6 57.15 53.7 57.9 54.45 58.75 55.2 59.9 56.15 61 57.15 61.8 57.8 62.7 58.55 69.45 64.3 72 64.85
L 88.15 66.65
Q 93.55 66.95 94.6 61.7 95.75 56.3 95.8 49.95 95.75 43.7 94.6 38.3
M 90.25 49.75
Q 90.25 49.85 90.25 50 90.25 50.15 90.25 50.25 90.25 56.15 89 61.05
L 72.4 59.05
Q 69.4 57 67.55 55.25 65.65 53.55 63.8 52.05 61.95 50.65 61.85 50.25
L 61.85 49.75
Q 61.95 49.35 63.8 47.95 65.65 46.45 67.55 44.75 69.4 43 72.4 40.95
L 89 38.9
Q 90.25 43.85 90.25 49.75 Z"/>

<path fill="#BCBFC4" stroke="none" d="
M 50.25 61.85
L 49.75 61.85
Q 49.35 61.95 47.95 63.8 46.45 65.65 44.75 67.55 43 69.4 40.95 72.4
L 38.95 89
Q 43.85 90.25 49.75 90.25 49.85 90.25 50 90.25 50.15 90.25 50.25 90.25 56.15 90.25 61.1 89
L 59.05 72.4
Q 57 69.4 55.25 67.55 53.55 65.65 52.05 63.8 50.65 61.95 50.25 61.85
M 54.15 79.3
L 50.3 85.2 46.55 79.3 54.15 79.3
M 32.45 44.75
Q 30.6 43 27.6 40.95
L 11 38.9
Q 9.75 43.85 9.75 49.75 9.75 49.85 9.75 50 9.75 50.15 9.75 50.25 9.75 56.15 11 61.05
L 27.6 59.05
Q 30.6 57 32.45 55.25 34.35 53.55 36.2 52.05 38.05 50.65 38.15 50.25
L 38.15 49.75
Q 38.05 49.35 36.2 47.95 34.35 46.45 32.45 44.75
M 20.7 53.45
L 14.8 49.7 20.7 45.85 20.7 53.45
M 90.25 50
Q 90.25 49.85 90.25 49.75 90.25 43.85 89 38.9
L 72.4 40.95
Q 69.4 43 67.55 44.75 65.65 46.45 63.8 47.95 61.95 49.35 61.85 49.75
L 61.85 50.25
Q 61.95 50.65 63.8 52.05 65.65 53.55 67.55 55.25 69.4 57 72.4 59.05
L 89 61.05
Q 90.25 56.15 90.25 50.25 90.25 50.15 90.25 50
M 79.3 53.45
L 79.3 45.85 85.2 49.7 79.3 53.45 Z"/>

<path fill="#54565A" stroke="none" d="
M 50.3 85.2
L 54.15 79.3 46.55 79.3 50.3 85.2
M 14.8 49.7
L 20.7 53.45 20.7 45.85 14.8 49.7
M 79.3 45.85
L 79.3 53.45 85.2 49.7 79.3 45.85 Z"/>

<path fill="#D6D9DE" stroke="none" d="
M 66.65 11.85
Q 66.95 6.45 61.7 5.4 56.3 4.25 49.95 4.2 43.7 4.25 38.3 5.4 33.05 6.45 33.35 11.85
L 35.15 28
Q 35.7 30.55 41.45 37.3 42.35 38.4 43.1 39.25 44.5 40.7 45.65 42.2 46.5 43.45 47.75 44.05 49.35 44.75 50.95 44.35 52.6 44 53.7 42.85 54.45 42.1 55.2 41.25 56.15 40.1 57.15 39 57.8 38.2 58.55 37.3 64.3 30.55 64.85 28
L 66.65 11.85
M 50 9.75
Q 50.15 9.75 50.25 9.75 56.15 9.75 61.05 11
L 59.05 27.6
Q 57 30.6 55.25 32.45 53.55 34.35 52.05 36.2 50.65 38.05 50.25 38.15
L 49.75 38.15
Q 49.35 38.05 47.95 36.2 46.45 34.35 44.75 32.45 43 30.6 40.95 27.6
L 38.9 11
Q 43.85 9.75 49.75 9.75 49.85 9.75 50 9.75 Z"/>

<path fill="#FFFFFF" stroke="none" d="
M 50.25 9.75
Q 50.15 9.75 50 9.75 49.85 9.75 49.75 9.75 43.85 9.75 38.9 11
L 40.95 27.6
Q 43 30.6 44.75 32.45 46.45 34.35 47.95 36.2 49.35 38.05 49.75 38.15
L 50.25 38.15
Q 50.65 38.05 52.05 36.2 53.55 34.35 55.25 32.45 57 30.6 59.05 27.6
L 61.05 11
Q 56.15 9.75 50.25 9.75
M 50.45 14.8
L 54.2 20.7 46.6 20.7 50.45 14.8 Z"/>
</g>

<path id="Layer1_0_1_STROKES" stroke="#E3E7ED" stroke-width="4" stroke-linejoin="round" stroke-linecap="round" fill="none" d="
M 61.85 50.25
Q 61.95 50.65 63.8 52.05 65.65 53.55 67.55 55.25 69.4 57 72.4 59.05
L 89 61.05
Q 90.25 56.15 90.25 50.25 90.25 50.15 90.25 50 90.25 49.85 90.25 49.75 90.25 43.85 89 38.9
L 72.4 40.95
Q 69.4 43 67.55 44.75 65.65 46.45 63.8 47.95 61.95 49.35 61.85 49.75
M 38.15 50.25
Q 38.05 50.65 36.2 52.05 34.35 53.55 32.45 55.25 30.6 57 27.6 59.05
L 11 61.05
Q 9.75 56.15 9.75 50.25 9.75 50.15 9.75 50 9.75 49.85 9.75 49.75 9.75 43.85 11 38.9
L 27.6 40.95
Q 30.6 43 32.45 44.75 34.35 46.45 36.2 47.95 38.05 49.35 38.15 49.75
M 49.75 61.85
Q 49.35 61.95 47.95 63.8 46.45 65.65 44.75 67.55 43 69.4 40.95 72.4
L 38.95 89
Q 43.85 90.25 49.75 90.25 49.85 90.25 50 90.25 50.15 90.25 50.25 90.25 56.15 90.25 61.1 89
L 59.05 72.4
Q 57 69.4 55.25 67.55 53.55 65.65 52.05 63.8 50.65 61.95 50.25 61.85"/>

<path id="Layer1_0_2_STROKES" stroke="#434345" stroke-width="2" stroke-linejoin="round" stroke-linecap="round" fill="none" d="
M 88.15 33.35
Q 93.55 33.05 94.6 38.3 95.75 43.7 95.8 49.95 95.75 56.3 94.6 61.7 93.55 66.95 88.15 66.65
L 72 64.85
Q 69.45 64.3 62.7 58.55 61.8 57.8 61 57.15 59.9 56.15 58.75 55.2 57.9 54.45 57.15 53.7 56 52.6 55.65 50.95 55.25 49.35 55.95 47.75 56.55 46.5 57.8 45.65 59.3 44.5 60.75 43.1 61.6 42.35 62.7 41.45 69.45 35.7 72 35.15
L 88.15 33.35 Z
M 28 64.85
Q 30.55 64.3 37.3 58.55 38.2 57.8 39 57.15 40.1 56.15 41.25 55.2 42.1 54.45 42.85 53.7 44 52.6 44.35 50.95 44.75 49.35 44.05 47.75 43.45 46.5 42.2 45.65 40.7 44.5 39.25 43.1 38.4 42.35 37.3 41.45 30.55 35.7 28 35.15
L 11.85 33.35
Q 6.45 33.05 5.4 38.3 4.25 43.7 4.2 49.95 4.25 56.3 5.4 61.7 6.45 66.95 11.85 66.65
L 28 64.85 Z
M 66.65 88.15
Q 66.95 93.55 61.7 94.6 56.3 95.75 50.05 95.8 43.7 95.75 38.3 94.6 33.05 93.55 33.35 88.15
L 35.15 72
Q 35.7 69.45 41.45 62.7 42.2 61.8 42.85 61 43.85 59.9 44.8 58.75 45.55 57.9 46.3 57.15 47.4 56 49.05 55.65 50.65 55.25 52.25 55.95 53.5 56.55 54.35 57.8 55.5 59.3 56.9 60.75 57.65 61.6 58.55 62.7 64.3 69.45 64.85 72
L 66.65 88.15 Z"/>

<path id="Layer1_0_3_STROKES" stroke="#FFFFFF" stroke-width="4" stroke-linejoin="round" stroke-linecap="round" fill="none" d="
M 50.25 38.15
Q 50.65 38.05 52.05 36.2 53.55 34.35 55.25 32.45 57 30.6 59.05 27.6
L 61.05 11
Q 56.15 9.75 50.25 9.75 50.15 9.75 50 9.75 49.85 9.75 49.75 9.75 43.85 9.75 38.9 11
L 40.95 27.6
Q 43 30.6 44.75 32.45 46.45 34.35 47.95 36.2 49.35 38.05 49.75 38.15"/>

<path id="Layer1_0_4_STROKES" stroke="#BCBFC4" stroke-width="2" stroke-linejoin="round" stroke-linecap="round" fill="none" d="
M 33.35 11.85
Q 33.05 6.45 38.3 5.4 43.7 4.25 49.95 4.2 56.3 4.25 61.7 5.4 66.95 6.45 66.65 11.85
L 64.85 28
Q 64.3 30.55 58.55 37.3 57.8 38.2 57.15 39 56.15 40.1 55.2 41.25 54.45 42.1 53.7 42.85 52.6 44 50.95 44.35 49.35 44.75 47.75 44.05 46.5 43.45 45.65 42.2 44.5 40.7 43.1 39.25 42.35 38.4 41.45 37.3 35.7 30.55 35.15 28
L 33.35 11.85 Z"/>

</defs>

<g transform="matrix( 1, 0, 0, 1, 0,0) ">
<use xlink:href="#Layer1_0_FILL"/>

<use xlink:href="#Layer1_0_1_STROKES"/>

<use xlink:href="#Layer1_0_2_STROKES"/>

<use xlink:href="#Layer1_0_3_STROKES"/>

<use xlink:href="#Layer1_0_4_STROKES"/>
</g>

<g transform="matrix( 1, 0, 0, 1, -3.4,-28) ">
<clipPath id="Mask_Mask_1">
<rect x="8.35" y="-2" width="90.1" height="20.8" fill="#FFFFFF" stroke="none"/>
</clipPath>

<text clip-path="url(#Mask_Mask_1)" writing-mode="lr"><tspan x="10.45" y="13.6" baseline-shift="0%" kerning="auto" font-family="Arial_Regular" font-size="15" fill="#999999" xml:space="preserve">Playstation 5</tspan></text>
</g>
</svg>
