
<svg xmlns="http://www.w3.org/2000/svg" version="1.1" xmlns:xlink="http://www.w3.org/1999/xlink" x="0px" y="0px" viewBox="0 0 100 100">
<defs>
<g id="Layer1_0_FILL">
<path fill="#96989D" stroke="none" d="
M 65.3 43.7
Q 63.9 36.4 57.8 32.15 51.65 28 44.3 29.4 37 30.75 32.85 36.9 28.65 43.05 30.05 50.35
L 34.85 75.65
Q 36.25 82.95 42.4 87.15 48.5 91.35 55.8 90 63.15 88.6 67.35 82.4 71.5 76.3 70.1 69
L 65.3 43.7
M 53.6 38.4
Q 57.15 40.8 57.95 45.1
L 62.75 70.4
Q 63.55 74.65 61.15 78.2 58.7 81.75 54.4 82.6 50.15 83.4 46.6 80.95 43 78.55 42.2 74.3
L 37.4 49
Q 36.6 44.7 39.05 41.15 41.45 37.6 45.7 36.8 50 35.95 53.6 38.4 Z"/>

<path fill="#BCBFC4" stroke="none" d="
M 57.95 45.1
Q 57.15 40.8 53.6 38.4 50 35.95 45.7 36.8 41.45 37.6 39.05 41.15 36.6 44.7 37.4 49
L 42.2 74.3
Q 43 78.55 46.6 80.95 50.15 83.4 54.4 82.6 58.7 81.75 61.15 78.2 63.55 74.65 62.75 70.4
L 57.95 45.1 Z"/>
</g>

<path id="Layer1_0_1_STROKES" stroke="#E3E7ED" stroke-width="4" stroke-linejoin="round" stroke-linecap="round" fill="none" d="
M 47.7 19.65
L 47.9 6.4
M 57.9 21.15
L 63.45 11.75
M 37.4 49
Q 36.6 44.7 39.05 41.15 41.45 37.6 45.7 36.8 50 35.95 53.6 38.4 57.15 40.8 57.95 45.1
L 62.75 70.4
Q 63.55 74.65 61.15 78.2 58.7 81.75 54.4 82.6 50.15 83.4 46.6 80.95 43 78.55 42.2 74.3
L 37.4 49 Z
M 37.45 20.9
L 32.25 11.3"/>

<path id="Layer1_0_2_STROKES" stroke="#434345" stroke-width="4" stroke-linejoin="round" stroke-linecap="round" fill="none" d="
M 30.05 50.35
Q 28.65 43.05 32.85 36.9 37 30.75 44.3 29.4 51.65 28 57.8 32.15 63.9 36.4 65.3 43.7
L 70.1 69
Q 71.5 76.3 67.35 82.4 63.15 88.6 55.8 90 48.5 91.35 42.4 87.15 36.25 82.95 34.85 75.65
L 30.05 50.35 Z"/>

</defs>

<g transform="matrix( 1, 0, 0, 1, 0,0) ">
<use xlink:href="#Layer1_0_FILL"/>

<use xlink:href="#Layer1_0_1_STROKES"/>

<use xlink:href="#Layer1_0_2_STROKES"/>
</g>

<g transform="matrix( 1, 0, 0, 1, -3.4,-28) ">
<clipPath id="Mask_Mask_1">
<rect x="8.35" y="-2" width="90.1" height="20.8" fill="#FFFFFF" stroke="none"/>
</clipPath>

<text clip-path="url(#Mask_Mask_1)" writing-mode="lr"><tspan x="10.45" y="13.6" baseline-shift="0%" kerning="auto" font-family="Arial_Regular" font-size="15" fill="#999999" xml:space="preserve">Playstation 5</tspan></text>
</g>
</svg>
