
<svg xmlns="http://www.w3.org/2000/svg" version="1.1" xmlns:xlink="http://www.w3.org/1999/xlink" x="0px" y="0px" viewBox="0 0 100 100">
<defs>
<g id="Layer1_0_FILL">
<path fill="#313131" stroke="none" d="
M 85.5 43.35
L 85.5 28.8
Q 85.35 24.3 85.05 19.75 84.75 15.1 80.8 12.75 76.7 10.35 72.05 11.15 70.25 11.25 68.45 11.4 68.2 11.4 67.95 11.45 42.45 13.4 22.55 11.75 15.9 15.65 16 25 20.9 47.75 17.35 70.8 16.15 77.65 21.25 84.65 26.35 89.35 34.4 90.6 50.3 93.1 61.05 83.95
L 67.6 70.35
Q 70.8 59 77.85 53.75 84.15 50.35 85.5 43.35
M 57.05 19.1
Q 58.15 19 59.25 18.9 61.25 20.1 62.15 21.95 63.1 24.05 62.85 26.25 62.75 27.15 62.7 28.05 62.7 28.9 62.7 29.75 62.65 30.6 62.6 31.5 62.6 32.35 62.55 33.2 62.5 34.05 62.4 34.95 62.35 35.8 62.25 36.65 62.2 37.5 62.15 38.35 62.05 39.2 61.95 40.05 61.85 40.9 61.75 41.75 61.6 42.6 61.45 43.45 61.3 44.3 61.15 45.15 61.05 45.95 60.9 46.8 60.7 47.65 60.5 48.5 60.35 49.3 60.15 50.15 59.95 50.95 59.75 51.8 59.25 53.75 58.7 55.75 57.8 59 56.35 62.4 55 65.55 53.3 68.75 52.35 70.45 51.3 72.15 50.55 73.45 49.7 74.7 48.9 75.8 48 76.85 46.75 78.1 45.35 79.3 44.1 80.35 42.7 81.25 41.5 81.95 40.15 82.5 38.5 83.1 36.75 83.35 35.2 83.7 33.2 83.7 32.8 83.65 32 83.5 31.45 83.3 30.9 83.15 30.45 82.95 29.95 82.75 29.5 82.5 29.05 82.3 28.7 82.05 28.3 81.8 27.6 81.25 26.95 80.65 26.6 80.35 26.35 80 26.1 79.7 25.9 79.3 25.45 78.6 25.15 77.85 24.8 77.05 24.6 76.25 24.2 74.4 24.45 72.45 24.55 71.7 24.6 71 24.75 69.45 24.9 67.9 25.05 66.3 25.15 64.7 25.3 63 25.4 61.3 25.5 59.55 25.6 57.8 25.7 54.95 25.75 52.25 25.8 49.3 25.9 46.35 25.95 43.45 25.7 40.55 25.5 37.9 25.2 35.6 24.85 32.5 24.4 29.5 24.05 27.05 23.65 24.7 23.5 23 24.2 21.4 24.85 19.85 26.1 18.9 30.2 19.2 34.15 19.5 38.3 19.65 42.4 19.65 43.45 19.65 44.45 19.65 45.5 19.65 46.55 19.65 47.6 19.6 48.65 19.6 49.7 19.55 50.75 19.5 51.8 19.45 52.85 19.4 53.9 19.3 54.95 19.25 56 19.15 57.05 19.1 Z"/>

<path fill="#4F4F4F" stroke="none" d="
M 59.25 18.9
Q 58.15 19 57.05 19.1 56 19.15 54.95 19.25 53.9 19.3 52.85 19.4 51.8 19.45 50.75 19.5 49.7 19.55 48.65 19.6 47.6 19.6 46.55 19.65 45.5 19.65 44.45 19.65 43.45 19.65 42.4 19.65 38.3 19.65 34.15 19.5 30.2 19.2 26.1 18.9 24.85 19.85 24.2 21.4 23.5 23 23.65 24.7 24.05 27.05 24.4 29.5 24.85 32.5 25.2 35.6 25.5 37.9 25.7 40.55 25.95 43.45 25.9 46.35 25.8 49.3 25.75 52.25 25.7 54.95 25.6 57.8 25.5 59.55 25.4 61.3 25.3 63 25.15 64.7 25.05 66.3 24.9 67.9 24.75 69.45 24.6 71 24.55 71.7 24.45 72.45 24.2 74.4 24.6 76.25 24.8 77.05 25.15 77.85 25.45 78.6 25.9 79.3 26.1 79.7 26.35 80 26.6 80.35 26.95 80.65 27.6 81.25 28.3 81.8 28.7 82.05 29.05 82.3 29.5 82.5 29.95 82.75 30.45 82.95 30.9 83.15 31.45 83.3 32 83.5 32.8 83.65 33.2 83.7 35.2 83.7 36.75 83.35 38.5 83.1 40.15 82.5 41.5 81.95 42.7 81.25 44.1 80.35 45.35 79.3 46.75 78.1 48 76.85 48.9 75.8 49.7 74.7 50.55 73.45 51.3 72.15 52.35 70.45 53.3 68.75 55 65.55 56.35 62.4 57.8 59 58.7 55.75 59.25 53.75 59.75 51.8 59.95 50.95 60.15 50.15 60.35 49.3 60.5 48.5 60.7 47.65 60.9 46.8 61.05 45.95 61.15 45.15 61.3 44.3 61.45 43.45 61.6 42.6 61.75 41.75 61.85 40.9 61.95 40.05 62.05 39.2 62.15 38.35 62.2 37.5 62.25 36.65 62.35 35.8 62.4 34.95 62.5 34.05 62.55 33.2 62.6 32.35 62.6 31.5 62.65 30.6 62.7 29.75 62.7 28.9 62.7 28.05 62.75 27.15 62.85 26.25 63.1 24.05 62.15 21.95 61.25 20.1 59.25 18.9
M 54.6 27.8
Q 55 28.7 55 29.9 55 30.6 54.8 31.2 54.65 31.8 54.35 32.3 54.1 32.8 53.7 33.25 53.35 33.65 52.9 34.05
L 48.2 38.1 55.05 38.1 55.05 41 44.25 41 44.25 37.5 50.25 32.1
Q 50.75 31.7 51.2 31.1 51.7 30.6 51.7 29.95 51.7 29.1 51.1 28.65 50.55 28.2 49.75 28.2 48.8 28.2 48.3 28.8 47.8 29.35 47.7 30.2
L 44.4 29.95
Q 44.5 28.75 44.95 27.85 45.4 26.95 46.1 26.35 46.8 25.75 47.8 25.5 48.8 25.15 49.9 25.15 51 25.15 51.9 25.5 52.85 25.75 53.55 26.35 54.2 26.95 54.6 27.8
M 42.35 37.85
L 42.35 41 32.55 41 32.55 25.45 36 25.45 36 37.85 42.35 37.85 Z"/>

<path fill="#8F8F8F" stroke="none" d="
M 42.35 41
L 42.35 37.85 36 37.85 36 25.45 32.55 25.45 32.55 41 42.35 41
M 55 29.9
Q 55 28.7 54.6 27.8 54.2 26.95 53.55 26.35 52.85 25.75 51.9 25.5 51 25.15 49.9 25.15 48.8 25.15 47.8 25.5 46.8 25.75 46.1 26.35 45.4 26.95 44.95 27.85 44.5 28.75 44.4 29.95
L 47.7 30.2
Q 47.8 29.35 48.3 28.8 48.8 28.2 49.75 28.2 50.55 28.2 51.1 28.65 51.7 29.1 51.7 29.95 51.7 30.6 51.2 31.1 50.75 31.7 50.25 32.1
L 44.25 37.5 44.25 41 55.05 41 55.05 38.1 48.2 38.1 52.9 34.05
Q 53.35 33.65 53.7 33.25 54.1 32.8 54.35 32.3 54.65 31.8 54.8 31.2 55 30.6 55 29.9 Z"/>
</g>

<path id="Layer1_0_1_STROKES" stroke="#1B1B1B" stroke-width="5" stroke-linejoin="round" stroke-linecap="round" fill="none" d="
M 85.5 28.8
Q 85.35 24.3 85.05 19.75 84.75 15.1 80.8 12.75 76.7 10.35 72.05 11.15 70.25 11.25 68.45 11.4 68.2 11.4 67.95 11.45 42.45 13.4 22.55 11.75 15.9 15.65 16 25 20.9 47.75 17.35 70.8 16.15 77.65 21.25 84.65 26.35 89.35 34.4 90.6 50.3 93.1 61.05 83.95
L 67.6 70.35
Q 70.8 59 77.85 53.75 84.15 50.35 85.5 43.35
L 85.5 28.8 Z"/>

<path id="Layer1_0_2_STROKES" stroke="#626262" stroke-width="3" stroke-linejoin="round" stroke-linecap="round" fill="none" d="
M 26.1 18.9
Q 30.2 19.2 34.15 19.5 38.3 19.65 42.4 19.65 43.45 19.65 44.45 19.65 45.5 19.65 46.55 19.65 47.6 19.6 48.65 19.6 49.7 19.55 50.75 19.5 51.8 19.45 52.85 19.4 53.9 19.3 54.95 19.25 56 19.15 57.05 19.1 58.15 19 59.25 18.9 61.25 20.1 62.15 21.95 63.1 24.05 62.85 26.25 62.75 27.15 62.7 28.05 62.7 28.9 62.7 29.75 62.65 30.6 62.6 31.5 62.6 32.35 62.55 33.2 62.5 34.05 62.4 34.95 62.35 35.8 62.25 36.65 62.2 37.5 62.15 38.35 62.05 39.2 61.95 40.05 61.85 40.9 61.75 41.75 61.6 42.6 61.45 43.45 61.3 44.3 61.15 45.15 61.05 45.95 60.9 46.8 60.7 47.65 60.5 48.5 60.35 49.3 60.15 50.15 59.95 50.95 59.75 51.8 59.25 53.75 58.7 55.75 57.8 59 56.35 62.4 55 65.55 53.3 68.75 52.35 70.45 51.3 72.15 50.55 73.45 49.7 74.7 48.9 75.8 48 76.85 46.75 78.1 45.35 79.3 44.1 80.35 42.7 81.25 41.5 81.95 40.15 82.5 38.5 83.1 36.75 83.35 35.2 83.7 33.2 83.7 32.8 83.65 32 83.5 31.45 83.3 30.9 83.15 30.45 82.95 29.95 82.75 29.5 82.5 29.05 82.3 28.7 82.05 28.3 81.8 27.6 81.25 26.95 80.65 26.6 80.35 26.35 80 26.1 79.7 25.9 79.3 25.45 78.6 25.15 77.85 24.8 77.05 24.6 76.25 24.2 74.4 24.45 72.45 24.55 71.7 24.6 71 24.75 69.45 24.9 67.9 25.05 66.3 25.15 64.7 25.3 63 25.4 61.3 25.5 59.55 25.6 57.8 25.7 54.95 25.75 52.25 25.8 49.3 25.9 46.35 25.95 43.45 25.7 40.55 25.5 37.9 25.2 35.6 24.85 32.5 24.4 29.5 24.05 27.05 23.65 24.7 23.5 23 24.2 21.4 24.85 19.85 26.1 18.9 Z"/>

</defs>

<g transform="matrix( 1, 0, 0, 1, 0,0) ">
<use xlink:href="#Layer1_0_FILL"/>

<use xlink:href="#Layer1_0_1_STROKES"/>

<use xlink:href="#Layer1_0_2_STROKES"/>
</g>

<g transform="matrix( 1, 0, 0, 1, -3.4,-28) ">
<clipPath id="Mask_Mask_1">
<rect x="8.35" y="-2" width="90.1" height="20.8" fill="#FFFFFF" stroke="none"/>
</clipPath>

<text clip-path="url(#Mask_Mask_1)" writing-mode="lr"><tspan x="10.45" y="13.6" baseline-shift="0%" kerning="auto" font-family="Arial_Regular" font-size="15" fill="#999999" xml:space="preserve">Playstation 5</tspan></text>
</g>
</svg>
