<?xml version="1.0" encoding="utf-8"?>
<!-- Generator: Adobe Illustrator 24.1.2, SVG Export Plug-In . SVG Version: 6.00 Build 0)  -->
<svg version="1.1" id="Layer_1" xmlns="http://www.w3.org/2000/svg" xmlns:xlink="http://www.w3.org/1999/xlink" x="0px" y="0px"
	 viewBox="0 0 100 100" style="enable-background:new 0 0 100 100;" xml:space="preserve">
<style type="text/css">
	.st0{fill:#96989D;}
	.st1{fill:#BCBFC4;}
	.st2{fill:#54565A;}
	.st3{fill:#D6D9DE;}
	.st4{fill:#FFFFFF;}
	.st5{fill:none;stroke:#E3E7ED;stroke-width:4;stroke-linecap:round;stroke-linejoin:round;}
	.st6{fill:none;stroke:#434345;stroke-width:2;stroke-linecap:round;stroke-linejoin:round;}
	.st7{fill:none;stroke:#FFFFFF;stroke-width:4;stroke-linecap:round;stroke-linejoin:round;}
	.st8{fill:none;stroke:#BCBFC4;stroke-width:2;stroke-linecap:round;stroke-linejoin:round;}
</style>
<g transform="matrix( 1, 0, 0, 1, 0,0) ">
	<g>
		<g id="Layer1_0_FILL">
			<path class="st0" d="M66.7,11.9c0.2-3.6-1.4-5.8-4.9-6.4C58.1,4.6,54.2,4.2,50,4.2c-4.2,0-8.1,0.4-11.7,1.2
				c-3.5,0.7-5.1,2.8-5,6.4L35.2,28c0.4,1.7,2.5,4.8,6.3,9.3c0.6,0.7,1.1,1.4,1.6,2c0.9,1,1.8,2,2.6,3c0.6,0.8,1.3,1.4,2.1,1.8
				c1.1,0.5,2.1,0.6,3.2,0.3c1.1-0.2,2-0.7,2.8-1.5c0.5-0.5,1-1,1.5-1.6c0.6-0.8,1.3-1.5,2-2.3c0.4-0.5,0.9-1.1,1.4-1.7
				c3.8-4.5,5.9-7.6,6.3-9.3L66.7,11.9 M50.3,38.2h-0.5c-0.3-0.1-0.9-0.7-1.8-2c-1-1.2-2.1-2.5-3.2-3.8c-1.2-1.2-2.4-2.8-3.8-4.8
				l-2-16.6c3.3-0.8,6.9-1.3,10.8-1.3c0.1,0,0.1,0,0.3,0s0.2,0,0.3,0c3.9,0,7.5,0.4,10.8,1.3l-2,16.6c-1.4,2-2.6,3.6-3.8,4.8
				c-1.1,1.3-2.2,2.5-3.2,3.8C51.1,37.4,50.5,38.1,50.3,38.2 M56,52.3c0.4,0.8,1,1.5,1.8,2.1c1,0.8,2,1.6,3,2.6c0.6,0.5,1.2,1,2,1.6
				c4.5,3.8,7.6,5.9,9.3,6.3l16.2,1.8c3.6,0.2,5.8-1.4,6.5-4.9c0.8-3.6,1.2-7.5,1.2-11.7c0-4.2-0.4-8.2-1.2-11.8
				c-0.7-3.5-2.9-5.1-6.5-5L72,35.2c-1.7,0.4-4.8,2.5-9.3,6.3c-0.6,0.5-1.2,1-1.7,1.4c-0.7,0.7-1.5,1.3-2.3,2
				c-0.6,0.5-1.1,1-1.6,1.5c-0.8,0.7-1.3,1.7-1.5,2.8C55.4,50.1,55.5,51.2,56,52.3 M72.4,59.1c-2-1.4-3.6-2.6-4.8-3.8
				c-1.3-1.1-2.5-2.2-3.8-3.2c-1.2-0.9-1.9-1.5-2-1.8v-0.5c0.1-0.3,0.7-0.9,2-1.8c1.2-1,2.5-2.1,3.8-3.2c1.2-1.2,2.8-2.4,4.8-3.8
				L89,39c0.8,3.3,1.3,6.9,1.3,10.8c0,0.1,0,0.1,0,0.3s0,0.2,0,0.3c0,3.9-0.4,7.5-1.3,10.8L72.4,59.1 M45.8,79.3l3.8,5.9l3.9-5.9
				H45.8 M5.4,61.7c0.7,3.5,2.8,5.2,6.4,4.9L28,64.8c1.7-0.4,4.8-2.5,9.3-6.3c0.7-0.6,1.4-1.1,2-1.6c1-0.9,2-1.8,3-2.6
				c0.8-0.6,1.4-1.3,1.8-2.1c0.5-1.1,0.6-2.1,0.3-3.2c-0.2-1.1-0.7-2-1.5-2.8c-0.5-0.5-1-1-1.6-1.5c-0.8-0.6-1.5-1.3-2.3-2
				c-0.5-0.4-1.1-0.9-1.7-1.4c-4.5-3.8-7.6-5.9-9.3-6.3l-16.2-1.8c-3.6-0.2-5.8,1.5-6.4,5c-0.8,3.6-1.2,7.5-1.2,11.8
				C4.2,54.2,4.6,58.1,5.4,61.7 M9.8,50.3c0-0.1,0-0.1,0-0.3s0-0.2,0-0.3c0-3.9,0.4-7.5,1.3-10.8l16.6,2c2,1.4,3.6,2.6,4.8,3.8
				c1.3,1.1,2.5,2.2,3.8,3.2c1.2,0.9,1.9,1.5,2,1.8v0.5c-0.1,0.3-0.7,0.9-2,1.8c-1.2,1-2.5,2.1-3.8,3.2c-1.2,1.2-2.8,2.4-4.8,3.8
				l-16.6,2C10.2,57.8,9.8,54.2,9.8,50.3z"/>
			<path class="st1" d="M49.8,38.2h0.5c0.3-0.1,0.9-0.7,1.8-2c1-1.2,2.1-2.5,3.2-3.8c1.2-1.2,2.4-2.8,3.8-4.8l2-16.6
				c-3.3-0.8-6.9-1.3-10.8-1.3c-0.1,0-0.1,0-0.3,0s-0.2,0-0.3,0c-3.9,0-7.5,0.4-10.8,1.3l2,16.6c1.4,2,2.6,3.6,3.8,4.8
				c1.1,1.3,2.2,2.5,3.2,3.8C48.9,37.4,49.5,38.1,49.8,38.2 M45.9,20.7l3.9-5.9l3.8,5.9H45.9 M67.6,55.3c1.2,1.2,2.8,2.4,4.8,3.8
				l16.6,2c0.8-3.3,1.3-6.9,1.3-10.8c0-0.1,0-0.1,0-0.3s0-0.2,0-0.3c0-3.9-0.4-7.5-1.3-10.8l-16.6,2c-2,1.4-3.6,2.6-4.8,3.8
				C66.3,45.9,65,47,63.8,48c-1.2,0.9-1.9,1.5-2,1.8v0.5c0.1,0.3,0.7,0.9,2,1.8C65,53.1,66.3,54.1,67.6,55.3 M79.3,46.6l5.9,3.8
				l-5.9,3.9V46.6 M9.8,50c0,0.1,0,0.2,0,0.3c0,3.9,0.4,7.5,1.3,10.8l16.6-2c2-1.4,3.6-2.6,4.8-3.8c1.3-1.1,2.5-2.2,3.8-3.2
				c1.2-0.9,1.9-1.5,2-1.8v-0.5c-0.1-0.3-0.7-0.9-2-1.8c-1.2-1-2.5-2.1-3.8-3.2c-1.2-1.2-2.8-2.4-4.8-3.8L11,39
				c-0.8,3.3-1.3,6.9-1.3,10.8C9.8,49.8,9.8,49.9,9.8,50 M20.7,46.6v7.6l-5.9-3.9L20.7,46.6z"/>
			<path class="st2" d="M49.7,14.8l-3.9,5.9h7.6L49.7,14.8 M85.2,50.3l-5.9-3.8v7.6L85.2,50.3 M20.7,54.2v-7.6l-5.9,3.8L20.7,54.2z"
				/>
			<path class="st3" d="M33.4,88.2c-0.2,3.6,1.5,5.8,5,6.5c3.6,0.8,7.5,1.2,11.8,1.2c4.2,0,8.1-0.4,11.7-1.2
				c3.5-0.7,5.2-2.9,4.9-6.5L64.8,72c-0.4-1.7-2.5-4.8-6.3-9.3c-0.6-0.7-1.1-1.4-1.6-2c-0.9-1-1.8-2-2.6-3c-0.6-0.8-1.3-1.4-2.1-1.8
				c-1.1-0.5-2.1-0.6-3.2-0.3c-1.1,0.2-2,0.7-2.8,1.5c-0.5,0.5-1,1-1.5,1.6c-0.6,0.8-1.3,1.5-2,2.3c-0.4,0.5-0.9,1.1-1.4,1.7
				c-3.8,4.5-5.9,7.6-6.3,9.3L33.4,88.2 M50,90.3c-0.1,0-0.2,0-0.3,0c-3.9,0-7.5-0.4-10.8-1.3l2-16.6c1.4-2,2.6-3.6,3.8-4.8
				c1.1-1.3,2.2-2.5,3.2-3.8c0.9-1.2,1.5-1.9,1.8-2h0.5c0.3,0.1,0.9,0.7,1.8,2c1,1.2,2.1,2.5,3.2,3.8c1.2,1.2,2.4,2.8,3.8,4.8
				l2,16.6c-3.3,0.8-6.9,1.3-10.8,1.3C50.2,90.3,50.1,90.3,50,90.3z"/>
			<path class="st4" d="M49.8,90.3c0.1,0,0.1,0,0.3,0s0.2,0,0.3,0c3.9,0,7.5-0.4,10.8-1.3l-2-16.6c-1.4-2-2.6-3.6-3.8-4.8
				c-1.1-1.3-2.2-2.5-3.2-3.8c-0.9-1.2-1.5-1.9-1.8-2h-0.5c-0.3,0.1-0.9,0.7-1.8,2c-1,1.2-2.1,2.5-3.2,3.8c-1.2,1.2-2.4,2.8-3.8,4.8
				L39,89C42.2,89.8,45.8,90.3,49.8,90.3 M49.6,85.2l-3.8-5.9h7.6L49.6,85.2z"/>
		</g>
	</g>
	<g>
		<path id="Layer1_0_1_STROKES" class="st5" d="M38.2,49.8c-0.1-0.3-0.7-0.9-2-1.8c-1.2-1-2.5-2.1-3.8-3.2c-1.2-1.2-2.8-2.4-4.8-3.8
			L11,39c-0.8,3.3-1.3,6.9-1.3,10.8c0,0.1,0,0.1,0,0.3s0,0.2,0,0.3c0,3.9,0.4,7.5,1.3,10.8l16.6-2c2-1.4,3.6-2.6,4.8-3.8
			c1.3-1.1,2.5-2.2,3.8-3.2c1.2-0.9,1.9-1.5,2-1.8 M61.9,49.8c0.1-0.3,0.7-0.9,2-1.8c1.2-1,2.5-2.1,3.8-3.2c1.2-1.2,2.8-2.4,4.8-3.8
			L89,39c0.8,3.3,1.3,6.9,1.3,10.8c0,0.1,0,0.1,0,0.3s0,0.2,0,0.3c0,3.9-0.4,7.5-1.3,10.8l-16.6-2c-2-1.4-3.6-2.6-4.8-3.8
			c-1.3-1.1-2.5-2.2-3.8-3.2c-1.2-0.9-1.9-1.5-2-1.8 M50.3,38.2c0.3-0.1,0.9-0.7,1.8-2c1-1.2,2.1-2.5,3.2-3.8
			c1.2-1.2,2.4-2.8,3.8-4.8l2-16.6c-3.3-0.8-6.9-1.3-10.8-1.3c-0.1,0-0.1,0-0.3,0s-0.2,0-0.3,0c-3.9,0-7.5,0.4-10.8,1.3l2,16.6
			c1.4,2,2.6,3.6,3.8,4.8c1.1,1.3,2.2,2.5,3.2,3.8c0.9,1.2,1.5,1.9,1.8,2"/>
	</g>
	<g>
		<path id="Layer1_0_2_STROKES" class="st6" d="M11.9,66.7c-3.6,0.2-5.8-1.4-6.4-4.9c-0.8-3.6-1.2-7.5-1.2-11.7
			c0-4.2,0.4-8.2,1.2-11.8c0.7-3.5,2.8-5.1,6.4-5L28,35.2c1.7,0.4,4.8,2.5,9.3,6.3c0.6,0.5,1.2,1,1.7,1.4c0.7,0.7,1.5,1.3,2.3,2
			c0.6,0.5,1.1,1,1.6,1.5c0.8,0.7,1.3,1.7,1.5,2.8c0.3,1.1,0.2,2.1-0.3,3.2c-0.4,0.8-1,1.5-1.8,2.1c-1,0.8-2,1.6-3,2.6
			c-0.6,0.5-1.2,1-2,1.6c-4.5,3.8-7.6,5.9-9.3,6.3L11.9,66.7z M72,35.2c-1.7,0.4-4.8,2.5-9.3,6.3c-0.6,0.5-1.2,1-1.7,1.4
			c-0.7,0.7-1.5,1.3-2.3,2c-0.6,0.5-1.1,1-1.6,1.5c-0.8,0.7-1.3,1.7-1.5,2.8c-0.3,1.1-0.2,2.1,0.3,3.2c0.4,0.8,1,1.5,1.8,2.1
			c1,0.8,2,1.6,3,2.6c0.6,0.5,1.2,1,2,1.6c4.5,3.8,7.6,5.9,9.3,6.3l16.2,1.8c3.6,0.2,5.8-1.4,6.5-4.9c0.8-3.6,1.2-7.5,1.2-11.7
			c0-4.2-0.4-8.2-1.2-11.8c-0.7-3.5-2.9-5.1-6.5-5L72,35.2z M33.4,11.9c-0.2-3.6,1.5-5.8,5-6.4c3.6-0.8,7.5-1.2,11.7-1.2
			c4.2,0,8.2,0.4,11.8,1.2c3.5,0.7,5.2,2.8,4.9,6.4L64.8,28c-0.4,1.7-2.5,4.8-6.3,9.3c-0.5,0.6-1,1.2-1.4,1.7
			c-0.7,0.7-1.3,1.5-2,2.3c-0.5,0.6-1,1.1-1.5,1.6c-0.7,0.8-1.7,1.3-2.8,1.5c-1.1,0.3-2.1,0.2-3.2-0.3c-0.8-0.4-1.5-1-2.1-1.8
			c-0.8-1-1.6-2-2.6-3c-0.5-0.6-1-1.2-1.6-2c-3.8-4.5-5.9-7.6-6.3-9.3L33.4,11.9z"/>
	</g>
	<g>
		<path id="Layer1_0_3_STROKES" class="st7" d="M49.8,61.9c-0.3,0.1-0.9,0.7-1.8,2c-1,1.2-2.1,2.5-3.2,3.8c-1.2,1.2-2.4,2.8-3.8,4.8
			L39,89c3.3,0.8,6.9,1.3,10.8,1.3c0.1,0,0.1,0,0.3,0s0.2,0,0.3,0c3.9,0,7.5-0.4,10.8-1.3l-2-16.6c-1.4-2-2.6-3.6-3.8-4.8
			c-1.1-1.3-2.2-2.5-3.2-3.8c-0.9-1.2-1.5-1.9-1.8-2"/>
	</g>
	<g>
		<path id="Layer1_0_4_STROKES" class="st8" d="M66.7,88.2c0.2,3.6-1.4,5.8-4.9,6.5c-3.6,0.8-7.5,1.2-11.7,1.2
			c-4.2,0-8.2-0.4-11.8-1.2c-3.5-0.7-5.1-2.9-5-6.5L35.2,72c0.4-1.7,2.5-4.8,6.3-9.3c0.5-0.6,1-1.2,1.4-1.7c0.7-0.7,1.3-1.5,2-2.3
			c0.5-0.6,1-1.1,1.5-1.6c0.7-0.8,1.7-1.3,2.8-1.5c1.1-0.3,2.1-0.2,3.2,0.3c0.8,0.4,1.5,1,2.1,1.8c0.8,1,1.6,2,2.6,3
			c0.5,0.6,1,1.2,1.6,2c3.8,4.5,5.9,7.6,6.3,9.3L66.7,88.2z"/>
	</g>
</g>
<g>
	<polyline class="st0" points="79.3,54.2 85.2,50.5 79.3,46.6 79.3,54.2 	"/>
	<path class="st3" d="M88.2,66.7c3.6,0.2,5.8-1.5,6.5-5c0.8-3.6,1.2-7.5,1.2-11.8c0-4.2-0.4-8.1-1.2-11.7c-0.7-3.5-2.9-5.2-6.5-5
		L72,35.2c-1.7,0.4-4.8,2.5-9.3,6.3c-0.7,0.6-1.4,1.1-2,1.6c-1,0.9-2,1.8-3,2.6c-0.8,0.6-1.4,1.3-1.8,2.1c-0.5,1.1-0.6,2.1-0.3,3.2
		c0.2,1.1,0.7,2,1.5,2.8c0.5,0.5,1,1,1.6,1.5c0.8,0.6,1.5,1.3,2.3,2c0.5,0.4,1.1,0.9,1.7,1.4c4.5,3.8,7.6,5.9,9.3,6.3L88.2,66.7
		 M90.3,50c0,0.1,0,0.2,0,0.3c0,3.9-0.4,7.5-1.3,10.8l-16.6-2c-2-1.4-3.6-2.6-4.8-3.8C66.3,54.1,65,53,63.8,52
		c-1.2-0.9-1.9-1.5-2-1.8v-0.5c0.1-0.3,0.7-0.9,2-1.8c1.2-1,2.5-2.1,3.8-3.2c1.2-1.2,2.8-2.4,4.8-3.8l16.6-2
		c0.8,3.3,1.3,6.9,1.3,10.8C90.3,49.8,90.3,49.9,90.3,50z"/>
	<path class="st4" d="M90.3,50.3c0-0.1,0-0.1,0-0.3s0-0.2,0-0.3c0-3.9-0.4-7.5-1.3-10.8l-16.6,2c-2,1.4-3.6,2.6-4.8,3.8
		C66.3,45.9,65,47,63.8,48c-1.2,0.9-1.9,1.5-2,1.8v0.5c0.1,0.3,0.7,0.9,2,1.8c1.2,1,2.5,2.1,3.8,3.2c1.2,1.2,2.8,2.4,4.8,3.8L89,61
		C89.8,57.8,90.3,54.2,90.3,50.3 M85.2,50.5l-5.9,3.8v-7.6L85.2,50.5z"/>
	<g>
		<path id="Layer1_0_3_STROKES_1_" class="st7" d="M61.9,50.3c0.1,0.3,0.7,0.9,2,1.8c1.2,1,2.5,2.1,3.8,3.2c1.2,1.2,2.8,2.4,4.8,3.8
			L89,61c0.8-3.3,1.3-6.9,1.3-10.8c0-0.1,0-0.1,0-0.3s0-0.2,0-0.3c0-3.9-0.4-7.5-1.3-10.8l-16.6,2c-2,1.4-3.6,2.6-4.8,3.8
			C66.3,45.9,65,47,63.8,48c-1.2,0.9-1.9,1.5-2,1.8"/>
	</g>
	<g>
		<path id="Layer1_0_4_STROKES_1_" class="st8" d="M88.2,33.3c3.6-0.2,5.8,1.5,6.5,5c0.8,3.6,1.2,7.5,1.2,11.7
			c0,4.2-0.4,8.2-1.2,11.8c-0.7,3.5-2.9,5.1-6.5,5L72,64.8c-1.7-0.4-4.8-2.5-9.3-6.3c-0.6-0.5-1.2-1-1.7-1.4c-0.7-0.7-1.5-1.3-2.3-2
			c-0.6-0.5-1.1-1-1.6-1.5C56.4,53,55.9,52,55.7,51c-0.3-1.1-0.2-2.1,0.3-3.2c0.4-0.8,1-1.5,1.8-2.1c1-0.8,2-1.6,3-2.6
			c0.6-0.5,1.2-1,2-1.6c4.5-3.8,7.6-5.9,9.3-6.3L88.2,33.3z"/>
	</g>
</g>
</svg>
