
<svg xmlns="http://www.w3.org/2000/svg" version="1.1" xmlns:xlink="http://www.w3.org/1999/xlink" x="0px" y="0px" viewBox="0 0 100 100">
<defs>
<g id="Layer1_0_FILL">
<path fill="#313131" stroke="none" d="
M 89.4 33.4
Q 89.45 28.25 85.7 24.85 82.05 21.5 77.3 20.75 72.3 20.25 67.4 20.3 62.6 20.3 57.7 20.6 52.75 20.75 47.95 21 43.25 21.4 38.6 22 34.2 22.55 29.7 23.35 24.7474609375 23.9484375 20.4 25.65 16.10703125 27.354296875 14.25 29.45 12.3927734375 31.5955078125 11.4 33.75 10.40234375 35.9513671875 10.35 39.9 10.3 44.5 11 49.05 11.4 51.85 11.95 54.5 12.6 58.3 14.3 61.8 16.4 65.95 19.9 69.35 23.35 72.7 27.75 75.05 31.35 77 35.25 77.95 39.75 79.1 44.35 79.3 48.5 79.65 52.7 79.65 57.25 79.65 61.85 78.85 66.6 78.1 71.1 76.45 75.4 75 79.1 72.5 83 69.85 85.4 65.6 86.8 63.25 87.25 60.4 87.95 56.1 88.4 51.8 88.8 47.6 89.1 43.2 89.4 38.25 89.4 33.4
M 81.9 33.4
Q 81.9 38.1 81.55 42.75 81.2 46.95 80.9 51.05 80.55 55.55 79.4 59.75 78.1 64.45 73.8 67.1 69.6 69.7 64.7 70.45 62.65 70.95 60.55 71.25 56.35 72.3 52.1 72.25 47.15 72.15 42.2 71.75 38.2 71.45 34.6 70 30.6 68.25 27 65.4 23.55 62.65 21.6 58.65 19.5 54.4 18.6 49.9 17.7 45.4 18 40.75 18.3 35.9 22.25 33.45 23.7 32.5 25.4 32.1 29.25 30.95 33.15 30.4 37.4 29.65 41.8 29.2 46.05 28.6 50.35 28.5 54.2 28.2 58.1 28.1 62.8 27.9 67.4 27.8 71.7 27.4 75.95 28.15 80.95 28.95 81.9 33.4 Z"/>

<path fill="#4F4F4F" stroke="none" d="
M 81.55 42.75
Q 81.9 38.1 81.9 33.4 80.95 28.95 75.95 28.15 71.7 27.4 67.4 27.8 62.8 27.9 58.1 28.1 54.2 28.2 50.35 28.5 46.05 28.6 41.8 29.2 37.4 29.65 33.15 30.4 29.25 30.95 25.4 32.1 23.7 32.5 22.25 33.45 18.3 35.9 18 40.75 17.7 45.4 18.6 49.9 19.5 54.4 21.6 58.65 23.55 62.65 27 65.4 30.6 68.25 34.6 70 38.2 71.45 42.2 71.75 47.15 72.15 52.1 72.25 56.35 72.3 60.55 71.25 62.65 70.95 64.7 70.45 69.6 69.7 73.8 67.1 78.1 64.45 79.4 59.75 80.55 55.55 80.9 51.05 81.2 46.95 81.55 42.75
M 41.6 40
L 45.5 40 45.5 54.1 52.7 54.1 52.7 57.7 41.6 57.7 41.6 40
M 58.2 44.2
L 54.65 47.3 52.55 44.8 58.3 39.95 61.8 40 61.8 57.7 58.2 57.7 58.2 44.2 Z"/>

<path fill="#8F8F8F" stroke="none" d="
M 54.65 47.3
L 58.2 44.2 58.2 57.7 61.8 57.7 61.8 40 58.3 39.95 52.55 44.8 54.65 47.3
M 45.5 40
L 41.6 40 41.6 57.7 52.7 57.7 52.7 54.1 45.5 54.1 45.5 40 Z"/>
</g>

<path id="Layer1_0_1_STROKES" stroke="#1B1B1B" stroke-width="5" stroke-linejoin="round" stroke-linecap="round" fill="none" d="
M 29.7 23.35
Q 24.7474609375 23.9484375 20.425 25.65 16.10703125 27.354296875 14.25 29.475 12.3927734375 31.5955078125 11.4 33.775 10.40234375 35.9513671875 10.35 39.9 10.3 44.5 11 49.05 11.4 51.85 11.95 54.5 12.6 58.3 14.3 61.8 16.4 65.95 19.9 69.35 23.35 72.7 27.75 75.05 31.35 77 35.25 77.95 39.75 79.1 44.35 79.3 48.5 79.65 52.7 79.65 57.25 79.65 61.85 78.85 66.6 78.1 71.1 76.45 75.4 75 79.1 72.5 83 69.85 85.4 65.6 86.8 63.25 87.25 60.4 87.95 56.1 88.4 51.8 88.8 47.6 89.1 43.2 89.4 38.25 89.4 33.4 89.45 28.25 85.7 24.85 82.05 21.5 77.3 20.75 72.3 20.25 67.4 20.3 62.6 20.3 57.7 20.6 52.75 20.75 47.95 21 43.25 21.4 38.6 22 34.2 22.55 29.7 23.35 Z"/>

<path id="Layer1_0_2_STROKES" stroke="#626262" stroke-width="3" stroke-linejoin="round" stroke-linecap="round" fill="none" d="
M 81.9 33.4
Q 81.9 38.1 81.55 42.75 81.2 46.95 80.9 51.05 80.55 55.55 79.4 59.75 78.1 64.45 73.8 67.1 69.6 69.7 64.7 70.45 62.65 70.95 60.55 71.25 56.35 72.3 52.1 72.25 47.15 72.15 42.2 71.75 38.2 71.45 34.6 70 30.6 68.25 27 65.4 23.55 62.65 21.6 58.65 19.5 54.4 18.6 49.9 17.7 45.4 18 40.75 18.3 35.9 22.25 33.45 23.7 32.5 25.4 32.1 29.25 30.95 33.15 30.4 37.4 29.65 41.8 29.2 46.05 28.6 50.35 28.5 54.2 28.2 58.1 28.1 62.8 27.9 67.4 27.8 71.7 27.4 75.95 28.15 80.95 28.95 81.9 33.4 Z"/>

</defs>

<g transform="matrix( 1, 0, 0, 1, 0,0) ">
<use xlink:href="#Layer1_0_FILL"/>

<use xlink:href="#Layer1_0_1_STROKES"/>

<use xlink:href="#Layer1_0_2_STROKES"/>
</g>

<g transform="matrix( 1, 0, 0, 1, -3.4,-28) ">
<clipPath id="Mask_Mask_1">
<rect x="8.35" y="-2" width="90.1" height="20.8" fill="#FFFFFF" stroke="none"/>
</clipPath>

<text clip-path="url(#Mask_Mask_1)" writing-mode="lr"><tspan x="10.45" y="13.6" baseline-shift="0%" kerning="auto" font-family="Arial_Regular" font-size="15" fill="#999999" xml:space="preserve">Playstation 5</tspan></text>
</g>
</svg>
