
<svg xmlns="http://www.w3.org/2000/svg" version="1.1" xmlns:xlink="http://www.w3.org/1999/xlink" x="0px" y="0px" viewBox="0 0 100 100">
<defs>
<g id="Layer1_0_FILL">
<path fill="#313131" stroke="none" d="
M 88.7 49.05
Q 89.4 44.5 89.35 39.9 89.3 35.95 88.3 33.8 87.3 31.6 85.45 29.5 83.6 27.35 79.25 25.65 74.95 23.95 70 23.35 65.5 22.55 61.1 22 56.45 21.4 51.75 21 46.95 20.75 42 20.6 37.1 20.3 32.3 20.3 27.4 20.25 22.4 20.75 17.65 21.5 14 24.85 10.25 28.25 10.3 33.4 10.3 38.25 10.6 43.2 10.9 47.6 11.3 51.8 11.75 56.1 12.45 60.4 12.9 63.25 14.3 65.6 16.7 69.85 20.6 72.5 24.3 75 28.6 76.45 33.1 78.1 37.85 78.85 42.45 79.65 47 79.65 51.2 79.65 55.35 79.3 59.95 79.1 64.45 77.95 68.35 77 71.95 75.05 76.35 72.7 79.8 69.35 83.3 65.95 85.4 61.8 87.1 58.3 87.75 54.5 88.3 51.85 88.7 49.05
M 81.7 40.75
Q 82 45.4 81.1 49.9 80.2 54.4 78.1 58.65 76.15 62.65 72.7 65.4 69.1 68.25 65.1 70 61.5 71.45 57.5 71.75 52.55 72.15 47.6 72.25 43.35 72.3 39.15 71.25 37.05 70.95 35 70.45 30.1 69.7 25.9 67.1 21.6 64.45 20.3 59.75 19.15 55.55 18.8 51.05 18.5 46.95 18.15 42.75 17.8 38.1 17.8 33.4 18.75 28.95 23.75 28.15 28 27.4 32.3 27.8 36.9 27.9 41.6 28.1 45.5 28.2 49.35 28.5 53.65 28.6 57.9 29.2 62.3 29.65 66.55 30.4 70.45 30.95 74.3 32.1 76 32.5 77.45 33.45 81.4 35.9 81.7 40.75 Z"/>

<path fill="#4F4F4F" stroke="none" d="
M 81.1 49.9
Q 82 45.4 81.7 40.75 81.4 35.9 77.45 33.45 76 32.5 74.3 32.1 70.45 30.95 66.55 30.4 62.3 29.65 57.9 29.2 53.65 28.6 49.35 28.5 45.5 28.2 41.6 28.1 36.9 27.9 32.3 27.8 28 27.4 23.75 28.15 18.75 28.95 17.8 33.4 17.8 38.1 18.15 42.75 18.5 46.95 18.8 51.05 19.15 55.55 20.3 59.75 21.6 64.45 25.9 67.1 30.1 69.7 35 70.45 37.05 70.95 39.15 71.25 43.35 72.3 47.6 72.25 52.55 72.15 57.5 71.75 61.5 71.45 65.1 70 69.1 68.25 72.7 65.4 76.15 62.65 78.1 58.65 80.2 54.4 81.1 49.9
M 48.7 41.15
Q 49.6 41.75 50.15 42.8 50.65 43.8 50.65 45.35 50.65 47.25 49.7 48.55 48.7 49.9 46.85 50.2
L 51.35 57.7 46.65 57.7 42.95 50.6 41.05 50.6 41.05 57.7 37.15 57.7 37.15 40 44 40
Q 45.35 40 46.55 40.25 47.8 40.5 48.7 41.15
M 52.35 44.8
L 58.1 39.95 61.6 40 61.6 57.7 58 57.7 58 44.2 54.45 47.3 52.35 44.8
M 43.6 43.3
L 41.05 43.3 41.05 47.3 43.35 47.3
Q 43.85 47.3 44.45 47.3 45.05 47.25 45.5 47.05 46 46.85 46.3 46.45 46.6 46.1 46.6 45.35 46.6 44.7 46.35 44.25 46.05 43.85 45.65 43.65 45.2 43.45 44.7 43.35 44.15 43.3 43.6 43.3 Z"/>

<path fill="#8F8F8F" stroke="none" d="
M 58.1 39.95
L 52.35 44.8 54.45 47.3 58 44.2 58 57.7 61.6 57.7 61.6 40 58.1 39.95
M 50.15 42.8
Q 49.6 41.75 48.7 41.15 47.8 40.5 46.55 40.25 45.35 40 44 40
L 37.15 40 37.15 57.7 41.05 57.7 41.05 50.6 42.95 50.6 46.65 57.7 51.35 57.7 46.85 50.2
Q 48.7 49.9 49.7 48.55 50.65 47.25 50.65 45.35 50.65 43.8 50.15 42.8
M 41.05 43.3
L 43.6 43.3
Q 44.15 43.3 44.7 43.35 45.2 43.45 45.65 43.65 46.05 43.85 46.35 44.25 46.6 44.7 46.6 45.35 46.6 46.1 46.3 46.45 46 46.85 45.5 47.05 45.05 47.25 44.45 47.3 43.85 47.3 43.35 47.3
L 41.05 47.3 41.05 43.3 Z"/>
</g>

<path id="Layer1_0_1_STROKES" stroke="#1B1B1B" stroke-width="5" stroke-linejoin="round" stroke-linecap="round" fill="none" d="
M 70 23.35
Q 74.95 23.95 79.25 25.65 83.6 27.35 85.45 29.5 87.3 31.6 88.3 33.8 89.3 35.95 89.35 39.9 89.4 44.5 88.7 49.05 88.3 51.85 87.75 54.5 87.1 58.3 85.4 61.8 83.3 65.95 79.8 69.35 76.35 72.7 71.95 75.05 68.35 77 64.45 77.95 59.95 79.1 55.35 79.3 51.2 79.65 47 79.65 42.45 79.65 37.85 78.85 33.1 78.1 28.6 76.45 24.3 75 20.6 72.5 16.7 69.85 14.3 65.6 12.9 63.25 12.45 60.4 11.75 56.1 11.3 51.8 10.9 47.6 10.6 43.2 10.3 38.25 10.3 33.4 10.25 28.25 14 24.85 17.65 21.5 22.4 20.75 27.4 20.25 32.3 20.3 37.1 20.3 42 20.6 46.95 20.75 51.75 21 56.45 21.4 61.1 22 65.5 22.55 70 23.35 Z"/>

<path id="Layer1_0_2_STROKES" stroke="#626262" stroke-width="3" stroke-linejoin="round" stroke-linecap="round" fill="none" d="
M 39.15 71.25
Q 43.35 72.3 47.6 72.25 52.55 72.15 57.5 71.75 61.5 71.45 65.1 70 69.1 68.25 72.7 65.4 76.15 62.65 78.1 58.65 80.2 54.4 81.1 49.9 82 45.4 81.7 40.75 81.4 35.9 77.45 33.45 76 32.5 74.3 32.1 70.45 30.95 66.55 30.4 62.3 29.65 57.9 29.2 53.65 28.6 49.35 28.5 45.5 28.2 41.6 28.1 36.9 27.9 32.3 27.8 28 27.4 23.75 28.15 18.75 28.95 17.8 33.4 17.8 38.1 18.15 42.75 18.5 46.95 18.8 51.05 19.15 55.55 20.3 59.75 21.6 64.45 25.9 67.1 30.1 69.7 35 70.45 37.05 70.95 39.15 71.25 Z"/>

</defs>

<g transform="matrix( 1, 0, 0, 1, 0,0) ">
<use xlink:href="#Layer1_0_FILL"/>

<use xlink:href="#Layer1_0_1_STROKES"/>

<use xlink:href="#Layer1_0_2_STROKES"/>
</g>

<g transform="matrix( 1, 0, 0, 1, -3.4,-28) ">
<clipPath id="Mask_Mask_1">
<rect x="8.35" y="-2" width="90.1" height="20.8" fill="#FFFFFF" stroke="none"/>
</clipPath>

<text clip-path="url(#Mask_Mask_1)" writing-mode="lr"><tspan x="10.45" y="13.6" baseline-shift="0%" kerning="auto" font-family="Arial_Regular" font-size="15" fill="#999999" xml:space="preserve">Playstation 5</tspan></text>
</g>
</svg>
