
<svg xmlns="http://www.w3.org/2000/svg" version="1.1" xmlns:xlink="http://www.w3.org/1999/xlink" x="0px" y="0px" viewBox="0 0 100 100">
<defs>
<g id="Layer1_0_FILL">
<path fill="#96989D" stroke="none" d="
M 66.95 29.65
Q 64.7 20.95 57 16.35 49.35 11.95 40.65 14.2 32 16.45 27.55 24.15 23 31.9 25.3 40.45
L 33.1 70.4
Q 35.4 79 43.1 83.55 50.8 88.1 59.4 85.9 68.1 83.6 72.65 75.8 77.05 68.2 74.8 59.5
L 66.95 29.65
M 52.5 24.2
Q 57 26.85 58.3 31.85
L 66.1 61.8
Q 67.4 66.85 64.85 71.3 62.2 75.7 57.15 77.1 52.1 78.4 47.65 75.75 43.15 73.25 41.85 68.2
L 33.95 38.25
Q 32.65 33.15 35.3 28.7 37.9 24.25 42.95 22.95 48 21.55 52.5 24.2 Z"/>

<path fill="#BCBFC4" stroke="none" d="
M 58.3 31.85
Q 57 26.85 52.5 24.2 48 21.55 42.95 22.95 37.9 24.25 35.3 28.7 32.65 33.15 33.95 38.25
L 41.85 68.2
Q 43.15 73.25 47.65 75.75 52.1 78.4 57.15 77.1 62.2 75.7 64.85 71.3 67.4 66.85 66.1 61.8
L 58.3 31.85 Z"/>
</g>

<path id="Layer1_0_1_STROKES" stroke="#E3E7ED" stroke-width="4" stroke-linejoin="round" stroke-linecap="round" fill="none" d="
M 33.95 38.25
Q 32.65 33.15 35.3 28.7 37.9 24.25 42.95 22.95 48 21.55 52.5 24.2 57 26.85 58.3 31.85
L 66.1 61.8
Q 67.4 66.85 64.85 71.3 62.2 75.7 57.15 77.1 52.1 78.4 47.65 75.75 43.15 73.25 41.85 68.2
L 33.95 38.25 Z"/>

<path id="Layer1_0_2_STROKES" stroke="#434345" stroke-width="4" stroke-linejoin="round" stroke-linecap="round" fill="none" d="
M 25.3 40.45
Q 23 31.9 27.55 24.15 32 16.45 40.65 14.2 49.35 11.95 57 16.35 64.7 20.95 66.95 29.65
L 74.8 59.5
Q 77.05 68.2 72.65 75.8 68.1 83.6 59.4 85.9 50.8 88.1 43.1 83.55 35.4 79 33.1 70.4
L 25.3 40.45 Z"/>

</defs>

<g transform="matrix( 1, 0, 0, 1, 0,0) ">
<use xlink:href="#Layer1_0_FILL"/>

<use xlink:href="#Layer1_0_1_STROKES"/>

<use xlink:href="#Layer1_0_2_STROKES"/>
</g>

<g transform="matrix( 1, 0, 0, 1, -3.4,-28) ">
<clipPath id="Mask_Mask_1">
<rect x="8.35" y="-2" width="90.1" height="20.8" fill="#FFFFFF" stroke="none"/>
</clipPath>

<text clip-path="url(#Mask_Mask_1)" writing-mode="lr"><tspan x="10.45" y="13.6" baseline-shift="0%" kerning="auto" font-family="Arial_Regular" font-size="15" fill="#999999" xml:space="preserve">Playstation 5</tspan></text>
</g>
</svg>
