
<svg xmlns="http://www.w3.org/2000/svg" version="1.1" xmlns:xlink="http://www.w3.org/1999/xlink" x="0px" y="0px" viewBox="0 0 100 100">
<defs>
<g id="Layer1_0_FILL">
<path fill="#1B1B1B" stroke="none" d="
M 39.15 51.15
Q 37.65 50.2 36 49.5
L 27.6 46.25 27.6 71.55 32.4 73.4 32.4 63.25 34.7 64.2 39.25 76.15 45.05 78.4 39.5 65.55
Q 41.8 65.9 43 64.55 44.2 63.2 44.2 60.45 44.2 58.25 43.55 56.5 42.9 54.8 41.8 53.4 40.7 52.1 39.15 51.15
M 35.5 54.15
Q 36.2 54.35 36.85 54.65 37.5 55.1 38.05 55.6 38.55 56 38.9 56.75 39.2 57.55 39.2 58.45 39.2 59.55 38.85 59.85 38.5 60.35 37.85 60.35 37.3 60.45 36.55 60.25 35.8 59.95 35.2 59.65
L 32.4 58.55 32.4 52.85 35.5 54.15 Z"/>

<path fill="#4F4F4F" stroke="none" d="
M 83.95 66.65
Q 87.55 56.95 83.25 44.6 77.65 28.85 61.1 20.95 44.5 12.95 24.4 16.35 15.05 21.5 14.5 30.2 28.2 31.15 46.1 39 58.75 44.2 64.7 55.25 70.75 66.2 65.8 76.5 68.2 81.55 73.2 82.55 80.2 76.35 83.95 66.65
M 57.25 31.75
L 57.2 31.75
Q 71.4 40.65 75 50.55 78.85 60.35 74.3 70.45 73.65 60.85 70.35 52.35 67 43.85 54.55 36
L 54.55 35.95
Q 42.15 28 27.6 25.25 43.55 23 57.25 31.75 Z"/>

<path fill="#626262" stroke="none" d="
M 57.2 31.75
L 57.25 31.75
Q 43.55 23 27.6 25.25 42.15 28 54.55 35.95
L 54.55 36
Q 67 43.85 70.35 52.35 73.65 60.85 74.3 70.45 78.85 60.35 75 50.55 71.4 40.65 57.2 31.75 Z"/>
</g>

<path id="Layer1_0_1_STROKES" stroke="#1B1B1B" stroke-width="5" stroke-linejoin="round" stroke-linecap="round" fill="none" d="
M 83.95 66.65
Q 87.55 56.95 83.25 44.6 77.65 28.85 61.1 20.95 44.5 12.95 24.4 16.35 15.05 21.5 14.5 30.2 28.2 31.15 46.1 39 58.75 44.2 64.7 55.25 70.75 66.2 65.8 76.5 68.2 81.55 73.2 82.55 80.2 76.35 83.95 66.65 Z"/>

</defs>

<g transform="matrix( 1, 0, 0, 1, 0,0) ">
<use xlink:href="#Layer1_0_FILL"/>

<use xlink:href="#Layer1_0_1_STROKES"/>
</g>

<g transform="matrix( 1, 0, 0, 1, -3.4,-28) ">
<clipPath id="Mask_Mask_1">
<rect x="-2.9" y="-2" width="112.6" height="20.8" fill="#FFFFFF" stroke="none"/>
</clipPath>

<text clip-path="url(#Mask_Mask_1)" writing-mode="lr"><tspan x="-0.85" y="13.6" baseline-shift="0%" kerning="auto" font-family="Arial_Regular" font-size="15" fill="#999999" xml:space="preserve">Nintendo Switch</tspan></text>
</g>
</svg>
