
<svg xmlns="http://www.w3.org/2000/svg" version="1.1" xmlns:xlink="http://www.w3.org/1999/xlink" x="0px" y="0px" viewBox="0 0 100 100">
<defs>
<g id="Layer1_0_FILL">
<path fill="#272727" stroke="none" d="
M 69.25 12.4
Q 69.5029296875 12.5658203125 69.75 12.7
L 69.75 12.55
Q 68.7865234375 12.05703125 67.8 11.6 68.5216796875 12.02265625 69.25 12.4
M 81 78.75
Q 92.2 66.75 92.2 50.1 92.2 33.45 81 21.45 80.45 20.85 79.85 20.25 75.157421875 15.557421875 69.75 12.7 69.5029296875 12.5658203125 69.25 12.4 68.5216796875 12.02265625 67.8 11.6 64.0673828125 9.851171875 60 8.9 55.63046875 7.88984375 50.85 7.8 50.4423828125 7.8 50 7.8 49.8447265625 7.8 49.7 7.8 49.54375 7.8009765625 49.4 7.8 49.2751953125 7.8015625 49.15 7.8 49.053515625 7.8017578125 48.95 7.8 48.8544921875 7.8021484375 48.75 7.8
L 40.15 8.85
Q 39.948828125 8.920703125 39.75 8.95 35.8447265625 9.8978515625 32.25 11.55 25.683203125 14.616796875 20.15 20.15 19.5611328125 20.7388671875 19 21.35 7.8 33.334375 7.8 50 7.8 66.665625 19 78.65 19.5611328125 79.2611328125 20.15 79.85 25.683203125 85.383203125 32.25 88.4 35.8451171875 90.1025390625 39.75 91
L 39.75 91.05
Q 40.6572265625 91.2646484375 41.55 91.4 45.5849609375 92.193359375 49.9 92.2 49.95 92.2 50 92.2 54.5771484375 92.19765625 58.8 91.35 59.40546875 91.22890625 60 91.1 64.04296875 90.1546875 67.75 88.4
L 67.75 88.55
Q 68.7619140625 88.0787109375 69.75 87.55 75.15703125 84.64296875 79.85 79.95 80.45 79.35 81 78.75
M 85.75 48.25
L 85.75 48.3 90.45 50.1 85.75 51.9
Q 85.55 56.85 84.1 61.35 81.55 69.25 75.25 75.45
L 75.3 75.45
Q 72.6779296875 78.1095703125 69.75 80.1 68.7673828125 80.7595703125 67.75 81.35
L 67.75 81.25
Q 64.0869140625 83.3853515625 60 84.5
L 60 84.45
Q 56.0859375 85.5748046875 51.75 85.75
L 51.7 85.75 49.9 90.45 48.1 85.8 48.1 85.75
Q 43.7513671875 85.57421875 39.75 84.4
L 39.75 84.45
Q 35.802734375 83.30625 32.25 81.2 28.2212890625 78.88125 24.7 75.3
L 24.75 75.35
Q 18.4259765625 69.1388671875 15.9 61.2 14.469921875 56.7544921875 14.25 51.8
L 9.55 50 14.25 48.2 14.25 48.15
Q 14.464453125 43.175390625 15.9 38.8
L 15.9 38.8
Q 18.4259765625 30.9111328125 24.75 24.7
L 24.7 24.7
Q 28.2212890625 21.16875 32.25 18.8 35.803125 16.7435546875 39.75 15.6
L 39.75 15.65 48.2 14.25 50 9.55 51.8 14.25 51.85 14.25
Q 52.3244140625 14.2708984375 52.8 14.3 55.7310546875 14.50078125 58.45 15.1 59.16875 15.2859375 59.85 15.45 59.9251953125 15.49765625 60 15.5 64.08671875 16.6646484375 67.75 18.8
L 67.75 18.95
Q 67.8630859375 19.0142578125 67.95 19.05 68.4248046875 19.3369140625 68.85 19.6 69.31328125 19.8865234375 69.75 20.15 72.651953125 22.136328125 75.25 24.8 75.2751953125 24.8248046875 75.3 24.85 81.56015625 31.0318359375 84.1 38.95
L 84.1 38.9
Q 85.55 43.3 85.75 48.25 Z"/>

<path fill="#606060" stroke="none" d="
M 32.25 71.4
Q 31.303515625 70.5892578125 30.4 69.65
L 30.35 69.65
Q 25.473828125 64.8611328125 23.5 58.75 22.9142578125 56.934375 22.55 55
L 14.25 51.8
Q 14.469921875 56.7544921875 15.9 61.2 18.4259765625 69.1388671875 24.75 75.35
L 24.7 75.3
Q 28.2212890625 78.88125 32.25 81.2 35.802734375 83.30625 39.75 84.45
L 39.75 84.4
Q 43.7513671875 85.57421875 48.1 85.75
L 44.9 77.4 44.9 77.4
Q 44.52265625 77.3419921875 44.15 77.25 44.024609375 77.2515625 43.9 77.2 43.4560546875 77.13203125 43 77 42.7578125 76.9671875 42.5 76.9 41.786328125 76.72265625 41.1 76.5 40.4169921875 76.2779296875 39.75 76
L 39.75 75.95
Q 35.7115234375 74.3697265625 32.25 71.4
M 45 22.6
L 48.2 14.25 39.75 15.65 39.75 15.6
Q 35.803125 16.7435546875 32.25 18.8 28.2212890625 21.16875 24.7 24.7
L 24.75 24.7
Q 18.4259765625 30.9111328125 15.9 38.8
L 15.9 38.8
Q 14.464453125 43.175390625 14.25 48.15
L 14.25 48.2 22.6 45 22.6 44.95
Q 22.92890625 43.06484375 23.5 41.3
L 23.5 41.25
Q 25.473828125 35.1888671875 30.35 30.4
L 30.4 30.35
Q 31.303515625 29.4607421875 32.25 28.65 35.711328125 25.6802734375 39.75 24.05
L 39.75 24
Q 40.4658203125 23.73671875 41.2 23.5 43.05 22.9 45 22.6
M 84.1 61.35
Q 85.55 56.85 85.75 51.9
L 77.4 55.1
Q 77.1 57.05 76.5 58.9 74.5701171875 64.8875 69.75 69.65 69.7001953125 69.70078125 69.65 69.75
L 69.6 69.8
Q 68.7 70.7 67.75 71.5
L 67.75 71.45
Q 64.18359375 74.4908203125 60 76.1
L 60 76
Q 59.308984375 76.271484375 58.6 76.5 56.85 77.05 54.95 77.4
L 54.9 77.4 54.85 77.45 54.85 77.45 51.7 85.75 51.75 85.75
Q 56.0859375 85.5748046875 60 84.45
L 60 84.5
Q 64.0869140625 83.3853515625 67.75 81.25
L 67.75 81.35
Q 68.7673828125 80.7595703125 69.75 80.1 72.6779296875 78.1095703125 75.3 75.45
L 75.25 75.45
Q 81.55 69.25 84.1 61.35
M 85.75 48.3
L 85.75 48.25
Q 85.55 43.3 84.1 38.9
L 84.1 38.95
Q 81.56015625 31.0318359375 75.3 24.85 75.2751953125 24.8248046875 75.25 24.8 72.651953125 22.136328125 69.75 20.15 69.31328125 19.8865234375 68.85 19.6 68.4248046875 19.3369140625 67.95 19.05 67.8630859375 19.0142578125 67.75 18.95
L 67.75 18.8
Q 64.08671875 16.6646484375 60 15.5 59.9251953125 15.49765625 59.85 15.45 59.16875 15.2859375 58.45 15.1 55.7310546875 14.50078125 52.8 14.3 52.3244140625 14.2708984375 51.85 14.25
L 51.8 14.25 55 22.6 55.05 22.6
Q 55.3169921875 22.64921875 55.55 22.7
L 56.1 22.8
Q 56.47734375 22.908203125 56.85 23 57.2078125 23.0814453125 57.55 23.15
L 58.25 23.35
Q 58.489453125 23.4337890625 58.7 23.5 59.357421875 23.71171875 60 23.95
L 60 23.95
Q 64.187109375 25.5623046875 67.75 28.6
L 67.75 28.75
Q 68.7 29.55 69.6 30.5
L 69.65 30.5
Q 69.7001953125 30.54921875 69.75 30.6 74.5701171875 35.3630859375 76.5 41.4 77.05 43.15 77.4 45.05
L 77.4 45.1 85.75 48.3 Z"/>

<path fill="#4E4E4E" stroke="none" d="
M 85.75 51.9
L 90.45 50.1 85.75 48.3 77.4 45.1 77.4 45.05
Q 77.05 43.15 76.5 41.4 74.5701171875 35.3630859375 69.75 30.6 69.7001953125 30.54921875 69.65 30.5
L 69.6 30.5
Q 68.7 29.55 67.75 28.75
L 67.75 28.6
Q 64.187109375 25.5623046875 60 23.95
L 60 23.95
Q 59.357421875 23.71171875 58.7 23.5 58.489453125 23.4337890625 58.25 23.35
L 57.55 23.15
Q 57.2078125 23.0814453125 56.85 23 56.47734375 22.908203125 56.1 22.8
L 55.55 22.7
Q 55.3169921875 22.64921875 55.05 22.6
L 55 22.6 51.8 14.25 50 9.55 48.2 14.25 45 22.6
Q 43.05 22.9 41.2 23.5 40.4658203125 23.73671875 39.75 24
L 39.75 24.05
Q 35.711328125 25.6802734375 32.25 28.65 31.303515625 29.4607421875 30.4 30.35
L 30.35 30.4
Q 25.473828125 35.1888671875 23.5 41.25
L 23.5 41.3
Q 22.92890625 43.06484375 22.6 44.95
L 22.6 45 14.25 48.2 9.55 50 14.25 51.8 22.55 55
Q 22.9142578125 56.934375 23.5 58.75 25.473828125 64.8611328125 30.35 69.65
L 30.4 69.65
Q 31.303515625 70.5892578125 32.25 71.4 35.7115234375 74.3697265625 39.75 75.95
L 39.75 76
Q 40.4169921875 76.2779296875 41.1 76.5 41.786328125 76.72265625 42.5 76.9 42.7578125 76.9671875 43 77 43.4560546875 77.13203125 43.9 77.2 44.024609375 77.2515625 44.15 77.25 44.52265625 77.3419921875 44.9 77.4
L 44.9 77.4 48.1 85.75 48.1 85.8 49.9 90.45 51.7 85.75 54.85 77.45 54.85 77.45 54.9 77.4 54.95 77.4
Q 56.85 77.05 58.6 76.5 59.308984375 76.271484375 60 76
L 60 76.1
Q 64.18359375 74.4908203125 67.75 71.45
L 67.75 71.5
Q 68.7 70.7 69.6 69.8
L 69.65 69.75
Q 69.7001953125 69.70078125 69.75 69.65 74.5701171875 64.8875 76.5 58.9 77.1 57.05 77.4 55.1
L 85.75 51.9
M 57.5 39.3
Q 58.8 40.15 59.55 41.6 60.3 43.05 60.3 45.25 60.3 47.85 58.95 49.7 57.55 51.55 54.95 52
L 61.25 62.5 54.7 62.5 49.5 52.6 46.85 52.6 46.85 62.5 41.4 62.5 41.4 37.7 50.95 37.7
Q 52.85 37.7 54.55 38.1 56.25 38.45 57.5 39.3
M 50.4 42.35
L 46.85 42.35 46.85 47.95 50.05 47.95
Q 50.8 47.95 51.6 47.9 52.4 47.85 53.1 47.6 53.75 47.35 54.2 46.8 54.6 46.25 54.6 45.2 54.6 44.25 54.25 43.7 53.85 43.15 53.25 42.85 52.65 42.55 51.9 42.45 51.15 42.35 50.4 42.35 Z"/>

<path fill="#8C8C8C" stroke="none" d="
M 59.55 41.6
Q 58.8 40.15 57.5 39.3 56.25 38.45 54.55 38.1 52.85 37.7 50.95 37.7
L 41.4 37.7 41.4 62.5 46.85 62.5 46.85 52.6 49.5 52.6 54.7 62.5 61.25 62.5 54.95 52
Q 57.55 51.55 58.95 49.7 60.3 47.85 60.3 45.25 60.3 43.05 59.55 41.6
M 46.85 42.35
L 50.4 42.35
Q 51.15 42.35 51.9 42.45 52.65 42.55 53.25 42.85 53.85 43.15 54.25 43.7 54.6 44.25 54.6 45.2 54.6 46.25 54.2 46.8 53.75 47.35 53.1 47.6 52.4 47.85 51.6 47.9 50.8 47.95 50.05 47.95
L 46.85 47.95 46.85 42.35 Z"/>
</g>

<path id="Layer1_0_1_STROKES" stroke="#151515" stroke-width="4" stroke-linejoin="round" stroke-linecap="round" fill="none" d="
M 67.75 88.55
Q 68.7619140625 88.0787109375 69.75 87.55 75.15703125 84.64296875 79.85 79.95 80.45 79.35 81 78.75 92.2 66.75 92.2 50.1 92.2 33.45 81 21.45 80.45 20.85 79.85 20.25 75.157421875 15.557421875 69.75 12.7 69.5029296875 12.5658203125 69.25 12.425 68.5216796875 12.02265625 67.8 11.6 64.0673828125 9.851171875 60 8.9 55.63046875 7.88984375 50.875 7.8 50.4423828125 7.8 50 7.8 49.8447265625 7.8 49.7 7.8 49.54375 7.8009765625 49.4 7.8 49.2751953125 7.8015625 49.15 7.8 49.053515625 7.8017578125 48.95 7.8 48.8544921875 7.8021484375 48.75 7.8
L 40.15 8.875
Q 39.948828125 8.920703125 39.75 8.975 35.8447265625 9.8978515625 32.25 11.575 25.683203125 14.616796875 20.15 20.15 19.5611328125 20.7388671875 19 21.35 7.8 33.334375 7.8 50 7.8 66.665625 19 78.65 19.5611328125 79.2611328125 20.15 79.85 25.683203125 85.383203125 32.25 88.425 35.8451171875 90.1025390625 39.75 91.025
M 39.75 91.05
Q 40.6572265625 91.2646484375 41.575 91.425 45.5849609375 92.193359375 49.9 92.2 49.95 92.2 50 92.2 54.5771484375 92.19765625 58.8 91.35 59.40546875 91.22890625 60 91.1 64.04296875 90.1546875 67.75 88.425
M 69.75 12.575
Q 68.7865234375 12.05703125 67.8 11.6"/>

</defs>

<g transform="matrix( 1, 0, 0, 1, 0,0) ">
<use xlink:href="#Layer1_0_FILL"/>

<use xlink:href="#Layer1_0_1_STROKES"/>
</g>

<g transform="matrix( 1, 0, 0, 1, -3.4,-28) ">
<clipPath id="Mask_Mask_1">
<rect x="-2.9" y="-2" width="112.6" height="20.8" fill="#FFFFFF" stroke="none"/>
</clipPath>

<text clip-path="url(#Mask_Mask_1)" writing-mode="lr"><tspan x="-0.85" y="13.6" baseline-shift="0%" kerning="auto" font-family="Arial_Regular" font-size="15" fill="#999999" xml:space="preserve">Nintendo Switch</tspan></text>
</g>
</svg>
