<?xml version="1.0" encoding="utf-8"?>
<!-- Generator: Adobe Illustrator 25.0.0, SVG Export Plug-In . SVG Version: 6.00 Build 0)  -->
<svg version="1.1" id="Layer_1" xmlns="http://www.w3.org/2000/svg" xmlns:xlink="http://www.w3.org/1999/xlink" x="0px" y="0px"
	 viewBox="0 0 100 100" style="enable-background:new 0 0 100 100;" xml:space="preserve">
<style type="text/css">
	.st0{fill:#313131;}
	.st1{fill:#4F4F4F;}
	.st2{fill:#9A9A9A;}
	.st3{fill:#1B1B1B;}
	.st4{fill:#F5F5F5;}
	.st5{fill:#D7D7D7;}
	.st6{fill:url(#SVGID_1_);}
</style>
<g transform="matrix( 1, 0, 0, 1, 0,0) ">
	<g>
		<g id="Layer1_0_FILL">
			<path class="st0" d="M34.8,62.7H12.8c-1.7-0.5-2.8-1.5-3.1-3.1V40.5c0.3-1.6,1.4-2.7,3.2-3.1h22c0.7,0,1.3-0.2,1.8-0.7
				c0.5-0.5,0.8-1.1,0.8-1.8v-22c0.5-1.8,1.5-2.8,3.1-3.2h19.1c1.6,0.3,2.7,1.4,3.1,3.2v22c0,0.6,0.2,1.1,0.5,1.5
				c-0.6,1.1-1.1,2.3-1.5,3.5c-0.3-0.2-0.5-0.5-0.8-0.7c-1.2-1.2-1.7-2.6-1.8-4.2V14.6c0-0.4-0.2-0.7-0.5-1c-0.3-0.3-0.7-0.5-1-0.5
				H42.3c-0.4,0-0.7,0.2-1,0.5h0c-0.3,0.3-0.4,0.6-0.4,1v20.2c0,1.7-0.6,3.1-1.8,4.2s-2.6,1.8-4.2,1.8H14.6c-0.4,0-0.7,0.2-1,0.5
				h-0.1c-0.3,0.3-0.4,0.7-0.4,1v15.3c0,0.4,0.1,0.7,0.4,1l0.1,0c0.3,0.3,0.6,0.4,1,0.4c0,0,20.2,0,20.2,0c1.7,0,3.1,0.6,4.2,1.8
				c0.2,0.2,0.5,0.5,0.7,0.8c-1.2,0.4-2.3,0.9-3.4,1.5C35.9,62.8,35.4,62.7,34.8,62.7z"/>
			<polyline class="st1" points="55,26 44.9,26 50,17 55,26 			"/>
			<polyline class="st1" points="26,55 17,50 26,44.9 26,55 			"/>
			<path class="st1" d="M41.2,13.6c-0.3,0.3-0.4,0.6-0.4,1v20.2c0,1.7-0.6,3.1-1.8,4.2s-2.6,1.8-4.2,1.8H14.6c-0.4,0-0.7,0.2-1,0.5
				h-0.1c-0.3,0.3-0.4,0.7-0.4,1v15.3c0,0.4,0.1,0.7,0.4,1l0.1,0c0.3,0.3,0.6,0.4,1,0.4h20.2c1.7,0,3.1,0.6,4.2,1.8
				c0.2,0.2,0.5,0.5,0.7,0.8C42.9,60.5,46.3,60,50,60s7,0.5,10.2,1.7l0.7-0.8c0.2-0.2,0.5-0.5,0.8-0.7C60.5,57,60,53.6,60,50
				s0.5-7,1.7-10.2c-0.3-0.2-0.5-0.5-0.8-0.7c-1.2-1.2-1.7-2.6-1.8-4.2V14.6c0-0.4-0.2-0.7-0.5-1c-0.3-0.3-0.7-0.5-1-0.5H42.3
				C42,13.1,41.6,13.3,41.2,13.6z"/>
			<polyline class="st1" points="44.9,26 50,17 55.1,26 44.9,26 			"/>
			<polygon class="st1" points="25.9,44.9 25.9,55 17,50 			"/>
			<path class="st2" d="M17,50l9,5V44.9L17,50 M44.9,26H55l-5-9L44.9,26z"/>
			<path class="st3" d="M55.1,74.1H44.9l5,8.9L55.1,74.1z M74.1,44.9V55l8.9-5L74.1,44.9z"/>
			<path class="st4" d="M86.8,42.3c0-0.4-0.1-0.7-0.4-1c-0.3-0.3-0.7-0.5-1.1-0.5H65.2c-1.3,0-2.5-0.3-3.5-1C60.5,43,60,46.4,60,50
				s0.5,7,1.7,10.2c1-0.7,2.2-1.1,3.5-1.1h20.2c0.4,0,0.8-0.1,1.1-0.4v0c0.3-0.3,0.4-0.7,0.4-1V42.3 M74.1,55V44.9L83,50L74.1,55z"
				/>
			<path class="st5" d="M90.3,40.5c-0.3-1.6-1.4-2.7-3.2-3.1h-22c-0.7,0-1.3-0.2-1.8-0.7c-0.1-0.1-0.1-0.2-0.2-0.3
				c-0.6,1.1-1.1,2.3-1.5,3.5c1,0.7,2.2,1,3.5,1h20.2c0.4,0,0.8,0.2,1.1,0.5c0.3,0.3,0.4,0.7,0.4,1v15.3c0,0.4-0.1,0.7-0.4,1v0
				c-0.3,0.3-0.7,0.4-1.1,0.4H65.2c-1.3,0-2.5,0.4-3.5,1.1c0.4,1.2,0.9,2.3,1.5,3.4c0.1-0.1,0.1-0.2,0.2-0.2
				c0.5-0.5,1.1-0.7,1.8-0.8h22c1.8-0.5,2.8-1.5,3.2-3.1V40.5z"/>
			
				<linearGradient id="SVGID_1_" gradientUnits="userSpaceOnUse" x1="84.4758" y1="51.9958" x2="15.4689" y2="51.9958" gradientTransform="matrix(1 0 0 -1 0 102)">
				<stop  offset="0" style="stop-color:#404040"/>
				<stop  offset="1" style="stop-color:#1B1B1B"/>
			</linearGradient>
			<path class="st6" d="M63.2,63.7c0.1-0.1,0.1-0.2,0.2-0.2c0.5-0.5,1.1-0.7,1.8-0.8h22c1.8-0.5,2.8-1.5,3.2-3.1V40.5
				c-0.3-1.6-1.4-2.7-3.2-3.1h-22c-0.7,0-1.3-0.2-1.8-0.7c-0.1-0.1-0.1-0.2-0.2-0.3c1.2-2.3,2.7-4.5,4.5-6.5v2.5h19.6
				c0.2,0,0.4,0,0.7,0.1H88c0,0,0.1,0,0.1,0h0.1c4.2,0.9,6.6,3.4,7.2,7.3v0.1c0,0.1,0,0.3,0,0.4c0,0,0,0.1,0,0.1v19.3
				c0,0.2,0,0.4,0,0.6c0,0,0,0.1,0,0.1c-0.6,3.7-2.9,6.1-6.9,7.2c-0.3,0.1-0.6,0.2-0.9,0.2H67.7v2.5v17.1c0,0.2,0,0.4-0.1,0.7v0.2
				l0,0c0,0,0,0.1,0,0.1c-0.9,4.2-3.4,6.6-7.3,7.1l-0.1,0c-0.1,0-0.3,0-0.4,0c0,0-0.1,0-0.1,0H40.4c-0.2,0-0.4,0-0.6,0l-0.1,0
				c-3.7-0.6-6.1-2.9-7.2-6.9c-0.1-0.3-0.2-0.6-0.2-0.9V67.7H12.5c-0.3,0-0.6-0.1-0.9-0.2c-4-1-6.3-3.4-6.9-7.2l0-0.1
				c0-0.2,0-0.4,0-0.6V40.3c0,0,0-0.1,0-0.1c0-0.1,0-0.2,0-0.4c0-0.1,0-0.1,0-0.1c0.5-3.9,2.9-6.3,7.1-7.2c0.1,0,0.1,0,0.2,0
				c0,0,0.1,0,0.1,0c0.3-0.1,0.5-0.1,0.7-0.1h19.6V12.5c0-0.3,0-0.6,0.2-0.9c1-4,3.4-6.3,7.2-6.9c0.1,0,0.1,0,0.1,0
				c0.2-0.1,0.4-0.1,0.6,0h19.1c0.2,0,0.3,0,0.5,0c0.1,0,0.1,0,0.2,0h0.1c3.9,0.5,6.4,2.9,7.3,7.1c0,0,0,0.1,0,0.2v0.1
				c0.1,0.2,0.1,0.5,0.1,0.7v17c-1.8,2-3.3,4.2-4.5,6.5c-0.3-0.4-0.5-0.9-0.5-1.5v-22c-0.4-1.8-1.5-2.8-3.1-3.2H40.5
				c-1.6,0.3-2.6,1.4-3.1,3.2v22c0,0.7-0.2,1.3-0.8,1.8c-0.5,0.5-1,0.7-1.8,0.7h-22c-1.8,0.4-2.8,1.5-3.2,3.1v19.1
				c0.3,1.6,1.4,2.6,3.1,3.1h22.1c0.7,0,1.3,0.3,1.8,0.8c0.5,0.5,0.8,1.1,0.8,1.8v22.1c0.5,1.7,1.5,2.8,3.1,3.1h19.1
				c1.6-0.3,2.7-1.4,3.1-3.2v-22C62.7,64.6,62.8,64.1,63.2,63.7z"/>
		</g>
	</g>
</g>
<path class="st5" d="M59.5,90.3c1.6-0.3,2.7-1.4,3.1-3.2v-22c0-0.7,0.2-1.3,0.7-1.8c0.1-0.1,0.2-0.1,0.3-0.2
	c-1.1-0.6-2.3-1.1-3.5-1.5c-0.7,1-1,2.2-1,3.5v20.2c0,0.4-0.2,0.8-0.5,1.1c-0.3,0.3-0.7,0.4-1,0.4H42.3c-0.4,0-0.7-0.1-1-0.4h0
	c-0.3-0.3-0.4-0.7-0.4-1.1V65.2c0-1.3-0.4-2.5-1.1-3.5c-1.2,0.4-2.3,0.9-3.4,1.5c0.1,0.1,0.2,0.1,0.2,0.2c0.5,0.5,0.7,1.1,0.8,1.8
	v22c0.5,1.8,1.5,2.8,3.1,3.2H59.5z"/>
</svg>
