
<svg xmlns="http://www.w3.org/2000/svg" version="1.1" xmlns:xlink="http://www.w3.org/1999/xlink" x="0px" y="0px" viewBox="0 0 100 100">
<defs>
<linearGradient id="Gradient_1" gradientUnits="userSpaceOnUse" x1="50" y1="91.5" x2="50" y2="67" spreadMethod="pad">
<stop  offset="0%" stop-color="#404040"/>

<stop  offset="100%" stop-color="#1B1B1B"/>
</linearGradient>

<g id="Layer1_0_FILL">
<path fill="#F5F5F5" stroke="none" d="
M 59.15 65.15
Q 59.15 63.2 60.2 61.65 55.45 60 50 60 44.55 60 39.75 61.65 40.85 63.2 40.85 65.15
L 40.85 85.35
Q 40.85 85.95 41.25 86.4
L 41.3 86.4
Q 41.75 86.85 42.35 86.85
L 57.65 86.85
Q 58.25 86.85 58.7 86.4 59.15 85.95 59.15 85.35
L 59.15 65.15
M 44.95 74.05
L 55.1 74.05 50 83 44.95 74.05 Z"/>

<path fill="#1B1B1B" stroke="none" d="
M 55.1 74.05
L 44.95 74.05 50 83 55.1 74.05
M 95.35 40.4
Q 95.4 40.1 95.3 39.8 95.3 39.75 95.3 39.65 94.4 34.05 88.4 32.5 88 32.35 87.5 32.35
L 67.65 32.35 67.65 12.75
Q 67.7 12.45 67.6 12.05 67.6 12 67.6 11.95 67.6 11.85 67.55 11.75 66.15 5.5 60.3 4.7 60.25 4.7 60.15 4.65 59.95 4.65 59.8 4.65 59.75 4.65 59.7 4.65
L 40.4 4.65
Q 40.1 4.6 39.8 4.65
L 39.65 4.7
Q 34.05 5.6 32.5 11.6 32.35 12 32.35 12.5
L 32.35 32.35 12.5 32.35
Q 12 32.35 11.6 32.5 5.6 34.05 4.7 39.65
L 4.65 39.8
Q 4.6 40.1 4.65 40.4
L 4.65 59.7
Q 4.65 59.75 4.65 59.8 4.65 59.95 4.65 60.15
L 4.7 60.25
Q 5.5 66.15 11.8 67.55 11.85 67.55 11.9 67.55
L 11.95 67.6 12.1 67.6
Q 12.45 67.7 12.75 67.65
L 29.85 67.65
Q 32.9 64.9 36.35 63.15 35.7 62.65 34.85 62.65
L 12.8 62.65
Q 10.15 62 9.65 59.55
L 9.65 40.45
Q 10.15 38.1 12.75 37.35
L 34.85 37.35
Q 35.9 37.35 36.6 36.6 37.35 35.9 37.35 34.85
L 37.35 12.75
Q 38.1 10.15 40.45 9.65
L 59.55 9.65
Q 62 10.15 62.65 12.8
L 62.65 34.85
Q 62.65 35.9 63.35 36.6 64.1 37.35 65.15 37.35
L 87.2 37.35
Q 89.85 38.1 90.35 40.45
L 90.35 59.55
Q 89.85 62 87.2 62.65
L 65.15 62.65
Q 64.3 62.65 63.65 63.15 67.1 64.9 70.15 67.65
L 87.2 67.65
Q 87.55 67.7 87.9 67.6
L 88 67.6
Q 88.15 67.6 88.2 67.55 94.5 66.15 95.3 60.25
L 95.3 60.15
Q 95.35 60.1 95.35 60 95.35 59.8 95.35 59.55
L 95.35 40.4 Z"/>

<path fill="#D7D7D7" stroke="none" d="
M 36.35 63.15
Q 36.5 63.25 36.6 63.35 37.35 64.1 37.35 65.15
L 37.35 87.2
Q 38.1 89.85 40.45 90.35
L 59.55 90.35
Q 62 89.85 62.65 87.2
L 62.65 65.15
Q 62.65 64.1 63.35 63.35 63.5 63.25 63.65 63.15 62 62.3 60.2 61.65 59.15 63.2 59.15 65.15
L 59.15 85.35
Q 59.15 85.95 58.7 86.4 58.25 86.85 57.65 86.85
L 42.35 86.85
Q 41.75 86.85 41.3 86.4
L 41.25 86.4
Q 40.85 85.95 40.85 85.35
L 40.85 65.15
Q 40.85 63.2 39.75 61.65 38 62.3 36.35 63.15 Z"/>

<path fill="url(#Gradient_1)" stroke="none" d="
M 36.6 63.35
Q 36.5 63.25 36.35 63.15 32.9 64.9 29.85 67.65
L 32.35 67.65 32.35 87.5
Q 32.35 88 32.5 88.4 34.05 94.4 39.65 95.3 39.75 95.3 39.8 95.3 40.1 95.4 40.4 95.35
L 59.7 95.35
Q 59.75 95.35 59.8 95.35 59.95 95.35 60.15 95.3
L 60.25 95.3
Q 66.15 94.5 67.55 88.15
L 67.55 88.1
Q 67.6 88.05 67.6 88
L 67.6 87.9
Q 67.7 87.55 67.65 87.25
L 67.65 67.65 70.15 67.65
Q 67.1 64.9 63.65 63.15 63.5 63.25 63.35 63.35 62.65 64.1 62.65 65.15
L 62.65 87.2
Q 62 89.85 59.55 90.35
L 40.45 90.35
Q 38.1 89.85 37.35 87.2
L 37.35 65.15
Q 37.35 64.1 36.6 63.35 Z"/>

<path fill="#4F4F4F" stroke="none" d="
M 86.85 42.35
Q 86.85 41.75 86.4 41.3
L 86.4 41.25
Q 85.95 40.85 85.35 40.85
L 65.15 40.85
Q 62.65 40.85 60.9 39.1 59.15 37.35 59.15 34.85
L 59.15 14.65
Q 59.15 14.05 58.7 13.6
L 58.7 13.55
Q 58.25 13.15 57.65 13.15
L 42.35 13.15
Q 41.75 13.15 41.3 13.55
L 41.25 13.6
Q 40.85 14.05 40.85 14.65
L 40.85 34.85
Q 40.85 37.35 39.1 39.1 37.35 40.85 34.85 40.85
L 14.65 40.85
Q 14.05 40.85 13.6 41.25
L 13.55 41.3
Q 13.15 41.75 13.15 42.35
L 13.15 57.65
Q 13.15 58.25 13.55 58.7
L 13.6 58.7
Q 14.05 59.15 14.65 59.15
L 34.85 59.15
Q 37.35 59.15 39.1 60.9 39.45 61.25 39.75 61.65 44.55 60 50 60 55.45 60 60.2 61.65 60.55 61.25 60.9 60.9 62.65 59.15 65.15 59.15
L 85.35 59.15
Q 85.95 59.15 86.4 58.7 86.85 58.25 86.85 57.65
L 86.85 42.35
M 55.1 25.95
L 44.95 25.95 50 17 55.1 25.95
M 25.95 55.05
L 17 50 25.95 44.9 25.95 55.05
M 74.05 55.05
L 74.05 44.9 83 50 74.05 55.05 Z"/>

<path fill="#9A9A9A" stroke="none" d="
M 74.05 44.9
L 74.05 55.05 83 50 74.05 44.9
M 17 50
L 25.95 55.05 25.95 44.9 17 50
M 44.95 25.95
L 55.1 25.95 50 17 44.95 25.95 Z"/>

<path fill="#313131" stroke="none" d="
M 86.4 41.3
Q 86.85 41.75 86.85 42.35
L 86.85 57.65
Q 86.85 58.25 86.4 58.7 85.95 59.15 85.35 59.15
L 65.15 59.15
Q 62.65 59.15 60.9 60.9 60.55 61.25 60.2 61.65 62 62.3 63.65 63.15 64.3 62.65 65.15 62.65
L 87.2 62.65
Q 89.85 62 90.35 59.55
L 90.35 40.45
Q 89.85 38.1 87.2 37.35
L 65.15 37.35
Q 64.1 37.35 63.35 36.6 62.65 35.9 62.65 34.85
L 62.65 12.8
Q 62 10.15 59.55 9.65
L 40.45 9.65
Q 38.1 10.15 37.35 12.75
L 37.35 34.85
Q 37.35 35.9 36.6 36.6 35.9 37.35 34.85 37.35
L 12.75 37.35
Q 10.15 38.1 9.65 40.45
L 9.65 59.55
Q 10.15 62 12.8 62.65
L 34.85 62.65
Q 35.7 62.65 36.35 63.15 38 62.3 39.75 61.65 39.45 61.25 39.1 60.9 37.35 59.15 34.85 59.15
L 14.65 59.15
Q 14.05 59.15 13.6 58.7
L 13.55 58.7
Q 13.15 58.25 13.15 57.65
L 13.15 42.35
Q 13.15 41.75 13.55 41.3
L 13.6 41.25
Q 14.05 40.85 14.65 40.85
L 34.85 40.85
Q 37.35 40.85 39.1 39.1 40.85 37.35 40.85 34.85
L 40.85 14.65
Q 40.85 14.05 41.25 13.6
L 41.3 13.55
Q 41.75 13.15 42.35 13.15
L 57.65 13.15
Q 58.25 13.15 58.7 13.55
L 58.7 13.6
Q 59.15 14.05 59.15 14.65
L 59.15 34.85
Q 59.15 37.35 60.9 39.1 62.65 40.85 65.15 40.85
L 85.35 40.85
Q 85.95 40.85 86.4 41.25
L 86.4 41.3 Z"/>
</g>

</defs>

<g transform="matrix( 1, 0, 0, 1, 0,0) ">
<use xlink:href="#Layer1_0_FILL"/>
</g>

<g transform="matrix( 1, 0, 0, 1, -3.4,-28) ">
<clipPath id="Mask_Mask_1">
<rect x="-2.9" y="-2" width="112.6" height="20.8" fill="#FFFFFF" stroke="none"/>
</clipPath>

<text clip-path="url(#Mask_Mask_1)" writing-mode="lr"><tspan x="-0.85" y="13.6" baseline-shift="0%" kerning="auto" font-family="Arial_Regular" font-size="15" fill="#999999" xml:space="preserve">Nintendo Switch</tspan></text>
</g>
</svg>
