
<svg xmlns="http://www.w3.org/2000/svg" version="1.1" xmlns:xlink="http://www.w3.org/1999/xlink" x="0px" y="0px" viewBox="0 0 100 100">
<defs>
<g id="Layer1_0_FILL">
<path fill="#1B1B1B" stroke="none" d="
M 78.65 21.35
Q 66.75 9.55 50 9.55 33.25 9.55 21.45 21.35
L 21.4 21.4
Q 9.55 33.25 9.55 50 9.55 66.8 21.45 78.6
L 21.4 78.6
Q 33.2 90.4 50 90.4 66.75 90.4 78.65 78.6 90.45 66.75 90.45 50 90.45 33.25 78.65 21.4
L 78.65 21.35
M 50 13.55
Q 65.1 13.55 75.8 24.2
L 75.85 24.2
Q 86.45 34.9 86.45 50 86.45 65.1 75.85 75.75
L 75.8 75.8
Q 65.1 86.4 50 86.4 34.9 86.4 24.25 75.75 13.55 65.1 13.55 50 13.55 34.9 24.25 24.2 34.9 13.55 50 13.55
M 61.1 35
L 30.9 50 61.1 65 61.1 35 Z"/>

<path fill="#313131" stroke="none" d="
M 75.8 24.2
Q 65.1 13.55 50 13.55 34.9 13.55 24.25 24.2 13.55 34.9 13.55 50 13.55 65.1 24.25 75.75 34.9 86.4 50 86.4 65.1 86.4 75.8 75.8
L 75.85 75.75
Q 86.45 65.1 86.45 50 86.45 34.9 75.85 24.2
L 75.8 24.2
M 50 19
Q 62.9 19 71.95 28.05
L 71.95 28.1
Q 81 37.2 81 50 81 62.85 71.95 71.95 62.85 81 50 81 37.2 81 28.1 71.95
L 28.05 71.95
Q 19 62.9 19 50 19 37.15 28.05 28.05 37.15 19 50 19 Z"/>

<path fill="#626262" stroke="none" d="
M 71.95 28.05
Q 62.9 19 50 19 37.15 19 28.05 28.05 19 37.15 19 50 19 62.9 28.05 71.95
L 28.1 71.95
Q 37.2 81 50 81 62.85 81 71.95 71.95 81 62.85 81 50 81 37.2 71.95 28.1
L 71.95 28.05
M 50 23
Q 61.2 23 69.1 30.9 77 38.8 77 50 77 61.2 69.15 69.1
L 69.1 69.15
Q 61.2 77 50 77 38.8 77 30.9 69.1 23 61.2 23 50 23 38.85 30.9 30.9 38.85 23 50 23 Z"/>

<path fill="#4F4F4F" stroke="none" d="
M 69.1 30.9
Q 61.2 23 50 23 38.85 23 30.9 30.9 23 38.85 23 50 23 61.2 30.9 69.1 38.8 77 50 77 61.2 77 69.1 69.15
L 69.15 69.1
Q 77 61.2 77 50 77 38.8 69.1 30.9
M 30.9 50
L 61.1 35 61.1 65 30.9 50 Z"/>
</g>

</defs>

<g transform="matrix( 1, 0, 0, 1, 0,0) ">
<use xlink:href="#Layer1_0_FILL"/>
</g>

<g transform="matrix( 1, 0, 0, 1, -3.4,-28) ">
<clipPath id="Mask_Mask_1">
<rect x="-2.9" y="-2" width="112.6" height="20.8" fill="#FFFFFF" stroke="none"/>
</clipPath>

<text clip-path="url(#Mask_Mask_1)" writing-mode="lr"><tspan x="-0.85" y="13.6" baseline-shift="0%" kerning="auto" font-family="Arial_Regular" font-size="15" fill="#999999" xml:space="preserve">Nintendo Switch</tspan></text>
</g>
</svg>
