<?xml version="1.0" encoding="utf-8"?>
<!-- Generator: Adobe Illustrator 25.0.0, SVG Export Plug-In . SVG Version: 6.00 Build 0)  -->
<svg version="1.1" id="Layer_1" xmlns="http://www.w3.org/2000/svg" xmlns:xlink="http://www.w3.org/1999/xlink" x="0px" y="0px"
	 viewBox="0 0 100 100" style="enable-background:new 0 0 100 100;" xml:space="preserve">
<style type="text/css">
	.st0{fill:#313131;}
	.st1{fill:#4F4F4F;}
	.st2{fill:#9A9A9A;}
	.st3{fill:#1B1B1B;}
	.st4{fill:#F5F5F5;}
	.st5{fill:#D7D7D7;}
	.st6{fill:url(#SVGID_1_);}
</style>
<g transform="matrix( 1, 0, 0, 1, 0,0) ">
	<g>
		<g id="Layer1_0_FILL">
			<path class="st0" d="M62.6,65.2v22.1c-0.5,1.7-1.5,2.8-3.1,3.1H40.4c-1.6-0.3-2.7-1.4-3.1-3.2v-22c0-0.7-0.2-1.3-0.7-1.8
				c-0.5-0.5-1.1-0.8-1.8-0.8h-22c-1.8-0.5-2.8-1.5-3.2-3.1V40.5c0.3-1.6,1.4-2.7,3.2-3.1h22c0.6,0,1.1-0.2,1.5-0.5
				c1.1,0.6,2.3,1.1,3.5,1.5c-0.2,0.3-0.5,0.5-0.7,0.8c-1.2,1.2-2.6,1.7-4.2,1.8H14.6c-0.4,0-0.7,0.2-1,0.5c-0.3,0.3-0.5,0.7-0.5,1
				v15.3c0,0.4,0.2,0.7,0.5,1v0c0.3,0.3,0.6,0.4,1,0.4h20.2c1.7,0,3.1,0.6,4.2,1.8s1.8,2.6,1.8,4.2v20.2c0,0.4,0.2,0.8,0.5,1.1v0
				c0.3,0.3,0.7,0.4,1,0.4h15.3c0.4,0,0.7-0.1,1-0.4l0,0c0.3-0.3,0.4-0.7,0.4-1.1c0,0,0-20.2,0-20.2c0-1.7,0.6-3.1,1.8-4.2
				c0.2-0.2,0.5-0.5,0.8-0.7c0.4,1.2,0.9,2.3,1.5,3.4C62.8,64.1,62.6,64.6,62.6,65.2z"/>
			<polyline class="st1" points="25.9,45 25.9,55.1 17,50 25.9,45 			"/>
			<polyline class="st1" points="55,74 50,83 44.9,74 55,74 			"/>
			<path class="st1" d="M13.6,58.8c0.3,0.3,0.6,0.4,1,0.4h20.2c1.7,0,3.1,0.6,4.2,1.8s1.8,2.6,1.8,4.2v20.2c0,0.4,0.2,0.8,0.5,1.1v0
				c0.3,0.3,0.7,0.4,1,0.4h15.3c0.4,0,0.7-0.1,1-0.4l0,0c0.3-0.3,0.4-0.7,0.4-1.1V65.2c0-1.7,0.6-3.1,1.8-4.3
				c0.2-0.2,0.5-0.5,0.8-0.7C60.5,57.1,60,53.7,60,50s0.5-7,1.7-10.2l-0.8-0.7c-0.2-0.2-0.5-0.5-0.7-0.8C57,39.5,53.6,40,50,40
				s-7-0.5-10.2-1.7c-0.2,0.3-0.5,0.5-0.7,0.8c-1.2,1.2-2.6,1.7-4.2,1.8H14.6c-0.4,0-0.7,0.2-1,0.5c-0.3,0.3-0.5,0.7-0.5,1v15.3
				C13.1,58,13.3,58.4,13.6,58.8z"/>
			<polyline class="st1" points="25.9,55.1 17,50 25.9,44.9 25.9,55.1 			"/>
			<polygon class="st1" points="44.9,74.1 55,74.1 50,83 			"/>
			<path class="st2" d="M50,83l5-9H44.9L50,83 M25.9,55.1V45l-9,5L25.9,55.1z"/>
			<path class="st3" d="M74,44.9v10.1l8.9-5L74,44.9z M44.9,25.9H55L50,17L44.9,25.9z"/>
			<path class="st4" d="M42.3,13.2c-0.4,0-0.7,0.1-1,0.4c-0.3,0.3-0.5,0.7-0.5,1.1v20.2c0,1.3-0.3,2.5-1,3.5C43,39.5,46.4,40,50,40
				s7-0.5,10.2-1.7c-0.7-1-1.1-2.2-1.1-3.5V14.7c0-0.4-0.1-0.8-0.4-1.1h0c-0.3-0.3-0.7-0.4-1-0.4H42.3 M55,25.9H44.9L50,17L55,25.9z
				"/>
			<path class="st5" d="M40.4,9.7c-1.6,0.3-2.7,1.4-3.1,3.2v22c0,0.7-0.2,1.3-0.7,1.8c-0.1,0.1-0.2,0.1-0.3,0.2
				c1.1,0.6,2.3,1.1,3.5,1.5c0.7-1,1-2.2,1-3.5V14.7c0-0.4,0.2-0.8,0.5-1.1c0.3-0.3,0.7-0.4,1-0.4h15.3c0.4,0,0.7,0.1,1,0.4h0
				c0.3,0.3,0.4,0.7,0.4,1.1v20.2c0,1.3,0.4,2.5,1.1,3.5c1.2-0.4,2.3-0.9,3.4-1.5c-0.1-0.1-0.2-0.1-0.2-0.2
				c-0.5-0.5-0.7-1.1-0.8-1.8v-22c-0.5-1.8-1.5-2.8-3.1-3.2H40.4z"/>
			
				<linearGradient id="SVGID_1_" gradientUnits="userSpaceOnUse" x1="84.4758" y1="51.9958" x2="15.4689" y2="51.9958" gradientTransform="matrix(0 -1 -1 0 101.9917 100)">
				<stop  offset="0" style="stop-color:#404040"/>
				<stop  offset="1" style="stop-color:#1B1B1B"/>
			</linearGradient>
			<path class="st6" d="M63.6,36.8c-0.1-0.1-0.2-0.1-0.2-0.2c-0.5-0.5-0.7-1.1-0.8-1.8v-22c-0.5-1.8-1.5-2.8-3.1-3.2H40.4
				c-1.6,0.3-2.7,1.4-3.1,3.2v22c0,0.7-0.2,1.3-0.7,1.8c-0.1,0.1-0.2,0.1-0.3,0.2c-2.3-1.2-4.5-2.7-6.5-4.5h2.5V12.7
				c0-0.2,0-0.4,0.1-0.7V12c0,0,0-0.1,0-0.1v-0.1c0.9-4.2,3.4-6.6,7.3-7.2h0.1c0.1,0,0.3,0,0.4,0c0,0,0.1,0,0.1,0h19.3
				c0.2,0,0.4,0,0.6,0c0,0,0.1,0,0.1,0c3.7,0.6,6.1,2.9,7.2,6.9c0.1,0.3,0.2,0.6,0.2,0.9v19.8h2.5h17.1c0.2,0,0.4,0,0.7,0.1H88l0,0
				c0,0,0.1,0,0.1,0c4.2,0.9,6.6,3.4,7.1,7.3l0,0.1c0,0.1,0,0.3,0,0.4c0,0,0,0.1,0,0.1v19.3c0,0.2,0,0.4,0,0.6l0,0.1
				c-0.6,3.7-2.9,6.1-6.9,7.2c-0.3,0.1-0.6,0.2-0.9,0.2H67.6v19.8c0,0.3-0.1,0.6-0.2,0.9c-1,4-3.4,6.3-7.2,6.9l-0.1,0.1
				c-0.2,0-0.4,0-0.6,0H40.3c0,0-0.1,0-0.1,0c-0.1,0-0.2,0-0.4,0c-0.1,0-0.1-0.1-0.1-0.1c-3.9-0.5-6.3-2.9-7.2-7c0-0.1,0-0.1,0-0.2
				c0,0,0-0.1,0-0.1c-0.1-0.3-0.1-0.5-0.1-0.7V67.7H12.5c-0.3,0-0.6-0.1-0.9-0.2c-4-1-6.3-3.4-6.9-7.2c0-0.1,0-0.1,0-0.1
				c-0.1-0.2-0.1-0.4,0-0.6V40.5c0-0.2,0-0.3,0-0.5c0-0.1,0-0.1,0-0.2v-0.1c0.5-3.9,2.9-6.4,7.1-7.3c0,0,0.1,0,0.2,0h0.1
				c0.2-0.1,0.5-0.1,0.7-0.1h17c2,1.8,4.2,3.3,6.5,4.5c-0.4,0.3-0.9,0.5-1.5,0.5h-22c-1.8,0.4-2.8,1.5-3.2,3.1v19.1
				c0.3,1.6,1.4,2.6,3.2,3.1h22c0.7,0,1.3,0.2,1.8,0.8c0.5,0.5,0.7,1,0.7,1.8v22c0.4,1.8,1.5,2.8,3.1,3.2h19.1
				c1.6-0.3,2.6-1.4,3.1-3.1V65.2c0-0.7,0.3-1.3,0.8-1.8c0.5-0.5,1.1-0.8,1.8-0.8h22.1c1.7-0.5,2.8-1.5,3.1-3.1V40.5
				c-0.3-1.6-1.4-2.7-3.2-3.1h-22C64.6,37.3,64.1,37.2,63.6,36.8z"/>
		</g>
	</g>
</g>
<path class="st5" d="M90.3,40.5c-0.3-1.6-1.4-2.7-3.2-3.1h-22c-0.7,0-1.3-0.2-1.8-0.7c-0.1-0.1-0.1-0.2-0.2-0.3
	c-0.6,1.1-1.1,2.3-1.5,3.5c1,0.7,2.2,1,3.5,1h20.2c0.4,0,0.8,0.2,1.1,0.5c0.3,0.3,0.4,0.7,0.4,1v15.3c0,0.4-0.1,0.7-0.4,1v0
	c-0.3,0.3-0.7,0.4-1.1,0.4H65.1c-1.3,0-2.5,0.4-3.5,1.1c0.4,1.2,0.9,2.3,1.5,3.4c0.1-0.1,0.1-0.2,0.2-0.2c0.5-0.5,1.1-0.7,1.8-0.8
	h22c1.8-0.5,2.8-1.5,3.2-3.1V40.5z"/>
</svg>
