<?xml version="1.0" encoding="utf-8"?>
<!-- Generator: Adobe Illustrator 25.0.0, SVG Export Plug-In . SVG Version: 6.00 Build 0)  -->
<svg version="1.1" id="Layer_1" xmlns="http://www.w3.org/2000/svg" xmlns:xlink="http://www.w3.org/1999/xlink" x="0px" y="0px"
	 viewBox="0 0 100 100" style="enable-background:new 0 0 100 100;" xml:space="preserve">
<g transform="matrix( 1, 0, 0, 1, 0,0) ">
	<g>
		<g id="Layer1_0_FILL">
			<path style="fill:#4F4F4F;" d="M88.5,69c-1-3.5-1.8-7-2.7-10.5c-2-8.8-3.5-17.3-4.4-25.8c-0.5-4.4-0.8-8.7-1-13
				c-5.1-3-9.9-4.6-14.4-4.6L16.9,28.6c-3.3,1-5.2,2.9-5.8,5.7c0.3,7.3,1.3,13.6,3.1,19.2c0.9,2.9,2.1,5.6,3.8,8.2
				c1.5,2.3,3.2,4.5,5.1,6.5c1.3,1.3,2.6,2.5,4,3.7c2.1,1.7,4.4,3.2,6.8,4.4c2.1,1.2,4.3,2.2,6.6,3.2c2.1,0.9,4.2,1.7,6.3,2.5
				c2.4,0.7,4.8,1.1,7.2,1.3c12.1,1.3,22.4-0.4,30.9-4.9C87.6,76.1,88.8,73,88.5,69 M62.8,23.8c0.5-0.5,1-0.8,1.7-0.8
				c0.7,0,1.3,0.2,1.8,0.6c0.5,0.5,0.8,1,0.8,1.7c0.1,2.5,0.3,4.9,0.5,7.4c0.9,8.5,2.7,17.1,5.3,25.8c1.2,3.9,2.5,7.8,4,11.7
				c-2.4-3.9-4.5-7.8-6.3-11.7c-4-8.6-6.6-17.2-7.8-25.8c-0.3-2.4-0.6-4.8-0.7-7.1C62.1,24.9,62.3,24.3,62.8,23.8 M52.8,31.7
				c0.6,0.3,1.1,0.7,1.5,1.3c0.3,0.6,0.5,1.5,0.5,2.5c0,1.4-0.3,2.6-0.9,3.7c-0.7,1.2-1.7,2-3,2.6l4.7,6.6L50.7,50l-3.9-6.6l-2,0.6
				v7.5l-4.1,1V33.7l7.2-1.9c0.9-0.3,1.8-0.4,2.6-0.4C51.5,31.3,52.2,31.4,52.8,31.7 M24.9,37.8l12.5-3.3v3.8L29.4,52l8.4-2.3v4
				l-13,3.5v-4L33,39.4l-8.1,2.2V37.8 M50.4,35.7c-0.2-0.3-0.5-0.4-0.8-0.5c-0.3,0-0.7,0-1,0c-0.4,0.1-0.8,0.1-1.2,0.2l-2.7,0.8v4.2
				l2.4-0.6c0.3-0.1,0.7-0.2,1.1-0.3c0.4-0.1,0.8-0.3,1.2-0.5c0.3-0.3,0.6-0.5,0.8-0.9c0.2-0.3,0.3-0.8,0.3-1.3
				C50.7,36.3,50.6,35.9,50.4,35.7z"/>
			<path style="fill:#9A9A9A;" d="M37.4,34.5l-12.5,3.3v3.8l8.1-2.2l-8.2,13.8v4l13-3.5v-4L29.4,52l8.1-13.8V34.5 M54.3,33
				c-0.4-0.6-0.9-1.1-1.5-1.3c-0.6-0.3-1.4-0.4-2.2-0.4c-0.9,0-1.7,0.2-2.6,0.4l-7.2,1.9v18.8l4.1-1V44l2-0.6l3.9,6.6l4.9-1.4
				l-4.7-6.6c1.3-0.6,2.3-1.4,3-2.6c0.6-1.1,0.9-2.3,0.9-3.7C54.8,34.5,54.7,33.6,54.3,33 M49.7,35.2c0.3,0.1,0.5,0.2,0.8,0.5
				c0.2,0.2,0.3,0.6,0.2,1c0,0.5-0.1,1-0.3,1.3c-0.2,0.3-0.5,0.6-0.8,0.9c-0.3,0.2-0.7,0.4-1.2,0.5c-0.4,0.1-0.8,0.2-1.1,0.3
				l-2.4,0.6v-4.2l2.7-0.8c0.4-0.1,0.8-0.2,1.2-0.2C49,35.2,49.3,35.2,49.7,35.2z"/>
			<path style="fill:#626262;" d="M64.5,23c-0.7,0-1.2,0.3-1.7,0.8c-0.5,0.5-0.7,1.1-0.6,1.8c0.1,2.4,0.4,4.8,0.7,7.1
				c1.2,8.5,3.8,17.1,7.8,25.8c1.8,3.9,3.9,7.8,6.3,11.7c-1.5-3.9-2.8-7.8-4-11.7c-2.6-8.6-4.4-17.2-5.3-25.8
				c-0.2-2.5-0.4-4.9-0.5-7.4c0-0.7-0.3-1.2-0.8-1.7C65.8,23.2,65.2,23,64.5,23z"/>
		</g>
	</g>
	<g>
		<path id="Layer1_0_1_STROKES" style="fill:none;stroke:#1B1B1B;stroke-width:5;stroke-linecap:round;stroke-linejoin:round;" d="
			M88.5,69c0.3,4-0.9,7.1-3.6,9.4c-8.5,4.5-18.8,6.2-30.9,4.9c-2.4-0.2-4.8-0.6-7.2-1.3c-2.2-0.8-4.3-1.6-6.3-2.5
			c-2.3-1-4.5-2-6.6-3.2c-2.4-1.2-4.7-2.7-6.8-4.4c-1.4-1.2-2.7-2.4-4-3.7c-2-2-3.7-4.2-5.1-6.5c-1.6-2.6-2.8-5.4-3.8-8.2
			c-1.8-5.5-2.9-11.9-3.1-19.2c0.6-2.8,2.5-4.7,5.8-5.7L66,15.1c4.5,0,9.3,1.5,14.4,4.6c0.2,4.3,0.5,8.7,1,13
			c0.9,8.4,2.4,17,4.4,25.8C86.7,62,87.5,65.5,88.5,69z"/>
	</g>
</g>
</svg>
