
<svg xmlns="http://www.w3.org/2000/svg" version="1.1" xmlns:xlink="http://www.w3.org/1999/xlink" x="0px" y="0px" viewBox="0 0 100 100">
<defs>
<linearGradient id="Gradient_1" gradientUnits="userSpaceOnUse" x1="8.399999999999999" y1="50" x2="32.9" y2="50" spreadMethod="pad">
<stop  offset="0%" stop-color="#404040"/>

<stop  offset="100%" stop-color="#1B1B1B"/>
</linearGradient>

<g id="Layer1_0_FILL">
<path fill="#F5F5F5" stroke="none" d="
M 13.5 41.3
Q 13.05 41.75 13.05 42.35
L 13.05 57.65
Q 13.05 58.25 13.5 58.7 13.95 59.15 14.55 59.15
L 34.75 59.15
Q 36.7 59.15 38.25 60.2 39.9 55.45 39.9 50 39.9 44.55 38.25 39.75 36.7 40.85 34.75 40.85
L 14.55 40.85
Q 13.95 40.85 13.5 41.25
L 13.5 41.3
M 25.85 55.1
L 16.9 50 25.85 44.95 25.85 55.1 Z"/>

<path fill="#1B1B1B" stroke="none" d="
M 16.9 50
L 25.85 55.1 25.85 44.95 16.9 50
M 95.25 40.4
Q 95.3 40.1 95.25 39.8
L 95.2 39.65
Q 94.3 34.05 88.3 32.5 87.9 32.35 87.4 32.35
L 67.55 32.35 67.55 12.5
Q 67.55 12 67.4 11.6 65.85 5.6 60.25 4.7
L 60.1 4.65
Q 59.8 4.6 59.5 4.65
L 40.2 4.65
Q 40.15 4.65 40.1 4.65 39.95 4.65 39.75 4.65
L 39.65 4.7
Q 33.75 5.5 32.35 11.8 32.35 11.85 32.35 11.9
L 32.3 11.95 32.3 12.1
Q 32.2 12.45 32.25 12.75
L 32.25 29.85
Q 35 32.9 36.75 36.35 37.25 35.7 37.25 34.85
L 37.25 12.8
Q 37.9 10.15 40.35 9.65
L 59.45 9.65
Q 61.8 10.15 62.55 12.75
L 62.55 34.85
Q 62.55 35.9 63.3 36.6 64 37.35 65.05 37.35
L 87.15 37.35
Q 89.75 38.1 90.25 40.45
L 90.25 59.55
Q 89.75 62 87.1 62.65
L 65.05 62.65
Q 64 62.65 63.3 63.35 62.55 64.1 62.55 65.15
L 62.55 87.2
Q 61.8 89.85 59.45 90.35
L 40.35 90.35
Q 37.9 89.85 37.25 87.2
L 37.25 65.15
Q 37.25 64.3 36.75 63.65 35 67.1 32.25 70.15
L 32.25 87.2
Q 32.2 87.55 32.3 87.9
L 32.3 88
Q 32.3 88.15 32.35 88.2 33.75 94.5 39.65 95.3
L 39.75 95.3
Q 39.8 95.35 39.9 95.35 40.1 95.35 40.35 95.35
L 59.5 95.35
Q 59.8 95.4 60.1 95.3 60.15 95.3 60.25 95.3 65.85 94.4 67.4 88.4 67.55 88 67.55 87.5
L 67.55 67.65 87.15 67.65
Q 87.45 67.7 87.85 67.6 87.9 67.6 87.95 67.6 88.05 67.6 88.15 67.55 94.4 66.15 95.2 60.3 95.2 60.25 95.25 60.15 95.25 59.95 95.25 59.8 95.25 59.75 95.25 59.7
L 95.25 40.4 Z"/>

<path fill="#D7D7D7" stroke="none" d="
M 12.7 37.35
Q 10.05 38.1 9.55 40.45
L 9.55 59.55
Q 10.05 62 12.7 62.65
L 34.75 62.65
Q 35.8 62.65 36.55 63.35 36.65 63.5 36.75 63.65 37.6 62 38.25 60.2 36.7 59.15 34.75 59.15
L 14.55 59.15
Q 13.95 59.15 13.5 58.7 13.05 58.25 13.05 57.65
L 13.05 42.35
Q 13.05 41.75 13.5 41.3
L 13.5 41.25
Q 13.95 40.85 14.55 40.85
L 34.75 40.85
Q 36.7 40.85 38.25 39.75 37.6 38 36.75 36.35 36.65 36.5 36.55 36.6 35.8 37.35 34.75 37.35
L 12.7 37.35 Z"/>

<path fill="url(#Gradient_1)" stroke="none" d="
M 9.55 40.45
Q 10.05 38.1 12.7 37.35
L 34.75 37.35
Q 35.8 37.35 36.55 36.6 36.65 36.5 36.75 36.35 35 32.9 32.25 29.85
L 32.25 32.35 12.4 32.35
Q 11.9 32.35 11.5 32.5 5.5 34.05 4.6 39.65 4.6 39.75 4.6 39.8 4.5 40.1 4.55 40.4
L 4.55 59.7
Q 4.55 59.75 4.55 59.8 4.55 59.95 4.6 60.15
L 4.6 60.25
Q 5.4 66.15 11.75 67.55
L 11.8 67.55
Q 11.85 67.6 11.9 67.6
L 12 67.6
Q 12.35 67.7 12.65 67.65
L 32.25 67.65 32.25 70.15
Q 35 67.1 36.75 63.65 36.65 63.5 36.55 63.35 35.8 62.65 34.75 62.65
L 12.7 62.65
Q 10.05 62 9.55 59.55
L 9.55 40.45 Z"/>

<path fill="#4F4F4F" stroke="none" d="
M 86.75 42.35
Q 86.75 41.75 86.35 41.3
L 86.3 41.25
Q 85.85 40.85 85.25 40.85
L 65.05 40.85
Q 62.55 40.85 60.8 39.1 59.05 37.35 59.05 34.85
L 59.05 14.65
Q 59.05 14.05 58.65 13.6
L 58.6 13.55
Q 58.15 13.15 57.55 13.15
L 42.25 13.15
Q 41.65 13.15 41.2 13.55
L 41.2 13.6
Q 40.75 14.05 40.75 14.65
L 40.75 34.85
Q 40.75 37.35 39 39.1 38.65 39.45 38.25 39.75 39.9 44.55 39.9 50 39.9 55.45 38.25 60.2 38.65 60.55 39 60.9 40.75 62.65 40.75 65.15
L 40.75 85.35
Q 40.75 85.95 41.2 86.4 41.65 86.85 42.25 86.85
L 57.55 86.85
Q 58.15 86.85 58.6 86.4
L 58.65 86.4
Q 59.05 85.95 59.05 85.35
L 59.05 65.15
Q 59.05 62.65 60.8 60.9 62.55 59.15 65.05 59.15
L 85.25 59.15
Q 85.85 59.15 86.3 58.7
L 86.35 58.7
Q 86.75 58.25 86.75 57.65
L 86.75 42.35
M 55 25.95
L 44.85 25.95 49.9 17 55 25.95
M 44.85 74.05
L 55 74.05 49.9 83 44.85 74.05
M 73.95 55.1
L 73.95 44.95 82.9 50 73.95 55.1 Z"/>

<path fill="#9A9A9A" stroke="none" d="
M 73.95 44.95
L 73.95 55.1 82.9 50 73.95 44.95
M 55 74.05
L 44.85 74.05 49.9 83 55 74.05
M 44.85 25.95
L 55 25.95 49.9 17 44.85 25.95 Z"/>

<path fill="#313131" stroke="none" d="
M 86.35 41.3
Q 86.75 41.75 86.75 42.35
L 86.75 57.65
Q 86.75 58.25 86.35 58.7
L 86.3 58.7
Q 85.85 59.15 85.25 59.15
L 65.05 59.15
Q 62.55 59.15 60.8 60.9 59.05 62.65 59.05 65.15
L 59.05 85.35
Q 59.05 85.95 58.65 86.4
L 58.6 86.4
Q 58.15 86.85 57.55 86.85
L 42.25 86.85
Q 41.65 86.85 41.2 86.4 40.75 85.95 40.75 85.35
L 40.75 65.15
Q 40.75 62.65 39 60.9 38.65 60.55 38.25 60.2 37.6 62 36.75 63.65 37.25 64.3 37.25 65.15
L 37.25 87.2
Q 37.9 89.85 40.35 90.35
L 59.45 90.35
Q 61.8 89.85 62.55 87.2
L 62.55 65.15
Q 62.55 64.1 63.3 63.35 64 62.65 65.05 62.65
L 87.1 62.65
Q 89.75 62 90.25 59.55
L 90.25 40.45
Q 89.75 38.1 87.15 37.35
L 65.05 37.35
Q 64 37.35 63.3 36.6 62.55 35.9 62.55 34.85
L 62.55 12.75
Q 61.8 10.15 59.45 9.65
L 40.35 9.65
Q 37.9 10.15 37.25 12.8
L 37.25 34.85
Q 37.25 35.7 36.75 36.35 37.6 38 38.25 39.75 38.65 39.45 39 39.1 40.75 37.35 40.75 34.85
L 40.75 14.65
Q 40.75 14.05 41.2 13.6
L 41.2 13.55
Q 41.65 13.15 42.25 13.15
L 57.55 13.15
Q 58.15 13.15 58.6 13.55
L 58.65 13.6
Q 59.05 14.05 59.05 14.65
L 59.05 34.85
Q 59.05 37.35 60.8 39.1 62.55 40.85 65.05 40.85
L 85.25 40.85
Q 85.85 40.85 86.3 41.25
L 86.35 41.3 Z"/>
</g>

</defs>

<g transform="matrix( 1, 0, 0, 1, 0,0) ">
<use xlink:href="#Layer1_0_FILL"/>
</g>

<g transform="matrix( 1, 0, 0, 1, -3.4,-28) ">
<clipPath id="Mask_Mask_1">
<rect x="-2.9" y="-2" width="112.6" height="20.8" fill="#FFFFFF" stroke="none"/>
</clipPath>

<text clip-path="url(#Mask_Mask_1)" writing-mode="lr"><tspan x="-0.85" y="13.6" baseline-shift="0%" kerning="auto" font-family="Arial_Regular" font-size="15" fill="#999999" xml:space="preserve">Nintendo Switch</tspan></text>
</g>
</svg>
