
<svg xmlns="http://www.w3.org/2000/svg" version="1.1" xmlns:xlink="http://www.w3.org/1999/xlink" x="0px" y="0px" viewBox="0 0 100 100">
<defs>
<g id="Layer1_0_FILL">
<path fill="#4F4F4F" stroke="none" d="
M 86.5 76.7
L 86.5 23.3
Q 86.5 13.5 76.7 13.5
L 23.3 13.5
Q 13.5 13.5 13.5 23.3
L 13.5 76.7
Q 13.5 86.5 23.3 86.5
L 76.7 86.5
Q 86.5 86.5 86.5 76.7
M 50.05 26.75
Q 59.65 26.75 66.45 33.45 73.3 40.3 73.3 50.05 73.3 59.65 66.45 66.45 59.65 73.3 50.05 73.3 40.3 73.3 33.45 66.45 26.75 59.65 26.75 50.05 26.75 40.3 33.45 33.45 40.3 26.75 50.05 26.75 Z"/>

<path fill="#1B1B1B" stroke="none" d="
M 66.45 33.45
Q 59.65 26.75 50.05 26.75 40.3 26.75 33.45 33.45 26.75 40.3 26.75 50.05 26.75 59.65 33.45 66.45 40.3 73.3 50.05 73.3 59.65 73.3 66.45 66.45 73.3 59.65 73.3 50.05 73.3 40.3 66.45 33.45 Z"/>
</g>

<path id="Layer1_0_1_STROKES" stroke="#1B1B1B" stroke-width="5" stroke-linejoin="round" stroke-linecap="round" fill="none" d="
M 86.5 76.7
L 86.5 23.3
Q 86.5 13.5 76.7 13.5
L 23.3 13.5
Q 13.5 13.5 13.5 23.3
L 13.5 76.7
Q 13.5 86.5 23.3 86.5
L 76.7 86.5
Q 86.5 86.5 86.5 76.7 Z"/>

<path id="Layer1_0_2_STROKES" stroke="#3B3B3B" stroke-width="5" stroke-linejoin="round" stroke-linecap="round" fill="none" d="
M 50.05 26.75
Q 59.65 26.75 66.45 33.45 73.3 40.3 73.3 50.05 73.3 59.65 66.45 66.45 59.65 73.3 50.05 73.3 40.3 73.3 33.45 66.45 26.75 59.65 26.75 50.05 26.75 40.3 33.45 33.45 40.3 26.75 50.05 26.75 Z"/>

</defs>

<g transform="matrix( 1, 0, 0, 1, 0,0) ">
<use xlink:href="#Layer1_0_FILL"/>

<use xlink:href="#Layer1_0_1_STROKES"/>

<use xlink:href="#Layer1_0_2_STROKES"/>
</g>

<g transform="matrix( 1, 0, 0, 1, -3.4,-28) ">
<clipPath id="Mask_Mask_1">
<rect x="-2.9" y="-2" width="112.6" height="20.8" fill="#FFFFFF" stroke="none"/>
</clipPath>

<text clip-path="url(#Mask_Mask_1)" writing-mode="lr"><tspan x="-0.85" y="13.6" baseline-shift="0%" kerning="auto" font-family="Arial_Regular" font-size="15" fill="#999999" xml:space="preserve">Nintendo Switch</tspan></text>
</g>
</svg>
