
<svg xmlns="http://www.w3.org/2000/svg" version="1.1" xmlns:xlink="http://www.w3.org/1999/xlink" x="0px" y="0px" viewBox="0 0 100 100">
<defs>
<linearGradient id="Gradient_1" gradientUnits="userSpaceOnUse" x1="91.5" y1="50" x2="67" y2="50" spreadMethod="pad">
<stop  offset="0%" stop-color="#404040"/>

<stop  offset="100%" stop-color="#1B1B1B"/>
</linearGradient>

<g id="Layer1_0_FILL">
<path fill="#313131" stroke="none" d="
M 41.3 13.6
Q 41.75 13.15 42.35 13.15
L 57.65 13.15
Q 58.25 13.15 58.7 13.6 59.15 14.05 59.15 14.65
L 59.15 34.85
Q 59.15 37.35 60.9 39.1 61.25 39.45 61.65 39.8 62.3 38 63.15 36.35 62.65 35.7 62.65 34.85
L 62.65 12.8
Q 62 10.15 59.55 9.65
L 40.45 9.65
Q 38.1 10.15 37.35 12.8
L 37.35 34.85
Q 37.35 35.9 36.6 36.65 35.9 37.35 34.85 37.35
L 12.8 37.35
Q 10.15 38 9.65 40.45
L 9.65 59.55
Q 10.15 61.9 12.75 62.65
L 34.85 62.65
Q 35.9 62.65 36.6 63.4 37.35 64.1 37.35 65.15
L 37.35 87.25
Q 38.1 89.85 40.45 90.35
L 59.55 90.35
Q 62 89.85 62.65 87.2
L 62.65 65.15
Q 62.65 64.3 63.15 63.65 62.3 62 61.65 60.25 61.25 60.55 60.9 60.9 59.15 62.65 59.15 65.15
L 59.15 85.35
Q 59.15 85.95 58.7 86.4
L 58.7 86.45
Q 58.25 86.85 57.65 86.85
L 42.35 86.85
Q 41.75 86.85 41.3 86.45
L 41.25 86.4
Q 40.85 85.95 40.85 85.35
L 40.85 65.15
Q 40.85 62.65 39.1 60.9 37.35 59.15 34.85 59.15
L 14.65 59.15
Q 14.05 59.15 13.6 58.75
L 13.55 58.7
Q 13.15 58.25 13.15 57.65
L 13.15 42.35
Q 13.15 41.75 13.55 41.3
L 13.6 41.3
Q 14.05 40.85 14.65 40.85
L 34.85 40.85
Q 37.35 40.85 39.1 39.1 40.85 37.35 40.85 34.85
L 40.85 14.65
Q 40.85 14.05 41.25 13.6
L 41.3 13.6 Z"/>

<path fill="#4F4F4F" stroke="none" d="
M 42.35 13.15
Q 41.75 13.15 41.3 13.6
L 41.25 13.6
Q 40.85 14.05 40.85 14.65
L 40.85 34.85
Q 40.85 37.35 39.1 39.1 37.35 40.85 34.85 40.85
L 14.65 40.85
Q 14.05 40.85 13.6 41.3
L 13.55 41.3
Q 13.15 41.75 13.15 42.35
L 13.15 57.65
Q 13.15 58.25 13.55 58.7
L 13.6 58.75
Q 14.05 59.15 14.65 59.15
L 34.85 59.15
Q 37.35 59.15 39.1 60.9 40.85 62.65 40.85 65.15
L 40.85 85.35
Q 40.85 85.95 41.25 86.4
L 41.3 86.45
Q 41.75 86.85 42.35 86.85
L 57.65 86.85
Q 58.25 86.85 58.7 86.45
L 58.7 86.4
Q 59.15 85.95 59.15 85.35
L 59.15 65.15
Q 59.15 62.65 60.9 60.9 61.25 60.55 61.65 60.25 60 55.45 60 50 60 44.55 61.65 39.8 61.25 39.45 60.9 39.1 59.15 37.35 59.15 34.85
L 59.15 14.65
Q 59.15 14.05 58.7 13.6 58.25 13.15 57.65 13.15
L 42.35 13.15
M 55.05 25.95
L 44.9 25.95 50 17 55.05 25.95
M 25.95 55.05
L 17 50 25.95 44.9 25.95 55.05
M 44.9 74.05
L 55.05 74.05 50 83 44.9 74.05 Z"/>

<path fill="#9A9A9A" stroke="none" d="
M 55.05 74.05
L 44.9 74.05 50 83 55.05 74.05
M 17 50
L 25.95 55.05 25.95 44.9 17 50
M 44.9 25.95
L 55.05 25.95 50 17 44.9 25.95 Z"/>

<path fill="#1B1B1B" stroke="none" d="
M 67.65 12.8
Q 67.7 12.45 67.6 12.1
L 67.6 12
Q 67.6 11.85 67.55 11.8 66.15 5.5 60.25 4.7
L 60.15 4.7
Q 60.1 4.65 60 4.65 59.8 4.65 59.55 4.65
L 40.4 4.65
Q 40.1 4.6 39.8 4.7 39.75 4.7 39.65 4.7 34.05 5.6 32.5 11.6 32.35 12 32.35 12.5
L 32.35 32.35 12.75 32.35
Q 12.45 32.3 12.05 32.4 12 32.4 11.95 32.4 11.85 32.4 11.75 32.45 5.5 33.85 4.7 39.7 4.7 39.75 4.65 39.85 4.65 40.05 4.65 40.2 4.65 40.25 4.65 40.3
L 4.65 59.6
Q 4.6 59.9 4.65 60.2
L 4.7 60.35
Q 5.6 65.95 11.6 67.5 12 67.65 12.5 67.65
L 32.35 67.65 32.35 87.5
Q 32.35 88 32.5 88.4 34.05 94.4 39.65 95.3
L 39.8 95.35
Q 40.1 95.4 40.4 95.35
L 59.7 95.35
Q 59.75 95.35 59.8 95.35 59.95 95.35 60.15 95.35
L 60.25 95.3
Q 66.15 94.5 67.55 88.2 67.55 88.15 67.55 88.1
L 67.6 88.05 67.6 87.9
Q 67.7 87.55 67.65 87.25
L 67.65 70.15
Q 64.9 67.1 63.15 63.65 62.65 64.3 62.65 65.15
L 62.65 87.2
Q 62 89.85 59.55 90.35
L 40.45 90.35
Q 38.1 89.85 37.35 87.25
L 37.35 65.15
Q 37.35 64.1 36.6 63.4 35.9 62.65 34.85 62.65
L 12.75 62.65
Q 10.15 61.9 9.65 59.55
L 9.65 40.45
Q 10.15 38 12.8 37.35
L 34.85 37.35
Q 35.9 37.35 36.6 36.65 37.35 35.9 37.35 34.85
L 37.35 12.8
Q 38.1 10.15 40.45 9.65
L 59.55 9.65
Q 62 10.15 62.65 12.8
L 62.65 34.85
Q 62.65 35.7 63.15 36.35 64.9 32.9 67.65 29.85
L 67.65 12.8
M 74.05 44.9
L 74.05 55.05 83 50 74.05 44.9 Z"/>

<path fill="#F5F5F5" stroke="none" d="
M 86.85 42.35
Q 86.85 41.75 86.4 41.3 85.95 40.85 85.35 40.85
L 65.15 40.85
Q 63.2 40.85 61.65 39.8 60 44.55 60 50 60 55.45 61.65 60.25 63.2 59.15 65.15 59.15
L 85.35 59.15
Q 85.95 59.15 86.4 58.75
L 86.4 58.7
Q 86.85 58.25 86.85 57.65
L 86.85 42.35
M 74.05 55.05
L 74.05 44.9 83 50 74.05 55.05 Z"/>

<path fill="#D7D7D7" stroke="none" d="
M 90.35 40.45
Q 89.85 38 87.2 37.35
L 65.15 37.35
Q 64.1 37.35 63.35 36.65 63.25 36.5 63.15 36.35 62.3 38 61.65 39.8 63.2 40.85 65.15 40.85
L 85.35 40.85
Q 85.95 40.85 86.4 41.3 86.85 41.75 86.85 42.35
L 86.85 57.65
Q 86.85 58.25 86.4 58.7
L 86.4 58.75
Q 85.95 59.15 85.35 59.15
L 65.15 59.15
Q 63.2 59.15 61.65 60.25 62.3 62 63.15 63.65 63.25 63.5 63.35 63.4 64.1 62.65 65.15 62.65
L 87.2 62.65
Q 89.85 61.9 90.35 59.55
L 90.35 40.45 Z"/>

<path fill="url(#Gradient_1)" stroke="none" d="
M 88.15 32.45
L 88.1 32.45
Q 88.05 32.4 88 32.4
L 87.9 32.4
Q 87.55 32.3 87.25 32.35
L 67.65 32.35 67.65 29.85
Q 64.9 32.9 63.15 36.35 63.25 36.5 63.35 36.65 64.1 37.35 65.15 37.35
L 87.2 37.35
Q 89.85 38 90.35 40.45
L 90.35 59.55
Q 89.85 61.9 87.2 62.65
L 65.15 62.65
Q 64.1 62.65 63.35 63.4 63.25 63.5 63.15 63.65 64.9 67.1 67.65 70.15
L 67.65 67.65 87.5 67.65
Q 88 67.65 88.4 67.5 94.4 65.95 95.3 60.35 95.3 60.25 95.3 60.2 95.4 59.9 95.35 59.6
L 95.35 40.3
Q 95.35 40.25 95.35 40.2 95.35 40.05 95.3 39.85
L 95.3 39.75
Q 94.5 33.85 88.15 32.45 Z"/>
</g>

</defs>

<g transform="matrix( 1, 0, 0, 1, 0,0) ">
<use xlink:href="#Layer1_0_FILL"/>
</g>

<g transform="matrix( 1, 0, 0, 1, -3.4,-28) ">
<clipPath id="Mask_Mask_1">
<rect x="-2.9" y="-2" width="112.6" height="20.8" fill="#FFFFFF" stroke="none"/>
</clipPath>

<text clip-path="url(#Mask_Mask_1)" writing-mode="lr"><tspan x="-0.85" y="13.6" baseline-shift="0%" kerning="auto" font-family="Arial_Regular" font-size="15" fill="#999999" xml:space="preserve">Nintendo Switch</tspan></text>
</g>
</svg>
