
<svg xmlns="http://www.w3.org/2000/svg" version="1.1" xmlns:xlink="http://www.w3.org/1999/xlink" x="0px" y="0px" viewBox="0 0 100 100">
<defs>
<g id="Layer1_0_FILL">
<path fill="#1B1B1B" stroke="none" d="
M 52.75 9.6
Q 51.3919921875 9.55 50 9.55 33.25 9.55 21.4 21.35
L 21.35 21.35
Q 9.55 33.25 9.55 50 9.55 56.6388671875 11.4 62.5 14.226953125 71.426953125 21.35 78.55
L 21.4 78.6
Q 33.25 90.45 50 90.45 66.8 90.45 78.6 78.55
L 78.6 78.6
Q 90.4 66.8 90.4 50 90.4 33.25 78.6 21.35 67.734765625 10.5306640625 52.75 9.6
M 75.75 24.15
L 75.8 24.2
Q 86.4 34.9 86.4 50 86.4 65.1 75.75 75.75 65.1 86.45 50 86.45 34.9 86.45 24.2 75.75 18.266015625 69.816015625 15.65 62.5 13.55 56.6865234375 13.55 50 13.55 34.9 24.2 24.2
L 24.2 24.15
Q 34.9 13.55 50 13.55 51.3939453125 13.55 52.75 13.65 66.083203125 14.528515625 75.75 24.15
M 35 38.9
L 50 69.1 65 38.9 35 38.9 Z"/>

<path fill="#313131" stroke="none" d="
M 75.8 24.2
L 75.75 24.15
Q 66.083203125 14.528515625 52.75 13.65 51.3939453125 13.55 50 13.55 34.9 13.55 24.2 24.15
L 24.2 24.2
Q 13.55 34.9 13.55 50 13.55 56.6865234375 15.65 62.5 18.266015625 69.816015625 24.2 75.75 34.9 86.45 50 86.45 65.1 86.45 75.75 75.75 86.4 65.1 86.4 50 86.4 34.9 75.8 24.2
M 50 19
Q 51.397265625 19 52.75 19.1 63.839453125 19.983984375 71.95 28.05 81 37.15 81 50 81 62.8 71.95 71.9
L 71.95 71.95
Q 62.9 81 50 81 37.15 81 28.05 71.95 23.768359375 67.6447265625 21.5 62.5 19 56.770703125 19 50 19 37.1 28.05 28.05
L 28.1 28.05
Q 37.2 19 50 19 Z"/>

<path fill="#626262" stroke="none" d="
M 52.75 19.1
Q 51.397265625 19 50 19 37.2 19 28.1 28.05
L 28.05 28.05
Q 19 37.1 19 50 19 56.770703125 21.5 62.5 23.768359375 67.6447265625 28.05 71.95 37.15 81 50 81 62.9 81 71.95 71.95
L 71.95 71.9
Q 81 62.8 81 50 81 37.15 71.95 28.05 63.839453125 19.983984375 52.75 19.1
M 50 23
Q 51.40078125 23 52.75 23.1 62.1880859375 23.9818359375 69.1 30.85
L 69.15 30.9
Q 77 38.8 77 50 77 61.2 69.1 69.1 61.2 77 50 77 38.85 77 30.9 69.1 27.856640625 66.0375 25.95 62.5 23 56.8546875 23 50 23 38.8 30.9 30.9 38.8 23 50 23 Z"/>

<path fill="#4F4F4F" stroke="none" d="
M 52.75 23.1
Q 51.40078125 23 50 23 38.8 23 30.9 30.9 23 38.8 23 50 23 56.8546875 25.95 62.5 27.856640625 66.0375 30.9 69.1 38.85 77 50 77 61.2 77 69.1 69.1 77 61.2 77 50 77 38.8 69.15 30.9
L 69.1 30.85
Q 62.1880859375 23.9818359375 52.75 23.1
M 50 69.1
L 35 38.9 65 38.9 50 69.1 Z"/>
</g>

</defs>

<g transform="matrix( 1, 0, 0, 1, 0,0) ">
<use xlink:href="#Layer1_0_FILL"/>
</g>

<g transform="matrix( 1, 0, 0, 1, -3.4,-28) ">
<clipPath id="Mask_Mask_1">
<rect x="-2.9" y="-2" width="112.6" height="20.8" fill="#FFFFFF" stroke="none"/>
</clipPath>

<text clip-path="url(#Mask_Mask_1)" writing-mode="lr"><tspan x="-0.85" y="13.6" baseline-shift="0%" kerning="auto" font-family="Arial_Regular" font-size="15" fill="#999999" xml:space="preserve">Nintendo Switch</tspan></text>
</g>
</svg>
