<?xml version="1.0" encoding="utf-8"?>
<!-- Generator: Adobe Illustrator 25.0.0, SVG Export Plug-In . SVG Version: 6.00 Build 0)  -->
<svg version="1.1" id="Layer_1" xmlns="http://www.w3.org/2000/svg" xmlns:xlink="http://www.w3.org/1999/xlink" x="0px" y="0px"
	 viewBox="0 0 100 100" style="enable-background:new 0 0 100 100;" xml:space="preserve">
<style type="text/css">
	.st0{fill:#313131;}
	.st1{fill:#4F4F4F;}
	.st2{fill:#9A9A9A;}
	.st3{fill:#1B1B1B;}
	.st4{fill:#F5F5F5;}
	.st5{fill:#D7D7D7;}
	.st6{fill:url(#SVGID_1_);}
</style>
<g transform="matrix( 1, 0, 0, 1, 0,0) ">
	<g>
		<g id="Layer1_0_FILL">
			<path class="st0" d="M65.1,37.4h22.1c1.7,0.5,2.8,1.5,3.1,3.1v19.1c-0.3,1.6-1.4,2.7-3.2,3.1h-22c-0.7,0-1.3,0.2-1.8,0.7
				c-0.5,0.5-0.8,1.1-0.8,1.8v22c-0.5,1.8-1.5,2.8-3.1,3.2H40.4c-1.6-0.3-2.7-1.4-3.1-3.2v-22c0-0.6-0.2-1.1-0.5-1.5
				c0.6-1.1,1.1-2.3,1.5-3.5c0.3,0.2,0.5,0.5,0.8,0.7c1.2,1.2,1.7,2.6,1.8,4.2v20.2c0,0.4,0.2,0.8,0.5,1.1c0.3,0.3,0.7,0.4,1,0.4
				h15.3c0.4,0,0.7-0.2,1-0.4h0c0.3-0.3,0.4-0.7,0.4-1.1V65.2c0-1.7,0.6-3.1,1.8-4.2s2.6-1.8,4.3-1.8h20.2c0.4,0,0.8-0.2,1-0.5h0.1
				c0.3-0.3,0.4-0.7,0.4-1V42.4c0-0.4-0.1-0.7-0.4-1l-0.1,0c-0.3-0.3-0.6-0.4-1-0.4c0,0-20.2,0-20.2,0c-1.7,0-3.1-0.6-4.2-1.8
				c-0.2-0.2-0.5-0.5-0.7-0.8c1.2-0.4,2.3-0.9,3.4-1.5C64.1,37.2,64.6,37.4,65.1,37.4z"/>
			<polyline class="st1" points="44.9,74.1 55.1,74.1 50,83 44.9,74.1 			"/>
			<polyline class="st1" points="74,45 83,50 74,55.1 74,45 			"/>
			<path class="st1" d="M58.7,86.4c0.3-0.3,0.4-0.7,0.4-1.1V65.2c0-1.7,0.6-3.1,1.8-4.2s2.6-1.8,4.3-1.8h20.2c0.4,0,0.8-0.2,1-0.5
				h0.1c0.3-0.3,0.4-0.7,0.4-1V42.4c0-0.4-0.1-0.7-0.4-1l-0.1,0c-0.3-0.3-0.6-0.4-1-0.4H65.2c-1.7,0-3.1-0.6-4.3-1.8
				c-0.2-0.2-0.5-0.5-0.7-0.8C57.1,39.5,53.6,40,50,40s-7-0.5-10.2-1.7l-0.7,0.8c-0.2,0.2-0.5,0.5-0.8,0.7C39.4,43,40,46.4,40,50
				s-0.5,7-1.7,10.2c0.3,0.2,0.5,0.5,0.8,0.7c1.2,1.2,1.7,2.6,1.8,4.2v20.2c0,0.4,0.2,0.8,0.5,1.1c0.3,0.3,0.7,0.4,1,0.4h15.3
				C58,86.9,58.4,86.7,58.7,86.4z"/>
			<polyline class="st1" points="55.1,74.1 50,83 44.9,74.1 55.1,74.1 			"/>
			<polygon class="st1" points="74.1,55.1 74.1,45 83,50 			"/>
			<path class="st2" d="M83,50l-9-5v10.1L83,50 M55.1,74.1H44.9l5,8.9L55.1,74.1z"/>
			<path class="st3" d="M44.9,26h10.1L50,17L44.9,26z M25.9,55.1V45L17,50L25.9,55.1z"/>
			<path class="st4" d="M13.1,57.7c0,0.4,0.1,0.7,0.4,1c0.3,0.3,0.7,0.5,1.1,0.5h20.2c1.3,0,2.5,0.3,3.5,1C39.4,57,40,53.6,40,50
				s-0.5-7-1.7-10.2c-1,0.7-2.2,1.1-3.5,1.1H14.6c-0.4,0-0.8,0.1-1.1,0.4v0c-0.3,0.3-0.4,0.7-0.4,1V57.7 M25.9,45v10.1L17,50
				L25.9,45z"/>
			<path class="st5" d="M9.6,59.6c0.3,1.6,1.4,2.7,3.2,3.1h22c0.7,0,1.3,0.2,1.8,0.7c0.1,0.1,0.1,0.2,0.2,0.3
				c0.6-1.1,1.1-2.3,1.5-3.5c-1-0.7-2.2-1-3.5-1H14.6c-0.4,0-0.8-0.2-1.1-0.5c-0.3-0.3-0.4-0.7-0.4-1V42.4c0-0.4,0.1-0.7,0.4-1v0
				c0.3-0.3,0.7-0.4,1.1-0.4h20.2c1.3,0,2.5-0.4,3.5-1.1c-0.4-1.2-0.9-2.3-1.5-3.4c-0.1,0.1-0.1,0.2-0.2,0.2
				c-0.5,0.5-1.1,0.7-1.8,0.8h-22c-1.8,0.5-2.8,1.5-3.2,3.1V59.6z"/>
			
				<linearGradient id="SVGID_1_" gradientUnits="userSpaceOnUse" x1="84.4758" y1="51.9958" x2="15.4689" y2="51.9958" gradientTransform="matrix(-1 0 0 1 99.9917 -1.9917)">
				<stop  offset="0" style="stop-color:#404040"/>
				<stop  offset="1" style="stop-color:#1B1B1B"/>
			</linearGradient>
			<path class="st6" d="M36.8,36.4c-0.1,0.1-0.1,0.2-0.2,0.2c-0.5,0.5-1.1,0.7-1.8,0.8h-22c-1.8,0.5-2.8,1.5-3.2,3.1v19.1
				c0.3,1.6,1.4,2.7,3.2,3.1h22c0.7,0,1.3,0.2,1.8,0.7c0.1,0.1,0.1,0.2,0.2,0.3c-1.2,2.3-2.7,4.5-4.5,6.5v-2.5H12.7
				c-0.2,0-0.4,0-0.7-0.1H12c0,0-0.1,0-0.1,0h-0.1c-4.2-0.9-6.6-3.4-7.2-7.3v-0.1c0-0.1,0-0.3,0-0.4c0,0,0-0.1,0-0.1V40.4
				c0-0.2,0-0.4,0-0.6c0,0,0-0.1,0-0.1c0.6-3.7,2.9-6.1,6.9-7.2c0.3-0.1,0.6-0.2,0.9-0.2h19.8v-2.5V12.8c0-0.2,0-0.4,0.1-0.7V12l0,0
				c0,0,0-0.1,0-0.1c0.9-4.2,3.4-6.6,7.3-7.1l0.1,0c0.1,0,0.3,0,0.4,0c0,0,0.1,0,0.1,0h19.3c0.2,0,0.4,0,0.6,0l0.1,0
				c3.7,0.6,6.1,2.9,7.2,6.9c0.1,0.3,0.2,0.6,0.2,0.9v19.8h19.8c0.3,0,0.6,0.1,0.9,0.2c4,1,6.3,3.4,6.9,7.2l0.1,0.1
				c0,0.2,0,0.4,0,0.6v19.3c0,0,0,0.1,0,0.1c0,0.1,0,0.2,0,0.4c0,0.1-0.1,0.1-0.1,0.1c-0.5,3.9-2.9,6.3-7,7.3c-0.1,0-0.1,0-0.2,0
				c0,0-0.1,0-0.1,0c-0.3,0.1-0.5,0.1-0.7,0.1H67.6v19.8c0,0.3-0.1,0.6-0.2,0.9c-1,4-3.4,6.3-7.2,6.9c-0.1,0-0.1,0-0.1,0
				c-0.2,0.1-0.4,0.1-0.6,0H40.4c-0.2,0-0.3,0-0.5,0c-0.1,0-0.1,0-0.2,0h-0.1c-3.9-0.5-6.4-2.9-7.3-7.1c0,0,0-0.1,0-0.2v-0.1
				c-0.1-0.2-0.1-0.5-0.1-0.7v-17c1.8-2,3.3-4.2,4.5-6.5c0.3,0.4,0.5,0.9,0.5,1.5v22c0.4,1.8,1.5,2.8,3.1,3.2h19.1
				c1.6-0.3,2.6-1.4,3.1-3.2v-22c0-0.7,0.2-1.3,0.8-1.8c0.5-0.5,1-0.7,1.8-0.7h22c1.8-0.4,2.8-1.5,3.2-3.1V40.5
				c-0.3-1.6-1.4-2.6-3.1-3.1H65.1c-0.7,0-1.3-0.3-1.8-0.8c-0.5-0.5-0.8-1.1-0.8-1.8V12.8c-0.5-1.7-1.5-2.8-3.1-3.1H40.4
				c-1.6,0.3-2.7,1.4-3.1,3.2v22C37.3,35.4,37.2,35.9,36.8,36.4z"/>
		</g>
	</g>
</g>
<path class="st5" d="M40.4,9.7c-1.6,0.3-2.7,1.4-3.1,3.2v22c0,0.7-0.2,1.3-0.7,1.8c-0.1,0.1-0.2,0.1-0.3,0.2
	c1.1,0.6,2.3,1.1,3.5,1.5c0.7-1,1-2.2,1-3.5V14.7c0-0.4,0.2-0.8,0.5-1.1c0.3-0.3,0.7-0.4,1-0.4h15.3c0.4,0,0.7,0.1,1,0.4h0
	c0.3,0.3,0.4,0.7,0.4,1.1v20.2c0,1.3,0.4,2.5,1.1,3.5c1.2-0.4,2.3-0.9,3.4-1.5c-0.1-0.1-0.2-0.1-0.2-0.2c-0.5-0.5-0.7-1.1-0.8-1.8
	v-22c-0.5-1.8-1.5-2.8-3.1-3.2H40.4z"/>
</svg>
