<?xml version="1.0" encoding="utf-8"?>
<!-- Generator: Adobe Illustrator 25.0.0, SVG Export Plug-In . SVG Version: 6.00 Build 0)  -->
<svg version="1.1" id="Layer_1" xmlns="http://www.w3.org/2000/svg" xmlns:xlink="http://www.w3.org/1999/xlink" x="0px" y="0px"
	 viewBox="0 0 100 100" style="enable-background:new 0 0 100 100;" xml:space="preserve">
<g transform="matrix( 1, 0, 0, 1, 0,0) ">
	<g>
		<g id="Layer1_0_FILL">
			<path style="fill:#4F4F4F;" d="M45.5,42c-0.3-1.5-1.3-2.5-3-3l-26-7.1c-2.4,0-4.9,0.8-7.6,2.4C8.4,42.6,7,51.3,4.5,60.4
				c-0.2,2.1,0.5,3.8,1.9,5c4.5,2.4,9.9,3.3,16.4,2.6c1.3-0.1,2.5-0.3,3.8-0.7c1.1-0.4,2.3-0.8,3.4-1.3c1.2-0.5,2.4-1.1,3.5-1.7
				c1.3-0.7,2.5-1.4,3.6-2.3c0.7-0.6,1.4-1.3,2.1-1.9c1-1.1,1.9-2.2,2.7-3.4c0.8-1.4,1.5-2.8,2-4.4C44.8,49.2,45.4,45.9,45.5,42
				 M30.4,42.9l-4.3,4.9l4.5,1.3v2.1l-6.9-2v-2.1l4.4-4.9L23.8,41v-2l6.6,1.9V42.9 M32.2,41.5l2.2,0.6V50l4,1.1v2l-6.2-1.6V41.5
				 M15.8,37.3c0-0.4,0.2-0.7,0.4-0.9c0.3-0.2,0.6-0.4,1-0.3c0.4,0,0.7,0.2,0.9,0.4c0.2,0.3,0.4,0.6,0.3,1c-0.4,7.7-3,15.6-7.9,23.6
				C13.7,53,15.4,45.1,15.8,37.3z"/>
			<path style="fill:#626262;" d="M16.3,36.4c-0.3,0.2-0.4,0.6-0.4,0.9C15.4,45.1,13.7,53,10.6,61c4.9-8,7.5-15.8,7.9-23.6
				c0-0.4-0.1-0.7-0.3-1c-0.2-0.3-0.6-0.4-0.9-0.4C16.9,36,16.5,36.1,16.3,36.4z"/>
			<path style="fill:#9A9A9A;" d="M34.4,42.1l-2.2-0.6v10l6.2,1.6v-2l-4-1.1V42.1 M26.2,47.8l4.3-4.9v-2L23.8,39v2l4.3,1.2l-4.4,4.9
				v2.1l6.9,2v-2.1L26.2,47.8z"/>
		</g>
	</g>
	<g>
		<path id="Layer1_0_1_STROKES" style="fill:none;stroke:#1B1B1B;stroke-width:5;stroke-linecap:round;stroke-linejoin:round;" d="
			M45.5,42c-0.3-1.5-1.3-2.5-3-3l-26-7.1c-2.4,0-4.9,0.8-7.6,2.4C8.4,42.6,7,51.3,4.5,60.4c-0.2,2.1,0.5,3.8,1.9,5
			c4.5,2.4,9.9,3.3,16.4,2.6c1.3-0.1,2.5-0.3,3.8-0.7c1.1-0.4,2.3-0.8,3.4-1.3c1.2-0.5,2.4-1.1,3.5-1.7c1.3-0.7,2.5-1.4,3.6-2.3
			c0.7-0.6,1.4-1.3,2.1-1.9c1-1.1,1.9-2.2,2.7-3.4c0.8-1.4,1.5-2.8,2-4.4C44.8,49.2,45.4,45.9,45.5,42z"/>
	</g>
</g>
<g transform="matrix( 1, 0, 0, 1, 0,0) ">
	<g>
		<g id="Layer1_0_FILL_1_">
			<path style="fill:#4F4F4F;" d="M95.5,60.4c-0.5-1.9-1-3.7-1.4-5.6c-1.1-4.6-1.8-9.2-2.3-13.6c-0.3-2.3-0.4-4.6-0.5-6.9
				c-2.7-1.6-5.2-2.4-7.6-2.4l-26,7.1c-1.7,0.5-2.7,1.5-3,3c0.1,3.8,0.7,7.2,1.7,10.1c0.5,1.5,1.1,3,2,4.4c0.8,1.2,1.7,2.4,2.7,3.4
				c0.7,0.7,1.4,1.3,2.1,1.9c1.1,0.9,2.3,1.7,3.6,2.3c1.1,0.6,2.3,1.2,3.5,1.7c1.1,0.5,2.2,0.9,3.4,1.3c1.3,0.4,2.5,0.6,3.8,0.7
				c6.4,0.7,11.9-0.2,16.4-2.6C95,64.1,95.6,62.5,95.5,60.4 M81.9,36.4c0.2-0.3,0.5-0.4,0.9-0.4c0.4,0,0.7,0.1,1,0.3
				c0.3,0.2,0.4,0.5,0.4,0.9c0.1,1.3,0.2,2.6,0.3,3.9c0.5,4.5,1.4,9.1,2.8,13.6c0.6,2.1,1.3,4.1,2.1,6.2c-1.3-2.1-2.4-4.1-3.3-6.2
				c-2.1-4.6-3.5-9.1-4.2-13.6c-0.2-1.3-0.3-2.5-0.4-3.8C81.5,37,81.6,36.7,81.9,36.4 M76.6,40.6c0.3,0.1,0.6,0.4,0.8,0.7
				c0.2,0.3,0.3,0.8,0.3,1.3c0,0.7-0.2,1.4-0.5,2c-0.4,0.6-0.9,1.1-1.6,1.4l2.5,3.5l-2.6,0.7l-2.1-3.5l-1,0.3v4l-2.2,0.6v-10l3.8-1
				c0.5-0.1,0.9-0.2,1.4-0.2C75.9,40.4,76.3,40.5,76.6,40.6 M61.8,43.8l6.6-1.8v2l-4.3,7.3l4.5-1.2v2.1l-6.9,1.9V52l4.4-7.3
				l-4.3,1.2V43.8 M75.3,42.7c-0.1-0.1-0.3-0.2-0.4-0.3c-0.2,0-0.4,0-0.5,0c-0.2,0-0.4,0.1-0.6,0.1L72.4,43v2.2l1.3-0.3
				c0.2-0.1,0.4-0.1,0.6-0.2c0.2-0.1,0.4-0.2,0.6-0.3c0.2-0.1,0.3-0.3,0.4-0.4c0.1-0.2,0.2-0.4,0.2-0.7C75.4,43,75.4,42.9,75.3,42.7
				z"/>
			<path style="fill:#9A9A9A;" d="M68.4,42.1l-6.6,1.8v2l4.3-1.2L61.7,52v2.1l6.9-1.9v-2.1l-4.5,1.2l4.3-7.3V42.1 M77.4,41.3
				c-0.2-0.3-0.5-0.6-0.8-0.7s-0.7-0.2-1.2-0.2c-0.5,0-0.9,0.1-1.4,0.2l-3.8,1v10l2.2-0.6v-4l1-0.3l2.1,3.5l2.6-0.7L75.6,46
				c0.7-0.3,1.2-0.8,1.6-1.4c0.3-0.6,0.5-1.2,0.5-2C77.7,42.1,77.6,41.6,77.4,41.3 M74.9,42.5c0.1,0,0.3,0.1,0.4,0.3
				c0.1,0.1,0.1,0.3,0.1,0.6c0,0.3-0.1,0.5-0.2,0.7c-0.1,0.2-0.3,0.3-0.4,0.4c-0.2,0.1-0.4,0.2-0.6,0.3c-0.2,0.1-0.4,0.1-0.6,0.2
				l-1.3,0.3V43l1.4-0.4c0.2-0.1,0.4-0.1,0.6-0.1C74.6,42.4,74.7,42.4,74.9,42.5z"/>
			<path style="fill:#626262;" d="M82.8,36c-0.4,0-0.7,0.2-0.9,0.4c-0.2,0.3-0.4,0.6-0.3,1c0.1,1.3,0.2,2.5,0.4,3.8
				c0.6,4.5,2,9.1,4.2,13.6c1,2.1,2.1,4.1,3.3,6.2c-0.8-2.1-1.5-4.1-2.1-6.2c-1.4-4.6-2.3-9.1-2.8-13.6c-0.1-1.3-0.2-2.6-0.3-3.9
				c0-0.4-0.2-0.7-0.4-0.9C83.5,36.1,83.1,36,82.8,36z"/>
		</g>
	</g>
	<g>
		
			<path id="Layer1_0_1_STROKES_1_" style="fill:none;stroke:#1B1B1B;stroke-width:5;stroke-linecap:round;stroke-linejoin:round;" d="
			M95.5,60.4c0.2,2.1-0.5,3.8-1.9,5c-4.5,2.4-9.9,3.3-16.4,2.6c-1.3-0.1-2.5-0.3-3.8-0.7c-1.1-0.4-2.3-0.8-3.4-1.3
			c-1.2-0.5-2.4-1.1-3.5-1.7c-1.3-0.7-2.5-1.4-3.6-2.3c-0.7-0.6-1.4-1.3-2.1-1.9c-1-1.1-1.9-2.2-2.7-3.4c-0.8-1.4-1.5-2.8-2-4.4
			c-1-2.9-1.5-6.3-1.7-10.1c0.3-1.5,1.3-2.5,3-3l26-7.1c2.4,0,4.9,0.8,7.6,2.4c0.1,2.3,0.3,4.6,0.5,6.9c0.5,4.5,1.3,9,2.3,13.6
			C94.5,56.6,95,58.5,95.5,60.4z"/>
	</g>
</g>
</svg>
