
<svg xmlns="http://www.w3.org/2000/svg" version="1.1" xmlns:xlink="http://www.w3.org/1999/xlink" x="0px" y="0px" viewBox="0 0 100 100">
<defs>
<g id="Layer1_0_FILL">
<path fill="#4F4F4F" stroke="none" d="
M 88.5 69
Q 87.0533203125 63.709375 85.85 58.5 82.85078125 45.3671875 81.45 32.75 80.7359375 26.1544921875 80.45 19.7 72.8 15.15 66 15.15
L 16.85 28.6
Q 11.95 30.1 11.1 34.35 11.508984375 45.230078125 14.25 53.5 15.6 57.8 18 61.75 20.2 65.25 23.15 68.25 25.05 70.15 27.15 71.9 30.3 74.45 33.9 76.3 37.1 78.05 40.5 79.5 43.6 80.85 46.85 82 50.4 83.05 54 83.3 72.195703125 85.191796875 84.9 78.4 89 75 88.5 69
M 62.8 23.8
Q 63.4953125 23.05390625 64.5 23 65.55546875 22.9509765625 66.3 23.65 67.0951171875 24.345703125 67.15 25.35 67.3361328125 29.0556640625 67.7 32.75 69.10546875 45.541015625 73 58.5 74.7404296875 64.3330078125 77 70.2 73.4314453125 64.330078125 70.7 58.5 64.6712890625 45.5259765625 62.85 32.75 62.33125 29.1796875 62.15 25.6 62.1017578125 24.594140625 62.8 23.8
M 52.85 31.7
Q 53.8 32.1 54.35 33.05 54.85 33.95 54.85 35.6 54.85 37.65 53.9 39.3 52.85 41.05 50.9 41.9
L 55.6 48.55 50.7 49.95 46.8 43.35 44.85 43.95 44.85 51.5 40.75 52.55 40.75 33.7 47.95 31.8
Q 49.3 31.4 50.6 31.35 51.9 31.3 52.85 31.7
M 24.9 37.8
L 37.4 34.45 37.4 38.25 29.35 52 37.8 49.7 37.8 53.65 24.75 57.15 24.75 53.2 33 39.4 24.9 41.6 24.9 37.8
M 50.4 35.7
Q 50.05 35.3 49.65 35.2 49.15 35.15 48.65 35.15 48.1 35.25 47.5 35.4
L 44.85 36.15 44.85 40.4 47.25 39.8
Q 47.75 39.65 48.35 39.45 49 39.25 49.5 38.9 50 38.5 50.35 38.05 50.65 37.55 50.65 36.75 50.65 36.05 50.4 35.7 Z"/>

<path fill="#9A9A9A" stroke="none" d="
M 37.4 34.45
L 24.9 37.8 24.9 41.6 33 39.4 24.75 53.2 24.75 57.15 37.8 53.65 37.8 49.7 29.35 52 37.4 38.25 37.4 34.45
M 54.35 33.05
Q 53.8 32.1 52.85 31.7 51.9 31.3 50.6 31.35 49.3 31.4 47.95 31.8
L 40.75 33.7 40.75 52.55 44.85 51.5 44.85 43.95 46.8 43.35 50.7 49.95 55.6 48.55 50.9 41.9
Q 52.85 41.05 53.9 39.3 54.85 37.65 54.85 35.6 54.85 33.95 54.35 33.05
M 49.65 35.2
Q 50.05 35.3 50.4 35.7 50.65 36.05 50.65 36.75 50.65 37.55 50.35 38.05 50 38.5 49.5 38.9 49 39.25 48.35 39.45 47.75 39.65 47.25 39.8
L 44.85 40.4 44.85 36.15 47.5 35.4
Q 48.1 35.25 48.65 35.15 49.15 35.15 49.65 35.2 Z"/>

<path fill="#626262" stroke="none" d="
M 64.5 23
Q 63.4953125 23.05390625 62.8 23.8 62.1017578125 24.594140625 62.15 25.6 62.33125 29.1796875 62.85 32.75 64.6712890625 45.5259765625 70.7 58.5 73.4314453125 64.330078125 77 70.2 74.7404296875 64.3330078125 73 58.5 69.10546875 45.541015625 67.7 32.75 67.3361328125 29.0556640625 67.15 25.35 67.0951171875 24.345703125 66.3 23.65 65.55546875 22.9509765625 64.5 23 Z"/>
</g>

<path id="Layer1_0_1_STROKES" stroke="#1B1B1B" stroke-width="5" stroke-linejoin="round" stroke-linecap="round" fill="none" d="
M 88.5 69
Q 89 75 84.9 78.4 72.195703125 85.191796875 54 83.3 50.4 83.05 46.85 82 43.6 80.85 40.5 79.5 37.1 78.05 33.9 76.3 30.3 74.45 27.15 71.9 25.05 70.15 23.15 68.25 20.2 65.25 18 61.75 15.6 57.8 14.25 53.5 11.508984375 45.230078125 11.1 34.35 11.95 30.1 16.85 28.6
L 66 15.15
Q 72.8 15.15 80.45 19.7 80.7359375 26.1544921875 81.45 32.75 82.85078125 45.3671875 85.85 58.5 87.0533203125 63.709375 88.5 69 Z"/>

</defs>

<g transform="matrix( 1, 0, 0, 1, 0,0) ">
<use xlink:href="#Layer1_0_FILL"/>

<use xlink:href="#Layer1_0_1_STROKES"/>
</g>

<g transform="matrix( 1, 0, 0, 1, -3.4,-28) ">
<clipPath id="Mask_Mask_1">
<rect x="-2.9" y="-2" width="112.6" height="20.8" fill="#FFFFFF" stroke="none"/>
</clipPath>

<text clip-path="url(#Mask_Mask_1)" writing-mode="lr"><tspan x="-0.85" y="13.6" baseline-shift="0%" kerning="auto" font-family="Arial_Regular" font-size="15" fill="#999999" xml:space="preserve">Nintendo Switch</tspan></text>
</g>
</svg>
