
<svg xmlns="http://www.w3.org/2000/svg" version="1.1" xmlns:xlink="http://www.w3.org/1999/xlink" x="0px" y="0px" viewBox="0 0 100 100">
<defs>
<g id="Layer1_0_FILL">
<path fill="#FFFFFF" stroke="none" d="
M 63.9 66.3
Q 63.5 66.05 63.05 65.9 61.6 65.35 60.05 66.05 58.6 66.7 58.05 68.25 57.85 68.8 57.75 69.35 57.35 69 56.8 68.8 55.25 68.25 53.8 68.95 52.3 69.65 51.75 71.15 51.55 71.6 51.5 72 51.4 73.1 51.85 74.15 52.5 75.6 54.05 76.15 54.6 76.35 55.1 76.4 54.8 76.85 54.6 77.4 54.05 78.9 54.7 80.4 55.45 81.85 56.9 82.4 57.35 82.55 57.8 82.65 58.85 82.8 59.9 82.3 61.35 81.6 61.9 80.1 62.1 79.55 62.2 79 62.65 79.35 63.2 79.55 64.75 80.15 66.2 79.5 67.25 79 67.85 78.1 68.05 77.75 68.25 77.3 68.8 75.8 68.15 74.3 67.5 72.8 65.95 72.2 65.4 72 64.8 71.95 65.15 71.5 65.35 70.95 65.9 69.4 65.25 67.95 64.8 66.95 63.9 66.3
M 26.25 68.25
Q 27.8 71.55 31.1 72.8 32.1 73.15 33.1 73.3 35.4 73.6 37.75 72.55 41.05 71.05 42.3 67.7 43.55 64.3 42.05 61.05 40.95 58.75 39 57.4 38.2 56.9 37.2 56.55 33.9 55.3 30.55 56.75 27.25 58.25 26 61.65 24.75 65 26.25 68.25
M 83.75 43.15
Q 86 35.65 82.6 28.35 79.1 20.6 71.1 17.45 34.55 3.8 34.3 3.75 26.05 0.65 18.1 4.3 10.85 7.6 7.7 14.75 6.4 18 5.15 21.3 4.75 22.4 4.35 23.5 3.6 25.45 3.15 26.75
L 79.3 55.15
Q 79.75 53.85 80.5 51.9 80.9 50.8 81.3 49.7 82.55 46.4 83.75 43.15
M 50.9 21.2
Q 53.2 20.1 55.6 20.45 56.6 20.55 57.6 20.95 60.9 22.15 62.45 25.5 63.95 28.7 62.7 32.05 61.45 35.45 58.15 37 54.8 38.4 51.5 37.2 50.5 36.8 49.65 36.3 47.7 34.95 46.6 32.7 45.15 29.4 46.4 26 47.65 22.65 50.9 21.2
M 30.9 11.05
Q 31.35 11.15 31.8 11.3 33.25 11.85 34 13.35 34.65 14.85 34.05 16.35 33.85 16.9 33.55 17.3 34.1 17.35 34.65 17.55 36.15 18.15 36.85 19.6 37.3 20.6 37.2 21.7 37.1 22.15 36.9 22.6 36.35 24.1 34.9 24.8 33.4 25.45 31.9 24.85 31.35 24.65 30.9 24.4 30.85 24.95 30.65 25.5 30.1 27.05 28.65 27.7 27.1 28.35 25.65 27.8 25.2 27.65 24.8 27.4 23.9 26.8 23.45 25.75 22.75 24.3 23.3 22.75 23.5 22.2 23.9 21.75 23.3 21.65 22.75 21.45 21.2 20.9 20.55 19.45 19.85 17.95 20.4 16.45 20.6 16 20.85 15.6 21.45 14.7 22.5 14.25 23.95 13.6 25.5 14.15 26.05 14.35 26.45 14.7 26.5 14.15 26.7 13.6 27.3 12.1 28.8 11.4 29.8 10.95 30.9 11.05 Z"/>
</g>

<path id="Layer1_0_1_STROKES" stroke="#FFFFFF" stroke-width="5" stroke-linejoin="round" stroke-linecap="round" fill="none" d="
M 92.55 75.45
Q 91.35 78.75 90.1 81.9 87.15 88.55 80.4 91.65
L 80.35 91.65
Q 72.95 95.05 65.25 92.15 65.05 92.1 28.45 78.45 21.05 75.5 17.75 68.3 14.65 61.5 16.7 54.55 17.9 51.35 19.1 48.05 19.5 47 19.9 45.9 20.3 44.8 20.65 43.95
L 94.1 71.35
Q 93.75 72.2 93.35 73.3 92.95 74.4 92.55 75.45 Z"/>

</defs>

<g transform="matrix( 1, 0, 0, 1, 0,0) ">
<use xlink:href="#Layer1_0_FILL"/>

<use xlink:href="#Layer1_0_1_STROKES"/>
</g>

<g transform="matrix( 1, 0, 0, 1, -3.4,-28) ">
<clipPath id="Mask_Mask_1">
<rect x="-2.9" y="-2" width="112.6" height="20.8" fill="#FFFFFF" stroke="none"/>
</clipPath>

<text clip-path="url(#Mask_Mask_1)" writing-mode="lr"><tspan x="-0.85" y="13.6" baseline-shift="0%" kerning="auto" font-family="Arial_Regular" font-size="15" fill="#999999" xml:space="preserve">Nintendo Switch</tspan></text>
</g>
</svg>
