<?xml version="1.0" encoding="utf-8"?>
<!-- Generator: Adobe Illustrator 25.0.0, SVG Export Plug-In . SVG Version: 6.00 Build 0)  -->
<svg version="1.1" id="Layer_1" xmlns="http://www.w3.org/2000/svg" xmlns:xlink="http://www.w3.org/1999/xlink" x="0px" y="0px"
	 viewBox="0 0 100 100" style="enable-background:new 0 0 100 100;" xml:space="preserve">
<g transform="matrix( 1, 0, 0, 1, 0,0) ">
	<g>
		<g id="Layer1_0_FILL">
			<path style="fill:#313131;" d="M41.3,13.6c0.3-0.3,0.7-0.5,1-0.5h15.3c0.4,0,0.7,0.2,1,0.5s0.5,0.6,0.5,1v20.2
				c0,1.7,0.6,3.1,1.8,4.2c0.2,0.2,0.5,0.5,0.8,0.7c0.4-1.2,0.9-2.3,1.5-3.5c-0.3-0.4-0.5-0.9-0.5-1.5v-22c-0.4-1.8-1.5-2.8-3.1-3.2
				H40.5c-1.6,0.3-2.6,1.4-3.1,3.2v22c0,0.7-0.2,1.3-0.8,1.8c-0.5,0.5-1,0.7-1.8,0.7h-22c-1.8,0.4-2.8,1.5-3.2,3.1v19.1
				C9.9,61,11,62,12.7,62.5h22.1c0.7,0,1.3,0.3,1.8,0.8s0.8,1.1,0.8,1.8v22.1c0.5,1.7,1.5,2.8,3.1,3.1h19.1c1.6-0.3,2.7-1.4,3.1-3.2
				v-22c0-0.6,0.2-1.1,0.5-1.5c-0.6-1.1-1.1-2.2-1.5-3.4c-0.3,0.2-0.5,0.4-0.8,0.7c-1.2,1.2-1.7,2.6-1.8,4.2v20.2
				c0,0.4-0.2,0.8-0.5,1.1l0,0c-0.3,0.3-0.7,0.4-1,0.4H42.3c-0.4,0-0.7-0.1-1-0.4l0,0c-0.3-0.3-0.4-0.7-0.4-1.1V65.2
				c0-1.7-0.6-3.1-1.8-4.2c-1.2-1.2-2.6-1.7-4.2-1.8H14.6c-0.4,0-0.7-0.1-1-0.4h-0.1c-0.3-0.3-0.4-0.7-0.4-1V42.3
				c0-0.4,0.1-0.7,0.4-1h0.1c0.3-0.3,0.6-0.5,1-0.5h20.2c1.7,0,3.1-0.6,4.2-1.8s1.8-2.6,1.8-4.2V14.6C40.8,14.2,41,13.9,41.3,13.6
				L41.3,13.6z"/>
			<path style="fill:#4F4F4F;" d="M42.3,13.1c-0.4,0-0.7,0.2-1,0.5l0,0c-0.3,0.3-0.4,0.6-0.4,1v20.2c0,1.7-0.6,3.1-1.8,4.2
				s-2.6,1.8-4.2,1.8H14.6c-0.4,0-0.7,0.2-1,0.5h-0.1c-0.3,0.3-0.4,0.7-0.4,1v15.3c0,0.4,0.1,0.7,0.4,1h0.1c0.3,0.3,0.6,0.4,1,0.4
				h20.2c1.7,0,3.1,0.6,4.2,1.8c1.2,1.2,1.8,2.6,1.8,4.2v20.2c0,0.4,0.1,0.8,0.4,1.1l0,0c0.3,0.3,0.7,0.4,1,0.4h15.3
				c0.4,0,0.7-0.1,1-0.4l0,0c0.3-0.3,0.5-0.7,0.5-1.1v-20c0-1.7,0.6-3.1,1.8-4.2c0.2-0.2,0.5-0.5,0.8-0.7C60.5,57,60,53.6,60,50
				s0.5-7,1.7-10.2c-0.3-0.2-0.5-0.5-0.8-0.7c-1.2-1.2-1.7-2.6-1.8-4.2V14.6c0-0.4-0.2-0.7-0.5-1s-0.7-0.5-1-0.5H42.3 M55,26H44.9
				l5.1-9L55,26 M26,55l-9-5l9-5.1V55 M44.9,74.1H55L50,83L44.9,74.1z"/>
			<path style="fill:#9A9A9A;" d="M55,74.1H44.9L50,83L55,74.1 M17,50l9,5V44.9L17,50 M44.9,26H55l-5-9L44.9,26z"/>
			<path style="fill:#1B1B1B;" d="M67.7,12.8c0-0.2,0-0.5-0.1-0.7V12c0-0.1,0-0.2,0-0.2c-0.9-4.2-3.4-6.6-7.3-7.1h-0.1
				c0,0-0.1,0-0.2,0c-0.1,0-0.3,0-0.5,0H40.4c-0.2,0-0.4,0-0.6,0h-0.1c-3.7,0.6-6.1,2.9-7.2,6.9c-0.1,0.3-0.2,0.6-0.2,0.9v19.8H12.8
				c-0.2,0-0.4,0-0.7,0.1H12c-0.1,0-0.1,0-0.2,0c-4.2,0.9-6.5,3.3-7.1,7.2v0.1c0,0.1,0,0.3,0,0.4v0.1v19.3c0,0.2,0,0.4,0,0.6v0.1
				c0.6,3.7,2.9,6.1,6.9,7.2c0.3,0.1,0.6,0.2,0.9,0.2h19.8v19.8c0,0.3,0,0.6,0.2,0.9c1,4,3.4,6.3,7.2,6.9h0.1c0.2,0,0.4,0,0.6,0
				h19.3h0.1c0.1,0,0.2,0,0.4,0h0.1c3.9-0.5,6.4-2.9,7.3-7.1V88l0,0v-0.2c0.1-0.2,0.1-0.4,0.1-0.7V70.2c-1.8-2-3.3-4.2-4.5-6.5
				c-0.3,0.4-0.5,0.9-0.5,1.5v22c-0.4,1.8-1.5,2.8-3.1,3.2H40.5c-1.6-0.3-2.6-1.4-3.1-3.1V65.2c0-0.7-0.2-1.3-0.8-1.8
				c-0.5-0.5-1-0.7-1.8-0.8h-22c-1.7-0.5-2.8-1.5-3.1-3.1v-19c0.3-1.6,1.4-2.7,3.2-3.1h22c0.7,0,1.3-0.2,1.8-0.7s0.8-1.1,0.8-1.8
				v-22c0.5-1.8,1.5-2.8,3.1-3.2h19.1c1.6,0.3,2.7,1.4,3.1,3.2v22c0,0.6,0.2,1.1,0.5,1.5c1.2-2.3,2.7-4.5,4.5-6.5L67.7,12.8
				 M74.1,44.9V55l8.9-5L74.1,44.9z"/>
			<path style="fill:#F5F5F5;" d="M86.8,42.3c0-0.4-0.1-0.7-0.4-1s-0.7-0.5-1.1-0.5H65.2c-1.3,0-2.5-0.3-3.5-1
				C60.5,43,60,46.4,60,50s0.5,7,1.7,10.2c1-0.7,2.2-1.1,3.5-1.1h20.2c0.4,0,0.8-0.1,1.1-0.4l0,0c0.3-0.3,0.4-0.7,0.4-1L86.8,42.3
				 M74.1,55V44.9L83,50L74.1,55z"/>
			<path style="fill:#D7D7D7;" d="M90.3,40.5c-0.3-1.6-1.4-2.7-3.2-3.1h-22c-0.7,0-1.3-0.2-1.8-0.7c-0.1-0.1-0.1-0.2-0.2-0.3
				c-0.6,1.1-1.1,2.3-1.5,3.5c1,0.7,2.2,1,3.5,1h20.2c0.4,0,0.8,0.2,1.1,0.5c0.3,0.3,0.4,0.7,0.4,1v15.3c0,0.4-0.1,0.7-0.4,1l0,0
				c-0.3,0.3-0.7,0.4-1.1,0.4H65.2c-1.3,0-2.5,0.4-3.5,1.1c0.4,1.2,0.9,2.3,1.5,3.4c0.1-0.1,0.1-0.2,0.2-0.2
				c0.5-0.5,1.1-0.7,1.8-0.8h22c1.8-0.5,2.8-1.5,3.2-3.1L90.3,40.5L90.3,40.5z"/>
			
				<linearGradient id="SVGID_1_" gradientUnits="userSpaceOnUse" x1="91.5" y1="1028.05" x2="67" y2="1028.05" gradientTransform="matrix(1 0 0 1 0 -978)">
				<stop  offset="0" style="stop-color:#404040"/>
				<stop  offset="1" style="stop-color:#1B1B1B"/>
			</linearGradient>
			<path style="fill:url(#SVGID_1_);" d="M88.2,32.5L88.2,32.5c-0.1,0-0.1,0-0.2,0h-0.1c-0.2-0.1-0.4-0.1-0.7-0.1H67.7v-2.5
				c-1.8,2-3.3,4.2-4.5,6.5c0.1,0.1,0.1,0.2,0.2,0.3c0.5,0.5,1.1,0.7,1.8,0.7h22c1.8,0.4,2.8,1.5,3.2,3.1v19.1
				c-0.3,1.6-1.4,2.6-3.2,3.1h-22c-0.7,0-1.3,0.3-1.8,0.8c-0.1,0.1-0.1,0.1-0.2,0.2c1.2,2.3,2.7,4.5,4.5,6.5v-2.5h19.8
				c0.3,0,0.6-0.1,0.9-0.2c4-1,6.3-3.4,6.9-7.2c0-0.1,0-0.1,0-0.1c0.1-0.2,0.1-0.4,0-0.6V40.3v-0.1c0-0.1,0-0.2,0-0.4v-0.1
				C94.8,35.8,92.4,33.4,88.2,32.5z"/>
		</g>
	</g>
</g>
</svg>
