<?xml version="1.0" encoding="utf-8"?>
<!-- Generator: Adobe Illustrator 25.0.0, SVG Export Plug-In . SVG Version: 6.00 Build 0)  -->
<svg version="1.1" id="Layer_1" xmlns="http://www.w3.org/2000/svg" xmlns:xlink="http://www.w3.org/1999/xlink" x="0px" y="0px"
	 viewBox="0 0 100 100" style="enable-background:new 0 0 100 100;" xml:space="preserve">
<g transform="matrix( 1, 0, 0, 1, 0,0) ">
	<g>
		<g id="Layer1_0_FILL">
			<path style="fill:#F5F5F5;" d="M40.7,34.8c0,1.3-0.3,2.5-1,3.5c3.2,1.2,6.6,1.7,10.2,1.7s7-0.5,10.3-1.7c-0.7-1-1.1-2.2-1.1-3.5
				V14.6c0-0.4-0.1-0.8-0.4-1.1l0,0c-0.3-0.3-0.7-0.4-1-0.4H42.4c-0.4,0-0.7,0.1-1,0.4s-0.5,0.7-0.5,1.1v20.2"/>
			<polygon style="fill:#F5F5F5;" points="54.9,26.3 44.8,26.3 49.9,17.4 			"/>
			<path style="fill:#F5F5F5;" d="M59.2,65.2c0-1.3,0.3-2.5,1-3.5C57,60.5,53.6,60,50,60s-7,0.5-10.3,1.7c0.7,1,1.1,2.2,1.1,3.5
				v20.2c0,0.4,0.1,0.8,0.4,1.1l0,0c0.3,0.3,0.7,0.4,1,0.4h15.3c0.4,0,0.7-0.1,1-0.4s0.5-0.7,0.5-1.1V65.2"/>
			<polygon style="fill:#F5F5F5;" points="45,74.1 55.1,74.1 50,83 			"/>
			<polyline style="fill:#1B1B1B;" points="55.1,25.9 50,17 45,25.9 55.1,25.9 			"/>
			<path style="fill:#1B1B1B;" d="M95.3,50v-9.6c0-0.2,0-0.4,0-0.5s0-0.2,0-0.2v-0.1c-0.5-3.9-2.9-6.4-7.1-7.3c0,0-0.1,0-0.2,0l0,0
				c-0.2,0-0.5,0-0.7,0h-17c-2,1.8-4.2,3.2-6.5,4.4c0.4,0.3,0.9,0.6,1.5,0.6h21.9c1.8,0.4,2.8,1.5,3.2,3.1V50"/>
			<path style="fill:#1B1B1B;" d="M9.7,50v-9.6c0.4-1.6,1.4-2.7,3.2-3.1h22c0.6,0,1.1-0.2,1.5-0.5c-2.3-1.2-4.5-2.7-6.5-4.5H12.8
				c-0.2,0-0.4,0-0.6,0.1H12h-0.1h-0.1c-4.2,0.9-6.6,3.4-7.1,7.3v0.1c0,0.2,0,0.3,0,0.4v0.1V50"/>
			<polyline style="fill:#1B1B1B;" points="55.1,74.1 45,74.1 50,83 55.1,74.1 			"/>
			<path style="fill:#1B1B1B;" d="M90.4,50v9.6c-0.4,1.6-1.4,2.6-3.2,3.1H65.3c-0.6,0-1.2,0.2-1.6,0.5c2.3,1.2,4.6,2.8,6.6,4.6h17
				c0.2,0,0.5,0,0.7-0.1l0,0c0.1,0,0.2,0,0.2,0c4.2-0.9,6.6-3.4,7.1-7.3v-0.1c0,0,0-0.1,0-0.2c0-0.1,0-0.3,0-0.5V50"/>
			<path style="fill:#1B1B1B;" d="M4.7,50v9.7v0.1c0,0.1,0,0.2,0,0.4v0.1c0.5,3.9,2.9,6.4,7.1,7.3h0.1H12h0.2
				c0.2,0.1,0.4,0.1,0.6,0.1h17.1c2-1.8,4.2-3.3,6.5-4.5c-0.4-0.3-0.9-0.5-1.5-0.5h-22c-1.8-0.4-2.8-1.5-3.2-3.1V50"/>
			<path style="fill:#D7D7D7;" d="M36.3,63.2c0.1,0.1,0.2,0.1,0.3,0.2c0.5,0.5,0.8,1.1,0.8,1.8v22c0.5,1.8,1.5,2.8,3.1,3.2h19.1
				c1.6-0.3,2.7-1.4,3.1-3.2v-22c0-0.7,0.2-1.3,0.7-1.8c0.1-0.1,0.2-0.1,0.3-0.2c-1.1-0.6-2.3-1.1-3.5-1.5c-0.7,1-1,2.2-1,3.5v20.2
				c0,0.4-0.2,0.8-0.5,1.1c-0.3,0.3-0.7,0.4-1,0.4H42.3c-0.4,0-0.7-0.1-1-0.4l0,0c-0.3-0.3-0.4-0.7-0.4-1.1V65.2
				c0-1.3-0.4-2.5-1.1-3.5C38.6,62.1,37.5,62.6,36.3,63.2z"/>
			<path style="fill:#D7D7D7;" d="M63.8,36.8c-0.1-0.1-0.2-0.1-0.3-0.2c-0.5-0.5-0.8-1.1-0.8-1.8v-22c-0.5-1.8-1.5-2.8-3.1-3.2H40.5
				c-1.6,0.3-2.7,1.4-3.1,3.2v22c0,0.7-0.2,1.3-0.7,1.8c-0.1,0.1-0.2,0.1-0.3,0.2c1.1,0.6,2.3,1.1,3.5,1.5c0.7-1,1-2.2,1-3.5V14.6
				c0-0.4,0.2-0.8,0.5-1.1s0.7-0.4,1-0.4h15.4c0.4,0,0.7,0.1,1,0.4l0,0c0.3,0.3,0.4,0.7,0.4,1.1v20.2c0,1.3,0.4,2.5,1.1,3.5
				C61.5,37.9,62.6,37.4,63.8,36.8z"/>
			<polyline style="fill:#FFFFFF;" points="74.1,45 83,50 74.1,55 			"/>
			<polyline style="fill:#FFFFFF;" points="26,55 17,50 26,45 			"/>
			<path style="fill:#4F4F4F;" d="M13.1,50v-7.6c0-0.3,0.1-0.7,0.4-1c0.3-0.3,0.7-0.5,1.1-0.5h20.2c1.7-0.1,3.1-0.6,4.3-1.8
				c0.2-0.3,0.5-0.5,0.7-0.8C43,39.5,46.4,40,50,40s7-0.5,10.2-1.7c0.2,0.3,0.5,0.6,0.7,0.8c1.2,1.2,2.6,1.8,4.3,1.8h20.2
				c0.4,0,0.7,0.2,1,0.5h0.1c0.3,0.3,0.4,0.6,0.4,1V50v7.6c0,0.3-0.1,0.7-0.4,1s-0.7,0.5-1.1,0.5H65.2c-1.7,0.1-3.1,0.6-4.3,1.8
				c-0.2,0.3-0.5,0.5-0.7,0.8C57,60.5,53.6,60,50,60s-7,0.5-10.2,1.7c-0.2-0.3-0.5-0.6-0.7-0.8c-1.2-1.2-2.6-1.8-4.3-1.8H14.6
				c-0.4,0-0.7-0.2-1-0.5h-0.1c-0.3-0.3-0.4-0.6-0.4-1V50z"/>
			
				<linearGradient id="SVGID_1_" gradientUnits="userSpaceOnUse" x1="-1768.1" y1="-47.8875" x2="-1768.1" y2="-23.3875" gradientTransform="matrix(-1 0 0 1 -1718 56.375)">
				<stop  offset="0" style="stop-color:#404040"/>
				<stop  offset="1" style="stop-color:#1B1B1B"/>
			</linearGradient>
			<path style="fill:url(#SVGID_1_);" d="M63.5,36.7c0.1,0.1,0.1,0.1,0.3,0.2c2.3-1.2,4.5-2.7,6.5-4.5h-2.5V12.6
				c0-0.3,0-0.6-0.2-0.9c-1-4-3.4-6.3-7.2-6.9c-0.1,0-0.1,0-0.1,0c-0.2-0.1-0.4-0.1-0.6,0H40.4h-0.1c-0.1,0-0.2,0-0.4,0h-0.1
				c-3.9,0.5-6.4,2.9-7.3,7.2v0.1v0.1v0.1c-0.1,0.2-0.1,0.4-0.1,0.7v19.3h-2.5c2,1.8,4.2,3.3,6.5,4.5c0.1-0.1,0.2-0.1,0.3-0.2
				c0.5-0.5,0.7-1.1,0.7-1.8v-22c0.4-1.8,1.5-2.8,3.1-3.2h19.1c1.6,0.3,2.6,1.4,3.1,3.2v22C62.8,35.5,63,36.2,63.5,36.7z"/>
			
				<linearGradient id="SVGID_2_" gradientUnits="userSpaceOnUse" x1="50" y1="-967.5" x2="50" y2="-943" gradientTransform="matrix(1 0 0 -1 0 -876)">
				<stop  offset="0" style="stop-color:#404040"/>
				<stop  offset="1" style="stop-color:#1B1B1B"/>
			</linearGradient>
			<path style="fill:url(#SVGID_2_);" d="M36.6,63.3c-0.1-0.1-0.1-0.1-0.3-0.2c-2.3,1.2-4.5,2.7-6.5,4.5h2.5v19.8
				c0,0.3,0,0.6,0.2,0.9c1,4,3.4,6.3,7.2,6.9c0.1,0,0.1,0,0.1,0c0.2,0.1,0.4,0.1,0.6,0h19.3h0.1c0.1,0,0.2,0,0.4,0h0.1
				c3.9-0.5,6.4-2.9,7.3-7.2v-0.1v-0.1v-0.1c0.1-0.2,0.1-0.4,0.1-0.7V67.7h2.5c-2-1.8-4.2-3.3-6.5-4.5c-0.1,0.1-0.2,0.1-0.3,0.2
				c-0.5,0.5-0.7,1.1-0.7,1.8v22c-0.4,1.8-1.5,2.8-3.1,3.2H40.5c-1.6-0.3-2.6-1.4-3.1-3.2v-22C37.3,64.5,37.1,63.8,36.6,63.3z"/>
			<polygon style="fill:#9A9A9A;" points="55.1,74 45,74 50.1,83 			"/>
			<polyline style="fill:#9A9A9A;" points="74.1,44.9 74.1,55 83,50 74.1,44.9 			"/>
			<polyline style="fill:#9A9A9A;" points="17,50 26,55 26,44.9 17,50 			"/>
			<polygon style="fill:#9A9A9A;" points="45,26 55.1,26 50,17 			"/>
			<path style="fill:#313131;" d="M13.1,50v-7.6c0-0.3,0.1-0.7,0.4-1h0.1c0.3-0.3,0.6-0.5,1-0.5h20.2c1.7-0.1,3.1-0.6,4.3-1.8
				c0.3-0.3,0.5-0.5,0.7-0.8c-1.2-0.4-2.3-0.9-3.4-1.5c-0.4,0.3-0.9,0.5-1.5,0.5h-22c-1.8,0.4-2.9,1.5-3.2,3.1V50"/>
			<path style="fill:#313131;" d="M90.4,50v-9.6c-0.4-1.6-1.4-2.7-3.2-3.1h-22c-0.6,0-1.1-0.2-1.5-0.5c-1.2,0.6-2.3,1.1-3.5,1.5
				c0.2,0.3,0.5,0.6,0.7,0.8c1.2,1.2,2.6,1.8,4.3,1.8h20.1c0.4,0,0.8,0.2,1.1,0.5s0.4,0.6,0.4,1V50"/>
			<path style="fill:#313131;" d="M9.7,50v9.6c0.3,1.6,1.4,2.7,3.2,3.1h22c0.6,0,1.1,0.2,1.5,0.5c1.1-0.6,2.2-1.1,3.4-1.5
				c-0.2-0.3-0.4-0.5-0.7-0.8c-1.2-1.2-2.6-1.7-4.3-1.8H14.6c-0.4,0-0.7-0.2-1-0.5h-0.1c-0.3-0.3-0.4-0.7-0.4-1V50"/>
			<path style="fill:#313131;" d="M86.8,50v7.6c0,0.4-0.1,0.7-0.4,1s-0.7,0.5-1.1,0.5H65.2c-1.7,0-3.1,0.6-4.3,1.8
				c-0.2,0.2-0.5,0.5-0.7,0.8c1.2,0.4,2.3,0.9,3.5,1.5c0.4-0.3,0.9-0.5,1.5-0.5h22c1.8-0.4,2.8-1.5,3.2-3.1V50"/>
		</g>
	</g>
</g>
</svg>
