
<svg xmlns="http://www.w3.org/2000/svg" version="1.1" xmlns:xlink="http://www.w3.org/1999/xlink" x="0px" y="0px" viewBox="0 0 100 100">
<defs>
<g id="Layer1_0_FILL">
<path fill="#4F4F4F" stroke="none" d="
M 39 20.95
Q 22.45 28.85 16.85 44.6 12.55 56.95 16.15 66.65 19.9 76.35 26.9 82.55 31.9 81.55 34.3 76.5 29.35 66.2 35.4 55.25 41.35 44.2 54 39 71.9 31.15 85.6 30.2 85.05 21.5 75.7 16.35 55.6 12.95 39 20.95
M 72.5 25.25
Q 57.94609375 28.0205078125 45.55 35.95
L 45.5 35.95
Q 33.086328125 43.8302734375 29.7 52.35 26.42734375 60.846484375 25.8 70.45 21.27265625 60.3533203125 25.05 50.55 28.7130859375 40.669921875 42.85 31.7
L 42.85 31.75
Q 56.55390625 22.9794921875 72.5 25.25 Z"/>

<path fill="#626262" stroke="none" d="
M 45.55 35.95
Q 57.94609375 28.0205078125 72.5 25.25 56.55390625 22.9794921875 42.85 31.75
L 42.85 31.7
Q 28.7130859375 40.669921875 25.05 50.55 21.27265625 60.3533203125 25.8 70.45 26.42734375 60.846484375 29.7 52.35 33.086328125 43.8302734375 45.5 35.95
L 45.55 35.95 Z"/>

<path fill="#1B1B1B" stroke="none" d="
M 62.3 46.6
L 57.7 48.25 57.7 73.55 70.85 68.65 70.85 63.55 62.3 66.75 62.3 46.6 Z"/>
</g>

<path id="Layer1_0_1_STROKES" stroke="#1B1B1B" stroke-width="5" stroke-linejoin="round" stroke-linecap="round" fill="none" d="
M 16.85 44.6
Q 22.45 28.85 39 20.95 55.6 12.95 75.7 16.35 85.05 21.5 85.6 30.2 71.9 31.15 54 39 41.35 44.2 35.4 55.25 29.35 66.2 34.3 76.5 31.9 81.55 26.9 82.55 19.9 76.35 16.15 66.65 12.55 56.95 16.85 44.6 Z"/>

</defs>

<g transform="matrix( 1, 0, 0, 1, 0,0) ">
<use xlink:href="#Layer1_0_FILL"/>

<use xlink:href="#Layer1_0_1_STROKES"/>
</g>

<g transform="matrix( 1, 0, 0, 1, -3.4,-28) ">
<clipPath id="Mask_Mask_1">
<rect x="-2.9" y="-2" width="112.6" height="20.8" fill="#FFFFFF" stroke="none"/>
</clipPath>

<text clip-path="url(#Mask_Mask_1)" writing-mode="lr"><tspan x="-0.85" y="13.6" baseline-shift="0%" kerning="auto" font-family="Arial_Regular" font-size="15" fill="#999999" xml:space="preserve">Nintendo Switch</tspan></text>
</g>
</svg>
