<?xml version="1.0" encoding="utf-8"?>
<!-- Generator: Adobe Illustrator 25.0.0, SVG Export Plug-In . SVG Version: 6.00 Build 0)  -->
<svg version="1.1" id="Layer_1" xmlns="http://www.w3.org/2000/svg" xmlns:xlink="http://www.w3.org/1999/xlink" x="0px" y="0px"
	 viewBox="0 0 100 100" style="enable-background:new 0 0 100 100;" xml:space="preserve">
<g transform="matrix( 1, 0, 0, 1, 0,0) ">
	<g>
		<g id="Layer1_0_FILL">
			<path style="fill:#F5F5F5;" d="M59.2,65.2c0-1.3,0.3-2.5,1-3.5C57,60.5,53.6,60,50,60s-7,0.5-10.2,1.7c0.7,1,1.1,2.2,1.1,3.5
				v20.2c0,0.4,0.1,0.8,0.4,1.1l0,0c0.3,0.3,0.7,0.4,1,0.4h15.3c0.4,0,0.7-0.1,1-0.4s0.5-0.7,0.5-1.1V65.2 M45,74.1h10.1L50,83
				L45,74.1z"/>
			<path style="fill:#1B1B1B;" d="M55.1,74.1H45l5,8.9L55.1,74.1 M95.3,40.4c0-0.2,0-0.4,0-0.6v-0.1c-0.6-3.7-2.9-6.1-6.9-7.2
				c-0.3-0.1-0.6-0.2-0.9-0.2H67.7V12.8c0-0.2,0-0.4-0.1-0.7V12c0-0.1,0-0.1,0-0.2c-0.9-4.2-3.3-6.5-7.3-7.1h-0.1
				c-0.1,0-0.3,0-0.4,0h-0.1H40.4c-0.2,0-0.4,0-0.6,0h-0.1c-3.7,0.6-6.1,2.9-7.2,6.9c-0.1,0.3-0.2,0.6-0.2,0.9v19.8H12.5
				c-0.3,0-0.6,0-0.9,0.2c-4,1-6.3,3.4-6.9,7.2v0.1c0,0.2,0,0.4,0,0.6v19.3v0.1c0,0.1,0,0.2,0,0.4v0.1c0.5,3.9,2.9,6.4,7.1,7.3h0.1
				H12h0.2c0.2,0.1,0.4,0.1,0.6,0.1h17.1c2-1.8,4.2-3.3,6.5-4.5c-0.4-0.3-0.9-0.5-1.5-0.5h-22c-1.8-0.4-2.8-1.5-3.2-3.1V40.5
				c0.3-1.6,1.4-2.6,3.1-3.1h22.1c0.7,0,1.3-0.2,1.8-0.8c0.5-0.5,0.8-1,0.8-1.8v-22C38,11.1,39,10,40.6,9.7h19.1
				c1.6,0.3,2.7,1.4,3.1,3.2v22c0,0.7,0.2,1.3,0.7,1.8s1.1,0.8,1.8,0.8h22c1.8,0.5,2.8,1.5,3.2,3.1v19.1c-0.3,1.6-1.4,2.7-3.2,3.1
				h-22c-0.6,0-1.1,0.2-1.5,0.5c2.3,1.2,4.5,2.7,6.5,4.5h17c0.2,0,0.5,0,0.7-0.1h0c0.1,0,0.2,0,0.2,0c4.2-0.9,6.6-3.4,7.1-7.3v-0.1
				c0,0,0-0.1,0-0.2c0-0.1,0-0.3,0-0.5C95.3,59.6,95.3,40.4,95.3,40.4z"/>
			<path style="fill:#D7D7D7;" d="M36.3,63.2c0.1,0.1,0.2,0.1,0.2,0.2c0.5,0.5,0.8,1.1,0.8,1.8v22c0.5,1.8,1.5,2.8,3.1,3.2h19.1
				c1.6-0.3,2.7-1.4,3.1-3.2v-22c0-0.7,0.2-1.3,0.7-1.8c0.1-0.1,0.2-0.1,0.3-0.2c-1.1-0.6-2.3-1.1-3.5-1.5c-0.7,1-1,2.2-1,3.5v20.2
				c0,0.4-0.2,0.8-0.5,1.1c-0.3,0.3-0.7,0.4-1,0.4H42.3c-0.4,0-0.7-0.1-1-0.4l0,0c-0.3-0.3-0.4-0.7-0.4-1.1V65.2
				c0-1.3-0.4-2.5-1.1-3.5C38.6,62.1,37.5,62.6,36.3,63.2z"/>
			
				<linearGradient id="SVGID_1_" gradientUnits="userSpaceOnUse" x1="50.1" y1="1069.5" x2="50.1" y2="1045" gradientTransform="matrix(1 0 0 1 0 -978)">
				<stop  offset="0" style="stop-color:#404040"/>
				<stop  offset="1" style="stop-color:#1B1B1B"/>
			</linearGradient>
			<path style="fill:url(#SVGID_1_);" d="M36.6,63.3c-0.1-0.1-0.1-0.1-0.2-0.2c-2.3,1.2-4.5,2.7-6.5,4.5h2.5v19.8
				c0,0.3,0,0.6,0.2,0.9c1,4,3.4,6.3,7.2,6.9c0.1,0,0.1,0,0.1,0c0.2,0.1,0.4,0.1,0.6,0h19.3h0.1c0.1,0,0.2,0,0.4,0h0.1
				c3.9-0.5,6.4-2.9,7.3-7.2v-0.1v-0.1v-0.1c0.1-0.2,0.1-0.4,0.1-0.7V67.7h2.5c-2-1.8-4.2-3.3-6.5-4.5c-0.1,0.1-0.2,0.1-0.3,0.2
				c-0.5,0.5-0.7,1.1-0.7,1.8v22c-0.4,1.8-1.5,2.8-3.1,3.2H40.5c-1.6-0.3-2.6-1.4-3.1-3.2v-22C37.3,64.5,37.1,63.8,36.6,63.3z"/>
			<path style="fill:#4F4F4F;" d="M86.8,42.3c0-0.4-0.1-0.7-0.4-1l0,0c-0.3-0.3-0.7-0.4-1.1-0.4H65.2c-1.7,0-3.1-0.6-4.2-1.8
				c-1.2-1.2-1.7-2.6-1.8-4.2V14.6c0-0.4-0.2-0.7-0.5-1v-0.1c-0.3-0.3-0.7-0.4-1-0.4H42.3c-0.4,0-0.7,0.1-1,0.4v0.1
				c-0.3,0.3-0.4,0.6-0.4,1v20.2c0,1.7-0.6,3.1-1.8,4.2s-2.6,1.8-4.2,1.8H14.6c-0.4,0-0.7,0.1-1,0.4h-0.1c-0.3,0.3-0.4,0.7-0.4,1
				v15.3c0,0.4,0.1,0.7,0.4,1h0.1c0.3,0.3,0.6,0.5,1,0.5h20.2c1.7,0,3.1,0.6,4.2,1.8c0.2,0.2,0.5,0.5,0.7,0.8C43,60.5,46.4,60,50,60
				s7,0.5,10.2,1.7c0.2-0.3,0.5-0.5,0.7-0.8c1.2-1.2,2.6-1.7,4.2-1.8h20.2c0.4,0,0.8-0.2,1.1-0.5c0.3-0.3,0.4-0.7,0.4-1V42.3
				 M55.1,26H45l5-9L55.1,26 M26,55l-9-5l9-5.1V55 M74.1,55V44.9L83,50L74.1,55z"/>
			<path style="fill:#9A9A9A;" d="M74.1,44.9V55l8.9-5L74.1,44.9 M17,50l9,5V44.9L17,50 M45,26h10.1L50,17L45,26z"/>
			<path style="fill:#313131;" d="M86.4,41.3c0.3,0.3,0.4,0.7,0.4,1v15.3c0,0.4-0.1,0.7-0.4,1s-0.7,0.5-1.1,0.5H65.2
				c-1.7,0-3.1,0.6-4.2,1.8c-0.2,0.2-0.5,0.5-0.7,0.8c1.2,0.4,2.3,0.9,3.5,1.5c0.4-0.3,0.9-0.5,1.5-0.5h22c1.8-0.4,2.8-1.5,3.2-3.1
				V40.5c-0.3-1.6-1.4-2.6-3.2-3.1h-22c-0.7,0-1.3-0.2-1.8-0.8c-0.5-0.5-0.7-1-0.7-1.8v-22c-0.4-1.8-1.5-2.8-3.1-3.2H40.5
				c-1.6,0.3-2.6,1.4-3.1,3.1v22.1c0,0.7-0.2,1.3-0.8,1.8c-0.5,0.5-1,0.8-1.8,0.8h-22c-1.7,0.5-2.8,1.5-3.1,3.1v19.1
				c0.3,1.6,1.4,2.7,3.2,3.1h22c0.6,0,1.1,0.2,1.5,0.5c1.1-0.6,2.2-1.1,3.4-1.5c-0.2-0.3-0.4-0.5-0.7-0.8c-1.2-1.2-2.6-1.7-4.2-1.8
				H14.6c-0.4,0-0.7-0.2-1-0.5h-0.1c-0.3-0.3-0.4-0.7-0.4-1V42.3c0-0.4,0.1-0.7,0.4-1h0.1c0.3-0.3,0.6-0.4,1-0.4h20.2
				c1.7,0,3.1-0.6,4.2-1.8s1.8-2.6,1.8-4.2V14.6c0-0.4,0.1-0.7,0.4-1v-0.1c0.3-0.3,0.7-0.4,1-0.4h15.3c0.4,0,0.7,0.1,1,0.4v0.1
				c0.3,0.3,0.5,0.6,0.5,1v20.2c0,1.7,0.6,3.1,1.8,4.2c1.2,1.2,2.6,1.8,4.2,1.8h20.2C85.8,40.8,86.1,41,86.4,41.3L86.4,41.3z"/>
		</g>
	</g>
</g>
</svg>
