<?xml version="1.0" encoding="utf-8"?>
<!-- Generator: Adobe Illustrator 25.0.0, SVG Export Plug-In . SVG Version: 6.00 Build 0)  -->
<svg version="1.1" id="Layer_1" xmlns="http://www.w3.org/2000/svg" xmlns:xlink="http://www.w3.org/1999/xlink" x="0px" y="0px"
	 viewBox="0 0 148 148" style="enable-background:new 0 0 148 148;" xml:space="preserve">
<g transform="matrix( 1, 0, 0, 1, 0,0) ">
	<g>
		<g id="Layer1_0_FILL">
			<path style="fill:#272727;" d="M93.2,36.4c0.2,0.1,0.3,0.2,0.5,0.3v-0.1c-0.6-0.3-1.3-0.6-1.9-1C92.3,35.9,92.8,36.1,93.2,36.4
				 M105,102.8c7.5-8,11.2-17.5,11.2-28.7c0-11.1-3.7-20.6-11.2-28.6c-0.4-0.4-0.8-0.8-1.2-1.2c-3.1-3.1-6.5-5.6-10.1-7.5
				c-0.2-0.1-0.3-0.2-0.5-0.3c-0.5-0.3-1-0.5-1.4-0.8c-2.5-1.2-5.1-2.1-7.8-2.7c-2.9-0.7-6-1-9.2-1.1c-0.3,0-0.6,0-0.8,0
				c-0.1,0-0.2,0-0.3,0c-0.1,0-0.2,0-0.3,0c-0.1,0-0.2,0-0.2,0c-0.1,0-0.1,0-0.2,0s-0.1,0-0.2,0L64.2,33c-0.1,0-0.3,0.1-0.4,0.1
				c-2.6,0.6-5.1,1.5-7.5,2.6c-4.4,2-8.4,4.9-12.1,8.6c-0.4,0.4-0.8,0.8-1.1,1.2c-7.5,8-11.2,17.5-11.2,28.6s3.7,20.7,11.2,28.7
				c0.4,0.4,0.8,0.8,1.1,1.2c3.7,3.7,7.7,6.5,12.1,8.6c2.4,1.1,4.9,2,7.5,2.6v0.1c0.6,0.1,1.2,0.3,1.8,0.3c2.7,0.5,5.5,0.8,8.4,0.8
				h0.1c3.1,0,6-0.3,8.8-0.8c0.4-0.1,0.8-0.2,1.2-0.2c2.7-0.6,5.3-1.5,7.8-2.7v0.2c0.7-0.3,1.3-0.6,2-1c3.6-1.9,7-4.5,10.1-7.6
				C104.2,103.5,104.6,103.2,105,102.8 M109.8,72.2L109.8,72.2l4.7,1.8l-4.7,1.8c-0.1,3.3-0.7,6.4-1.7,9.4c-1.7,5.3-4.6,10-8.8,14.1
				h0.1c-1.7,1.8-3.6,3.3-5.6,4.7c-0.7,0.4-1.3,0.9-2,1.2v-0.1c-2.4,1.4-5,2.5-7.8,3.2v-0.1c-2.6,0.7-5.4,1.2-8.2,1.3h-0.1l-1.8,4.7
				l-1.8-4.6v-0.1c-2.9-0.1-5.7-0.6-8.3-1.3l0,0c-2.6-0.8-5.1-1.8-7.5-3.2c-2.7-1.5-5.2-3.5-7.5-5.9l0,0c-4.2-4.1-7.2-8.9-8.9-14.1
				c-1-3-1.5-6.1-1.6-9.4L33.5,74l4.7-1.8v-0.1c0.1-3.3,0.7-6.4,1.6-9.4l0,0c1.7-5.3,4.6-10,8.9-14.1l0,0c2.3-2.4,4.9-4.3,7.5-5.9
				c2.4-1.4,4.9-2.4,7.5-3.2l0,0l8.4-1.4l1.8-4.7l1.8,4.7h0.1c0.3,0,0.6,0,0.9,0.1c2,0.1,3.8,0.4,5.7,0.8c0.5,0.1,0.9,0.2,1.4,0.3
				c0.1,0,0.1,0,0.2,0c2.7,0.8,5.3,1.9,7.8,3.3V43c0.1,0,0.1,0.1,0.2,0.1c0.3,0.2,0.6,0.4,0.9,0.6c0.3,0.2,0.6,0.4,0.9,0.5
				c1.9,1.3,3.8,2.9,5.5,4.6c0,0,0,0,0.1,0.1c4.2,4.1,7.1,8.8,8.8,14.1l0,0C109.1,65.8,109.6,69,109.8,72.2z"/>
			<path style="fill:#606060;" d="M56.2,95.4c-0.6-0.5-1.2-1.1-1.9-1.8l0,0c-3.3-3.2-5.5-6.8-6.8-10.9c-0.4-1.2-0.7-2.5-1-3.8
				l-8.3-3.2c0.1,3.3,0.7,6.4,1.6,9.4c1.7,5.3,4.6,10,8.9,14.1l0,0c2.3,2.4,4.9,4.4,7.5,5.9c2.4,1.4,4.9,2.5,7.5,3.2l0,0
				c2.7,0.8,5.5,1.2,8.3,1.3l-3.2-8.3l0,0c-0.3,0-0.5-0.1-0.8-0.2c-0.1,0-0.2,0-0.2-0.1c-0.3,0-0.6-0.1-0.9-0.2
				c-0.2,0-0.3-0.1-0.5-0.1c-0.5-0.1-0.9-0.3-1.4-0.4s-0.9-0.3-1.3-0.5v-0.1C61.1,98.9,58.6,97.4,56.2,95.4 M69,46.6l3.2-8.4
				l-8.4,1.4l0,0c-2.6,0.8-5.1,1.8-7.5,3.2c-2.7,1.6-5.2,3.5-7.5,5.9l0,0c-4.2,4.1-7.2,8.8-8.9,14.1l0,0c-1,2.9-1.5,6-1.6,9.4v0.1
				l8.3-3.2l0,0c0.2-1.3,0.5-2.5,0.9-3.7v-0.1c1.3-4,3.6-7.7,6.8-10.8l0,0c0.6-0.6,1.2-1.2,1.9-1.7c2.3-2,4.8-3.5,7.5-4.6l0,0
				c0.5-0.2,1-0.3,1.4-0.5C66.4,47.1,67.7,46.8,69,46.6 M108.1,85.3c1-3,1.5-6.1,1.7-9.4l-8.3,3.2c-0.2,1.3-0.5,2.6-0.9,3.8
				c-1.3,4-3.5,7.6-6.8,10.8l-0.1,0.1l-0.1,0.1c-0.6,0.6-1.2,1.2-1.8,1.7v-0.1c-2.4,2-5,3.6-7.8,4.7V100c-0.5,0.2-0.9,0.3-1.4,0.5
				c-1.2,0.4-2.4,0.7-3.7,0.9l0,0h-0.1l0,0l-3.2,8.3h0.1c2.9-0.1,5.6-0.6,8.2-1.3v0.1c2.7-0.7,5.3-1.8,7.8-3.2v0.1
				c0.7-0.4,1.3-0.8,2-1.2c2-1.3,3.8-2.9,5.6-4.7h-0.1C103.5,95.3,106.4,90.6,108.1,85.3 M109.8,72.3L109.8,72.3
				c-0.1-3.3-0.7-6.5-1.7-9.4l0,0c-1.7-5.3-4.6-10-8.8-14.1c0,0,0,0-0.1-0.1c-1.7-1.8-3.6-3.3-5.5-4.6c-0.3-0.2-0.6-0.4-0.9-0.5
				c-0.3-0.2-0.6-0.4-0.9-0.6c-0.1,0-0.1-0.1-0.2-0.1v-0.2c-2.4-1.4-5-2.5-7.8-3.3c0,0-0.1,0-0.2,0c-0.5-0.1-0.9-0.2-1.4-0.3
				c-1.8-0.4-3.7-0.7-5.7-0.8c-0.3,0-0.6,0-0.9-0.1h-0.1l3.2,8.4l0,0c0.2,0,0.3,0.1,0.5,0.1l0.6,0.1c0.3,0.1,0.5,0.1,0.8,0.2
				c0.2,0.1,0.5,0.1,0.7,0.2l0.7,0.2c0.2,0.1,0.3,0.1,0.4,0.1c0.4,0.1,0.9,0.3,1.3,0.5l0,0c2.8,1.1,5.4,2.6,7.8,4.7v0.1
				c0.6,0.5,1.2,1.1,1.8,1.8h0.1l0.1,0.1c3.2,3.2,5.5,6.8,6.8,10.8c0.4,1.2,0.7,2.4,0.9,3.7l0,0L109.8,72.3z"/>
			<path style="fill:#4E4E4E;" d="M109.8,75.9l4.7-1.8l-4.7-1.8l-8.3-3.2l0,0c-0.2-1.3-0.5-2.5-0.9-3.7c-1.3-4-3.5-7.6-6.8-10.8
				l-0.1-0.1h-0.1c-0.6-0.6-1.2-1.2-1.8-1.8v-0.1c-2.4-2-5-3.6-7.8-4.7l0,0c-0.4-0.2-0.9-0.3-1.3-0.5c-0.1,0-0.3-0.1-0.4-0.1
				l-0.7-0.2c-0.2,0-0.5-0.1-0.7-0.2c-0.2-0.1-0.5-0.1-0.8-0.2l-0.6-0.1c-0.2,0-0.3-0.1-0.5-0.1l0,0l-3.2-8.4L74,33.6l-1.8,4.7
				L69,46.6c-1.3,0.2-2.6,0.5-3.8,0.9c-0.5,0.2-1,0.3-1.4,0.5l0,0c-2.7,1.1-5.2,2.6-7.5,4.6c-0.6,0.5-1.2,1.1-1.9,1.7l0,0
				c-3.3,3.2-5.5,6.8-6.8,10.8v0.1c-0.4,1.2-0.7,2.4-0.9,3.7l0,0l-8.3,3.2L33.5,74l4.7,1.8l8.3,3.2c0.2,1.3,0.6,2.5,1,3.8
				c1.3,4.1,3.6,7.7,6.8,10.9l0,0c0.6,0.6,1.2,1.2,1.9,1.8c2.3,2,4.8,3.5,7.5,4.5v0.1c0.4,0.2,0.9,0.4,1.3,0.5
				c0.5,0.1,0.9,0.3,1.4,0.4c0.2,0,0.3,0.1,0.5,0.1c0.3,0.1,0.6,0.2,0.9,0.2c0.1,0,0.2,0.1,0.2,0.1c0.2,0.1,0.5,0.1,0.8,0.2l0,0
				l3.2,8.3v0.1l1.8,4.6l1.8-4.7l3.2-8.3l0,0h0.1l0,0c1.3-0.2,2.5-0.5,3.7-0.9c0.5-0.2,0.9-0.3,1.4-0.5v0.1c2.8-1.1,5.4-2.6,7.8-4.7
				v0.1c0.6-0.5,1.2-1.1,1.8-1.7l0.1-0.1l0.1-0.1c3.2-3.2,5.5-6.8,6.8-10.8c0.4-1.2,0.7-2.5,0.9-3.8L109.8,75.9 M67.5,61.7H73v19.8
				h10.1v5H67.5V61.7z"/>
			<path style="fill:#8C8C8C;" d="M73,61.7h-5.5v24.8h15.6v-5H73V61.7z"/>
		</g>
	</g>
	<g>
		<path id="Layer1_0_1_STROKES" style="fill:none;stroke:#151515;stroke-width:4;stroke-linecap:round;stroke-linejoin:round;" d="
			M91.8,112.6c0.7-0.3,1.3-0.6,2-1c3.6-1.9,7-4.5,10.1-7.6c0.4-0.4,0.8-0.8,1.2-1.2c7.5-8,11.2-17.5,11.2-28.7
			c0-11.1-3.7-20.6-11.2-28.6c-0.4-0.4-0.8-0.8-1.2-1.2c-3.1-3.1-6.5-5.6-10.1-7.5c-0.2-0.1-0.3-0.2-0.5-0.3c-0.5-0.3-1-0.5-1.4-0.8
			c-2.5-1.2-5.1-2.1-7.8-2.7c-2.9-0.7-6-1-9.1-1.1c-0.3,0-0.6,0-0.9,0c-0.1,0-0.2,0-0.3,0c-0.1,0-0.2,0-0.3,0c-0.1,0-0.2,0-0.2,0
			c-0.1,0-0.1,0-0.2,0s-0.1,0-0.2,0L64.3,33c-0.1,0-0.3,0.1-0.4,0.1c-2.6,0.6-5.1,1.5-7.5,2.6c-4.4,2-8.4,4.9-12.1,8.6
			c-0.4,0.4-0.8,0.8-1.1,1.2C35.7,53.5,32,63,32,74.1s3.7,20.7,11.2,28.7c0.4,0.4,0.8,0.8,1.1,1.2c3.7,3.7,7.7,6.5,12.1,8.6
			c2.4,1.1,4.9,2,7.5,2.6 M63.8,115.1c0.6,0.1,1.2,0.3,1.8,0.4c2.7,0.5,5.4,0.8,8.3,0.8H74c3.1,0,6-0.3,8.8-0.8
			c0.4-0.1,0.8-0.2,1.2-0.2c2.7-0.6,5.3-1.5,7.8-2.7 M93.8,36.6c-0.6-0.3-1.3-0.7-1.9-1"/>
	</g>
</g>
<path id="Up" style="fill:#BFBFBF;stroke:#000000;stroke-width:3;" d="M74,3L50,26.8h48L74,3z"/>
</svg>
