<?xml version="1.0" encoding="utf-8"?>
<!-- Generator: Adobe Illustrator 25.0.0, SVG Export Plug-In . SVG Version: 6.00 Build 0)  -->
<svg version="1.1" id="Layer_1" xmlns="http://www.w3.org/2000/svg" xmlns:xlink="http://www.w3.org/1999/xlink" x="0px" y="0px"
	 viewBox="0 0 100 100" style="enable-background:new 0 0 100 100;" xml:space="preserve">
<g transform="matrix( 1, 0, 0, 1, 0,0) ">
	<g>
		<g id="Layer1_0_FILL">
			<path style="fill:#4F4F4F;" d="M18.4,33.4c-6.5,3.1-10.9,7.8-13.1,14c-1.7,4.9-1.8,9.2-0.4,13.1c1.5,3.8,3.6,7,6.4,9.4
				c2-0.4,3.4-1.6,4.4-3.6c-2-4.1-1.7-8.3,0.7-12.6c2.4-4.4,6-7.6,11-9.6c7.1-3.1,13.3-4.8,18.7-5.2c-0.2-3.4-2.2-6.2-5.9-8.2
				C32.3,29.3,25,30.2,18.4,33.4 M38.3,36c-5.8,1.1-11.1,3.2-16,6.3h0c-4.9,3.1-8,6.4-9.4,9.7c-1.3,3.4-2.1,6.9-2.3,10.7
				c-1.8-4-1.9-7.9-0.4-11.8c1.4-3.9,5-7.6,10.6-11.2v0C26.1,36.3,32,35.1,38.3,36z"/>
			<path style="fill:#626262;" d="M22.3,42.3c4.9-3.1,10.2-5.2,16-6.3c-6.3-0.9-12.2,0.4-17.6,3.9v0C15.1,43.3,11.6,47,10.2,51
				c-1.5,3.9-1.3,7.8,0.4,11.8c0.2-3.8,1-7.4,2.3-10.7C14.3,48.7,17.4,45.4,22.3,42.3L22.3,42.3z"/>
			<path style="fill:#1B1B1B;" d="M32.3,48.6l-2.7,1v15l7.8-2.9v-3l-5.1,1.9V48.6z"/>
		</g>
	</g>
	<g>
		<path id="Layer1_0_1_STROKES" style="fill:none;stroke:#1B1B1B;stroke-width:5;stroke-linecap:round;stroke-linejoin:round;" d="
			M5.3,47.4c2.2-6.2,6.6-10.9,13.1-14c6.6-3.2,13.8-4.1,21.8-2.7c3.7,2,5.7,4.8,5.9,8.2c-5.4,0.4-11.7,2.1-18.7,5.2
			c-5,2.1-8.7,5.3-11,9.6c-2.4,4.3-2.6,8.5-0.7,12.6c-0.9,2-2.4,3.2-4.4,3.6c-2.8-2.5-4.9-5.6-6.4-9.4C3.5,56.7,3.6,52.3,5.3,47.4z"
			/>
	</g>
</g>
<g transform="matrix( 1, 0, 0, 1, 0,0) ">
	<g>
		<g id="Layer1_0_FILL_1_">
			<path style="fill:#1B1B1B;" d="M68.5,51.3c-0.6-0.4-1.2-0.7-1.9-1l-5-1.9v15l2.8,1.1v-6l1.4,0.6l2.7,7.1l3.4,1.3l-3.3-7.6
				c0.9,0.1,1.6-0.1,2.1-0.6c0.5-0.5,0.7-1.3,0.7-2.4c0-0.9-0.1-1.6-0.4-2.3c-0.3-0.7-0.6-1.3-1-1.8C69.7,52.1,69.2,51.7,68.5,51.3
				 M66.4,53.1c0.3,0.1,0.5,0.2,0.8,0.3c0.3,0.2,0.5,0.4,0.7,0.6c0.2,0.2,0.4,0.4,0.5,0.7c0.1,0.3,0.2,0.7,0.2,1
				c0,0.4-0.1,0.7-0.2,0.8c-0.1,0.2-0.3,0.3-0.6,0.3c-0.2,0-0.5,0-0.8-0.1c-0.3-0.1-0.6-0.2-0.8-0.4l-1.7-0.7v-3.4L66.4,53.1z"/>
			<path style="fill:#4F4F4F;" d="M95.1,60.5c1.4-3.8,1.3-8.2-0.4-13.1c-2.2-6.2-6.6-10.9-13.1-14c-6.6-3.2-13.8-4.1-21.8-2.7
				c-3.7,2-5.7,4.8-5.9,8.2c5.4,0.4,11.7,2.1,18.7,5.2c5,2.1,8.7,5.3,11,9.6c2.4,4.3,2.6,8.5,0.7,12.6c0.9,2,2.4,3.2,4.4,3.6
				C91.5,67.5,93.6,64.3,95.1,60.5 M79.3,39.8L79.3,39.8c5.6,3.5,9.1,7.2,10.5,11.1c1.5,3.9,1.4,7.8-0.4,11.8
				c-0.3-3.8-1-7.4-2.3-10.7c-1.3-3.4-4.4-6.6-9.4-9.7v0c-4.9-3.1-10.2-5.3-16-6.3C68,35.1,73.9,36.4,79.3,39.8z"/>
			<path style="fill:#626262;" d="M79.2,39.8L79.2,39.8C73.9,36.4,68,35.1,61.7,36c5.8,1.1,11.1,3.2,16,6.3v0c4.9,3.1,8,6.3,9.4,9.7
				c1.3,3.4,2.1,6.9,2.3,10.7c1.8-4,1.9-7.9,0.4-11.8C88.4,47,84.9,43.3,79.2,39.8z"/>
		</g>
	</g>
	<g>
		
			<path id="Layer1_0_1_STROKES_1_" style="fill:none;stroke:#1B1B1B;stroke-width:5;stroke-linecap:round;stroke-linejoin:round;" d="
			M95.1,60.5c1.4-3.8,1.3-8.2-0.4-13.1c-2.2-6.2-6.6-10.9-13.1-14c-6.6-3.2-13.8-4.1-21.8-2.7c-3.7,2-5.7,4.8-5.9,8.2
			c5.4,0.4,11.7,2.1,18.7,5.2c5,2.1,8.7,5.3,11,9.6c2.4,4.3,2.6,8.5,0.7,12.6c0.9,2,2.4,3.2,4.4,3.6C91.5,67.5,93.6,64.3,95.1,60.5z
			"/>
	</g>
</g>
</svg>
