<?xml version="1.0" encoding="utf-8"?>
<!-- Generator: Adobe Illustrator 25.0.0, SVG Export Plug-In . SVG Version: 6.00 Build 0)  -->
<svg version="1.1" id="Layer_1" xmlns="http://www.w3.org/2000/svg" xmlns:xlink="http://www.w3.org/1999/xlink" x="0px" y="0px"
	 viewBox="0 0 100 100" style="enable-background:new 0 0 100 100;" xml:space="preserve">
<g transform="matrix( 1, 0, 0, 1, 0,0) ">
	<g>
		<g id="Layer1_0_FILL">
			<path style="fill:#F5F5F5;" d="M65.2,40.7c-1.3,0-2.5-0.3-3.5-1c-1.2,3.2-1.7,6.6-1.7,10.2s0.5,7,1.7,10.3c1-0.7,2.2-1.1,3.5-1.1
				h20.2c0.4,0,0.8-0.1,1.1-0.4l0,0c0.3-0.3,0.4-0.7,0.4-1V42.4c0-0.4-0.1-0.7-0.4-1s-0.7-0.5-1.1-0.5H65.2"/>
			<polygon style="fill:#F5F5F5;" points="73.7,54.9 73.7,44.8 82.6,49.9 			"/>
			<path style="fill:#F5F5F5;" d="M34.8,59.2c1.3,0,2.5,0.3,3.5,1C39.5,57,40,53.6,40,50s-0.5-7-1.7-10.3c-1,0.7-2.2,1.1-3.5,1.1
				H14.6c-0.4,0-0.8,0.1-1.1,0.4l0,0c-0.3,0.3-0.4,0.7-0.4,1v15.3c0,0.4,0.1,0.7,0.4,1s0.7,0.5,1.1,0.5h20.2"/>
			<polygon style="fill:#F5F5F5;" points="25.9,45 25.9,55.1 17,50 			"/>
			<polyline style="fill:#1B1B1B;" points="74.1,55.1 83,50 74.1,45 74.1,55.1 			"/>
			<path style="fill:#1B1B1B;" d="M50,95.3h9.6c0.2,0,0.4,0,0.5,0s0.2,0,0.2,0h0.1c3.9-0.5,6.4-2.9,7.3-7.1c0,0,0-0.1,0-0.2l0,0
				c0-0.2,0-0.5,0-0.7v-17c-1.8-2-3.2-4.2-4.4-6.5c-0.3,0.4-0.6,0.9-0.6,1.5v21.9c-0.4,1.8-1.5,2.8-3.1,3.2H50"/>
			<path style="fill:#1B1B1B;" d="M50,9.7h9.6c1.6,0.4,2.7,1.4,3.1,3.2v22c0,0.6,0.2,1.1,0.5,1.5c1.2-2.3,2.7-4.5,4.5-6.5V12.8
				c0-0.2,0-0.4-0.1-0.6V12v-0.1v-0.1c-0.9-4.2-3.4-6.6-7.3-7.1h-0.1c-0.2,0-0.3,0-0.4,0h-0.1H50"/>
			<polyline style="fill:#1B1B1B;" points="25.9,55.1 25.9,45 17,50 25.9,55.1 			"/>
			<path style="fill:#1B1B1B;" d="M50,90.4h-9.6c-1.6-0.4-2.6-1.4-3.1-3.2V65.3c0-0.6-0.2-1.2-0.5-1.6c-1.2,2.3-2.8,4.6-4.6,6.6v17
				c0,0.2,0,0.5,0.1,0.7l0,0c0,0.1,0,0.2,0,0.2c0.9,4.2,3.4,6.6,7.3,7.1h0.1c0,0,0.1,0,0.2,0c0.1,0,0.3,0,0.5,0H50"/>
			<path style="fill:#1B1B1B;" d="M50,4.7h-9.7h-0.1c-0.1,0-0.2,0-0.4,0h-0.1c-3.9,0.5-6.4,2.9-7.3,7.1v0.1V12v0.2
				c-0.1,0.2-0.1,0.4-0.1,0.6v17.1c1.8,2,3.3,4.2,4.5,6.5c0.3-0.4,0.5-0.9,0.5-1.5v-22c0.4-1.8,1.5-2.8,3.1-3.2H50"/>
			<path style="fill:#D7D7D7;" d="M36.8,36.3c-0.1,0.1-0.1,0.2-0.2,0.3c-0.5,0.5-1.1,0.8-1.8,0.8h-22c-1.8,0.5-2.8,1.5-3.2,3.1v19.1
				c0.3,1.6,1.4,2.7,3.2,3.1h22c0.7,0,1.3,0.2,1.8,0.7c0.1,0.1,0.1,0.2,0.2,0.3c0.6-1.1,1.1-2.3,1.5-3.5c-1-0.7-2.2-1-3.5-1H14.6
				c-0.4,0-0.8-0.2-1.1-0.5s-0.4-0.7-0.4-1V42.3c0-0.4,0.1-0.7,0.4-1l0,0c0.3-0.3,0.7-0.4,1.1-0.4h20.2c1.3,0,2.5-0.4,3.5-1.1
				C37.9,38.6,37.4,37.5,36.8,36.3z"/>
			<path style="fill:#D7D7D7;" d="M63.2,63.8c0.1-0.1,0.1-0.2,0.2-0.3c0.5-0.5,1.1-0.8,1.8-0.8h22c1.8-0.5,2.8-1.5,3.2-3.1V40.5
				c-0.3-1.6-1.4-2.7-3.2-3.1h-22c-0.7,0-1.3-0.2-1.8-0.7c-0.1-0.1-0.1-0.2-0.2-0.3c-0.6,1.1-1.1,2.3-1.5,3.5c1,0.7,2.2,1,3.5,1
				h20.2c0.4,0,0.8,0.2,1.1,0.5c0.3,0.3,0.4,0.7,0.4,1v15.4c0,0.4-0.1,0.7-0.4,1l0,0c-0.3,0.3-0.7,0.4-1.1,0.4H65.2
				c-1.3,0-2.5,0.4-3.5,1.1C62.1,61.5,62.6,62.6,63.2,63.8z"/>
			<polyline style="fill:#FFFFFF;" points="55,74.1 49.9,83 44.9,74.1 			"/>
			<polyline style="fill:#FFFFFF;" points="44.9,26 49.9,17 55,26 			"/>
			<path style="fill:#4F4F4F;" d="M50,13.1h7.6c0.3,0,0.7,0.1,1,0.4c0.3,0.3,0.5,0.7,0.5,1.1v20.2c0.1,1.7,0.6,3.1,1.8,4.3
				c0.3,0.2,0.5,0.5,0.8,0.7C60.5,43,60,46.4,60,50s0.5,7,1.7,10.2c-0.3,0.2-0.6,0.5-0.8,0.7c-1.2,1.2-1.8,2.6-1.8,4.3v20.2
				c0,0.4-0.2,0.7-0.5,1v0.1c-0.3,0.3-0.6,0.4-1,0.4H50h-7.6c-0.3,0-0.7-0.1-1-0.4s-0.5-0.7-0.5-1.1V65.2c-0.1-1.7-0.6-3.1-1.8-4.3
				c-0.3-0.2-0.5-0.5-0.8-0.7C39.5,57,40,53.6,40,50s-0.5-7-1.7-10.2c0.3-0.2,0.6-0.5,0.8-0.7c1.2-1.2,1.8-2.6,1.8-4.3V14.6
				c0-0.4,0.2-0.7,0.5-1v-0.1c0.3-0.3,0.6-0.4,1-0.4H50z"/>
			
				<linearGradient id="SVGID_1_" gradientUnits="userSpaceOnUse" x1="-1348.1063" y1="-1445.8875" x2="-1348.1063" y2="-1421.3875" gradientTransform="matrix(0 -1 -1 0 -1354.3812 -1298.0063)">
				<stop  offset="0" style="stop-color:#404040"/>
				<stop  offset="1" style="stop-color:#1B1B1B"/>
			</linearGradient>
			<path style="fill:url(#SVGID_1_);" d="M63.3,63.5c-0.1,0.1-0.1,0.1-0.2,0.3c1.2,2.3,2.7,4.5,4.5,6.5v-2.5h19.8
				c0.3,0,0.6,0,0.9-0.2c4-1,6.3-3.4,6.9-7.2c0-0.1,0-0.1,0-0.1c0.1-0.2,0.1-0.4,0-0.6V40.4v-0.1c0-0.1,0-0.2,0-0.4v-0.1
				c-0.5-3.9-2.9-6.4-7.2-7.3h-0.1h-0.1h-0.1c-0.2-0.1-0.4-0.1-0.7-0.1H67.7v-2.5c-1.8,2-3.3,4.2-4.5,6.5c0.1,0.1,0.1,0.2,0.2,0.3
				c0.5,0.5,1.1,0.7,1.8,0.7h22c1.8,0.4,2.8,1.5,3.2,3.1v19.1c-0.3,1.6-1.4,2.6-3.2,3.1h-22C64.5,62.8,63.8,63,63.3,63.5z"/>
			
				<linearGradient id="SVGID_2_" gradientUnits="userSpaceOnUse" x1="-369.9937" y1="430.5" x2="-369.9937" y2="455" gradientTransform="matrix(0 1 1 0 -422.0062 419.9937)">
				<stop  offset="0" style="stop-color:#404040"/>
				<stop  offset="1" style="stop-color:#1B1B1B"/>
			</linearGradient>
			<path style="fill:url(#SVGID_2_);" d="M36.7,36.6c0.1-0.1,0.1-0.1,0.2-0.3c-1.2-2.3-2.7-4.5-4.5-6.5v2.5H12.6
				c-0.3,0-0.6,0-0.9,0.2c-4,1-6.3,3.4-6.9,7.2c0,0.1,0,0.1,0,0.1c-0.1,0.2-0.1,0.4,0,0.6v19.3v0.1c0,0.1,0,0.2,0,0.4v0.1
				c0.5,3.9,2.9,6.4,7.2,7.3h0.1h0.1h0.1c0.2,0.1,0.4,0.1,0.7,0.1h19.3v2.5c1.8-2,3.3-4.2,4.5-6.5c-0.1-0.1-0.1-0.2-0.2-0.3
				c-0.5-0.5-1.1-0.7-1.8-0.7h-22c-1.8-0.4-2.8-1.5-3.2-3.1V40.5c0.3-1.6,1.4-2.6,3.2-3.1h22C35.5,37.3,36.2,37.1,36.7,36.6z"/>
			<polygon style="fill:#9A9A9A;" points="26,55.1 26,45 17,50.1 			"/>
			<polyline style="fill:#9A9A9A;" points="55.1,74.1 45,74.1 50,83 55.1,74.1 			"/>
			<polyline style="fill:#9A9A9A;" points="50,17 45,26 55.1,26 50,17 			"/>
			<polygon style="fill:#9A9A9A;" points="74,45 74,55.1 83,50 			"/>
			<path style="fill:#313131;" d="M50,13.1h7.6c0.3,0,0.7,0.1,1,0.4v0.1c0.3,0.3,0.5,0.6,0.5,1v20.2c0.1,1.7,0.6,3.1,1.8,4.3
				c0.3,0.3,0.5,0.5,0.8,0.7c0.4-1.2,0.9-2.3,1.5-3.4c-0.3-0.4-0.5-0.9-0.5-1.5v-22c-0.4-1.8-1.5-2.9-3.1-3.2H50"/>
			<path style="fill:#313131;" d="M50,90.4h9.6c1.6-0.4,2.7-1.4,3.1-3.2v-22c0-0.6,0.2-1.1,0.5-1.5c-0.6-1.2-1.1-2.3-1.5-3.5
				c-0.3,0.2-0.6,0.5-0.8,0.7c-1.2,1.2-1.8,2.6-1.8,4.3v20.1c0,0.4-0.2,0.8-0.5,1.1s-0.6,0.4-1,0.4H50"/>
			<path style="fill:#313131;" d="M50,9.7h-9.6c-1.6,0.3-2.7,1.4-3.1,3.2v22c0,0.6-0.2,1.1-0.5,1.5c0.6,1.1,1.1,2.2,1.5,3.4
				c0.3-0.2,0.5-0.4,0.8-0.7c1.2-1.2,1.7-2.6,1.8-4.3V14.6c0-0.4,0.2-0.7,0.5-1v-0.1c0.3-0.3,0.7-0.4,1-0.4H50"/>
			<path style="fill:#313131;" d="M50,86.8h-7.6c-0.4,0-0.7-0.1-1-0.4s-0.5-0.7-0.5-1.1V65.2c0-1.7-0.6-3.1-1.8-4.3
				c-0.2-0.2-0.5-0.5-0.8-0.7c-0.4,1.2-0.9,2.3-1.5,3.5c0.3,0.4,0.5,0.9,0.5,1.5v22c0.4,1.8,1.5,2.8,3.1,3.2H50"/>
		</g>
	</g>
</g>
</svg>
