<?xml version="1.0" encoding="utf-8"?>
<!-- Generator: Adobe Illustrator 25.0.0, SVG Export Plug-In . SVG Version: 6.00 Build 0)  -->
<svg version="1.1" id="Layer_1" xmlns="http://www.w3.org/2000/svg" xmlns:xlink="http://www.w3.org/1999/xlink" x="0px" y="0px"
	 viewBox="0 0 100 100" style="enable-background:new 0 0 100 100;" xml:space="preserve">
<style type="text/css">
	.st0{fill:#313131;}
	.st1{fill:#4F4F4F;}
	.st2{fill:#9A9A9A;}
	.st3{fill:#1B1B1B;}
	.st4{fill:#F5F5F5;}
	.st5{fill:#D7D7D7;}
	.st6{fill:url(#SVGID_1_);}
</style>
<g transform="matrix( 1, 0, 0, 1, 0,0) ">
	<g>
		<g id="Layer1_0_FILL">
			<path class="st0" d="M37.3,34.9V12.8c0.5-1.7,1.5-2.8,3.1-3.1h19.1c1.6,0.3,2.7,1.4,3.1,3.2v22c0,0.7,0.2,1.3,0.7,1.8
				c0.5,0.5,1.1,0.8,1.8,0.8h22c1.8,0.5,2.8,1.5,3.2,3.1v19.1c-0.3,1.6-1.4,2.7-3.2,3.1h-22c-0.6,0-1.1,0.2-1.5,0.5
				c-1.1-0.6-2.3-1.1-3.5-1.5c0.2-0.3,0.5-0.5,0.7-0.8c1.2-1.2,2.6-1.7,4.2-1.8h20.2c0.4,0,0.8-0.2,1.1-0.5c0.3-0.3,0.4-0.7,0.4-1
				V42.4c0-0.4-0.2-0.7-0.4-1v0c-0.3-0.3-0.7-0.4-1.1-0.4H65.2c-1.7,0-3.1-0.6-4.2-1.8s-1.8-2.6-1.8-4.2V14.7c0-0.4-0.2-0.7-0.5-1
				v-0.1c-0.3-0.3-0.7-0.4-1-0.4H42.3c-0.4,0-0.7,0.1-1,0.4l0,0.1c-0.3,0.3-0.4,0.6-0.4,1c0,0,0,20.2,0,20.2c0,1.7-0.6,3.1-1.8,4.2
				c-0.2,0.2-0.5,0.5-0.8,0.7c-0.4-1.2-0.9-2.3-1.5-3.4C37.2,35.9,37.3,35.4,37.3,34.9z"/>
			<polyline class="st1" points="74,55.1 74,44.9 83,50 74,55.1 			"/>
			<polyline class="st1" points="45,26 50,17 55.1,26 45,26 			"/>
			<path class="st1" d="M86.4,41.3c-0.3-0.3-0.7-0.4-1.1-0.4H65.2c-1.7,0-3.1-0.6-4.2-1.8s-1.8-2.6-1.8-4.2V14.7
				c0-0.4-0.2-0.7-0.5-1v-0.1c-0.3-0.3-0.7-0.4-1-0.4H42.3c-0.4,0-0.7,0.1-1,0.4l0,0.1c-0.3,0.3-0.4,0.6-0.4,1v20.2
				c0,1.7-0.6,3.1-1.8,4.2c-0.2,0.2-0.5,0.5-0.8,0.7C39.5,42.9,40,46.4,40,50s-0.5,7-1.7,10.2l0.8,0.7c0.2,0.2,0.5,0.5,0.7,0.8
				C43,60.6,46.4,60,50,60s7,0.5,10.2,1.7c0.2-0.3,0.5-0.5,0.7-0.8c1.2-1.2,2.6-1.7,4.2-1.8h20.2c0.4,0,0.8-0.2,1.1-0.5
				c0.3-0.3,0.4-0.7,0.4-1V42.4C86.8,42,86.7,41.6,86.4,41.3z"/>
			<polyline class="st1" points="74,44.9 83,50 74,55.1 74,44.9 			"/>
			<polygon class="st1" points="55.1,25.9 45,25.9 50,17 			"/>
			<path class="st2" d="M50,17l-5,9h10.1L50,17 M74,44.9v10.1l9-5L74,44.9z"/>
			<path class="st3" d="M25.9,55.1V44.9L17,50L25.9,55.1z M55.1,74.1H45l5,8.9L55.1,74.1z"/>
			<path class="st4" d="M57.7,86.9c0.4,0,0.7-0.1,1-0.4c0.3-0.3,0.5-0.7,0.5-1.1V65.2c0-1.3,0.3-2.5,1-3.5C57,60.6,53.6,60,50,60
				s-7,0.5-10.2,1.7c0.7,1,1.1,2.2,1.1,3.5v20.2c0,0.4,0.1,0.8,0.4,1.1h0c0.3,0.3,0.7,0.4,1,0.4H57.7 M45,74.1h10.1L50,83L45,74.1z"
				/>
			<path class="st5" d="M59.5,90.4c1.6-0.3,2.7-1.4,3.1-3.2v-22c0-0.7,0.2-1.3,0.7-1.8c0.1-0.1,0.2-0.1,0.3-0.2
				c-1.1-0.6-2.3-1.1-3.5-1.5c-0.7,1-1,2.2-1,3.5v20.2c0,0.4-0.2,0.8-0.5,1.1c-0.3,0.3-0.7,0.4-1,0.4H42.3c-0.4,0-0.7-0.1-1-0.4h0
				c-0.3-0.3-0.4-0.7-0.4-1.1V65.2c0-1.3-0.4-2.5-1.1-3.5c-1.2,0.4-2.3,0.9-3.4,1.5c0.1,0.1,0.2,0.1,0.2,0.2
				c0.5,0.5,0.7,1.1,0.8,1.8v22c0.5,1.8,1.5,2.8,3.1,3.2H59.5z"/>
			
				<linearGradient id="SVGID_1_" gradientUnits="userSpaceOnUse" x1="84.4758" y1="51.9958" x2="15.4689" y2="51.9958" gradientTransform="matrix(0 1 1 0 -2 8.332741e-03)">
				<stop  offset="0" style="stop-color:#404040"/>
				<stop  offset="1" style="stop-color:#1B1B1B"/>
			</linearGradient>
			<path class="st6" d="M36.3,63.2c0.1,0.1,0.2,0.1,0.2,0.2c0.5,0.5,0.7,1.1,0.8,1.8v22c0.5,1.8,1.5,2.8,3.1,3.2h19.1
				c1.6-0.3,2.7-1.4,3.1-3.2v-22c0-0.7,0.2-1.3,0.7-1.8c0.1-0.1,0.2-0.1,0.3-0.2c2.3,1.2,4.5,2.7,6.5,4.5h-2.5v19.6
				c0,0.2,0,0.4-0.1,0.7V88c0,0,0,0.1-0.1,0.1v0.1c-0.9,4.2-3.4,6.6-7.3,7.2h-0.1c-0.1,0-0.3,0-0.4,0c0,0-0.1,0-0.1,0H40.4
				c-0.2,0-0.4,0-0.6,0c0,0-0.1,0-0.1,0c-3.7-0.6-6.1-2.9-7.2-6.9c-0.1-0.3-0.2-0.6-0.2-0.9V67.7h-2.5H12.7c-0.2,0-0.4,0-0.7-0.1
				h-0.2l0,0c0,0-0.1,0-0.1,0c-4.2-0.9-6.6-3.4-7.1-7.3l0-0.1c0-0.1,0-0.3,0-0.4c0,0,0-0.1,0-0.1V40.4c0-0.2,0-0.4,0-0.6l0-0.1
				c0.6-3.7,2.9-6.1,6.9-7.2c0.3-0.1,0.6-0.2,0.9-0.2h19.8V12.5c0-0.3,0.1-0.6,0.2-0.9c1-4,3.4-6.3,7.2-6.9l0.1,0c0.2,0,0.4,0,0.6,0
				h19.3c0,0,0.1,0,0.1,0c0.1,0,0.2,0,0.4,0c0.1,0,0.1,0,0.1,0c3.9,0.5,6.3,2.9,7.2,7.1c0,0.1,0.1,0.1,0.1,0.2c0,0,0,0.1,0,0.1
				c0.1,0.3,0.1,0.5,0.1,0.7v19.6h19.8c0.3,0,0.6,0,0.9,0.2c4,1,6.3,3.4,6.9,7.2c0,0.1,0,0.1,0,0.1c0.1,0.2,0.1,0.4,0.1,0.6v19.1
				c0,0.2,0,0.3,0,0.5c0,0.1,0,0.1-0.1,0.2v0.1c-0.5,3.9-2.9,6.4-7.1,7.3c0,0-0.1,0-0.2,0h-0.1c-0.2,0.1-0.5,0.1-0.7,0.1h-17
				c-2-1.8-4.2-3.3-6.5-4.5c0.4-0.3,0.9-0.5,1.5-0.5h22c1.8-0.4,2.8-1.5,3.2-3.1V40.5c-0.3-1.6-1.4-2.6-3.2-3.1h-22
				c-0.7,0-1.3-0.2-1.8-0.8c-0.5-0.5-0.7-1-0.7-1.8v-22c-0.4-1.8-1.5-2.8-3.1-3.2H40.5c-1.6,0.3-2.6,1.4-3.1,3.1v22.1
				c0,0.7-0.3,1.3-0.8,1.8c-0.5,0.5-1.1,0.8-1.8,0.8H12.7c-1.7,0.5-2.8,1.5-3.1,3.1v19.1c0.3,1.6,1.4,2.7,3.2,3.1h22
				C35.4,62.7,35.9,62.8,36.3,63.2z"/>
		</g>
	</g>
</g>
<path class="st5" d="M9.7,59.6c0.3,1.6,1.4,2.7,3.2,3.1h22c0.7,0,1.3,0.2,1.8,0.7c0.1,0.1,0.1,0.2,0.2,0.3c0.6-1.1,1.1-2.3,1.5-3.5
	c-1-0.7-2.2-1-3.5-1H14.7c-0.4,0-0.8-0.2-1.1-0.5c-0.3-0.3-0.4-0.7-0.4-1V42.4c0-0.4,0.1-0.7,0.4-1v0c0.3-0.3,0.7-0.4,1.1-0.4h20.2
	c1.3,0,2.5-0.4,3.5-1.1c-0.4-1.2-0.9-2.3-1.5-3.4c-0.1,0.1-0.1,0.2-0.2,0.2c-0.5,0.5-1.1,0.7-1.8,0.8h-22c-1.8,0.5-2.8,1.5-3.2,3.1
	V59.6z"/>
</svg>
