
<svg xmlns="http://www.w3.org/2000/svg" version="1.1" xmlns:xlink="http://www.w3.org/1999/xlink" x="0px" y="0px" viewBox="0 0 100 100">
<defs>
<linearGradient id="Gradient_1" gradientUnits="userSpaceOnUse" x1="49.95" y1="70.7125" x2="49.95" y2="9.787499999999998" spreadMethod="pad">
<stop  offset="36.07843137254902%" stop-color="#FFFFFF" stop-opacity="0"/>

<stop  offset="68.23529411764706%" stop-color="#FFFFFF"/>
</linearGradient>

<g id="Layer1_0_FILL">
<path fill="url(#Gradient_1)" stroke="none" d="
M 67.6 33.4
L 67.65 31.4 50 9.8 32.4 31.4 32.3 33.4 41.5 33.4 41.5 57.75 58.45 57.75 58.45 33.5 67.6 33.4 Z"/>

<path fill="#FFFFFF" stroke="none" d="
M 91.65 69.8
L 91.65 54.7
Q 91.65 41 77.95 41
L 65.9 41 65.9 49.8 76.15 49.8 76.15 76.4 23.95 76.4 23.95 49.8 33.2 49.8 33.2 41 22.1 41
Q 8.4 41 8.4 54.7
L 8.4 69.8
Q 8.4 83.5 22.1 83.5
L 77.95 83.5
Q 91.65 83.5 91.65 69.8 Z"/>
</g>

</defs>

<g transform="matrix( 1, 0, 0, 1, 0,0) ">
<use xlink:href="#Layer1_0_FILL"/>
</g>

<g transform="matrix( 1, 0, 0, 1, -3.4,-28) ">
<clipPath id="Mask_Mask_1">
<rect x="13.8" y="-2" width="79.2" height="20.8" fill="#FFFFFF" stroke="none"/>
</clipPath>

<text clip-path="url(#Mask_Mask_1)" writing-mode="lr"><tspan x="15.9" y="13.6" baseline-shift="0%" kerning="auto" font-family="Arial_Regular" font-size="15" fill="#999999" xml:space="preserve">Wii &amp; Wii U</tspan></text>
</g>
</svg>
