
<svg xmlns="http://www.w3.org/2000/svg" version="1.1" xmlns:xlink="http://www.w3.org/1999/xlink" x="0px" y="0px" viewBox="0 0 100 100">
<defs>
<g id="Layer1_0_FILL">
<path fill="#D7D7D7" stroke="none" d="
M 85.05 21.85
Q 84.85 18.2 81.55 16.25
L 28.5 12.35
Q 18.55 14.1 13.45 24.85
L 11.25 77.8
Q 18.2 86.45 28.5 87.7
L 78.85 87.7
Q 87.3 87.95 88.8 78.1 82.85 50.95 85.05 21.85
M 30.05 24.55
Q 30.55 21.5 34.35 20.8
L 78 23.7
Q 76.75 51.8 81.2 70.45 80.65 74.55 76.15 75.5 56.65 76.6 36.05 75.05 31.25 73.65 29.55 68.95 28.15 46.75 30.05 24.55 Z"/>

<path fill="#F5F5F5" stroke="none" d="
M 34.35 20.8
Q 30.55 21.5 30.05 24.55 28.15 46.75 29.55 68.95 31.25 73.65 36.05 75.05 56.65 76.6 76.15 75.5 80.65 74.55 81.2 70.45 76.75 51.8 78 23.7
L 34.35 20.8
M 54.15 31.2
Q 54.9 32.65 54.9 34.85 54.9 37.45 53.55 39.3 52.15 41.15 49.55 41.6
L 55.85 52.1 49.3 52.1 44.1 42.2 41.45 42.2 41.45 52.1 36 52.1 36 27.3 45.55 27.3
Q 47.45 27.3 49.15 27.7 50.85 28.05 52.1 28.9 53.4 29.75 54.15 31.2
M 45 31.95
L 41.45 31.95 41.45 37.55 44.65 37.55
Q 45.4 37.55 46.2 37.5 47 37.45 47.7 37.2 48.35 36.95 48.8 36.4 49.2 35.85 49.2 34.8 49.2 33.85 48.85 33.3 48.45 32.75 47.85 32.45 47.25 32.15 46.5 32.05 45.75 31.95 45 31.95 Z"/>

<path fill="#9A9A9A" stroke="none" d="
M 54.9 34.85
Q 54.9 32.65 54.15 31.2 53.4 29.75 52.1 28.9 50.85 28.05 49.15 27.7 47.45 27.3 45.55 27.3
L 36 27.3 36 52.1 41.45 52.1 41.45 42.2 44.1 42.2 49.3 52.1 55.85 52.1 49.55 41.6
Q 52.15 41.15 53.55 39.3 54.9 37.45 54.9 34.85
M 41.45 31.95
L 45 31.95
Q 45.75 31.95 46.5 32.05 47.25 32.15 47.85 32.45 48.45 32.75 48.85 33.3 49.2 33.85 49.2 34.8 49.2 35.85 48.8 36.4 48.35 36.95 47.7 37.2 47 37.45 46.2 37.5 45.4 37.55 44.65 37.55
L 41.45 37.55 41.45 31.95 Z"/>
</g>

<path id="Layer1_0_1_STROKES" stroke="#404040" stroke-width="5" stroke-linejoin="round" stroke-linecap="round" fill="none" d="
M 81.55 16.25
Q 84.85 18.2 85.05 21.85 82.85 50.95 88.8 78.1 87.3 87.95 78.85 87.7
L 28.5 87.7
Q 18.2 86.45 11.25 77.8
L 13.45 24.85
Q 18.55 14.1 28.5 12.35
L 81.55 16.25 Z"/>

<path id="Layer1_0_2_STROKES" stroke="#FFFFFF" stroke-width="4" stroke-linejoin="round" stroke-linecap="round" fill="none" d="
M 34.35 20.8
Q 30.55 21.5 30.05 24.55 28.15 46.75 29.55 68.95 31.25 73.65 36.05 75.05 56.65 76.6 76.15 75.5 80.65 74.55 81.2 70.45 76.75 51.8 78 23.7
L 34.35 20.8 Z"/>

</defs>

<g transform="matrix( 1, 0, 0, 1, 0,0) ">
<use xlink:href="#Layer1_0_FILL"/>

<use xlink:href="#Layer1_0_1_STROKES"/>

<use xlink:href="#Layer1_0_2_STROKES"/>
</g>

<g transform="matrix( 1, 0, 0, 1, -3.4,-28) ">
<clipPath id="Mask_Mask_1">
<rect x="13.8" y="-2" width="79.2" height="20.8" fill="#FFFFFF" stroke="none"/>
</clipPath>

<text clip-path="url(#Mask_Mask_1)" writing-mode="lr"><tspan x="15.9" y="13.6" baseline-shift="0%" kerning="auto" font-family="Arial_Regular" font-size="15" fill="#999999" xml:space="preserve">Wii &amp; Wii U</tspan></text>
</g>
</svg>
