
<svg xmlns="http://www.w3.org/2000/svg" version="1.1" xmlns:xlink="http://www.w3.org/1999/xlink" x="0px" y="0px" viewBox="0 0 100 100">
<defs>
<g id="Layer1_0_FILL">
<path fill="#404040" stroke="none" d="
M 96.45 38.2
Q 93.4 25.7 83.7 16.05 83.6 15.95 83.6 15.85 69.75 2.3 50.05 2.3 30.15 2.3 16.05 16.05 2.2 30.1 2.2 50 2.2 69.75 16.05 83.7 16.1 83.75 16.2 83.9 30.25 97.75 50.05 97.75 69.8 97.75 83.7 83.75 83.7 83.7 83.8 83.65
L 83.9 83.65
Q 96.8 70.65 97.75 52.75 97.8 51.4 97.8 50 97.8 43.85 96.45 38.2
M 92.45 50
Q 92.45 51.4 92.4 52.75 91.45 68.55 80 80.05 67.6 92.4 50.05 92.4 32.45 92.4 19.95 80.05 7.55 67.55 7.55 50 7.55 32.5 19.85 20.1 19.85 19.9 19.95 19.9 32.45 7.5 50.05 7.5 67.6 7.5 80 19.9 88.05 28 90.95 38.2 92.45 43.75 92.45 50
M 88.65 52.25
Q 88.7 51.15 88.7 50 88.7 45 87.6 40.45 85.15 30.35 77.3 22.55 77.2 22.45 77.2 22.35 66 11.35 50 11.35 33.9 11.35 22.5 22.55 11.25 33.9 11.25 50 11.25 66.05 22.5 77.35 22.55 77.4 22.6 77.5 34 88.7 50 88.7 66.05 88.7 77.3 77.4 77.3 77.35 77.4 77.3
L 77.45 77.3
Q 87.9 66.75 88.65 52.25
M 84.4 50
Q 84.4 51.15 84.35 52.25 83.6 65.05 74.25 74.35 64.25 84.4 50 84.4 35.75 84.4 25.65 74.35 15.55 64.25 15.55 50 15.55 35.85 25.55 25.8 25.55 25.65 25.65 25.65 35.75 15.55 50 15.55 64.25 15.55 74.25 25.65 80.8 32.2 83.15 40.45 84.4 44.95 84.4 50 Z"/>

<path fill="#5D5D5D" stroke="none" d="
M 92.4 52.75
Q 92.45 51.4 92.45 50 92.45 43.75 90.95 38.2 88.05 28 80 19.9 67.6 7.5 50.05 7.5 32.45 7.5 19.95 19.9 19.85 19.9 19.85 20.1 7.55 32.5 7.55 50 7.55 67.55 19.95 80.05 32.45 92.4 50.05 92.4 67.6 92.4 80 80.05 91.45 68.55 92.4 52.75
M 88.7 50
Q 88.7 51.15 88.65 52.25 87.9 66.75 77.45 77.3
L 77.4 77.3
Q 77.3 77.35 77.3 77.4 66.05 88.7 50 88.7 34 88.7 22.6 77.5 22.55 77.4 22.5 77.35 11.25 66.05 11.25 50 11.25 33.9 22.5 22.55 33.9 11.35 50 11.35 66 11.35 77.2 22.35 77.2 22.45 77.3 22.55 85.15 30.35 87.6 40.45 88.7 45 88.7 50 Z"/>

<path fill="#D7D7D7" stroke="none" d="
M 84.35 52.25
Q 84.4 51.15 84.4 50 84.4 44.95 83.15 40.45 80.8 32.2 74.25 25.65 64.25 15.55 50 15.55 35.75 15.55 25.65 25.65 25.55 25.65 25.55 25.8 15.55 35.85 15.55 50 15.55 64.25 25.65 74.35 35.75 84.4 50 84.4 64.25 84.4 74.25 74.35 83.6 65.05 84.35 52.25
M 70.25 30
Q 74.9 34.7 76.9 40.45 78.45 44.9 78.45 50 78.45 51.15 78.4 52.25 77.65 62.55 70.15 70.15 61.8 78.45 50 78.45 38.3 78.45 30 70.25 29.95 70.15 29.9 70.1 21.6 61.7 21.6 50 21.6 38.2 29.9 29.9 38.2 21.6 50 21.6 61.7 21.6 70.1 29.9 70.15 29.95 70.25 30 Z"/>

<path fill="#FFFFFF" stroke="none" d="
M 76.9 40.45
Q 74.9 34.7 70.25 30 70.15 29.95 70.1 29.9 61.7 21.6 50 21.6 38.2 21.6 29.9 29.9 21.6 38.2 21.6 50 21.6 61.7 29.9 70.1 29.95 70.15 30 70.25 38.3 78.45 50 78.45 61.8 78.45 70.15 70.15 77.65 62.55 78.4 52.25 78.45 51.15 78.45 50 78.45 44.9 76.9 40.45
M 67.75 32.3
Q 71.45 36 73.25 40.45 75 44.85 75 50 75 51.15 74.95 52.25 74.2 61.2 67.75 67.75 60.35 75 50 75 39.6 75 32.3 67.75 24.95 60.35 24.95 50 24.95 39.6 32.25 32.3
L 32.3 32.25
Q 39.6 24.95 50 24.95 60.35 24.95 67.75 32.3 Z"/>

<path fill="#F5F5F5" stroke="none" d="
M 73.25 40.45
Q 71.45 36 67.75 32.3 60.35 24.95 50 24.95 39.6 24.95 32.3 32.25
L 32.25 32.3
Q 24.95 39.6 24.95 50 24.95 60.35 32.3 67.75 39.6 75 50 75 60.35 75 67.75 67.75 74.2 61.2 74.95 52.25 75 51.15 75 50 75 44.85 73.25 40.45
M 43.35 38.35
L 48.8 38.35 48.8 58.1 58.9 58.1 58.9 63.15 43.35 63.15 43.35 38.35 Z"/>

<path fill="#9A9A9A" stroke="none" d="
M 48.8 38.35
L 43.35 38.35 43.35 63.15 58.9 63.15 58.9 58.1 48.8 58.1 48.8 38.35 Z"/>
</g>

</defs>

<g transform="matrix( 1, 0, 0, 1, 0,0) ">
<use xlink:href="#Layer1_0_FILL"/>
</g>

<g transform="matrix( 1, 0, 0, 1, -3.4,-28) ">
<clipPath id="Mask_Mask_1">
<rect x="13.8" y="-2" width="79.2" height="20.8" fill="#FFFFFF" stroke="none"/>
</clipPath>

<text clip-path="url(#Mask_Mask_1)" writing-mode="lr"><tspan x="15.9" y="13.6" baseline-shift="0%" kerning="auto" font-family="Arial_Regular" font-size="15" fill="#999999" xml:space="preserve">Wii &amp; Wii U</tspan></text>
</g>
</svg>
