
<svg xmlns="http://www.w3.org/2000/svg" version="1.1" xmlns:xlink="http://www.w3.org/1999/xlink" x="0px" y="0px" viewBox="0 0 100 100">
<defs>
<g id="Layer1_0_FILL">
<path fill="#D7D7D7" stroke="none" d="
M 91.5 42.8
Q 91.3 39 88.25 38.05 81.4443359375 36.6619140625 75.2 35.5 74.47109375 35.3806640625 73.75 35.25 71.6 34.85 69.55 34.5 63.471875 33.39921875 58 32.5 40.11015625 29.6009765625 28.7 28.95 8.8 27.75 8.5 39.45
L 8.5 59.15
Q 9.1 70.95 22.2 71.2
L 88.25 70.05
Q 91.3 69.45 91.5 65.65
L 91.5 42.8
M 84 44.85
L 84 62.65 22.2 63.7
Q 16.55 63.55 16 58.8
L 16 39.45
Q 16.05 38.2 17.15 37.65 20.9 36 28.25 36.45 39.7513671875 37.10390625 58 40.1 63.471484375 40.9927734375 69.55 42.1 71.6 42.5 73.75 42.9 74.47109375 43.0310546875 75.2 43.15 79.4720703125 43.9529296875 84 44.85 Z"/>

<path fill="#F5F5F5" stroke="none" d="
M 84 62.65
L 84 44.85
Q 79.4720703125 43.9529296875 75.2 43.15 74.47109375 43.0310546875 73.75 42.9 71.6 42.5 69.55 42.1 63.471484375 40.9927734375 58 40.1 39.7513671875 37.10390625 28.25 36.45 20.9 36 17.15 37.65 16.05 38.2 16 39.45
L 16 58.8
Q 16.55 63.55 22.2 63.7
L 84 62.65
M 32.95 42.65
L 32.95 45.55 25.55 54.5 33.2 54.5 33.2 57.5 21.45 57.5 21.45 54.5 28.95 45.55 21.7 45.55 21.7 42.65 32.95 42.65
M 35.6 42.65
L 38.85 42.65 38.85 54.5 44.95 54.5 44.95 57.5 35.6 57.5 35.6 42.65 Z"/>

<path fill="#999999" stroke="none" d="
M 38.85 42.65
L 35.6 42.65 35.6 57.5 44.95 57.5 44.95 54.5 38.85 54.5 38.85 42.65
M 32.95 45.55
L 32.95 42.65 21.7 42.65 21.7 45.55 28.95 45.55 21.45 54.5 21.45 57.5 33.2 57.5 33.2 54.5 25.55 54.5 32.95 45.55 Z"/>
</g>

<path id="Layer1_0_1_STROKES" stroke="#FFFFFF" stroke-width="4" stroke-linejoin="round" stroke-linecap="round" fill="none" d="
M 84 62.65
L 84 44.85
Q 79.4720703125 43.9529296875 75.2 43.175 74.47109375 43.0310546875 73.75 42.9 71.6 42.5 69.55 42.1 63.471484375 40.9927734375 58 40.1 39.7513671875 37.10390625 28.25 36.45 20.9 36 17.15 37.65 16.05 38.2 16 39.45
L 16 58.8
Q 16.55 63.55 22.2 63.7
L 84 62.65 Z"/>

<path id="Layer1_0_2_STROKES" stroke="#404040" stroke-width="4" stroke-linejoin="round" stroke-linecap="round" fill="none" d="
M 88.25 38.05
Q 91.3 39 91.5 42.8
L 91.5 65.65
Q 91.3 69.45 88.25 70.05
L 22.2 71.2
Q 9.1 70.95 8.5 59.15
L 8.5 39.45
Q 8.8 27.75 28.7 28.95 40.11015625 29.6009765625 58 32.5 63.471875 33.39921875 69.55 34.5 71.6 34.85 73.75 35.25 74.47109375 35.3806640625 75.2 35.525 81.4443359375 36.6619140625 88.25 38.05 Z"/>

</defs>

<g transform="matrix( 1, 0, 0, 1, 0,0) ">
<use xlink:href="#Layer1_0_FILL"/>

<use xlink:href="#Layer1_0_1_STROKES"/>

<use xlink:href="#Layer1_0_2_STROKES"/>
</g>

<g transform="matrix( 1, 0, 0, 1, -3.4,-28) ">
<clipPath id="Mask_Mask_1">
<rect x="13.8" y="-2" width="79.2" height="20.8" fill="#FFFFFF" stroke="none"/>
</clipPath>

<text clip-path="url(#Mask_Mask_1)" writing-mode="lr"><tspan x="15.9" y="13.6" baseline-shift="0%" kerning="auto" font-family="Arial_Regular" font-size="15" fill="#999999" xml:space="preserve">Wii &amp; Wii U</tspan></text>
</g>
</svg>
