
<svg xmlns="http://www.w3.org/2000/svg" version="1.1" xmlns:xlink="http://www.w3.org/1999/xlink" x="0px" y="0px" viewBox="0 0 100 100">
<defs>
<g id="Layer1_0_FILL">
<path fill="#D7D7D7" stroke="none" d="
M 85.6 80.1
Q 89.6365234375 74.7375 87.2 68.85
L 80.15 60.2
Q 73 50.25 68.75 39 64.5 27.75 64.6 15.55 63.3 10.55 58.85 10.7 40.75 11.95 19.85 18.25 16.553515625 19.25078125 14.1 30.75 11.6888671875 42.2970703125 14.05 62.3 15.1638671875 66.055859375 17.45 69.2
L 31.65 84.55
Q 37.05 89.65 42.4 89.3 65.0587890625 87.423828125 85.6 80.1
M 57.85 17.75
Q 57.95 26.65 61.15 36.05 64.35 45.4 69.1 54.2 72.3 60.1 79.25 68.35 81.3 70.8 80.05 72.7 68.25 77.6 53.65 79.35 48 79.1 44.75 74.4 39.65 68 36.35 61.55 27.3 44.2 27.35 24.35 41.75 18.8 57.85 17.75 Z"/>

<path fill="#F5F5F5" stroke="none" d="
M 61.15 36.05
Q 57.95 26.65 57.85 17.75 41.75 18.8 27.35 24.35 27.3 44.2 36.35 61.55 39.65 68 44.75 74.4 48 79.1 53.65 79.35 68.25 77.6 80.05 72.7 81.3 70.8 79.25 68.35 72.3 60.1 69.1 54.2 64.35 45.4 61.15 36.05
M 45.9 37
Q 47.4 36.8 49.05 36.8 50.7 36.85 52.15 37.3 53.65 37.85 54.85 38.95 56.1 40.1 56.85 42.15 57.6 44.25 57 45.75 56.4 47.3 54.8 48.15
L 54.8 48.2
Q 56.05 48.25 57.15 48.6 58.3 49 59.25 49.7 60.25 50.35 61 51.35 61.7 52.35 62.15 53.55 62.85 55.5 62.6 56.95 62.25 58.35 61.35 59.35 60.35 60.3 58.9 60.9 57.45 61.45 55.9 61.65
L 46.25 63
Q 39.5775390625 50.7908203125 37.1 38.2
L 45.9 37
M 56.95 55.05
Q 57.05 54.45 56.8 53.65 56.45 52.75 55.85 52.25 55.2 51.75 54.45 51.6 53.75 51.4 53 51.4 52.2 51.4 51.5 51.5
L 47 52.05
Q 47.7419921875 54.875 49.75 57.7
L 54.4 57.05
Q 55 56.95 55.5 56.7 56.1 56.5 56.5 56.05 56.8 55.65 56.95 55.05
M 44 42.15
Q 43.8423828125 44.85 45.1 47.55
L 49.7 46.9
Q 50.35 46.85 50.85 46.6 51.35 46.35 51.75 46 52.05 45.65 52.15 45.05 52.25 44.45 52 43.75 51.65 42.95 51.2 42.5 50.7 42.05 50.05 41.8 49.45 41.6 48.8 41.6 48.1 41.55 47.5 41.65
L 44 42.15 Z"/>

<path fill="#9A9A9A" stroke="none" d="
M 49.05 36.8
Q 47.4 36.8 45.9 37
L 37.1 38.2
Q 39.5775390625 50.7908203125 46.25 63
L 55.9 61.65
Q 57.45 61.45 58.9 60.9 60.35 60.3 61.35 59.35 62.25 58.35 62.6 56.95 62.85 55.5 62.15 53.55 61.7 52.35 61 51.35 60.25 50.35 59.25 49.7 58.3 49 57.15 48.6 56.05 48.25 54.8 48.2
L 54.8 48.15
Q 56.4 47.3 57 45.75 57.6 44.25 56.85 42.15 56.1 40.1 54.85 38.95 53.65 37.85 52.15 37.3 50.7 36.85 49.05 36.8
M 45.1 47.55
Q 43.8423828125 44.85 44 42.15
L 47.5 41.65
Q 48.1 41.55 48.8 41.6 49.45 41.6 50.05 41.8 50.7 42.05 51.2 42.5 51.65 42.95 52 43.75 52.25 44.45 52.15 45.05 52.05 45.65 51.75 46 51.35 46.35 50.85 46.6 50.35 46.85 49.7 46.9
L 45.1 47.55
M 56.8 53.65
Q 57.05 54.45 56.95 55.05 56.8 55.65 56.5 56.05 56.1 56.5 55.5 56.7 55 56.95 54.4 57.05
L 49.75 57.7
Q 47.7419921875 54.875 47 52.05
L 51.5 51.5
Q 52.2 51.4 53 51.4 53.75 51.4 54.45 51.6 55.2 51.75 55.85 52.25 56.45 52.75 56.8 53.65 Z"/>
</g>

<path id="Layer1_0_1_STROKES" stroke="#FFFFFF" stroke-width="4" stroke-linejoin="round" stroke-linecap="round" fill="none" d="
M 57.85 17.75
Q 57.95 26.65 61.15 36.05 64.35 45.4 69.1 54.2 72.3 60.1 79.25 68.35 81.3 70.8 80.05 72.7 68.25 77.6 53.65 79.35 48 79.1 44.75 74.4 39.65 68 36.35 61.55 27.3 44.2 27.35 24.35 41.75 18.8 57.85 17.75 Z"/>

<path id="Layer1_0_2_STROKES" stroke="#404040" stroke-width="5" stroke-linejoin="round" stroke-linecap="round" fill="none" d="
M 87.2 68.85
Q 89.6365234375 74.7375 85.6 80.1 65.0587890625 87.423828125 42.4 89.3 37.05 89.65 31.65 84.55
L 17.45 69.2
Q 15.1638671875 66.055859375 14.05 62.325 11.6888671875 42.2970703125 14.125 30.775 16.553515625 19.25078125 19.85 18.25 40.75 11.95 58.85 10.7 63.3 10.55 64.6 15.55 64.5 27.75 68.75 39 73 50.25 80.15 60.2
L 87.2 68.85 Z"/>

</defs>

<g transform="matrix( 1, 0, 0, 1, 0,0) ">
<use xlink:href="#Layer1_0_FILL"/>

<use xlink:href="#Layer1_0_1_STROKES"/>

<use xlink:href="#Layer1_0_2_STROKES"/>
</g>

<g transform="matrix( 1, 0, 0, 1, -3.4,-28) ">
<clipPath id="Mask_Mask_1">
<rect x="13.8" y="-2" width="79.2" height="20.8" fill="#FFFFFF" stroke="none"/>
</clipPath>

<text clip-path="url(#Mask_Mask_1)" writing-mode="lr"><tspan x="15.9" y="13.6" baseline-shift="0%" kerning="auto" font-family="Arial_Regular" font-size="15" fill="#999999" xml:space="preserve">Wii &amp; Wii U</tspan></text>
</g>
</svg>
