
<svg xmlns="http://www.w3.org/2000/svg" version="1.1" xmlns:xlink="http://www.w3.org/1999/xlink" x="0px" y="0px" viewBox="0 0 100 100">
<defs>
<g id="Layer1_0_FILL">
<path fill="#5D5D5D" stroke="none" d="
M 81.95 81.85
L 95.15 49.95 81.9 18.05 50 4.9 18.15 18.1 4.9 50 18.15 81.9 50.05 95.1 81.95 81.85
M 74.25 25.3
Q 74.25 25.4 74.35 25.45 84.55 35.65 84.55 50 84.55 64.25 74.5 74.4
L 74.45 74.4
Q 74.4 74.45 74.35 74.45 64.3 84.55 50 84.55 35.7 84.55 25.5 74.55
L 25.45 74.45
Q 15.4 64.3 15.4 50 15.4 35.65 25.45 25.45 35.65 15.45 50 15.45 64.25 15.45 74.25 25.3 Z"/>

<path fill="#404040" stroke="none" d="
M 74.35 25.45
Q 74.25 25.4 74.25 25.3 64.25 15.45 50 15.45 35.65 15.45 25.45 25.45 15.4 35.65 15.4 50 15.4 64.3 25.45 74.45
L 25.5 74.55
Q 35.7 84.55 50 84.55 64.3 84.55 74.35 74.45 74.4 74.45 74.45 74.4
L 74.5 74.4
Q 84.55 64.25 84.55 50 84.55 35.65 74.35 25.45
M 50 19.25
Q 62.7 19.25 71.65 28.25 80.7 37.3 80.7 50 80.7 62.7 71.65 71.75 62.7 80.7 50 80.7 37.3 80.7 28.25 71.75 19.25 62.7 19.25 50 19.25 37.35 28.15 28.4 28.15 28.25 28.25 28.25 37.3 19.25 50 19.25 Z"/>

<path fill="#D7D7D7" stroke="none" d="
M 71.65 28.25
Q 62.7 19.25 50 19.25 37.3 19.25 28.25 28.25 28.15 28.25 28.15 28.4 19.25 37.35 19.25 50 19.25 62.7 28.25 71.75 37.3 80.7 50 80.7 62.7 80.7 71.65 71.75 80.7 62.7 80.7 50 80.7 37.3 71.65 28.25
M 66.8 33.2
Q 66.8 33.25 66.9 33.25 73.8 40.2 73.8 50 73.8 59.85 66.8 66.8 59.85 73.8 50 73.8 40.2 73.8 33.25 66.9 33.25 66.8 33.2 66.8 26.25 59.8 26.25 50 26.25 40.1 33.2 33.2 40.1 26.25 50 26.25 59.8 26.25 66.8 33.2 Z"/>

<path fill="#FFFFFF" stroke="none" d="
M 66.9 33.25
Q 66.8 33.25 66.8 33.2 59.8 26.25 50 26.25 40.1 26.25 33.2 33.2 26.25 40.1 26.25 50 26.25 59.8 33.2 66.8 33.25 66.8 33.25 66.9 40.2 73.8 50 73.8 59.85 73.8 66.8 66.8 73.8 59.85 73.8 50 73.8 40.2 66.9 33.25
M 50 29
Q 58.65 29 64.85 35.2 70.95 41.3 70.95 50 70.95 58.65 64.85 64.85 58.65 70.95 50 70.95 41.3 70.95 35.2 64.85 29 58.65 29 50 29 41.3 35.15 35.2
L 35.2 35.15
Q 41.3 29 50 29 Z"/>

<path fill="#F5F5F5" stroke="none" d="
M 64.85 35.2
Q 58.65 29 50 29 41.3 29 35.2 35.15
L 35.15 35.2
Q 29 41.3 29 50 29 58.65 35.2 64.85 41.3 70.95 50 70.95 58.65 70.95 64.85 64.85 70.95 58.65 70.95 50 70.95 41.3 64.85 35.2 Z"/>
</g>

<path id="Layer1_0_1_STROKES" stroke="#404040" stroke-width="5" stroke-linejoin="round" stroke-linecap="round" fill="none" d="
M 95.15 49.95
L 81.95 81.85 50.05 95.1 18.15 81.9 4.9 50 18.15 18.1 50 4.9 81.9 18.05 95.15 49.95 Z"/>

</defs>

<g transform="matrix( 1, 0, 0, 1, 0,0) ">
<use xlink:href="#Layer1_0_FILL"/>

<use xlink:href="#Layer1_0_1_STROKES"/>
</g>

<g transform="matrix( 1, 0, 0, 1, -3.4,-28) ">
<clipPath id="Mask_Mask_1">
<rect x="13.8" y="-2" width="79.2" height="20.8" fill="#FFFFFF" stroke="none"/>
</clipPath>

<text clip-path="url(#Mask_Mask_1)" writing-mode="lr"><tspan x="15.9" y="13.6" baseline-shift="0%" kerning="auto" font-family="Arial_Regular" font-size="15" fill="#999999" xml:space="preserve">Wii &amp; Wii U</tspan></text>
</g>
</svg>
