
<svg xmlns="http://www.w3.org/2000/svg" version="1.1" xmlns:xlink="http://www.w3.org/1999/xlink" x="0px" y="0px" viewBox="0 0 100 100">
<defs>
<g id="Layer1_0_FILL">
<path fill="#D7D7D7" stroke="none" d="
M 79.9 24.4
Q 64.95 25.7 50 25.85 35 25.7 20.05 24.4 16.05 25.25 15.5 28.25
L 19.3 69.9
Q 19.95 72.2 23.1 73.45 34.45 75.6 50 75.55 65.6 75.6 76.9 73.45 80.05 72.2 80.7 69.9
L 84.5 28.25
Q 83.95 25.25 79.9 24.4
M 49.95 32.85
Q 50 32.85 50.1 32.85 63.6 32.7 77.15 31.7
L 73.95 66.9
Q 63.7 68.6 50.05 68.55
L 50 68.55
Q 36.3 68.6 26.1 66.9
L 22.85 31.7
Q 36.35 32.7 49.95 32.85 Z"/>

<path fill="#F5F5F5" stroke="none" d="
M 50.1 32.85
Q 50 32.85 49.95 32.85 36.35 32.7 22.85 31.7
L 26.1 66.9
Q 36.3 68.6 50 68.55
L 50.05 68.55
Q 63.7 68.6 73.95 66.9
L 77.15 31.7
Q 63.6 32.7 50.1 32.85
M 56.55 40.85
L 56.55 44.8 46.45 57 56.9 57 56.9 61.1 40.85 61.1 40.85 57 51.15 44.8 41.2 44.8 41.2 40.85 56.55 40.85 Z"/>

<path fill="#9A9A9A" stroke="none" d="
M 56.55 44.8
L 56.55 40.85 41.2 40.85 41.2 44.8 51.15 44.8 40.85 57 40.85 61.1 56.9 61.1 56.9 57 46.45 57 56.55 44.8 Z"/>
</g>

<path id="Layer1_0_1_STROKES" stroke="#FFFFFF" stroke-width="4" stroke-linejoin="round" stroke-linecap="round" fill="none" d="
M 50.1 32.85
Q 63.6 32.7 77.15 31.7
L 73.95 66.9
Q 63.7 68.6 50.05 68.55
L 50 68.55
Q 36.3 68.6 26.1 66.9
L 22.85 31.7
Q 36.35 32.7 49.95 32.85 50 32.85 50.1 32.85 Z"/>

<path id="Layer1_0_2_STROKES" stroke="#404040" stroke-width="5" stroke-linejoin="round" stroke-linecap="round" fill="none" d="
M 50 25.85
Q 64.95 25.7 79.9 24.4 83.95 25.25 84.5 28.25
L 80.7 69.9
Q 80.05 72.2 76.9 73.45 65.6 75.6 50 75.55 34.45 75.6 23.1 73.45 19.95 72.2 19.3 69.9
L 15.5 28.25
Q 16.05 25.25 20.05 24.4 35 25.7 50 25.85 Z"/>

</defs>

<g transform="matrix( 1, 0, 0, 1, 0,0) ">
<use xlink:href="#Layer1_0_FILL"/>

<use xlink:href="#Layer1_0_1_STROKES"/>

<use xlink:href="#Layer1_0_2_STROKES"/>
</g>

<g transform="matrix( 1, 0, 0, 1, -3.4,-28) ">
<clipPath id="Mask_Mask_1">
<rect x="13.8" y="-2" width="79.2" height="20.8" fill="#FFFFFF" stroke="none"/>
</clipPath>

<text clip-path="url(#Mask_Mask_1)" writing-mode="lr"><tspan x="15.9" y="13.6" baseline-shift="0%" kerning="auto" font-family="Arial_Regular" font-size="15" fill="#999999" xml:space="preserve">Wii &amp; Wii U</tspan></text>
</g>
</svg>
