
<svg xmlns="http://www.w3.org/2000/svg" version="1.1" xmlns:xlink="http://www.w3.org/1999/xlink" x="0px" y="0px" viewBox="0 0 100 100">
<defs>
<g id="Layer1_0_FILL">
<path fill="#404040" stroke="none" d="
M 73.95 25.95
Q 64.1 16.1 50 16.1 35.9 16.1 25.9 25.95 16.05 35.9 16.05 50 16.05 64.05 25.9 73.95
L 25.9 74
Q 35.9 83.9 50 83.9 64.05 83.9 73.9 74
L 73.95 73.95
Q 83.9 64.05 83.9 50 83.9 35.9 73.9 25.95
L 73.95 25.95
M 50 20.6
Q 62.15 20.6 70.75 29.2 79.4 37.8 79.4 50 79.4 62.15 70.75 70.8 62.15 79.4 50 79.4 37.8 79.4 29.15 70.8 20.6 62.15 20.6 50 20.6 37.8 29.15 29.2
L 29.15 29.15
Q 37.8 20.6 50 20.6 Z"/>

<path fill="#D7D7D7" stroke="none" d="
M 70.75 29.2
Q 62.15 20.6 50 20.6 37.8 20.6 29.15 29.15
L 29.15 29.2
Q 20.6 37.8 20.6 50 20.6 62.15 29.15 70.8 37.8 79.4 50 79.4 62.15 79.4 70.75 70.8 79.4 62.15 79.4 50 79.4 37.8 70.75 29.2
M 50 25
Q 60.3 25 67.65 32.3
L 67.7 32.3
Q 75 39.6 75 50 75 60.35 67.7 67.7 60.35 75 50 75 39.6 75 32.3 67.7
L 32.3 67.65
Q 25 60.3 25 50 25 39.6 32.3 32.3 39.6 25 50 25 Z"/>

<path fill="#FFFFFF" stroke="none" d="
M 67.65 32.3
Q 60.3 25 50 25 39.6 25 32.3 32.3 25 39.6 25 50 25 60.3 32.3 67.65
L 32.3 67.7
Q 39.6 75 50 75 60.35 75 67.7 67.7 75 60.35 75 50 75 39.6 67.7 32.3
L 67.65 32.3
M 50 28.7
Q 58.8 28.7 65.05 34.95 71.25 41.15 71.25 50 71.25 58.8 65.05 65.05 58.8 71.25 50 71.25 41.15 71.25 34.95 65.05 28.7 58.8 28.7 50 28.7 41.15 34.9 34.95
L 34.95 34.9
Q 41.15 28.7 50 28.7 Z"/>

<path fill="#F5F5F5" stroke="none" d="
M 65.05 34.95
Q 58.8 28.7 50 28.7 41.15 28.7 34.95 34.9
L 34.9 34.95
Q 28.7 41.15 28.7 50 28.7 58.8 34.95 65.05 41.15 71.25 50 71.25 58.8 71.25 65.05 65.05 71.25 58.8 71.25 50 71.25 41.15 65.05 34.95
M 40.15 62.9
L 40.15 50.1 33.9 50.1 50 34.65 66.1 50.1 59.85 50.1 59.85 62.9 40.15 62.9
M 54.4 48.4
L 45.55 48.4 45.55 57.2 54.4 57.2 54.4 48.4 Z"/>

<path fill="#4196F3" stroke="none" d="
M 40.15 50.1
L 40.15 62.9 59.85 62.9 59.85 50.1 66.1 50.1 50 34.65 33.9 50.1 40.15 50.1
M 45.55 48.4
L 54.4 48.4 54.4 57.2 45.55 57.2 45.55 48.4 Z"/>
</g>

</defs>

<g transform="matrix( 1, 0, 0, 1, 0,0) ">
<use xlink:href="#Layer1_0_FILL"/>
</g>

<g transform="matrix( 1, 0, 0, 1, -3.4,-28) ">
<clipPath id="Mask_Mask_1">
<rect x="13.8" y="-2" width="79.2" height="20.8" fill="#FFFFFF" stroke="none"/>
</clipPath>

<text clip-path="url(#Mask_Mask_1)" writing-mode="lr"><tspan x="15.9" y="13.6" baseline-shift="0%" kerning="auto" font-family="Arial_Regular" font-size="15" fill="#999999" xml:space="preserve">Wii &amp; Wii U</tspan></text>
</g>
</svg>
