<?xml version="1.0" encoding="utf-8"?>
<!-- Generator: Adobe Illustrator 24.1.2, SVG Export Plug-In . SVG Version: 6.00 Build 0)  -->
<svg version="1.1" id="Layer_1" xmlns="http://www.w3.org/2000/svg" xmlns:xlink="http://www.w3.org/1999/xlink" x="0px" y="0px"
	 viewBox="0 0 100 100" style="enable-background:new 0 0 100 100;" xml:space="preserve">
<style type="text/css">
	.st0{fill:#D7D7D7;}
	.st1{fill:#F5F5F5;}
	.st2{fill:#404040;}
	.st3{fill:none;stroke:#404040;stroke-width:5;stroke-linecap:round;stroke-linejoin:round;}
	.st4{fill:none;stroke:#FFFFFF;stroke-width:4;stroke-linecap:round;stroke-linejoin:round;}
</style>
<g transform="matrix( 1, 0, 0, 1, 0,0) ">
	<g>
		<g id="Layer1_0_FILL">
			<path class="st0" d="M71.8,92.3c-0.5-11.5-0.5-23.1,0-34.6c0-2.5-1.2-3.7-3.7-3.7H31.9c-2.5,0-3.7,1.2-3.7,3.7
				c0.5,11.5,0.5,23.1,0,34.6c0,2.5,1.2,3.7,3.7,3.7h36.2C70.6,96,71.8,94.8,71.8,92.3 M52.3,59.8h0.8h10.2c1.8,0,2.7,0.9,2.7,2.7
				c-0.5,8.4-0.5,16.7,0,25c0,1.8-0.9,2.7-2.7,2.7H53.1h-0.8H36.7c-1.8,0-2.7-0.9-2.7-2.7c0.5-8.3,0.5-16.7,0-25
				c0-1.8,0.9-2.7,2.7-2.7H52.3z"/>
			<path class="st1" d="M53.1,59.8h-0.8H36.7c-1.8,0-2.7,0.9-2.7,2.7c0.5,8.4,0.5,16.7,0,25c0,1.8,0.9,2.7,2.7,2.7h15.6h0.8h10.2
				c1.8,0,2.7-0.9,2.7-2.7c-0.5-8.3-0.5-16.7,0-25c0-1.8-0.9-2.7-2.7-2.7H53.1 M48.6,71c-0.3,0.4-0.5,0.8-0.6,1.4l-3.3-0.2
				c0-0.8,0.2-1.5,0.5-2.1s0.7-1.1,1.2-1.5c0.5-0.4,1.1-0.7,1.7-0.9c0.7-0.2,1.4-0.3,2.2-0.3c0.7,0,1.4,0.1,2,0.3
				c0.6,0.2,1.1,0.5,1.6,0.9c0.4,0.4,0.8,0.9,1.1,1.5c0.3,0.6,0.4,1.3,0.4,2.1c0,0.5-0.1,1-0.2,1.4c-0.1,0.4-0.2,0.8-0.4,1.1
				c-0.2,0.3-0.4,0.6-0.7,0.9c-0.3,0.3-0.5,0.6-0.8,0.8l-4.8,4.1h7v2.9H44.6v-3.5l6.1-5.5c0.3-0.3,0.6-0.6,0.9-0.9
				c0.3-0.4,0.5-0.8,0.5-1.2c0-0.5-0.2-1-0.6-1.3s-0.8-0.4-1.4-0.4C49.5,70.4,49,70.6,48.6,71z"/>
			<path class="st2" d="M48.1,72.4c0-0.5,0.2-1,0.6-1.4c0.4-0.4,0.8-0.6,1.5-0.6c0.5,0,1,0.1,1.4,0.4s0.6,0.7,0.6,1.3
				c0,0.5-0.2,0.9-0.5,1.2c-0.3,0.4-0.6,0.7-0.9,0.9l-6.1,5.5v3.5h10.9v-2.9h-7l4.8-4.1c0.3-0.3,0.6-0.5,0.8-0.8
				c0.3-0.3,0.5-0.6,0.7-0.9c0.2-0.3,0.3-0.7,0.4-1.1c0.1-0.4,0.2-0.9,0.2-1.4c0-0.8-0.1-1.5-0.4-2.1c-0.3-0.6-0.6-1.1-1.1-1.5
				c-0.5-0.4-1-0.7-1.6-0.9c-0.6-0.2-1.3-0.3-2-0.3c-0.8,0-1.5,0.1-2.2,0.3c-0.7,0.2-1.2,0.5-1.7,0.9c-0.5,0.4-0.9,0.9-1.2,1.5
				s-0.5,1.3-0.5,2.1L48.1,72.4z"/>
		</g>
	</g>
	<g>
		<path id="Layer1_0_1_STROKES" class="st3" d="M71.8,57.7c-0.5,11.5-0.5,23.1,0,34.6c0,2.5-1.2,3.7-3.7,3.7H31.9
			c-2.5,0-3.7-1.2-3.7-3.7c0.5-11.5,0.5-23.1,0-34.6c0-2.5,1.2-3.7,3.7-3.7h36.2C70.6,54,71.8,55.2,71.8,57.7z"/>
	</g>
	<g>
		<path id="Layer1_0_2_STROKES" class="st4" d="M52.3,59.8H36.7c-1.8,0-2.7,0.9-2.7,2.7c0.5,8.4,0.5,16.7,0,25
			c0,1.8,0.9,2.7,2.7,2.7h15.6 M53.1,90.2h10.2c1.8,0,2.7-0.9,2.7-2.7c-0.5-8.3-0.5-16.7,0-25c0-1.8-0.9-2.7-2.7-2.7H53.1"/>
	</g>
</g>
<g transform="matrix( 1, 0, 0, 1, 0,0) ">
	<g>
		<g id="Layer1_0_FILL_1_">
			<path class="st0" d="M71,41.7c-0.5-11.1-0.5-22.2,0-33.3c0-2.4-1.2-3.6-3.6-3.6H32.6C30.2,4.8,29,6,29,8.3
				c0.5,11.1,0.5,22.2,0,33.3c0,2.4,1.2,3.6,3.6,3.6h34.9C69.8,45.2,71,44,71,41.7 M52.2,10.4H53h9.8c1.7,0,2.6,0.9,2.6,2.6
				C65,21,65,29,65.4,37.1c0,1.7-0.9,2.6-2.6,2.6H53h-0.8H37.2c-1.7,0-2.6-0.9-2.6-2.6c0.5-8,0.5-16.1,0-24.1c0-1.7,0.9-2.6,2.6-2.6
				H52.2z"/>
			<path class="st1" d="M53,10.4h-0.8H37.2c-1.7,0-2.6,0.9-2.6,2.6c0.5,8,0.5,16.1,0,24.1c0,1.7,0.9,2.6,2.6,2.6h15.1H53h9.8
				c1.7,0,2.6-0.9,2.6-2.6C65,29,65,21,65.4,12.9c0-1.7-0.9-2.6-2.6-2.6H53 M48,17.9c0.6-0.2,1.3-0.2,2-0.2c0.7,0,1.3,0.1,2,0.2
				c0.6,0.2,1.1,0.4,1.6,0.8c0.4,0.3,0.8,0.8,1.1,1.3c0.3,0.5,0.4,1.1,0.4,1.8c0,0.8-0.2,1.5-0.7,2.1c-0.4,0.6-1.1,1-1.9,1.2v0.1
				c0.9,0.2,1.6,0.7,2.1,1.3c0.5,0.6,0.7,1.4,0.7,2.3c0,0.7-0.1,1.4-0.4,1.9c-0.3,0.6-0.7,1-1.2,1.4c-0.5,0.4-1,0.6-1.7,0.8
				c-0.7,0.2-1.3,0.3-2,0.3c-0.7,0-1.4-0.1-2-0.3c-0.6-0.2-1.2-0.5-1.7-0.8c-0.5-0.3-0.9-0.8-1.2-1.4c-0.3-0.5-0.4-1.2-0.4-1.9
				c0-0.9,0.2-1.7,0.7-2.3c0.5-0.6,1.2-1.1,2.1-1.3v-0.1c-0.8-0.2-1.4-0.7-1.9-1.2c-0.4-0.6-0.7-1.3-0.7-2.1c0-0.7,0.1-1.3,0.4-1.8
				c0.3-0.5,0.6-0.9,1.1-1.3C46.9,18.3,47.4,18.1,48,17.9 M51.6,29.8c0.4-0.4,0.6-0.8,0.6-1.3c0-0.5-0.2-1-0.6-1.4
				c-0.4-0.4-0.9-0.5-1.6-0.5c-0.6,0-1.1,0.2-1.5,0.5c-0.4,0.4-0.6,0.9-0.6,1.4c0,0.5,0.2,1,0.6,1.3c0.4,0.4,0.9,0.5,1.5,0.5
				C50.7,30.3,51.2,30.1,51.6,29.8 M48.7,23.4c0.3,0.3,0.8,0.5,1.3,0.5c0.5,0,1-0.2,1.3-0.5c0.3-0.3,0.5-0.7,0.5-1.2
				c0-0.4-0.2-0.8-0.5-1.2c-0.3-0.3-0.8-0.5-1.3-0.5c-0.5,0-1,0.2-1.3,0.5c-0.3,0.3-0.5,0.7-0.5,1.2C48.1,22.7,48.3,23.1,48.7,23.4z
				"/>
			<path class="st2" d="M50,17.6c-0.7,0-1.3,0.1-2,0.2c-0.6,0.2-1.1,0.4-1.6,0.8C46,19,45.6,19.4,45.3,20c-0.3,0.5-0.4,1.1-0.4,1.8
				c0,0.8,0.2,1.5,0.7,2.1c0.4,0.6,1.1,1,1.9,1.2v0.1c-0.9,0.2-1.6,0.7-2.1,1.3c-0.5,0.6-0.7,1.4-0.7,2.3c0,0.7,0.1,1.4,0.4,1.9
				c0.3,0.6,0.7,1,1.2,1.4c0.5,0.4,1,0.6,1.7,0.8c0.7,0.2,1.3,0.3,2,0.3c0.7,0,1.4-0.1,2-0.3c0.7-0.2,1.2-0.5,1.7-0.8
				c0.5-0.3,0.9-0.8,1.2-1.4c0.3-0.5,0.4-1.2,0.4-1.9c0-0.9-0.2-1.7-0.7-2.3c-0.5-0.6-1.2-1.1-2.1-1.3v-0.1c0.8-0.2,1.4-0.7,1.9-1.2
				c0.4-0.6,0.7-1.3,0.7-2.1c0-0.7-0.1-1.3-0.4-1.8c-0.3-0.5-0.7-0.9-1.1-1.3c-0.5-0.3-1-0.6-1.6-0.8C51.3,17.7,50.7,17.6,50,17.6
				 M50,23.9c-0.5,0-1-0.2-1.3-0.5c-0.3-0.3-0.5-0.7-0.5-1.2c0-0.4,0.2-0.8,0.5-1.2c0.3-0.3,0.8-0.5,1.3-0.5c0.5,0,1,0.2,1.3,0.5
				c0.3,0.3,0.5,0.7,0.5,1.2c0,0.5-0.2,0.9-0.5,1.2C51,23.8,50.5,23.9,50,23.9 M52.1,28.4c0,0.5-0.2,1-0.6,1.3
				c-0.4,0.4-0.9,0.5-1.6,0.5c-0.6,0-1.1-0.2-1.5-0.5c-0.4-0.4-0.6-0.8-0.6-1.3c0-0.5,0.2-1,0.6-1.4c0.4-0.4,0.9-0.5,1.5-0.5
				c0.7,0,1.2,0.2,1.6,0.5C51.9,27.4,52.1,27.9,52.1,28.4z"/>
		</g>
	</g>
	<g>
		<path id="Layer1_0_1_STROKES_1_" class="st3" d="M71,8.3c-0.5,11.1-0.5,22.2,0,33.3c0,2.4-1.2,3.6-3.6,3.6H32.6
			c-2.4,0-3.6-1.2-3.6-3.6c0.5-11.1,0.5-22.2,0-33.3c0-2.4,1.2-3.6,3.6-3.6h34.9C69.8,4.8,71,6,71,8.3z"/>
	</g>
	<g>
		<path id="Layer1_0_2_STROKES_1_" class="st4" d="M52.2,10.4H37.2c-1.7,0-2.6,0.9-2.6,2.6c0.5,8,0.5,16.1,0,24.1
			c0,1.7,0.9,2.6,2.6,2.6h15.1 M53,39.6h9.8c1.7,0,2.6-0.9,2.6-2.6C65,29,65,21,65.4,12.9c0-1.7-0.9-2.6-2.6-2.6H53"/>
	</g>
</g>
</svg>
