<?xml version="1.0" encoding="utf-8"?>
<!-- Generator: Adobe Illustrator 24.1.2, SVG Export Plug-In . SVG Version: 6.00 Build 0)  -->
<svg version="1.1" id="Layer_1" xmlns="http://www.w3.org/2000/svg" xmlns:xlink="http://www.w3.org/1999/xlink" x="0px" y="0px"
	 viewBox="0 0 100 100" style="enable-background:new 0 0 100 100;" xml:space="preserve">
<style type="text/css">
	.st0{fill:#D7D7D7;}
	.st1{fill:#F5F5F5;}
	.st2{fill:#404040;}
	.st3{fill:none;stroke:#404040;stroke-width:5;stroke-linecap:round;stroke-linejoin:round;}
	.st4{fill:none;stroke:#FFFFFF;stroke-width:4;stroke-linecap:round;stroke-linejoin:round;}
</style>
<g transform="matrix( 1, 0, 0, 1, 0,0) ">
	<g>
		<g id="Layer1_0_FILL">
			<path class="st0" d="M46,66.7c-0.5-11.1-0.5-22.2,0-33.3c0-2.4-1.2-3.6-3.6-3.6H7.6C5.2,29.8,4,31,4,33.3
				c0.5,11.1,0.5,22.2,0,33.3c0,2.4,1.2,3.6,3.6,3.6h34.9C44.8,70.2,46,69,46,66.7 M28,35.4h9.8c1.7,0,2.6,0.9,2.6,2.6
				C40,46,40,54,40.4,62.1c0,1.7-0.9,2.6-2.6,2.6H28h-0.8H12.2c-1.7,0-2.6-0.9-2.6-2.6C10,54,10,46,9.6,37.9c0-1.7,0.9-2.6,2.6-2.6
				h15.1H28z"/>
			<path class="st1" d="M37.8,35.4H28h-0.8H12.2c-1.7,0-2.6,0.9-2.6,2.6C10,46,10,54,9.6,62.1c0,1.7,0.9,2.6,2.6,2.6h15.1H28h9.8
				c1.7,0,2.6-0.9,2.6-2.6C40,54,40,46,40.4,37.9C40.4,36.2,39.6,35.4,37.8,35.4 M23.6,42.9h2.7L32.9,58h-3.8l-1.3-3.2H22L20.7,58
				H17L23.6,42.9 M23,52h3.7l-1.9-4.7L23,52z"/>
			<path class="st2" d="M26.3,42.9h-2.7L17,58h3.7l1.2-3.2h5.9l1.3,3.2h3.8L26.3,42.9 M26.7,52H23l1.9-4.7L26.7,52z"/>
		</g>
	</g>
	<g>
		<path id="Layer1_0_1_STROKES" class="st3" d="M46,33.3c-0.5,11.1-0.5,22.2,0,33.3c0,2.4-1.2,3.6-3.6,3.6H7.6C5.2,70.2,4,69,4,66.7
			c0.5-11.1,0.5-22.2,0-33.3c0-2.4,1.2-3.6,3.6-3.6h34.9C44.8,29.8,46,31,46,33.3z"/>
	</g>
	<g>
		<path id="Layer1_0_2_STROKES" class="st4" d="M28,64.6h9.8c1.7,0,2.6-0.9,2.6-2.6C40,54,40,46,40.4,37.9c0-1.7-0.9-2.6-2.6-2.6H28
			 M27.2,35.4H12.2c-1.7,0-2.6,0.9-2.6,2.6C10,46,10,54,9.6,62.1c0,1.7,0.9,2.6,2.6,2.6h15.1"/>
	</g>
</g>
<g transform="matrix( 1, 0, 0, 1, 0,0) ">
	<g>
		<g id="Layer1_0_FILL_1_">
			<path class="st0" d="M96,66.7c-0.5-11.1-0.5-22.2,0-33.3c0-2.4-1.2-3.6-3.6-3.6H57.6c-2.4,0-3.6,1.2-3.6,3.6
				c0.5,11.1,0.5,22.2,0,33.3c0,2.4,1.2,3.6,3.6,3.6h34.9C94.8,70.2,96,69,96,66.7 M77.2,35.4H78h9.8c1.7,0,2.6,0.9,2.6,2.6
				C90,46,90,54,90.4,62.1c0,1.7-0.9,2.6-2.6,2.6H78h-0.8H62.2c-1.7,0-2.6-0.9-2.6-2.6c0.5-8,0.5-16.1,0-24.1c0-1.7,0.9-2.6,2.6-2.6
				H77.2z"/>
			<path class="st1" d="M78,35.4h-0.8H62.2c-1.7,0-2.6,0.9-2.6,2.6c0.5,8,0.5,16.1,0,24.1c0,1.7,0.9,2.6,2.6,2.6h15.1H78h9.8
				c1.7,0,2.6-0.9,2.6-2.6C90,54,90,46,90.4,37.9c0-1.7-0.9-2.6-2.6-2.6H78 M73.4,42.9c1.2,0,2.4,0.1,3.4,0.4c1.1,0.3,2,0.7,2.8,1.3
				c0.8,0.6,1.5,1.4,2,2.3c0.5,1,0.7,2.2,0.7,3.5c0,1.2-0.2,2.3-0.7,3.2c-0.5,0.9-1.1,1.7-1.9,2.3c-0.8,0.6-1.7,1.1-2.7,1.4
				c-1,0.3-2.1,0.5-3.2,0.5h-5.4V42.9H73.4 M78.5,48.4c-0.3-0.5-0.7-1-1.1-1.4c-0.5-0.3-1-0.6-1.7-0.8c-0.6-0.2-1.3-0.3-2-0.3h-2v9
				h1.7c0.8,0,1.5-0.1,2.1-0.2c0.7-0.1,1.2-0.4,1.7-0.8c0.5-0.4,0.8-0.8,1.1-1.4s0.4-1.3,0.4-2.2C78.9,49.6,78.8,48.9,78.5,48.4z"/>
			<path class="st2" d="M76.9,43.3c-1.1-0.3-2.2-0.4-3.4-0.4h-5V58h5.4c1.1,0,2.2-0.2,3.2-0.5c1-0.3,1.9-0.8,2.7-1.4
				c0.8-0.6,1.4-1.4,1.9-2.3c0.4-0.9,0.7-2,0.7-3.2c0-1.4-0.2-2.6-0.7-3.5c-0.5-1-1.1-1.7-2-2.3C78.9,44,78,43.6,76.9,43.3 M77.4,47
				c0.4,0.4,0.8,0.8,1.1,1.4c0.3,0.5,0.4,1.2,0.4,1.9c0,0.9-0.1,1.6-0.4,2.2s-0.7,1.1-1.1,1.4c-0.5,0.4-1.1,0.6-1.7,0.8
				c-0.7,0.2-1.4,0.2-2.1,0.2h-1.7v-9h2c0.7,0,1.4,0.1,2,0.3C76.3,46.4,76.9,46.7,77.4,47z"/>
		</g>
	</g>
	<g>
		<path id="Layer1_0_1_STROKES_1_" class="st3" d="M96,33.3c-0.5,11.1-0.5,22.2,0,33.3c0,2.4-1.2,3.6-3.6,3.6H57.6
			c-2.4,0-3.6-1.2-3.6-3.6c0.5-11.1,0.5-22.2,0-33.3c0-2.4,1.2-3.6,3.6-3.6h34.9C94.8,29.8,96,31,96,33.3z"/>
	</g>
	<g>
		<path id="Layer1_0_2_STROKES_1_" class="st4" d="M77.2,35.4H62.2c-1.7,0-2.6,0.9-2.6,2.6c0.5,8,0.5,16.1,0,24.1
			c0,1.7,0.9,2.6,2.6,2.6h15.1 M78,64.6h9.8c1.7,0,2.6-0.9,2.6-2.6C90,54,90,46,90.4,37.9c0-1.7-0.9-2.6-2.6-2.6H78"/>
	</g>
</g>
</svg>
