<?xml version="1.0" encoding="utf-8"?>
<!-- Generator: Adobe Illustrator 24.1.2, SVG Export Plug-In . SVG Version: 6.00 Build 0)  -->
<svg version="1.1" id="Layer_1" xmlns="http://www.w3.org/2000/svg" xmlns:xlink="http://www.w3.org/1999/xlink" x="0px" y="0px"
	 viewBox="0 0 100 100" style="enable-background:new 0 0 100 100;" xml:space="preserve">
<style type="text/css">
	.st0{fill:#D7D7D7;}
	.st1{fill:#F5F5F5;}
	.st2{fill:#404040;}
	.st3{fill:none;stroke:#404040;stroke-width:5;stroke-linecap:round;stroke-linejoin:round;}
	.st4{fill:none;stroke:#FFFFFF;stroke-width:4;stroke-linecap:round;stroke-linejoin:round;}
</style>
<g transform="matrix( 1, 0, 0, 1, 0,0) ">
	<g>
		<g id="Layer1_0_FILL">
			<path class="st0" d="M46,66.7c-0.5-11.1-0.5-22.2,0-33.3c0-2.4-1.2-3.6-3.6-3.6H7.6C5.2,29.8,4,31,4,33.3
				c0.5,11.1,0.5,22.2,0,33.3c0,2.4,1.2,3.6,3.6,3.6h34.9C44.8,70.2,46,69,46,66.7 M28,35.4h9.8c1.7,0,2.6,0.9,2.6,2.6
				C40,46,40,54,40.4,62.1c0,1.7-0.9,2.6-2.6,2.6H28h-0.8H12.2c-1.7,0-2.6-0.9-2.6-2.6C10,54,10,46,9.6,37.9c0-1.7,0.9-2.6,2.6-2.6
				h15.1H28z"/>
			<path class="st1" d="M37.8,35.4H28h-0.8H12.2c-1.7,0-2.6,0.9-2.6,2.6C10,46,10,54,9.6,62.1c0,1.7,0.9,2.6,2.6,2.6h15.1H28h9.8
				c1.7,0,2.6-0.9,2.6-2.6C40,54,40,46,40.4,37.9C40.4,36.2,39.6,35.4,37.8,35.4 M31.4,54.1H18.6v-6.2h12.8V54.1z"/>
			<path class="st2" d="M18.6,54.1h12.8v-6.2H18.6V54.1z"/>
		</g>
	</g>
	<g>
		<path id="Layer1_0_1_STROKES" class="st3" d="M46,33.3c-0.5,11.1-0.5,22.2,0,33.3c0,2.4-1.2,3.6-3.6,3.6H7.6C5.2,70.2,4,69,4,66.7
			c0.5-11.1,0.5-22.2,0-33.3c0-2.4,1.2-3.6,3.6-3.6h34.9C44.8,29.8,46,31,46,33.3z"/>
	</g>
	<g>
		<path id="Layer1_0_2_STROKES" class="st4" d="M28,64.6h9.8c1.7,0,2.6-0.9,2.6-2.6C40,54,40,46,40.4,37.9c0-1.7-0.9-2.6-2.6-2.6H28
			 M27.2,35.4H12.2c-1.7,0-2.6,0.9-2.6,2.6C10,46,10,54,9.6,62.1c0,1.7,0.9,2.6,2.6,2.6h15.1"/>
	</g>
</g>
<g transform="matrix( 1, 0, 0, 1, 0,0) ">
	<g>
		<g id="Layer1_0_FILL_1_">
			<path class="st0" d="M96,66.7c-0.5-11.1-0.5-22.2,0-33.3c0-2.4-1.2-3.6-3.6-3.6H57.6c-2.4,0-3.6,1.2-3.6,3.6
				c0.5,11.1,0.5,22.2,0,33.3c0,2.4,1.2,3.6,3.6,3.6h34.9C94.8,70.2,96,69,96,66.7 M78,35.4h9.8c1.7,0,2.6,0.9,2.6,2.6
				C90,46,90,54,90.4,62.1c0,1.7-0.9,2.6-2.6,2.6H78h-0.8H62.2c-1.7,0-2.6-0.9-2.6-2.6c0.5-8,0.5-16.1,0-24.1c0-1.7,0.9-2.6,2.6-2.6
				h15.1H78z"/>
			<path class="st1" d="M87.8,35.4H78h-0.8H62.2c-1.7,0-2.6,0.9-2.6,2.6c0.5,8,0.5,16.1,0,24.1c0,1.7,0.9,2.6,2.6,2.6h15.1H78h9.8
				c1.7,0,2.6-0.9,2.6-2.6C90,54,90,46,90.4,37.9C90.4,36.2,89.6,35.4,87.8,35.4 M73,41.2h4v6.7h6.6v4H77v6.7h-4v-6.7h-6.7v-4H73
				V41.2z"/>
			<path class="st2" d="M77,41.2h-4v6.7h-6.7v4H73v6.7h4v-6.7h6.6v-4H77V41.2z"/>
		</g>
	</g>
	<g>
		<path id="Layer1_0_1_STROKES_1_" class="st3" d="M96,33.3c-0.5,11.1-0.5,22.2,0,33.3c0,2.4-1.2,3.6-3.6,3.6H57.6
			c-2.4,0-3.6-1.2-3.6-3.6c0.5-11.1,0.5-22.2,0-33.3c0-2.4,1.2-3.6,3.6-3.6h34.9C94.8,29.8,96,31,96,33.3z"/>
	</g>
	<g>
		<path id="Layer1_0_2_STROKES_1_" class="st4" d="M78,64.6h9.8c1.7,0,2.6-0.9,2.6-2.6C90,54,90,46,90.4,37.9c0-1.7-0.9-2.6-2.6-2.6
			H78 M77.2,35.4H62.2c-1.7,0-2.6,0.9-2.6,2.6c0.5,8,0.5,16.1,0,24.1c0,1.7,0.9,2.6,2.6,2.6h15.1"/>
	</g>
</g>
</svg>
