<?xml version="1.0" encoding="utf-8"?>
<!-- Generator: Adobe Illustrator 24.1.2, SVG Export Plug-In . SVG Version: 6.00 Build 0)  -->
<svg version="1.1" id="Layer_1" xmlns="http://www.w3.org/2000/svg" xmlns:xlink="http://www.w3.org/1999/xlink" x="0px" y="0px"
	 viewBox="0 0 100 100" style="enable-background:new 0 0 100 100;" xml:space="preserve">
<g transform="matrix( 1, 0, 0, 1, 0,0) ">
	<g>
		<g id="Layer1_0_FILL">
			<path style="fill:#D7D7D7;" d="M71,40.9c-0.5-11.1-0.5-22.2,0-33.3C71,5.2,69.8,4,67.4,4H32.6C30.2,4,29,5.2,29,7.6
				c0.5,11.1,0.5,22.2,0,33.3c0,2.4,1.2,3.6,3.6,3.6h34.9C69.8,44.4,71,43.3,71,40.9 M53,9.6h9.8c1.7,0,2.6,0.9,2.6,2.6
				c-0.5,8-0.5,16.1,0,24.1c0,1.7-0.9,2.6-2.6,2.6H53h-0.8h-15c-1.7,0-2.6-0.9-2.6-2.6c0.5-8,0.5-16.1,0-24.1c0-1.7,0.9-2.6,2.6-2.6
				h15.1C52.3,9.6,53,9.6,53,9.6z"/>
			<path style="fill:#F5F5F5;" d="M62.8,9.6H53h-0.8h-15c-1.7,0-2.6,0.9-2.6,2.6c0.5,8,0.5,16.1,0,24.1c0,1.7,0.9,2.6,2.6,2.6h15.1
				H53h9.8c1.7,0,2.6-0.9,2.6-2.6c-0.5-8-0.5-16.1,0-24.1C65.4,10.4,64.6,9.6,62.8,9.6 M53.4,33.7h-6.9v-9h-4l7.4-9.8l7.4,9.8h-4
				L53.4,33.7L53.4,33.7z"/>
			<path style="fill:#404040;" d="M46.6,33.7h6.9v-9h4L50,14.8l-7.4,9.8h4V33.7z"/>
		</g>
	</g>
	<g>
		<path id="Layer1_0_1_STROKES" style="fill:none;stroke:#404040;stroke-width:5;stroke-linecap:round;stroke-linejoin:round;" d="
			M71,7.6c-0.5,11.1-0.5,22.2,0,33.3c0,2.4-1.2,3.6-3.6,3.6H32.6c-2.4,0-3.6-1.2-3.6-3.6c0.5-11.1,0.5-22.2,0-33.3
			C29,5.2,30.2,4,32.6,4h34.9C69.8,4,71,5.2,71,7.6z"/>
	</g>
	<g>
		<path id="Layer1_0_2_STROKES" style="fill:none;stroke:#FFFFFF;stroke-width:4;stroke-linecap:round;stroke-linejoin:round;" d="
			M53,38.8h9.8c1.7,0,2.6-0.9,2.6-2.6c-0.5-8-0.5-16.1,0-24.1c0-1.7-0.9-2.6-2.6-2.6H53 M52.2,9.6h-15c-1.7,0-2.6,0.9-2.6,2.6
			c0.5,8,0.5,16.1,0,24.1c0,1.7,0.9,2.6,2.6,2.6h15.1"/>
	</g>
</g>
<g transform="matrix( 1, 0, 0, 1, 0,0) ">
	<g>
		<g id="Layer1_0_FILL_1_">
			<path style="fill:#D7D7D7;" d="M71,92.4c-0.5-11.1-0.5-22.2,0-33.3c0-2.4-1.2-3.6-3.6-3.6H32.6c-2.4,0-3.6,1.2-3.6,3.6
				c0.5,11.1,0.5,22.2,0,33.3c0,2.4,1.2,3.6,3.6,3.6h34.9C69.8,96,71,94.8,71,92.4 M53,61.1h9.8c1.7,0,2.6,0.9,2.6,2.6
				c-0.5,8-0.5,16.1,0,24.1c0,1.7-0.9,2.6-2.6,2.6H53h-0.8h-15c-1.7,0-2.6-0.9-2.6-2.6c0.5-8,0.5-16.1,0-24.1c0-1.7,0.9-2.6,2.6-2.6
				h15.1H53z"/>
			<path style="fill:#F5F5F5;" d="M62.8,61.1H53h-0.8h-15c-1.7,0-2.6,0.9-2.6,2.6c0.5,8,0.5,16.1,0,24.1c0,1.7,0.9,2.6,2.6,2.6h15.1
				H53h9.8c1.7,0,2.6-0.9,2.6-2.6c-0.5-8-0.5-16.1,0-24.1C65.4,62,64.6,61.1,62.8,61.1 M46.6,66.3h6.9v9h4L50,85.2l-7.4-9.8h4V66.3z
				"/>
			<path style="fill:#404040;" d="M53.4,66.3h-6.9v9h-4l7.4,9.8l7.4-9.8h-4L53.4,66.3L53.4,66.3z"/>
		</g>
	</g>
	<g>
		
			<path id="Layer1_0_1_STROKES_1_" style="fill:none;stroke:#404040;stroke-width:5;stroke-linecap:round;stroke-linejoin:round;" d="
			M71,59.1c-0.5,11.1-0.5,22.2,0,33.3c0,2.4-1.2,3.6-3.6,3.6H32.6c-2.4,0-3.6-1.2-3.6-3.6c0.5-11.1,0.5-22.2,0-33.3
			c0-2.4,1.2-3.6,3.6-3.6h34.9C69.8,55.6,71,56.7,71,59.1z"/>
	</g>
	<g>
		
			<path id="Layer1_0_2_STROKES_1_" style="fill:none;stroke:#FFFFFF;stroke-width:4;stroke-linecap:round;stroke-linejoin:round;" d="
			M53,90.4h9.8c1.7,0,2.6-0.9,2.6-2.6c-0.5-8-0.5-16.1,0-24.1c0-1.7-0.9-2.6-2.6-2.6H53 M52.2,61.1h-15c-1.7,0-2.6,0.9-2.6,2.6
			c0.5,8,0.5,16.1,0,24.1c0,1.7,0.9,2.6,2.6,2.6h15.1"/>
	</g>
</g>
</svg>
